<?xml version="1.0" encoding="UTF-8" standalone="no"?>
<svg xmlns:ffdec="https://www.free-decompiler.com/flash" xmlns:xlink="http://www.w3.org/1999/xlink" ffdec:objectType="shape" height="159.25px" width="105.15px" xmlns="http://www.w3.org/2000/svg">
  <g transform="matrix(1.0, 0.0, 0.0, 1.0, 45.95, 45.95)">
    <path d="M25.6 -45.65 Q25.0 -39.1 20.65 -32.5 L20.35 -32.05 Q17.25 -27.4 12.2 -22.45 8.7 -19.0 3.1 -14.45 1.9 -17.4 1.05 -20.1 9.1 -26.9 14.2 -32.2 L18.2 -36.55 Q20.3 -39.2 21.35 -41.55 22.65 -43.7 22.95 -45.95 L25.6 -45.65 M27.6 -44.95 Q29.8 -44.05 33.2 -42.0 36.65 -40.05 40.9 -34.7 44.75 -29.8 47.6 -23.75 L47.6 -23.7 36.7 -23.25 Q30.7 -21.8 27.85 -17.7 27.2 -21.5 27.3 -27.6 L27.35 -37.5 Q27.25 -39.9 26.9 -40.7 27.45 -42.95 27.6 -44.95 M25.4 -34.75 L25.35 -24.85 Q25.45 -19.2 26.45 -15.0 27.35 -11.05 29.1 -5.7 L32.15 3.55 34.4 11.25 Q35.3 15.85 34.35 19.2 27.1 21.25 19.8 22.0 24.05 16.3 21.9 4.35 20.25 -5.3 20.45 -12.4 20.55 -15.7 21.3 -21.6 L22.3 -30.75 Q24.25 -33.75 25.4 -36.4 L25.4 -34.75 M-21.9 -26.9 L-23.6 -28.15 Q-22.25 -34.1 -19.4 -38.4 -15.8 -43.7 -10.7 -44.8 L-9.05 -43.45 Q-15.6 -36.3 -21.9 -26.9 M-23.1 -25.7 L-22.9 -25.55 -22.9 -25.5 -22.85 -25.45 -26.4 -19.85 Q-29.15 -21.8 -34.7 -21.9 L-31.7 -25.25 Q-29.25 -27.8 -24.8 -26.75 L-23.85 -26.2 -23.1 -25.7 M-4.95 -40.9 L-4.95 -40.45 Q-13.1 -27.75 -19.15 -16.6 -24.55 -6.8 -26.25 -1.3 -28.1 4.6 -28.4 8.5 -28.9 14.2 -26.6 18.1 L-27.6 17.9 Q-31.65 16.95 -35.05 15.45 -36.0 6.6 -31.85 -4.0 -28.9 -11.6 -22.5 -21.7 -15.25 -33.15 -7.2 -41.9 L-7.1 -42.1 -4.95 -40.9 M4.55 -34.2 Q9.45 -33.6 14.35 -35.8 L12.0 -33.35 Q7.05 -28.25 0.3 -22.6 -1.85 -30.0 -2.7 -37.65 -0.05 -34.7 4.55 -34.2 M-4.55 -36.7 Q-3.45 -28.5 -1.2 -21.1 L-0.9 -20.25 Q2.25 -10.3 7.3 -2.4 4.1 -0.7 1.95 0.85 L1.45 -0.05 1.1 -0.3 0.05 -1.65 Q-1.5 -4.5 -2.65 -7.6 L-2.85 -8.15 Q-6.5 -18.25 -6.95 -32.7 L-7.0 -32.8 -4.55 -36.7 M-6.15 -7.6 Q-8.5 -9.4 -10.65 -10.7 L-6.5 -13.9 Q-5.85 -11.2 -4.85 -8.45 L-6.15 -7.6 M-4.0 -6.15 L-3.75 -5.6 -4.2 -6.0 -4.0 -6.15 M4.05 -12.15 Q14.7 -20.85 19.95 -27.45 L18.55 -15.4 Q18.25 -11.55 18.5 -7.35 12.7 -5.1 8.8 -3.2 6.4 -6.9 4.05 -12.15 M-14.2 -20.7 L-8.8 -29.85 Q-8.4 -22.4 -7.1 -16.5 L-9.8 -14.4 Q-11.7 -18.75 -14.2 -20.7 M-14.4 -18.6 Q-12.55 -16.7 -11.25 -13.3 L-11.25 -13.25 -12.65 -12.15 -12.7 -12.15 -13.05 -12.05 Q-15.2 -13.4 -17.9 -14.05 L-15.05 -19.2 -14.4 -18.6 M-22.4 -5.0 L-21.95 -5.15 Q-18.1 -7.9 -12.55 -9.75 -6.7 -6.5 -2.5 -2.0 -5.35 -2.65 -8.7 -1.55 -11.65 -0.6 -14.35 1.4 -18.2 4.3 -20.4 9.3 -22.8 14.9 -20.95 19.05 L-24.25 18.55 Q-29.35 12.25 -23.3 -2.85 L-22.4 -5.0 M-18.9 -12.2 Q-17.25 -12.0 -15.35 -11.25 -17.95 -10.25 -20.7 -8.75 L-18.9 -12.2 M-12.75 3.2 Q-10.05 0.9 -6.7 0.15 -2.8 -0.8 -0.05 0.95 L0.55 1.9 -0.15 2.45 Q-5.25 6.6 -5.5 11.1 -5.65 14.15 -3.7 16.8 -6.2 18.0 -9.3 18.65 -12.95 15.9 -14.15 11.95 -15.4 7.8 -13.4 3.75 L-12.75 3.2 M-19.45 13.35 Q-18.75 10.55 -16.65 7.5 -16.8 10.65 -15.4 13.75 -14.05 16.7 -11.55 19.05 -14.75 19.45 -18.9 19.2 -20.25 16.75 -19.45 13.35 M2.65 3.3 L3.7 5.15 Q3.6 5.8 4.15 6.35 5.3 9.5 5.0 13.2 4.7 16.7 3.15 19.9 L3.1 20.3 Q0.8 19.15 -0.8 17.55 -0.75 17.05 -1.2 16.55 -1.6 16.05 -2.1 16.05 -3.8 13.6 -3.4 11.15 -2.85 7.55 2.4 3.5 L2.65 3.3 M4.0 2.35 Q9.2 -1.25 18.7 -4.9 18.9 -2.25 19.4 0.85 20.6 8.5 20.65 11.25 20.65 17.45 17.65 20.9 17.1 15.2 14.05 10.95 10.75 6.3 5.45 4.85 L4.0 2.35 M7.0 14.25 Q7.3 10.55 6.3 7.1 10.85 8.65 13.45 13.1 15.8 17.15 15.75 22.35 9.75 22.6 5.95 21.45 L5.1 21.2 Q6.7 17.9 7.0 14.25 M5.45 23.25 Q9.45 24.75 16.7 24.45 L17.45 24.4 17.7 24.4 29.45 22.75 28.65 23.05 Q20.35 26.3 8.6 27.8 2.15 28.6 -3.95 27.2 -11.1 25.6 -15.1 21.5 -7.65 21.4 -2.1 18.65 0.95 21.65 5.45 23.25 M-36.0 -19.75 Q-31.55 -19.85 -28.75 -18.95 L-27.3 -18.35 -30.15 -13.2 -30.75 -13.25 Q-34.9 -12.25 -38.65 -9.8 -42.35 -7.4 -45.05 -4.0 -43.3 -9.95 -37.4 -18.35 L-36.3 -19.8 -36.0 -19.75 M-35.15 -1.45 L-35.5 -1.4 Q-38.65 0.25 -40.85 2.6 -43.45 5.3 -44.15 8.3 -45.8 5.7 -45.95 2.45 L-45.95 1.55 -45.85 1.45 Q-43.65 -2.75 -39.8 -5.95 -36.0 -9.15 -31.45 -10.7 -33.85 -5.6 -35.15 -1.45 M-37.1 14.45 Q-40.4 12.65 -42.35 10.6 -41.85 5.5 -36.0 1.6 -37.65 8.35 -37.1 14.45 M4.3 43.45 Q2.85 42.45 1.4 41.8 0.35 41.35 0.3 42.3 0.25 43.3 1.1 43.65 2.05 44.1 3.3 44.9 2.3 48.0 3.1 49.75 -7.9 54.4 -17.8 54.65 L-22.0 54.55 Q-24.05 49.6 -24.7 45.15 -25.0 43.2 -24.15 40.3 L-22.5 35.7 Q-20.1 29.3 -16.5 22.45 -12.4 26.8 -5.4 28.8 0.6 30.5 7.35 30.1 17.35 29.55 28.85 25.45 33.15 24.0 35.0 22.5 L35.2 22.2 Q38.3 29.65 40.05 35.2 42.3 42.45 43.0 48.65 43.45 52.8 42.35 57.85 41.55 61.55 39.65 66.75 36.95 74.15 32.2 82.95 L27.75 90.65 27.55 90.7 26.15 91.15 Q23.35 91.95 20.6 92.0 16.8 92.1 14.2 90.25 12.9 89.3 11.8 87.5 10.6 85.5 10.9 84.1 12.75 75.5 15.25 68.35 16.45 64.75 18.1 61.3 L18.55 61.95 Q19.1 62.8 19.95 62.6 20.8 62.35 20.2 61.4 L18.6 59.0 18.25 58.6 13.8 52.85 Q8.65 46.65 5.25 44.15 4.85 43.55 4.3 43.45 M-23.2 56.4 L-17.8 57.0 Q-15.0 63.4 -6.3 68.7 -15.45 70.4 -21.25 68.05 -22.2 67.65 -23.15 66.9 L-24.45 65.5 -24.95 64.85 -25.0 64.25 Q-25.15 62.55 -24.7 60.3 L-24.05 58.35 -23.3 57.3 Q-22.8 56.5 -23.2 56.4 M-24.45 68.3 Q-20.3 72.1 -9.25 71.3 -2.9 70.8 2.35 69.05 9.1 66.8 12.5 62.9 L13.55 66.3 11.95 71.3 4.85 73.95 4.5 74.05 Q-11.25 79.05 -22.2 75.65 L-23.4 72.25 -24.45 68.3 M-4.0 68.25 Q-4.15 67.95 -4.45 67.8 -13.4 62.65 -15.9 56.95 -6.5 56.55 5.65 51.25 9.25 55.55 11.45 60.4 7.55 65.8 -4.0 68.25 M54.15 -14.85 Q57.1 -9.95 58.2 -6.1 51.85 -9.4 45.0 -10.55 37.55 -11.8 31.05 -10.2 35.05 -14.2 41.9 -15.25 L53.95 -14.9 54.15 -14.85 M56.35 7.9 Q50.6 2.55 45.05 -0.35 37.85 -4.2 31.7 -3.55 L30.4 -7.65 30.6 -7.7 Q37.15 -9.8 45.05 -8.5 52.1 -7.35 58.75 -3.8 L59.15 -0.75 Q59.45 4.1 56.35 7.9 M52.65 -17.15 Q46.0 -18.3 40.15 -17.25 33.15 -15.95 29.2 -11.7 L28.55 -14.25 28.6 -14.3 Q30.95 -19.5 37.7 -21.2 43.1 -22.55 49.45 -21.4 L52.65 -17.2 52.65 -17.15 M46.5 2.45 Q50.7 5.0 55.25 9.15 51.25 13.2 43.1 16.35 47.0 9.0 46.5 2.45 M39.75 17.45 L39.7 17.55 36.75 18.55 Q37.15 15.55 36.35 11.7 L34.55 5.05 32.4 -1.45 Q37.95 -2.0 44.4 1.3 45.25 8.9 39.75 17.45 M13.9 97.1 Q13.25 96.65 12.9 97.1 12.3 97.8 11.7 97.55 L11.05 96.95 Q9.95 95.65 9.45 93.85 8.95 91.9 9.35 90.25 9.75 89.95 9.6 89.45 L10.4 88.25 Q12.95 92.65 18.2 93.7 22.75 94.65 28.05 93.0 L29.9 99.3 Q31.1 104.15 31.3 105.75 31.8 109.8 30.65 112.15 29.55 114.4 24.85 112.2 21.7 110.75 18.85 106.6 16.05 102.65 14.6 98.0 14.45 97.55 13.9 97.1 M9.85 78.85 Q9.2 81.1 9.1 82.4 8.9 84.3 9.35 85.95 8.6 86.5 8.0 87.5 3.15 82.85 -5.1 81.2 L-19.9 80.7 -21.25 77.9 Q-10.15 81.05 5.5 76.15 7.6 77.1 9.85 78.85 M10.35 77.05 L7.85 75.35 11.1 74.15 10.35 77.05 M7.8 93.75 Q8.45 96.0 9.75 97.7 5.5 102.5 0.2 105.95 -1.45 99.65 -5.25 95.35 -9.25 90.75 -15.2 88.95 -19.95 87.55 -25.0 88.0 L-19.65 82.9 Q-11.85 81.95 -5.2 83.15 2.95 84.65 7.4 89.3 7.1 91.35 7.8 93.75 M-16.35 90.65 Q-10.5 91.9 -6.6 96.35 -3.05 100.4 -1.55 106.55 L-1.4 106.9 -3.65 108.15 Q-4.9 104.25 -9.0 101.2 -12.4 98.75 -17.05 97.25 -17.6 97.05 -17.8 97.4 -23.7 94.35 -30.7 94.85 L-27.15 90.35 -26.6 90.45 Q-21.95 89.45 -16.35 90.65 M-11.4 106.1 Q-11.35 103.0 -13.35 100.7 -6.7 103.8 -5.4 108.6 L-5.25 108.95 Q-9.3 110.85 -13.25 111.65 -11.5 109.0 -11.4 106.1 M-13.9 107.85 Q-14.45 109.5 -15.7 111.05 -16.05 111.4 -15.8 112.05 -23.55 112.95 -29.95 109.85 -37.35 106.3 -32.15 97.2 -28.65 96.6 -24.95 97.2 -21.35 97.75 -18.1 99.3 -15.25 100.65 -14.1 102.75 -12.9 105.05 -13.9 107.85" fill="#ffffff" fill-rule="evenodd" stroke="none"/>
  </g>
</svg>
