<?xml version="1.0" encoding="UTF-8" standalone="no"?>
<svg xmlns:ffdec="https://www.free-decompiler.com/flash" xmlns:xlink="http://www.w3.org/1999/xlink" ffdec:objectType="shape" height="170.5px" width="104.95px" xmlns="http://www.w3.org/2000/svg">
  <g transform="matrix(1.0, 0.0, 0.0, 1.0, 43.6, 48.0)">
    <path d="M27.35 -47.7 Q30.45 -46.85 34.75 -44.05 38.3 -41.75 42.3 -36.8 44.6 -34.0 46.9 -30.25 L47.6 -28.9 48.4 -27.55 Q42.4 -28.0 37.55 -26.5 31.65 -24.7 29.05 -20.4 28.2 -24.2 27.95 -30.25 L27.5 -40.15 26.85 -43.45 27.35 -47.7 M23.55 -47.85 L23.7 -47.9 25.3 -48.0 Q25.1 -43.6 22.85 -38.75 21.15 -35.0 17.9 -30.45 13.1 -23.8 4.5 -15.9 3.05 -19.0 2.15 -21.4 9.3 -28.05 14.65 -34.15 L19.0 -39.65 Q22.5 -43.0 22.85 -47.25 L23.55 -47.85 M12.45 -35.3 Q8.1 -30.25 1.25 -23.85 -1.1 -30.6 -2.35 -37.75 0.15 -35.4 4.35 -34.9 8.65 -34.35 13.1 -36.05 L12.45 -35.3 M26.25 -27.5 Q26.65 -21.9 27.8 -17.75 28.85 -13.95 30.95 -8.6 L34.5 0.45 Q36.6 5.8 37.2 8.1 38.35 12.6 37.6 16.0 30.2 18.5 23.2 19.6 27.05 13.65 24.25 1.65 22.15 -7.6 21.95 -15.0 21.85 -18.3 22.3 -24.1 L22.8 -33.25 Q24.55 -36.15 25.65 -39.15 L25.75 -37.4 26.25 -27.5 M-9.2 -44.1 Q-15.1 -36.95 -21.1 -27.0 L-22.85 -28.15 Q-21.9 -34.15 -19.2 -38.6 -15.95 -44.05 -10.95 -45.4 L-10.85 -45.45 -9.2 -44.1 M-22.3 -25.75 L-21.95 -25.5 -25.2 -19.75 Q-27.85 -21.5 -33.6 -21.3 L-30.85 -24.8 Q-28.5 -27.55 -24.0 -26.65 L-22.3 -25.75 M-7.25 -42.75 L-4.9 -41.45 Q-12.15 -28.6 -17.8 -16.9 -22.5 -7.0 -24.05 -1.25 -25.6 4.5 -25.7 8.65 -25.85 14.45 -23.35 18.2 L-25.1 17.9 Q-28.45 17.3 -31.95 16.0 -33.35 7.2 -29.8 -3.6 -27.3 -11.25 -21.45 -21.7 -14.9 -33.45 -7.3 -42.75 L-7.25 -42.75 M-6.55 -33.65 L-4.3 -37.75 Q-2.9 -30.05 -0.05 -22.3 -0.05 -21.85 0.25 -21.4 3.95 -11.75 9.4 -4.1 L4.25 -0.55 3.7 -1.4 3.25 -1.7 2.15 -2.95 Q0.4 -5.9 -0.8 -8.65 L-1.1 -9.4 Q-5.3 -19.25 -6.5 -33.55 L-6.55 -33.65 M-4.3 -8.55 L-9.0 -11.4 -5.05 -14.85 -3.1 -9.5 -4.3 -8.55 M-2.3 -7.05 L-2.1 -7.25 -1.8 -6.65 -2.3 -7.05 M5.6 -13.65 Q15.85 -22.95 20.7 -29.9 L20.25 -23.7 19.95 -17.45 Q19.9 -14.0 20.3 -9.65 14.35 -6.95 10.8 -4.95 8.15 -8.6 5.6 -13.65 M-13.85 -19.7 Q-11.5 -18.05 -9.75 -14.05 L-9.7 -13.95 -11.05 -12.8 -11.45 -12.65 Q-13.9 -14.0 -16.45 -14.35 L-13.85 -19.7 M-13.05 -21.25 L-8.2 -30.65 Q-7.35 -23.2 -5.75 -17.4 L-8.35 -15.1 Q-10.35 -19.25 -13.05 -21.25 M-20.05 -5.2 Q-16.35 -8.15 -10.85 -10.35 -4.7 -7.3 -0.5 -3.25 -8.15 -4.7 -14.65 3.6 -21.15 11.9 -17.6 18.85 L-21.0 18.55 Q-24.15 14.95 -23.75 8.35 -23.45 3.95 -21.45 -2.35 L-20.5 -5.05 Q-20.2 -5.05 -20.05 -5.2 M-17.25 -12.45 L-13.75 -11.7 -18.9 -8.9 -17.35 -12.45 -17.25 -12.45 M-11.0 3.2 L-10.4 2.65 Q-7.8 0.2 -4.45 -0.75 -0.55 -1.95 2.25 -0.3 L2.9 0.6 2.25 1.15 Q-2.65 5.45 -2.65 9.95 -2.65 13.05 -0.55 15.7 -3.0 17.05 -6.05 17.85 -9.85 15.4 -11.3 11.45 -12.8 7.3 -11.0 3.2 M-8.25 18.35 L-15.6 18.9 Q-17.2 16.55 -16.55 13.15 -16.0 10.2 -13.95 7.05 -13.95 10.25 -12.4 13.25 -10.9 16.1 -8.25 18.35 M6.35 0.85 Q11.2 -2.9 20.6 -7.2 21.0 -4.3 21.75 -0.95 23.3 6.0 23.45 9.1 23.7 15.1 20.95 18.65 20.1 13.0 16.85 8.85 13.25 4.4 7.9 3.25 L6.35 0.85 M6.2 3.7 Q6.2 4.45 6.75 4.85 8.05 7.95 7.95 11.6 7.85 15.05 6.5 18.35 L6.45 18.7 Q3.95 17.55 2.4 16.25 L1.95 15.4 Q1.55 15.0 1.05 14.95 -1.05 12.35 -0.5 9.35 0.2 5.85 5.05 1.9 L6.2 3.7 M-5.15 19.95 Q-1.55 18.95 1.15 17.45 4.15 20.0 8.85 21.65 12.8 23.0 20.2 22.2 L20.95 22.15 21.3 22.1 30.0 20.55 28.75 21.1 Q24.85 22.75 19.85 24.05 L10.65 26.1 Q3.95 27.4 -2.7 26.3 -10.35 25.1 -14.75 21.1 -9.85 21.1 -5.7 20.1 L-5.15 19.95 M9.95 12.5 Q10.1 8.8 8.9 5.5 13.55 6.8 16.3 11.05 18.85 14.95 19.15 20.15 12.3 20.85 8.45 19.5 9.8 16.1 9.95 12.5 M-34.85 -19.05 L-30.4 -19.2 Q-27.55 -19.05 -26.0 -18.15 L-28.6 -12.9 -29.15 -12.9 Q-33.25 -11.65 -36.9 -9.0 -40.45 -6.4 -43.0 -2.85 -41.55 -8.95 -36.15 -17.55 L-35.15 -19.1 -34.85 -19.05 M-29.75 -10.25 Q-31.9 -5.0 -32.95 -0.8 L-33.45 -0.7 Q-36.45 1.1 -38.55 3.6 -40.85 6.4 -41.4 9.45 -43.25 6.85 -43.55 3.7 L-43.6 2.75 -43.55 2.65 Q-41.55 -1.65 -37.85 -5.05 -34.2 -8.5 -29.75 -10.25 M-33.6 2.25 Q-34.9 8.9 -34.05 15.15 -37.25 13.65 -39.55 11.55 -39.5 8.9 -37.7 6.35 -36.15 4.1 -33.6 2.25 M3.75 44.95 Q2.75 44.6 2.85 45.65 3.1 48.65 -0.9 52.55 -1.65 53.0 -4.0 55.35 -4.6 56.0 -3.85 56.85 -3.15 57.75 -2.45 57.2 L0.65 54.35 Q1.2 54.0 1.25 54.35 1.65 56.4 0.4 57.65 -2.9 60.95 -9.3 61.4 -15.45 61.9 -22.4 60.0 L-22.6 59.7 Q-29.5 52.2 -25.9 40.65 -23.5 32.9 -15.75 22.45 -11.45 26.3 -4.75 27.9 1.1 29.3 7.55 28.75 17.55 27.9 29.0 23.5 L33.3 21.6 Q33.8 28.15 33.35 36.35 L32.1 51.05 Q30.7 66.0 27.6 85.7 L24.5 104.45 Q24.0 107.1 16.6 108.3 10.15 109.35 7.6 107.4 L7.15 106.9 7.1 105.9 Q6.25 97.65 6.05 85.9 L5.9 65.85 5.9 65.65 Q5.75 54.3 4.85 46.15 4.75 45.3 3.75 44.95 M-21.25 62.3 Q-9.65 65.25 -1.9 62.05 -0.75 61.55 -0.05 61.05 L0.15 61.15 3.7 62.25 3.75 64.6 Q-2.7 67.35 -9.2 67.0 -16.5 66.6 -21.25 62.3 M-10.35 68.9 Q-3.35 69.8 3.75 67.15 L3.75 71.15 Q-10.05 76.55 -18.45 73.0 L-19.15 72.9 Q-23.25 67.6 -23.05 62.9 -18.05 67.95 -10.35 68.9 M3.7 60.25 L1.65 59.6 Q3.55 57.7 3.55 55.6 L3.7 60.25 M55.65 -19.1 Q58.6 -14.9 60.15 -10.5 53.5 -13.5 46.6 -14.3 39.05 -15.15 32.7 -13.15 36.2 -17.15 43.05 -18.65 L55.2 -19.05 55.65 -19.1 M59.0 3.6 Q53.0 -1.45 47.25 -4.1 39.8 -7.6 33.65 -6.6 L32.15 -10.55 32.3 -10.6 Q38.8 -13.05 46.8 -12.2 54.0 -11.45 60.8 -8.2 61.45 -5.35 61.3 -2.85 61.1 0.55 59.0 3.6 M50.55 -25.35 L54.05 -21.25 Q47.3 -22.05 41.5 -20.65 34.55 -19.0 30.75 -14.5 L29.95 -17.05 29.95 -17.1 Q32.05 -22.4 38.65 -24.5 44.0 -26.15 50.4 -25.35 L50.55 -25.35 M46.65 -2.35 Q47.9 5.05 42.9 13.9 L42.8 14.15 39.85 15.25 Q40.1 12.25 39.15 8.45 L37.0 1.95 34.5 -4.5 Q40.05 -5.3 46.65 -2.35 M48.75 -1.35 Q53.2 1.0 57.95 4.95 54.15 9.3 46.1 12.8 49.65 5.1 48.75 -1.35 M23.3 108.8 Q24.25 114.1 23.55 117.55 22.5 122.7 18.05 122.5 14.15 122.35 11.2 117.95 8.9 114.55 7.65 109.5 10.65 111.25 15.5 110.85 19.65 110.5 23.3 108.8 M3.75 78.9 Q-4.4 81.15 -11.5 80.3 -14.6 77.95 -16.9 75.5 -8.4 78.1 3.75 73.65 L3.75 78.9 M4.1 92.6 Q-0.65 89.55 -10.5 90.05 L-10.95 90.15 -15.35 90.55 -13.9 87.8 -13.75 87.75 Q-9.45 86.3 -4.9 86.25 -0.15 86.2 3.9 87.7 L4.1 92.6 M4.2 94.8 L4.95 104.25 0.35 105.9 Q2.1 99.3 -1.3 94.65 -2.2 93.35 -4.25 92.15 1.2 92.5 4.1 94.7 L4.2 94.8 M3.8 85.7 Q-3.75 82.95 -12.45 85.0 L-10.9 82.4 Q-3.9 83.2 3.75 81.25 L3.8 85.7 M-9.3 92.45 Q-4.85 93.15 -2.55 95.75 -0.95 97.6 -1.0 100.95 -1.1 103.65 -2.15 106.55 -7.15 107.5 -11.9 106.35 -15.05 105.6 -16.65 103.6 -18.3 101.5 -17.95 98.35 -17.75 96.35 -16.8 93.75 -13.9 91.7 -9.3 92.45" fill="#ffffff" fill-rule="evenodd" stroke="none"/>
  </g>
</svg>
