<?xml version="1.0" encoding="UTF-8" standalone="no"?>
<svg xmlns:ffdec="https://www.free-decompiler.com/flash" xmlns:xlink="http://www.w3.org/1999/xlink" ffdec:objectType="shape" height="167.35px" width="105.15px" xmlns="http://www.w3.org/2000/svg">
  <g transform="matrix(1.0, 0.0, 0.0, 1.0, 45.0, 45.95)">
    <path d="M26.5 -45.65 Q25.95 -39.1 21.55 -32.5 L21.25 -32.05 Q18.15 -27.4 13.1 -22.45 9.6 -19.0 4.0 -14.45 L1.95 -20.1 Q9.85 -26.75 15.15 -32.2 20.6 -37.75 22.25 -41.55 23.55 -43.65 23.85 -45.95 L26.5 -45.65 M28.55 -44.95 L34.1 -42.0 Q37.65 -40.0 41.8 -34.7 45.65 -29.8 48.5 -23.75 L48.5 -23.7 37.65 -23.25 Q31.6 -21.8 28.75 -17.7 28.1 -21.5 28.2 -27.6 L28.3 -37.5 Q28.2 -39.9 27.85 -40.7 28.4 -42.95 28.55 -44.95 M12.95 -33.35 Q8.25 -28.5 1.2 -22.6 -0.9 -30.0 -1.8 -37.65 0.85 -34.7 5.45 -34.2 10.4 -33.6 15.3 -35.8 L12.95 -33.35 M26.35 -36.4 L26.35 -34.75 26.3 -24.85 Q26.4 -19.25 27.35 -15.0 28.25 -11.0 30.0 -5.7 L33.1 3.55 35.3 11.25 Q36.2 15.85 35.3 19.2 28.1 21.25 20.75 22.0 24.9 16.35 22.85 4.35 21.15 -5.15 21.35 -12.4 21.45 -15.75 22.25 -21.6 L23.25 -30.75 Q25.2 -33.75 26.35 -36.4 M-20.95 -26.9 L-22.65 -28.15 Q-21.3 -34.1 -18.45 -38.4 -14.85 -43.7 -9.8 -44.8 L-8.15 -43.45 Q-14.7 -36.2 -20.95 -26.9 M-22.95 -26.2 L-22.2 -25.7 -22.0 -25.55 -21.9 -25.45 -23.4 -23.15 -25.5 -19.85 Q-28.25 -21.8 -33.75 -21.9 L-30.8 -25.25 Q-29.4 -26.65 -27.6 -27.0 L-23.9 -26.75 -22.95 -26.2 M-4.0 -40.9 L-4.05 -40.65 -4.0 -40.45 Q-11.55 -28.75 -18.25 -16.6 L-22.15 -9.1 Q-24.25 -4.85 -25.35 -1.3 -27.15 4.7 -27.45 8.5 -27.9 14.2 -25.65 18.1 L-26.7 17.9 Q-30.75 16.95 -34.1 15.45 -35.05 6.6 -30.9 -4.0 -27.95 -11.6 -21.55 -21.7 -14.2 -33.35 -6.3 -41.9 L-6.2 -42.1 -4.0 -40.9 M-3.6 -36.7 Q-2.6 -28.5 -0.25 -21.1 -0.3 -20.65 0.0 -20.25 3.05 -10.5 8.2 -2.4 5.25 -0.8 2.9 0.85 L2.4 -0.05 2.0 -0.3 0.95 -1.65 Q-0.45 -4.2 -1.7 -7.6 L-1.95 -8.15 Q-5.55 -18.0 -6.05 -32.7 L-6.05 -32.8 -3.6 -36.7 M-5.2 -7.6 L-9.75 -10.7 -5.6 -13.9 -3.95 -8.45 -5.2 -7.6 M-3.05 -6.15 L-2.8 -5.6 -3.3 -6.0 Q-3.15 -6.05 -3.05 -6.15 M-7.75 -1.55 Q-10.7 -0.6 -13.4 1.4 -17.25 4.3 -19.45 9.3 -21.85 14.9 -20.0 19.05 L-23.35 18.55 Q-28.4 12.2 -22.4 -2.85 L-21.5 -5.0 Q-21.2 -5.0 -21.05 -5.15 -17.05 -7.95 -11.65 -9.75 -5.8 -6.55 -1.55 -2.0 -4.4 -2.65 -7.75 -1.55 M4.95 -12.15 Q15.55 -20.75 20.85 -27.45 L20.1 -21.45 19.45 -15.4 Q19.25 -11.35 19.45 -7.35 13.95 -5.25 9.75 -3.2 7.2 -7.15 4.95 -12.15 M-13.25 -20.7 L-7.9 -29.85 Q-7.5 -22.85 -6.2 -16.5 L-8.85 -14.4 Q-10.75 -18.75 -13.25 -20.7 M-14.15 -19.2 L-13.5 -18.6 Q-11.5 -16.55 -10.35 -13.3 L-10.3 -13.25 -11.75 -12.15 -12.15 -12.05 Q-14.2 -13.4 -17.0 -14.05 L-14.15 -19.2 M-26.4 -18.35 L-29.25 -13.2 -29.85 -13.25 Q-33.95 -12.25 -37.7 -9.8 -41.35 -7.4 -44.1 -4.0 -42.45 -9.8 -36.45 -18.35 L-35.4 -19.8 -35.1 -19.75 Q-30.65 -19.85 -27.85 -18.95 L-26.4 -18.35 M-18.0 -12.2 Q-16.3 -12.0 -14.4 -11.25 L-19.75 -8.75 -18.0 -12.2 M-11.85 3.2 Q-9.1 0.9 -5.75 0.15 -1.85 -0.8 0.85 0.95 L1.5 1.9 0.75 2.45 Q-4.3 6.6 -4.55 11.1 -4.75 14.05 -2.75 16.8 -5.35 18.0 -8.4 18.65 -12.05 15.9 -13.25 11.95 -14.5 7.8 -12.45 3.75 L-11.85 3.2 M-10.6 19.05 Q-13.8 19.45 -17.95 19.2 -19.3 16.7 -18.5 13.35 -17.8 10.5 -15.7 7.5 -15.9 10.65 -14.5 13.75 -13.15 16.7 -10.6 19.05 M4.9 2.35 Q10.1 -1.25 19.6 -4.9 19.8 -2.25 20.3 0.85 21.5 8.5 21.55 11.25 21.55 17.45 18.55 20.95 18.0 15.25 14.95 10.95 11.65 6.35 6.35 4.85 L4.9 2.35 M5.1 6.35 Q6.25 9.55 5.95 13.2 5.65 16.7 4.1 19.9 L4.0 20.3 Q1.85 19.25 0.1 17.55 L-0.25 16.55 Q-0.65 16.05 -1.15 16.05 -2.85 13.7 -2.45 11.15 -2.1 9.0 -0.3 6.8 L3.3 3.5 3.55 3.3 4.6 5.15 Q4.6 5.9 5.1 6.35 M6.0 21.2 Q7.6 17.85 7.9 14.25 8.25 10.5 7.2 7.1 11.75 8.65 14.35 13.1 16.7 17.15 16.65 22.35 10.75 22.6 6.85 21.45 L6.0 21.2 M6.35 23.25 Q10.4 24.75 17.6 24.45 L18.35 24.4 18.65 24.4 24.9 23.75 Q18.6 25.3 8.9 26.4 2.35 27.15 -3.65 26.15 -10.85 24.95 -15.35 21.5 -7.2 21.65 -1.2 18.65 1.95 21.65 6.35 23.25 M-34.6 -1.4 Q-37.75 0.25 -39.95 2.6 -42.55 5.3 -43.25 8.3 -44.95 5.65 -45.0 2.45 L-45.0 1.55 -44.95 1.45 Q-42.7 -2.75 -38.85 -5.95 -35.05 -9.15 -30.5 -10.7 -32.7 -6.1 -34.2 -1.45 L-34.6 -1.4 M-36.2 14.45 Q-39.4 12.75 -41.45 10.6 -40.9 5.45 -35.05 1.6 -36.75 8.5 -36.2 14.45 M-29.15 56.95 Q-27.4 59.4 -25.15 61.1 -18.05 66.4 -9.0 62.95 -1.65 60.15 4.9 52.75 L5.65 58.5 5.5 58.55 Q-1.55 64.05 -7.35 66.2 -15.45 69.15 -21.8 66.0 -23.95 64.9 -26.0 62.75 -27.95 60.7 -29.0 58.55 L-29.15 56.95 M-28.75 41.2 Q-27.05 37.0 -22.95 31.85 L-15.8 23.35 Q-11.4 26.6 -4.55 27.9 L7.55 28.7 Q17.75 28.2 28.65 25.05 31.9 24.15 33.65 23.2 34.8 30.2 34.95 39.1 L34.55 55.05 Q33.9 69.75 31.85 89.3 L30.65 100.05 30.45 101.8 30.1 103.4 Q29.2 105.2 25.15 106.65 18.4 109.2 13.1 106.8 11.7 106.1 10.7 105.1 L10.4 104.8 9.95 93.05 10.0 92.55 9.9 92.05 Q9.3 77.1 8.7 69.2 7.7 56.6 5.75 46.5 5.6 45.7 4.55 45.35 3.55 45.0 3.75 46.0 L4.4 49.7 4.35 49.75 Q-1.35 56.7 -7.7 59.9 -15.8 63.95 -22.65 60.6 -27.95 58.05 -29.5 52.2 -30.95 46.85 -28.75 41.2 M-6.65 72.6 Q-10.75 74.45 -16.05 73.85 -20.75 73.35 -25.3 71.1 -27.4 67.35 -28.35 62.65 -25.75 65.8 -22.5 67.65 -11.25 74.05 5.6 61.5 3.6 65.05 0.3 68.0 -2.85 70.85 -6.65 72.6 M6.7 69.05 Q4.65 74.45 -3.0 78.6 -7.7 81.15 -12.75 80.5 -17.85 79.8 -21.65 76.05 L-23.5 73.9 Q-14.95 77.45 -7.25 75.25 -3.4 74.2 0.35 71.25 3.85 68.45 6.35 64.75 L6.7 69.05 M55.05 -14.85 Q57.9 -10.25 59.1 -6.1 52.75 -9.4 45.9 -10.55 38.45 -11.8 32.0 -10.2 35.95 -14.2 42.8 -15.25 L54.85 -14.9 55.05 -14.85 M53.6 -17.15 Q46.95 -18.3 41.1 -17.25 34.1 -15.95 30.1 -11.7 L29.45 -14.25 29.5 -14.3 Q31.85 -19.5 38.6 -21.2 44.05 -22.55 50.35 -21.4 L50.4 -21.4 53.55 -17.2 53.6 -17.15 M57.25 7.9 Q51.55 2.6 46.0 -0.35 38.8 -4.2 32.65 -3.55 L31.3 -7.65 31.55 -7.7 Q38.1 -9.8 46.0 -8.5 53.05 -7.35 59.7 -3.8 L60.1 -0.75 Q60.4 4.05 57.25 7.9 M35.45 5.05 L33.35 -1.45 Q38.85 -2.0 45.35 1.3 46.2 8.75 40.7 17.45 L40.65 17.55 37.65 18.55 Q38.1 15.6 37.3 11.7 L35.45 5.05 M47.4 2.45 Q51.75 5.0 56.15 9.15 52.2 13.15 44.05 16.35 47.95 9.0 47.4 2.45 M21.95 109.9 Q26.15 109.4 29.35 107.35 30.85 113.1 30.2 116.85 29.3 122.15 24.05 121.25 17.1 120.05 11.5 108.0 13.1 108.9 14.2 109.2 17.75 110.4 21.95 109.9 M-6.0 89.0 L-6.25 89.6 -12.1 89.9 Q-14.95 90.7 -16.9 93.2 -17.85 87.8 -16.85 81.4 -13.45 82.85 -9.7 82.7 -6.0 82.6 -2.45 80.95 0.15 79.75 2.65 77.85 5.3 75.7 7.0 73.35 L7.7 86.55 7.7 86.65 0.5 86.25 Q-3.65 86.7 -6.0 89.0 M1.85 88.3 L7.75 88.7 7.9 92.3 7.1 95.65 Q0.95 91.55 -3.65 90.15 -1.5 88.55 1.85 88.3 M6.45 97.3 L4.85 100.15 Q2.2 104.05 -2.85 104.75 -7.8 105.45 -11.7 102.7 -14.65 100.6 -16.05 96.45 L-15.95 96.2 Q-13.45 90.1 -5.4 91.9 0.15 93.1 6.45 97.3" fill="#ffffff" fill-rule="evenodd" stroke="none"/>
  </g>
</svg>
