<?xml version="1.0" encoding="UTF-8" standalone="no"?>
<svg xmlns:ffdec="https://www.free-decompiler.com/flash" xmlns:xlink="http://www.w3.org/1999/xlink" ffdec:objectType="shape" height="166.0px" width="105.15px" xmlns="http://www.w3.org/2000/svg">
  <g transform="matrix(1.0, 0.0, 0.0, 1.0, 44.2, 45.55)">
    <path d="M32.45 -43.05 L35.05 -41.6 Q38.45 -39.65 42.7 -34.3 46.5 -29.5 49.4 -23.3 L49.4 -23.25 38.5 -22.85 Q32.5 -21.4 29.6 -17.25 28.95 -21.1 29.05 -27.15 L29.15 -37.1 Q29.15 -39.3 28.75 -40.3 29.3 -42.55 29.45 -44.55 L32.45 -43.05 M27.45 -45.25 Q26.85 -38.8 22.45 -32.1 L22.15 -31.65 Q16.85 -23.75 4.85 -14.1 3.8 -16.7 2.85 -19.7 10.45 -26.1 16.05 -31.8 L20.5 -36.8 Q22.85 -39.85 23.7 -42.6 23.85 -43.0 23.6 -43.4 L24.15 -45.5 24.2 -45.5 27.45 -45.25 M13.8 -32.95 Q9.35 -28.35 2.1 -22.2 0.05 -29.25 -0.8 -36.7 1.9 -34.05 6.35 -33.75 11.85 -33.35 16.9 -36.2 L13.8 -32.95 M27.2 -35.95 L27.25 -34.3 27.15 -24.45 Q27.25 -18.8 28.25 -14.6 29.15 -10.6 30.85 -5.25 L33.9 3.95 Q35.65 9.25 36.15 11.7 37.0 16.25 36.1 19.6 28.75 21.65 21.55 22.4 25.7 16.75 23.65 4.75 22.0 -4.95 22.25 -12.0 22.35 -15.4 23.1 -21.2 L24.15 -30.35 Q25.8 -32.85 27.2 -35.95 M-21.8 -27.8 Q-20.5 -33.45 -17.85 -37.65 -14.5 -42.8 -9.85 -44.2 L-7.75 -42.55 Q-13.95 -35.6 -20.1 -26.6 -20.85 -27.35 -21.8 -27.8 M-3.2 -40.0 Q-10.95 -27.95 -17.4 -16.25 L-21.3 -8.8 Q-23.4 -4.55 -24.5 -1.0 -26.35 4.9 -26.65 8.8 -27.15 14.55 -24.85 18.45 L-25.9 18.2 Q-29.95 17.25 -33.3 15.75 -34.25 6.9 -30.05 -3.7 -27.1 -11.25 -20.7 -21.4 -13.6 -32.5 -5.7 -41.25 -4.25 -40.45 -3.2 -40.0 M-5.2 -32.45 L-2.7 -36.35 Q-1.7 -28.35 0.6 -20.7 L0.85 -19.9 Q3.95 -10.05 9.05 -2.0 6.3 -0.6 3.7 1.25 3.65 0.75 3.2 0.3 L2.85 0.05 1.8 -1.3 Q0.35 -4.05 -0.85 -7.25 L-1.1 -7.8 Q-4.7 -17.75 -5.15 -32.35 L-5.2 -32.45 M-6.95 -1.2 Q-9.9 -0.3 -12.6 1.75 -16.5 4.65 -18.65 9.65 -21.05 15.2 -19.2 19.35 L-22.55 18.9 Q-27.55 12.6 -21.55 -2.55 L-20.65 -4.7 -20.2 -4.8 Q-16.5 -7.45 -10.8 -9.45 -4.75 -6.0 -0.75 -1.65 -3.6 -2.3 -6.95 -1.2 M-4.35 -7.25 L-8.9 -10.35 -4.75 -13.55 -3.1 -8.1 -4.35 -7.25 M-2.45 -5.65 L-2.2 -5.8 -2.0 -5.25 -2.45 -5.65 M5.8 -11.8 Q16.3 -20.2 21.75 -27.05 L20.95 -21.05 20.35 -15.0 Q20.1 -11.4 20.25 -6.95 14.45 -4.7 10.55 -2.8 7.85 -7.2 5.8 -11.8 M-12.4 -20.4 L-7.0 -29.5 Q-6.6 -22.2 -5.35 -16.15 L-8.0 -14.05 Q-9.9 -18.4 -12.4 -20.4 M-12.6 -18.25 Q-10.65 -16.15 -9.5 -12.95 L-9.45 -12.9 -10.9 -11.85 -11.3 -11.7 Q-13.55 -13.15 -16.15 -13.7 L-13.25 -18.85 -12.6 -18.25 M-25.55 -18.0 L-28.4 -12.9 -29.0 -12.95 Q-33.1 -11.95 -36.85 -9.5 -40.5 -7.15 -43.3 -3.75 -41.6 -9.45 -35.6 -18.05 L-34.5 -19.5 -34.2 -19.45 Q-30.0 -19.55 -26.95 -18.65 L-25.55 -18.0 M-21.05 -25.15 L-24.6 -19.55 Q-27.35 -21.5 -32.9 -21.6 L-29.9 -24.95 Q-27.45 -27.55 -23.0 -26.4 L-21.3 -25.4 -21.1 -25.25 -21.1 -25.2 -21.05 -25.15 M-13.55 -10.9 Q-16.55 -9.75 -18.9 -8.45 L-17.15 -11.9 -13.55 -10.9 M-11.0 3.55 Q-8.3 1.25 -4.9 0.5 -1.0 -0.4 1.7 1.35 L2.3 2.3 1.6 2.8 Q-3.5 6.95 -3.75 11.45 -3.95 14.4 -1.95 17.15 -4.55 18.35 -7.6 19.0 -11.25 16.25 -12.4 12.3 -13.65 8.1 -11.65 4.1 L-11.0 3.55 M-9.8 19.4 Q-13.0 19.8 -17.15 19.55 -18.5 17.05 -17.7 13.7 -17.0 10.85 -14.9 7.85 -15.05 11.0 -13.65 14.1 -12.3 17.05 -9.8 19.4 M5.75 2.7 Q10.65 -0.7 20.45 -4.5 20.65 -1.85 21.15 1.25 22.35 8.8 22.35 11.65 22.35 17.85 19.35 21.3 18.8 15.6 15.75 11.35 12.5 6.7 7.2 5.25 6.65 4.0 5.75 2.7 M4.4 3.7 L5.4 5.5 Q5.4 6.2 5.9 6.7 7.05 9.85 6.75 13.55 6.45 17.05 4.9 20.25 L4.8 20.65 Q2.55 19.5 0.9 17.95 0.95 17.4 0.55 16.9 0.15 16.4 -0.35 16.45 -2.1 14.05 -1.65 11.5 -1.1 7.9 4.15 3.85 L4.4 3.7 M6.8 21.55 Q8.4 18.25 8.7 14.6 9.05 10.9 8.05 7.5 12.6 9.05 15.15 13.5 17.5 17.55 17.45 22.75 11.7 23.0 7.65 21.85 L6.8 21.55 M7.15 23.65 Q11.3 25.2 18.4 24.8 L18.7 24.9 8.55 26.3 Q2.25 27.0 -3.6 26.1 -10.6 25.0 -15.1 21.8 -6.6 22.15 -0.4 19.0 2.7 21.95 7.15 23.65 M-33.35 -1.15 L-33.75 -1.1 Q-36.9 0.5 -39.1 2.85 -41.7 5.6 -42.4 8.6 -44.05 5.9 -44.2 2.75 L-44.2 1.85 -44.1 1.7 Q-41.85 -2.5 -38.05 -5.7 -34.25 -8.85 -29.65 -10.4 -32.05 -5.4 -33.35 -1.15 M-34.25 1.9 Q-35.9 8.65 -35.35 14.75 -38.6 13.05 -40.6 10.9 -40.1 5.8 -34.25 1.9 M0.7 44.55 Q0.05 45.15 0.7 46.0 2.0 47.75 3.15 50.25 L3.05 50.35 Q1.4 53.8 -0.6 59.3 -0.9 60.15 -2.65 61.05 -8.0 63.65 -14.15 63.25 -20.75 62.75 -24.8 58.85 L-25.15 58.4 -25.55 55.75 Q-25.8 52.45 -24.95 48.55 -24.35 45.9 -22.85 41.6 L-16.55 22.9 Q-12.15 26.35 -5.15 27.75 L7.2 28.6 Q17.4 28.1 28.3 24.95 32.35 23.75 33.9 22.75 L34.15 22.5 36.3 21.95 Q37.8 30.7 38.2 41.15 38.5 49.4 38.1 60.5 37.6 76.2 35.6 94.15 L34.8 100.7 Q30.45 103.55 25.15 102.55 20.3 101.6 16.4 97.85 L13.8 83.6 Q11.15 70.45 8.6 61.3 L6.0 52.8 Q4.25 48.05 1.95 44.9 1.3 44.0 0.7 44.55 M-25.6 60.35 L-23.75 61.85 -23.7 62.45 Q-22.7 64.85 -20.1 66.35 -18.15 67.5 -14.85 68.3 -23.0 70.35 -29.95 66.95 -30.5 61.8 -27.1 58.15 -26.55 59.45 -25.6 60.35 M-16.65 65.95 Q-20.05 64.95 -21.3 63.3 -14.85 66.35 -6.5 64.6 -9.0 66.2 -11.2 67.05 L-16.65 65.95 M-9.55 68.9 Q-3.1 66.1 1.75 60.7 2.85 61.3 4.4 66.45 -1.05 72.35 -10.0 74.75 -18.15 76.9 -26.8 75.55 -28.8 72.15 -29.55 69.1 -20.45 73.2 -10.4 69.25 -9.7 69.4 -9.55 68.9 M55.9 -14.4 Q58.75 -9.8 59.95 -5.65 53.55 -9.0 46.75 -10.15 39.3 -11.4 32.85 -9.8 36.8 -13.75 43.65 -14.8 L55.7 -14.45 55.9 -14.4 M54.45 -16.7 Q47.8 -17.85 41.95 -16.8 34.95 -15.55 30.95 -11.3 L30.3 -13.85 30.35 -13.9 Q32.7 -19.05 39.35 -20.75 44.65 -22.1 51.0 -21.0 L54.4 -16.75 54.45 -16.7 M58.1 8.35 Q52.35 3.0 46.8 0.05 39.6 -3.8 33.45 -3.15 L32.15 -7.25 32.4 -7.3 Q38.95 -9.35 46.85 -8.05 53.95 -6.9 60.5 -3.3 L60.9 -0.25 Q61.2 4.55 58.1 8.35 M41.45 18.0 L38.45 18.95 Q38.9 15.95 38.1 12.1 L36.3 5.45 34.2 -1.05 Q39.75 -1.6 46.2 1.75 47.0 9.3 41.5 17.85 L41.45 18.0 M48.25 2.9 Q52.6 5.5 56.95 9.6 52.95 13.7 44.85 16.8 48.75 9.45 48.25 2.9 M19.7 108.75 L18.0 108.65 Q16.2 108.25 15.9 107.6 15.45 106.55 15.55 104.85 L15.85 102.0 16.25 100.0 Q20.55 103.65 25.45 104.6 30.85 105.65 35.4 103.1 36.1 104.55 37.75 106.95 L40.6 113.15 Q42.25 117.85 40.45 119.35 39.0 120.6 36.35 120.4 34.25 120.25 32.2 119.3 29.3 118.0 25.45 113.85 23.05 111.1 21.5 108.45 21.05 107.7 20.3 107.75 19.5 107.75 19.7 108.75 M8.2 85.0 Q2.65 79.95 -6.4 79.6 -11.65 79.4 -22.55 81.2 L-25.35 77.75 Q-19.75 78.5 -14.2 77.8 -8.3 77.1 -3.4 74.85 L-2.75 75.25 Q0.3 75.7 2.7 76.95 5.55 78.45 6.75 80.75 7.1 81.45 7.8 81.45 L7.85 81.7 8.2 85.0 M7.85 94.3 Q7.2 97.45 3.8 100.75 1.6 90.85 -10.8 88.9 -19.9 87.5 -25.95 89.25 L-21.95 83.35 Q-10.7 81.4 -5.9 81.6 3.25 81.95 8.35 87.55 8.5 91.35 7.85 94.3 M-0.9 73.6 Q2.3 71.9 5.15 69.05 6.6 73.9 7.35 78.6 4.5 75.05 -0.9 73.6 M-27.3 92.15 Q-21.25 89.6 -12.6 90.7 -6.1 91.55 -2.8 93.7 1.55 96.45 2.15 102.2 L2.15 102.25 -1.1 104.75 Q-3.9 99.65 -10.15 97.1 -16.35 94.55 -21.9 96.25 L-22.3 96.6 -30.05 97.05 -29.8 96.5 -27.7 92.2 -27.3 92.15 M-18.75 99.6 Q-15.7 100.85 -13.85 103.9 -11.95 107.0 -12.35 110.25 L-12.35 110.45 -17.05 111.55 -23.75 112.1 Q-27.45 111.95 -30.05 109.95 -33.75 107.15 -31.15 99.85 -28.1 98.7 -24.95 98.6 -21.6 98.45 -18.75 99.6 M-16.6 98.8 L-18.3 97.8 Q-13.7 97.35 -9.2 99.5 -4.55 101.75 -2.55 105.65 L-2.5 105.75 Q-6.25 108.25 -10.25 109.75 -10.3 106.55 -12.1 103.55 -13.8 100.75 -16.6 98.8" fill="#ffffff" fill-rule="evenodd" stroke="none"/>
  </g>
</svg>
