<?xml version="1.0" encoding="UTF-8" standalone="no"?>
<svg xmlns:ffdec="https://www.free-decompiler.com/flash" xmlns:xlink="http://www.w3.org/1999/xlink" ffdec:objectType="shape" height="168.0px" width="98.25px" xmlns="http://www.w3.org/2000/svg">
  <g transform="matrix(1.0, 0.0, 0.0, 1.0, 44.85, 46.85)">
    <path d="M21.9 -43.9 Q21.7 -40.95 19.25 -36.95 L14.9 -31.0 Q11.3 -26.25 7.3 -22.1 L7.1 -21.5 4.1 -21.45 Q3.25 -20.9 2.7 -19.55 L1.6 -17.45 Q-1.0 -14.6 -0.9 -10.55 L-1.05 -10.4 -5.85 -4.45 -10.65 -7.2 16.7 -36.5 Q17.05 -36.85 16.85 -37.4 19.3 -39.7 20.25 -42.45 L20.65 -42.65 21.9 -43.9 M23.85 -45.0 L23.75 -45.2 Q28.05 -47.65 33.05 -46.45 41.4 -44.45 46.65 -30.3 49.2 -23.4 49.95 -16.1 50.7 -8.45 49.4 -1.4 L49.3 -0.8 Q47.5 8.0 42.95 14.35 40.05 18.5 36.55 20.95 32.6 23.8 28.35 21.95 24.65 20.35 22.0 16.0 20.7 13.85 19.7 11.15 L20.15 10.6 21.4 9.5 Q24.2 7.0 25.85 3.6 27.5 0.25 27.8 -3.5 28.05 -7.15 27.0 -11.35 25.95 -15.5 23.95 -18.75 22.05 -21.85 20.05 -22.15 19.0 -22.35 19.2 -21.3 19.45 -20.25 20.3 -20.1 L21.0 -19.75 15.1 -19.95 Q11.7 -20.2 9.35 -20.8 13.05 -24.7 17.15 -30.05 20.7 -34.7 21.95 -37.0 24.4 -41.55 23.85 -45.0 M10.9 -33.8 L-3.5 -18.35 -3.65 -27.1 Q-3.6 -28.65 -4.65 -29.85 L-6.65 -32.4 -6.7 -32.5 -4.8 -36.05 Q-2.05 -32.95 2.85 -32.55 6.85 -32.25 10.9 -33.8 M3.9 -16.35 Q6.95 -17.8 8.35 -13.7 L10.5 -7.2 Q11.45 -5.85 13.15 -5.1 14.2 -4.7 16.55 -4.2 21.7 -3.15 25.7 -3.55 25.65 -2.0 25.1 -0.5 L24.65 -0.65 15.95 -1.6 14.3 -3.4 Q13.3 -4.2 12.4 -4.35 9.85 -4.8 8.15 -2.6 5.75 -2.65 3.95 -3.9 2.15 -5.2 1.4 -7.5 0.3 -11.05 2.5 -14.7 L3.9 -16.35 M8.0 -17.8 Q6.7 -18.85 5.05 -18.9 5.95 -19.95 8.2 -19.15 10.2 -18.45 13.4 -18.2 L22.65 -17.6 Q25.65 -12.6 25.8 -5.7 L25.65 -5.75 Q21.25 -5.1 14.1 -6.75 12.0 -7.25 11.05 -10.15 L9.9 -15.05 Q9.35 -16.75 8.0 -17.8 M7.7 -0.55 L6.35 22.85 6.05 28.65 Q0.6 27.85 -5.3 23.85 -0.2 22.35 2.7 19.7 6.15 16.5 6.0 11.9 5.95 7.6 2.8 3.3 L2.35 2.75 Q0.0 -0.25 -3.9 -3.1 L-0.4 -7.45 Q0.5 -4.7 2.6 -2.85 4.8 -0.9 7.7 -0.55 M14.45 -0.65 L13.85 4.85 Q12.7 16.75 12.2 24.7 11.55 37.0 13.35 44.95 14.25 49.1 16.7 53.7 L18.75 58.0 Q19.6 60.25 19.55 62.65 19.55 63.5 20.55 63.85 21.55 64.2 21.55 63.15 21.6 59.85 20.2 56.65 22.3 55.3 24.2 52.35 25.9 49.75 26.75 47.0 28.45 41.45 28.8 34.4 L32.65 34.05 32.9 33.95 Q32.95 39.55 32.25 43.55 31.4 48.7 29.2 52.6 L24.95 59.95 Q22.75 64.2 22.3 67.9 L19.5 94.1 17.05 118.7 16.85 119.9 15.6 120.65 Q13.4 121.8 11.2 120.25 L11.25 119.7 Q11.8 111.8 13.4 98.75 15.4 82.6 15.85 67.1 L16.0 63.35 Q15.9 61.15 15.2 59.7 L12.7 55.3 Q11.05 52.6 10.35 50.85 8.65 46.5 8.1 40.95 7.7 36.7 7.9 30.65 L7.95 30.15 9.8 -0.9 Q10.75 -2.1 12.6 -2.25 14.6 -2.45 14.45 -0.65 M49.9 20.0 L49.8 20.05 Q46.45 22.35 44.2 23.5 40.8 25.3 38.0 25.75 L38.25 22.7 Q46.15 17.0 50.05 5.35 50.65 12.7 49.9 20.0 M45.1 42.55 L45.75 42.6 Q46.7 42.3 47.9 42.9 49.0 43.4 49.8 44.35 50.65 45.4 51.15 46.6 50.7 46.7 50.7 47.35 50.9 50.9 48.35 53.8 46.1 56.3 42.5 57.65 43.0 52.85 41.95 47.45 L45.1 42.55 M47.15 32.8 Q45.1 38.9 40.15 46.0 L39.9 46.4 33.45 54.65 Q29.6 59.4 27.45 61.0 27.2 61.2 27.2 61.6 L27.4 62.2 30.9 68.15 33.7 73.65 Q35.2 77.3 34.55 79.5 L34.5 79.75 Q28.75 84.55 22.35 86.55 L24.35 68.4 Q24.85 64.5 27.8 59.35 L32.7 50.85 Q34.3 47.3 34.75 42.0 35.0 38.95 34.9 32.75 36.75 31.2 37.6 27.9 L38.05 28.0 Q43.0 27.4 49.45 23.1 48.7 28.3 47.15 32.8 M16.4 0.5 L24.45 1.35 Q22.35 6.2 18.05 9.2 16.6 9.45 15.4 10.25 L16.4 0.5 M4.0 10.85 Q4.4 15.4 0.95 18.35 -1.9 20.85 -7.2 22.05 -11.05 19.6 -12.5 15.7 -14.05 11.65 -12.3 7.55 L-11.75 6.95 Q-9.0 4.4 -5.6 3.4 -1.55 2.2 1.25 4.1 3.7 7.4 4.0 10.85 M15.0 15.25 L15.35 14.75 Q15.65 12.5 17.95 11.55 20.35 18.1 25.0 22.0 30.5 26.6 36.1 24.0 35.5 30.75 31.2 32.1 L28.05 32.25 28.0 32.25 29.3 28.65 Q29.55 27.85 28.55 27.3 27.55 26.7 27.3 27.65 25.7 33.75 22.0 33.85 L20.25 33.45 Q22.3 31.5 23.15 28.45 23.4 27.65 22.4 27.1 21.45 26.5 21.15 27.45 20.4 30.1 18.55 31.8 16.5 33.7 13.95 33.4 L14.0 30.0 Q16.35 27.15 17.25 25.25 18.7 22.1 17.5 19.75 16.65 18.05 14.8 17.25 L15.0 15.25 M18.65 34.65 Q20.6 35.9 22.75 35.95 25.15 36.0 26.8 34.1 26.5 38.95 25.35 43.9 24.6 46.9 23.05 49.65 21.3 52.85 19.1 54.5 15.75 48.1 14.8 42.8 14.25 39.75 14.05 35.45 16.55 35.8 18.65 34.65 M5.25 39.4 Q0.9 45.7 -0.6 53.2 -2.2 61.1 -0.15 68.0 L0.8 70.8 Q-4.45 70.0 -8.55 66.9 -13.2 63.25 -12.9 53.15 -12.55 41.9 -6.15 25.35 -0.05 29.55 6.0 30.65 5.85 35.55 6.15 39.15 5.55 39.0 5.25 39.4 M14.15 25.8 L14.65 19.2 Q17.75 20.45 14.15 25.8 M40.35 49.65 Q41.15 56.0 39.75 60.85 38.1 66.85 33.4 69.2 L32.9 68.2 Q35.05 66.25 35.65 62.45 36.05 59.55 35.5 55.95 L35.45 55.95 40.35 49.65 M34.4 71.3 Q40.6 68.4 42.15 60.1 L42.55 60.05 Q46.1 59.0 48.75 56.7 51.6 54.2 52.45 50.95 L52.75 52.9 Q52.5 53.0 52.45 53.4 51.7 58.95 49.1 63.85 46.3 69.1 42.05 72.2 L41.9 72.35 Q38.0 73.95 35.25 72.75 L35.0 72.65 34.4 71.3 M31.7 65.95 L29.55 62.4 Q31.25 61.05 33.75 58.05 34.05 63.35 31.7 65.95 M13.8 69.5 L13.3 77.05 12.35 88.0 Q5.3 78.2 1.95 68.65 -0.2 62.4 1.2 54.9 2.5 48.0 6.4 41.9 7.3 48.85 10.0 54.2 L12.35 57.95 Q13.75 60.25 13.85 61.95 L13.8 69.5 M35.75 84.8 Q36.2 86.1 36.05 87.05 35.85 89.05 31.5 91.95 L31.05 91.15 30.25 90.45 Q29.6 90.2 29.3 90.7 25.2 97.4 20.9 101.0 L22.1 89.05 22.2 89.0 Q28.8 87.2 34.9 82.5 L35.75 84.8 M37.45 83.7 Q42.65 85.65 50.55 79.95 48.55 85.05 45.6 87.6 42.05 90.6 37.35 89.65 L37.6 89.25 Q38.15 88.4 38.1 87.2 L37.8 85.05 37.45 83.7 M35.95 74.95 Q42.65 76.9 53.15 68.0 52.9 71.85 51.8 76.05 L51.5 76.2 Q41.85 84.2 36.75 81.35 L36.45 80.9 Q37.15 78.3 35.95 74.95 M53.3 64.65 L49.4 67.9 Q51.95 64.1 53.35 59.45 L53.3 64.65 M6.95 106.9 Q4.75 106.95 4.9 105.7 5.05 104.4 5.95 102.6 L7.6 99.8 Q9.55 96.5 11.8 93.35 L10.35 106.5 9.85 106.45 6.95 106.9 M-5.6 -28.55 Q-5.8 -23.5 -5.45 -16.75 L-5.3 -16.4 -10.15 -11.25 Q-12.15 -15.05 -14.7 -16.9 L-7.6 -30.8 -5.6 -28.55 M-6.5 -38.75 L-6.25 -38.25 Q-13.55 -24.9 -19.15 -12.9 L-22.65 -4.95 Q-24.5 -0.45 -25.45 3.25 -26.9 9.05 -26.9 13.2 -26.95 19.0 -24.45 22.7 -28.9 22.1 -33.15 20.5 -34.65 11.55 -31.05 0.3 -28.55 -7.5 -22.65 -18.4 -16.35 -30.2 -8.85 -39.95 L-6.5 -38.75 M-10.85 -41.2 Q-17.35 -32.7 -23.15 -22.3 L-24.7 -23.4 Q-23.75 -29.6 -20.95 -34.5 -17.65 -40.25 -12.6 -42.5 L-10.85 -41.2 M-25.4 -21.7 L-24.7 -21.3 -24.25 -21.0 -24.2 -20.9 -24.2 -20.95 -24.05 -20.75 -26.9 -15.25 Q-29.65 -16.95 -35.45 -16.65 L-32.0 -20.85 Q-30.3 -22.7 -26.6 -22.25 L-25.4 -21.7 M-36.5 -14.4 L-32.1 -14.6 Q-29.25 -14.55 -27.7 -13.65 L-30.2 -8.35 -30.7 -8.35 Q-34.7 -7.05 -38.25 -4.4 -41.75 -1.75 -44.25 1.75 -42.65 -6.0 -36.95 -14.45 L-36.5 -14.4 M-31.3 -5.65 Q-33.3 -0.5 -34.3 3.85 L-34.8 3.95 Q-37.8 5.8 -39.8 8.3 -42.1 11.1 -42.6 14.2 -44.7 11.25 -44.85 7.4 -42.9 3.1 -39.3 -0.35 -35.75 -3.8 -31.3 -5.65 M-21.5 -0.75 Q-17.9 -3.75 -12.35 -6.05 -5.65 -2.8 -1.6 0.95 -5.3 0.2 -9.25 2.25 -13.0 4.15 -15.85 7.8 -18.7 11.45 -19.55 15.45 -20.5 19.8 -18.75 23.15 L-22.1 23.0 Q-25.35 19.4 -25.0 12.8 -24.75 8.4 -22.8 1.95 L-21.95 -0.6 Q-21.65 -0.6 -21.5 -0.75 M-18.8 -8.05 L-15.3 -7.3 Q-18.05 -6.05 -20.4 -4.5 L-18.9 -8.05 -18.8 -8.05 M-18.0 -10.0 L-15.45 -15.3 Q-13.3 -13.85 -11.4 -9.9 L-12.8 -8.4 -13.0 -8.3 Q-15.25 -9.5 -18.0 -10.0 M-17.7 17.4 Q-17.15 14.55 -15.25 11.4 -15.2 14.55 -13.65 17.5 -12.15 20.3 -9.5 22.5 L-16.8 23.15 Q-18.35 20.85 -17.7 17.4 M-38.2 18.1 L-40.75 16.3 Q-40.7 11.2 -34.95 6.9 -36.15 13.6 -35.2 19.65 L-38.2 18.1" fill="#ffffff" fill-rule="evenodd" stroke="none"/>
  </g>
</svg>
