<?xml version="1.0" encoding="UTF-8" standalone="no"?>
<svg xmlns:ffdec="https://www.free-decompiler.com/flash" xmlns:xlink="http://www.w3.org/1999/xlink" ffdec:objectType="shape" height="168.7px" width="98.8px" xmlns="http://www.w3.org/2000/svg">
  <g transform="matrix(1.0, 0.0, 0.0, 1.0, 47.1, 46.95)">
    <path d="M22.8 -43.2 L22.35 -43.95 Q23.8 -45.85 26.35 -46.55 L31.2 -46.75 Q36.05 -45.9 40.1 -41.45 43.05 -38.15 45.85 -32.55 51.25 -21.6 51.65 -9.65 52.1 3.35 46.3 13.1 43.7 17.45 40.6 20.0 L40.6 20.05 Q37.0 23.05 32.7 21.75 28.9 20.65 25.9 16.75 24.25 14.65 22.9 11.75 L23.25 11.2 24.5 9.95 Q29.75 4.2 29.65 -3.6 29.6 -7.4 28.1 -11.55 26.65 -15.6 24.25 -18.75 22.15 -21.4 20.2 -21.5 19.25 -21.6 19.7 -20.55 20.1 -19.55 20.8 -19.4 L20.9 -19.35 21.3 -19.2 21.35 -19.15 15.2 -18.85 9.2 -19.3 8.05 -19.6 8.7 -20.35 Q15.1 -28.3 18.7 -33.85 L21.5 -38.25 Q23.05 -41.15 22.8 -43.2 M9.5 -33.9 L-5.85 -17.8 -5.9 -27.25 Q-5.85 -28.65 -6.9 -29.85 L-8.85 -32.25 -8.95 -32.35 -6.3 -37.2 Q-3.7 -33.65 1.55 -33.0 5.55 -32.6 9.5 -33.9 M16.6 -34.85 Q13.05 -29.5 6.3 -21.15 L5.15 -19.75 4.5 -19.4 Q3.8 -18.7 3.45 -17.65 L-8.05 -4.25 -12.85 -7.05 16.05 -37.3 16.25 -37.85 Q18.8 -40.3 19.65 -43.35 19.9 -42.45 20.7 -42.2 20.35 -40.55 18.9 -38.25 L16.6 -34.85 M4.1 -13.3 L4.75 -14.25 Q6.4 -15.25 7.75 -14.45 8.9 -13.7 9.65 -11.75 L10.75 -8.5 Q11.4 -6.65 12.3 -5.45 13.3 -4.25 15.2 -3.75 L18.6 -3.25 Q23.65 -2.65 27.65 -3.4 L27.35 -0.35 26.9 -0.5 18.0 -0.65 Q16.8 -2.4 14.95 -2.9 L12.25 -2.8 Q11.0 -2.25 10.2 -1.0 7.85 -0.8 5.95 -1.85 3.95 -2.95 3.05 -5.1 1.65 -8.7 3.45 -12.4 L4.1 -13.3 M8.35 -17.5 L13.25 -16.9 23.4 -17.1 Q26.75 -12.25 27.5 -5.6 L27.2 -5.6 Q22.05 -4.4 15.05 -5.75 13.25 -6.1 12.25 -9.1 11.35 -12.55 10.75 -13.65 9.0 -16.95 5.9 -16.95 L6.35 -17.5 Q7.05 -17.8 8.35 -17.5 M2.7 -2.55 Q5.5 1.15 10.0 1.2 L10.65 24.75 10.9 30.35 Q-0.7 29.8 -9.85 24.6 L-9.15 24.4 Q-8.65 24.6 -8.45 24.25 -3.0 22.85 0.15 20.15 3.95 16.85 3.8 12.05 3.65 7.7 0.55 3.45 L0.1 2.9 Q-2.3 -0.2 -6.05 -2.9 L0.6 -10.55 Q0.0 -6.1 2.7 -2.55 M15.45 -0.8 Q16.7 -0.35 16.65 0.35 L16.6 5.6 Q16.4 17.65 16.65 25.35 17.0 38.15 19.65 46.25 20.5 48.65 21.85 51.25 21.85 51.75 22.4 52.3 L23.65 54.35 26.1 58.4 Q27.15 60.6 27.3 62.95 27.4 63.85 28.4 64.2 29.35 64.55 29.3 63.45 29.1 60.0 27.35 57.05 29.35 55.5 30.95 52.45 32.3 49.9 33.0 46.9 33.3 46.6 33.2 46.2 34.25 41.55 34.05 34.35 36.2 34.65 38.15 33.9 38.65 39.35 38.25 43.3 37.8 48.35 35.95 52.4 L32.4 60.1 Q30.65 64.5 30.5 68.3 30.3 74.85 30.05 94.55 L29.75 120.3 29.7 120.55 Q29.5 120.4 29.15 120.7 28.05 121.65 26.65 121.75 25.2 121.85 24.0 121.1 L24.0 120.85 Q23.85 112.95 24.3 99.65 24.85 83.4 23.95 67.65 L23.75 63.95 Q23.45 61.8 22.6 60.35 L20.9 57.8 19.05 55.3 Q18.95 54.8 18.45 54.45 L17.15 52.25 Q14.1 46.35 13.2 37.35 L12.55 21.85 11.95 0.65 Q12.6 -0.45 13.6 -0.85 L15.45 -0.8 M43.05 21.1 L45.3 18.8 Q45.15 22.95 44.3 27.55 L44.15 27.55 42.85 27.9 Q43.4 25.4 43.3 21.75 L43.05 21.1 M40.55 39.25 L40.05 32.85 Q41.3 31.85 42.0 30.25 L42.6 30.35 43.75 30.0 Q42.45 35.15 40.55 39.25 M21.1 9.9 Q19.65 10.3 18.55 11.3 L18.65 1.45 26.8 1.6 Q25.15 6.7 21.1 9.9 M29.1 22.1 Q35.0 26.2 40.4 23.1 40.4 29.85 36.3 31.55 34.95 32.15 33.0 32.0 33.65 30.55 34.0 28.45 34.1 27.65 33.15 27.05 32.15 26.45 32.0 27.4 30.95 33.85 27.05 34.1 L25.45 33.9 Q27.3 31.85 27.85 28.8 28.0 28.0 27.0 27.4 26.05 26.85 25.85 27.8 24.95 32.45 21.55 33.9 L19.4 34.35 19.1 34.35 18.85 31.0 18.95 30.9 Q21.0 27.95 21.65 26.0 22.75 22.9 21.5 20.6 20.7 19.0 18.55 18.2 L18.55 16.25 18.85 15.8 Q19.0 13.4 21.25 12.3 24.25 18.65 29.1 22.1 M12.45 43.9 Q13.8 49.95 16.55 54.65 12.95 56.95 8.0 58.85 7.15 59.15 7.8 60.15 8.45 61.15 9.2 60.9 L11.45 59.95 Q14.5 64.95 16.55 73.45 L17.55 78.45 17.65 79.25 15.4 82.05 Q12.1 86.05 9.6 87.95 5.25 91.3 2.15 89.65 L2.0 89.55 Q-1.05 87.5 -4.85 83.15 -9.3 78.15 -12.15 73.05 -15.65 66.9 -16.35 61.45 -17.2 54.75 -13.0 47.4 -9.4 41.05 -3.4 36.2 -2.75 35.65 -3.55 34.75 -4.35 33.85 -5.0 34.35 -9.2 37.75 -12.3 42.1 -15.7 46.75 -17.25 51.65 -19.4 45.55 -18.25 38.4 -17.4 33.05 -14.3 25.3 L-11.95 24.95 -11.35 25.75 Q-1.7 31.75 11.0 32.4 11.4 39.15 12.45 43.9 M28.25 36.2 Q30.65 35.9 32.0 33.9 32.15 39.55 31.3 44.5 L31.15 45.35 Q27.35 48.4 23.3 50.15 22.05 47.75 21.1 44.8 19.9 41.05 19.35 36.45 21.85 36.65 23.85 35.3 26.05 36.45 28.25 36.2 M18.65 26.9 L18.55 20.2 Q21.75 21.2 18.65 26.9 M38.9 51.3 L39.95 55.35 39.85 55.6 Q38.55 61.05 37.2 64.45 35.2 69.55 32.4 72.3 L32.5 68.7 Q32.65 64.8 34.95 59.8 L38.9 51.3 M24.4 52.2 Q27.35 51.0 29.95 49.2 28.35 53.0 26.1 54.95 L24.4 52.2 M22.25 72.05 L22.3 76.85 Q20.65 77.0 19.35 77.8 L18.0 71.65 Q20.15 71.75 22.05 72.5 L22.25 72.05 M22.2 70.45 Q19.8 69.65 17.45 69.65 15.6 63.45 13.0 59.25 15.9 57.85 17.85 56.65 L20.15 59.6 Q21.4 61.35 21.6 62.8 22.0 65.8 22.2 70.45 M18.95 81.4 Q20.0 83.0 20.4 85.7 L20.75 90.2 20.65 90.3 16.95 94.7 15.25 93.5 13.95 93.55 Q5.9 107.55 -2.45 110.9 -6.0 112.3 -4.95 106.55 -4.15 102.4 -2.55 99.15 -0.55 95.15 2.2 91.65 6.75 93.75 13.2 87.9 15.6 85.75 18.65 81.75 L18.95 81.4 M32.2 81.95 L32.3 75.45 Q38.3 74.7 41.4 71.55 L41.25 73.8 40.75 77.25 Q39.4 79.25 37.0 80.5 34.8 81.65 32.2 81.95 M39.45 81.75 Q36.7 89.3 32.1 90.4 L32.2 84.15 Q36.45 83.8 39.45 81.75 M22.4 85.9 Q21.95 83.8 20.95 81.55 L20.1 80.1 Q21.05 79.35 22.35 79.05 L22.4 85.9 M41.45 67.2 Q40.05 70.75 35.55 72.4 38.7 68.3 40.85 60.45 41.4 63.85 41.45 67.2 M-8.25 -38.45 Q-15.45 -25.4 -21.4 -12.75 -26.25 -2.3 -27.65 3.4 -29.1 9.15 -29.15 13.35 -29.2 19.15 -26.7 22.85 -31.15 22.25 -35.4 20.65 -36.9 11.65 -33.3 0.45 -30.75 -7.4 -24.85 -18.25 -18.2 -30.6 -10.7 -40.25 -10.35 -40.75 -10.9 -41.45 -9.25 -40.35 -7.55 -39.5 L-7.2 -38.65 Q-7.85 -39.15 -8.25 -38.45 M-12.6 -41.7 Q-19.4 -32.9 -25.4 -22.15 -26.2 -22.9 -26.9 -23.25 -25.95 -29.7 -22.75 -35.05 -19.2 -41.05 -13.85 -43.7 L-11.65 -41.95 Q-12.25 -42.1 -12.6 -41.7 M-7.85 -28.4 Q-8.2 -23.05 -7.8 -16.95 L-7.45 -16.15 -12.35 -11.05 Q-14.4 -14.95 -16.95 -16.75 L-9.85 -30.65 -7.85 -28.4 M-26.4 -20.75 L-26.25 -20.6 -29.15 -15.1 Q-31.85 -16.8 -37.65 -16.5 L-34.25 -20.7 Q-32.5 -22.55 -28.85 -22.1 L-26.9 -21.15 -26.45 -20.85 -26.4 -20.75 M-38.75 -14.25 L-34.3 -14.45 Q-31.5 -14.4 -29.95 -13.5 L-32.4 -8.2 -32.95 -8.2 Q-36.95 -6.9 -40.5 -4.25 -44.0 -1.6 -46.5 1.9 -44.8 -6.0 -39.2 -14.3 L-38.75 -14.25 M-21.1 -7.9 L-21.05 -7.9 -17.5 -7.15 Q-20.0 -6.05 -22.65 -4.35 L-21.1 -7.9 M-23.7 -0.6 Q-20.05 -3.65 -14.6 -5.9 -7.9 -2.7 -3.8 1.1 -11.5 -0.45 -18.05 7.95 -24.6 16.3 -21.0 23.3 L-24.35 23.15 Q-27.55 19.55 -27.2 12.95 -26.95 8.5 -25.0 2.1 L-24.15 -0.45 Q-23.9 -0.45 -23.7 -0.6 M-15.25 -8.15 Q-17.35 -9.35 -20.2 -9.85 L-17.7 -15.15 Q-15.55 -13.7 -13.6 -9.7 L-15.0 -8.25 -15.25 -8.15 M-33.5 -5.5 Q-35.5 -0.55 -36.55 4.0 L-37.05 4.1 Q-40.05 5.95 -42.05 8.45 -44.35 11.25 -44.85 14.35 -46.85 11.55 -47.1 7.55 -45.15 3.25 -41.55 -0.2 -37.95 -3.65 -33.5 -5.5 M-1.0 4.25 Q1.45 7.4 1.75 11.0 2.15 15.55 -1.25 18.5 -4.15 21.0 -9.45 22.2 -13.25 19.75 -14.7 15.85 -16.25 11.8 -14.55 7.7 L-14.0 7.1 Q-11.25 4.55 -7.85 3.55 -3.8 2.35 -1.0 4.25 M-19.95 17.55 Q-19.4 14.7 -17.45 11.55 -17.4 14.7 -15.85 17.65 -14.35 20.45 -11.7 22.65 L-19.0 23.3 Q-20.55 20.95 -19.95 17.55 M-40.45 18.25 L-42.95 16.45 Q-42.9 11.35 -37.15 7.05 -38.35 13.95 -37.4 19.8 L-40.45 18.25" fill="#ffffff" fill-rule="evenodd" stroke="none"/>
  </g>
</svg>
