<?xml version="1.0" encoding="UTF-8" standalone="no"?>
<svg xmlns:ffdec="https://www.free-decompiler.com/flash" xmlns:xlink="http://www.w3.org/1999/xlink" ffdec:objectType="shape" height="166.1px" width="109.55px" xmlns="http://www.w3.org/2000/svg">
  <g transform="matrix(1.0, 0.0, 0.0, 1.0, 47.8, 48.0)">
    <path d="M21.4 -43.65 Q21.4 -44.05 21.0 -44.45 22.2 -46.05 23.75 -46.85 27.1 -48.7 31.5 -47.6 35.15 -46.75 38.65 -44.2 46.2 -38.75 51.35 -28.65 56.05 -19.5 57.4 -9.4 58.3 -2.95 56.85 3.45 55.35 10.25 51.65 15.25 47.95 20.25 41.75 18.15 36.45 16.35 32.45 11.05 32.75 10.85 32.65 10.45 35.65 6.4 36.15 1.15 36.7 -3.95 34.7 -8.7 31.65 -15.75 26.95 -19.5 24.7 -21.3 23.1 -21.1 22.15 -20.95 22.6 -19.9 23.0 -18.85 23.85 -18.95 L24.3 -18.95 18.7 -17.45 13.1 -16.6 10.7 -16.7 Q9.15 -16.65 8.45 -16.05 7.6 -15.3 7.5 -13.9 L7.1 -11.65 Q4.15 -6.15 7.95 -0.8 11.75 4.6 17.7 3.4 L20.65 15.55 14.25 16.65 7.85 17.25 5.3 17.05 Q3.75 16.6 3.55 15.45 L3.35 12.0 Q3.2 6.4 3.6 -1.25 L4.45 -14.5 4.3 -15.05 7.65 -19.05 Q13.8 -26.4 17.45 -32.5 19.4 -35.7 20.3 -37.8 21.6 -41.0 21.4 -43.65 M18.25 -41.65 Q18.65 -41.25 19.1 -41.25 18.65 -39.4 17.5 -37.15 L15.3 -33.45 Q12.05 -28.05 5.25 -19.85 -1.35 -11.85 -8.75 -4.35 L-13.55 -7.15 15.05 -36.65 Q15.4 -37.05 15.2 -37.6 17.1 -39.35 18.25 -41.65 M9.35 -34.2 L-6.6 -17.8 Q-6.8 -23.5 -6.6 -27.35 -6.55 -28.75 -7.6 -29.95 L-9.55 -32.35 -9.65 -32.45 -7.1 -37.1 -7.05 -37.3 Q-4.45 -33.75 0.85 -33.1 5.05 -32.65 9.35 -34.2 M17.8 -15.15 L26.95 -17.3 Q30.4 -14.25 33.2 -7.7 L33.45 -7.05 33.25 -7.0 Q29.5 -5.3 23.05 -4.65 L20.35 -4.8 Q19.1 -5.2 18.25 -6.45 L15.85 -10.45 Q14.7 -12.3 13.0 -13.15 11.25 -14.1 9.5 -13.5 9.8 -14.35 11.1 -14.5 L13.25 -14.5 17.8 -15.15 M8.8 -9.85 L8.95 -10.35 9.05 -10.4 Q11.65 -12.95 14.4 -9.4 L18.65 -3.55 Q19.8 -2.6 21.65 -2.5 L24.9 -2.65 Q30.35 -3.2 34.05 -4.8 L34.35 -1.8 33.8 -1.9 25.05 -0.2 23.0 -1.4 20.8 -1.8 Q18.65 -1.8 17.5 1.1 14.65 1.95 12.25 0.8 9.85 -0.3 8.6 -3.1 7.2 -6.15 8.8 -9.85 M1.55 -3.7 Q1.15 1.5 1.1 5.3 L-0.15 3.35 Q-0.25 3.0 -0.6 2.8 -2.85 -0.1 -6.75 -3.0 L2.25 -12.7 1.55 -3.7 M52.0 18.4 Q53.4 25.0 49.7 27.55 48.55 28.4 46.55 28.65 46.8 27.1 46.7 24.95 46.65 24.1 45.65 23.75 44.65 23.4 44.7 24.45 45.05 30.9 41.2 31.95 L39.55 32.05 Q40.85 29.65 40.75 26.6 40.75 25.75 39.75 25.4 38.75 25.05 38.75 26.1 38.8 28.95 37.45 31.1 35.95 33.5 33.35 33.85 L32.45 30.8 32.45 30.75 Q33.85 27.45 34.15 25.3 34.6 22.0 32.9 19.9 31.65 18.3 29.45 18.15 L29.4 17.8 29.05 16.35 29.25 15.75 Q28.9 13.35 31.0 11.9 35.3 17.55 40.8 19.9 47.45 22.75 52.0 18.4 M54.1 37.95 Q54.8 42.95 53.95 47.15 L52.0 55.75 Q51.0 60.65 51.7 64.45 L56.7 90.3 61.6 114.55 61.75 115.7 60.85 116.7 Q59.1 118.5 56.4 117.7 L56.2 117.65 Q54.2 108.9 52.15 97.25 49.3 80.95 45.2 65.95 L44.15 62.15 Q43.45 59.95 42.35 58.7 L38.85 55.3 35.3 51.9 Q30.2 45.7 27.0 33.75 27.55 33.55 27.35 32.8 27.1 32.1 26.5 31.8 L22.95 17.3 23.1 16.65 22.6 15.8 19.4 2.45 Q19.7 1.55 20.35 0.9 21.1 0.15 22.3 0.4 L23.35 0.8 24.0 0.9 24.9 5.55 Q27.2 17.0 28.95 24.2 32.0 37.15 36.0 44.5 38.05 48.35 41.65 52.1 L45.2 55.8 Q46.85 57.85 47.5 60.2 47.8 61.1 48.75 61.2 49.7 61.25 49.4 60.15 48.45 56.95 46.25 54.35 47.85 52.3 48.75 48.95 49.6 45.95 49.6 43.1 49.6 37.4 47.95 30.7 49.8 30.35 51.5 29.2 L51.9 28.9 Q53.55 34.15 54.1 37.95 M30.45 9.45 Q28.85 10.25 28.05 11.55 L26.1 1.85 34.2 0.3 Q33.65 5.55 30.45 9.45 M10.65 19.55 L21.15 17.7 24.45 30.8 Q3.3 34.1 -11.55 30.15 -18.95 28.2 -22.25 25.4 L-22.3 25.35 -22.3 25.3 -17.15 25.35 -9.85 24.3 -9.15 24.15 Q-0.45 21.85 2.1 16.65 3.9 19.95 10.65 19.55 M29.25 46.6 Q28.15 51.15 25.05 57.35 L19.85 67.65 Q15.65 77.05 14.3 90.6 13.6 97.95 13.5 105.9 9.65 106.85 2.5 107.55 -2.65 108.15 -6.7 106.85 L-9.2 105.7 -9.8 105.2 Q-12.0 96.95 -11.65 86.1 -11.35 78.75 -9.6 66.85 -7.95 55.15 -5.3 44.85 -5.1 44.05 -6.05 43.5 -7.05 42.9 -7.3 43.85 -9.9 53.95 -11.75 66.85 L-12.05 66.95 Q-20.5 73.05 -27.55 68.2 -30.65 66.0 -32.55 62.65 -36.6 55.4 -30.9 42.2 -29.7 39.35 -27.3 34.95 L-23.45 27.85 Q-22.15 29.25 -19.7 30.35 L-15.5 31.85 Q-6.9 34.55 4.75 34.8 L25.25 33.95 Q27.4 41.4 29.7 46.05 29.4 46.1 29.25 46.6 M31.45 27.0 L29.9 20.25 Q33.55 20.5 31.45 27.0 M26.3 69.3 Q23.45 73.5 19.3 75.75 20.1 72.95 21.35 69.95 22.35 67.5 26.25 59.95 26.75 64.8 26.3 69.3 M18.5 78.65 Q22.5 77.25 25.7 73.8 25.05 77.15 24.0 79.9 22.0 83.2 17.35 83.9 18.05 80.4 18.5 78.65 M17.0 86.15 Q19.3 86.0 21.4 85.1 19.3 88.3 16.45 90.55 L17.0 86.15 M13.45 109.45 L13.45 111.65 Q13.45 112.1 12.5 112.55 L11.0 113.2 Q8.15 114.8 4.6 115.45 L4.35 114.25 3.8 113.3 Q3.3 112.85 2.75 113.0 L-8.3 116.25 Q-14.6 117.8 -19.65 118.05 L-21.9 118.1 Q-23.5 117.9 -23.4 117.05 -23.2 115.85 -21.65 114.35 L-19.05 112.25 Q-15.5 109.5 -10.45 106.9 -7.0 109.55 -0.9 109.85 5.3 110.25 13.45 108.25 L13.45 109.45 M-8.95 -38.55 Q-16.6 -24.7 -22.1 -12.85 -26.95 -2.4 -28.35 3.3 -29.8 9.05 -29.85 13.25 -29.9 19.05 -27.4 22.75 -31.85 22.15 -36.1 20.55 -37.6 11.6 -34.0 0.35 -31.5 -7.45 -25.6 -18.35 -18.85 -30.75 -11.45 -40.35 -11.05 -40.8 -11.6 -41.55 -9.95 -40.45 -8.25 -39.6 L-7.9 -38.75 Q-8.6 -39.2 -8.95 -38.55 M-14.6 -43.3 L-12.9 -41.95 -13.15 -41.75 Q-19.75 -33.3 -25.95 -22.2 L-27.5 -23.3 Q-26.55 -29.65 -23.65 -34.6 -20.25 -40.45 -15.0 -42.6 -14.5 -42.75 -14.6 -43.3 M-8.6 -28.5 Q-8.85 -23.25 -8.55 -17.05 L-8.1 -16.2 -13.05 -11.1 Q-15.05 -15.05 -17.65 -16.85 L-10.55 -30.75 -8.6 -28.5 M-27.6 -21.25 L-27.2 -20.95 -26.95 -20.7 -29.85 -15.2 Q-32.6 -16.9 -38.35 -16.6 L-34.95 -20.8 Q-33.25 -22.65 -29.55 -22.2 L-27.6 -21.25 M-39.45 -14.35 L-35.05 -14.55 Q-32.2 -14.5 -30.65 -13.6 L-33.1 -8.3 -33.65 -8.3 Q-37.65 -7.0 -41.2 -4.35 -44.7 -1.7 -47.2 1.8 -45.5 -6.1 -39.9 -14.4 L-39.45 -14.35 M-24.4 -0.7 Q-20.9 -3.65 -15.3 -6.0 -8.6 -2.8 -4.5 1.0 -12.25 -0.55 -18.8 7.85 -21.65 11.5 -22.5 15.5 -23.45 19.85 -21.7 23.2 L-25.05 23.05 Q-30.45 17.05 -25.7 2.0 L-24.85 -0.55 Q-24.6 -0.55 -24.4 -0.7 M-21.8 -8.0 L-21.75 -8.0 -18.2 -7.25 Q-20.95 -6.05 -23.35 -4.45 L-21.8 -8.0 M-15.7 -8.35 L-15.95 -8.25 Q-18.1 -9.45 -20.95 -9.95 L-18.4 -15.25 Q-16.25 -13.8 -14.3 -9.8 L-15.7 -8.35 M-34.2 -5.6 Q-36.2 -0.65 -37.25 3.9 L-37.75 4.0 Q-40.75 5.85 -42.75 8.35 -45.05 11.15 -45.55 14.25 -47.55 11.45 -47.8 7.45 -45.85 3.15 -42.25 -0.3 -38.65 -3.75 -34.2 -5.6 M-1.7 4.15 Q0.75 7.45 1.05 10.9 1.45 15.45 -2.0 18.4 -4.85 20.9 -10.15 22.1 -13.95 19.65 -15.45 15.75 -16.95 11.7 -15.25 7.6 L-14.7 7.0 Q-11.95 4.45 -8.55 3.45 -4.5 2.25 -1.7 4.15 M-19.75 23.2 Q-21.3 20.85 -20.65 17.45 -20.1 14.6 -18.15 11.45 -18.1 14.6 -16.55 17.55 -15.05 20.35 -12.4 22.55 L-19.75 23.2 M-38.15 19.7 L-41.15 18.15 -43.65 16.35 Q-43.65 11.35 -37.9 6.95 -39.1 13.65 -38.15 19.7" fill="#ffffff" fill-rule="evenodd" stroke="none"/>
  </g>
</svg>
