<?xml version="1.0" encoding="UTF-8" standalone="no"?>
<svg xmlns:ffdec="https://www.free-decompiler.com/flash" xmlns:xlink="http://www.w3.org/1999/xlink" ffdec:objectType="shape" height="167.35px" width="96.6px" xmlns="http://www.w3.org/2000/svg">
  <g transform="matrix(1.0, 0.0, 0.0, 1.0, 47.45, 44.4)">
    <path d="M36.25 -36.5 Q43.35 -28.9 47.3 -16.55 51.05 -4.5 47.25 5.95 44.65 12.95 38.9 19.45 L36.65 21.65 36.4 21.7 33.25 21.7 Q27.7 21.5 24.45 19.05 22.65 17.7 21.15 15.0 19.8 12.6 19.2 10.05 L19.3 9.95 20.7 8.95 Q22.95 7.2 24.4 4.45 26.35 0.75 25.3 -4.0 24.65 -7.0 22.1 -12.15 L19.8 -16.5 Q17.7 -19.65 16.0 -19.35 L15.4 -18.9 Q15.3 -18.55 15.5 -18.1 L11.45 -18.2 6.0 -18.95 10.55 -24.35 Q15.55 -30.35 18.7 -35.55 21.65 -40.4 21.55 -43.5 28.8 -44.45 36.25 -36.5 M8.75 -34.95 L-6.25 -19.05 Q-6.45 -23.7 -6.25 -28.4 -6.2 -29.8 -7.3 -31.0 L-9.25 -33.4 -9.3 -33.5 -6.9 -37.95 Q-4.25 -34.6 0.95 -34.0 4.75 -33.6 8.75 -34.95 M19.5 -43.05 Q19.25 -41.3 18.15 -39.1 L16.0 -35.6 Q13.3 -31.25 7.1 -23.9 L3.2 -19.3 Q1.5 -19.15 0.65 -17.05 L0.4 -16.1 -8.45 -5.45 -13.25 -8.2 17.55 -40.8 Q17.9 -41.15 17.7 -41.7 L18.5 -43.25 Q19.0 -42.85 19.45 -43.0 L19.5 -43.05 M18.2 -15.55 Q21.55 -10.75 23.0 -5.8 20.9 -5.55 18.3 -5.85 L13.65 -6.7 Q11.45 -7.15 10.5 -10.05 L9.25 -14.9 8.6 -16.25 13.25 -15.95 17.95 -15.95 18.2 -15.55 M3.75 -16.35 Q6.45 -17.3 7.8 -13.3 L9.95 -7.1 Q11.0 -5.75 12.65 -5.1 13.65 -4.7 16.0 -4.2 L23.5 -3.65 23.55 -3.45 Q24.15 -0.05 22.4 3.3 20.65 6.6 17.55 8.25 16.05 8.15 15.05 8.75 L15.35 2.3 Q15.45 0.95 14.25 -0.4 13.15 -1.6 11.75 -2.1 8.85 -3.0 7.0 -0.3 1.85 -0.1 0.05 -5.0 -1.65 -9.9 1.8 -13.65 L2.35 -14.75 3.75 -16.35 M43.65 23.3 Q40.9 25.15 38.25 26.35 L38.35 23.4 40.0 21.9 41.35 20.25 43.8 17.15 43.65 23.3 M36.35 23.85 Q36.25 31.45 31.9 33.15 L28.6 33.45 29.75 29.85 Q29.9 29.05 28.9 28.5 27.95 27.9 27.75 28.85 26.5 35.05 22.8 35.35 L20.95 35.1 Q22.9 33.1 23.6 30.0 23.8 29.2 22.8 28.65 21.8 28.05 21.6 29.0 20.55 33.6 17.05 34.95 L14.65 35.3 14.5 31.95 14.6 31.85 Q16.75 28.9 17.5 27.0 18.7 24.0 17.5 21.6 16.75 19.95 14.65 19.15 L14.85 12.7 Q15.55 10.65 17.35 10.35 18.2 13.5 19.95 16.3 21.85 19.25 24.2 21.05 28.25 24.05 36.35 23.85 M13.35 1.25 L12.85 11.6 12.6 13.05 12.8 13.8 Q12.5 22.1 12.5 26.25 12.4 39.1 14.75 47.25 15.4 49.45 18.85 55.65 21.7 60.7 21.8 64.2 21.85 65.1 22.85 65.45 23.9 65.8 23.85 64.7 23.7 61.35 22.1 58.25 24.3 56.65 26.05 53.45 27.5 50.75 28.3 47.65 29.55 42.8 29.55 35.65 L33.3 35.1 33.65 34.9 Q33.95 40.6 33.5 44.55 32.95 49.7 30.95 53.7 L27.1 61.25 Q25.1 65.6 24.85 69.35 24.3 76.45 23.45 95.65 L22.8 109.35 Q22.25 109.35 22.3 109.95 22.3 110.55 22.75 111.05 L22.3 120.35 22.25 121.35 21.6 122.0 Q20.5 122.9 19.05 122.95 17.7 122.95 16.5 122.2 L16.5 121.5 Q16.65 113.4 17.6 100.1 18.65 83.55 18.35 68.75 L18.2 64.95 Q18.0 62.85 17.2 61.4 L14.5 57.15 11.9 52.8 Q9.2 46.8 8.65 37.9 L8.55 22.55 8.7 1.35 Q9.3 0.35 10.4 -0.1 L12.3 0.05 Q13.4 0.6 13.35 1.25 M5.2 1.75 L5.2 1.6 6.65 1.8 6.55 14.75 6.2 14.7 Q5.1 14.75 5.05 8.8 4.95 5.25 5.2 1.75 M2.85 7.45 Q2.0 4.7 0.2 2.3 L-0.25 1.75 Q-2.75 -1.4 -6.5 -4.1 L-2.55 -8.95 Q-2.7 -5.85 -1.1 -3.15 0.45 -0.4 3.2 0.95 2.85 5.35 2.85 7.45 M6.55 16.8 L6.55 31.55 Q-3.45 32.55 -13.95 28.3 L-13.25 23.95 -9.5 23.25 Q-9.0 23.45 -8.8 23.1 -3.9 21.85 -0.9 19.5 2.75 16.75 3.3 12.75 4.2 16.6 6.55 16.8 M16.05 23.9 Q15.85 25.55 14.45 27.8 L14.6 21.15 Q16.35 21.75 16.05 23.9 M4.6 35.35 Q3.6 34.8 3.4 35.75 -0.75 52.2 -0.6 68.9 -4.6 70.75 -9.4 69.65 -14.1 68.55 -17.1 65.25 -19.3 62.8 -19.95 58.95 -20.5 55.75 -19.95 51.95 -19.5 48.35 -17.7 42.7 -15.5 35.6 -14.35 30.15 -3.45 34.55 6.6 33.7 6.8 40.6 7.8 45.45 9.1 51.7 11.95 56.55 L14.4 60.05 Q15.9 62.2 16.1 63.85 16.45 66.9 16.45 71.15 L16.35 78.4 15.8 93.4 14.95 108.35 Q11.35 108.35 8.55 106.95 7.7 106.6 6.9 105.95 L6.55 105.7 Q6.15 104.35 5.25 99.6 2.2 83.4 1.6 75.4 0.25 57.35 5.4 36.75 5.6 35.95 4.6 35.35 M14.8 37.4 Q17.3 37.7 19.4 36.4 21.55 37.5 23.5 37.45 25.9 37.45 27.55 35.3 27.45 41.2 26.45 45.9 25.85 48.7 24.5 51.45 22.9 54.55 20.9 56.15 17.5 50.55 16.25 45.75 15.2 42.0 14.8 37.4 M37.9 29.0 Q40.5 28.05 43.4 26.3 42.6 34.15 40.3 42.8 39.55 42.8 39.95 43.95 L37.5 52.05 Q35.55 57.9 32.25 65.8 L30.25 70.65 Q29.2 73.45 28.7 75.6 27.45 81.0 27.5 88.25 27.55 92.55 28.2 100.95 L28.7 105.05 Q28.95 107.65 28.3 109.1 L28.15 109.4 24.85 109.7 25.5 95.35 Q26.4 76.1 26.85 69.85 27.15 65.85 29.85 60.6 L34.3 51.85 Q35.7 48.25 35.9 42.9 L35.55 33.65 Q37.2 32.05 37.9 29.0 M33.15 69.75 Q39.4 67.85 43.65 59.4 43.4 63.9 42.45 68.25 L42.15 68.5 Q40.15 71.35 37.25 73.1 34.0 75.1 31.3 74.55 31.95 72.4 33.05 69.75 L33.15 69.75 M39.65 52.6 L41.7 46.0 Q42.9 47.85 43.4 51.9 L43.55 53.85 43.45 54.0 Q40.05 63.35 34.35 66.65 37.45 59.2 39.65 52.6 M31.7 79.05 L30.45 78.2 30.4 78.15 30.75 76.4 Q35.9 78.0 41.15 73.2 L40.15 76.0 Q39.4 78.0 38.35 79.6 34.2 80.15 31.7 79.05 M32.8 84.3 L29.9 84.55 29.75 84.5 30.15 80.2 Q32.45 81.9 36.55 81.9 34.75 83.7 32.8 84.3 M24.75 111.7 L27.45 111.8 Q27.15 113.65 26.6 114.6 25.95 115.7 24.55 116.15 L24.75 111.7 M14.15 115.4 L5.0 117.3 Q-0.35 118.0 -4.3 117.15 -9.3 116.1 -1.55 111.2 1.85 109.1 5.85 107.3 9.2 110.2 14.85 110.45 L14.65 115.45 14.15 115.4 M-8.65 -39.6 Q-16.0 -26.3 -21.75 -13.9 -26.55 -3.65 -28.05 2.25 -29.5 8.05 -29.5 12.2 -29.55 18.0 -27.05 21.7 -31.45 21.1 -35.75 19.5 -37.25 10.55 -33.65 -0.7 -31.15 -8.5 -25.25 -19.4 -18.6 -31.75 -11.1 -41.4 L-10.95 -41.85 -8.25 -40.4 -8.05 -39.95 Q-8.45 -39.95 -8.65 -39.6 M-12.95 -42.85 Q-19.55 -34.4 -25.75 -23.3 L-27.3 -24.4 Q-26.35 -30.75 -23.45 -35.7 -20.05 -41.55 -14.8 -43.7 -14.3 -43.85 -14.4 -44.4 L-12.7 -43.05 -12.95 -42.85 M-8.25 -29.55 Q-8.5 -24.3 -8.2 -18.1 L-7.85 -17.35 -12.7 -12.2 Q-14.7 -16.05 -17.3 -17.9 L-10.25 -31.8 -8.25 -29.55 M-26.65 -21.75 L-29.55 -16.25 Q-32.25 -17.95 -38.05 -17.65 L-34.6 -21.85 Q-32.9 -23.7 -29.2 -23.25 L-28.0 -22.7 -27.3 -22.3 -26.85 -22.0 -26.8 -21.95 -26.8 -21.9 -26.75 -21.9 -26.65 -21.75 M-39.1 -15.4 L-34.7 -15.6 Q-31.85 -15.55 -30.3 -14.65 L-32.8 -9.35 -33.3 -9.35 Q-37.3 -8.05 -40.85 -5.4 -44.35 -2.75 -46.85 0.75 -45.25 -7.0 -39.55 -15.45 L-39.1 -15.4 M-24.1 -1.75 Q-20.55 -4.7 -15.0 -7.05 -8.3 -3.85 -4.2 -0.05 -7.9 -0.8 -11.85 1.25 -15.6 3.15 -18.45 6.8 -21.3 10.45 -22.15 14.45 -23.1 18.8 -21.35 22.15 L-24.75 22.0 Q-27.95 18.4 -27.6 11.8 -27.35 7.35 -25.4 0.95 L-24.55 -1.6 Q-24.25 -1.6 -24.1 -1.75 M-21.5 -9.05 L-21.4 -9.05 -17.9 -8.3 Q-20.65 -7.05 -23.0 -5.5 L-21.5 -9.05 M-15.35 -9.4 L-15.6 -9.3 Q-17.85 -10.5 -20.6 -11.0 L-18.05 -16.3 Q-15.95 -14.85 -14.0 -10.85 L-15.35 -9.4 M-33.9 -6.65 Q-35.9 -1.5 -36.9 2.85 L-37.4 2.95 Q-40.4 4.8 -42.4 7.3 -44.7 10.1 -45.2 13.2 -47.3 10.25 -47.45 6.4 -45.5 2.1 -41.9 -1.35 -38.35 -4.8 -33.9 -6.65 M-1.35 3.1 Q1.1 6.4 1.4 9.85 1.8 14.35 -1.65 17.35 -4.5 19.85 -9.8 21.05 -13.65 18.6 -15.1 14.7 -16.65 10.65 -14.9 6.55 L-14.35 5.95 Q-11.65 3.4 -8.2 2.4 -4.2 1.2 -1.35 3.1 M-19.4 22.15 Q-20.95 19.85 -20.3 16.4 -19.75 13.55 -17.85 10.4 -17.8 13.55 -16.25 16.5 -14.75 19.3 -12.1 21.5 L-14.15 21.8 -15.05 21.9 -19.4 22.15 M-37.8 18.65 L-40.8 17.1 Q-42.2 16.3 -43.35 15.3 -43.3 10.2 -37.55 5.9 -38.75 12.6 -37.8 18.65" fill="#ffffff" fill-rule="evenodd" stroke="none"/>
  </g>
</svg>
