<?xml version="1.0" encoding="UTF-8" standalone="no"?>
<svg xmlns:ffdec="https://www.free-decompiler.com/flash" xmlns:xlink="http://www.w3.org/1999/xlink" ffdec:objectType="shape" height="167.6px" width="108.35px" xmlns="http://www.w3.org/2000/svg">
  <g transform="matrix(1.0, 0.0, 0.0, 1.0, 32.4, 44.05)">
    <path d="M28.8 -43.95 Q33.65 -43.25 37.9 -39.0 41.0 -35.85 44.0 -30.35 49.9 -19.55 50.8 -5.05 51.35 4.45 45.15 14.2 41.75 19.45 36.55 23.75 L35.65 24.5 35.55 24.5 Q32.3 24.45 29.0 23.5 26.0 22.7 23.95 20.7 22.15 18.9 20.75 15.8 19.85 13.7 19.4 11.5 L19.35 11.2 Q24.05 8.95 26.05 4.35 27.0 2.1 27.0 -0.75 L26.95 -1.65 Q26.7 -4.5 25.45 -8.05 L22.95 -13.9 21.35 -16.6 Q20.05 -18.4 18.85 -18.3 17.85 -18.25 18.35 -17.1 L13.5 -17.7 10.25 -18.4 7.05 -19.35 6.7 -24.95 Q11.9 -25.6 15.35 -29.55 18.65 -33.35 19.15 -38.7 L19.1 -39.05 19.25 -39.3 Q20.3 -42.0 23.15 -43.25 25.75 -44.35 28.8 -43.95 M4.65 -26.2 L5.05 -19.55 5.15 -19.25 Q4.1 -18.85 3.35 -17.4 L3.05 -16.5 2.65 -15.75 1.3 -14.2 Q-2.05 -9.7 0.1 -4.35 2.25 0.95 7.6 1.85 L5.3 25.25 4.5 35.05 Q-1.7 35.05 -5.6 32.8 -6.65 32.2 -7.65 31.05 L-8.0 30.5 -6.5 26.2 Q-5.75 23.75 -5.6 21.75 L-5.5 19.9 Q-1.85 20.6 -0.15 18.45 0.55 17.55 0.35 16.2 L-0.25 13.85 Q-2.45 4.9 -3.75 -9.9 -4.4 -17.25 -4.55 -25.45 -4.6 -26.6 -5.0 -27.25 L-6.5 -28.8 Q-8.0 -30.3 -8.4 -32.35 -8.85 -34.55 -7.75 -36.25 L-7.75 -36.3 Q-6.65 -33.45 -4.1 -31.8 -1.75 -30.25 1.5 -29.95 5.2 -29.55 9.1 -30.85 13.05 -32.15 15.85 -34.7 14.4 -31.45 11.75 -29.4 8.95 -27.3 5.3 -27.0 4.65 -26.95 4.65 -26.2 M15.5 -15.25 L20.5 -14.8 20.8 -14.25 Q24.1 -8.4 24.85 -2.5 20.7 -2.35 14.25 -4.1 12.15 -4.65 11.4 -7.65 L10.45 -12.55 Q9.95 -14.3 8.6 -15.4 7.35 -16.5 5.65 -16.6 L6.1 -17.15 8.3 -17.1 10.6 -16.15 Q12.55 -15.55 15.5 -15.25 M4.4 -14.05 Q7.55 -15.5 8.8 -11.5 L10.5 -4.9 Q11.15 -3.6 12.65 -2.75 13.65 -2.25 15.55 -1.7 20.85 -0.3 24.9 -0.35 L24.35 2.4 15.9 1.15 Q14.8 -0.8 12.7 -1.65 11.5 -2.15 10.2 -1.65 9.05 -1.25 8.15 -0.2 2.95 -0.4 1.75 -5.6 0.55 -10.7 4.35 -14.05 L4.4 -14.05 M48.65 24.1 L48.15 24.2 Q42.05 28.4 35.95 30.65 L36.5 26.65 36.5 26.6 Q37.45 26.6 39.1 25.0 L41.25 22.7 Q45.2 18.8 47.95 14.05 48.65 18.65 48.65 24.1 M53.3 44.1 L53.4 44.15 Q57.8 45.7 59.75 50.05 61.45 54.0 60.65 58.85 59.0 68.55 47.7 77.15 54.85 67.5 54.2 56.7 53.85 50.2 50.85 45.2 L53.3 44.1 M44.55 46.15 Q44.4 46.4 44.4 46.6 42.6 51.2 40.35 55.05 39.95 55.8 40.85 56.55 L42.2 56.5 44.05 53.05 Q46.6 57.25 44.55 63.8 42.9 69.15 39.3 73.6 35.7 78.0 30.4 78.75 24.95 79.5 20.75 75.85 L21.4 71.65 Q22.0 67.85 24.85 63.25 L29.8 55.6 Q31.95 51.85 32.75 46.2 33.25 42.95 33.45 36.3 L33.45 36.15 Q34.5 34.95 35.25 33.15 L35.85 33.15 Q41.95 31.15 48.55 26.85 48.0 36.95 44.55 46.15 M49.35 46.0 Q54.15 54.05 51.35 64.2 48.9 73.1 41.8 80.4 L34.0 80.15 Q38.1 78.6 40.9 75.4 45.3 70.35 46.8 63.75 48.6 56.15 44.9 51.3 L46.35 47.8 49.35 46.0 M70.05 49.1 L71.8 52.0 Q71.7 58.4 69.75 64.5 67.7 70.9 63.95 75.6 57.45 78.4 50.8 77.75 62.45 68.1 62.95 57.0 L62.8 54.3 63.0 54.35 Q66.95 54.3 68.8 47.55 L70.05 49.1 M67.0 45.75 Q66.45 48.15 65.45 49.8 64.15 52.1 62.4 52.2 60.9 46.45 55.8 43.35 L61.3 43.05 Q64.4 43.45 67.0 45.75 M17.55 12.0 Q16.15 12.15 14.9 13.0 L16.3 3.25 23.45 4.3 Q21.35 7.95 17.7 9.4 17.2 9.65 17.3 10.15 L17.55 12.0 M14.35 2.05 L13.55 7.55 Q12.15 16.95 11.15 26.55 9.85 39.2 11.35 47.3 12.0 51.25 14.1 55.85 L16.15 60.4 Q17.0 62.85 16.85 65.25 16.8 66.05 17.8 66.65 18.8 67.2 18.85 66.25 19.05 62.95 18.0 60.15 L18.2 60.05 Q24.2 53.75 25.8 48.6 27.15 44.25 27.05 38.3 L30.2 38.1 31.4 37.65 Q31.2 43.0 30.5 46.55 29.55 51.35 27.55 54.85 L22.75 62.3 Q20.05 66.65 19.45 70.4 18.6 75.2 15.7 95.65 L11.9 122.75 Q11.75 123.55 9.6 123.55 L6.95 123.2 6.2 122.7 Q7.2 113.1 9.0 102.95 11.65 87.4 12.95 70.9 L13.3 66.9 Q13.4 64.45 12.85 62.85 12.3 61.3 10.8 58.6 L8.6 54.4 Q6.1 48.1 6.3 39.15 6.3 36.6 7.55 23.55 8.4 14.0 9.75 1.55 10.7 0.4 12.6 0.4 14.6 0.4 14.35 2.05 M14.65 17.4 Q14.85 16.15 15.85 15.25 16.8 14.4 18.15 14.15 20.15 20.5 24.4 23.45 28.2 26.05 34.4 26.5 33.85 34.5 29.25 36.0 L26.55 36.15 26.25 35.95 Q27.35 34.15 28.05 31.9 28.3 31.1 27.3 30.5 26.35 29.9 26.05 30.85 24.25 36.85 20.5 36.8 19.65 36.8 18.75 36.4 20.9 34.55 21.85 31.65 22.1 30.9 21.2 30.15 L20.0 30.2 Q19.1 32.95 17.25 34.55 15.1 36.45 12.5 36.05 L12.65 32.6 12.7 32.6 Q15.2 29.75 16.15 28.0 17.7 24.95 16.6 22.5 15.75 20.85 14.0 19.95 L14.3 17.9 14.65 17.4 M12.45 38.05 Q14.95 38.55 17.1 37.45 18.95 38.75 21.2 38.9 23.15 39.1 24.75 37.75 L25.05 37.85 Q24.95 42.45 24.15 46.2 23.55 49.2 21.4 52.45 19.85 54.8 17.0 57.8 13.85 50.9 13.05 46.25 12.45 42.2 12.45 38.05 M13.8 21.85 Q16.55 23.2 13.05 28.35 13.35 25.1 13.8 21.85 M9.85 60.55 Q11.15 62.9 11.2 64.6 L10.85 72.15 10.0 79.65 8.2 93.45 8.0 93.55 Q5.6 95.6 2.55 96.3 -0.65 97.0 -3.4 95.85 L-3.5 95.85 Q-9.15 88.15 -12.35 79.65 -15.75 70.6 -15.95 61.6 -16.05 56.95 -13.8 48.6 -11.85 41.55 -8.7 32.5 -4.95 36.95 4.4 37.15 4.05 48.85 7.7 56.7 8.3 58.0 9.85 60.55 M22.6 95.15 Q23.2 97.2 21.1 99.6 19.45 101.5 16.8 103.0 L18.9 88.3 Q21.55 91.7 22.6 95.15 M75.95 66.8 L75.85 66.9 Q72.55 70.75 68.3 73.35 72.75 65.65 73.65 55.95 75.65 61.0 75.95 66.8 M50.3 86.25 Q47.7 83.9 46.0 81.3 L48.7 79.4 Q56.3 81.05 64.35 78.0 L65.2 77.9 65.5 77.5 Q71.4 74.95 75.95 70.3 75.7 75.4 73.95 79.8 L73.85 79.9 Q69.2 83.9 62.95 85.6 56.7 87.3 50.6 86.25 L50.3 86.25 M63.05 90.4 Q58.45 91.6 53.6 88.65 63.2 89.35 71.35 84.6 68.1 89.05 63.05 90.4 M5.85 107.2 Q3.1 108.95 -0.15 110.55 -9.5 114.95 -10.8 111.95 -11.45 110.3 -9.65 107.35 L-6.7 103.35 Q-4.8 100.9 -2.4 98.55 L-2.25 98.2 Q2.9 99.55 7.7 96.7 L6.15 107.1 5.85 107.2 M-13.3 -39.8 Q-11.6 -38.4 -9.8 -37.4 -11.15 -34.9 -10.15 -31.8 -9.25 -29.2 -7.05 -26.95 L-6.65 -26.85 -6.6 -26.55 -6.55 -24.65 -6.25 -17.8 Q-5.75 -7.4 -4.2 3.35 -3.4 8.6 -2.1 13.9 L-1.7 15.15 Q-1.5 15.9 -1.7 16.4 -2.4 18.35 -5.45 17.85 -5.5 14.55 -6.3 8.15 -6.9 3.25 -8.45 -2.05 -10.8 -10.35 -12.4 -19.1 L-12.45 -19.35 -13.8 -27.7 Q-13.9 -28.55 -14.95 -28.9 -16.0 -29.25 -15.8 -28.2 L-14.55 -20.55 -20.05 -21.45 Q-20.65 -27.1 -19.5 -31.55 -18.0 -37.35 -13.7 -39.35 L-13.3 -39.8 M-25.1 -20.75 Q-21.15 -19.55 -14.15 -18.5 -13.0 -12.25 -11.45 -6.25 -14.5 -6.1 -20.15 -7.85 -22.15 -8.5 -22.85 -11.55 -23.3 -15.1 -23.65 -16.5 -24.0 -18.1 -25.15 -19.2 -26.25 -20.3 -27.8 -20.55 L-25.1 -20.75 M-25.3 -15.5 L-23.8 -8.8 Q-22.75 -6.6 -18.85 -5.5 -14.2 -4.0 -10.9 -4.1 L-10.1 -1.0 -18.4 -2.55 Q-19.0 -3.65 -20.35 -4.65 -21.6 -5.65 -22.6 -5.75 -24.75 -5.95 -26.3 -4.15 -30.85 -4.7 -32.05 -8.7 -33.15 -12.4 -31.0 -16.45 L-30.1 -18.1 -29.7 -18.15 Q-26.5 -19.55 -25.3 -15.5 M-21.35 -3.25 Q-20.0 -2.7 -20.2 -1.9 L-21.0 2.65 Q-22.9 13.35 -23.85 20.5 -25.5 32.4 -25.3 38.45 -24.95 49.0 -20.1 55.15 -19.4 56.05 -18.7 55.5 L-17.4 54.45 Q-18.15 59.3 -17.85 63.55 L-17.25 68.65 -17.35 68.95 Q-18.65 74.95 -21.4 92.0 -23.7 106.5 -25.95 114.9 -26.6 117.65 -26.95 118.25 -27.75 119.6 -29.75 119.85 -31.35 120.05 -31.65 118.7 L-31.6 116.05 -30.65 109.3 -28.55 97.9 -26.3 86.5 Q-24.05 74.05 -23.9 64.2 L-23.85 59.8 Q-23.95 57.5 -24.6 55.5 -25.05 54.05 -26.9 50.25 -28.5 47.0 -28.9 44.8 -29.4 42.35 -29.35 39.25 L-29.05 33.65 -27.95 21.75 -24.75 -2.4 -23.45 -3.45 -21.35 -3.25 M-8.25 8.25 Q-7.4 14.65 -7.45 18.5 -12.85 14.45 -20.95 15.15 L-20.4 11.9 -18.25 -0.5 -9.6 1.1 Q-8.65 4.75 -8.25 8.25 M-19.2 19.35 Q-20.2 18.8 -20.4 19.75 -21.05 22.8 -19.85 25.8 L-20.35 26.0 Q-21.15 26.75 -22.6 26.75 L-21.3 17.35 -21.0 17.35 Q-12.5 16.35 -7.6 20.65 L-7.85 22.95 -8.3 24.9 -9.7 24.4 -9.55 24.3 Q-8.95 23.75 -9.75 22.85 -10.5 21.95 -11.15 22.5 -12.2 23.45 -13.5 24.05 -14.25 24.35 -13.75 25.3 -13.25 26.2 -12.55 26.1 L-9.7 26.4 -8.85 26.7 -9.85 29.6 Q-10.15 29.75 -10.1 30.15 L-10.1 30.25 -10.25 30.25 Q-14.3 30.55 -16.8 27.65 -19.25 24.75 -18.4 20.75 -18.25 19.9 -19.2 19.35 M-22.7 32.5 L-23.05 32.05 -23.05 32.0 -22.8 28.75 Q-20.2 29.2 -18.8 27.8 -17.6 29.55 -15.8 30.7 -16.65 32.55 -18.25 33.7 -19.3 34.45 -20.8 34.05 -22.35 33.65 -22.7 32.5 M-12.4 36.5 L-12.75 36.45 Q-16.0 36.9 -16.95 35.7 -15.2 34.65 -13.9 32.15 L-13.85 31.7 -10.95 32.35 -12.4 36.5" fill="#ffffff" fill-rule="evenodd" stroke="none"/>
  </g>
</svg>
