<?xml version="1.0" encoding="UTF-8" standalone="no"?>
<svg xmlns:ffdec="https://www.free-decompiler.com/flash" xmlns:xlink="http://www.w3.org/1999/xlink" ffdec:objectType="shape" height="168.7px" width="97.7px" xmlns="http://www.w3.org/2000/svg">
  <g transform="matrix(1.0, 0.0, 0.0, 1.0, 30.05, 46.75)">
    <path d="M28.7 -46.75 Q37.3 -46.8 45.4 -35.1 52.35 -24.95 54.7 -11.2 56.5 -0.8 51.0 9.65 48.0 15.4 43.15 20.15 L42.6 20.65 42.0 20.75 Q37.7 20.9 34.2 19.95 28.95 18.6 25.85 11.3 L25.05 9.1 25.35 8.9 Q27.75 7.4 29.4 5.0 30.95 2.65 31.45 -0.2 31.7 -1.6 31.55 -3.5 31.7 -3.8 31.45 -4.35 30.65 -9.65 25.75 -17.1 L24.15 -19.2 Q22.9 -20.5 21.9 -20.3 20.9 -20.15 21.4 -19.05 L17.35 -19.2 13.5 -19.65 9.75 -20.25 Q8.65 -20.4 7.85 -19.85 L7.65 -28.9 Q13.05 -29.4 16.45 -32.65 20.05 -36.0 20.15 -41.15 L20.25 -41.35 Q20.95 -43.85 23.5 -45.35 25.8 -46.7 28.7 -46.75 M13.8 -33.5 Q10.65 -31.2 6.25 -30.95 5.6 -30.95 5.6 -30.15 L5.9 -17.75 Q5.9 -17.35 6.25 -17.0 L5.95 -16.25 4.65 -14.45 Q1.85 -9.65 4.5 -4.55 7.15 0.55 12.55 0.85 12.4 12.7 12.4 24.5 L12.5 32.9 Q1.05 32.9 -14.4 26.95 L-14.35 26.85 Q-13.95 26.75 -14.0 26.15 -10.5 19.3 -9.3 14.85 L-8.8 15.15 -5.55 15.7 Q-3.7 15.75 -2.4 15.0 -1.75 14.75 -1.85 14.1 -1.95 13.05 -2.4 11.35 L-3.1 8.6 Q-4.75 -0.35 -4.55 -13.9 -4.5 -20.9 -3.75 -29.2 -3.6 -30.45 -4.05 -31.1 L-5.6 -32.75 Q-7.05 -34.2 -7.55 -36.15 -8.1 -38.35 -7.1 -40.05 L-7.0 -40.4 -6.8 -40.25 Q-5.7 -37.4 -3.15 -35.75 -0.8 -34.2 2.45 -33.9 6.6 -33.5 10.85 -35.05 15.25 -36.7 17.9 -39.8 17.1 -35.95 13.8 -33.5 M18.7 -16.9 L23.8 -16.9 24.1 -16.5 Q28.1 -10.85 29.25 -5.15 24.2 -4.4 17.85 -5.9 16.1 -6.3 15.2 -9.4 14.4 -12.85 13.85 -13.95 13.0 -15.65 11.7 -16.55 10.35 -17.4 8.75 -17.35 L9.1 -17.85 11.35 -18.05 13.7 -17.35 18.7 -16.9 M7.75 -14.7 L7.8 -14.7 Q10.75 -16.45 12.55 -12.3 L15.15 -5.65 Q16.15 -4.3 18.4 -3.7 L22.2 -3.15 Q26.5 -2.6 29.55 -3.0 L29.25 -0.25 20.65 -0.7 Q19.55 -2.45 17.6 -3.05 L14.95 -3.0 Q13.7 -2.5 12.85 -1.3 7.7 -1.05 5.9 -6.0 4.2 -10.85 7.65 -14.6 L7.75 -14.7 M18.2 -0.9 Q19.3 -0.35 19.25 0.3 L18.95 5.85 Q18.4 17.7 18.4 25.25 18.3 38.3 20.65 46.3 21.3 48.45 24.75 54.65 27.6 59.7 27.7 63.25 27.75 64.1 28.75 64.45 29.8 64.8 29.75 63.75 29.6 60.65 28.3 57.95 L28.4 57.85 Q33.9 50.85 35.0 45.8 35.85 41.35 35.25 35.3 L38.55 34.75 39.55 34.25 Q39.85 39.75 39.4 43.7 38.8 48.75 36.85 52.7 L33.0 60.25 Q31.0 64.65 30.75 68.4 L29.35 94.65 28.2 119.4 28.15 120.4 27.55 121.0 Q26.45 121.9 25.0 121.95 23.6 122.0 22.4 121.25 L22.45 120.55 Q22.55 114.5 23.5 99.15 24.55 82.6 24.25 67.75 L24.1 64.0 Q23.9 61.9 23.1 60.45 L20.4 56.2 17.8 51.85 Q15.1 45.85 14.55 36.95 14.4 35.0 14.4 21.55 L14.55 0.4 Q15.25 -0.6 16.25 -1.1 L18.2 -0.9 M45.65 21.4 Q45.65 25.0 45.3 28.15 L45.15 28.15 43.1 28.75 Q43.65 26.4 43.55 22.8 44.3 22.75 45.65 21.4 M42.25 31.2 L42.85 31.25 45.0 30.6 Q44.05 37.25 41.75 42.8 41.9 39.55 41.45 32.55 L42.25 31.2 M41.75 48.0 Q41.85 55.5 39.75 62.05 37.3 69.4 32.45 73.95 L32.75 68.85 Q33.05 64.9 35.75 59.65 L40.15 50.9 40.85 48.8 Q41.25 48.8 41.45 48.45 L41.75 48.0 M48.1 43.8 Q51.4 47.25 51.5 55.8 51.6 61.3 49.9 66.35 50.85 60.85 49.35 55.2 47.8 49.4 44.15 45.35 L45.6 44.65 48.1 43.8 M43.65 47.45 L43.7 47.45 Q45.55 49.9 46.85 53.35 48.9 58.8 47.9 65.05 47.0 70.5 43.8 76.1 L43.75 76.25 Q41.4 78.2 38.25 79.1 L32.1 79.6 32.25 77.2 32.4 77.1 Q36.4 74.05 39.2 68.8 41.7 64.2 42.95 58.65 43.9 54.45 43.8 49.05 L43.65 47.45 M59.1 45.6 Q59.6 49.85 58.1 53.85 56.6 57.9 53.5 60.7 54.2 55.65 53.4 51.3 52.5 46.5 50.0 43.4 55.3 42.65 59.1 45.6 M61.8 48.5 Q64.2 52.1 65.65 57.15 65.3 57.35 65.35 57.85 66.1 64.5 62.4 70.7 58.9 76.6 52.85 79.9 L52.65 80.05 Q50.1 79.55 48.15 78.55 L46.2 77.15 48.75 74.2 Q51.5 70.25 52.95 63.9 L53.55 63.75 Q57.3 61.1 59.35 56.75 61.4 52.45 61.25 47.75 L61.8 48.5 M22.95 8.1 L23.4 10.0 Q21.85 10.3 20.75 11.25 L21.25 1.4 28.5 1.8 Q26.85 5.5 23.35 7.35 22.8 7.6 22.95 8.1 M20.6 16.2 L20.9 15.75 Q21.05 14.4 21.95 13.4 22.85 12.45 24.15 12.1 26.75 18.3 30.9 20.6 35.25 23.0 41.55 22.9 41.65 31.05 37.1 32.8 L34.5 33.2 34.25 33.05 Q35.2 31.2 35.6 28.9 35.8 28.1 34.8 27.5 33.8 26.95 33.6 27.9 32.45 34.1 28.7 34.4 L26.85 34.1 Q28.8 32.1 29.5 29.05 29.65 28.2 28.7 27.65 27.7 27.1 27.5 28.05 26.35 32.7 22.95 34.0 L20.55 34.35 20.4 31.0 20.5 30.85 Q22.65 28.0 23.4 26.05 24.55 23.05 23.4 20.65 22.55 18.95 20.55 18.2 L20.6 16.2 M2.9 44.55 Q1.95 44.0 1.9 44.95 1.75 49.3 2.25 53.8 0.15 57.05 -1.45 59.95 -2.0 60.05 -1.85 60.7 L-1.85 60.75 -4.05 65.7 Q-4.35 66.45 -3.45 67.2 L-2.2 67.15 -0.9 64.05 Q0.65 67.8 4.5 72.0 L11.4 78.65 Q7.45 83.5 3.3 86.1 -2.35 89.7 -7.05 88.15 -16.45 81.95 -21.95 74.65 -28.95 65.4 -28.35 56.05 -28.2 53.1 -26.6 49.5 L-23.45 43.45 -15.25 28.6 Q0.75 34.8 12.6 35.0 13.2 47.7 17.85 55.55 L20.3 59.05 Q21.8 61.2 22.0 62.85 22.35 65.9 22.35 70.15 L22.25 77.45 22.2 78.45 21.8 78.3 Q13.8 77.9 9.15 70.45 5.45 64.55 4.3 54.95 L4.4 54.8 Q4.75 54.25 4.15 53.55 3.75 49.2 3.9 45.95 3.9 45.15 2.9 44.55 M33.25 35.1 Q33.65 39.35 33.2 43.3 32.65 48.6 27.1 55.7 L26.95 55.4 Q23.55 49.85 22.15 44.8 21.1 41.05 20.7 36.45 23.25 36.75 25.3 35.4 27.4 36.55 29.4 36.5 31.45 36.45 32.9 35.0 L33.25 35.1 M20.5 20.2 Q23.6 21.25 20.35 26.85 20.35 23.5 20.5 20.2 M9.35 88.75 Q8.65 88.5 8.3 88.95 3.9 95.15 -2.45 100.85 -11.9 108.8 -12.95 106.2 -13.65 104.4 -12.25 101.05 L-9.85 96.2 -6.55 90.3 Q-1.45 91.85 4.6 88.1 9.15 85.3 13.15 80.25 L15.15 82.15 Q16.1 83.05 15.6 84.35 L14.2 86.55 11.35 89.65 9.35 88.75 M37.7 81.55 Q41.55 80.8 44.85 78.3 48.4 82.15 55.15 82.4 60.35 82.6 66.75 80.7 66.05 83.45 64.95 85.75 58.35 87.85 52.05 87.9 44.75 87.95 39.3 85.25 L39.15 85.2 Q38.25 83.35 37.7 81.55 M67.6 74.2 L67.25 78.15 Q61.15 80.25 56.6 80.3 60.7 77.45 63.45 73.4 66.25 69.2 67.15 64.5 67.75 69.55 67.6 74.2 M51.8 90.0 Q57.3 90.1 63.1 88.65 59.0 93.9 51.9 94.2 48.55 94.3 45.55 92.5 42.85 90.85 40.75 87.9 45.7 89.9 51.8 90.0 M-9.0 -41.45 Q-10.5 -38.8 -9.25 -35.55 -8.2 -32.95 -5.7 -30.55 -6.5 -22.85 -6.6 -12.05 -6.6 -3.15 -5.6 4.8 L-4.2 12.35 -3.85 13.0 -4.25 13.35 -6.55 13.6 -8.85 13.1 -8.65 12.15 Q-8.15 9.35 -8.6 5.4 L-9.65 -1.35 Q-11.2 -11.65 -14.2 -26.25 -14.35 -27.1 -15.4 -27.45 -16.4 -27.8 -16.2 -26.75 L-15.65 -24.05 -15.8 -24.05 -20.75 -24.5 Q-22.15 -30.5 -19.1 -35.45 -16.05 -40.3 -10.05 -42.05 L-10.0 -42.05 -9.0 -41.45 M-21.95 -19.05 Q-23.9 -22.6 -26.85 -22.65 -25.85 -23.6 -23.1 -23.0 -18.75 -22.0 -15.25 -21.95 L-13.1 -10.6 -16.85 -11.05 Q-18.95 -11.55 -19.85 -13.0 -20.45 -13.95 -20.95 -16.0 -21.5 -18.2 -21.95 -19.05 M-28.3 -19.95 Q-24.95 -21.6 -23.4 -17.8 L-22.25 -14.35 Q-21.6 -12.3 -20.9 -11.5 -19.5 -9.85 -17.2 -9.2 L-12.75 -8.55 -12.35 -6.1 -15.2 -6.2 Q-15.7 -7.0 -16.95 -7.95 -18.45 -9.05 -20.15 -8.65 -21.8 -8.25 -22.8 -6.7 -27.55 -6.65 -29.3 -10.6 -30.9 -14.25 -29.05 -18.65 L-28.45 -19.85 -28.3 -19.95 M-12.0 -4.0 L-11.55 -1.15 -10.65 5.8 Q-10.3 9.8 -10.95 12.75 -11.85 16.7 -14.25 21.65 -14.7 13.25 -14.4 -1.55 L-14.45 -4.1 -12.0 -4.0 M-16.4 -4.9 L-16.5 2.65 Q-16.6 17.65 -16.05 25.15 L-20.2 32.75 Q-20.9 24.75 -21.05 13.9 L-21.1 -5.0 Q-20.15 -6.45 -18.3 -6.5 -16.35 -6.55 -16.4 -4.9 M-10.7 92.85 L-10.5 87.9 -8.6 89.2 -10.7 92.85 M-11.35 108.75 Q-8.9 108.75 -5.2 106.1 L-5.8 112.05 -6.15 114.45 Q-6.45 115.55 -7.6 116.15 -8.8 116.8 -9.75 116.7 -10.95 116.55 -11.2 115.3 L-11.4 112.2 -11.25 109.1 -11.35 108.75" fill="#ffffff" fill-rule="evenodd" stroke="none"/>
  </g>
</svg>
