<?xml version="1.0" encoding="UTF-8" standalone="no"?>
<svg xmlns:ffdec="https://www.free-decompiler.com/flash" xmlns:xlink="http://www.w3.org/1999/xlink" ffdec:objectType="shape" height="165.85px" width="103.95px" xmlns="http://www.w3.org/2000/svg">
  <g transform="matrix(1.0, 0.0, 0.0, 1.0, 42.1, 47.75)">
    <path d="M25.1 -47.05 Q32.8 -49.75 42.8 -41.75 51.05 -35.15 57.25 -23.3 63.6 -11.0 60.75 1.3 59.15 8.25 54.8 14.95 L54.45 15.35 52.9 15.75 Q47.4 17.05 43.1 15.9 40.7 15.25 38.35 12.75 36.5 10.8 34.95 8.1 L34.8 7.85 36.05 6.5 Q38.15 3.85 38.75 0.6 39.3 -2.5 38.3 -5.75 38.6 -6.4 37.8 -7.1 L37.7 -7.45 Q36.35 -10.5 33.8 -13.7 31.35 -16.7 28.55 -19.0 26.55 -20.7 25.4 -20.25 24.6 -19.95 25.2 -18.95 L21.2 -18.15 17.5 -17.8 13.75 -17.65 Q11.75 -17.45 11.2 -15.75 L11.1 -14.35 10.95 -13.1 Q10.5 -12.45 10.0 -11.05 8.2 -5.7 11.85 -1.1 15.5 3.5 20.95 2.55 L23.7 15.6 13.45 17.2 9.1 17.6 Q6.0 17.6 5.15 16.3 4.45 15.35 4.5 12.8 L4.7 9.15 Q4.8 1.5 5.85 -17.1 L6.55 -27.7 7.55 -27.8 Q13.6 -28.65 17.15 -32.0 21.05 -35.75 20.4 -41.6 L20.0 -42.3 20.45 -43.7 Q22.15 -46.1 25.1 -47.05 M13.8 -32.35 Q10.2 -30.0 5.2 -29.75 4.65 -29.75 4.55 -29.2 3.2 -10.1 2.85 3.05 L2.5 9.7 Q2.4 13.75 3.2 16.25 4.2 19.45 10.15 19.55 L17.2 19.05 24.2 17.75 27.3 31.9 7.15 32.85 Q-4.1 32.7 -12.85 30.4 -17.45 29.15 -19.85 27.55 L-21.0 26.65 -21.25 26.35 -21.2 26.45 -21.4 26.2 -18.35 12.7 Q-13.35 16.8 -9.1 15.8 L-8.7 15.25 Q-6.15 1.2 -5.05 -20.55 L-4.7 -28.95 -4.85 -29.8 -6.75 -32.05 Q-8.0 -33.3 -8.45 -34.45 -8.85 -35.45 -8.8 -36.7 L-8.15 -38.85 Q-7.75 -39.55 -8.65 -40.3 L-8.75 -40.4 -6.9 -39.45 Q-5.85 -36.55 -3.3 -34.85 -1.0 -33.3 2.25 -32.95 6.65 -32.4 11.15 -34.15 15.75 -35.95 18.35 -39.35 17.8 -35.0 13.8 -32.35 M16.6 -15.55 L18.75 -15.5 23.4 -16.2 28.05 -17.2 Q31.05 -14.8 34.95 -8.85 L35.95 -7.1 Q32.25 -5.7 26.5 -5.35 L23.75 -5.55 Q22.55 -6.0 21.7 -7.3 L19.5 -11.35 Q18.35 -13.2 16.7 -14.1 14.95 -15.05 13.2 -14.55 13.45 -15.35 14.5 -15.5 L16.6 -15.55 M12.75 -11.55 Q15.35 -13.9 18.05 -10.3 L22.1 -4.35 Q23.2 -3.35 25.1 -3.2 L28.35 -3.3 Q33.1 -3.65 36.65 -4.85 L36.9 -2.2 28.35 -0.8 Q26.7 -2.45 24.65 -2.55 23.3 -2.55 22.25 -1.75 21.25 -1.0 20.8 0.25 15.75 1.65 12.85 -2.8 10.0 -7.2 12.75 -11.55 M47.35 24.4 Q47.45 30.7 43.75 31.7 L42.0 31.8 Q43.35 29.4 43.35 26.35 43.4 25.5 42.4 25.15 41.4 24.8 41.35 25.85 41.35 28.65 39.95 30.8 38.4 33.15 35.75 33.45 L34.95 30.3 Q36.45 27.0 36.8 24.8 37.35 21.5 35.6 19.4 34.4 17.9 32.3 17.65 L31.95 15.85 32.15 15.2 Q32.0 13.85 32.75 12.7 33.4 11.6 34.7 11.0 38.2 16.2 42.6 17.7 47.6 19.45 54.0 17.8 55.9 26.05 51.5 28.5 L49.25 29.3 48.95 29.15 Q49.35 27.55 49.35 24.9 49.3 24.05 48.3 23.7 47.3 23.35 47.35 24.4 M54.5 29.25 L56.2 36.45 Q56.9 40.55 56.65 43.7 56.45 46.25 54.4 53.3 52.65 59.25 53.0 63.0 53.35 66.85 54.35 72.4 L56.05 81.75 61.8 115.1 Q62.1 116.9 60.1 117.7 L56.3 117.8 Q55.05 111.65 53.25 100.5 L50.35 83.2 47.0 67.1 Q47.15 66.7 46.8 66.2 L46.7 65.85 45.6 61.6 Q44.85 59.25 43.45 57.85 L39.05 53.4 Q36.6 50.85 35.15 48.5 33.05 45.05 31.5 40.35 30.5 37.2 29.2 31.75 27.35 23.95 22.85 2.7 L22.65 1.7 Q22.95 0.9 23.4 0.4 24.05 -0.35 24.85 -0.4 L26.4 0.1 27.3 0.15 28.0 4.4 Q29.85 15.5 31.7 24.15 34.35 37.05 38.3 44.55 40.2 48.2 43.6 51.95 L47.0 55.7 Q48.6 57.8 49.2 60.2 49.45 61.1 50.4 61.15 51.35 61.25 51.1 60.15 50.35 57.25 48.5 54.85 L48.55 54.75 Q52.45 46.7 52.35 41.35 52.3 37.1 50.4 31.35 52.15 31.0 53.65 29.95 L54.5 29.25 M48.55 49.2 L46.9 52.95 46.55 52.55 42.95 48.45 48.55 49.2 M32.8 6.45 Q32.35 6.8 32.65 7.4 L33.45 9.0 Q31.95 9.7 31.05 10.95 L29.4 1.25 36.65 0.05 Q35.8 3.9 32.8 6.45 M31.55 45.55 Q31.05 48.85 29.4 51.95 29.0 51.95 29.0 52.5 L28.95 52.75 Q26.35 57.15 22.25 59.75 21.55 60.15 22.35 61.1 23.15 62.0 23.85 61.55 26.4 59.95 28.4 57.6 27.3 64.3 24.3 69.7 22.35 73.35 18.8 75.75 15.2 78.2 11.25 78.5 L10.7 78.55 Q6.25 78.7 2.7 75.9 -0.95 72.95 -2.65 66.85 -3.75 62.75 -4.1 56.25 -4.45 49.4 -3.6 43.65 -3.5 42.85 -4.5 42.3 -5.5 41.7 -5.6 42.65 -6.6 49.7 -5.95 57.65 -5.3 66.65 -2.3 72.15 -4.55 85.05 -5.4 96.15 L-5.45 100.0 -5.5 104.05 -5.55 104.05 Q-11.5 106.6 -17.45 106.65 -24.35 106.75 -29.0 103.2 -30.55 101.9 -30.9 100.0 L-31.05 96.15 -30.8 87.3 Q-30.3 79.4 -28.8 68.15 -26.3 49.3 -22.15 29.7 L-21.85 28.2 Q-20.5 29.5 -18.1 30.6 L-14.1 32.05 Q-5.3 34.8 6.75 35.0 L27.85 34.05 Q29.65 40.9 31.65 45.25 L31.55 45.55 M34.05 26.5 L32.7 19.75 Q36.25 20.05 34.05 26.5 M35.2 51.85 Q39.25 58.75 36.3 67.2 33.75 74.45 27.25 80.15 L27.0 80.55 23.6 81.0 Q19.2 81.15 15.2 80.0 21.3 78.25 24.95 73.15 27.65 69.35 29.25 64.0 30.65 59.25 30.95 53.95 32.45 51.3 33.15 48.35 L35.0 51.25 35.2 51.85 M38.75 55.7 L41.55 58.15 Q43.05 59.65 43.55 61.05 L44.95 66.05 Q39.8 75.5 31.7 79.1 36.3 73.95 38.3 68.1 40.45 61.6 38.75 55.7 M3.2 78.4 Q6.0 80.25 9.3 80.55 9.8 85.6 11.9 95.65 L13.2 104.15 13.3 105.5 12.85 106.75 Q11.95 107.85 10.4 108.15 8.55 108.55 8.25 106.85 L5.55 92.65 Q3.95 84.15 3.2 78.4 M40.35 94.9 Q45.2 94.1 49.85 91.7 L50.15 93.25 49.95 93.5 Q47.25 98.35 40.65 98.0 34.75 97.7 30.4 94.15 34.8 95.75 40.35 94.9 M26.95 90.2 Q24.8 86.95 23.9 83.1 L24.3 83.1 Q27.6 83.05 31.0 81.9 35.4 86.35 48.3 82.6 L49.45 89.3 49.25 89.35 Q43.65 92.4 38.1 93.0 31.3 93.65 26.95 90.2 M56.05 55.25 Q58.55 65.9 57.35 78.15 L55.2 64.8 Q54.6 60.85 56.05 55.25 M47.75 80.35 Q36.85 83.75 32.85 81.2 40.45 77.85 45.7 69.4 L47.9 80.35 47.75 80.35 M-10.0 -40.3 Q-11.55 -37.65 -10.3 -34.35 -9.25 -31.75 -6.7 -29.3 -6.95 -20.45 -7.8 -9.55 -8.5 -0.5 -9.65 7.75 L-10.05 11.15 Q-10.4 13.75 -10.7 13.8 -14.0 14.15 -17.95 10.8 -16.45 3.35 -15.9 -2.05 -14.55 -14.75 -14.55 -29.05 -14.55 -29.9 -15.55 -30.25 -16.55 -30.6 -16.55 -29.55 L-16.65 -22.3 -19.25 -22.15 Q-22.4 -30.45 -16.85 -36.6 -14.35 -39.4 -11.1 -40.85 -10.55 -41.1 -10.65 -41.6 L-9.05 -40.55 Q-9.65 -40.85 -10.0 -40.3 M-26.6 -15.2 L-26.25 -16.4 -25.95 -16.55 Q-22.3 -19.15 -19.8 -13.1 -18.55 -10.25 -17.35 -9.05 L-17.8 -4.1 -18.5 -4.25 Q-23.4 -3.35 -25.7 -7.05 -27.8 -10.5 -26.6 -15.2 M-24.7 -19.5 Q-23.8 -20.3 -22.15 -20.3 L-16.75 -20.15 Q-16.9 -15.8 -17.2 -11.5 L-18.8 -14.85 Q-19.75 -16.95 -20.85 -17.95 -22.65 -19.65 -24.7 -19.5 M-8.05 111.0 Q-9.55 112.5 -12.45 113.15 L-14.0 113.45 -13.9 113.4 -14.15 112.25 Q-14.25 111.7 -14.7 111.25 -15.25 110.7 -15.75 110.95 -29.7 118.3 -38.4 116.65 -39.9 116.45 -41.3 115.5 L-42.1 114.9 -41.7 114.15 Q-41.05 113.1 -39.65 111.95 L-37.2 110.2 Q-33.55 107.6 -29.15 105.2 -24.4 108.5 -17.75 108.7 -11.8 108.9 -5.85 106.65 -6.45 109.4 -8.05 111.0" fill="#ffffff" fill-rule="evenodd" stroke="none"/>
  </g>
</svg>
