<?xml version="1.0" encoding="UTF-8" standalone="no"?>
<svg xmlns:ffdec="https://www.free-decompiler.com/flash" xmlns:xlink="http://www.w3.org/1999/xlink" ffdec:objectType="shape" height="168.25px" width="103.45px" xmlns="http://www.w3.org/2000/svg">
  <g transform="matrix(1.0, 0.0, 0.0, 1.0, 34.85, 48.0)">
    <path d="M19.05 -47.05 Q21.85 -48.65 27.4 -47.5 35.85 -45.7 42.75 -35.25 49.5 -25.25 50.8 -11.85 51.75 -2.25 45.65 7.9 L43.0 11.75 42.95 11.8 Q40.45 15.0 37.85 17.35 L37.35 17.8 Q37.6 17.55 37.35 17.6 L36.55 17.7 Q32.5 17.8 28.9 16.6 23.95 15.1 21.05 7.75 L20.35 5.5 20.7 5.3 Q23.15 3.85 24.8 1.55 26.5 -0.8 27.05 -3.55 27.4 -5.2 27.25 -7.0 27.4 -7.4 27.15 -7.8 26.5 -13.15 21.85 -20.65 19.65 -24.2 18.1 -23.95 17.1 -23.9 17.6 -22.75 L13.5 -23.0 9.7 -23.55 6.0 -24.3 5.25 -24.35 4.9 -29.65 Q9.25 -29.9 13.1 -32.0 17.05 -34.2 18.55 -38.45 19.85 -42.25 19.05 -47.05 M3.5 -31.75 Q2.85 -31.75 2.85 -30.95 L3.25 -24.3 3.65 -23.6 2.65 -22.15 Q2.45 -20.85 2.05 -20.4 L0.7 -18.65 Q-1.2 -15.7 -0.75 -12.15 -0.3 -8.8 1.95 -6.25 L1.95 -6.15 1.4 7.9 Q1.05 13.6 7.4 14.95 L7.2 20.3 7.05 28.7 -1.1 28.75 -9.15 27.6 Q-12.35 26.85 -13.55 25.85 L-12.8 11.3 Q-11.25 12.1 -10.0 12.15 -8.5 12.25 -7.15 11.35 -6.0 10.55 -5.85 9.15 L-6.0 6.45 Q-6.55 -2.4 -6.55 -15.35 L-6.4 -30.35 Q-6.35 -31.55 -7.3 -32.65 L-9.1 -34.65 Q-9.95 -35.95 -10.0 -37.6 -10.05 -39.25 -9.3 -40.7 -7.0 -35.45 -0.3 -34.75 5.05 -34.2 10.15 -36.8 15.5 -39.5 17.3 -44.15 17.2 -36.75 11.1 -33.6 7.65 -31.85 3.5 -31.75 M19.9 -20.5 L20.2 -20.05 Q24.0 -14.4 25.0 -8.6 20.9 -8.15 14.35 -9.45 12.2 -9.9 11.25 -12.8 L10.0 -17.65 Q9.4 -19.4 8.0 -20.45 6.6 -21.5 4.95 -21.45 L5.3 -21.95 7.55 -22.05 9.9 -21.25 14.85 -20.65 19.9 -20.5 M3.8 -18.8 Q6.95 -20.45 8.45 -16.35 L10.7 -9.85 Q11.75 -8.45 13.45 -7.8 L16.85 -7.0 25.2 -6.4 Q25.2 -5.1 24.8 -3.65 L16.3 -4.4 Q15.2 -6.1 12.7 -7.05 L10.35 -6.85 Q9.3 -6.3 8.5 -5.2 3.3 -5.15 1.7 -10.15 0.15 -15.1 3.75 -18.75 L3.8 -18.8 M8.1 -3.1 L7.45 12.95 Q5.35 12.5 4.05 11.6 3.15 10.95 3.25 8.65 L3.6 5.35 3.9 -4.6 Q5.9 -3.3 8.1 -3.1 M14.85 -3.6 L14.4 1.55 Q13.5 12.5 13.15 21.25 12.95 27.5 13.15 31.8 13.5 37.5 14.65 42.2 15.7 46.45 18.2 50.9 L20.35 55.15 Q21.25 57.4 21.25 59.75 21.25 60.65 22.25 61.0 23.25 61.35 23.25 60.25 23.25 57.15 22.05 54.45 L22.15 54.35 Q27.9 47.5 29.1 42.5 30.2 37.95 29.65 31.35 L33.85 30.9 34.0 30.85 Q34.15 36.55 33.55 40.45 32.8 45.6 30.7 49.55 L26.6 56.95 Q24.5 61.25 24.1 65.0 L23.1 73.35 19.95 115.9 19.8 117.1 18.55 117.85 Q17.5 118.45 16.25 118.3 15.1 118.2 14.1 117.55 L14.15 117.05 Q14.55 109.05 15.85 96.05 L16.9 80.25 17.65 64.7 17.7 60.75 Q17.55 58.5 16.85 56.95 L14.3 52.6 Q12.5 49.85 11.8 48.2 9.25 42.1 8.95 33.25 L9.3 17.9 10.15 -3.5 11.3 -4.65 13.55 -4.75 Q14.9 -4.25 14.85 -3.6 M24.05 -1.65 Q22.25 1.95 18.65 3.75 18.2 4.0 18.25 4.5 L18.65 6.35 Q17.1 6.65 16.0 7.55 L16.8 -2.3 24.05 -1.65 M43.75 14.55 Q44.85 18.2 44.85 24.4 44.8 39.85 33.8 58.35 33.4 59.05 34.3 59.8 35.2 60.55 35.65 59.8 L37.65 56.25 Q38.25 62.55 36.15 67.95 33.9 73.7 28.95 77.35 27.7 78.25 24.95 78.45 L26.15 65.5 Q26.55 61.55 29.45 56.35 L34.15 47.75 Q35.7 44.2 36.05 38.85 L36.0 29.6 Q39.0 26.85 39.1 19.55 40.05 19.1 41.35 17.55 L43.1 15.4 43.75 14.55 M54.5 45.9 Q59.6 46.15 62.6 50.45 60.45 54.8 56.15 57.4 55.15 50.3 50.65 46.1 L54.5 45.9 M48.45 46.5 Q51.15 48.3 52.7 51.85 54.05 54.95 54.3 58.75 L54.35 59.0 54.25 62.3 Q53.65 68.55 49.15 73.5 45.25 77.8 38.95 80.6 50.25 70.3 49.25 58.55 48.75 52.4 45.25 47.5 L48.45 46.5 M43.65 48.2 Q46.65 52.2 47.25 58.05 48.0 64.95 43.6 71.7 40.1 77.05 33.5 82.0 28.95 82.35 26.05 80.5 28.9 80.3 30.35 79.3 36.05 75.3 38.4 68.3 40.6 61.85 39.4 54.55 L38.95 53.8 41.35 48.75 42.4 48.85 43.65 48.2 M22.15 24.55 Q21.45 27.25 19.6 29.0 17.55 30.9 15.05 30.65 L15.0 27.25 Q17.3 24.3 18.15 22.45 19.6 19.3 18.3 17.0 17.35 15.3 15.55 14.5 L15.7 12.5 16.0 12.0 Q16.2 10.65 17.1 9.75 18.0 8.8 19.35 8.5 21.65 14.65 25.8 17.15 30.15 19.85 37.05 19.85 36.75 27.55 32.15 29.05 L29.05 29.25 30.3 25.65 Q30.5 24.85 29.5 24.25 28.5 23.65 28.3 24.6 26.8 30.9 23.0 30.9 L21.35 30.6 Q23.35 28.6 24.15 25.6 24.35 24.8 23.4 24.2 22.4 23.6 22.15 24.55 M15.1 23.1 L15.45 16.45 Q18.45 17.65 15.1 23.1 M15.15 32.7 Q17.6 33.05 19.7 31.85 21.8 33.05 24.0 33.05 26.2 33.0 27.65 31.3 27.95 35.7 27.35 40.05 26.95 43.1 25.0 46.5 23.55 48.95 20.9 52.15 L20.75 51.85 Q17.2 45.55 16.1 40.1 15.4 36.6 15.15 32.7 M2.55 44.9 Q1.05 53.5 2.45 61.25 4.15 70.35 9.65 75.55 L10.0 75.8 Q8.8 81.7 8.35 89.6 L7.95 103.55 8.0 106.2 Q2.2 108.75 -3.45 109.05 -10.1 109.45 -14.8 106.5 L-16.2 105.65 Q-16.9 99.25 -16.9 86.2 -16.95 69.1 -15.3 45.2 L-15.25 45.2 Q-15.1 44.85 -15.25 44.45 L-14.75 38.0 -13.75 27.8 Q-12.3 28.75 -9.85 29.4 -3.55 31.3 7.05 30.85 7.25 43.5 11.5 51.55 12.15 52.8 13.9 55.25 15.4 57.5 15.55 59.2 15.8 62.45 15.65 66.75 L15.3 74.3 15.15 76.9 Q12.0 75.55 9.75 73.25 5.35 68.6 4.15 60.3 3.2 53.45 4.55 45.9 4.7 45.1 3.7 44.5 2.75 43.95 2.55 44.9 M38.65 83.25 L41.7 81.95 49.25 82.35 49.35 82.35 Q54.65 82.0 59.65 79.95 64.65 77.9 68.6 74.5 L68.45 77.4 68.15 79.9 Q62.1 85.4 54.85 87.4 46.55 89.65 39.9 86.2 L38.65 83.25 M65.75 56.85 L65.7 57.1 Q65.0 64.15 59.85 70.65 55.2 76.5 48.45 80.2 L48.4 80.25 44.7 80.25 Q49.75 77.1 52.7 72.75 55.95 68.0 56.35 62.25 L56.4 59.95 Q61.4 57.45 64.0 52.8 L65.75 56.85 M67.15 61.25 Q68.4 66.4 68.55 71.25 62.8 77.05 54.2 79.3 59.0 75.8 62.25 71.35 65.85 66.5 67.15 61.25 M47.0 93.85 Q44.0 92.2 41.65 89.0 47.8 91.4 54.95 89.7 61.4 88.15 67.2 83.75 65.65 88.55 62.5 91.5 59.05 94.75 54.0 95.3 50.35 95.7 47.0 93.85 M0.95 116.5 L0.45 114.9 -0.15 114.1 Q-0.7 113.7 -1.1 113.9 -7.25 117.15 -12.0 118.65 -18.6 120.8 -23.65 120.1 -25.3 119.85 -26.4 119.25 -28.0 118.4 -27.4 117.1 -26.85 116.0 -25.4 114.85 L-22.95 113.1 Q-19.3 110.65 -14.65 108.6 -9.85 111.4 -3.3 111.2 2.35 111.0 8.2 108.65 L8.8 112.4 Q8.9 113.0 4.85 115.1 3.1 115.95 0.95 116.5 M-15.95 -45.4 Q-13.75 -43.45 -11.2 -42.05 -12.6 -39.4 -11.6 -36.3 -10.75 -33.6 -8.4 -31.3 L-8.55 -13.45 Q-8.55 -5.15 -8.2 2.15 L-8.05 5.25 -7.8 6.9 Q-7.6 8.15 -7.75 8.4 -8.45 9.9 -10.0 10.0 -11.25 10.1 -12.8 9.3 -12.85 -0.6 -14.2 -17.9 L-14.9 -25.6 Q-14.5 -25.8 -14.6 -26.35 -14.65 -26.9 -15.05 -27.3 L-15.6 -32.45 Q-15.7 -33.3 -16.75 -33.65 -17.75 -34.0 -17.6 -32.95 L-17.05 -27.8 -20.85 -28.4 Q-21.0 -33.65 -20.1 -37.8 -18.85 -43.45 -15.95 -45.4 M-30.55 -27.7 Q-29.95 -28.7 -28.4 -28.25 L-26.05 -27.3 -21.55 -26.3 -16.85 -25.75 -15.85 -13.6 -15.9 -13.6 -19.1 -13.95 -22.15 -15.0 Q-24.2 -15.65 -24.9 -18.65 L-25.75 -23.6 Q-26.25 -25.35 -27.55 -26.5 -28.85 -27.6 -30.55 -27.7 M-31.85 -25.15 Q-28.65 -26.55 -27.45 -22.5 L-25.85 -15.85 Q-25.2 -14.55 -23.75 -13.75 -22.8 -13.2 -20.95 -12.6 L-18.35 -11.8 -15.7 -11.45 -15.5 -8.4 -20.5 -9.65 Q-21.6 -11.65 -23.75 -12.6 L-26.25 -12.7 Q-27.4 -12.25 -28.35 -11.2 -33.5 -11.55 -34.6 -16.65 -35.65 -21.65 -31.95 -25.05 L-31.85 -25.15 M-23.1 -3.4 Q-24.8 6.9 -25.9 15.6 -27.4 28.55 -26.15 36.35 -25.45 40.8 -23.4 45.25 -21.85 48.65 -21.55 49.7 -20.8 52.05 -21.0 54.4 -21.05 55.2 -20.05 55.8 -19.05 56.35 -19.0 55.4 -18.65 51.65 -20.2 48.0 L-17.45 47.25 -18.1 58.15 -18.3 58.55 Q-20.45 68.75 -22.8 83.55 L-26.7 108.6 -27.1 111.35 -27.2 111.8 -28.7 112.35 -30.45 112.6 Q-31.5 112.65 -32.85 111.6 L-32.5 108.95 -30.7 97.5 -27.5 78.75 Q-25.85 68.35 -25.0 59.95 L-24.65 56.55 Q-24.5 54.55 -24.65 53.15 -24.75 52.05 -25.45 50.65 L-26.7 48.35 Q-31.9 38.85 -30.8 25.4 -30.0 15.85 -26.75 -9.45 L-25.25 -10.6 Q-24.45 -10.95 -23.25 -10.35 -22.05 -9.7 -22.2 -8.85 L-23.1 -3.4 M-15.35 -6.35 Q-14.85 1.35 -14.8 8.05 -19.05 7.55 -22.7 8.05 L-20.25 -7.6 -15.35 -6.35 M-19.9 19.8 Q-21.0 16.95 -20.15 13.6 -19.95 12.8 -20.9 12.25 -21.9 11.65 -22.15 12.6 -22.9 15.65 -22.05 18.9 -22.85 19.65 -24.3 19.65 L-23.05 10.25 -22.8 10.25 Q-18.8 9.65 -14.8 10.1 -14.8 16.95 -15.45 23.25 -18.65 23.1 -19.9 19.8 M-21.15 21.2 Q-19.95 23.5 -18.0 24.55 -18.75 25.7 -19.85 26.55 -20.85 27.3 -22.4 26.95 -24.0 26.6 -24.35 25.45 L-24.7 24.9 -24.5 21.7 Q-22.55 21.95 -21.15 21.2 M-15.65 25.3 L-16.15 29.7 Q-16.45 29.35 -16.9 29.35 L-19.6 29.05 Q-17.35 28.4 -15.75 25.3 L-15.65 25.3" fill="#ffffff" fill-rule="evenodd" stroke="none"/>
  </g>
</svg>
