<?xml version="1.0" encoding="UTF-8" standalone="no"?>
<svg xmlns:ffdec="https://www.free-decompiler.com/flash" xmlns:xlink="http://www.w3.org/1999/xlink" ffdec:objectType="shape" height="164.4px" width="102.0px" xmlns="http://www.w3.org/2000/svg">
  <g transform="matrix(1.0, 0.0, 0.0, 1.0, 43.15, 44.5)">
    <path d="M-26.4 17.35 L-26.5 19.05 Q-26.55 20.15 -27.15 21.6 L-28.3 23.65 -25.1 27.8 Q-22.35 31.55 -23.0 32.2 -24.0 33.2 -26.0 31.4 L-28.35 29.1 Q-28.55 29.0 -28.5 29.15 L-28.65 29.15 Q-28.7 29.45 -26.75 32.35 -24.95 34.95 -25.9 35.9 -26.75 36.75 -28.25 35.9 L-30.45 34.2 -30.35 34.1 Q-29.25 33.2 -29.5 30.95 -29.65 29.75 -30.5 26.65 L-31.55 22.55 Q-29.25 21.25 -29.35 17.0 L-26.4 17.35 M-32.65 15.95 L-31.1 16.5 Q-30.9 18.8 -31.95 20.15 L-33.1 21.05 -33.9 21.4 -32.45 27.2 Q-31.05 32.1 -31.6 32.55 -32.0 32.8 -33.6 32.05 -36.95 30.4 -38.1 24.75 -38.5 22.95 -38.7 18.65 -38.75 17.9 -39.6 17.9 -40.45 17.95 -40.7 18.6 -41.3 20.35 -40.1 25.35 -38.55 31.8 -34.45 33.85 -32.25 34.95 -30.95 34.45 L-30.75 34.85 -29.45 37.0 Q-29.1 37.35 -29.2 38.05 -29.25 38.75 -29.75 39.1 L-31.9 39.15 Q-33.1 38.75 -34.4 37.85 L-35.5 37.1 -36.4 36.15 Q-42.6 29.3 -43.1 22.6 -43.55 16.95 -39.35 8.15 -37.35 14.0 -32.65 15.95 M-15.55 -33.55 L-15.35 -32.25 Q-14.35 -28.25 -7.8 -26.0 -7.65 -25.1 -8.75 -19.3 -10.05 -12.35 -10.05 -9.9 -10.05 -3.3 -8.85 8.1 -8.25 14.65 -8.35 15.55 -13.0 15.4 -16.6 11.8 L-16.65 10.45 Q-16.9 6.85 -18.65 -0.6 L-20.85 -9.95 -23.2 -11.65 -21.3 -3.35 Q-19.85 2.4 -19.35 4.95 -23.1 9.85 -25.9 15.1 -27.55 15.75 -32.15 13.85 -36.65 12.0 -37.85 4.8 -37.9 4.05 -37.3 2.65 L-37.15 2.25 Q-35.0 -3.35 -31.7 -9.7 -26.3 -20.1 -19.85 -28.5 L-15.55 -33.55 M21.55 106.6 L21.5 107.35 Q21.4 108.75 18.75 110.35 16.05 111.95 15.65 110.5 L14.95 109.65 13.9 109.6 9.3 114.35 Q6.65 116.65 3.7 117.8 -0.7 119.5 -6.35 119.85 -10.9 120.2 -11.65 118.7 -12.4 117.05 -9.45 114.15 L-5.2 110.6 0.4 106.6 0.6 106.45 0.9 106.6 Q5.7 108.9 11.1 107.45 L13.55 106.6 Q17.2 105.0 20.15 101.8 21.45 104.45 21.55 106.6 M32.65 59.5 Q33.8 58.55 34.8 60.0 L35.95 62.55 Q37.4 67.2 36.75 67.5 L35.4 67.95 34.05 68.4 Q32.9 69.1 33.3 70.6 33.5 71.4 34.45 72.95 L35.75 74.75 Q36.5 75.85 36.65 76.7 36.85 78.1 36.7 80.2 L36.4 83.65 Q35.95 88.8 34.55 92.3 33.5 95.0 32.0 95.75 28.8 97.35 25.85 86.1 30.05 72.45 32.65 59.5 M2.5 37.4 Q1.5 36.85 1.35 37.8 -0.95 51.5 -1.45 68.35 -9.3 60.15 -13.4 47.5 -17.1 36.0 -16.9 23.6 -13.95 25.95 -9.15 28.15 0.2 32.45 11.7 31.7 23.25 30.9 31.95 25.35 L34.25 23.75 Q34.25 29.65 33.9 34.75 L33.9 34.95 Q31.9 35.9 31.8 37.35 31.65 38.5 32.65 39.35 L33.45 39.85 Q31.25 61.3 23.65 85.85 L20.3 96.05 19.7 97.65 19.3 99.15 Q15.75 103.4 11.05 105.1 5.85 106.9 1.2 104.75 -1.55 68.25 3.35 38.8 3.45 38.0 2.5 37.4 M41.25 31.3 Q43.85 32.7 49.05 31.7 52.0 31.15 54.45 28.9 56.45 27.05 57.8 24.4 58.75 27.2 58.8 29.5 59.1 36.55 57.05 41.95 56.15 44.45 54.3 44.45 L55.15 40.85 Q56.05 37.05 55.35 36.2 55.1 35.85 53.55 41.95 51.5 48.4 48.65 49.1 L48.1 49.1 47.9 49.0 49.25 43.55 Q50.55 38.2 49.5 37.75 L48.0 42.65 45.85 49.4 Q43.45 54.5 42.0 53.85 41.4 53.6 41.6 51.4 L42.15 47.75 42.35 46.85 43.85 37.5 43.8 37.0 Q43.7 36.75 41.75 37.5 L38.15 38.75 34.7 38.9 Q33.25 38.5 33.8 37.5 L34.2 37.05 35.15 36.55 Q37.4 35.5 39.0 34.15 40.3 33.1 41.25 31.3 M27.25 -39.0 Q31.3 -35.5 33.9 -32.3 41.2 -23.4 45.6 -14.4 50.25 -4.85 53.4 6.4 55.35 13.5 56.25 19.25 L56.35 19.65 56.4 21.9 Q55.65 24.05 54.35 25.8 52.05 29.0 49.0 29.55 44.2 30.5 42.6 29.55 42.0 27.0 40.25 22.7 38.3 17.8 33.3 10.15 30.6 6.0 21.0 -2.9 L20.0 -1.95 20.7 -1.25 Q27.4 5.5 31.25 11.4 28.55 13.15 24.4 14.5 18.1 16.6 10.0 17.15 8.4 14.05 7.65 -1.15 6.8 -17.3 8.85 -22.35 9.4 -23.55 9.8 -23.65 14.1 -24.0 18.45 -26.4 22.8 -28.85 25.2 -32.25 27.55 -35.5 27.25 -39.0 M24.9 -36.6 Q24.35 -34.5 23.6 -33.4 21.45 -30.35 17.45 -28.15 13.45 -25.95 9.6 -25.6 5.75 -25.15 5.4 -11.65 5.2 -3.75 6.1 5.55 6.85 14.05 7.9 17.2 8.6 19.2 9.55 19.2 L9.75 19.2 Q18.3 18.65 24.95 16.45 29.35 15.05 32.35 13.1 L33.55 15.1 Q33.6 16.9 33.95 19.05 34.25 20.75 32.15 22.4 L28.4 24.7 Q24.2 27.0 17.25 28.45 3.6 31.25 -7.5 26.85 -12.95 24.7 -16.85 21.45 L-16.6 14.65 Q-13.0 17.55 -7.9 17.6 -7.35 17.6 -6.9 17.15 -6.3 16.5 -6.35 14.5 -6.35 12.95 -6.9 7.9 -8.05 -2.9 -8.05 -9.9 -8.05 -12.45 -6.8 -18.9 -5.9 -23.65 -5.8 -25.15 -5.7 -27.15 -6.7 -27.7 L-6.85 -27.8 Q-12.7 -29.7 -13.45 -32.7 -13.85 -34.55 -12.45 -36.7 L-10.45 -38.55 Q-8.45 -37.45 -6.15 -36.6 -4.8 -33.9 -2.05 -32.5 0.4 -31.2 3.65 -31.2 9.65 -31.2 14.75 -34.9 20.15 -38.9 20.55 -44.5 L25.25 -40.75 Q25.45 -38.95 24.9 -36.6" fill="#ffffff" fill-rule="evenodd" stroke="none"/>
  </g>
</svg>
