<?xml version="1.0" encoding="UTF-8" standalone="no"?>
<svg xmlns:ffdec="https://www.free-decompiler.com/flash" xmlns:xlink="http://www.w3.org/1999/xlink" ffdec:objectType="shape" height="161.85px" width="86.95px" xmlns="http://www.w3.org/2000/svg">
  <g transform="matrix(1.0, 0.0, 0.0, 1.0, 36.2, 48.0)">
    <path d="M-33.0 17.9 Q-33.85 18.05 -34.0 18.7 -34.3 20.55 -32.4 25.3 -29.9 31.45 -25.5 32.85 L-22.05 32.95 -22.15 37.65 Q-23.45 37.5 -24.85 36.8 L-26.05 36.2 -27.05 35.45 Q-29.7 33.35 -31.75 30.8 -34.9 26.95 -35.8 23.05 -37.05 17.6 -34.25 8.2 -31.35 13.65 -26.45 14.85 L-24.8 15.2 Q-24.25 17.4 -25.15 18.95 L-26.1 20.0 -26.85 20.45 -24.55 25.95 Q-22.35 30.5 -22.9 31.15 L-24.9 30.9 Q-28.45 29.8 -30.5 24.4 -31.25 22.45 -32.0 18.45 -32.15 17.75 -33.0 17.9 M-19.9 15.25 L-19.85 17.25 Q-21.05 22.65 -21.6 27.65 L-24.35 21.25 Q-22.25 19.65 -23.0 15.45 L-19.9 15.25 M-16.8 -36.55 L-16.7 -36.15 Q-15.95 -32.25 -9.35 -29.95 -9.2 -28.95 -10.35 -23.25 -11.7 -16.75 -11.75 -13.9 -11.8 -7.35 -10.7 4.1 -10.1 10.45 -10.25 11.6 -15.1 11.35 -17.5 8.8 L-17.6 6.45 Q-17.8 2.95 -19.55 -4.6 L-21.1 -10.85 -22.4 -17.0 -23.55 -12.95 -21.55 -4.7 Q-20.3 0.3 -19.85 3.5 -19.25 7.45 -19.5 12.55 L-19.5 11.95 -19.9 13.05 -26.3 12.7 Q-29.3 12.0 -31.4 8.7 -32.6 6.85 -33.25 4.65 -33.45 4.0 -33.05 2.45 L-32.95 2.05 Q-31.8 -3.5 -29.5 -10.3 -25.9 -21.05 -20.95 -30.2 -19.35 -33.2 -16.8 -36.55 M35.75 78.3 Q35.9 84.3 31.9 83.4 L33.9 68.25 Q35.65 74.35 35.75 78.3 M28.85 95.75 L29.45 97.15 Q31.15 101.35 29.15 103.35 28.5 104.0 26.75 104.65 24.65 105.45 24.35 104.45 24.2 104.0 23.65 103.6 L22.6 103.55 19.8 106.55 18.0 108.3 Q15.35 110.6 12.4 111.75 8.1 113.45 2.4 113.8 -2.2 114.15 -2.9 112.65 -3.65 111.0 -0.75 108.05 L1.0 106.55 3.5 104.5 Q6.1 102.45 9.35 100.4 14.3 102.9 19.8 101.4 24.95 100.0 28.85 95.75 M1.9 31.05 Q2.0 30.25 1.05 29.65 0.05 29.1 -0.1 30.05 -2.7 46.1 0.55 67.25 -15.2 67.3 -19.05 49.75 -21.9 36.85 -18.1 19.4 -15.25 21.7 -10.1 24.15 -0.9 28.4 10.5 27.7 21.85 26.95 30.55 21.6 L32.0 27.25 Q30.85 29.15 29.4 30.15 27.8 31.15 25.7 31.9 L24.0 32.65 Q23.15 33.2 23.0 34.15 22.75 35.35 23.6 36.25 25.35 38.25 30.25 37.6 L32.45 37.25 30.5 44.2 30.25 45.05 Q29.15 48.45 29.0 50.0 28.8 52.6 30.3 53.45 L32.95 53.6 Q31.95 70.9 29.0 87.65 L28.25 90.35 Q27.7 92.3 27.8 93.35 24.2 97.55 19.55 99.1 14.35 100.85 9.7 98.6 6.7 89.55 4.1 76.7 -1.2 50.3 1.9 31.05 M44.55 43.75 L45.8 40.25 Q47.15 36.6 46.55 35.7 L44.1 41.2 Q41.3 47.35 38.45 47.75 L37.9 47.65 37.7 47.55 39.65 42.3 Q41.55 37.1 40.55 36.55 L38.45 41.25 Q36.3 46.6 35.6 47.75 L33.5 50.6 Q33.2 50.65 33.15 51.05 32.0 52.15 31.3 51.75 30.45 51.2 32.15 45.65 L32.4 44.8 34.05 39.15 34.95 35.7 34.95 35.15 Q34.9 34.95 32.85 35.5 L29.15 36.3 25.75 36.0 Q24.35 35.45 24.95 34.55 L25.45 34.15 26.4 33.75 Q28.75 32.9 30.5 31.8 L33.05 29.25 Q35.45 30.9 40.75 30.5 46.35 30.1 50.3 24.2 50.9 27.2 50.7 29.4 50.25 36.3 47.6 41.6 46.8 43.15 45.7 43.6 L44.55 43.75 M24.1 -36.5 Q25.9 -39.25 25.9 -42.05 30.45 -37.35 33.0 -33.8 38.8 -25.9 42.45 -15.7 46.0 -5.7 47.85 5.85 49.0 13.0 49.3 18.9 L49.35 19.35 Q49.45 20.95 49.15 21.55 48.3 23.45 46.65 25.25 44.0 28.15 40.95 28.35 36.2 28.75 34.6 27.6 34.1 24.5 33.0 20.55 27.6 6.15 18.1 -5.3 L17.05 -4.4 Q22.25 2.25 25.35 8.35 L25.7 9.0 Q19.3 12.7 8.1 13.35 6.5 10.25 5.85 -4.95 5.2 -21.1 7.3 -26.15 7.85 -27.35 8.25 -27.45 12.6 -27.75 17.2 -30.4 21.8 -33.0 24.1 -36.5 M22.95 -44.95 Q24.9 -41.35 22.45 -37.6 20.4 -34.5 16.15 -32.1 11.95 -29.7 8.05 -29.45 4.25 -29.05 3.75 -15.75 3.45 -8.1 4.2 1.25 4.95 10.1 6.0 13.35 6.65 15.4 7.6 15.4 L7.75 15.4 Q19.75 14.8 26.55 10.8 28.35 14.8 29.85 19.3 22.6 24.5 8.85 25.4 1.6 25.9 -5.25 24.0 -12.55 21.9 -17.8 17.45 L-17.5 11.5 Q-14.6 13.55 -9.85 13.6 L-9.8 13.6 Q-9.25 13.6 -8.8 13.15 -8.2 12.5 -8.25 10.5 -8.25 9.0 -8.75 3.9 -9.8 -6.95 -9.75 -13.9 -9.7 -16.25 -8.4 -22.85 -7.45 -27.65 -7.35 -29.1 -7.2 -31.15 -8.2 -31.7 L-8.4 -31.75 Q-14.2 -33.75 -14.75 -36.55 -15.1 -38.2 -13.65 -40.1 L-12.15 -41.5 Q-10.0 -40.15 -7.15 -39.15 -5.8 -36.45 -3.1 -35.05 -0.6 -33.75 2.65 -33.75 8.95 -33.75 14.1 -37.75 19.65 -42.05 19.55 -48.0 L22.95 -44.95" fill="#ffffff" fill-rule="evenodd" stroke="none"/>
  </g>
</svg>
