<?xml version="1.0" encoding="UTF-8" standalone="no"?>
<svg xmlns:ffdec="https://www.free-decompiler.com/flash" xmlns:xlink="http://www.w3.org/1999/xlink" ffdec:objectType="shape" height="156.9px" width="60.6px" xmlns="http://www.w3.org/2000/svg">
  <g transform="matrix(1.0, 0.0, 0.0, 1.0, 22.35, 45.5)">
    <path d="M-16.05 -34.45 Q-14.35 -32.0 -10.2 -30.15 -10.1 -29.2 -11.75 -23.55 -13.65 -17.05 -13.9 -14.35 -14.5 -7.85 -14.4 3.7 -14.3 9.9 -14.6 11.2 L-17.05 10.65 -17.05 9.7 Q-17.3 6.25 -19.05 -1.35 L-22.0 -14.7 Q-23.05 -22.2 -20.9 -28.0 L-20.4 -29.3 Q-19.15 -31.65 -16.05 -34.45 M18.05 97.55 L18.85 96.5 Q21.8 98.05 25.6 97.25 29.15 96.5 31.7 94.15 35.15 90.9 36.65 84.9 38.35 87.6 38.25 90.0 38.2 91.55 37.85 91.8 L36.25 92.1 Q35.15 92.3 35.05 93.9 L35.15 96.3 Q35.35 99.3 29.8 105.3 L28.6 106.5 Q25.15 109.65 20.6 110.9 L15.95 111.35 Q12.9 111.1 12.75 109.1 12.65 107.95 13.15 106.5 L13.45 105.7 15.0 102.5 Q16.2 100.25 18.05 97.55 M7.85 72.0 L8.75 74.1 Q9.2 88.2 2.9 92.8 -0.4 95.25 -2.65 92.5 -4.0 90.9 -5.35 86.5 -6.4 83.0 -7.25 78.55 -3.3 80.25 1.15 77.9 4.7 76.0 7.85 72.0 M14.95 30.5 L14.85 31.6 Q13.05 33.15 11.5 33.55 L7.45 34.1 5.55 34.35 Q4.6 34.6 4.15 35.45 3.55 36.5 4.1 37.65 5.2 40.0 10.0 40.95 L12.25 41.3 7.75 48.05 Q5.65 50.95 5.05 52.4 4.05 54.75 5.2 56.1 7.55 58.6 13.05 54.5 L14.05 55.0 Q16.65 55.75 21.0 53.05 L23.6 53.25 Q25.35 52.9 26.75 51.45 31.15 47.0 33.85 40.15 35.0 37.25 35.3 33.4 35.65 43.3 34.35 49.9 32.6 58.7 27.6 64.4 L27.05 67.9 27.75 67.75 30.7 64.9 Q33.0 62.5 34.05 60.65 35.45 65.35 35.85 71.65 36.0 74.3 35.65 78.65 L35.3 80.25 Q35.05 81.4 35.1 82.0 34.3 86.5 31.7 90.4 29.8 93.35 26.05 94.85 21.95 96.4 19.0 94.6 L14.0 82.05 10.75 74.45 10.45 73.8 8.95 70.35 8.6 69.5 Q5.45 62.1 3.9 56.6 1.15 47.35 0.4 38.45 0.3 37.6 -0.7 37.25 -1.7 36.9 -1.6 37.95 -0.95 45.65 1.4 54.1 3.3 60.85 6.8 69.5 3.5 74.0 -0.65 76.05 -5.9 78.6 -9.15 74.9 -15.65 67.55 -17.75 52.6 -19.85 38.1 -17.55 22.7 -14.3 25.3 -9.55 27.4 -4.2 29.9 2.25 30.7 8.55 31.45 14.95 30.5 M12.0 35.5 Q13.4 35.15 15.25 33.85 17.1 36.15 22.2 37.4 27.65 38.75 33.2 34.3 32.95 37.15 32.0 39.4 29.45 45.85 25.3 50.05 23.4 51.95 21.75 51.15 L24.0 48.25 Q26.4 45.15 26.1 44.1 L22.1 48.6 Q17.6 53.6 14.75 53.1 L14.2 52.85 14.05 52.7 17.55 48.3 Q20.95 43.9 20.15 43.1 L16.75 46.95 12.05 52.25 Q7.75 55.9 6.7 54.75 6.0 54.0 9.35 49.2 L9.9 48.45 15.1 40.55 15.25 40.05 13.15 39.7 9.4 39.4 Q7.35 39.0 6.2 38.1 5.0 37.1 5.9 36.45 L6.5 36.2 7.5 36.1 12.0 35.5 M25.95 -40.4 Q30.0 -36.9 31.9 -33.8 35.65 -27.6 37.0 -18.65 37.65 -14.5 37.9 -6.1 38.25 4.5 36.5 16.1 35.4 23.2 33.85 28.95 L33.75 29.4 Q33.45 30.8 32.95 31.45 27.85 36.55 23.05 35.45 18.45 34.3 17.2 32.8 17.95 28.2 17.85 25.6 17.5 15.45 15.3 7.4 14.05 2.75 11.3 -3.65 L10.35 -2.8 Q13.25 5.2 14.3 11.6 L14.6 13.7 3.55 14.5 Q2.25 11.25 2.85 -3.95 3.5 -20.1 6.05 -24.95 6.75 -26.15 7.15 -26.15 L7.35 -26.15 Q11.7 -26.15 16.4 -28.35 21.15 -30.6 23.7 -33.85 26.2 -37.0 25.95 -40.4 M23.95 -42.0 Q24.05 -40.25 23.6 -38.35 23.05 -36.25 22.15 -35.1 19.85 -32.2 15.55 -30.2 11.2 -28.15 7.3 -28.15 L7.1 -28.15 Q3.25 -28.05 1.65 -14.85 0.7 -7.1 0.7 2.15 0.65 11.45 1.5 14.65 2.0 16.45 3.05 16.5 L5.3 16.5 14.8 15.7 Q15.4 21.7 15.1 28.15 7.2 29.5 0.0 28.35 -4.65 27.65 -9.1 25.7 -13.75 23.7 -17.25 20.7 -16.95 15.4 -17.0 12.75 L-14.35 13.25 -14.2 13.25 -13.3 12.9 Q-12.65 12.3 -12.45 10.3 -12.35 8.8 -12.4 3.65 -12.5 -7.8 -11.9 -14.15 -11.7 -16.7 -9.8 -23.0 -8.45 -27.65 -8.25 -29.1 -8.0 -31.1 -8.9 -31.75 L-9.05 -31.85 Q-13.25 -33.7 -14.5 -35.75 L-11.3 -38.4 Q-9.65 -37.55 -7.65 -36.85 -6.3 -34.1 -3.55 -32.7 -1.1 -31.45 2.15 -31.45 8.4 -31.45 13.55 -35.4 19.1 -39.6 19.1 -45.5 L23.95 -42.0" fill="#ffffff" fill-rule="evenodd" stroke="none"/>
  </g>
</svg>
