<?xml version="1.0" encoding="UTF-8" standalone="no"?>
<svg xmlns:ffdec="https://www.free-decompiler.com/flash" xmlns:xlink="http://www.w3.org/1999/xlink" ffdec:objectType="shape" height="150.6px" width="90.0px" xmlns="http://www.w3.org/2000/svg">
  <g transform="matrix(1.0, 0.0, 0.0, 1.0, 44.25, 41.75)">
    <path d="M-19.35 108.0 L-19.4 108.15 -20.5 108.6 Q-22.6 109.35 -25.35 108.0 L-27.85 106.5 -29.6 105.2 -31.0 104.1 -20.6 99.35 -20.45 99.2 Q-18.15 103.75 -18.7 106.5 -18.9 107.35 -19.35 108.0 M-21.55 94.15 Q-24.5 89.2 -28.2 84.5 -23.1 86.2 -18.5 91.45 -14.85 95.65 -11.95 101.55 -14.45 104.7 -16.6 106.35 -16.5 103.65 -18.35 99.75 L-21.55 94.15 M-44.05 84.55 Q-44.7 81.55 -43.2 79.6 -41.6 77.55 -38.5 78.4 -35.2 79.3 -31.2 83.4 -27.65 87.7 -24.2 93.1 L-21.55 97.25 -21.8 97.3 -32.9 102.4 Q-37.0 98.55 -39.85 94.1 -43.05 89.2 -44.05 84.55 M-22.5 -10.3 Q-23.5 -18.15 -20.85 -24.3 -19.7 -26.45 -16.75 -29.2 -15.15 -26.55 -10.7 -24.55 -10.6 -23.6 -12.25 -17.95 -14.15 -11.45 -14.4 -8.75 -15.0 -2.3 -14.9 9.3 -14.8 15.5 -15.1 16.8 L-17.45 16.25 -17.5 14.7 Q-17.75 10.95 -19.45 3.65 L-22.5 -10.3 M25.95 91.9 Q28.65 93.6 32.4 93.1 35.8 92.65 38.5 90.7 42.45 87.9 44.5 81.3 46.0 84.05 45.7 86.65 L45.4 88.25 Q45.15 88.6 44.2 88.55 43.55 88.5 43.05 88.85 42.5 89.2 42.35 89.85 L42.1 92.5 Q42.0 94.05 41.35 95.15 38.8 99.25 35.5 102.15 32.65 104.75 28.6 106.0 L26.65 106.5 24.0 106.75 21.55 106.5 Q20.35 106.25 19.55 105.65 17.45 104.15 22.4 96.75 23.85 94.4 25.95 91.9 M31.1 29.6 L34.1 27.4 Q37.0 38.7 36.55 46.7 35.95 57.1 29.8 64.15 L29.1 67.9 29.7 67.75 33.4 64.1 Q36.2 61.0 36.75 58.95 40.3 62.2 42.1 66.65 44.05 71.25 43.55 75.85 L43.15 78.15 43.05 78.4 Q41.85 83.3 38.85 87.05 36.65 89.8 32.8 90.85 28.6 92.0 25.9 89.8 18.95 83.35 14.05 75.1 9.25 66.95 6.9 57.8 8.75 58.0 10.55 56.85 15.8 53.65 20.2 47.6 22.4 44.45 23.45 40.35 L23.5 40.35 24.5 39.3 25.25 38.25 28.95 30.85 Q30.05 30.25 31.1 29.6 M3.6 37.0 Q4.8 39.75 9.5 42.15 14.5 44.7 20.9 41.8 19.95 44.55 18.55 46.45 14.5 52.15 9.5 55.15 8.0 56.05 6.85 55.9 6.15 55.75 5.8 55.4 L8.65 53.1 Q11.75 50.65 11.7 49.6 L6.75 53.0 Q1.15 56.75 -1.5 55.6 L-1.95 55.25 -2.05 55.05 2.4 51.6 Q6.75 48.15 6.15 47.15 L1.95 50.1 -3.9 54.1 Q-8.95 56.65 -9.7 55.25 -10.0 54.65 -8.5 53.05 L-5.8 50.5 -5.1 49.95 1.85 43.5 2.1 43.05 Q2.2 42.85 0.15 42.2 L-3.4 41.0 Q-5.3 40.1 -6.15 38.95 -7.1 37.75 -6.1 37.3 L-5.45 37.2 -4.45 37.4 0.1 37.85 Q1.8 37.8 3.6 37.0 M1.55 35.65 L0.05 35.85 -4.0 35.45 -5.9 35.2 Q-6.9 35.25 -7.55 35.95 -8.4 36.8 -8.15 38.05 -7.6 40.6 -3.2 42.65 L-1.1 43.55 -6.4 48.4 -7.1 49.0 -10.7 52.6 Q-12.25 54.65 -11.45 56.2 -9.85 59.3 -3.45 56.55 L-2.6 57.3 4.6 57.05 4.85 57.2 Q5.8 60.85 7.0 64.15 L6.75 64.45 Q3.0 74.95 -0.7 82.8 -5.3 92.45 -10.7 99.85 L-10.8 100.0 Q-13.95 93.8 -18.15 89.35 -23.15 84.0 -28.7 82.3 -27.25 80.1 -26.05 76.9 L-24.3 71.15 Q-22.3 63.75 -20.55 52.05 -18.75 40.0 -17.85 27.8 -14.7 30.2 -10.0 32.4 -4.85 34.8 1.55 35.65 M32.85 21.4 L32.9 22.0 33.35 24.45 Q33.45 25.15 30.6 27.05 L32.85 21.4 M43.45 24.55 Q44.1 24.95 44.15 25.55 44.35 27.25 40.85 29.1 L39.7 29.7 36.7 30.4 34.8 20.8 Q34.65 18.9 34.75 16.45 L34.75 16.35 Q40.95 15.35 41.25 16.35 41.7 17.7 39.15 18.6 36.35 19.35 36.0 19.6 36.2 19.75 35.9 19.85 L39.7 19.7 Q42.85 19.4 43.15 20.65 43.55 22.3 40.7 23.3 L36.75 24.35 36.8 24.9 39.95 24.4 41.5 24.4 42.45 24.3 Q42.9 24.2 43.45 24.55 M22.5 -39.4 Q23.65 -36.5 23.3 -33.65 22.95 -31.2 21.65 -29.5 19.35 -26.6 15.05 -24.6 10.7 -22.55 6.8 -22.55 L6.6 -22.55 Q2.8 -22.45 1.15 -9.25 0.3 -2.1 0.2 7.7 0.15 17.05 1.0 20.25 1.5 22.05 2.55 22.05 L7.1 22.05 Q5.95 28.35 4.1 33.75 -1.85 33.55 -7.45 31.55 -13.4 29.4 -17.7 25.7 L-17.4 18.35 -14.85 18.8 -14.7 18.85 Q-14.2 18.85 -13.8 18.45 -13.15 17.85 -12.95 15.85 -12.85 14.4 -12.9 9.25 -13.0 -2.2 -12.4 -8.55 -12.2 -11.1 -10.3 -17.4 -8.95 -22.1 -8.75 -23.55 -8.5 -25.55 -9.4 -26.15 L-9.55 -26.25 Q-14.1 -28.25 -15.2 -30.55 L-11.35 -33.75 Q-9.8 -33.05 -8.65 -32.7 -7.3 -29.95 -4.6 -28.55 -2.1 -27.25 1.15 -27.25 7.5 -27.25 12.7 -31.3 18.3 -35.7 18.1 -41.7 L18.15 -41.75 22.5 -39.4 M25.1 -32.5 Q25.65 -35.2 24.8 -37.95 32.8 -32.65 35.0 -26.15 36.1 -23.0 36.65 -16.65 37.5 -7.2 35.2 3.7 33.0 14.1 28.5 24.9 25.75 31.55 22.85 36.75 L22.65 37.15 Q21.85 38.65 21.35 38.95 19.35 40.15 17.3 40.75 13.55 41.85 10.8 40.45 6.45 38.15 5.8 36.45 7.35 32.9 8.15 29.65 10.35 20.85 10.6 11.5 10.75 4.15 9.7 -1.95 L9.35 -2.3 Q9.05 -2.15 9.0 -1.4 9.4 6.15 8.7 12.9 8.2 17.8 7.45 20.05 L3.05 20.1 Q1.75 16.8 2.35 1.65 3.0 -14.55 5.55 -19.35 6.2 -20.55 6.65 -20.55 L6.85 -20.55 Q11.2 -20.55 15.9 -22.75 20.65 -25.0 23.2 -28.25 24.6 -30.05 25.1 -32.5" fill="#ffffff" fill-rule="evenodd" stroke="none"/>
  </g>
</svg>
