<?xml version="1.0" encoding="UTF-8" standalone="no"?>
<svg xmlns:ffdec="https://www.free-decompiler.com/flash" xmlns:xlink="http://www.w3.org/1999/xlink" ffdec:objectType="shape" height="157.6px" width="66.2px" xmlns="http://www.w3.org/2000/svg">
  <g transform="matrix(1.0, 0.0, 0.0, 1.0, 22.25, 44.35)">
    <path d="M-17.25 -33.6 Q-15.6 -30.4 -10.7 -28.2 -10.6 -27.25 -12.25 -21.6 -14.2 -14.85 -14.4 -12.4 -15.1 -4.85 -14.9 5.65 -14.9 12.25 -15.1 13.15 L-16.9 12.75 -17.0 9.35 Q-17.25 5.9 -19.0 -1.7 -21.8 -14.05 -22.0 -15.7 -23.0 -23.55 -20.35 -29.65 -19.35 -31.5 -17.25 -33.6 M2.5 106.45 L1.2 107.7 Q-1.45 110.0 -4.35 111.15 -8.95 112.9 -14.4 113.2 -19.0 113.55 -19.7 112.0 -20.45 110.4 -17.55 107.45 L-16.4 106.45 -13.3 103.9 Q-10.5 101.7 -7.45 99.8 -2.5 102.3 3.0 100.75 8.15 99.35 12.05 95.1 13.05 97.05 13.4 99.2 13.7 100.95 12.8 102.1 12.05 103.05 10.3 103.85 L8.85 104.3 Q7.75 104.45 7.55 103.85 7.4 103.35 6.85 102.95 6.25 102.55 5.85 102.95 L2.5 106.45 M28.4 87.5 Q34.9 89.0 37.65 81.8 39.55 76.6 39.2 68.7 41.15 69.75 42.45 71.05 43.25 71.85 43.75 73.2 44.35 74.9 43.35 75.15 41.55 75.6 42.3 77.8 42.65 78.95 43.75 80.85 43.95 81.3 43.8 82.65 L43.55 84.55 42.9 88.45 Q42.2 91.8 40.15 95.25 38.15 98.5 34.5 100.6 29.95 103.15 28.6 101.65 27.45 100.35 27.4 97.3 L27.7 92.6 Q27.85 90.1 28.4 87.5 M15.1 30.15 L15.05 30.5 Q13.25 32.05 11.65 32.45 L7.65 33.0 5.75 33.25 Q4.8 33.5 4.35 34.35 3.8 35.35 4.25 36.55 5.35 38.9 10.2 39.85 L12.45 40.2 7.9 46.95 Q5.8 49.95 5.25 51.3 4.2 53.65 5.4 54.95 7.7 57.55 13.25 53.4 13.55 53.65 14.25 53.9 16.85 54.65 21.2 51.95 24.3 53.0 26.95 50.35 31.05 46.15 33.8 39.6 31.7 54.55 23.95 61.1 L22.85 64.3 23.6 64.35 23.8 64.25 Q27.2 62.3 29.75 58.95 32.1 55.75 33.4 51.8 L34.85 55.15 Q35.95 58.1 36.65 62.65 L36.75 64.75 37.15 67.0 Q37.7 74.4 36.1 79.5 33.8 87.1 27.5 85.25 22.0 82.7 17.15 78.3 12.4 74.05 9.15 68.8 6.45 64.4 4.45 58.25 2.95 53.7 1.55 47.0 0.2 40.8 -0.2 35.9 -0.3 35.05 -1.3 34.7 -2.3 34.35 -2.2 35.4 -1.45 44.65 0.85 52.95 3.4 62.3 7.55 69.4 9.65 73.0 13.0 76.65 L12.9 76.9 Q12.9 81.15 11.85 88.3 L11.35 90.35 Q10.95 91.85 11.0 92.7 7.45 96.9 2.75 98.5 -2.45 100.25 -7.05 97.95 -10.7 86.3 -13.8 71.1 -16.65 57.0 -17.55 46.95 -18.75 33.5 -17.15 22.6 -14.15 24.95 -9.5 27.05 -4.15 29.55 2.35 30.35 8.7 31.1 15.1 30.15 M12.2 34.4 Q13.6 34.05 15.45 32.75 17.3 35.1 22.4 36.3 27.85 37.65 33.4 33.2 33.0 36.3 32.2 38.3 29.65 44.8 25.5 48.9 23.6 50.85 21.95 50.05 L24.2 47.15 Q26.6 44.05 26.3 43.0 L22.3 47.5 Q17.75 52.5 14.9 52.0 L14.4 51.75 14.25 51.6 17.75 47.2 Q21.1 42.8 20.3 42.0 20.2 41.9 16.95 45.85 L12.2 51.15 Q7.9 54.8 6.9 53.65 6.2 52.9 9.55 48.1 L10.1 47.35 15.25 39.45 15.4 38.95 Q15.45 38.7 13.3 38.6 L9.55 38.3 Q7.55 37.85 6.4 36.95 5.25 36.0 6.1 35.35 L6.7 35.1 7.7 35.0 12.2 34.4 M23.1 -31.85 Q26.25 -35.75 26.0 -40.55 31.55 -35.85 34.65 -27.3 37.7 -18.7 38.1 -7.2 38.4 3.4 36.7 15.0 35.6 22.2 34.05 27.85 L33.95 28.3 33.1 30.35 Q31.6 31.95 29.6 33.1 26.2 35.05 23.2 34.3 18.65 33.2 17.4 31.7 18.0 28.05 17.75 24.3 17.2 15.8 14.55 3.8 L12.0 -6.55 10.95 -5.75 Q13.75 5.85 14.5 10.5 L15.1 15.65 15.05 15.5 3.05 16.45 Q1.75 13.25 2.35 -2.0 3.0 -18.15 5.55 -23.0 6.25 -24.2 6.6 -24.2 10.7 -24.1 15.25 -26.05 20.2 -28.2 23.1 -31.85 M23.75 -42.25 Q24.8 -37.15 21.55 -33.1 19.0 -29.9 14.5 -27.95 10.45 -26.2 6.8 -26.2 L6.6 -26.2 Q2.75 -26.1 1.15 -12.9 0.2 -5.15 0.2 4.1 0.15 13.4 1.0 16.6 1.5 18.4 2.55 18.45 L4.8 18.45 15.25 17.5 Q15.55 22.55 15.25 27.75 L2.6 28.3 Q-2.65 27.9 -7.9 25.85 -13.25 23.7 -17.2 20.35 L-16.95 14.85 -14.85 15.2 -14.7 15.2 -13.8 14.85 Q-13.15 14.25 -12.95 12.25 -12.85 10.75 -12.9 5.6 -13.1 -4.75 -12.45 -12.2 -12.2 -14.45 -10.35 -21.05 -9.0 -25.65 -8.75 -27.15 -8.5 -29.15 -9.45 -29.8 L-9.6 -29.9 Q-14.65 -32.05 -15.65 -35.05 L-12.55 -37.65 Q-10.0 -36.05 -7.35 -35.2 -6.0 -32.45 -3.25 -31.05 -0.75 -29.75 2.5 -29.75 8.85 -29.75 14.05 -33.8 19.6 -38.2 19.4 -44.2 L19.55 -44.35 Q21.9 -43.45 23.75 -42.25" fill="#ffffff" fill-rule="evenodd" stroke="none"/>
  </g>
</svg>
