<?xml version="1.0" encoding="UTF-8" standalone="no"?>
<svg xmlns:ffdec="https://www.free-decompiler.com/flash" xmlns:xlink="http://www.w3.org/1999/xlink" ffdec:objectType="shape" height="161.2px" width="88.0px" xmlns="http://www.w3.org/2000/svg">
  <g transform="matrix(1.0, 0.0, 0.0, 1.0, 35.3, 47.95)">
    <path d="M-23.5 24.15 Q-21.4 22.55 -22.15 18.35 L-19.2 18.2 Q-19.25 23.15 -18.9 30.35 L-19.35 30.1 -19.55 30.15 -19.6 30.2 Q-19.65 30.5 -18.8 31.45 L-18.4 36.75 -20.65 35.45 -20.55 35.35 Q-19.6 34.3 -20.2 32.1 -20.55 30.8 -21.85 28.0 L-23.5 24.15 M-31.15 21.35 Q-31.3 20.65 -32.15 20.8 -33.0 20.95 -33.15 21.6 -33.45 23.45 -31.55 28.2 -29.05 34.35 -24.65 35.75 -22.4 36.5 -21.1 35.8 L-19.2 38.1 Q-18.85 38.4 -18.8 39.05 -18.8 39.8 -19.2 40.2 -20.45 41.35 -24.0 39.7 L-25.2 39.1 -26.2 38.35 Q-28.85 36.25 -30.9 33.7 -34.0 29.85 -34.9 25.95 -36.2 20.45 -33.4 11.1 -30.5 16.55 -25.6 17.75 L-23.95 18.1 Q-23.4 20.3 -24.3 21.85 L-25.25 22.9 -26.0 23.35 -23.7 28.85 Q-21.5 33.4 -22.05 34.05 L-24.05 33.8 Q-27.6 32.7 -29.65 27.3 -30.4 25.35 -31.15 21.35 M-29.65 -4.25 Q-27.25 -12.1 -24.0 -19.35 -23.55 -15.25 -21.7 -7.95 -19.7 0.0 -19.2 3.4 -18.55 7.5 -18.9 12.45 L-19.1 14.1 -19.3 16.05 -25.45 15.6 Q-28.45 14.9 -30.55 11.6 -31.75 9.75 -32.4 7.55 -32.6 6.9 -32.2 5.35 L-32.1 4.95 -29.65 -4.25 M-16.05 -37.65 L-16.0 -36.25 Q-15.25 -32.4 -8.6 -30.05 -8.45 -29.05 -9.6 -23.35 -11.0 -16.55 -11.0 -14.0 -11.05 -6.5 -9.95 3.9 -9.35 10.55 -9.5 11.5 -14.4 11.3 -16.9 8.6 L-16.95 6.35 Q-17.2 2.9 -18.95 -4.7 -21.75 -17.05 -21.95 -18.7 -22.95 -26.55 -20.3 -32.65 -18.95 -35.1 -16.05 -37.65 M20.55 95.3 L21.7 97.65 Q23.0 101.65 19.8 103.5 L17.9 104.25 Q16.45 104.6 16.2 103.85 16.05 103.35 15.5 102.95 14.9 102.55 14.5 102.95 L9.85 107.7 Q7.2 110.0 4.3 111.15 -0.3 112.9 -5.75 113.2 -10.35 113.55 -11.05 112.0 -11.8 110.4 -8.9 107.45 L-4.65 103.9 1.2 99.8 Q6.1 102.25 11.55 100.8 16.65 99.45 20.55 95.3 M36.8 53.9 Q38.55 52.25 39.9 56.0 L41.05 60.8 Q41.2 61.8 39.15 62.4 37.15 62.95 37.4 64.15 37.65 65.65 38.7 67.25 L40.05 69.2 Q40.7 70.2 40.85 71.5 L40.8 73.95 Q40.25 85.3 34.65 89.05 32.6 90.45 29.7 84.6 27.75 80.65 26.3 75.55 29.25 75.4 31.25 73.8 35.1 70.8 36.35 64.7 37.45 59.3 36.2 54.05 L36.8 53.9 M31.65 21.25 L32.3 20.85 33.95 27.15 Q32.65 29.15 31.35 30.05 L27.65 31.8 Q26.4 32.25 25.9 32.55 25.1 33.1 24.9 34.05 24.65 35.2 25.55 36.15 27.3 38.15 32.15 37.5 L33.25 37.35 Q32.05 42.5 29.15 46.95 L24.7 51.7 21.4 54.85 20.9 58.35 21.25 58.25 24.7 55.6 Q28.35 52.45 30.95 48.45 L31.3 48.05 Q30.3 52.25 32.25 53.35 33.1 53.95 34.25 53.7 35.45 58.6 34.3 63.75 33.0 69.4 29.35 72.25 25.6 75.2 16.55 71.3 L16.35 71.25 15.5 70.9 Q13.75 70.15 12.25 68.95 8.8 66.35 6.5 61.7 4.6 57.9 2.2 49.15 L0.9 43.75 Q-0.35 38.05 -0.75 32.9 -0.85 32.05 -1.85 31.7 -2.85 31.35 -2.75 32.4 -2.3 37.75 -1.0 43.75 -0.05 48.25 1.45 53.1 3.65 60.5 6.45 64.75 7.95 67.1 9.85 68.95 12.4 71.4 15.6 72.9 19.05 80.6 19.7 92.7 16.05 96.95 11.3 98.5 6.05 100.25 1.4 97.85 -3.15 90.55 -7.9 77.1 L-10.5 68.95 -12.8 60.15 Q-17.25 40.75 -17.2 19.55 -14.2 21.85 -9.45 24.05 -0.1 28.35 11.45 27.6 23.0 26.8 31.65 21.25 M41.6 42.2 Q43.5 37.0 42.5 36.45 L40.4 41.15 Q38.25 46.5 37.55 47.65 34.55 52.45 33.25 51.65 32.5 51.25 33.4 47.8 L33.6 47.2 34.35 44.7 36.9 35.6 36.9 35.05 34.75 35.4 31.1 36.2 27.7 35.9 Q26.3 35.35 26.9 34.45 L27.35 34.05 28.35 33.65 32.45 31.7 35.0 29.15 Q37.4 30.8 42.7 30.4 48.2 30.05 52.25 24.1 52.85 27.1 52.65 29.3 52.2 36.2 49.55 41.5 48.75 43.05 47.6 43.5 L46.5 43.65 47.75 40.15 Q49.1 36.5 48.5 35.6 L46.05 41.1 Q43.25 47.25 40.4 47.65 L39.85 47.55 39.65 47.45 41.6 42.2 M24.85 -36.6 Q26.85 -39.65 26.6 -42.65 31.5 -38.3 34.95 -33.9 40.45 -26.85 44.4 -15.8 47.95 -5.8 49.8 5.75 50.95 12.9 51.25 18.8 L51.25 19.25 Q51.45 20.75 51.1 21.45 50.05 23.5 48.6 25.15 45.95 28.05 42.9 28.25 38.1 28.6 36.55 27.5 35.85 23.45 34.95 20.45 31.85 10.05 25.6 1.35 22.85 -2.5 19.3 -6.05 L18.4 -5.25 Q24.15 2.05 27.3 8.25 L27.35 8.35 Q25.25 9.75 21.9 10.9 16.15 12.85 8.8 13.25 7.25 10.15 6.6 -5.05 5.9 -21.25 8.0 -26.25 8.5 -27.4 8.95 -27.55 13.3 -27.85 17.95 -30.5 22.5 -33.1 24.85 -36.6 M24.3 -44.6 Q24.6 -42.9 24.35 -41.05 24.05 -39.0 23.15 -37.7 21.15 -34.6 16.9 -32.2 12.7 -29.8 8.8 -29.55 5.0 -29.15 4.5 -15.85 4.2 -8.2 4.95 1.15 5.7 10.05 6.7 13.25 7.35 15.3 8.35 15.3 L8.5 15.3 Q16.1 14.9 22.05 12.95 25.85 11.7 28.25 10.15 30.0 13.95 31.5 18.4 L29.4 19.85 Q25.2 22.55 17.9 24.2 4.6 27.2 -6.55 23.25 -12.75 21.1 -17.15 17.35 L-16.9 11.2 Q-13.6 13.45 -9.1 13.5 -8.5 13.5 -8.05 13.05 -7.45 12.35 -7.45 10.35 -7.45 8.75 -7.95 3.7 -9.05 -6.6 -9.0 -14.0 -9.0 -16.6 -7.65 -22.95 -6.7 -27.7 -6.6 -29.2 -6.5 -31.25 -7.5 -31.8 L-7.65 -31.85 Q-13.45 -33.85 -14.05 -36.65 -14.4 -38.6 -12.55 -40.6 L-11.65 -41.35 Q-9.5 -40.1 -6.85 -39.15 -5.5 -36.4 -2.75 -35.0 -0.3 -33.7 2.95 -33.7 9.25 -33.7 14.45 -37.7 19.95 -42.0 19.9 -47.95 L24.3 -44.6" fill="#ffffff" fill-rule="evenodd" stroke="none"/>
  </g>
</svg>
