<?xml version="1.0" encoding="UTF-8" standalone="no"?>
<svg xmlns:ffdec="https://www.free-decompiler.com/flash" xmlns:xlink="http://www.w3.org/1999/xlink" ffdec:objectType="shape" height="152.85px" width="102.15px" xmlns="http://www.w3.org/2000/svg">
  <g transform="matrix(1.0, 0.0, 0.0, 1.0, 42.95, 45.5)">
    <path d="M-26.15 17.2 L-26.25 18.9 Q-26.35 20.0 -26.95 21.45 -27.5 22.75 -28.1 23.5 L-24.9 27.65 Q-22.15 31.4 -22.75 32.05 -23.75 33.05 -25.75 31.25 L-28.1 28.95 -28.3 29.0 -28.4 29.0 -26.5 32.2 Q-24.7 34.85 -25.65 35.75 -26.55 36.6 -28.05 35.75 -28.85 35.3 -30.25 34.05 L-30.1 33.95 Q-29.05 33.05 -29.3 30.8 -29.45 29.45 -30.3 26.5 L-31.35 22.4 Q-29.0 21.15 -29.1 16.9 L-26.15 17.2 M-37.85 24.6 Q-38.25 22.8 -38.45 18.5 -38.5 17.75 -39.35 17.75 -40.2 17.8 -40.45 18.45 -41.05 20.2 -39.9 25.2 -38.35 31.65 -34.25 33.7 -32.05 34.8 -30.7 34.3 L-30.5 34.7 -29.2 36.85 Q-28.9 37.25 -28.95 37.9 -29.0 38.6 -29.5 38.95 -30.85 39.95 -34.2 37.7 L-35.25 36.95 -36.15 36.0 Q-38.4 33.55 -40.05 30.75 -42.55 26.45 -42.9 22.45 -43.3 16.95 -39.15 8.05 -37.0 13.85 -32.45 15.8 L-30.85 16.4 Q-30.65 18.65 -31.75 20.0 L-32.85 20.9 -33.65 21.25 -32.7 25.25 -32.2 27.05 Q-30.8 31.9 -31.4 32.4 -31.8 32.65 -33.35 31.9 -36.7 30.25 -37.85 24.6 M-19.6 -28.65 L-15.85 -33.1 -15.75 -32.4 Q-14.75 -28.4 -8.2 -26.15 -8.0 -25.25 -9.1 -19.45 -10.4 -12.5 -10.4 -10.05 -10.4 -2.35 -9.2 7.9 -8.55 14.5 -8.7 15.4 -11.7 15.35 -14.0 14.2 -15.35 13.55 -16.15 12.65 L-16.25 9.35 Q-16.5 5.9 -18.25 -1.7 L-20.5 -11.15 Q-21.65 -16.6 -21.55 -20.55 L-23.25 -15.85 Q-22.8 -12.05 -21.2 -5.7 L-18.85 4.45 Q-23.25 10.15 -25.65 14.95 -27.35 15.6 -31.95 13.7 -34.8 12.5 -36.4 8.95 -37.35 6.8 -37.6 4.65 -37.7 4.15 -37.1 2.5 L-36.9 2.1 Q-34.7 -3.55 -31.45 -9.85 -26.1 -20.3 -19.6 -28.65 M21.3 95.9 Q25.9 94.8 29.8 90.95 31.1 94.3 30.75 96.6 30.55 98.05 27.8 99.35 25.05 100.65 24.8 99.55 24.65 98.95 24.1 98.45 L23.0 98.35 18.65 102.4 Q15.85 104.9 11.05 106.15 L9.35 106.55 -0.4 107.05 Q-3.7 106.5 -2.5 104.1 -1.7 102.4 1.25 100.0 1.5 102.35 3.05 103.6 4.8 105.05 8.4 104.45 L11.05 103.8 13.7 102.75 Q17.9 100.85 21.3 95.9 M27.65 78.75 Q27.5 76.5 26.25 74.4 25.3 72.75 23.35 70.8 23.55 61.05 19.9 56.05 L22.75 53.9 Q29.55 67.65 29.05 86.05 L29.0 88.3 26.2 91.1 Q24.75 92.3 23.1 93.0 24.4 90.45 25.35 87.55 25.55 86.95 25.15 84.8 24.8 82.9 25.25 82.45 L26.05 82.3 27.0 82.1 Q27.6 81.6 27.7 80.55 L27.65 78.75 M4.0 95.8 Q5.3 91.2 8.35 85.65 L9.9 86.35 Q14.95 88.15 18.65 82.9 20.95 79.6 22.95 72.8 25.5 75.7 25.7 78.95 25.8 80.2 24.9 80.25 23.7 80.3 23.35 80.95 22.9 81.85 23.15 83.4 L23.3 86.05 22.55 88.65 Q20.1 94.9 15.55 98.75 13.55 100.45 11.05 101.4 L10.25 101.7 Q7.05 102.75 4.3 102.2 2.75 101.9 3.35 98.35 3.6 98.1 3.5 97.75 L3.75 96.8 4.0 95.8 M32.35 24.25 L35.0 22.35 Q35.45 27.9 33.45 34.8 L33.45 35.2 Q32.3 35.95 32.15 37.2 L32.25 38.1 32.2 38.15 Q26.8 50.45 12.4 57.75 L11.15 60.15 Q11.75 60.65 12.25 60.45 L18.9 57.5 Q21.65 61.85 21.35 70.45 19.25 77.55 17.25 80.65 13.6 86.25 8.45 83.75 7.95 83.5 5.1 81.05 1.1 77.45 -2.7 73.15 -7.65 67.4 -9.45 62.2 -11.45 56.5 -7.65 49.5 -3.8 42.3 4.3 36.2 5.0 35.7 4.2 34.8 3.4 33.9 2.75 34.4 -5.75 40.75 -9.8 48.6 -12.85 44.05 -14.1 40.9 -16.85 33.85 -16.55 22.5 -13.5 24.85 -8.75 27.05 0.6 31.35 12.15 30.6 23.7 29.8 32.35 24.25 M41.6 31.15 Q44.2 32.55 49.4 31.55 52.35 31.0 54.8 28.75 56.8 26.9 58.15 24.25 59.1 27.05 59.15 29.35 59.45 36.4 57.4 41.8 56.5 44.3 54.65 44.3 L55.5 40.7 Q56.4 36.9 55.7 36.05 55.45 35.7 53.9 41.8 51.85 48.25 49.0 48.95 L48.45 48.95 48.25 48.85 49.6 43.4 Q50.9 38.05 49.85 37.6 L48.35 42.5 46.2 49.25 Q43.8 54.35 42.35 53.7 41.75 53.45 41.95 51.25 L42.5 47.6 42.7 46.7 44.2 37.35 44.15 36.85 Q44.05 36.6 42.1 37.35 L38.5 38.6 35.05 38.75 Q33.6 38.35 34.15 37.35 L34.55 36.9 35.5 36.4 Q37.75 35.35 39.35 34.0 40.65 32.95 41.6 31.15 M26.7 -36.45 Q27.25 -38.6 26.85 -40.5 31.5 -36.05 34.3 -32.6 41.7 -23.25 45.95 -14.55 50.6 -5.05 53.7 6.25 55.55 12.95 56.6 19.1 L56.7 19.5 56.75 21.75 Q56.0 23.9 54.7 25.65 52.4 28.85 49.35 29.4 44.55 30.35 42.95 29.4 42.15 26.05 40.6 22.55 36.25 12.7 25.5 0.9 20.1 -4.95 15.55 -8.9 L15.15 -7.45 21.0 -1.95 Q26.5 3.45 31.4 10.9 29.0 12.6 24.9 14.05 18.3 16.4 9.65 17.0 8.05 13.9 7.25 -1.3 6.4 -17.45 8.5 -22.5 8.95 -23.7 9.45 -23.8 13.75 -24.15 18.1 -26.55 22.45 -29.0 24.85 -32.4 26.15 -34.25 26.7 -36.45 M20.5 -45.5 L24.8 -41.85 Q25.35 -39.3 24.65 -36.75 24.15 -34.85 23.2 -33.55 21.05 -30.55 17.05 -28.3 13.1 -26.1 9.25 -25.75 5.4 -25.3 5.05 -11.8 4.85 -4.35 5.7 5.4 6.5 13.9 7.55 17.05 8.25 19.05 9.2 19.05 L9.35 19.05 Q18.45 18.45 25.35 16.05 29.65 14.55 32.5 12.6 L34.05 15.25 34.3 17.55 34.5 18.85 33.85 19.95 Q32.05 21.85 28.85 23.6 19.55 28.65 5.3 28.4 -0.45 28.35 -6.2 26.2 -12.1 24.05 -16.45 20.35 L-16.2 15.2 Q-13.05 17.4 -8.25 17.45 -7.7 17.45 -7.25 17.0 -6.65 16.35 -6.7 14.3 -6.7 12.75 -7.25 7.7 -8.4 -3.0 -8.4 -10.05 -8.4 -12.6 -7.15 -19.05 -6.25 -23.8 -6.15 -25.3 -6.05 -27.3 -7.05 -27.85 L-7.25 -27.95 Q-13.05 -29.85 -13.8 -32.85 -14.15 -34.1 -13.5 -35.55 L-10.05 -38.85 Q-8.35 -37.9 -6.25 -37.2 -4.85 -34.45 -2.15 -33.05 0.35 -31.8 3.6 -31.8 9.7 -31.8 14.85 -35.65 20.3 -39.75 20.5 -45.5" fill="#ffffff" fill-rule="evenodd" stroke="none"/>
  </g>
</svg>
