<?xml version="1.0" encoding="UTF-8" standalone="no"?>
<svg xmlns:ffdec="https://www.free-decompiler.com/flash" xmlns:xlink="http://www.w3.org/1999/xlink" ffdec:objectType="shape" height="161.75px" width="115.25px" xmlns="http://www.w3.org/2000/svg">
  <g transform="matrix(1.0, 0.0, 0.0, 1.0, 32.15, 45.85)">
    <path d="M21.85 -36.25 Q21.65 -38.15 22.1 -40.2 22.55 -42.45 23.5 -43.6 L23.65 -43.95 Q27.65 -46.1 32.25 -44.6 36.15 -43.35 39.7 -39.8 L45.35 -33.15 50.6 -26.15 Q44.3 -26.65 39.1 -24.85 32.95 -22.7 30.4 -17.8 26.7 -23.55 25.1 -26.55 22.25 -31.75 21.85 -36.25 M16.8 -33.95 Q16.45 -29.25 17.7 -23.15 18.55 -19.15 20.5 -13.0 L22.05 -8.25 Q16.3 -5.7 12.65 -3.6 10.15 -6.85 8.0 -10.6 7.0 -15.9 7.15 -23.2 L7.45 -27.6 7.55 -28.85 Q13.2 -29.6 16.8 -33.95 M5.6 -30.35 Q4.65 -22.65 5.35 -15.65 0.65 -25.8 -0.4 -36.5 2.2 -34.45 6.05 -34.15 10.7 -33.75 15.25 -35.8 11.65 -31.35 6.25 -30.9 5.7 -30.9 5.6 -30.35 M6.15 -10.4 L6.35 -9.3 Q6.5 -8.55 7.35 -8.35 9.25 -5.25 11.2 -2.75 7.2 -0.35 4.2 2.3 -1.3 -7.15 -3.65 -18.7 -6.05 -30.1 -4.9 -41.1 L-3.3 -40.3 -2.55 -38.85 Q-2.1 -31.55 0.15 -24.2 2.4 -16.95 6.15 -10.4 M34.95 -9.5 Q41.35 -11.7 49.0 -10.8 56.05 -9.95 62.6 -6.8 64.3 0.0 60.7 4.9 46.9 -6.75 36.9 -5.35 L34.95 -9.5 M31.85 -15.35 Q34.1 -20.65 40.5 -22.85 45.9 -24.75 52.25 -23.95 L52.4 -23.95 53.15 -23.1 55.75 -19.9 43.45 -19.35 Q36.7 -17.75 32.85 -13.5 L31.85 -15.35 M36.3 -2.1 Q38.55 3.4 39.35 7.55 40.45 13.15 39.35 17.55 L29.4 20.1 24.9 21.0 Q27.3 17.35 27.55 11.4 27.75 6.75 26.6 1.5 25.8 -2.15 23.9 -8.0 21.4 -15.55 20.85 -17.6 17.6 -29.0 19.65 -37.0 20.2 -30.75 25.05 -23.25 32.5 -11.6 36.3 -2.1 M57.35 -17.7 Q60.45 -13.3 61.9 -9.15 55.3 -12.1 48.45 -12.9 40.9 -13.75 34.55 -11.8 38.05 -15.8 44.9 -17.3 L57.1 -17.7 57.35 -17.7 M48.5 -1.1 Q49.8 6.45 44.7 15.3 L44.6 15.7 41.7 16.75 Q42.5 11.4 40.05 3.15 L37.8 -3.25 Q42.3 -4.0 48.5 -1.1 M48.3 14.15 L47.8 14.35 Q51.5 6.6 50.6 -0.05 55.15 2.45 59.65 6.25 55.7 10.5 49.05 13.8 48.45 13.7 48.3 14.15 M50.15 20.0 Q46.0 24.9 35.3 27.75 24.9 30.6 14.6 29.8 3.1 28.9 -5.05 23.55 -5.2 22.95 -5.8 22.5 -4.55 18.5 -4.3 12.95 -4.1 9.25 -5.35 4.5 L-7.7 -3.7 Q-11.2 -17.05 -12.8 -32.2 -12.9 -33.05 -13.9 -33.4 -14.9 -33.75 -14.8 -32.7 L-14.1 -27.0 -18.0 -27.4 Q-18.2 -33.15 -17.05 -37.6 -15.45 -43.75 -11.6 -45.7 L-11.4 -45.85 Q-9.35 -43.8 -6.9 -42.25 -8.1 -30.55 -5.55 -18.55 -2.95 -6.4 2.95 3.55 -0.8 7.4 -0.85 11.25 -0.9 15.4 2.95 18.75 6.0 21.35 10.65 22.95 14.6 24.35 22.0 23.55 L22.75 23.45 23.1 23.4 Q30.6 22.6 39.55 19.75 45.2 17.95 48.95 16.35 L50.15 20.0 M54.8 41.65 L55.7 48.05 55.75 49.65 Q55.8 50.8 56.0 51.4 55.05 54.1 48.85 57.6 43.8 60.45 37.6 61.8 L35.9 61.95 34.1 62.0 Q30.2 50.8 14.2 39.95 13.25 39.3 12.9 40.1 12.55 40.9 13.4 41.5 L15.45 42.9 14.75 43.6 Q13.95 44.5 13.65 45.55 13.35 46.6 14.25 47.75 L15.25 48.75 6.65 51.25 Q-2.85 53.75 -7.25 53.8 L-11.45 53.6 Q-12.7 50.25 -13.75 45.5 -14.2 43.35 -13.6 40.8 L-12.15 36.3 Q-10.7 32.55 -8.35 28.15 L-8.3 28.1 -6.95 25.6 -6.45 24.7 Q1.75 30.4 13.05 31.65 22.75 32.7 33.85 30.45 45.8 27.9 50.9 22.65 53.0 30.45 54.8 41.65 M22.75 19.95 Q21.9 14.3 18.65 10.15 15.1 5.7 9.75 4.55 L8.2 2.2 11.3 0.0 Q15.55 -2.75 22.75 -6.0 25.05 1.35 25.4 6.25 26.05 15.4 22.75 19.95 M8.6 6.15 Q9.9 9.3 9.8 12.9 9.7 16.4 8.3 19.65 L8.25 19.95 Q6.0 18.9 4.45 17.75 0.85 15.0 1.35 11.45 1.75 8.5 4.85 5.25 5.4 5.15 5.4 4.65 L6.9 3.25 8.0 5.0 Q8.0 5.8 8.6 6.15 M11.75 13.75 Q11.9 10.1 10.7 6.8 15.35 8.15 18.15 12.4 20.65 16.3 20.95 21.5 14.8 22.1 10.3 20.7 11.65 17.35 11.75 13.75 M24.7 69.95 Q19.3 72.25 14.8 73.55 6.25 76.0 -1.9 76.0 -8.1 76.0 -12.1 74.7 L-13.25 71.25 -14.15 67.4 Q-9.8 71.6 2.0 70.5 7.9 69.95 12.95 68.25 19.2 66.2 22.9 62.75 24.25 66.55 24.7 69.95 M31.45 68.8 Q31.75 67.4 32.45 66.2 33.25 64.7 34.15 64.3 L36.0 64.05 37.9 64.0 38.2 63.95 38.35 64.05 Q55.55 72.2 69.3 74.15 L70.35 77.6 71.0 80.45 71.75 83.3 Q65.6 80.5 53.85 77.95 L47.1 76.55 Q43.2 75.65 40.45 74.6 36.8 73.15 31.25 70.1 L31.45 68.8 M5.8 67.2 Q-3.0 61.85 -5.4 56.1 3.75 56.0 16.25 50.85 19.8 55.5 21.9 60.35 17.05 65.25 6.2 67.6 L5.8 67.2 M36.05 80.6 Q38.45 78.1 41.15 77.25 41.55 77.15 41.6 76.75 46.8 78.55 51.95 79.55 L53.5 79.85 Q40.6 86.75 37.2 95.75 L36.5 94.35 35.0 91.45 33.5 88.5 32.5 85.6 Q34.0 82.7 36.05 80.6 M31.65 82.35 Q30.55 77.0 31.0 71.95 35.1 74.25 38.8 75.7 34.7 77.6 31.65 82.35 M24.4 84.5 Q23.8 88.55 22.6 92.3 18.75 85.3 8.3 82.15 0.4 79.75 -9.85 79.85 L-11.2 76.95 Q-7.45 78.0 -1.8 78.1 6.55 78.3 15.6 75.75 22.25 78.9 23.5 83.6 23.75 84.35 24.4 84.5 M38.7 98.35 Q40.95 89.95 52.7 83.0 49.35 88.35 47.35 94.6 45.35 100.85 44.95 107.1 42.85 104.85 41.05 102.2 L38.65 98.45 38.7 98.35 M24.75 81.85 Q22.85 77.85 18.0 75.0 L24.9 72.4 Q25.3 77.0 24.75 81.85 M21.7 94.55 Q16.5 100.6 9.55 104.85 7.9 98.8 4.4 94.6 0.55 90.1 -5.15 88.2 -9.8 86.65 -15.1 86.95 L-9.7 82.0 Q-4.0 81.85 3.25 83.15 18.5 86.1 21.7 94.55 M68.6 72.0 Q60.85 70.85 52.9 68.05 55.25 66.55 57.95 64.05 L62.5 59.5 Q66.1 64.75 68.6 72.0 M57.55 53.4 L61.05 57.5 55.95 62.6 Q52.9 65.35 50.25 66.9 L50.1 67.05 Q45.6 65.4 41.05 63.3 L43.7 62.45 Q49.15 60.55 53.35 57.6 56.4 55.45 57.55 53.4 M57.25 80.65 Q67.1 82.9 73.15 85.95 L73.85 86.1 76.1 88.2 Q71.25 88.5 65.95 91.45 61.45 93.95 57.5 97.8 54.55 100.65 52.6 104.05 50.4 108.0 50.1 111.65 48.45 110.55 46.9 109.05 47.2 101.45 49.85 94.05 52.6 86.45 57.25 80.65 M77.95 90.3 L80.5 93.65 Q82.95 97.5 83.1 101.1 L82.35 100.5 Q80.9 99.6 78.65 100.1 L74.9 101.35 Q62.85 105.2 61.45 115.9 56.7 115.6 52.1 112.95 52.15 109.5 54.6 105.35 56.7 101.9 59.8 98.9 63.55 95.25 68.1 92.9 73.35 90.25 77.95 90.3 M78.6 102.6 L81.3 102.3 Q82.5 102.55 82.8 104.1 82.4 105.7 81.45 107.2 79.05 110.95 73.75 113.35 69.15 115.5 64.1 115.9 L63.6 115.9 Q65.1 107.85 73.15 104.45 L78.6 102.6 M0.3 100.35 Q-3.0 97.9 -7.45 96.4 -7.95 96.2 -8.15 96.55 -13.95 93.4 -20.9 93.7 L-17.3 89.3 -16.75 89.35 -11.9 89.1 -6.75 89.75 Q-0.9 91.1 2.95 95.5 6.5 99.65 7.85 105.75 L7.9 105.85 5.65 107.05 Q4.35 103.35 0.3 100.35 M-13.8 -24.9 L-11.6 -12.55 -15.45 -12.95 -19.25 -14.05 Q-21.35 -14.6 -22.2 -17.55 L-23.25 -22.45 Q-23.75 -24.2 -25.1 -25.25 -26.45 -26.3 -28.1 -26.35 L-27.7 -26.9 Q-27.15 -27.45 -25.45 -26.9 L-23.15 -26.0 -18.55 -25.2 -13.8 -24.9 M-23.85 -17.4 Q-23.3 -15.2 -22.7 -14.35 -21.8 -13.1 -20.15 -12.4 L-17.05 -11.45 Q-13.2 -10.3 -11.2 -10.4 L-10.55 -7.55 -17.45 -8.8 Q-18.55 -10.65 -20.75 -11.6 L-23.25 -11.55 Q-24.4 -11.1 -25.25 -10.0 -30.45 -10.15 -31.8 -15.3 -33.1 -20.3 -29.35 -23.8 -26.2 -25.3 -24.8 -21.1 L-23.85 -17.4 M-20.8 -9.55 Q-18.8 -9.6 -19.05 -7.95 L-19.7 -2.45 Q-21.05 8.15 -21.7 16.65 -22.7 29.25 -21.1 37.4 -20.3 41.4 -18.15 45.85 L-16.0 50.4 Q-15.05 52.8 -15.15 55.2 L-15.15 55.4 Q-17.0 58.35 -16.75 62.95 -16.55 66.0 -15.3 70.7 L-14.15 74.3 -14.5 74.25 -15.95 84.4 Q-19.45 87.75 -22.0 91.2 -19.9 76.3 -19.0 61.0 L-18.75 56.95 Q-18.7 54.5 -19.25 52.95 -19.8 51.4 -21.4 48.75 L-23.65 44.55 Q-26.3 38.3 -26.3 29.3 -26.35 26.4 -25.4 13.75 L-23.65 -8.3 Q-22.7 -9.5 -20.8 -9.55 M-10.0 -5.45 L-7.75 2.0 Q-6.45 6.45 -6.3 9.6 -12.0 7.65 -18.85 8.65 L-17.05 -6.75 -10.0 -5.45 M-8.25 11.5 Q-8.9 12.05 -8.2 12.9 -7.4 13.9 -8.55 15.4 -9.45 16.6 -10.9 17.45 -11.7 17.9 -11.1 18.8 -10.55 19.7 -9.75 19.5 L-7.55 19.35 -7.4 19.35 -7.4 19.6 Q-7.45 20.2 -7.85 21.1 -8.85 23.3 -11.1 23.5 -14.3 23.75 -15.65 20.45 -16.8 17.65 -16.1 14.5 -15.9 13.7 -16.9 13.1 -17.9 12.55 -18.1 13.5 -18.75 16.8 -17.75 19.8 -18.45 20.5 -19.65 20.6 L-19.95 20.6 -19.1 10.95 -19.1 10.9 -18.95 10.9 -12.6 10.5 Q-9.15 10.65 -6.25 11.6 L-6.3 12.85 Q-6.55 12.25 -6.95 11.8 -7.65 10.95 -8.25 11.5 M-16.8 22.1 Q-15.55 24.2 -13.3 25.05 -14.1 26.5 -15.3 27.4 -16.65 28.5 -18.9 27.4 L-19.75 26.5 -20.15 25.95 -20.05 22.7 Q-18.15 22.95 -16.8 22.1 M-6.65 16.8 L-6.8 17.65 -7.2 17.45 -6.65 16.8 M-12.0 29.9 L-13.35 29.6 -13.85 29.3 Q-12.05 28.1 -11.0 25.65 L-11.0 25.6 -9.6 25.5 -11.85 29.95 -12.0 29.9 M-13.55 57.35 L-12.8 56.3 Q-12.3 55.5 -12.7 55.4 L-7.35 56.1 Q-4.75 62.45 3.9 68.05 -5.35 69.7 -11.0 67.2 -12.0 66.8 -12.9 66.05 -13.9 65.2 -14.15 64.45 L-14.6 63.8 -14.65 63.2 Q-14.7 61.3 -14.25 59.25 L-13.55 57.35 M-9.35 97.95 Q-6.2 99.35 -4.85 101.45 -3.3 103.85 -4.35 106.85 -5.05 108.75 -6.35 110.2 -6.65 110.5 -6.55 110.9 -13.2 111.75 -19.05 109.45 -28.1 105.85 -22.4 96.0 -19.35 95.55 -15.8 96.1 -12.35 96.6 -9.35 97.95 M-3.75 99.9 Q2.65 103.05 4.0 107.85 0.05 109.65 -3.6 110.4 -1.95 107.8 -1.95 105.05 -1.9 102.1 -3.75 99.9" fill="#ffffff" fill-rule="evenodd" stroke="none"/>
  </g>
</svg>
