<?xml version="1.0" encoding="UTF-8" standalone="no"?>
<svg xmlns:ffdec="https://www.free-decompiler.com/flash" xmlns:xlink="http://www.w3.org/1999/xlink" ffdec:objectType="shape" height="163.65px" width="125.15px" xmlns="http://www.w3.org/2000/svg">
  <g transform="matrix(1.0, 0.0, 0.0, 1.0, 43.2, 47.4)">
    <path d="M22.7 -38.25 Q23.2 -40.45 24.35 -41.7 L24.55 -42.05 Q28.4 -43.95 32.85 -42.45 36.65 -41.15 39.9 -37.75 42.45 -35.1 45.55 -30.65 L50.75 -23.2 Q44.5 -23.95 39.25 -22.35 33.05 -20.4 30.3 -15.65 26.8 -21.55 25.25 -24.65 22.65 -29.9 22.4 -34.4 22.25 -36.4 22.7 -38.25 M17.3 -32.1 Q16.4 -24.45 19.6 -13.25 L21.55 -6.4 Q15.35 -3.9 12.0 -2.15 10.85 -3.9 9.4 -6.5 9.6 -6.75 9.45 -7.15 8.1 -12.95 8.2 -22.25 L8.4 -27.6 8.4 -27.9 Q13.45 -28.25 17.3 -32.1 M7.5 -34.5 Q12.6 -33.95 17.75 -36.55 15.85 -33.55 13.3 -31.85 10.4 -29.95 7.15 -30.0 6.5 -30.0 6.5 -29.45 5.65 -20.0 6.7 -12.1 1.55 -23.9 0.2 -37.75 2.9 -34.9 7.5 -34.5 M10.5 -1.35 Q6.65 0.9 4.55 2.55 -0.8 -7.1 -2.9 -18.85 -5.0 -30.45 -3.5 -41.65 L-1.75 -40.75 -1.5 -40.2 Q-1.95 -40.1 -1.95 -39.45 -1.1 -29.25 1.95 -19.6 5.2 -9.4 10.5 -1.35 M20.7 -15.75 Q17.85 -27.3 20.25 -35.15 20.65 -28.8 25.1 -21.25 32.15 -9.1 35.6 0.3 37.6 5.95 38.25 10.0 39.1 15.55 37.9 19.9 L28.9 22.05 23.3 22.95 Q25.85 19.4 26.35 13.45 26.7 8.7 25.75 3.45 25.1 -0.2 23.4 -6.1 21.2 -13.65 20.7 -15.75 M31.6 -13.1 Q34.05 -18.35 40.55 -20.35 46.05 -22.0 52.35 -20.95 L52.45 -20.95 55.7 -16.75 Q49.1 -17.75 43.35 -16.7 36.45 -15.35 32.55 -11.25 L31.6 -13.1 M34.5 -7.2 Q40.95 -9.15 48.6 -7.95 55.6 -6.85 62.05 -3.45 63.45 3.45 59.7 8.25 46.3 -4.15 36.3 -2.9 L34.5 -7.2 M57.2 -14.5 Q60.15 -9.95 61.45 -5.75 55.0 -9.0 48.15 -10.05 40.65 -11.2 34.2 -9.5 38.1 -13.5 44.9 -14.7 50.65 -15.7 56.95 -14.5 L57.2 -14.5 M49.75 2.75 Q53.9 5.25 58.6 9.5 54.7 13.4 46.65 16.8 50.45 9.4 49.75 2.75 M51.4 24.95 Q36.4 30.2 21.4 30.65 6.1 31.2 -5.25 26.55 L-4.65 24.8 Q-4.5 24.3 -4.95 23.7 -4.65 20.5 -5.05 15.05 -5.45 10.4 -7.3 4.05 L-10.5 -6.75 -11.4 -10.4 -10.9 -10.65 Q-10.2 -11.0 -10.65 -11.9 -11.15 -12.85 -11.85 -12.75 -13.8 -23.25 -11.25 -29.9 -11.0 -30.65 -11.9 -31.4 L-13.1 -31.35 Q-13.9 -29.35 -14.35 -26.25 L-15.6 -25.95 Q-16.95 -29.4 -17.4 -32.8 -17.9 -36.8 -16.95 -39.65 -15.55 -43.95 -10.75 -47.4 -8.35 -44.7 -5.5 -42.8 -7.05 -31.0 -4.85 -18.85 -2.55 -6.5 3.15 3.6 L3.15 3.65 Q-1.85 7.8 -2.05 12.35 -2.25 16.4 1.5 19.95 4.55 22.8 9.0 24.35 13.25 25.8 20.35 25.35 L21.05 25.3 21.3 25.3 Q28.55 24.8 37.7 22.3 45.05 20.35 49.9 18.15 L51.4 24.95 M43.3 18.0 L43.25 18.15 40.3 19.15 Q41.25 13.9 39.15 5.6 L37.1 -0.8 Q41.95 -1.35 47.7 1.6 L47.7 1.75 Q48.7 9.35 43.3 18.0 M54.7 46.9 L54.65 50.05 Q54.65 52.2 55.35 52.9 L55.45 53.0 55.3 53.15 Q53.4 55.75 49.05 57.85 L41.75 60.85 Q32.9 64.15 27.95 62.25 25.35 55.8 23.5 52.35 20.5 46.9 17.05 43.8 L15.85 43.85 Q15.5 44.7 16.25 45.35 L18.3 47.55 Q15.6 50.65 10.95 62.6 3.7 64.35 -3.35 63.4 -11.2 62.3 -16.55 58.05 -11.9 46.4 -5.85 28.3 4.55 32.6 20.05 32.8 35.05 33.0 51.9 27.25 53.95 37.85 54.7 46.9 M21.2 21.75 Q20.55 16.1 17.45 11.9 14.05 7.3 8.75 5.95 L7.3 3.5 9.15 2.2 Q14.25 -0.95 22.2 -4.15 24.05 2.8 24.3 7.85 24.8 17.15 21.2 21.75 M7.0 6.3 Q7.0 6.95 7.5 7.45 8.7 10.65 8.5 14.3 8.25 17.75 6.75 21.0 L6.65 21.25 Q5.1 20.5 3.55 19.35 -0.9 15.95 0.45 11.6 1.5 8.15 6.0 4.5 L7.0 6.3 M19.35 23.35 Q13.35 23.7 8.75 22.1 10.25 18.75 10.5 15.2 10.75 11.55 9.65 8.2 14.25 9.7 16.9 14.1 19.25 18.15 19.35 23.35 M37.05 64.55 L37.15 64.6 Q54.35 72.75 68.15 74.7 L69.6 79.8 70.15 82.0 70.75 83.95 Q66.25 81.9 60.1 80.3 L49.1 77.8 Q42.1 76.3 37.2 74.45 31.05 72.05 26.4 68.5 26.2 65.4 27.7 64.15 31.5 65.6 37.05 64.55 M14.05 68.3 Q8.6 73.3 -3.5 74.25 -8.45 70.2 -11.15 65.7 L-12.65 62.6 Q-7.1 65.35 -0.15 65.75 6.25 66.15 12.6 64.55 14.05 65.45 14.05 68.3 M13.35 84.1 L13.8 83.55 13.5 82.75 15.15 75.2 15.35 74.05 Q17.95 86.2 22.2 102.7 L22.5 103.85 Q22.65 104.25 20.95 105.05 L18.8 105.85 16.8 105.55 Q14.4 98.95 12.6 89.1 L12.05 88.3 13.15 84.15 13.35 84.1 M11.35 82.25 Q1.9 84.95 -7.25 84.15 -17.75 83.2 -24.65 77.8 L-23.6 71.3 -23.55 71.2 Q-20.05 75.65 -9.6 76.4 -6.45 76.65 -3.25 76.5 L-2.9 76.45 Q7.6 75.9 13.75 71.65 L12.55 77.1 11.35 82.25 M7.3 95.3 L5.3 99.55 Q2.4 92.2 -7.4 87.7 -14.85 84.3 -25.0 83.05 L-24.85 79.85 Q-19.4 83.85 -11.95 85.45 -5.25 86.9 2.35 86.2 6.7 89.95 7.35 94.85 L7.4 95.0 7.3 95.3 M8.5 92.05 Q7.15 88.75 4.55 85.95 L10.7 84.8 8.5 92.05 M30.35 83.15 L29.45 80.85 Q27.45 75.4 26.7 70.85 31.5 74.3 37.05 76.5 33.25 78.5 30.35 83.15 M31.5 85.85 Q34.95 79.45 39.95 77.85 L40.25 77.65 Q43.8 78.85 47.3 79.45 L52.4 80.4 Q46.0 84.3 42.8 87.15 37.85 91.5 36.05 96.4 L34.6 93.25 31.5 85.85 M67.45 72.55 Q59.3 71.35 50.35 68.15 57.2 65.35 61.4 60.1 64.85 65.2 67.45 72.55 M59.95 58.15 Q57.65 61.15 54.15 63.5 50.85 65.7 47.05 66.9 43.2 65.4 39.9 63.9 L42.7 62.95 Q48.25 60.85 50.5 59.75 54.95 57.5 57.05 54.75 L59.95 58.15 M55.0 81.6 L55.3 81.0 Q65.4 83.2 71.95 86.5 L72.7 86.6 74.95 88.75 Q70.45 89.0 65.65 91.45 61.0 93.75 58.0 97.1 L55.1 100.2 Q53.25 102.15 52.45 103.5 49.75 108.2 49.15 112.45 L45.75 109.7 Q46.3 95.6 52.75 83.0 L52.75 82.95 55.0 81.6 M49.15 85.25 Q44.4 96.3 43.8 107.7 L42.3 106.0 Q39.55 102.75 37.5 99.1 L37.55 98.9 Q38.7 94.75 42.05 91.1 44.7 88.25 49.15 85.25 M79.85 95.1 Q81.8 98.4 81.95 101.65 L81.2 101.05 Q79.6 100.05 77.0 100.75 L72.75 102.25 Q66.55 104.3 63.15 108.65 61.95 110.15 61.45 112.25 61.2 113.25 60.9 116.15 L56.8 115.7 Q54.6 115.35 52.8 114.55 L51.05 113.65 Q51.5 109.7 54.15 105.7 55.5 103.65 59.6 98.95 62.6 95.5 67.35 93.2 72.3 90.8 76.8 90.85 78.7 93.1 79.85 95.1 M80.05 102.8 Q81.3 103.05 81.65 104.6 81.0 107.05 79.25 109.1 76.45 112.3 71.9 114.3 67.35 116.3 63.0 116.25 L63.45 112.85 Q63.7 110.8 66.1 108.65 67.9 107.05 70.3 105.8 72.4 104.7 77.2 103.25 79.1 102.65 80.05 102.8 M-23.35 -12.85 Q-22.05 -10.9 -21.1 -10.35 -19.55 -9.4 -17.3 -9.3 L-13.1 -9.8 Q-12.45 -6.8 -10.05 0.95 -8.0 7.7 -7.4 11.85 -6.35 18.95 -7.1 24.5 -8.8 18.8 -10.5 11.1 L-13.35 -2.4 -14.25 -5.95 Q-14.95 -7.35 -17.05 -8.35 -18.75 -9.2 -20.35 -8.4 -21.8 -7.65 -22.5 -5.85 -25.3 -5.0 -27.75 -6.1 -30.15 -7.25 -31.4 -10.0 -32.8 -13.15 -31.25 -16.8 L-31.1 -17.25 -31.0 -17.35 Q-28.35 -19.95 -25.55 -16.2 L-23.35 -12.85 M-27.05 -20.1 Q-28.85 -21.0 -30.6 -20.4 -30.25 -21.3 -28.95 -21.45 L-26.8 -21.45 -22.2 -22.1 -14.55 -23.9 Q-14.8 -18.75 -13.55 -12.1 L-17.05 -11.65 -19.7 -11.8 Q-20.95 -12.15 -21.8 -13.4 L-24.15 -17.4 Q-25.35 -19.25 -27.05 -20.1 M-17.35 -6.65 Q-16.05 -6.45 -15.9 -5.6 L-14.2 2.6 -11.55 14.7 Q-10.0 21.45 -8.35 26.6 L-8.05 27.1 -7.85 27.35 -10.25 34.4 Q-12.0 29.85 -13.75 23.25 L-16.55 11.95 -20.6 -4.55 Q-20.2 -5.6 -19.3 -6.35 -18.6 -6.9 -17.35 -6.65 M-14.9 61.35 Q-13.35 67.9 -6.0 74.4 -15.1 74.7 -20.2 71.7 L-21.85 70.25 -22.9 68.75 Q-21.15 62.55 -17.5 59.45 L-14.9 61.35 M-33.9 91.4 L-33.6 91.5 Q-28.75 91.15 -23.5 93.15 -17.9 95.3 -14.7 100.2 -11.75 104.7 -11.15 111.0 L-11.1 111.2 -13.45 111.95 Q-14.3 108.1 -17.85 104.65 -20.8 101.8 -25.0 99.75 L-25.9 99.8 Q-31.4 95.85 -38.2 95.3 L-33.9 91.4 M-26.1 85.45 L-25.55 85.05 Q-19.55 85.65 -12.7 87.9 2.0 92.6 4.0 101.6 1.45 105.2 -2.6 107.45 -5.35 109.05 -9.25 110.55 -10.05 104.25 -13.1 99.5 -16.4 94.45 -21.9 91.85 -26.35 89.7 -31.4 89.4 L-26.1 85.45 M-22.0 103.5 Q-15.9 107.6 -15.3 112.45 L-22.55 113.85 -22.9 113.9 Q-21.0 111.55 -20.7 108.8 -20.4 105.9 -22.0 103.5 M-23.15 109.75 Q-23.95 111.95 -25.9 113.6 L-26.15 114.1 Q-31.85 114.15 -36.1 112.55 -41.4 110.5 -42.85 106.3 -44.2 102.5 -40.05 97.35 -34.3 97.2 -28.5 100.2 -25.3 101.85 -23.8 104.05 -21.95 106.75 -23.15 109.75" fill="#ffffff" fill-rule="evenodd" stroke="none"/>
  </g>
</svg>
