<?xml version="1.0" encoding="UTF-8" standalone="no"?>
<svg xmlns:ffdec="https://www.free-decompiler.com/flash" xmlns:xlink="http://www.w3.org/1999/xlink" ffdec:objectType="shape" height="165.15px" width="115.2px" xmlns="http://www.w3.org/2000/svg">
  <g transform="matrix(1.0, 0.0, 0.0, 1.0, 42.55, 48.0)">
    <path d="M39.7 -42.2 Q42.25 -39.5 45.35 -35.1 L50.5 -27.7 Q44.25 -28.4 39.0 -26.8 32.8 -24.85 30.05 -20.1 26.55 -26.0 25.0 -29.1 22.4 -34.35 22.15 -38.85 L22.25 -41.6 Q22.2 -43.8 22.85 -44.95 23.25 -45.75 24.3 -46.45 L24.3 -46.5 Q28.15 -48.4 32.6 -46.9 36.4 -45.6 39.7 -42.2 M20.0 -39.2 Q20.55 -33.1 24.85 -25.7 31.85 -13.8 35.35 -4.15 37.35 1.35 38.0 5.5 38.9 11.1 37.65 15.45 L28.7 17.6 23.05 18.5 Q25.65 14.95 26.1 9.0 26.45 4.3 25.5 -1.0 24.85 -4.6 23.2 -10.4 L20.5 -19.9 Q17.65 -31.25 19.8 -39.0 L20.0 -39.2 M16.85 -32.2 Q17.05 -25.95 19.35 -17.7 L21.35 -10.85 Q15.55 -8.55 11.75 -6.6 L8.65 -11.65 8.7 -11.65 8.9 -23.1 Q9.15 -28.7 9.5 -29.45 L11.45 -30.05 Q15.1 -30.9 16.85 -32.2 M17.15 -37.2 L16.9 -35.15 Q16.0 -33.75 14.2 -32.95 13.1 -32.45 11.0 -32.0 8.4 -31.35 7.9 -30.65 6.8 -29.25 6.7 -15.2 0.55 -27.05 -2.9 -40.8 -0.7 -35.8 5.8 -34.95 11.65 -34.25 17.15 -37.2 M8.95 -2.25 Q13.55 -5.2 21.95 -8.6 23.8 -1.7 24.1 3.4 24.55 12.75 21.0 17.3 20.35 11.65 17.2 7.45 13.8 2.85 8.55 1.5 L7.1 -0.95 8.95 -2.25 M10.3 -5.8 Q7.15 -4.05 4.3 -1.9 -0.85 -11.1 -3.5 -21.75 -6.15 -32.55 -5.8 -43.0 L-5.3 -42.7 Q-1.25 -25.75 6.7 -11.65 8.8 -7.95 10.3 -5.8 M34.25 -11.65 Q40.7 -13.6 48.35 -12.4 55.35 -11.3 61.8 -7.9 63.2 -1.0 59.45 3.8 46.05 -8.55 36.05 -7.4 L34.25 -11.65 M31.35 -17.55 Q33.8 -22.8 40.3 -24.8 45.8 -26.45 52.1 -25.4 L52.2 -25.4 52.7 -24.85 55.45 -21.2 Q48.9 -22.2 43.15 -21.15 36.25 -19.8 32.3 -15.7 L31.35 -17.55 M47.45 -2.7 Q48.45 4.8 43.05 13.55 L43.0 13.7 40.05 14.7 Q41.0 9.45 38.9 1.15 L36.85 -5.25 Q41.7 -5.8 47.45 -2.85 L47.45 -2.7 M56.7 -18.95 L56.95 -18.95 Q59.9 -14.4 61.2 -10.2 54.75 -13.45 47.9 -14.5 40.4 -15.65 33.95 -13.95 37.85 -17.95 44.65 -19.15 50.45 -20.15 56.7 -18.95 M46.4 12.35 Q50.2 4.95 49.5 -1.7 53.8 0.85 58.35 5.05 54.45 8.95 46.4 12.35 M48.85 20.6 Q35.4 27.25 19.45 28.2 3.4 29.1 -10.7 24.0 L-11.1 23.95 Q-9.6 17.55 -9.85 9.85 -8.85 10.75 -7.15 10.65 -5.4 10.5 -4.6 9.45 -3.65 8.25 -3.15 5.9 L-2.65 2.05 Q-1.95 -3.15 -1.7 -10.45 0.25 -5.6 2.9 -0.85 -2.1 3.4 -2.3 7.9 -2.45 11.95 1.3 15.5 4.35 18.35 8.75 19.9 13.0 21.4 20.1 20.9 L20.8 20.85 21.05 20.85 Q28.3 20.35 37.45 17.85 43.65 16.25 48.6 14.15 L49.4 20.6 48.85 20.6 M7.3 3.0 Q8.5 6.15 8.25 9.8 8.0 13.35 6.5 16.55 L6.4 16.8 Q4.85 16.05 3.3 14.9 -1.15 11.55 0.2 7.15 1.3 3.7 5.75 0.05 L6.8 1.85 Q6.7 2.5 7.3 3.0 M8.5 17.65 Q10.0 14.3 10.25 10.75 10.5 7.1 9.4 3.75 14.0 5.2 16.65 9.65 19.0 13.65 19.1 18.9 13.1 19.25 8.5 17.65 M11.25 41.0 Q10.6 41.55 11.4 42.35 L13.2 44.4 Q8.95 49.25 7.7 57.6 0.95 59.2 -5.3 59.05 -12.55 58.9 -18.0 56.4 -15.75 47.25 -12.75 31.5 L-11.75 26.2 -11.6 26.25 Q-11.0 26.25 -11.0 25.7 L-10.5 26.05 Q3.7 31.2 19.95 30.3 36.05 29.45 49.65 22.85 51.8 42.65 50.5 53.1 L45.6 56.1 40.45 58.65 Q28.75 63.0 22.6 59.95 20.4 53.65 18.6 50.0 15.95 44.5 12.65 41.25 11.9 40.45 11.25 41.0 M39.1 61.5 Q42.0 60.65 45.45 58.8 L51.5 55.25 54.35 58.35 55.45 59.65 55.0 59.85 Q52.7 62.65 49.75 64.6 46.55 66.65 43.2 67.35 L43.1 67.35 Q38.55 65.2 34.25 62.7 L39.1 61.5 M22.2 61.75 Q25.95 63.7 31.5 63.1 L31.65 63.2 Q47.95 72.9 61.5 76.15 L62.5 81.95 62.85 85.5 Q56.5 81.85 44.45 78.15 36.45 75.7 31.7 73.45 25.0 70.35 20.4 66.0 20.6 62.8 22.2 61.75 M20.5 68.3 Q25.0 72.25 30.35 75.05 26.4 76.55 23.0 81.0 21.65 76.15 20.95 71.75 L20.5 68.3 M12.25 69.1 Q12.5 73.0 11.7 78.7 4.15 81.8 -2.05 82.8 -9.8 84.0 -16.3 82.2 -21.85 80.65 -24.5 77.6 L-25.1 77.15 Q-25.35 73.5 -24.95 69.9 -22.2 73.5 -16.2 75.2 -11.65 76.5 -5.95 76.55 -0.65 76.6 4.15 74.7 9.6 72.55 12.25 68.55 L12.25 69.1 M11.8 64.35 Q10.45 68.45 5.6 71.3 1.25 73.8 -3.85 74.3 L-4.95 74.4 Q-10.15 71.15 -13.8 67.3 -18.25 62.55 -19.6 57.6 L-18.2 58.25 Q-15.5 59.4 -11.6 60.25 -1.65 62.4 10.25 59.3 11.3 61.3 11.8 64.35 M14.1 75.35 Q16.8 86.85 21.5 102.6 L21.8 103.7 20.5 104.75 18.7 105.65 16.1 105.45 Q13.65 98.95 11.9 89.35 13.45 82.8 14.1 75.4 L14.1 75.35 M10.5 85.2 L9.9 87.95 9.8 88.35 8.9 91.8 Q7.25 87.85 3.2 84.0 L11.25 81.4 10.5 85.2 M1.35 84.55 Q7.15 89.65 7.9 94.8 L5.85 99.6 Q2.95 92.2 -6.9 87.75 -14.4 84.3 -24.55 83.1 L-24.95 79.5 Q-22.15 82.3 -16.55 84.1 -8.85 86.6 1.25 84.45 L1.35 84.55 M23.85 83.85 Q25.65 81.15 27.85 79.3 30.5 77.15 33.2 76.55 L33.4 76.5 39.4 78.65 45.2 80.4 Q31.5 86.05 27.4 94.6 L24.3 85.45 23.85 83.85 M56.65 61.55 Q58.4 64.7 59.85 69.5 L61.05 74.05 Q53.95 72.25 46.3 68.85 52.15 67.0 56.6 61.65 L56.65 61.55 M51.0 96.05 Q46.6 98.95 43.45 102.85 39.9 107.25 38.85 111.95 L35.8 108.95 Q36.85 101.4 40.2 94.25 43.65 86.85 48.85 81.5 58.65 84.75 64.2 88.35 L64.85 88.5 66.85 90.85 Q62.15 90.75 58.85 92.3 L54.85 94.05 Q52.45 95.1 51.0 96.05 M55.5 96.4 L59.4 94.65 Q61.4 93.7 63.9 93.25 L68.5 93.05 Q72.85 99.15 72.65 104.4 L71.7 103.55 Q70.45 102.55 68.65 102.9 L65.0 103.5 Q62.7 103.9 61.55 104.55 L54.7 108.45 Q51.1 110.45 49.6 117.0 L47.9 116.7 Q44.2 115.85 40.75 113.45 41.65 109.1 44.85 104.9 47.65 101.25 51.7 98.4 53.1 97.45 55.5 96.4 M44.05 83.45 Q40.15 88.45 37.55 94.5 35.0 100.5 34.0 106.7 30.85 102.45 28.65 97.5 31.75 89.15 44.05 83.45 M72.0 107.55 Q70.9 110.45 67.8 112.65 65.1 114.55 61.7 115.45 L56.7 116.7 51.8 117.15 Q53.1 112.1 55.55 110.7 L61.0 107.55 Q63.15 106.4 67.6 105.45 L70.05 105.05 Q71.35 105.1 71.8 106.45 L72.0 107.55 M0.0 106.3 Q-2.1 107.7 -5.9 109.4 L-8.65 110.55 Q-9.45 104.25 -12.5 99.5 -15.8 94.5 -21.3 91.9 -25.65 89.8 -30.9 89.4 L-24.9 85.1 Q-18.95 85.7 -12.1 87.95 2.7 92.65 4.65 101.75 2.95 104.35 0.0 106.3 M-11.8 -47.8 L-11.6 -48.0 Q-10.05 -46.15 -7.8 -44.4 -8.4 -29.9 -3.5 -15.35 L-3.6 -14.9 Q-3.65 -11.05 -4.15 -3.7 -4.65 1.6 -5.15 4.2 L-5.95 7.1 Q-6.15 7.65 -6.5 7.95 L-7.95 8.3 Q-8.9 8.4 -8.65 8.85 -9.1 8.1 -9.95 8.2 -10.15 4.25 -10.85 -1.4 L-12.05 -11.0 Q-11.95 -11.35 -12.15 -11.7 -13.35 -22.85 -12.4 -30.05 -12.3 -30.85 -13.3 -31.45 -14.3 -32.05 -14.4 -31.1 L-14.8 -25.85 Q-15.3 -26.3 -15.8 -26.15 L-17.2 -25.8 Q-18.5 -29.05 -19.0 -32.4 -19.5 -36.15 -18.85 -39.0 -18.2 -41.55 -16.1 -44.0 -14.25 -46.2 -11.8 -47.8 M-24.9 -12.7 Q-23.6 -10.75 -22.65 -10.2 -20.9 -9.15 -18.35 -9.15 -16.05 -9.15 -13.8 -9.95 L-12.45 1.1 Q-11.8 7.4 -11.85 12.1 -14.2 3.65 -15.5 -5.65 -15.7 -6.95 -17.7 -7.95 -19.6 -8.9 -20.95 -8.6 -23.1 -8.1 -23.95 -5.7 -26.55 -4.85 -28.9 -5.75 -31.2 -6.7 -32.6 -9.1 -33.55 -10.75 -33.55 -12.8 -33.6 -14.7 -32.8 -16.55 L-32.65 -17.0 -32.6 -17.1 Q-29.9 -19.75 -27.1 -16.0 L-24.9 -12.7 M-28.65 -19.9 Q-30.4 -20.8 -32.15 -20.2 -31.85 -21.05 -30.55 -21.2 L-28.4 -21.2 Q-27.1 -21.2 -23.8 -21.95 L-14.85 -24.05 Q-14.85 -18.85 -14.1 -12.35 L-16.25 -11.7 -18.55 -11.5 -21.25 -11.65 Q-22.45 -12.0 -23.35 -13.25 L-25.75 -17.2 Q-26.95 -19.05 -28.65 -19.9 M-20.55 -6.2 L-18.15 -6.05 -17.5 -5.95 -17.35 -5.35 -16.9 -2.55 Q-15.15 8.05 -12.45 16.45 L-12.1 16.95 -12.8 21.75 -13.2 22.3 -14.05 26.75 -18.2 11.2 -22.05 -4.35 Q-21.65 -5.75 -20.55 -6.2 M-21.05 59.05 Q-18.15 67.3 -7.9 74.5 -15.4 74.35 -20.65 71.25 -22.45 70.15 -23.7 68.6 L-24.45 67.55 -24.6 67.25 Q-23.6 62.15 -21.05 59.05 M-36.1 94.05 L-33.35 91.45 -33.0 91.55 Q-28.15 91.2 -22.9 93.2 -17.3 95.35 -14.1 100.25 -11.15 104.75 -10.55 111.05 L-10.5 111.25 -12.85 112.0 Q-13.6 108.5 -16.65 105.3 -19.2 102.6 -23.0 100.55 -25.45 97.95 -29.3 96.4 -33.0 94.9 -36.85 94.8 L-36.1 94.05 M-32.15 97.55 Q-28.85 98.4 -25.95 100.3 L-25.4 100.75 Q-25.2 101.4 -24.7 101.7 L-24.05 102.0 Q-21.8 104.5 -22.25 107.8 -22.65 110.95 -25.3 113.65 L-25.55 114.15 Q-30.9 114.2 -35.05 112.7 -40.3 110.8 -42.05 106.9 -43.9 102.8 -38.95 97.05 L-32.15 97.55 M-20.3 109.1 Q-19.85 106.45 -20.75 104.0 -15.2 107.95 -14.7 112.5 -18.65 113.6 -22.45 113.95 -20.75 111.65 -20.3 109.1" fill="#ffffff" fill-rule="evenodd" stroke="none"/>
  </g>
</svg>
