<?xml version="1.0" encoding="UTF-8" standalone="no"?>
<svg xmlns:ffdec="https://www.free-decompiler.com/flash" xmlns:xlink="http://www.w3.org/1999/xlink" ffdec:objectType="shape" height="166.0px" width="108.8px" xmlns="http://www.w3.org/2000/svg">
  <g transform="matrix(1.0, 0.0, 0.0, 1.0, 43.55, 47.5)">
    <path d="M29.9 -46.2 Q32.65 -46.15 35.0 -45.35 38.8 -44.05 42.05 -40.65 44.6 -37.95 47.7 -33.55 L52.9 -26.15 Q46.65 -26.85 41.4 -25.25 35.2 -23.3 32.45 -18.55 28.95 -24.45 27.4 -27.55 25.2 -31.95 23.7 -37.35 22.95 -39.95 23.25 -41.35 23.85 -43.9 24.85 -45.0 L25.05 -45.35 Q26.9 -46.25 29.9 -46.2 M19.25 -31.3 Q19.25 -25.1 21.75 -16.15 L23.7 -9.3 Q17.5 -6.8 14.15 -5.05 L11.7 -9.0 Q10.0 -17.1 11.1 -27.8 L13.4 -28.2 Q16.4 -28.9 19.25 -31.3 M9.8 -29.9 Q9.15 -29.9 9.15 -29.35 8.15 -21.0 9.0 -13.9 3.25 -25.0 -0.2 -38.0 2.3 -35.95 6.1 -35.55 9.95 -35.15 13.95 -36.5 18.0 -37.9 20.75 -40.6 19.85 -38.2 19.4 -34.9 17.55 -32.65 15.15 -31.35 12.5 -29.9 9.8 -29.9 M0.45 -14.05 Q0.5 -14.55 0.05 -15.0 -4.95 -29.15 -5.3 -43.15 L-3.1 -41.95 -3.0 -41.75 -3.0 -41.4 Q1.35 -23.3 9.85 -8.75 L9.95 -8.3 Q10.1 -7.7 10.6 -7.45 L12.65 -4.25 Q9.2 -2.35 6.7 -0.35 L4.4 -4.75 Q2.2 -9.2 0.45 -13.9 L0.45 -14.05 M2.45 -4.75 Q3.8 -1.9 5.3 0.7 0.3 4.95 0.1 9.45 -0.1 13.5 3.65 17.05 6.7 19.9 11.15 21.45 15.4 22.95 22.5 22.45 L23.2 22.4 23.45 22.4 Q30.7 21.9 39.85 19.4 L41.75 18.85 42.7 25.15 Q29.4 31.55 13.2 31.2 -2.55 30.8 -16.3 24.15 L-16.3 24.1 -14.65 14.95 -13.95 10.3 Q-8.0 13.15 -4.35 12.3 -3.1 12.0 -2.4 9.4 L-1.65 5.7 Q-0.75 0.95 -0.2 -4.75 L0.2 -9.7 Q1.25 -7.15 2.45 -4.75 M19.0 -4.75 L24.35 -7.05 24.95 -4.75 Q26.25 0.75 26.45 4.95 27.0 14.2 23.35 18.85 22.75 13.2 19.6 9.0 16.2 4.4 10.9 3.05 L9.45 0.6 11.3 -0.7 Q14.45 -2.65 19.0 -4.75 M36.65 -10.1 Q43.1 -12.05 50.75 -10.85 57.75 -9.75 64.2 -6.35 L64.5 -4.75 Q65.2 1.1 61.85 5.35 53.6 -2.25 46.6 -4.75 42.3 -6.3 38.45 -5.85 L36.65 -10.1 M33.75 -16.0 Q36.2 -21.25 42.7 -23.25 48.2 -24.9 54.5 -23.85 L54.6 -23.85 57.85 -19.65 Q51.25 -20.65 45.5 -19.6 38.6 -18.25 34.7 -14.15 L33.75 -16.0 M36.95 -4.75 L37.75 -2.6 Q39.75 2.95 40.4 7.05 41.25 12.65 40.05 17.0 L31.05 19.15 25.45 20.05 Q28.0 16.5 28.5 10.55 28.85 5.8 27.9 0.55 L26.75 -4.75 25.55 -9.0 22.85 -18.65 Q20.0 -30.25 22.4 -38.1 22.8 -31.8 27.25 -24.15 33.5 -13.55 36.95 -4.75 M59.1 -17.4 L59.35 -17.4 Q62.3 -12.85 63.6 -8.65 57.15 -11.9 50.3 -12.95 42.8 -14.1 36.35 -12.4 40.25 -16.4 47.05 -17.6 52.8 -18.6 59.1 -17.4 M49.85 -1.15 Q50.85 6.35 45.45 15.1 L45.4 15.25 42.45 16.25 Q43.4 11.0 41.3 2.7 L39.25 -3.7 Q44.1 -4.25 49.85 -1.3 L49.85 -1.15 M48.8 13.9 Q52.6 6.5 51.9 -0.15 56.35 2.55 60.75 6.6 56.85 10.5 48.8 13.9 M19.05 11.2 Q21.4 15.2 21.5 20.45 15.5 20.8 10.9 19.2 12.4 15.85 12.65 12.3 12.9 8.65 11.8 5.3 16.4 6.75 19.05 11.2 M9.7 4.55 Q10.9 7.7 10.65 11.35 10.4 14.9 8.9 18.1 L8.8 18.35 5.7 16.45 Q1.25 13.1 2.6 8.7 3.7 5.25 8.15 1.6 L9.15 3.4 Q9.15 4.1 9.7 4.55 M8.65 44.15 Q4.5 48.85 4.25 56.65 -2.8 58.25 -9.2 57.9 -16.75 57.45 -21.65 54.3 -21.25 48.15 -19.65 40.05 L-16.7 26.0 Q-2.8 32.7 13.05 33.25 29.45 33.85 43.0 27.6 44.4 41.7 42.8 54.7 L42.75 55.4 Q35.05 60.1 25.9 60.95 23.65 61.15 21.05 60.85 18.2 60.45 16.65 59.65 15.35 54.15 14.0 50.6 12.1 45.6 9.45 42.4 8.75 41.55 8.1 42.1 7.5 42.65 8.2 43.5 L8.65 44.15 M28.45 63.1 Q35.8 62.05 43.25 57.9 43.65 59.1 45.4 62.65 L45.3 62.7 Q41.2 65.5 41.2 65.55 38.75 67.1 36.75 67.9 L36.7 67.9 Q33.5 66.2 28.45 63.1 M16.1 61.4 Q20.0 63.55 25.6 63.4 38.85 71.75 50.3 76.55 L51.7 82.95 51.85 85.7 Q45.6 82.55 41.75 80.9 41.2 80.2 40.55 80.35 38.8 79.6 34.25 77.9 L28.0 75.4 Q20.0 71.7 14.1 65.55 14.45 62.35 16.1 61.4 M14.05 67.9 Q18.3 71.95 23.6 75.05 19.5 76.4 15.85 80.6 14.45 74.3 14.15 69.55 L14.05 67.9 M9.95 66.0 Q10.6 69.7 10.35 74.1 L10.3 74.15 Q-3.95 83.95 -16.55 81.35 -19.1 80.8 -21.7 79.45 L-26.35 76.6 -26.5 73.3 -26.5 68.8 -23.4 70.95 Q-17.1 74.4 -5.75 73.9 -1.05 73.75 3.1 71.85 7.8 69.65 9.95 66.0 M9.0 62.5 Q7.75 66.6 3.15 69.15 -0.65 71.2 -5.55 71.75 L-6.6 71.8 Q-18.8 64.25 -21.75 56.3 -16.0 59.8 -7.7 60.05 -0.7 60.3 6.95 58.3 8.3 60.35 9.0 62.5 M16.55 83.55 Q19.25 79.8 22.9 77.95 23.85 77.4 25.15 77.0 L26.1 76.75 26.4 76.6 Q28.7 77.8 32.05 79.1 L37.85 81.25 Q24.15 86.15 19.55 94.4 L18.95 92.3 16.55 83.55 M3.35 80.8 Q6.9 79.2 10.15 77.1 9.85 80.75 8.95 85.45 L8.55 87.55 Q6.85 84.1 3.35 80.8 M7.85 90.85 Q6.65 95.7 4.85 99.55 1.9 92.2 -7.95 87.75 -15.45 84.35 -25.6 83.15 L-26.15 79.15 -25.6 79.15 Q-20.5 82.4 -16.3 83.4 -7.9 85.35 1.6 81.55 6.9 86.15 7.85 90.85 M20.7 97.35 Q24.15 89.3 36.75 84.15 32.65 88.9 29.7 94.85 26.8 100.65 25.45 106.85 22.65 102.65 20.65 97.4 L20.7 97.35 M55.6 90.05 L59.3 93.1 59.2 93.15 52.25 93.75 Q46.6 94.25 39.65 99.3 36.4 101.65 33.85 105.0 31.15 108.55 30.05 112.3 L27.2 109.2 Q28.55 101.8 32.25 94.9 36.0 87.85 41.4 82.75 45.7 84.6 53.0 88.3 53.55 88.6 55.6 90.05 M49.65 74.3 Q44.9 72.25 39.3 69.3 41.75 68.15 46.35 64.85 L49.65 74.3 M61.2 95.15 Q63.65 98.05 64.6 100.9 65.8 104.35 64.75 107.45 63.8 105.1 62.35 105.25 L54.9 106.0 Q49.55 106.5 45.75 109.7 42.0 112.9 40.5 118.05 35.85 117.05 31.9 113.9 33.75 106.9 41.2 101.1 47.4 96.35 53.45 95.8 L61.2 95.15 M63.4 110.05 Q60.75 113.9 54.85 116.3 49.6 118.45 44.7 118.5 L42.7 118.4 Q44.1 114.35 47.05 111.6 50.25 108.65 54.3 108.25 L62.65 107.4 Q63.4 107.35 63.4 109.85 L63.4 110.05 M-7.35 -44.2 Q-7.05 -29.25 -1.6 -14.3 L-2.35 -4.75 -3.1 1.35 -3.75 5.75 Q-4.3 8.3 -5.2 9.9 -6.3 11.85 -13.7 8.4 -12.55 0.7 -12.45 -4.75 L-12.45 -5.6 -12.2 -19.5 -12.3 -25.1 Q-12.6 -28.3 -13.5 -30.55 -13.85 -31.4 -14.85 -31.45 -15.85 -31.55 -15.4 -30.5 -14.6 -28.7 -14.35 -26.15 L-14.5 -26.1 -15.9 -25.75 Q-17.2 -29.0 -17.7 -32.35 -18.2 -36.1 -17.55 -38.95 -16.95 -41.35 -14.95 -43.75 -13.25 -45.85 -10.9 -47.5 L-7.3 -44.4 -7.35 -44.2 M-23.6 -12.65 Q-22.3 -10.7 -21.35 -10.15 -18.3 -8.3 -14.4 -9.8 L-14.45 -6.25 -14.8 -6.65 Q-18.45 -9.6 -21.0 -8.0 -22.1 -7.25 -22.65 -5.65 -25.25 -4.8 -27.6 -5.7 -28.3 -6.0 -28.9 -6.4 -30.3 -7.35 -31.3 -9.05 -32.25 -10.65 -32.25 -12.75 -32.25 -14.65 -31.5 -16.5 L-31.35 -16.95 -31.3 -17.05 Q-30.1 -18.2 -28.9 -18.15 -27.35 -18.05 -25.8 -15.95 L-23.6 -12.65 M-27.35 -19.85 L-28.9 -20.35 -30.85 -20.15 Q-30.55 -21.0 -29.25 -21.15 L-28.9 -21.15 -27.1 -21.15 -22.5 -21.9 -14.2 -23.85 -14.3 -12.4 -15.65 -11.7 -17.3 -11.45 -19.95 -11.6 Q-21.2 -11.95 -22.05 -13.2 L-24.45 -17.15 Q-25.65 -19.0 -27.35 -19.85 M-20.6 -4.65 L-20.55 -4.75 -19.85 -5.8 Q-18.4 -7.35 -15.6 -5.1 L-14.45 -5.0 -14.45 -4.75 Q-14.55 -0.6 -15.3 4.95 L-16.8 14.8 Q-18.6 8.05 -20.8 -4.3 L-20.6 -4.65 M-26.15 66.6 L-26.3 66.35 Q-25.7 60.65 -23.2 57.5 -19.9 64.9 -9.6 71.95 -16.9 71.85 -22.25 69.5 -25.35 68.1 -26.15 66.6 M-33.95 91.6 Q-29.15 91.25 -23.9 93.25 -18.3 95.4 -15.1 100.3 -12.15 104.8 -11.55 111.1 L-11.5 111.3 -13.85 112.05 Q-14.6 108.55 -17.65 105.35 -20.2 102.65 -24.0 100.6 -26.4 98.0 -30.25 96.45 -34.0 94.95 -37.85 94.85 L-34.35 91.5 -33.95 91.6 M-33.15 97.6 Q-29.8 98.45 -26.95 100.35 L-26.4 100.8 Q-26.2 101.45 -25.65 101.75 L-25.05 102.05 Q-22.8 104.55 -23.25 107.85 -23.65 111.0 -26.3 113.7 L-26.5 114.2 Q-31.7 114.3 -36.0 112.75 -41.3 110.8 -43.05 106.95 -44.9 102.85 -39.95 97.1 -36.65 96.65 -33.15 97.6 M-25.85 85.15 Q-19.85 85.8 -13.1 88.0 1.7 92.7 3.65 101.75 2.0 104.5 -1.3 106.6 -3.4 107.95 -7.6 109.75 L-9.65 110.6 Q-10.45 104.3 -13.5 99.55 -16.8 94.55 -22.3 91.95 -26.65 89.85 -31.9 89.45 L-25.85 85.15 M-21.75 104.05 Q-16.25 108.0 -15.65 112.55 -19.6 113.65 -23.45 114.0 -21.75 111.7 -21.25 109.15 -20.8 106.5 -21.75 104.05" fill="#ffffff" fill-rule="evenodd" stroke="none"/>
  </g>
</svg>
