<?xml version="1.0" encoding="UTF-8" standalone="no"?>
<svg xmlns:ffdec="https://www.free-decompiler.com/flash" xmlns:xlink="http://www.w3.org/1999/xlink" ffdec:objectType="shape" height="166.0px" width="106.5px" xmlns="http://www.w3.org/2000/svg">
  <g transform="matrix(1.0, 0.0, 0.0, 1.0, 39.65, 47.55)">
    <path d="M20.65 -36.2 Q20.55 -39.4 21.1 -40.6 L22.15 -42.7 Q22.6 -43.5 23.7 -44.25 26.85 -46.45 31.25 -44.55 34.8 -43.05 38.2 -39.55 40.75 -36.85 43.85 -32.45 L49.0 -25.05 Q42.75 -25.75 37.5 -24.15 31.3 -22.2 28.55 -17.45 25.05 -23.35 23.5 -26.45 20.9 -31.7 20.65 -36.2 M15.35 -29.55 Q15.55 -23.3 17.85 -15.05 L19.85 -8.2 Q14.05 -5.9 10.25 -3.95 8.85 -6.15 7.2 -9.15 L7.4 -20.55 Q7.65 -26.05 8.0 -26.8 L9.95 -27.4 Q13.6 -28.25 15.35 -29.55 M6.35 -35.45 Q11.25 -35.0 16.15 -37.2 15.55 -34.85 15.4 -32.5 14.5 -31.1 12.7 -30.3 11.6 -29.8 9.5 -29.35 6.9 -28.7 6.4 -28.0 5.4 -26.65 5.2 -13.2 -0.6 -26.0 -2.9 -41.9 L-2.85 -41.85 Q-1.75 -39.0 0.8 -37.35 3.1 -35.8 6.35 -35.45 M5.2 -9.0 L5.3 -9.0 Q7.2 -5.5 8.75 -3.15 5.6 -1.35 2.8 0.75 -2.6 -9.0 -5.1 -21.05 -7.5 -32.55 -6.9 -44.25 L-5.0 -43.0 Q-2.15 -23.45 5.2 -9.25 L5.2 -9.0 M29.85 -14.9 Q32.3 -20.15 38.8 -22.15 44.3 -23.8 50.6 -22.75 L50.7 -22.75 51.2 -22.2 53.95 -18.55 Q47.4 -19.55 41.65 -18.5 34.75 -17.15 30.8 -13.05 L29.85 -14.9 M32.75 -9.0 Q39.2 -10.95 46.85 -9.75 53.85 -8.65 60.3 -5.25 61.7 1.65 57.95 6.45 44.55 -5.9 34.55 -4.75 L32.75 -9.0 M33.85 -1.5 Q35.85 4.0 36.5 8.15 37.4 13.75 36.15 18.1 L27.2 20.25 21.55 21.15 Q24.15 17.6 24.6 11.65 24.95 6.95 24.0 1.65 23.35 -2.0 21.65 -7.9 19.45 -15.45 18.95 -17.55 16.1 -29.15 18.5 -37.0 18.9 -30.7 23.35 -23.05 30.35 -11.15 33.85 -1.5 M55.45 -16.3 Q58.4 -11.75 59.7 -7.55 53.25 -10.8 46.4 -11.85 38.9 -13.0 32.45 -11.3 36.35 -15.3 43.15 -16.5 48.95 -17.5 55.2 -16.3 L55.45 -16.3 M45.95 -0.05 Q46.95 7.45 41.55 16.2 L41.5 16.35 38.55 17.35 Q39.5 12.1 37.4 3.8 L35.35 -2.6 Q40.2 -3.15 45.95 -0.2 L45.95 -0.05 M48.0 0.95 Q52.3 3.5 56.85 7.7 52.95 11.6 44.9 15.0 48.7 7.6 48.0 0.95 M44.85 23.95 Q31.8 30.15 16.0 30.8 0.35 31.45 -13.0 26.5 L-12.8 25.8 Q-12.1 23.1 -11.95 19.75 L-11.9 13.5 -11.9 12.8 Q-10.45 13.5 -8.6 13.25 -6.65 13.0 -5.85 11.7 -5.0 10.4 -4.55 8.05 L-4.1 4.15 Q-3.45 -1.05 -3.2 -8.05 -1.25 -2.95 1.4 1.8 -3.6 6.05 -3.8 10.55 -3.95 14.6 -0.2 18.15 2.85 21.0 7.25 22.55 11.5 24.05 18.6 23.55 L19.3 23.5 19.55 23.5 Q26.8 23.0 35.95 20.5 L43.45 18.2 44.85 23.95 M47.0 39.15 L47.6 48.0 47.5 50.65 Q47.4 52.45 47.55 53.35 46.75 55.85 42.1 57.55 L35.0 59.6 Q31.0 60.75 26.95 60.85 22.2 60.95 19.5 59.4 18.6 56.3 15.75 50.5 12.95 44.9 12.4 44.9 L10.7 43.15 9.5 43.2 Q9.15 44.0 9.9 44.7 L11.15 46.0 Q7.7 50.5 8.1 56.75 1.05 58.35 -5.35 58.0 -12.9 57.55 -17.75 54.4 -17.05 44.15 -14.35 32.05 -14.1 31.9 -14.2 31.4 L-13.45 28.3 Q0.45 33.5 16.15 33.0 31.9 32.5 45.3 26.35 46.3 31.6 47.0 39.15 M5.8 5.65 Q7.0 8.8 6.75 12.45 6.5 16.0 5.0 19.2 L4.9 19.45 Q3.35 18.7 1.8 17.55 -2.65 14.2 -1.3 9.8 -0.2 6.35 4.25 2.7 L5.3 4.5 Q5.2 5.15 5.8 5.65 M7.45 0.4 Q12.05 -2.55 20.45 -5.95 22.3 0.95 22.6 6.05 23.05 15.4 19.5 19.95 18.85 14.3 15.7 10.1 12.3 5.5 7.05 4.15 L5.6 1.7 7.45 0.4 M8.75 13.4 Q9.0 9.75 7.9 6.4 12.5 7.85 15.15 12.3 17.5 16.3 17.6 21.55 11.6 21.9 7.0 20.3 8.5 16.95 8.75 13.4 M35.25 61.9 L42.55 59.9 Q47.25 58.25 48.9 55.8 L50.0 57.35 51.65 60.15 40.6 68.6 Q35.6 65.85 30.95 62.8 L35.25 61.9 M7.05 69.25 Q3.25 71.3 -1.65 71.85 L-2.75 71.9 Q-14.9 64.4 -17.9 56.4 -12.1 59.9 -3.8 60.15 3.2 60.4 10.85 58.4 12.2 60.45 12.9 62.6 11.65 66.7 7.05 69.25 M19.0 61.15 Q22.65 63.2 28.2 63.05 43.95 73.75 57.4 77.8 57.95 81.55 58.3 87.35 53.85 84.4 47.5 81.7 44.75 80.55 36.1 77.35 24.2 73.05 16.8 65.15 17.2 62.1 19.0 61.15 M14.25 74.2 L14.2 74.25 Q-0.05 84.05 -12.65 81.45 -15.2 80.9 -17.8 79.55 L-22.45 76.7 -22.65 73.4 -22.6 68.9 Q-21.7 69.8 -19.5 71.05 -13.2 74.5 -1.85 74.0 2.8 73.85 6.95 71.95 11.7 69.75 13.8 66.1 14.5 69.7 14.25 74.2 M17.95 76.9 Q16.7 70.3 16.7 67.4 20.85 71.65 26.3 74.9 22.15 76.3 18.65 80.4 L17.95 76.9 M11.75 90.95 Q10.55 95.8 8.75 99.65 5.8 92.3 -4.05 87.85 -11.55 84.45 -21.7 83.25 L-22.25 79.25 -21.7 79.25 Q-16.6 82.5 -12.4 83.5 -4.05 85.4 5.5 81.65 10.8 86.25 11.75 90.95 M12.85 85.55 L12.45 87.65 Q10.8 84.3 7.2 80.9 10.75 79.35 14.05 77.2 L12.85 85.55 M27.9 76.85 L28.9 76.55 29.15 76.45 Q31.65 77.8 34.25 78.7 L41.75 81.35 Q34.5 83.8 30.7 86.05 24.95 89.35 22.25 94.2 L22.1 93.65 21.25 90.7 19.3 83.3 Q21.95 79.75 25.7 77.75 L27.9 76.85 M29.2 89.85 Q32.4 87.4 37.4 85.4 L32.1 95.75 Q29.25 101.7 28.1 106.65 L25.6 102.35 23.3 97.2 23.35 97.15 Q25.25 92.9 29.2 89.85 M55.1 67.65 Q56.4 71.3 57.1 75.75 50.0 73.55 42.95 69.85 L52.8 62.3 55.1 67.65 M43.35 98.6 L37.05 104.7 Q33.8 108.35 32.65 112.1 L29.8 109.0 Q30.95 103.35 34.35 96.35 L40.5 84.4 40.55 84.2 45.1 82.65 Q53.6 86.0 59.15 90.0 L59.65 90.2 61.5 92.3 61.9 92.85 56.35 93.2 Q47.55 94.75 43.35 98.6 M63.35 95.05 Q66.0 99.35 66.7 103.55 66.95 104.95 66.8 106.6 L66.25 106.0 Q64.85 104.8 62.4 105.0 L58.25 105.7 Q52.2 106.6 48.2 109.6 46.4 110.95 45.25 113.1 44.55 114.35 43.45 117.35 L43.4 117.7 41.15 117.05 Q37.7 116.1 34.5 113.7 35.5 110.1 38.5 106.7 L44.4 100.9 Q47.75 97.75 53.2 96.05 58.8 94.3 63.35 95.05 M65.95 109.5 Q64.3 113.25 59.7 115.55 54.35 118.3 47.65 118.45 L45.5 118.25 46.75 114.95 Q47.5 112.85 50.1 111.1 52.1 109.75 54.75 108.8 56.6 108.2 62.25 107.3 L64.3 107.1 Q65.35 107.2 65.75 108.3 L65.95 109.5 M2.6 106.7 Q0.45 108.05 -3.7 109.85 L-5.75 110.7 Q-6.55 104.4 -9.6 99.65 -12.9 94.65 -18.4 92.05 -22.75 89.95 -28.0 89.55 L-22.0 85.25 Q-16.05 85.85 -9.2 88.1 5.5 92.8 7.55 101.85 5.85 104.6 2.6 106.7 M-10.75 -47.55 L-8.85 -45.75 Q-9.85 -28.8 -4.9 -12.85 L-5.1 -12.25 Q-5.15 -7.45 -5.7 -0.45 -6.15 4.65 -6.85 7.75 -7.2 9.3 -7.7 10.25 -8.1 11.0 -9.6 11.15 L-11.8 10.85 -11.95 10.8 Q-12.0 -2.8 -13.2 -23.95 -12.5 -24.35 -13.3 -25.3 L-13.5 -28.85 Q-13.55 -29.7 -14.55 -30.05 -15.55 -30.4 -15.5 -29.35 L-15.3 -25.8 -18.2 -25.1 Q-21.25 -34.5 -18.75 -39.45 -16.65 -43.65 -10.75 -47.55 M-27.55 -20.2 Q-29.3 -21.15 -31.05 -20.65 -30.7 -21.4 -29.7 -21.55 L-27.8 -21.55 -23.35 -21.95 -15.15 -23.55 -14.6 -12.4 -16.15 -11.65 -17.9 -11.4 -20.6 -11.7 Q-21.75 -12.1 -22.55 -13.4 L-24.8 -17.45 Q-25.95 -19.3 -27.55 -20.2 M-31.65 -17.55 L-31.6 -17.6 Q-28.9 -20.05 -26.25 -16.4 L-22.2 -10.45 Q-19.45 -8.0 -14.45 -9.9 L-14.35 -7.15 Q-16.7 -8.75 -19.15 -8.45 -21.7 -8.1 -23.4 -5.85 -25.75 -5.15 -27.9 -5.9 -30.15 -6.65 -31.45 -8.65 -32.85 -10.75 -32.6 -13.2 L-31.65 -17.55 M-14.3 -4.9 L-13.9 12.3 -13.95 20.95 -14.2 22.7 -14.8 24.8 -15.35 26.8 -18.7 11.3 -21.6 -4.3 Q-20.2 -6.2 -18.2 -6.35 -16.2 -6.55 -14.4 -5.0 L-14.3 -4.9 M-5.7 72.05 Q-13.05 71.95 -18.35 69.6 -21.45 68.25 -22.3 66.7 L-22.45 66.45 Q-21.85 60.8 -19.3 57.6 -16.0 65.0 -5.7 72.05 M-29.25 97.7 Q-25.95 98.55 -23.05 100.45 L-22.5 100.9 -21.8 101.85 -21.15 102.15 Q-18.9 104.65 -19.35 107.95 -19.75 111.1 -22.4 113.8 L-22.65 114.3 Q-27.8 114.4 -32.1 112.85 -37.4 110.9 -39.15 107.05 -41.0 102.95 -36.05 97.2 L-29.25 97.7 M-33.95 94.95 L-30.45 91.6 -30.1 91.7 Q-25.25 91.35 -20.0 93.35 -14.4 95.5 -11.2 100.4 -8.25 104.9 -7.65 111.2 L-7.6 111.4 -9.95 112.15 Q-10.7 108.65 -13.75 105.45 -16.3 102.75 -20.1 100.7 -22.5 98.1 -26.35 96.55 -30.1 95.05 -33.95 94.95 M-17.85 104.15 Q-12.35 108.1 -11.75 112.65 -15.8 113.75 -19.55 114.1 -17.85 111.8 -17.4 109.25 -16.95 106.6 -17.85 104.15" fill="#ffffff" fill-rule="evenodd" stroke="none"/>
  </g>
</svg>
