<?xml version="1.0" encoding="UTF-8" standalone="no"?>
<svg xmlns:ffdec="https://www.free-decompiler.com/flash" xmlns:xlink="http://www.w3.org/1999/xlink" ffdec:objectType="shape" height="165.1px" width="112.7px" xmlns="http://www.w3.org/2000/svg">
  <g transform="matrix(1.0, 0.0, 0.0, 1.0, 32.75, 47.65)">
    <path d="M21.4 -36.25 Q21.2 -38.8 21.85 -41.0 L22.55 -42.85 24.15 -44.35 Q27.95 -46.0 32.25 -44.45 35.95 -43.15 39.25 -39.8 41.8 -37.25 44.95 -33.15 L50.2 -26.15 Q43.9 -26.65 38.7 -24.85 32.55 -22.7 30.0 -17.8 26.3 -23.55 24.65 -26.55 21.85 -31.75 21.4 -36.25 M5.2 -29.35 Q4.6 -22.55 4.95 -17.0 0.5 -27.7 -1.0 -39.5 1.65 -36.1 6.8 -35.55 11.5 -35.1 16.3 -37.15 14.75 -34.1 12.05 -32.15 9.2 -30.15 5.85 -29.9 5.2 -29.9 5.2 -29.35 M7.15 -27.85 Q12.8 -28.6 16.3 -32.9 16.15 -28.35 17.4 -22.65 18.25 -18.65 20.1 -13.0 L21.65 -8.25 Q16.3 -5.9 12.25 -3.65 9.45 -7.55 7.4 -11.7 6.9 -15.7 6.9 -21.4 L7.1 -26.75 7.15 -27.85 M10.8 -2.8 Q7.6 -0.85 4.95 1.3 -0.8 -8.3 -3.35 -20.15 -5.85 -31.8 -4.7 -43.2 L-2.4 -41.95 -2.15 -41.5 -2.2 -41.5 Q-3.05 -41.5 -1.4 -32.25 0.55 -21.25 5.4 -11.8 5.65 -10.25 10.8 -2.8 M34.55 -9.5 Q40.95 -11.7 48.6 -10.8 55.65 -9.95 62.2 -6.8 63.9 0.0 60.3 4.9 46.5 -6.75 36.5 -5.35 L34.55 -9.5 M35.9 -2.1 Q38.15 3.4 38.95 7.55 40.05 13.15 38.95 17.55 L29.0 20.1 24.5 21.0 Q26.9 17.35 27.15 11.4 27.35 6.7 26.2 1.5 25.4 -2.15 23.5 -8.0 21.0 -15.55 20.45 -17.6 17.2 -29.0 19.25 -37.0 19.8 -30.85 24.6 -23.25 32.0 -11.75 35.9 -2.1 M40.1 -22.85 Q45.5 -24.75 51.85 -23.95 L52.0 -23.95 55.35 -19.9 43.05 -19.35 Q36.25 -17.75 32.45 -13.5 L31.4 -15.35 Q33.7 -20.65 40.1 -22.85 M56.95 -17.7 Q59.95 -13.25 61.5 -9.15 54.9 -12.1 48.05 -12.9 40.5 -13.75 34.1 -11.8 37.65 -15.8 44.5 -17.3 L56.65 -17.7 56.95 -17.7 M48.1 -1.1 Q49.35 6.3 44.3 15.3 L44.2 15.7 41.3 16.75 Q42.1 11.3 39.65 3.15 L37.4 -3.25 Q41.9 -4.0 48.1 -1.1 M51.1 15.85 Q42.95 24.65 26.55 29.0 14.5 32.1 4.25 27.95 1.35 26.8 -1.2 25.0 L-2.65 23.95 -3.15 23.5 -3.45 23.3 -3.25 21.75 Q-2.75 21.75 -2.75 21.15 -2.2 12.05 -6.65 -2.05 -12.1 -19.25 -12.85 -24.85 -12.55 -25.0 -12.6 -25.45 L-13.0 -26.25 -13.25 -31.95 Q-13.2 -32.75 -14.2 -33.35 -15.2 -33.9 -15.25 -32.95 L-15.0 -27.05 -18.5 -27.5 Q-18.85 -33.85 -17.25 -38.9 -15.25 -45.5 -10.35 -47.6 L-10.3 -47.65 -6.65 -44.45 -6.65 -44.3 Q-7.9 -32.3 -5.25 -20.05 -2.55 -7.55 3.65 2.45 -1.25 6.85 -1.25 11.25 -1.3 15.4 2.55 18.75 5.55 21.35 10.2 22.95 14.15 24.35 21.6 23.55 L22.35 23.45 22.7 23.4 Q30.2 22.6 39.15 19.75 46.5 17.35 50.85 15.25 L51.1 15.85 M59.2 6.25 Q54.95 10.9 47.4 14.35 51.1 6.6 50.15 -0.05 54.4 2.3 59.25 6.25 L59.2 6.25 M57.05 41.85 L57.5 48.1 57.5 50.2 57.6 52.4 Q56.65 54.5 53.45 56.3 51.8 57.25 48.2 58.65 36.25 63.25 29.95 60.2 27.15 49.95 21.6 45.65 20.7 44.95 20.35 45.75 20.0 46.6 20.8 47.2 L22.35 48.6 Q21.4 51.6 21.3 57.65 L13.6 58.5 5.8 58.3 Q-0.9 58.2 -5.9 56.15 -6.35 51.65 -5.95 45.9 L-5.0 35.65 -3.75 25.25 Q1.4 29.8 9.1 31.5 L23.4 31.95 Q31.3 30.7 38.7 27.3 46.85 23.6 52.05 18.3 55.55 27.8 57.05 41.85 M22.35 19.95 Q21.5 14.3 18.2 10.15 14.65 5.7 9.3 4.55 L7.8 2.2 Q9.4 0.9 10.9 0.0 15.3 -2.9 22.35 -6.0 24.6 1.15 24.95 6.25 25.7 15.35 22.35 19.95 M7.6 5.0 Q7.6 5.75 8.15 6.15 9.45 9.25 9.35 12.9 9.25 16.4 7.85 19.65 L7.8 19.95 4.05 17.75 Q-0.15 14.5 1.2 10.25 2.25 6.9 6.5 3.25 L7.6 5.0 M17.7 12.4 Q20.25 16.3 20.55 21.5 14.35 22.1 9.85 20.7 11.2 17.35 11.35 13.75 11.5 10.1 10.3 6.8 14.95 8.15 17.7 12.4 M24.2 59.15 Q24.6 59.1 24.75 62.55 L24.5 63.0 Q23.1 67.8 18.0 70.45 16.05 71.45 8.35 73.75 L8.15 73.8 Q2.75 70.7 -1.0 67.05 -5.7 62.45 -7.2 57.6 L-4.45 58.6 Q-0.5 59.95 5.55 60.4 L13.6 60.55 22.1 59.8 Q23.05 60.25 23.25 59.45 L24.2 59.15 M29.5 62.0 Q33.3 63.9 38.85 63.3 L38.95 63.4 Q55.35 73.1 68.7 76.3 L69.55 80.55 70.35 85.75 Q65.45 82.9 58.7 80.55 54.4 79.0 46.5 76.8 41.4 75.35 36.5 72.65 31.6 69.9 27.75 66.25 27.95 63.0 29.5 62.0 M27.85 68.6 Q32.25 72.4 37.7 75.2 33.75 76.75 30.35 81.2 28.65 75.1 28.05 70.3 L27.85 68.6 M13.4 74.8 L18.5 73.1 Q22.05 72.1 24.95 67.35 25.15 74.25 24.95 75.75 L24.8 77.45 Q20.65 79.35 15.8 80.65 L6.45 82.7 Q2.15 83.5 -3.0 82.15 -8.55 80.7 -11.3 77.7 L-11.8 77.35 -11.95 74.2 -11.95 70.85 Q-8.85 74.2 -2.3 75.4 L8.2 75.9 Q10.35 75.8 13.4 74.8 M6.35 89.3 Q12.5 92.75 13.85 93.8 17.55 96.65 18.75 100.8 17.35 102.95 16.05 104.15 14.1 105.9 11.1 107.45 L5.7 109.9 4.3 104.35 Q3.55 101.3 1.1 98.3 -1.1 95.7 -4.0 93.75 -9.85 89.9 -17.25 89.75 L-11.45 85.25 -5.25 86.05 0.7 87.25 Q4.15 88.1 6.35 89.3 M14.9 83.5 L15.35 84.15 Q20.85 88.7 21.7 93.65 21.0 96.3 19.9 98.65 18.35 95.1 14.8 92.4 12.9 90.95 7.6 88.0 0.6 84.15 -11.2 83.2 L-11.65 79.75 Q-6.45 84.35 3.35 84.85 8.7 85.15 14.9 83.5 M34.0 92.65 L31.2 84.1 Q32.95 81.45 35.2 79.55 37.75 77.4 40.5 76.75 L40.75 76.65 42.7 77.5 Q46.25 78.95 52.2 80.7 38.8 86.4 34.8 94.8 L34.0 92.65 M22.55 90.55 Q20.7 86.6 16.6 83.0 20.25 81.95 24.5 80.15 23.95 84.95 22.55 90.55 M68.2 74.15 Q61.05 72.45 52.95 68.75 56.75 66.7 63.3 61.1 66.4 66.7 68.2 74.15 M59.0 54.75 L62.1 59.0 56.55 63.55 Q53.3 66.0 50.55 67.3 L50.3 67.55 41.6 62.9 48.5 61.0 Q56.6 58.3 59.0 54.75 M44.95 94.7 Q42.35 100.65 41.35 106.9 38.3 102.75 36.0 97.7 39.1 89.35 51.35 83.65 47.5 88.65 44.95 94.7 M56.05 81.85 Q66.0 84.95 71.3 88.3 L72.1 88.55 74.2 91.0 Q65.35 90.6 56.75 97.0 48.1 103.45 46.2 112.05 L43.2 109.1 Q44.2 101.6 47.5 94.5 50.9 87.2 56.05 81.85 M75.8 93.15 L77.85 96.45 Q80.15 100.8 79.95 104.5 L79.1 103.65 Q77.85 102.7 75.45 103.1 L71.65 104.0 Q59.45 106.65 56.95 117.2 52.25 116.5 48.15 113.55 49.45 107.35 55.3 101.6 59.25 97.7 64.75 95.3 70.8 92.6 75.8 93.15 M78.25 109.7 Q75.9 113.3 70.6 115.4 66.2 117.15 61.15 117.45 L59.15 117.45 Q61.4 109.5 69.85 106.8 L75.45 105.5 Q79.0 104.7 79.35 107.5 L78.25 109.7 M3.95 110.6 L1.6 111.55 Q0.65 108.1 -2.5 105.05 -5.15 102.5 -9.0 100.55 -11.55 98.05 -15.45 96.65 -19.15 95.3 -23.05 95.35 L-19.65 91.9 -19.35 91.95 Q-12.15 91.25 -5.65 94.8 -1.4 97.1 0.95 101.65 2.45 104.55 3.95 110.6 M-28.1 -27.2 L-25.9 -27.15 -23.6 -26.2 Q-21.35 -25.5 -14.7 -24.95 -13.95 -19.55 -11.7 -12.45 L-12.0 -12.5 -16.05 -12.95 -19.95 -14.15 Q-22.05 -14.75 -22.8 -17.7 L-23.75 -22.65 Q-24.25 -24.4 -25.55 -25.5 -26.9 -26.55 -28.55 -26.65 L-28.1 -27.2 M-25.4 -21.55 L-23.65 -14.95 Q-23.0 -13.7 -21.55 -12.85 -20.55 -12.35 -18.7 -11.8 L-15.05 -10.7 -11.3 -10.4 -11.05 -10.45 -10.0 -7.1 -10.4 -7.25 -18.25 -8.9 Q-19.3 -10.8 -21.5 -11.75 -22.7 -12.25 -24.0 -11.75 -25.15 -11.3 -26.05 -10.25 -31.25 -10.45 -32.45 -15.6 -33.65 -20.7 -29.85 -24.1 L-29.8 -24.15 Q-26.65 -25.55 -25.4 -21.55 M-21.6 -9.65 Q-19.6 -9.65 -19.85 -8.0 L-20.65 -2.55 Q-22.1 7.6 -23.0 16.5 -24.3 29.15 -22.8 37.25 -22.05 41.3 -20.0 45.8 L-18.05 50.15 -17.85 50.65 Q-17.1 52.9 -17.25 55.2 -17.3 56.0 -16.3 56.55 -15.3 57.15 -15.25 56.2 -15.05 53.25 -15.85 50.75 -14.65 48.75 -11.9 46.05 -8.75 42.95 -7.75 41.6 L-8.15 49.5 Q-12.85 54.2 -14.2 59.05 -15.4 63.25 -16.7 72.15 L-19.0 87.95 -19.0 88.15 Q-23.1 91.7 -25.25 94.15 -23.25 81.1 -21.7 65.8 -20.85 58.0 -20.9 54.6 -20.95 53.0 -22.1 50.85 L-24.15 47.4 Q-27.55 40.95 -27.8 31.75 -27.9 27.6 -26.8 15.5 L-24.4 -8.5 Q-23.45 -9.65 -21.6 -9.65 M-10.15 -5.2 Q-9.65 -5.1 -9.45 -5.4 -6.0 5.0 -5.1 11.55 -11.3 8.2 -20.0 8.65 L-17.9 -6.8 -10.15 -5.2 M-19.35 13.4 Q-20.4 18.15 -18.1 22.15 -17.0 24.1 -14.75 25.05 -15.6 26.45 -16.75 27.3 -17.75 28.05 -19.3 27.75 -20.9 27.45 -21.25 26.35 L-21.65 25.8 Q-21.5 21.15 -20.25 10.85 -14.65 10.35 -9.55 11.75 -10.0 12.3 -9.4 13.05 -8.65 14.05 -9.8 15.5 -10.75 16.7 -12.25 17.5 -13.05 17.95 -12.45 18.85 -11.85 19.75 -11.05 19.55 L-9.0 19.4 Q-8.6 19.5 -8.8 20.2 L-9.3 21.25 Q-10.2 23.25 -12.35 23.55 -15.65 23.9 -16.95 20.5 -18.1 17.65 -17.35 14.45 -17.15 13.65 -18.1 13.05 -19.1 12.45 -19.35 13.4 M-8.5 17.6 Q-6.1 15.0 -7.95 12.25 L-4.85 13.7 Q-4.55 17.1 -4.75 20.15 L-4.75 20.2 Q-5.2 20.2 -5.25 20.75 L-6.5 30.25 -6.8 30.35 -7.65 30.25 Q-6.1 27.95 -7.2 24.25 L-7.8 23.5 Q-6.85 22.15 -6.75 20.7 -6.65 19.05 -7.75 18.1 L-8.5 17.6 M-9.0 24.75 Q-8.5 26.75 -9.1 28.1 -9.75 29.65 -11.75 29.95 L-13.45 29.95 -13.85 29.9 -15.15 29.5 -15.35 29.3 Q-13.7 28.2 -12.45 25.65 -11.0 25.75 -9.7 25.15 L-9.0 24.75 M-7.9 71.4 Q-10.75 70.0 -11.75 68.2 -11.15 62.4 -8.6 59.0 -5.4 67.25 5.3 74.1 L-1.65 73.4 Q-5.1 72.85 -7.9 71.4 M-17.95 98.0 Q-14.4 98.85 -11.4 100.9 L-10.65 101.8 -9.85 102.15 Q-7.55 104.55 -7.95 107.9 -8.3 111.0 -10.75 113.75 L-10.95 114.25 Q-16.5 114.55 -20.95 113.0 -26.65 111.1 -28.05 106.85 -29.35 103.0 -25.1 97.7 L-17.95 98.0 M-6.6 103.95 Q-0.9 107.6 -0.2 112.15 -3.95 113.35 -7.95 113.95 -6.35 111.55 -5.95 109.0 -5.55 106.35 -6.6 103.95" fill="#ffffff" fill-rule="evenodd" stroke="none"/>
  </g>
</svg>
