<?xml version="1.0" encoding="UTF-8" standalone="no"?>
<svg xmlns:ffdec="https://www.free-decompiler.com/flash" xmlns:xlink="http://www.w3.org/1999/xlink" ffdec:objectType="shape" height="162.05px" width="104.3px" xmlns="http://www.w3.org/2000/svg">
  <g transform="matrix(1.0, 0.0, 0.0, 1.0, 43.05, 44.05)">
    <path d="M22.75 -44.05 Q24.65 -39.15 25.2 -30.15 25.85 -19.75 26.75 -16.05 27.8 -11.7 30.1 -5.95 L34.15 3.85 Q36.55 9.65 37.2 11.8 38.6 16.6 37.85 20.15 30.7 22.75 23.4 24.0 25.9 19.85 25.7 13.8 25.6 10.8 24.4 6.1 L22.55 -1.6 Q21.6 -7.05 21.7 -14.75 L22.05 -27.95 22.05 -30.7 22.3 -30.9 22.05 -31.25 Q21.95 -39.05 21.55 -43.95 L22.75 -44.05 M19.7 -42.55 L20.0 -31.65 Q15.0 -27.95 9.7 -27.5 7.3 -27.25 6.25 -21.0 5.45 -16.25 5.5 -8.7 -0.55 -20.25 -3.2 -35.15 -0.35 -33.1 3.75 -33.1 8.6 -33.1 13.1 -35.7 17.8 -38.35 19.7 -42.55 M32.2 -40.8 Q36.05 -38.95 40.6 -33.95 44.9 -29.1 47.9 -23.65 41.95 -24.0 37.1 -22.4 31.2 -20.5 28.65 -16.2 27.9 -19.7 27.15 -30.1 26.55 -38.9 24.75 -43.8 26.9 -43.3 32.2 -40.8 M-9.9 -40.2 L-9.05 -39.8 Q-9.4 -35.5 -9.15 -30.3 -11.9 -31.8 -12.55 -34.05 -13.15 -36.0 -12.2 -38.35 L-9.9 -40.2 M-5.55 -37.7 Q-2.6 -19.0 5.55 -5.15 L5.55 -5.1 Q7.25 -2.25 9.25 0.55 6.05 2.55 3.5 4.75 -0.65 -1.9 -3.3 -9.85 -5.95 -17.65 -6.8 -25.85 -6.65 -28.5 -7.1 -29.15 L-7.1 -29.2 Q-7.4 -34.25 -7.05 -38.9 L-6.05 -38.5 -5.55 -37.7 M-14.8 -36.15 Q-14.85 -34.85 -14.5 -33.45 -13.45 -30.05 -9.0 -28.0 L-8.8 -26.2 -9.25 -21.0 Q-9.95 -14.8 -9.95 -11.8 -9.95 -5.2 -8.75 6.2 -8.1 12.7 -8.25 13.65 -12.9 13.5 -16.55 9.85 -16.65 7.05 -17.05 4.6 -17.75 0.3 -20.3 -9.75 -21.8 -15.8 -22.05 -19.5 -22.5 -25.35 -20.6 -29.25 L-19.75 -30.4 -14.95 -36.0 -14.8 -36.15 M-7.55 -18.3 Q-4.65 -4.75 2.2 5.9 -2.55 10.45 -2.5 14.8 -2.45 18.95 1.45 22.2 4.5 24.75 9.2 26.3 11.6 27.05 14.75 27.05 6.0 28.45 -1.95 26.7 -10.6 24.8 -16.75 19.55 L-16.5 12.55 Q-12.55 15.65 -7.8 15.7 -7.25 15.7 -6.8 15.25 -6.2 14.6 -6.25 12.6 -6.25 11.05 -6.8 6.0 -7.95 -6.0 -7.95 -11.8 L-7.55 -18.3 M9.9 -25.55 Q14.9 -25.95 20.0 -29.25 L19.7 -17.2 Q19.55 -10.1 20.1 -5.2 14.0 -2.3 10.7 -0.35 L7.5 -5.15 7.55 -5.15 Q7.3 -14.65 8.2 -20.6 8.95 -25.4 9.9 -25.55 M-23.05 -13.0 L-21.2 -5.65 Q-19.85 -0.6 -19.25 3.0 -23.5 8.65 -25.8 13.2 -27.45 13.85 -32.05 11.95 -36.55 10.1 -37.75 2.9 -37.8 2.15 -37.2 0.75 L-37.05 0.35 Q-32.0 -12.65 -23.85 -24.7 L-24.1 -20.45 Q-24.05 -17.3 -23.05 -13.0 M6.35 5.55 Q11.25 1.55 20.45 -2.75 L21.95 4.15 23.45 11.0 Q23.95 14.05 23.45 17.2 22.9 20.7 21.25 23.05 20.3 17.4 16.95 13.35 13.3 8.95 7.95 7.9 L6.35 5.55 M6.25 8.4 Q6.15 9.1 6.85 9.6 8.2 12.65 8.15 16.25 8.1 19.75 6.8 23.0 L6.75 23.45 Q3.45 22.05 1.55 20.0 -0.8 17.5 -0.4 14.55 0.05 10.95 5.05 6.6 L6.25 8.4 M-32.55 14.05 L-31.0 14.6 Q-30.8 16.9 -31.85 18.25 L-33.0 19.15 -33.8 19.5 -32.35 25.3 Q-30.95 30.2 -31.5 30.65 -31.9 30.9 -33.5 30.15 -36.85 28.5 -38.0 22.85 L-38.6 16.75 Q-38.65 16.0 -39.5 16.0 -40.35 16.05 -40.6 16.7 -41.2 18.45 -40.0 23.45 -38.45 29.9 -34.35 31.95 -32.15 33.05 -30.85 32.55 L-30.65 32.95 -29.35 35.1 Q-29.0 35.45 -29.1 36.1 -29.15 36.85 -29.65 37.15 L-31.8 37.2 Q-33.05 36.85 -34.3 35.95 L-35.4 35.2 -36.3 34.25 Q-39.25 31.0 -40.9 27.8 -42.75 24.2 -43.0 20.7 -43.35 16.3 -40.9 10.05 L-39.25 6.25 Q-37.25 12.1 -32.55 14.05 M-29.25 15.1 L-26.3 15.45 -26.4 17.15 Q-26.45 18.25 -27.05 19.7 L-28.2 21.75 -25.0 25.85 Q-22.25 29.65 -22.9 30.25 -23.9 31.25 -25.9 29.45 L-28.25 27.2 -28.4 27.2 -28.5 27.2 Q-28.55 27.55 -26.6 30.45 -24.85 33.1 -25.8 34.0 -26.65 34.85 -28.15 34.0 L-30.35 32.3 -30.25 32.2 Q-29.15 31.3 -29.4 29.05 -29.55 27.85 -30.4 24.7 L-31.45 20.65 Q-29.15 19.25 -29.25 15.1 M8.75 24.15 Q10.1 20.8 10.15 17.15 10.2 13.45 8.95 10.15 13.6 11.35 16.5 15.55 19.1 19.4 19.5 24.6 L8.95 24.25 8.75 24.15 M2.6 35.5 Q1.6 34.95 1.45 35.9 -0.85 49.6 -1.35 66.45 -9.2 58.25 -13.3 45.6 -17.0 34.1 -16.8 21.65 -14.0 23.8 -10.35 25.6 -2.0 29.85 8.35 29.8 18.1 29.75 27.25 26.0 L27.7 25.45 34.55 23.65 Q34.35 38.5 30.9 56.15 L30.85 56.4 Q29.35 63.75 27.05 72.6 L23.15 85.75 21.0 92.45 20.0 94.85 Q19.3 96.5 19.25 97.45 15.7 101.6 11.05 103.2 5.95 105.0 1.3 102.85 -1.45 66.35 3.45 36.9 3.55 36.1 2.6 35.5 M58.95 7.3 Q53.0 2.4 47.15 -0.15 39.7 -3.4 33.5 -2.4 L31.9 -6.35 32.05 -6.35 Q38.5 -8.9 46.45 -8.25 53.75 -7.6 60.55 -4.5 L61.2 -0.95 Q61.6 3.5 58.95 7.3 M59.8 -6.85 Q53.15 -9.7 46.25 -10.35 38.7 -11.05 32.4 -8.95 35.9 -13.05 42.7 -14.65 48.55 -16.05 54.8 -15.25 L55.1 -15.3 Q58.15 -11.1 59.8 -6.85 M49.65 -21.45 L53.45 -17.45 Q46.7 -18.1 40.95 -16.6 34.15 -14.8 30.45 -10.25 L29.6 -12.8 Q31.55 -18.15 38.0 -20.3 43.15 -22.05 49.65 -21.45 M46.6 1.7 Q47.95 9.1 43.15 17.95 L43.05 18.1 40.1 19.3 Q40.3 16.5 39.35 12.95 L37.3 6.85 34.4 -0.3 Q39.65 -1.3 46.6 1.7 M36.05 60.65 Q37.45 65.25 36.85 65.55 L35.5 66.0 34.15 66.5 Q33.0 67.2 33.4 68.7 33.6 69.5 34.55 71.05 L35.85 72.85 Q36.6 73.95 36.75 74.8 36.95 76.2 36.8 78.3 L36.5 81.75 Q36.05 86.9 34.65 90.4 33.55 93.1 32.1 93.85 30.1 94.85 28.1 90.55 26.95 88.05 25.95 84.2 L26.0 84.05 Q30.3 70.15 32.85 57.55 34.6 56.25 36.05 60.65 M57.95 8.65 Q54.2 13.0 46.3 16.7 49.65 9.2 48.7 2.65 53.25 4.95 57.95 8.65 M15.05 107.7 Q14.4 107.3 14.0 107.7 L9.4 112.45 Q6.75 114.75 3.8 115.9 -0.6 117.6 -6.25 117.95 -10.8 118.3 -11.55 116.8 -12.3 115.15 -9.35 112.2 L-5.1 108.65 Q-2.1 106.3 0.7 104.55 5.65 107.05 11.2 105.55 16.3 104.15 20.2 99.9 21.1 101.7 21.45 103.35 22.15 106.6 19.3 108.25 L17.4 109.0 Q15.95 109.35 15.75 108.6 15.6 108.1 15.05 107.7" fill="#ffffff" fill-rule="evenodd" stroke="none"/>
  </g>
</svg>
