<?xml version="1.0" encoding="UTF-8" standalone="no"?>
<svg xmlns:ffdec="https://www.free-decompiler.com/flash" xmlns:xlink="http://www.w3.org/1999/xlink" ffdec:objectType="shape" height="158.05px" width="94.05px" xmlns="http://www.w3.org/2000/svg">
  <g transform="matrix(1.0, 0.0, 0.0, 1.0, 36.1, 46.25)">
    <path d="M21.45 -46.2 Q23.15 -41.2 23.3 -31.9 23.5 -21.4 24.35 -17.4 25.25 -13.15 27.2 -7.5 L30.7 2.2 33.4 10.25 Q34.55 15.05 33.65 18.6 26.3 20.85 19.05 21.8 21.7 17.8 21.8 12.15 21.85 9.05 20.9 4.25 L19.4 -3.6 Q18.65 -9.25 19.15 -17.3 L20.1 -31.0 Q20.5 -39.2 20.3 -46.2 L21.45 -46.2 M18.25 -35.15 Q14.15 -31.95 8.1 -31.5 3.2 -30.95 3.9 -8.9 -2.55 -21.55 -4.7 -38.25 -1.75 -35.8 2.7 -35.8 7.35 -35.8 11.75 -38.25 16.3 -40.75 18.35 -44.7 L18.25 -35.15 M30.8 -42.55 Q34.3 -40.7 38.7 -35.5 42.6 -30.7 45.7 -24.7 L45.7 -24.65 Q39.75 -25.25 34.85 -23.9 28.85 -22.3 26.15 -18.1 25.55 -21.6 25.3 -32.1 25.1 -40.9 23.45 -45.9 25.65 -45.3 30.8 -42.55 M-15.5 -37.2 Q-14.55 -34.3 -10.9 -32.7 L-10.35 -24.9 -10.45 -24.9 Q-11.6 -19.05 -11.7 -16.0 -11.75 -9.55 -10.65 2.05 -10.05 8.4 -10.2 9.55 -15.05 9.3 -17.5 6.7 -17.6 2.9 -18.0 0.45 -18.5 -2.7 -21.05 -13.05 -22.85 -20.45 -23.05 -24.25 -23.4 -30.85 -20.5 -35.2 -18.95 -37.55 -15.75 -40.4 -16.0 -38.75 -15.5 -37.2 M-11.95 -43.45 L-10.35 -42.6 Q-10.8 -39.25 -10.9 -34.9 -13.0 -36.1 -13.6 -37.85 -14.35 -40.0 -12.9 -42.75 L-11.95 -43.45 M-7.0 -41.0 Q-5.85 -30.35 -2.85 -20.8 0.5 -10.25 5.8 -2.15 2.4 -0.2 0.05 1.7 -5.35 -7.8 -7.55 -19.3 -9.75 -30.75 -8.35 -41.7 L-7.1 -41.25 -7.0 -41.0 M8.3 -29.5 Q14.15 -29.95 18.1 -32.6 L18.1 -32.0 17.25 -19.75 Q16.75 -12.5 17.1 -7.5 11.05 -5.05 7.3 -3.0 L5.9 -5.2 6.05 -5.2 Q5.5 -16.5 6.35 -23.5 7.05 -29.35 8.3 -29.5 M-9.4 -18.95 Q-7.0 -7.1 -1.3 2.75 L-1.3 2.8 Q-6.25 7.0 -6.4 11.55 -6.55 15.6 -2.75 19.1 0.35 21.95 4.8 23.45 L5.55 23.65 Q-1.1 23.4 -6.95 21.4 -13.15 19.3 -17.75 15.4 L-17.5 9.3 Q-14.25 11.5 -9.8 11.55 L-9.75 11.55 Q-9.2 11.55 -8.75 11.1 -8.15 10.45 -8.15 8.45 L-8.65 1.85 Q-9.75 -8.55 -9.7 -15.95 L-9.4 -18.95 M-22.35 -9.9 Q-19.85 -0.65 -19.55 3.9 L-19.45 7.4 -19.5 7.45 -19.45 7.5 -19.5 9.95 -19.85 10.95 -26.25 10.65 Q-29.25 9.9 -31.35 6.65 -32.55 4.8 -33.2 2.6 -33.4 1.95 -33.0 0.4 L-32.9 0.0 Q-29.8 -14.55 -25.05 -26.8 L-25.0 -23.7 Q-24.75 -18.9 -22.35 -9.9 M-20.0 13.25 L-19.85 14.95 -19.85 15.4 -20.55 18.95 -20.95 19.8 -20.75 19.95 -21.55 25.6 -24.3 19.15 Q-22.2 17.55 -23.0 13.35 L-20.0 13.25 M-24.75 13.15 Q-24.25 15.35 -25.1 16.9 L-26.05 17.95 -26.8 18.4 -24.5 23.9 Q-22.3 28.45 -22.85 29.1 L-24.85 28.85 Q-28.4 27.75 -30.45 22.35 -31.2 20.4 -31.95 16.4 -32.1 15.7 -32.95 15.85 -33.8 16.0 -33.95 16.65 -34.25 18.55 -32.35 23.25 -29.85 29.4 -25.45 30.75 L-22.0 30.9 -22.1 35.6 Q-23.6 35.35 -24.8 34.75 L-26.0 34.15 -27.0 33.35 Q-29.6 31.35 -31.7 28.75 -34.8 24.9 -35.7 21.0 -37.0 15.5 -34.2 6.15 -31.25 11.65 -26.4 12.8 L-24.75 13.15 M7.65 -0.5 Q8.15 -0.5 8.3 -0.9 12.0 -2.85 17.3 -5.05 L18.55 2.1 19.7 9.25 Q20.0 12.15 19.35 15.15 18.65 18.45 16.95 20.7 16.3 15.1 13.05 10.85 9.6 6.35 4.35 5.05 L2.8 2.55 Q5.5 0.65 7.65 -0.5 M1.5 3.6 L2.6 5.4 Q2.55 5.95 3.1 6.6 4.35 9.7 4.15 13.35 3.95 16.85 2.5 20.1 L2.4 20.55 Q-0.7 19.05 -2.55 16.95 -4.7 14.4 -4.35 11.6 -3.9 8.0 1.25 3.8 L1.5 3.6 M-0.05 27.95 Q-2.65 44.1 0.6 65.2 -15.15 65.25 -19.0 47.65 -21.85 34.75 -18.05 17.35 -15.8 19.15 -12.55 20.85 -4.8 25.1 5.05 25.75 14.5 26.35 23.2 23.45 28.5 22.55 33.45 21.05 L33.55 21.05 33.3 42.85 Q33.0 54.85 32.0 64.6 L30.2 78.8 28.8 86.75 28.25 88.9 Q27.8 90.45 27.85 91.3 24.3 95.45 19.6 97.05 14.4 98.8 9.75 96.55 6.75 87.5 4.15 74.65 -1.15 48.25 1.95 29.0 2.05 28.2 1.1 27.6 0.1 27.0 -0.05 27.95 M4.4 21.35 Q7.55 14.2 5.25 7.3 9.85 8.75 12.5 13.05 14.95 17.05 15.1 22.25 9.35 22.7 5.3 21.6 L4.4 21.35 M55.3 6.7 Q49.55 1.55 43.8 -1.25 36.45 -4.9 30.35 -4.1 L28.95 -8.15 29.15 -8.15 Q35.65 -10.45 43.55 -9.4 50.75 -8.45 57.4 -5.0 L57.9 -2.0 Q58.3 2.8 55.3 6.7 M56.8 -7.35 Q50.3 -10.5 43.45 -11.45 35.95 -12.5 29.55 -10.7 33.4 -14.8 40.2 -16.05 45.9 -17.05 52.25 -16.0 L52.5 -16.0 Q55.45 -11.45 56.8 -7.35 M50.95 -18.2 Q44.25 -19.2 38.45 -17.95 31.45 -16.5 27.65 -12.15 L26.9 -14.65 26.95 -14.7 Q29.15 -19.9 35.65 -21.8 40.9 -23.35 47.25 -22.45 L49.1 -20.45 50.75 -18.5 50.95 -18.2 M33.7 5.25 L31.15 -2.0 Q36.7 -2.7 43.2 0.45 44.3 8.0 39.0 16.7 L38.95 16.8 36.35 17.75 35.95 17.85 Q36.3 15.05 35.5 11.45 L33.7 5.25 M54.2 8.0 Q50.35 12.15 42.3 15.5 46.0 8.05 45.3 1.55 49.65 4.0 54.2 8.0 M35.8 76.2 Q35.95 82.25 31.95 81.35 L32.5 77.55 33.9 66.15 Q35.7 72.15 35.8 76.2 M30.25 97.75 Q30.55 99.5 29.65 100.65 28.9 101.6 27.15 102.45 L24.4 102.4 Q24.25 101.9 23.7 101.5 23.05 101.1 22.65 101.5 L18.05 106.25 Q15.4 108.55 12.45 109.7 8.15 111.4 2.45 111.75 -2.15 112.1 -2.85 110.6 -3.6 108.95 -0.7 106.0 L3.55 102.45 Q6.6 100.05 9.4 98.35 14.35 100.85 19.85 99.35 25.0 97.95 28.9 93.7 29.85 95.55 30.25 97.75" fill="#ffffff" fill-rule="evenodd" stroke="none"/>
  </g>
</svg>
