<?xml version="1.0" encoding="UTF-8" standalone="no"?>
<svg xmlns:ffdec="https://www.free-decompiler.com/flash" xmlns:xlink="http://www.w3.org/1999/xlink" ffdec:objectType="shape" height="152.7px" width="78.1px" xmlns="http://www.w3.org/2000/svg">
  <g transform="matrix(1.0, 0.0, 0.0, 1.0, 22.6, 43.25)">
    <path d="M20.55 -43.2 Q22.05 -38.15 21.9 -28.8 21.7 -18.35 22.45 -14.3 23.2 -9.95 24.95 -4.35 L28.2 5.45 Q30.15 11.4 30.6 13.6 31.55 18.45 30.55 22.0 23.45 23.9 16.35 24.65 L15.9 24.7 Q18.7 20.75 18.95 14.85 19.1 11.8 18.3 7.05 L17.1 -0.75 Q16.5 -6.45 17.25 -14.45 L18.7 -28.1 18.95 -31.65 19.0 -31.7 18.95 -31.7 Q19.4 -37.45 19.4 -43.25 L20.55 -43.2 M26.05 -41.3 L29.15 -39.65 Q32.75 -37.75 36.95 -32.5 40.95 -27.5 44.0 -21.0 L44.05 -20.9 33.2 -20.5 Q27.15 -19.1 24.25 -15.0 23.75 -18.55 23.85 -28.95 24.0 -37.75 22.55 -42.8 24.0 -42.35 26.05 -41.3 M-8.05 -39.0 Q-6.6 -19.25 0.85 -4.35 L0.85 -4.2 0.95 -4.2 3.4 0.3 Q0.15 2.0 -2.45 3.9 -6.35 -3.6 -8.35 -12.35 -10.35 -21.0 -10.25 -29.8 -9.95 -32.4 -10.1 -33.3 -9.85 -36.9 -9.4 -39.5 L-8.05 -39.0 M-11.5 -40.1 L-12.05 -35.05 Q-13.75 -36.0 -14.5 -37.65 L-11.5 -40.1 M7.2 -28.1 Q11.75 -28.0 16.8 -30.5 L16.7 -29.1 15.45 -16.9 Q14.7 -9.65 14.85 -4.7 8.65 -2.35 4.95 -0.5 L2.85 -4.25 Q3.25 -15.35 4.75 -22.25 5.95 -28.05 7.2 -28.1 M2.75 -22.65 Q1.5 -17.1 1.05 -8.1 -4.4 -20.55 -5.9 -36.4 -2.9 -33.4 2.2 -33.4 6.6 -33.4 10.8 -35.6 15.15 -37.8 17.35 -41.4 L16.95 -32.85 Q11.95 -30.0 7.15 -30.1 4.4 -30.05 2.75 -22.65 M-11.55 -19.15 Q-9.7 -6.0 -3.85 4.95 L-3.85 5.0 Q-9.0 9.0 -9.25 13.6 -9.5 17.65 -5.8 21.25 -2.8 24.2 1.6 25.8 3.55 26.55 5.75 26.85 -8.15 26.5 -17.2 18.75 L-17.2 18.65 -16.95 10.75 -14.3 11.25 -14.15 11.3 Q-13.65 11.3 -13.25 10.9 -12.6 10.35 -12.4 8.35 -12.3 6.85 -12.35 1.7 -12.45 -9.75 -11.85 -16.1 L-11.55 -19.15 M-20.0 -31.85 Q-18.4 -34.2 -16.05 -36.3 -14.8 -34.05 -12.2 -32.9 L-12.25 -29.55 -13.05 -23.2 -13.85 -16.3 Q-14.45 -9.85 -14.35 1.75 -14.25 7.95 -14.55 9.25 L-17.0 8.7 -17.5 3.8 Q-17.95 0.95 -18.9 -2.95 L-20.5 -9.7 Q-22.35 -17.2 -22.55 -20.9 -22.9 -27.55 -20.0 -31.85 M5.9 1.65 Q9.45 -0.15 15.0 -2.25 L16.0 5.0 16.95 12.2 Q17.15 15.1 16.4 18.05 15.55 21.35 13.8 23.5 13.3 17.8 10.25 13.55 7.0 8.95 1.7 7.45 L0.3 4.9 Q2.55 3.3 5.15 2.0 5.7 2.0 5.9 1.65 M-1.1 5.85 Q-0.45 6.8 -0.05 7.7 -0.15 8.3 0.45 8.9 1.6 12.05 1.25 15.75 0.9 19.2 -0.65 22.4 L-0.75 22.85 Q-3.7 21.35 -5.45 19.2 -7.5 16.65 -7.2 13.95 -6.8 10.15 -1.3 6.05 L-1.1 5.85 M-1.55 36.0 Q-0.9 43.75 1.45 52.15 3.4 59.0 6.9 67.55 3.55 72.05 -0.6 74.1 -5.85 76.65 -9.1 72.95 -15.6 65.6 -17.7 50.65 -19.75 36.15 -17.5 20.7 -14.8 22.8 -10.8 24.85 -2.7 28.95 7.3 29.0 16.6 29.05 25.7 25.65 L26.05 25.35 34.7 23.2 Q36.0 36.6 34.9 44.85 33.25 57.15 26.25 63.95 25.6 64.55 26.4 65.45 27.2 66.35 27.8 65.75 L30.75 62.9 Q33.05 60.55 34.1 58.7 35.45 63.4 35.9 69.65 36.05 72.35 35.7 76.7 L35.35 78.3 Q35.1 79.45 35.15 80.05 34.35 84.55 31.75 88.45 29.85 91.45 26.1 92.85 22.0 94.45 19.05 92.6 L14.05 80.1 10.8 72.5 10.5 71.8 9.0 68.4 Q9.0 67.9 8.65 67.55 5.3 59.45 3.95 54.65 1.2 45.4 0.45 36.5 0.35 35.65 -0.65 35.3 -1.65 34.95 -1.55 36.0 M1.25 23.75 Q2.85 20.45 3.2 16.8 3.55 13.1 2.55 9.65 7.1 11.25 9.65 15.7 12.0 19.8 11.9 25.0 6.35 25.15 2.45 24.15 L1.25 23.75 M55.45 1.5 Q55.85 6.7 52.55 10.75 46.9 5.4 41.35 2.45 34.2 -1.45 28.05 -0.85 L26.75 -4.95 27.0 -5.0 Q33.55 -7.05 41.45 -5.7 48.55 -4.5 55.1 -0.9 L55.45 1.5 M50.55 -12.0 Q53.4 -7.3 54.5 -3.2 48.2 -6.55 41.35 -7.75 33.9 -9.05 27.45 -7.45 31.45 -11.45 38.3 -12.45 L50.35 -12.0 50.55 -12.0 M48.7 -14.8 L49.1 -14.25 Q42.45 -15.45 36.6 -14.4 29.6 -13.2 25.6 -9.0 L24.95 -11.55 25.0 -11.6 Q27.35 -16.75 34.0 -18.4 39.3 -19.75 45.65 -18.6 L48.7 -14.8 M28.75 1.3 Q34.2 0.75 40.7 4.1 41.55 11.55 35.95 20.25 L35.9 20.35 32.9 21.3 Q33.35 18.5 32.65 14.85 L31.05 8.55 28.75 1.3 M51.45 12.0 Q47.55 15.95 39.3 19.15 43.2 11.9 42.8 5.3 47.0 7.8 51.45 12.0 M38.3 88.05 Q38.25 89.65 37.9 89.85 L36.3 90.1 Q35.2 90.3 35.1 91.95 L35.2 94.35 Q35.4 97.35 29.85 103.35 25.95 107.6 20.65 108.9 L16.0 109.4 Q12.95 109.2 12.8 107.15 12.7 105.7 13.5 103.7 L15.05 100.55 Q16.25 98.3 18.1 95.6 L18.9 94.55 Q21.85 96.1 25.65 95.3 29.25 94.5 31.75 92.15 35.2 89.0 36.7 82.95 L37.9 85.25 Q38.35 86.55 38.3 88.05 M8.8 72.15 Q9.25 86.2 2.95 90.85 -0.35 93.3 -2.6 90.55 -3.95 88.95 -5.3 84.55 -6.35 81.05 -7.2 76.6 -3.25 78.3 1.2 75.95 4.75 74.05 7.9 70.05 L8.8 72.15" fill="#ffffff" fill-rule="evenodd" stroke="none"/>
  </g>
</svg>
