<?xml version="1.0" encoding="UTF-8" standalone="no"?>
<svg xmlns:ffdec="https://www.free-decompiler.com/flash" xmlns:xlink="http://www.w3.org/1999/xlink" ffdec:objectType="shape" height="146.3px" width="100.1px" xmlns="http://www.w3.org/2000/svg">
  <g transform="matrix(1.0, 0.0, 0.0, 1.0, 44.2, 39.3)">
    <path d="M19.4 -39.3 Q21.1 -34.25 21.25 -24.95 21.45 -14.45 22.3 -10.5 23.2 -6.2 25.15 -0.6 L28.65 9.1 31.3 17.1 Q32.45 21.85 31.6 25.4 L31.0 25.5 30.45 25.9 Q23.85 27.85 17.0 28.75 19.65 24.65 19.75 19.05 19.8 15.95 18.85 11.15 L17.35 3.35 Q16.6 -2.3 17.1 -10.35 L18.05 -24.05 18.1 -25.7 18.15 -25.75 18.1 -25.75 Q18.45 -33.45 18.25 -39.25 L19.4 -39.3 M28.75 -35.65 Q32.4 -33.65 36.65 -28.55 40.55 -23.85 43.65 -17.75 37.7 -18.35 32.8 -17.0 26.85 -15.35 24.1 -11.2 23.5 -14.7 23.25 -25.15 23.05 -33.95 21.4 -38.95 23.8 -38.3 28.75 -35.65 M-9.1 -34.7 Q-8.0 -23.85 -4.95 -14.2 -1.6 -3.45 3.75 4.75 0.7 6.5 -2.0 8.6 -7.45 -0.95 -9.65 -12.6 -11.8 -24.1 -10.35 -35.15 L-9.1 -34.7 M6.7 -22.35 Q11.05 -22.25 16.0 -24.6 L15.15 -12.6 Q14.7 -5.5 15.05 -0.6 8.65 2.1 5.25 3.95 L2.45 -0.85 2.5 -0.85 Q3.05 -11.6 4.55 -17.65 5.7 -22.35 6.7 -22.35 M9.75 -31.25 Q14.05 -33.45 16.3 -37.05 L16.1 -26.9 Q11.25 -24.25 6.65 -24.35 2.05 -24.25 0.7 -4.35 -4.95 -16.65 -6.85 -32.05 -3.85 -29.05 1.2 -29.05 5.55 -29.05 9.75 -31.25 M-12.9 -29.9 Q-14.55 -31.1 -15.1 -32.25 L-12.55 -34.4 -12.9 -29.9 M-12.95 -27.55 Q-13.0 -23.3 -12.45 -18.25 L-12.6 -18.3 Q-14.15 -14.4 -14.5 -9.3 -14.75 -6.25 -14.6 -0.1 L-14.6 7.3 Q-14.8 11.45 -15.55 14.6 L-17.4 14.4 Q-17.55 11.25 -17.95 8.95 -18.55 5.3 -21.15 -5.4 -22.9 -12.35 -23.05 -16.6 -23.2 -23.3 -20.0 -27.25 L-16.6 -30.9 Q-15.45 -29.0 -12.95 -27.55 M-12.6 -0.15 L-12.6 -7.2 Q-12.45 -11.05 -11.8 -14.0 -9.55 -0.9 -3.35 9.7 -8.3 13.9 -8.45 18.5 -8.6 22.55 -4.8 26.05 -1.7 28.9 2.75 30.35 5.15 31.2 8.35 31.35 10.6 31.5 14.05 31.25 L14.8 31.15 15.05 31.15 20.25 30.5 Q15.15 31.9 9.3 32.1 L-1.3 31.4 Q-5.75 30.6 -9.9 28.7 -14.3 26.7 -17.65 23.9 L-17.4 16.45 -14.75 16.6 -14.0 16.6 -13.8 15.85 Q-12.85 12.35 -12.65 7.85 -12.5 5.2 -12.6 -0.15 M1.05 13.5 Q2.3 16.65 2.1 20.3 1.9 23.75 0.45 27.0 L0.35 27.45 Q-2.75 26.0 -4.6 23.85 -6.75 21.3 -6.4 18.5 -5.95 14.9 -0.8 10.7 L-0.55 10.5 0.55 12.35 Q0.45 12.9 1.05 13.5 M6.25 6.05 Q9.85 4.1 15.25 1.85 L16.5 9.0 17.65 16.2 Q17.95 19.1 17.3 22.1 16.6 25.4 14.9 27.65 14.25 22.0 11.0 17.8 7.6 13.25 2.3 11.95 L0.75 9.5 Q2.9 7.9 5.6 6.4 6.1 6.4 6.25 6.05 M2.35 28.25 Q3.85 24.9 4.05 21.3 4.3 17.55 3.2 14.2 7.8 15.65 10.45 19.95 12.9 23.95 13.05 29.15 L3.25 28.55 2.35 28.25 M3.05 33.95 Q1.95 48.35 7.0 62.35 L6.8 62.65 Q3.05 73.2 -0.65 80.95 -5.3 90.7 -10.65 98.05 L-10.75 98.2 Q-13.9 92.0 -18.05 87.55 -23.1 82.2 -28.65 80.5 -27.2 78.25 -26.0 75.1 L-24.25 69.35 Q-22.25 61.95 -20.5 50.25 -18.7 38.2 -17.8 25.95 -12.85 29.7 -6.1 32.15 -1.9 33.55 3.05 33.95 M5.15 34.05 L13.9 33.7 Q24.9 32.55 31.7 27.9 L34.45 27.05 Q36.0 32.8 36.65 37.1 37.45 42.65 37.0 47.35 36.65 50.85 35.25 54.15 34.5 54.35 34.8 55.15 32.5 60.0 28.15 64.1 27.55 64.7 28.35 65.6 29.15 66.5 29.75 65.9 L33.45 62.3 Q36.25 59.25 36.8 57.15 40.35 60.4 42.15 64.85 44.1 69.45 43.6 74.05 L43.2 76.35 43.1 76.6 Q41.9 81.5 38.9 85.2 36.7 88.0 32.85 89.0 28.65 90.15 25.95 88.0 14.85 77.7 9.3 63.4 3.75 49.05 5.15 34.05 M55.85 4.9 Q56.25 9.65 53.25 13.65 47.5 8.5 41.75 5.7 34.4 2.05 28.3 2.85 L26.9 -1.2 27.1 -1.25 Q33.6 -3.55 41.5 -2.45 48.65 -1.5 55.35 1.9 L55.85 4.9 M45.2 -15.5 L47.05 -13.55 48.7 -11.6 48.9 -11.3 Q42.25 -12.3 36.4 -11.05 29.4 -9.55 25.6 -5.2 L24.85 -7.75 24.9 -7.8 Q27.1 -13.0 33.6 -14.85 38.85 -16.4 45.2 -15.5 M29.1 4.95 Q34.65 4.2 41.15 7.4 42.2 14.9 36.95 23.6 L36.9 23.75 33.9 24.8 Q34.25 22.0 33.45 18.35 L31.65 12.15 29.1 4.95 M50.2 -9.05 L50.45 -9.1 Q53.4 -4.5 54.75 -0.4 48.25 -3.55 41.4 -4.5 33.9 -5.6 27.5 -3.8 31.35 -7.85 38.15 -9.1 43.9 -10.15 50.2 -9.05 M40.25 22.45 Q43.95 14.9 43.25 8.45 47.65 11.0 52.15 14.95 48.3 19.1 40.25 22.45 M45.75 84.85 L45.45 86.45 Q45.2 86.8 44.25 86.75 43.6 86.7 43.1 87.05 42.55 87.4 42.4 88.05 L42.15 90.7 Q42.05 92.25 41.4 93.35 38.95 97.3 35.55 100.35 32.7 102.95 28.65 104.2 L24.05 104.95 Q21.1 104.95 19.6 103.85 18.25 102.9 19.9 99.35 20.6 97.9 22.45 94.95 23.9 92.6 26.0 90.1 28.7 91.8 32.45 91.3 35.85 90.85 38.55 88.9 42.55 86.0 44.55 79.5 46.05 82.25 45.75 84.85 M-11.9 99.75 Q-14.4 102.9 -16.55 104.55 -16.45 101.85 -18.3 97.95 L-21.5 92.3 Q-24.55 87.3 -28.15 82.7 -23.05 84.4 -18.45 89.65 -14.8 93.85 -11.9 99.75 M-20.4 97.4 Q-17.35 103.3 -19.3 106.2 L-19.35 106.3 -20.4 106.75 Q-22.5 107.5 -25.3 106.2 -27.05 105.35 -29.55 103.4 L-30.95 102.3 -20.55 97.5 -20.4 97.4 M-21.5 95.45 L-21.75 95.5 -32.85 100.6 Q-36.9 96.8 -39.75 92.4 L-39.8 92.3 Q-43.0 87.4 -44.0 82.75 -44.65 79.75 -43.15 77.8 -41.9 76.2 -39.75 76.4 L-38.45 76.6 Q-35.2 77.5 -31.1 81.6 -27.55 86.0 -24.15 91.3 L-21.5 95.45" fill="#ffffff" fill-rule="evenodd" stroke="none"/>
  </g>
</svg>
