<?xml version="1.0" encoding="UTF-8" standalone="no"?>
<svg xmlns:ffdec="https://www.free-decompiler.com/flash" xmlns:xlink="http://www.w3.org/1999/xlink" ffdec:objectType="shape" height="156.15px" width="81.8px" xmlns="http://www.w3.org/2000/svg">
  <g transform="matrix(1.0, 0.0, 0.0, 1.0, 22.2, 44.8)">
    <path d="M21.1 -44.8 Q22.95 -39.95 23.5 -30.9 24.15 -20.6 25.1 -16.8 26.15 -12.4 28.4 -6.75 L32.5 3.05 Q34.9 8.85 35.55 11.0 36.9 15.8 36.2 19.4 29.05 21.9 21.75 23.25 24.15 19.2 24.05 13.05 23.95 10.0 22.75 5.3 L20.9 -2.35 Q19.95 -7.8 20.05 -15.5 L20.35 -28.75 Q20.45 -37.65 19.9 -44.7 L21.1 -44.8 M27.05 -43.2 L30.55 -41.6 Q34.35 -39.75 38.9 -34.7 43.05 -30.2 46.25 -24.4 40.35 -24.8 35.45 -23.2 29.55 -21.25 27.0 -16.95 26.25 -20.4 25.5 -30.85 24.9 -39.65 23.05 -44.55 L27.05 -43.2 M-7.3 -37.1 Q-5.65 -27.05 -1.95 -17.75 1.95 -7.9 7.6 -0.2 4.4 1.8 1.85 4.0 -3.95 -5.2 -6.85 -16.05 -9.8 -27.2 -9.05 -37.8 L-7.3 -37.1 M-12.45 -39.55 L-11.05 -38.75 Q-11.3 -35.2 -11.15 -32.05 -14.5 -33.85 -15.55 -36.85 L-12.45 -39.55 M6.7 -28.1 Q4.65 -28.05 3.3 -24.75 2.0 -21.5 1.25 -14.55 -2.8 -23.65 -4.85 -34.1 -1.9 -31.65 2.6 -31.65 7.2 -31.65 11.6 -34.05 16.1 -36.55 18.15 -40.45 L18.35 -31.95 Q15.85 -30.2 12.8 -29.15 9.65 -28.1 6.9 -28.1 L6.7 -28.1 M6.7 -26.1 Q9.5 -26.05 12.6 -27.0 15.7 -27.9 18.35 -29.55 L18.05 -17.75 Q17.9 -10.8 18.45 -5.95 13.1 -3.5 9.05 -1.1 5.4 -6.05 2.65 -11.55 L2.95 -11.55 Q3.7 -20.3 5.15 -24.0 5.95 -26.1 6.7 -26.1 M-12.5 -22.95 Q-14.1 -16.75 -14.3 -14.3 -15.0 -6.8 -14.8 3.75 -14.8 10.35 -15.0 11.25 L-16.85 10.85 Q-16.85 7.2 -17.25 4.25 -17.65 1.5 -18.6 -2.45 L-20.2 -9.15 Q-21.95 -16.65 -22.15 -20.4 -22.5 -26.4 -20.25 -31.55 -19.7 -32.85 -17.1 -35.35 -15.45 -31.75 -11.1 -29.8 -10.95 -28.85 -12.5 -22.95 M-10.3 -23.35 Q-7.75 -7.7 0.55 5.15 -4.2 9.7 -4.15 14.05 -4.1 18.2 -0.2 21.45 2.8 24.0 7.5 25.55 L12.15 26.3 Q3.75 27.0 -2.5 25.55 -10.9 23.7 -17.1 18.45 L-16.85 12.9 -14.75 13.25 -14.6 13.3 Q-14.1 13.3 -13.7 12.9 -13.05 12.35 -12.85 10.35 -12.75 8.85 -12.8 3.7 -13.0 -6.65 -12.35 -14.1 -12.05 -16.8 -10.55 -22.45 L-10.3 -23.35 M5.15 8.8 Q6.5 11.9 6.5 15.5 6.45 19.0 5.15 22.25 L5.1 22.7 Q1.8 21.3 -0.1 19.25 -2.45 16.75 -2.05 13.8 -1.6 10.15 3.35 5.85 L4.55 7.65 Q4.55 8.35 5.15 8.8 M4.65 4.75 Q9.65 0.75 18.8 -3.5 19.2 -1.15 20.3 3.35 L21.8 10.25 Q22.3 13.3 21.8 16.4 21.25 19.9 19.6 22.3 18.65 16.65 15.25 12.6 11.6 8.2 6.25 7.15 L4.65 4.75 M-2.1 33.5 Q-1.35 42.75 0.95 51.05 3.5 60.4 7.65 67.5 9.8 71.2 13.1 74.7 L13.0 75.0 Q13.0 79.85 11.95 86.4 L11.45 88.45 Q11.05 89.95 11.1 90.8 7.55 95.0 2.85 96.6 -2.35 98.35 -6.95 96.05 -10.55 84.55 -13.7 69.2 -16.55 55.05 -17.45 45.0 -18.65 31.55 -17.05 20.65 -12.6 24.05 -7.05 26.1 1.2 29.2 12.5 28.45 24.05 27.65 31.3 23.35 L34.45 22.4 Q36.15 35.95 32.35 46.65 32.1 46.75 31.95 47.15 L31.35 49.3 Q28.15 56.55 22.3 60.55 21.65 60.95 22.35 61.9 23.05 62.8 23.7 62.45 L23.9 62.35 Q30.2 58.8 33.15 50.9 L33.55 49.95 34.95 53.25 Q36.0 56.1 36.75 60.75 L36.85 62.85 Q36.95 64.35 37.25 65.1 37.8 72.5 36.2 77.6 33.9 85.2 27.6 83.35 22.1 80.8 17.25 76.4 12.5 72.15 9.25 66.9 6.55 62.5 4.55 56.35 3.05 51.8 1.65 45.1 0.3 38.9 -0.1 34.0 -0.2 33.15 -1.2 32.8 -2.2 32.45 -2.1 33.5 M7.1 23.4 Q8.4 20.0 8.45 16.4 8.55 12.7 7.3 9.4 11.95 10.6 14.85 14.8 17.45 18.65 17.85 23.85 L7.3 23.45 7.1 23.4 M57.3 6.55 Q51.25 1.65 45.45 -0.9 38.0 -4.2 31.85 -3.15 L30.25 -7.1 30.4 -7.15 Q36.85 -9.75 44.8 -9.05 52.05 -8.4 58.9 -5.25 L59.55 -1.7 Q59.9 2.85 57.3 6.55 M58.15 -7.6 Q51.45 -10.45 44.6 -11.1 37.05 -11.8 30.75 -9.7 34.25 -13.8 41.05 -15.4 46.85 -16.8 53.15 -16.0 L53.45 -16.05 Q56.6 -11.6 58.15 -7.6 M51.75 -18.2 Q45.05 -18.85 39.3 -17.35 32.45 -15.55 28.75 -11.05 L27.9 -13.55 Q29.9 -18.9 36.35 -21.1 41.5 -22.85 48.0 -22.2 L51.75 -18.2 M44.95 0.9 Q46.25 8.4 41.45 17.15 L41.4 17.35 38.45 18.55 Q38.6 15.7 37.7 12.2 L35.6 6.1 32.7 -1.05 Q38.05 -2.1 44.95 0.9 M44.65 15.95 Q48.0 8.2 47.05 1.9 51.7 4.25 56.25 7.9 52.5 12.3 44.65 15.95 M43.85 71.3 Q44.45 73.0 43.45 73.25 41.65 73.7 42.4 75.9 42.75 77.05 43.85 78.95 44.1 79.4 43.95 80.75 L43.7 82.65 43.0 86.55 Q42.35 89.8 40.25 93.35 38.15 96.65 34.6 98.7 30.05 101.25 28.7 99.75 27.55 98.45 27.5 95.35 L27.8 90.65 Q27.95 88.25 28.5 85.6 35.0 87.1 37.75 79.9 39.65 74.7 39.3 66.8 41.25 67.85 42.55 69.15 43.3 69.85 43.85 71.3 M13.5 97.25 Q13.8 99.0 12.9 100.2 L10.4 101.95 Q8.0 103.05 7.65 101.95 7.5 101.45 6.95 101.05 6.35 100.65 5.95 101.05 L1.3 105.75 Q-1.35 108.1 -4.25 109.2 -8.55 110.9 -14.3 111.3 L-17.2 111.3 Q-19.2 111.05 -19.6 110.1 -20.35 108.45 -17.45 105.55 L-13.2 102.0 Q-10.8 100.05 -7.35 97.9 -2.4 100.4 3.15 98.85 8.25 97.45 12.15 93.2 13.15 95.15 13.5 97.25" fill="#ffffff" fill-rule="evenodd" stroke="none"/>
  </g>
</svg>
