<?xml version="1.0" encoding="UTF-8" standalone="no"?>
<svg xmlns:ffdec="https://www.free-decompiler.com/flash" xmlns:xlink="http://www.w3.org/1999/xlink" ffdec:objectType="shape" height="159.2px" width="95.05px" xmlns="http://www.w3.org/2000/svg">
  <g transform="matrix(1.0, 0.0, 0.0, 1.0, 35.25, 48.0)">
    <path d="M21.25 -48.0 Q23.15 -43.15 23.7 -34.1 24.35 -23.75 25.3 -20.0 26.35 -15.6 28.6 -9.95 L32.7 -0.15 35.75 7.8 Q37.1 12.6 36.4 16.15 29.25 18.75 21.95 20.0 24.4 15.95 24.2 9.85 24.1 6.8 22.95 2.1 L21.1 -5.6 Q20.15 -11.05 20.25 -18.75 L20.55 -31.95 Q20.65 -40.8 20.1 -47.95 L21.25 -48.0 M18.55 -34.6 Q16.4 -33.35 13.6 -32.55 11.0 -31.75 8.85 -31.6 4.35 -31.1 4.45 -11.75 -2.25 -23.85 -4.9 -38.6 -1.9 -35.75 3.0 -35.75 7.5 -35.75 11.75 -38.05 16.2 -40.4 18.35 -44.1 L18.55 -34.6 M30.75 -44.8 Q34.45 -43.05 39.1 -37.9 43.2 -33.45 46.45 -27.65 40.5 -28.0 35.65 -26.4 29.7 -24.5 27.2 -20.15 26.45 -23.6 25.7 -34.05 25.1 -42.85 23.25 -47.75 25.5 -47.3 30.75 -44.8 M-15.7 -38.75 Q-15.1 -35.15 -10.95 -33.1 L-10.9 -33.25 Q-10.5 -28.05 -9.6 -23.75 L-9.9 -23.8 Q-10.55 -19.05 -10.5 -12.8 L-10.0 -1.65 Q-9.5 5.55 -9.5 9.3 L-13.1 8.8 Q-15.1 8.15 -16.9 6.4 -17.0 2.5 -17.5 -0.4 -18.2 -4.35 -21.3 -16.65 -21.5 -17.55 -22.45 -17.65 -23.45 -17.7 -23.15 -16.6 L-20.55 -6.15 Q-19.15 -0.05 -18.9 4.45 -18.65 7.75 -19.0 12.4 L-19.15 13.95 -25.4 13.55 Q-28.4 12.8 -30.5 9.55 -31.7 7.7 -32.35 5.5 -32.55 -1.6 -30.5 -10.65 -26.45 -28.65 -15.75 -40.35 L-15.7 -38.75 M-10.45 -42.8 L-10.85 -42.25 Q-11.1 -38.65 -10.95 -35.45 -13.3 -36.9 -13.7 -39.1 -14.1 -41.4 -12.05 -43.65 L-10.45 -42.8 M-9.25 -42.15 L-7.1 -41.3 -7.2 -40.75 Q-4.3 -22.6 4.55 -8.3 L4.55 -8.2 4.6 -8.2 Q6.25 -5.45 7.8 -3.45 4.5 -1.3 2.05 0.8 -3.8 -8.45 -6.7 -19.35 -9.65 -30.6 -8.85 -41.25 -8.8 -41.7 -9.25 -42.15 M9.0 -29.6 Q13.9 -29.95 18.55 -32.35 L18.25 -20.75 Q18.1 -13.95 18.65 -9.2 12.95 -6.5 9.25 -4.3 L6.5 -8.25 6.55 -8.25 Q6.25 -18.2 7.15 -24.3 7.9 -29.45 9.0 -29.6 M-12.45 11.0 L-8.45 11.3 -7.45 11.3 -7.45 10.3 Q-7.45 7.0 -8.0 -1.8 -8.7 -13.0 -8.4 -18.6 -5.25 -7.4 0.75 1.95 -4.0 6.4 -3.95 10.85 -3.9 15.0 0.0 18.25 3.05 20.8 7.7 22.3 10.95 23.35 16.0 23.0 7.9 24.3 -0.75 22.8 -5.2 22.0 -9.4 20.1 -13.8 18.1 -17.1 15.3 L-16.85 9.0 Q-14.8 10.55 -12.45 11.0 M7.5 6.15 Q12.15 7.4 15.05 11.6 17.65 15.45 18.05 20.6 L7.5 20.25 7.3 20.2 Q8.6 16.8 8.65 13.15 8.75 9.45 7.5 6.15 M5.35 5.6 Q6.7 8.7 6.7 12.3 6.65 15.75 5.35 19.0 L5.3 19.45 Q2.0 18.1 0.1 16.05 -2.25 13.5 -1.85 10.55 -1.4 6.9 3.55 2.6 L4.75 4.4 Q4.75 5.1 5.35 5.6 M4.85 1.55 Q10.0 -2.55 19.0 -6.75 19.4 -4.35 20.5 0.15 L22.0 7.0 Q22.5 10.05 22.0 13.2 21.45 16.65 19.8 19.05 18.85 13.45 15.45 9.35 11.8 4.95 6.45 3.95 L4.85 1.55 M-34.85 23.9 Q-36.15 18.4 -33.35 9.05 -30.4 14.55 -25.55 15.7 L-23.9 16.05 Q-23.4 18.25 -24.25 19.8 L-25.2 20.85 -25.95 21.3 -23.65 26.8 Q-21.45 31.4 -22.0 32.0 L-24.0 31.75 Q-27.55 30.65 -29.6 25.25 -30.35 23.3 -31.1 19.3 -31.25 18.6 -32.1 18.75 -32.95 18.9 -33.1 19.55 -33.4 21.45 -31.5 26.15 -29.0 32.3 -24.6 33.65 L-21.05 33.75 -19.15 36.05 Q-18.8 36.35 -18.75 37.0 -18.75 37.75 -19.15 38.15 -20.4 39.3 -23.95 37.65 L-25.1 37.05 -26.15 36.25 Q-28.75 34.25 -30.85 31.65 -33.95 27.8 -34.85 23.9 M-2.7 30.35 Q-1.7 42.15 2.85 55.05 4.35 59.3 5.95 62.05 7.95 65.55 10.75 67.9 12.7 69.6 15.65 70.85 19.1 78.6 19.75 90.65 16.1 94.9 11.4 96.45 6.15 98.2 1.45 95.8 -3.1 88.5 -7.85 75.05 -17.25 48.2 -17.15 17.55 L-15.6 18.5 Q-5.65 25.35 6.35 25.5 L18.0 24.75 Q24.2 23.7 28.9 20.95 L29.1 20.75 34.4 19.25 Q35.4 26.35 33.5 33.75 31.55 41.2 27.2 47.05 24.85 49.7 19.7 54.4 19.1 54.95 19.85 55.8 20.6 56.65 21.3 56.2 25.55 53.3 29.1 48.55 L31.9 45.35 31.9 45.45 34.2 51.3 Q35.3 54.05 34.9 58.15 34.55 61.7 33.3 64.9 31.55 69.35 27.95 71.05 L24.45 71.35 20.95 70.6 Q15.05 69.3 11.0 65.9 8.15 63.55 6.15 59.05 5.25 56.9 3.4 51.0 0.1 40.45 -0.7 30.85 -0.8 30.0 -1.75 29.65 -2.75 29.3 -2.7 30.35 M-19.15 16.15 L-19.15 19.8 Q-19.4 21.35 -20.1 22.7 L-19.05 23.65 -18.85 28.3 -19.3 28.05 -19.5 28.1 -19.55 28.15 -18.75 29.4 -18.35 34.7 -20.6 33.4 -20.5 33.3 Q-19.55 32.25 -20.15 30.05 -20.5 28.75 -21.8 25.95 L-23.45 22.05 Q-21.3 20.45 -22.1 16.3 L-19.15 16.15 M53.6 -19.25 Q56.8 -14.85 58.3 -10.8 51.7 -13.65 44.8 -14.3 37.25 -15.05 30.95 -12.95 34.45 -17.05 41.25 -18.65 47.1 -20.05 53.35 -19.25 L53.6 -19.25 M59.75 -4.9 Q60.1 -0.5 57.5 3.3 51.45 -1.6 45.65 -4.15 38.2 -7.4 32.05 -6.35 L30.45 -10.3 30.6 -10.35 Q37.05 -12.9 45.0 -12.25 52.25 -11.6 59.05 -8.5 59.5 -7.0 59.75 -4.9 M51.95 -21.45 Q45.2 -22.1 39.5 -20.6 32.65 -18.8 28.95 -14.25 L28.1 -16.8 Q30.1 -22.1 36.55 -24.3 41.7 -26.05 48.2 -25.45 L50.15 -23.4 51.95 -21.45 M35.8 2.85 L32.9 -4.3 Q38.25 -5.25 45.15 -2.3 46.45 5.1 41.65 13.95 L41.6 14.15 38.65 15.3 Q38.8 12.5 37.9 8.95 L35.8 2.85 M47.25 -1.35 Q52.25 1.2 56.45 4.7 52.75 9.0 44.85 12.7 48.2 5.05 47.25 -1.35 M41.1 58.75 Q41.25 59.75 39.2 60.35 37.2 60.9 37.45 62.1 37.8 63.75 38.75 65.2 L40.1 67.15 Q40.75 68.15 40.9 69.45 L40.85 71.9 Q40.3 83.25 34.7 87.0 32.65 88.4 29.8 82.6 27.95 78.85 26.35 73.55 L29.15 73.1 Q32.65 71.65 34.9 66.95 37.7 61.15 36.5 53.0 L36.3 52.0 36.85 51.85 Q38.6 50.2 39.95 53.9 40.7 55.95 41.1 58.75 M21.75 95.6 Q23.05 99.65 19.85 101.4 L17.95 102.2 Q16.5 102.55 16.25 101.8 16.1 101.3 15.55 100.9 14.95 100.5 14.55 100.9 L9.9 105.6 Q7.3 107.95 4.35 109.05 0.05 110.75 -5.7 111.15 L-8.55 111.15 Q-10.6 110.9 -11.0 109.95 -11.75 108.3 -8.85 105.4 L-4.6 101.85 1.25 97.75 Q6.15 100.2 11.6 98.75 16.7 97.4 20.6 93.25 L21.75 95.6" fill="#ffffff" fill-rule="evenodd" stroke="none"/>
  </g>
</svg>
