<?xml version="1.0" encoding="UTF-8" standalone="no"?>
<svg xmlns:ffdec="https://www.free-decompiler.com/flash" xmlns:xlink="http://www.w3.org/1999/xlink" ffdec:objectType="shape" height="150.25px" width="103.0px" xmlns="http://www.w3.org/2000/svg">
  <g transform="matrix(1.0, 0.0, 0.0, 1.0, 43.0, 44.9)">
    <path d="M21.5 -44.9 Q23.4 -40.05 23.95 -31.0 24.6 -20.6 25.5 -16.9 26.6 -12.55 28.85 -6.85 L32.95 2.95 36.0 10.9 Q37.35 15.7 36.65 19.25 L29.85 21.4 29.05 21.45 28.6 21.75 22.2 23.1 Q24.65 18.95 24.45 12.95 24.35 9.9 23.2 5.2 L21.35 -2.5 Q20.4 -7.95 20.5 -15.65 L20.8 -28.85 Q20.9 -37.7 20.35 -44.85 L21.5 -44.9 M18.55 -41.6 L18.8 -31.4 18.8 -31.35 Q14.0 -28.1 9.2 -27.7 4.7 -27.2 5.0 -8.25 -1.8 -20.65 -4.55 -36.75 -1.6 -33.75 3.55 -33.75 7.85 -33.75 12.05 -35.85 16.3 -38.05 18.55 -41.6 M31.0 -41.7 Q34.7 -39.95 39.35 -34.8 43.55 -30.15 46.7 -24.55 40.75 -24.9 35.9 -23.3 29.95 -21.4 27.45 -17.05 26.7 -20.5 25.95 -30.95 25.35 -39.75 23.5 -44.65 25.8 -44.15 31.0 -41.7 M-10.65 -40.3 Q-10.9 -35.65 -10.6 -31.35 -13.25 -33.05 -13.7 -35.2 -14.0 -36.3 -13.5 -37.6 L-10.65 -40.3 M-6.9 -39.4 Q-5.25 -28.55 -1.75 -18.95 2.2 -8.35 8.05 -0.35 4.75 1.8 2.3 3.9 -3.65 -5.6 -6.55 -17.25 -9.4 -28.8 -8.6 -40.1 L-6.9 -39.4 M-15.65 -34.75 Q-14.85 -31.15 -10.45 -29.0 L-9.1 -20.0 -9.35 -20.05 Q-10.45 -15.95 -10.35 -11.05 L-9.6 -2.45 Q-9.0 2.35 -8.9 4.9 -8.75 8.9 -9.35 12.2 L-9.35 12.4 Q-9.35 13.1 -9.7 13.25 -10.5 13.65 -12.55 12.75 -14.65 11.85 -16.45 10.4 -16.8 5.9 -17.95 0.3 -18.6 -2.85 -20.2 -9.05 L-21.05 -13.65 -21.8 -18.25 Q-21.95 -19.05 -23.0 -19.4 -24.0 -19.75 -23.8 -18.75 L-23.45 -15.6 -23.0 -12.45 -20.4 -2.2 -19.3 3.0 Q-22.95 7.85 -25.7 13.0 -27.4 13.65 -32.0 11.75 -34.85 10.55 -36.45 7.0 -37.4 4.85 -37.65 2.7 -37.75 2.2 -37.15 0.55 L-36.95 0.15 Q-34.75 -5.5 -31.5 -11.8 -26.15 -22.25 -19.65 -30.6 L-15.75 -35.25 -15.65 -34.75 M9.4 -25.75 Q14.0 -26.05 18.8 -28.95 L18.45 -17.5 Q18.35 -10.85 18.9 -6.1 13.35 -3.5 9.45 -1.2 L6.8 -5.1 7.05 -5.15 Q6.7 -15.25 7.7 -21.1 8.4 -25.6 9.4 -25.75 M-8.3 -9.35 Q-8.5 -12.95 -8.1 -15.95 -5.1 -4.45 1.0 5.05 -3.75 9.5 -3.7 13.95 -3.65 18.1 0.25 21.35 3.3 23.9 7.95 25.4 L11.9 26.15 7.2 26.3 Q-4.45 26.55 -16.35 19.05 -16.15 16.5 -16.25 13.0 -12.7 15.35 -10.25 15.35 L-8.85 15.05 Q-7.4 14.4 -7.4 12.5 -6.75 9.0 -6.95 4.75 -7.05 2.2 -7.65 -2.7 L-8.3 -9.35 M5.0 7.5 Q5.0 8.2 5.6 8.7 6.95 11.8 6.95 15.4 6.9 18.85 5.6 22.1 L5.55 22.55 Q2.25 21.2 0.3 19.15 -2.05 16.6 -1.65 13.65 -1.15 10.0 3.8 5.7 L5.0 7.5 M5.1 4.65 Q10.25 0.55 19.25 -3.65 19.65 -1.3 20.75 3.25 L22.2 10.1 Q22.7 13.15 22.25 16.3 21.7 19.75 20.05 22.15 19.1 16.55 15.7 12.45 12.05 8.05 6.7 7.05 L5.1 4.65 M-32.5 13.85 L-30.9 14.4 Q-30.7 16.7 -31.8 18.05 L-32.9 18.95 -33.7 19.3 -32.25 25.1 Q-30.85 29.95 -31.45 30.45 -31.85 30.7 -33.4 29.95 -36.75 28.3 -37.9 22.65 -38.3 20.85 -38.5 16.55 -38.55 15.8 -39.4 15.8 -40.25 15.85 -40.5 16.5 -41.1 18.25 -39.95 23.25 -38.4 29.7 -34.3 31.75 -32.1 32.85 -30.75 32.35 L-30.55 32.75 -29.25 34.9 Q-28.95 35.25 -29.0 35.9 -29.05 36.65 -29.55 36.95 -30.95 37.95 -34.25 35.75 L-35.3 35.0 -36.2 34.05 Q-38.45 31.6 -40.1 28.8 -42.6 24.5 -42.95 20.5 -43.35 15.05 -39.2 6.05 -37.1 11.9 -32.5 13.85 M-31.4 20.45 Q-29.05 19.1 -29.15 14.9 L-26.25 15.25 -26.3 16.95 Q-26.4 18.05 -27.0 19.5 -27.55 20.8 -28.15 21.55 L-24.95 25.65 Q-22.2 29.45 -22.8 30.05 -23.8 31.05 -25.8 29.25 L-28.15 27.0 -28.35 27.0 -28.45 27.0 Q-28.5 27.35 -26.55 30.25 -24.8 32.9 -25.7 33.8 -26.6 34.65 -28.1 33.8 L-30.3 32.1 -30.15 32.0 Q-29.1 31.1 -29.35 28.85 -29.45 27.5 -30.35 24.5 L-31.4 20.45 M4.15 32.85 Q3.4 31.95 2.7 32.45 -5.8 38.8 -9.85 46.65 -12.85 42.2 -14.15 38.95 -16.85 31.9 -16.6 20.9 -4.3 28.6 7.05 28.45 L18.8 27.6 Q25.3 26.5 29.8 23.75 L35.35 22.15 Q35.65 25.25 34.4 29.85 33.3 33.75 31.6 37.35 26.05 49.3 11.05 56.45 10.2 56.85 10.85 57.85 11.45 58.85 12.2 58.5 L18.85 55.55 Q21.6 59.85 21.3 68.5 19.2 75.6 17.2 78.7 13.55 84.3 8.4 81.8 L5.05 79.1 Q1.05 75.5 -2.75 71.2 -7.7 65.45 -9.5 60.25 -11.5 54.55 -7.7 47.55 -3.85 40.35 4.25 34.25 4.95 33.75 4.15 32.85 M8.9 16.25 Q9.0 12.55 7.75 9.25 12.4 10.5 15.25 14.7 17.9 18.55 18.25 23.7 L7.75 23.35 7.55 23.3 Q8.85 19.9 8.9 16.25 M57.75 6.4 Q51.7 1.5 45.9 -1.05 38.45 -4.3 32.3 -3.25 L30.7 -7.2 30.85 -7.25 Q37.3 -9.8 45.25 -9.15 52.5 -8.5 59.3 -5.4 L59.95 -1.8 Q60.35 2.55 57.75 6.4 M58.55 -7.7 Q51.95 -10.55 45.05 -11.2 37.5 -11.95 31.2 -9.85 34.7 -13.95 41.5 -15.55 47.35 -16.95 53.6 -16.15 L53.85 -16.15 Q57.05 -11.75 58.55 -7.7 M52.2 -18.35 Q45.45 -19.0 39.75 -17.5 32.9 -15.7 29.2 -11.15 L28.35 -13.7 Q30.35 -19.0 36.8 -21.2 41.95 -22.95 48.45 -22.35 L50.4 -20.3 52.2 -18.35 M45.4 0.8 Q46.7 8.2 41.9 17.05 L41.85 17.25 38.9 18.4 Q39.05 15.6 38.15 12.05 L36.05 5.95 33.15 -1.2 Q38.5 -2.15 45.4 0.8 M22.7 52.0 Q29.5 65.7 29.0 84.1 L28.95 86.35 Q26.2 89.35 23.15 90.8 L25.3 85.6 Q25.5 85.0 25.1 82.85 24.75 80.9 25.2 80.45 L26.0 80.35 26.95 80.15 Q27.55 79.65 27.65 78.6 L27.6 76.75 Q27.45 74.5 26.2 72.4 25.25 70.8 23.3 68.85 23.5 59.1 19.85 54.1 L22.7 52.0 M45.1 15.8 Q48.45 8.1 47.45 1.75 52.45 4.3 56.7 7.8 53.0 12.1 45.1 15.8 M24.85 78.3 Q23.65 78.35 23.3 79.0 22.85 79.9 23.1 81.45 L23.25 84.1 22.55 86.65 Q21.5 89.35 19.75 91.95 L19.65 92.0 Q19.05 92.15 19.25 92.7 17.4 95.25 15.5 96.8 13.2 98.75 10.2 99.75 7.0 100.8 4.25 100.25 2.65 99.95 3.3 96.4 3.55 96.15 3.45 95.75 L3.95 93.85 Q5.25 89.25 8.3 83.7 L9.85 84.4 Q14.9 86.2 18.6 80.95 20.9 77.65 22.9 70.85 25.45 73.75 25.65 77.0 25.75 78.25 24.85 78.3 M24.05 96.5 L22.95 96.4 18.6 100.45 Q15.4 103.3 9.3 104.6 L-0.45 105.1 Q-3.75 104.55 -2.55 102.1 -1.7 100.4 1.2 98.05 1.45 100.4 3.0 101.65 4.75 103.1 8.35 102.5 10.9 102.1 13.65 100.8 17.85 98.9 21.25 93.95 25.85 92.85 29.75 89.0 31.05 92.35 30.7 94.65 30.5 96.1 27.75 97.4 25.0 98.65 24.75 97.55 L24.05 96.5" fill="#ffffff" fill-rule="evenodd" stroke="none"/>
  </g>
</svg>
