<?xml version="1.0" encoding="UTF-8" standalone="no"?>
<svg xmlns:ffdec="https://www.free-decompiler.com/flash" xmlns:xlink="http://www.w3.org/1999/xlink" ffdec:objectType="shape" height="167.65px" width="122.0px" xmlns="http://www.w3.org/2000/svg">
  <g transform="matrix(1.0, 0.0, 0.0, 1.0, 45.75, 47.15)">
    <path d="M29.05 -47.05 Q37.5 -45.85 44.25 -33.45 50.15 -22.6 51.05 -8.15 51.6 1.55 45.4 11.1 41.9 16.5 36.8 20.65 L35.9 21.4 35.8 21.4 Q32.65 21.35 29.3 20.45 26.3 19.65 24.25 17.6 22.45 15.85 21.0 12.7 20.1 10.65 19.7 8.4 L19.6 8.15 Q24.25 5.95 26.3 1.25 27.25 -0.9 27.25 -3.85 L27.2 -4.75 Q27.0 -7.6 25.75 -11.15 L23.2 -16.95 Q21.1 -21.5 19.1 -21.4 18.1 -21.35 18.6 -20.2 L13.8 -20.75 11.05 -21.35 8.45 -22.15 Q10.75 -24.6 13.65 -28.35 16.4 -31.85 17.65 -34.25 19.55 -38.0 19.2 -41.05 L18.95 -41.55 19.15 -42.0 19.5 -42.35 Q20.55 -45.1 23.4 -46.35 26.0 -47.45 29.05 -47.05 M8.45 -33.35 L-4.4 -18.9 -4.55 -27.2 Q-4.5 -28.75 -5.55 -29.95 L-7.55 -32.5 -7.6 -32.6 -5.7 -36.15 Q-2.95 -33.05 1.95 -32.65 5.15 -32.4 8.45 -33.35 M11.8 -29.8 Q8.85 -25.95 5.65 -22.65 L5.5 -22.4 Q4.45 -21.95 3.6 -20.5 3.35 -19.2 2.9 -18.8 L1.55 -17.25 Q0.05 -15.25 -0.3 -12.6 L-6.75 -4.55 -11.55 -7.3 12.65 -34.5 Q12.9 -34.8 12.8 -35.2 15.25 -36.6 16.9 -38.5 16.35 -36.4 14.7 -33.85 L11.8 -29.8 M15.75 -18.3 L20.75 -17.85 21.05 -17.35 Q24.45 -11.3 25.1 -5.6 21.1 -5.45 14.5 -7.15 12.4 -7.7 11.65 -10.7 L10.7 -15.65 Q10.2 -17.4 8.9 -18.5 7.55 -19.6 5.9 -19.7 L6.35 -20.25 8.6 -20.15 10.9 -19.2 15.75 -18.3 M4.65 -17.15 Q7.75 -18.55 9.05 -14.55 L10.8 -8.0 Q11.45 -6.7 12.95 -5.85 13.9 -5.35 15.8 -4.8 21.1 -3.4 25.2 -3.45 25.05 -1.8 24.6 -0.7 L16.2 -1.95 Q15.15 -3.8 12.95 -4.75 11.75 -5.3 10.45 -4.75 9.3 -4.3 8.4 -3.25 5.05 -3.4 3.2 -5.95 1.55 -8.3 1.85 -11.5 L1.95 -12.25 Q2.45 -15.15 4.6 -17.15 L4.65 -17.15 M7.9 -1.25 L5.55 22.15 4.75 32.0 Q-1.55 31.9 -5.35 29.7 L-7.4 28.0 -7.5 27.75 -6.15 24.0 -6.15 23.75 Q-1.05 22.25 1.8 19.6 5.25 16.4 5.1 11.8 5.05 7.5 1.9 3.2 L1.45 2.65 Q-0.9 -0.35 -4.8 -3.2 L-0.1 -9.05 Q0.6 -6.1 2.7 -4.0 4.9 -1.75 7.9 -1.25 M14.6 -1.05 L13.8 4.45 Q12.2 15.7 11.4 23.5 10.15 36.45 11.6 44.25 12.4 48.4 14.35 52.75 L16.4 57.3 Q17.3 59.75 17.15 62.15 17.05 62.95 18.1 63.55 19.1 64.15 19.15 63.15 19.3 59.9 18.3 57.05 L18.45 56.95 Q24.55 50.55 26.1 45.55 27.35 41.45 27.35 35.2 L30.45 35.0 31.65 34.6 Q31.45 39.9 30.75 43.5 29.8 48.3 27.8 51.8 L23.05 59.2 Q20.35 63.55 19.7 67.3 18.65 73.65 15.95 92.6 L12.15 119.65 Q12.0 120.5 9.85 120.5 7.9 120.5 7.2 120.1 L6.45 119.65 Q7.3 111.5 9.25 99.85 11.9 84.4 13.2 67.8 L13.55 63.8 Q13.65 61.35 13.1 59.75 12.55 58.2 11.05 55.55 9.4 52.7 8.85 51.3 6.35 45.0 6.55 36.05 6.55 33.5 7.8 20.45 L10.0 -1.5 Q10.95 -2.7 12.85 -2.7 14.85 -2.7 14.6 -1.05 M48.45 21.15 Q42.45 25.3 36.2 27.55 L36.75 23.55 36.75 23.5 Q37.75 23.5 39.35 21.9 L41.5 19.6 Q45.3 15.9 48.2 11.0 48.95 16.05 48.9 21.0 48.7 21.0 48.45 21.15 M46.6 44.7 L49.6 42.9 Q54.4 50.95 51.65 61.1 49.2 70.0 42.1 77.3 L34.3 77.05 Q38.25 75.65 41.15 72.3 45.55 67.25 47.1 60.7 48.85 53.1 45.15 48.25 L46.6 44.7 M44.65 43.5 Q43.0 47.85 40.65 52.0 40.25 52.7 41.15 53.45 42.05 54.2 42.5 53.45 L44.35 49.95 Q46.85 54.15 44.85 60.7 43.2 66.1 39.6 70.5 35.95 74.9 30.7 75.65 25.25 76.4 21.0 72.75 L21.65 68.55 Q22.3 64.75 25.15 60.15 L30.1 52.5 Q32.25 48.75 33.05 43.1 33.55 39.65 33.7 33.2 L33.75 33.15 33.7 33.05 Q34.7 32.0 35.5 30.05 L36.1 30.1 Q42.45 27.95 48.8 23.75 48.25 33.85 44.8 43.05 44.65 43.3 44.65 43.5 M53.55 41.05 L53.65 41.05 Q58.05 42.6 60.0 46.95 61.7 50.9 60.9 55.75 59.25 65.5 47.95 74.1 55.15 64.3 54.5 53.65 54.1 47.05 51.1 42.1 52.15 41.6 53.55 41.05 M70.3 46.0 L72.05 48.9 Q71.95 55.3 70.05 61.4 67.95 67.8 64.25 72.55 57.7 75.3 51.1 74.65 62.75 64.95 63.2 53.9 L63.1 51.25 63.25 51.25 Q67.25 51.2 69.1 44.45 L70.3 46.0 M67.3 42.65 Q66.7 45.05 65.75 46.75 64.4 49.0 62.7 49.15 61.1 43.3 56.1 40.25 L61.55 39.95 Q64.5 40.35 67.3 42.65 M34.7 23.4 Q34.05 31.4 29.5 32.9 L26.85 33.05 26.5 32.85 Q27.5 31.35 28.3 28.8 28.55 28.0 27.55 27.45 26.6 26.85 26.3 27.8 24.5 33.8 20.75 33.7 L19.0 33.3 Q21.15 31.45 22.1 28.6 22.35 27.8 21.45 27.05 L20.25 27.1 Q19.35 29.85 17.5 31.45 15.35 33.35 12.75 32.95 L12.95 29.5 Q15.4 26.85 16.4 24.9 17.95 21.85 16.85 19.45 16.05 17.75 14.3 16.85 L14.55 14.8 14.9 14.3 Q15.15 13.05 16.15 12.15 17.05 11.3 18.4 11.05 20.35 17.3 24.65 20.35 28.45 22.95 34.7 23.4 M15.15 9.9 L16.55 0.15 23.75 1.2 Q21.6 4.85 17.95 6.3 17.45 6.55 17.55 7.1 L17.85 8.9 Q16.25 9.15 15.15 9.9 M3.1 10.75 Q3.5 15.3 0.05 18.25 -2.8 20.75 -8.1 21.95 -11.95 19.5 -13.4 15.6 -14.95 11.55 -13.2 7.45 L-12.65 6.85 Q-9.9 4.3 -6.5 3.3 -2.45 2.1 0.35 4.0 2.85 7.4 3.1 10.75 M17.35 34.4 Q19.25 35.65 21.45 35.85 23.4 36.0 25.0 34.65 L25.3 34.75 Q25.2 39.25 24.45 43.1 23.35 48.3 17.25 54.7 14.05 47.8 13.35 43.15 12.75 39.55 12.75 34.95 15.05 35.5 17.35 34.4 M13.3 25.25 L14.05 18.75 Q16.85 20.05 13.3 25.25 M10.1 57.45 Q11.4 59.8 11.45 61.5 L11.1 69.05 10.25 76.55 8.45 90.35 8.25 90.45 Q5.9 92.5 2.85 93.2 -0.35 93.9 -3.15 92.8 L-3.25 92.75 Q-9.4 84.35 -12.65 75.15 -16.3 64.95 -15.6 55.55 -15.35 51.8 -13.95 46.95 L-11.3 38.55 -8.2 29.65 Q-4.45 33.8 4.65 34.1 4.4 45.8 7.95 53.6 8.55 54.9 10.1 57.45 M7.95 93.65 L6.4 104.05 6.1 104.15 Q3.9 105.6 0.1 107.45 -2.95 108.95 -5.4 109.6 -9.7 110.75 -10.5 108.85 -11.15 107.2 -9.35 104.25 L-6.45 100.25 Q-4.5 97.8 -2.15 95.45 L-1.95 95.15 3.15 95.4 Q5.7 95.0 7.95 93.65 M21.35 96.5 Q19.7 98.4 17.05 99.9 L19.15 85.2 Q21.8 88.6 22.85 92.05 23.45 94.1 21.35 96.5 M76.1 63.8 Q72.95 67.55 68.55 70.25 73.0 62.55 73.9 52.85 75.95 58.15 76.25 63.7 L76.1 63.8 M50.6 83.15 Q48.05 80.9 46.25 78.25 L48.95 76.3 Q56.7 78.0 64.6 74.9 L65.45 74.8 65.75 74.4 Q71.7 71.85 76.25 67.2 75.9 72.4 74.2 76.75 L74.1 76.8 Q69.5 80.8 63.2 82.5 56.95 84.2 50.85 83.15 L50.6 83.15 M63.35 87.3 Q58.75 88.5 53.85 85.55 L63.05 84.9 Q67.7 83.8 71.65 81.5 68.3 85.95 63.35 87.3 M-11.75 -41.3 Q-18.25 -32.8 -24.05 -22.4 L-25.6 -23.45 Q-24.65 -29.65 -21.85 -34.6 -18.55 -40.35 -13.5 -42.6 L-11.75 -41.3 M-7.15 -38.35 Q-14.45 -25.0 -20.05 -13.0 L-23.55 -5.05 Q-25.4 -0.55 -26.35 3.15 -27.8 8.95 -27.8 13.1 -27.85 18.9 -25.35 22.6 -29.8 22.0 -34.05 20.4 -35.55 11.45 -31.95 0.2 -29.45 -7.6 -23.55 -18.5 -17.0 -30.65 -9.75 -40.05 L-7.4 -38.85 -7.15 -38.35 M-6.5 -28.65 Q-6.7 -23.25 -6.3 -16.85 L-6.3 -16.8 -11.1 -11.45 Q-13.2 -15.35 -15.6 -16.95 L-8.5 -30.9 -6.5 -28.65 M-25.6 -21.4 L-25.15 -21.1 -25.1 -21.0 -25.1 -21.05 -24.9 -20.8 -27.8 -15.35 Q-30.55 -17.05 -36.3 -16.75 L-32.9 -20.9 Q-31.2 -22.85 -27.5 -22.35 L-26.3 -21.8 Q-25.8 -21.6 -25.6 -21.4 M-37.4 -14.45 Q-31.1 -15.1 -28.6 -13.75 L-31.1 -8.45 -31.6 -8.45 Q-35.6 -7.15 -39.15 -4.5 -42.65 -1.85 -45.15 1.65 -43.45 -6.25 -37.85 -14.55 L-37.4 -14.45 M-32.2 -5.75 Q-34.2 -0.6 -35.2 3.75 L-35.7 3.85 Q-38.7 5.7 -40.7 8.2 -43.0 11.0 -43.5 14.1 -45.6 11.2 -45.75 7.35 -43.8 3.0 -40.2 -0.45 -36.65 -3.9 -32.2 -5.75 M-22.4 -0.85 Q-18.85 -3.75 -13.25 -6.15 -6.55 -2.9 -2.5 0.9 -6.2 0.15 -10.15 2.15 -13.9 4.05 -16.75 7.7 -19.6 11.35 -20.45 15.35 -21.4 19.7 -19.65 23.1 L-22.15 22.95 -23.0 22.9 Q-26.25 19.3 -25.9 12.7 -25.65 8.3 -23.7 1.85 L-22.85 -0.7 Q-22.5 -0.7 -22.4 -0.85 M-16.2 -7.4 Q-18.95 -6.15 -21.3 -4.6 L-19.75 -8.15 -19.7 -8.1 Q-18.0 -8.05 -16.2 -7.4 M-13.7 -8.5 L-13.9 -8.4 Q-16.2 -9.65 -18.9 -10.05 L-16.35 -15.4 Q-14.25 -13.95 -12.3 -10.05 L-13.7 -8.5 M-10.4 22.4 L-17.7 23.05 Q-19.25 20.75 -18.6 17.35 -18.05 14.45 -16.15 11.3 -16.1 14.45 -14.55 17.4 -13.05 20.2 -10.4 22.4 M-39.1 18.05 L-41.65 16.2 Q-41.6 11.1 -35.85 6.8 -37.05 13.5 -36.1 19.55 L-39.1 18.05" fill="#ffffff" fill-rule="evenodd" stroke="none"/>
  </g>
</svg>
