<?xml version="1.0" encoding="UTF-8" standalone="no"?>
<svg xmlns:ffdec="https://www.free-decompiler.com/flash" xmlns:xlink="http://www.w3.org/1999/xlink" ffdec:objectType="shape" height="168.7px" width="114.5px" xmlns="http://www.w3.org/2000/svg">
  <g transform="matrix(1.0, 0.0, 0.0, 1.0, 48.0, 47.9)">
    <path d="M27.55 -47.9 Q36.25 -47.95 44.25 -36.25 51.2 -26.1 53.55 -12.35 55.35 -1.95 49.85 8.5 46.7 14.4 42.0 18.95 L41.5 19.45 40.85 19.55 Q36.9 19.8 33.05 18.8 27.85 17.45 24.7 10.15 L23.95 7.9 24.2 7.75 Q26.65 6.2 28.25 3.85 29.8 1.45 30.3 -1.35 30.55 -2.75 30.4 -4.65 30.6 -4.9 30.3 -5.5 29.5 -10.8 24.6 -18.25 22.3 -21.75 20.75 -21.5 19.75 -21.35 20.25 -20.25 L16.2 -20.35 12.4 -20.8 8.65 -21.45 7.3 -21.3 Q12.1 -27.75 15.3 -32.95 L17.75 -37.2 Q19.05 -40.0 18.8 -41.95 L18.75 -42.05 19.1 -42.5 Q19.8 -45.0 22.35 -46.5 24.65 -47.85 27.55 -47.9 M7.7 -33.9 L-6.8 -18.35 -6.8 -27.5 Q-6.7 -28.9 -7.8 -30.15 L-9.75 -32.5 -9.85 -32.65 -7.2 -37.5 Q-4.6 -33.85 0.65 -33.3 4.15 -32.9 7.7 -33.9 M12.65 -36.05 Q14.55 -37.2 16.0 -38.8 L14.45 -35.95 12.9 -33.55 Q9.95 -28.8 3.95 -20.75 -2.25 -12.5 -8.95 -4.55 -10.9 -5.85 -13.75 -7.3 L12.45 -35.55 12.65 -36.05 M12.55 -18.5 L17.6 -18.05 22.7 -18.05 22.95 -17.65 Q26.95 -12.05 28.15 -6.35 23.1 -5.55 16.7 -7.05 14.95 -7.45 14.05 -10.55 13.25 -14.05 12.7 -15.15 11.85 -16.8 10.55 -17.7 9.2 -18.6 7.65 -18.5 L7.95 -19.0 Q8.5 -19.6 10.2 -19.2 L12.55 -18.5 M6.65 -15.9 Q9.6 -17.65 11.4 -13.45 L14.0 -6.85 Q15.0 -5.5 17.25 -4.9 L21.1 -4.3 Q25.05 -3.8 28.4 -4.15 28.5 -2.75 28.1 -1.4 L19.5 -1.85 Q18.4 -3.6 16.5 -4.2 13.6 -5.15 11.75 -2.45 6.55 -2.2 4.8 -7.15 3.05 -12.0 6.55 -15.75 L6.6 -15.85 6.65 -15.9 M3.55 -15.6 Q0.7 -10.85 3.35 -5.7 6.0 -0.6 11.4 -0.3 L11.3 23.3 11.35 31.7 Q-0.25 31.7 -15.8 25.7 L-16.1 25.1 -10.05 24.15 Q-9.5 24.4 -9.35 23.95 -3.9 22.6 -0.75 19.9 3.05 16.6 2.9 11.8 2.75 7.35 -0.35 3.2 L-0.75 2.6 Q-3.3 -0.5 -7.0 -3.2 -0.95 -10.4 5.2 -18.5 5.1 -17.7 4.8 -17.4 L3.55 -15.6 M18.1 -0.85 L17.85 4.65 Q17.35 14.4 17.25 24.1 17.15 36.95 19.55 45.15 20.2 47.35 23.6 53.5 26.45 58.55 26.6 62.05 26.6 62.9 27.6 63.3 28.65 63.65 28.6 62.55 28.45 59.4 27.2 56.75 L27.25 56.65 Q32.75 49.75 33.85 44.6 34.7 40.5 34.15 34.15 L37.4 33.6 38.4 33.1 Q38.7 38.6 38.25 42.55 37.65 47.6 35.7 51.55 L31.85 59.1 Q29.85 63.45 29.6 67.2 L28.2 93.5 27.1 118.2 27.05 119.2 26.4 119.85 Q25.3 120.75 23.85 120.8 22.5 120.8 21.3 120.05 L21.3 119.4 Q21.4 113.2 22.35 98.0 23.45 81.5 23.1 66.6 L23.0 62.85 Q22.75 60.7 21.95 59.25 L19.25 55.05 Q17.5 52.4 16.7 50.65 14.0 44.65 13.45 35.8 13.3 33.8 13.3 20.4 13.3 9.85 13.45 -0.75 14.05 -1.7 15.1 -2.25 L17.05 -2.05 Q18.15 -1.5 18.1 -0.85 M44.5 20.25 Q44.5 23.8 44.15 26.95 L41.95 27.6 Q42.5 25.15 42.4 21.6 43.3 21.55 44.5 20.25 M41.7 30.05 L43.9 29.4 Q42.95 36.2 40.6 41.65 40.75 38.4 40.3 31.35 L41.1 30.0 41.7 30.05 M42.55 46.3 Q44.55 48.95 45.7 52.2 47.8 57.6 46.75 63.85 45.9 69.35 42.7 74.95 L42.65 75.1 Q40.25 77.0 37.15 77.9 L31.0 78.45 31.1 76.0 31.3 75.95 Q35.25 72.9 38.1 67.6 40.55 63.0 41.8 57.5 42.7 53.45 42.7 47.85 L42.5 46.25 42.55 46.3 M49.75 48.3 Q50.3 50.8 50.4 54.65 50.5 59.95 48.8 65.2 49.75 59.65 48.25 54.0 46.65 48.25 43.0 44.15 L44.45 43.45 46.95 42.6 Q48.9 44.65 49.75 48.3 M60.65 47.35 Q63.05 50.95 64.5 56.0 64.2 56.15 64.2 56.7 64.95 63.35 61.25 69.55 57.75 75.45 51.7 78.75 L51.5 78.85 Q49.2 78.5 47.0 77.35 45.95 76.85 45.05 76.0 L47.65 73.05 Q50.5 68.75 51.8 62.7 L52.4 62.6 Q56.2 59.95 58.25 55.55 60.25 51.3 60.1 46.55 L60.65 47.35 M57.95 44.45 Q58.5 48.65 56.95 52.65 55.45 56.7 52.35 59.5 53.05 54.5 52.25 50.15 51.35 45.35 48.85 42.25 54.15 41.55 57.95 44.45 M22.25 8.8 Q20.6 9.25 19.65 10.1 L20.1 0.25 27.4 0.65 Q25.65 4.4 22.2 6.15 21.7 6.4 21.8 6.95 L22.25 8.8 M23.0 10.95 Q25.6 17.15 29.8 19.45 34.15 21.85 40.4 21.7 40.5 29.9 35.95 31.65 L33.35 32.05 33.1 31.9 Q33.9 30.35 34.5 27.75 34.65 26.95 33.65 26.35 32.7 25.75 32.5 26.7 31.2 33.0 27.55 33.2 L25.75 32.95 Q27.65 30.9 28.35 27.9 28.55 27.1 27.55 26.5 26.55 25.9 26.35 26.85 25.3 31.55 21.8 32.8 L19.4 33.2 Q19.25 31.5 19.25 29.8 L19.35 29.7 Q21.5 26.85 22.25 24.9 23.45 21.85 22.25 19.5 21.5 17.85 19.4 17.05 L19.45 15.05 19.8 14.55 Q19.9 13.2 20.8 12.25 21.7 11.25 23.0 10.95 M0.75 43.75 Q0.6 48.1 1.1 52.6 L-2.6 58.8 Q-3.05 58.9 -3.0 59.55 L-5.2 64.55 Q-5.5 65.3 -4.6 66.05 L-3.35 66.0 -2.05 62.9 Q-0.5 66.65 3.35 70.85 L10.25 77.5 Q6.35 82.3 2.2 84.95 -3.45 88.55 -8.15 87.0 -16.65 81.35 -21.9 74.95 -28.35 67.05 -29.4 58.5 -29.8 55.3 -28.9 51.9 -28.2 49.35 -26.4 45.75 L-21.45 36.55 -16.4 27.4 Q-0.5 33.7 11.45 33.8 12.05 46.55 16.7 54.4 L19.15 57.9 Q20.65 60.05 20.85 61.7 21.2 64.75 21.2 69.0 L21.1 76.3 21.1 77.25 20.65 77.1 Q12.65 76.75 8.0 69.3 4.3 63.35 3.15 53.8 L3.25 53.6 Q3.65 53.05 3.0 52.35 2.65 48.7 2.75 44.8 2.8 44.0 1.8 43.4 0.8 42.8 0.75 43.75 M32.15 33.9 Q32.45 38.35 32.05 42.15 31.45 47.5 25.95 54.5 L25.8 54.25 Q22.3 48.45 21.0 43.65 20.1 40.3 19.55 35.3 22.1 35.5 24.15 34.25 26.1 35.35 28.3 35.35 30.25 35.3 31.75 33.8 L32.15 33.9 M40.35 47.3 L40.6 46.8 Q40.75 54.3 38.6 60.85 36.2 68.2 31.3 72.75 L31.65 67.7 Q31.9 63.7 34.6 58.45 L39.05 49.75 39.7 47.65 40.35 47.3 M19.35 19.0 Q22.55 20.15 19.2 25.7 L19.35 19.0 M7.15 87.8 Q2.65 94.1 -3.6 99.65 -13.05 107.65 -14.1 105.05 -14.8 103.25 -13.4 99.9 L-11.0 95.05 -7.65 89.15 Q-2.55 90.7 3.45 86.95 8.0 84.15 12.0 79.1 L14.0 81.0 Q14.95 81.9 14.45 83.2 L13.1 85.35 10.2 88.5 8.25 87.6 Q7.5 87.25 7.15 87.8 M38.0 84.0 Q37.05 82.05 36.55 80.35 40.55 79.6 43.7 77.1 47.25 80.95 54.0 81.25 59.2 81.45 65.6 79.55 65.0 82.25 63.8 84.55 57.3 86.7 50.95 86.75 43.65 86.8 38.2 84.1 L38.0 84.0 M66.0 63.3 Q66.6 68.35 66.45 73.05 L66.1 76.95 Q60.05 79.0 55.5 79.15 59.55 76.3 62.3 72.2 65.1 68.05 66.0 63.3 M44.4 91.35 Q41.7 89.7 39.6 86.7 44.6 88.7 50.7 88.8 56.25 88.9 61.95 87.45 57.85 92.8 50.8 93.0 47.4 93.15 44.4 91.35 M-8.05 -38.95 Q-8.8 -39.3 -9.15 -38.75 -16.5 -25.35 -22.25 -13.05 -27.1 -2.65 -28.55 3.15 -30.0 8.9 -30.05 13.1 -30.1 18.85 -27.6 22.6 -32.4 21.85 -36.3 20.4 -37.8 11.4 -34.2 0.2 -31.65 -7.6 -25.75 -18.55 -19.25 -30.7 -11.6 -40.55 -11.2 -41.0 -11.8 -41.7 L-8.45 -39.8 -8.05 -38.95 M-12.55 -42.25 Q-13.15 -42.4 -13.5 -42.0 -20.2 -33.35 -26.3 -22.4 L-27.8 -23.5 Q-26.85 -29.95 -23.65 -35.35 -20.1 -41.35 -14.75 -44.0 L-12.55 -42.25 M-8.75 -28.7 Q-9.1 -23.3 -8.7 -17.2 L-8.45 -16.55 -13.25 -11.35 Q-15.3 -15.3 -17.85 -17.0 L-10.75 -30.9 -8.75 -28.7 M-27.15 -20.85 L-30.05 -15.4 Q-32.85 -17.15 -38.55 -16.75 L-35.15 -20.95 Q-33.35 -22.85 -29.75 -22.4 L-27.8 -21.45 -27.35 -21.1 -27.15 -20.85 M-30.85 -13.75 L-33.3 -8.45 -33.85 -8.45 Q-37.85 -7.2 -41.4 -4.55 -44.9 -1.9 -47.4 1.6 -45.7 -6.35 -40.1 -14.6 L-39.65 -14.5 Q-33.3 -15.15 -30.85 -13.75 M-24.6 -0.85 Q-20.95 -3.9 -15.5 -6.15 -8.8 -2.95 -4.7 0.85 -8.4 0.1 -12.35 2.15 -16.1 4.05 -18.95 7.7 -25.5 16.05 -21.9 23.05 L-25.25 22.85 Q-28.45 19.3 -28.1 12.65 -27.85 8.2 -25.9 1.85 L-25.05 -0.7 Q-24.8 -0.7 -24.6 -0.85 M-22.0 -8.15 L-21.9 -8.15 -18.4 -7.45 -23.55 -4.6 -22.0 -8.15 M-15.9 -8.5 L-16.15 -8.45 Q-18.35 -9.7 -21.1 -10.1 L-18.6 -15.4 Q-16.4 -13.95 -14.5 -10.0 L-15.9 -8.5 M-34.4 -5.8 Q-36.35 -0.9 -37.45 3.7 L-37.95 3.8 Q-40.95 5.6 -42.95 8.15 -45.25 11.0 -45.75 14.1 -47.75 11.3 -48.0 7.3 -46.05 2.95 -42.45 -0.5 -38.85 -3.95 -34.4 -5.8 M-1.85 3.95 Q0.55 7.25 0.85 10.7 1.6 19.1 -10.35 21.95 -14.15 19.5 -15.6 15.6 -17.15 11.5 -15.45 7.4 L-14.85 6.85 Q-12.2 4.25 -8.75 3.25 -4.7 2.1 -1.85 3.95 M-19.9 23.05 Q-21.45 20.7 -20.85 17.3 -20.3 14.45 -18.35 11.25 -18.3 14.4 -16.75 17.35 -15.25 20.2 -12.6 22.4 L-19.9 23.05 M-38.3 19.55 L-41.35 18.0 -43.85 16.2 Q-43.8 13.55 -42.05 10.9 -40.55 8.65 -38.05 6.8 -39.25 13.7 -38.3 19.55" fill="#ffffff" fill-rule="evenodd" stroke="none"/>
  </g>
</svg>
