<?xml version="1.0" encoding="UTF-8" standalone="no"?>
<svg xmlns:ffdec="https://www.free-decompiler.com/flash" xmlns:xlink="http://www.w3.org/1999/xlink" ffdec:objectType="shape" height="165.85px" width="108.25px" xmlns="http://www.w3.org/2000/svg">
  <g transform="matrix(1.0, 0.0, 0.0, 1.0, 46.9, 48.0)">
    <path d="M19.95 -43.95 Q21.55 -46.25 24.6 -47.3 32.35 -50.0 42.3 -42.0 50.55 -35.4 56.75 -23.55 63.1 -11.2 60.25 1.05 58.6 8.3 54.3 14.7 L53.95 15.1 52.4 15.5 Q46.95 16.85 42.6 15.65 40.2 15.0 37.85 12.5 36.0 10.55 34.45 7.85 L34.3 7.65 35.55 6.25 Q37.7 3.6 38.3 0.4 38.85 -2.75 37.85 -5.95 38.1 -6.6 37.35 -7.35 L37.2 -7.65 Q35.85 -10.75 33.3 -13.95 30.9 -16.95 28.1 -19.25 26.0 -20.9 24.9 -20.5 24.1 -20.2 24.7 -19.2 L20.7 -18.4 17.0 -18.0 13.3 -17.85 Q11.3 -17.75 10.75 -15.95 L10.65 -14.55 10.45 -13.35 Q9.85 -12.4 9.55 -11.3 7.7 -5.95 11.35 -1.35 15.0 3.25 20.45 2.3 L23.2 15.35 16.1 16.6 8.95 17.2 Q4.8 17.2 4.5 15.5 4.25 14.2 4.25 11.45 4.15 5.35 4.55 -2.8 L5.4 -17.05 5.4 -17.2 7.25 -19.65 Q12.85 -27.05 16.35 -32.85 L18.8 -37.1 Q20.15 -39.85 19.9 -41.85 L19.55 -42.5 19.95 -43.95 M8.75 -33.8 L-5.7 -18.2 Q-5.9 -23.7 -5.7 -27.4 -5.65 -28.8 -6.7 -30.0 L-8.65 -32.4 -8.75 -32.5 -6.2 -37.15 -6.15 -37.35 Q-3.55 -33.8 1.75 -33.15 5.15 -32.75 8.75 -33.8 M13.75 -35.9 Q15.85 -37.25 17.1 -38.7 L15.55 -35.85 13.95 -33.4 Q10.75 -28.2 5.05 -20.65 -1.0 -12.55 -7.85 -4.4 -10.6 -6.15 -12.7 -7.2 L13.55 -35.4 13.75 -35.9 M14.0 -15.75 L16.15 -15.8 18.25 -15.75 22.9 -16.45 27.55 -17.45 31.35 -13.5 34.5 -9.1 35.45 -7.3 Q31.8 -5.95 26.0 -5.6 L23.25 -5.8 Q22.05 -6.25 21.25 -7.55 L19.0 -11.6 Q17.85 -13.45 16.25 -14.35 14.5 -15.3 12.7 -14.8 13.0 -15.6 14.0 -15.75 M12.25 -11.8 Q14.9 -14.15 17.55 -10.55 L21.6 -4.6 Q22.7 -3.6 24.6 -3.45 L27.85 -3.55 Q32.8 -3.9 36.15 -5.1 L36.4 -2.45 27.85 -1.05 Q26.15 -2.75 24.15 -2.75 22.8 -2.8 21.75 -2.0 20.75 -1.25 20.3 0.05 15.25 1.4 12.35 -3.0 9.5 -7.45 12.25 -11.8 M25.9 -0.15 L26.8 -0.05 27.5 4.15 Q29.35 15.25 31.2 23.9 34.0 36.9 37.8 44.3 39.7 47.95 43.1 51.7 L46.5 55.5 Q48.1 57.55 48.7 59.95 48.95 60.85 49.9 60.95 50.9 61.0 50.6 59.9 49.85 57.0 48.0 54.6 L48.1 54.5 Q51.95 46.55 51.85 41.1 51.8 36.85 49.9 31.1 51.6 30.75 53.2 29.7 L54.0 29.0 55.7 36.2 Q56.4 40.3 56.15 43.45 55.95 46.05 53.9 53.05 52.15 59.0 52.5 62.75 52.85 66.6 53.85 72.15 L55.55 81.5 61.3 114.85 Q61.6 116.65 59.6 117.45 L55.85 117.6 Q54.5 111.25 52.8 100.3 L49.9 82.95 46.55 66.85 46.3 65.95 46.25 65.6 45.15 61.35 Q44.3 59.0 42.95 57.6 L38.55 53.15 Q36.15 50.6 34.7 48.25 32.6 44.8 31.05 40.1 30.0 37.0 28.7 31.5 26.0 20.0 22.4 2.45 L22.15 1.45 22.9 0.15 Q23.45 -0.5 24.35 -0.65 L25.9 -0.15 M46.85 24.15 Q46.95 30.45 43.25 31.5 L41.5 31.6 Q42.8 29.2 42.9 26.1 42.9 25.25 41.9 24.9 40.9 24.55 40.9 25.6 40.85 28.4 39.45 30.55 37.9 32.9 35.3 33.2 L34.45 30.1 34.45 30.05 Q36.0 26.75 36.3 24.6 36.85 21.3 35.1 19.15 33.9 17.65 31.8 17.4 L31.5 15.6 31.65 14.95 Q31.5 13.65 32.25 12.5 32.95 11.35 34.2 10.75 37.8 15.9 42.1 17.5 46.95 19.2 53.5 17.6 55.4 25.85 51.0 28.25 L48.75 29.05 48.45 28.95 Q48.95 26.95 48.85 24.65 48.85 23.8 47.85 23.45 46.8 23.1 46.85 24.15 M48.05 48.95 L46.4 52.7 46.05 52.35 Q44.2 50.45 42.45 48.2 L48.05 48.95 M32.15 7.15 L32.95 8.75 Q31.5 9.45 30.55 10.7 L28.9 1.0 36.15 -0.2 Q35.35 3.65 32.3 6.2 31.95 6.55 32.15 7.15 M0.3 2.75 Q-2.0 -0.2 -5.9 -3.1 -1.75 -7.95 3.15 -14.3 2.15 0.3 2.1 5.4 L0.75 3.3 0.3 2.75 M15.55 19.05 L23.7 17.55 26.85 31.7 6.65 32.6 Q-4.65 32.45 -13.35 30.15 -17.7 29.05 -20.35 27.3 L-21.45 26.4 -21.75 26.1 -22.0 25.85 -22.4 25.25 -16.25 25.3 Q-12.45 25.1 -8.95 24.3 -8.4 24.55 -8.25 24.1 0.55 21.8 3.05 16.5 4.3 18.6 7.4 19.15 10.75 19.75 15.55 19.05 M31.05 45.35 Q30.55 48.6 28.9 51.7 28.5 51.8 28.5 52.25 L28.45 52.5 Q25.85 57.0 21.8 59.5 21.1 59.95 21.85 60.85 22.65 61.75 23.35 61.3 25.9 59.7 27.9 57.35 26.8 64.05 23.8 69.45 21.85 73.1 18.3 75.5 14.7 77.95 10.75 78.25 L10.2 78.3 Q5.75 78.45 2.2 75.65 -1.45 72.7 -3.1 66.6 -4.25 62.45 -4.55 56.0 -4.95 49.65 -4.1 43.45 -4.0 42.65 -4.95 42.05 -5.95 41.45 -6.1 42.4 -7.0 49.4 -6.45 57.4 -5.8 66.4 -2.8 71.9 -5.05 84.8 -5.9 95.9 L-5.95 99.75 Q-5.9 102.35 -6.0 103.8 L-6.05 103.8 Q-12.0 106.35 -17.95 106.4 -24.85 106.5 -29.45 102.95 -31.05 101.65 -31.4 99.85 L-31.55 96.05 Q-31.6 92.4 -31.25 86.9 -30.8 79.35 -29.1 66.45 -26.4 46.7 -22.3 28.0 -21.0 29.3 -18.6 30.35 L-14.6 31.8 Q-5.75 34.55 6.25 34.75 L27.35 33.8 Q29.15 40.65 31.15 45.05 L31.05 45.35 M33.55 26.25 L32.2 19.5 Q35.75 19.8 33.55 26.25 M34.7 51.6 Q38.75 58.5 35.8 66.95 33.2 74.25 26.75 79.9 L26.5 80.35 23.1 80.75 Q18.7 80.9 14.7 79.75 20.8 78.0 24.45 72.9 27.15 69.15 28.75 63.8 30.15 59.0 30.45 53.75 31.95 51.05 32.7 48.1 L34.5 51.05 34.7 51.6 M38.3 55.45 L41.05 57.95 Q42.6 59.45 43.05 60.8 L44.5 65.8 Q39.2 75.35 31.25 78.85 35.85 73.75 37.8 67.9 40.0 61.35 38.3 55.45 M39.85 94.65 Q44.75 93.85 49.4 91.45 L49.65 93.0 49.45 93.25 Q46.75 98.1 40.15 97.8 34.25 97.5 29.95 93.9 34.3 95.5 39.85 94.65 M26.5 89.95 Q24.35 86.7 23.4 82.85 L23.8 82.85 Q27.35 82.8 30.5 81.65 35.0 86.2 47.8 82.35 L49.0 89.05 48.8 89.1 Q43.15 92.15 37.6 92.75 30.85 93.4 26.5 89.95 M55.55 55.05 Q58.1 65.9 56.85 77.9 L54.7 64.55 Q54.15 60.5 55.55 55.05 M47.3 80.1 Q36.35 83.5 32.35 80.95 40.0 77.6 45.25 69.15 L47.4 80.1 47.3 80.1 M-7.35 -39.65 L-7.0 -38.8 Q-7.7 -39.25 -8.05 -38.6 -15.5 -25.15 -21.2 -12.9 -26.05 -2.45 -27.45 3.25 -28.9 9.0 -28.95 13.2 -29.0 19.0 -26.5 22.7 -30.95 22.1 -35.2 20.5 -36.7 11.55 -33.1 0.3 -30.6 -7.5 -24.7 -18.4 -18.1 -30.65 -9.95 -41.1 L-7.35 -39.65 M-11.9 -42.45 Q-19.1 -33.2 -25.2 -22.3 L-26.7 -23.35 Q-25.8 -29.6 -22.6 -34.9 -19.0 -40.95 -13.75 -43.1 -13.35 -43.25 -13.35 -43.6 L-11.9 -42.45 M-7.65 -28.55 Q-8.0 -23.45 -7.65 -17.05 L-7.35 -16.45 -12.2 -11.25 Q-14.05 -15.0 -16.75 -16.85 L-9.65 -30.8 -7.65 -28.55 M-26.3 -21.0 L-26.25 -20.95 -26.05 -20.7 -28.95 -15.25 Q-31.7 -16.95 -37.45 -16.65 L-34.05 -20.8 Q-32.35 -22.75 -28.65 -22.25 L-26.7 -21.3 -26.3 -21.0 M-38.55 -14.35 Q-32.25 -15.0 -29.75 -13.65 L-32.2 -8.35 -32.75 -8.35 Q-36.75 -7.05 -40.3 -4.4 -43.8 -1.75 -46.3 1.75 -44.6 -6.15 -39.0 -14.45 L-38.55 -14.35 M-20.85 -8.0 Q-19.1 -7.95 -17.3 -7.3 -20.05 -6.1 -22.45 -4.5 L-20.9 -8.05 -20.85 -8.0 M-23.5 -0.75 Q-19.9 -3.7 -14.4 -6.05 -7.7 -2.85 -3.6 1.0 -7.3 0.25 -11.3 2.25 -15.0 4.15 -17.9 7.8 -20.75 11.45 -21.6 15.45 -22.55 19.8 -20.8 23.2 L-23.25 23.05 -24.15 23.0 Q-29.55 17.0 -24.8 1.95 L-23.95 -0.6 Q-23.65 -0.6 -23.5 -0.75 M-15.05 -8.3 Q-17.25 -9.55 -20.05 -9.95 L-17.5 -15.3 Q-15.2 -13.75 -13.45 -9.9 L-14.8 -8.4 -15.05 -8.3 M-33.3 -5.65 Q-35.3 -0.7 -36.35 3.85 L-36.85 3.95 Q-39.85 5.8 -41.85 8.3 -44.15 11.1 -44.65 14.2 -46.65 11.4 -46.9 7.45 -44.95 3.1 -41.35 -0.35 -37.75 -3.8 -33.3 -5.65 M-0.8 4.1 Q1.7 7.5 1.95 10.85 2.35 15.4 -1.1 18.35 -3.95 20.85 -9.25 22.05 -13.05 19.6 -14.55 15.7 -16.05 11.65 -14.35 7.55 L-13.8 6.95 Q-11.05 4.4 -7.65 3.4 -3.6 2.2 -0.8 4.1 M-18.85 23.15 Q-20.4 20.85 -19.75 17.45 -19.2 14.55 -17.25 11.4 -17.2 14.55 -15.65 17.5 -14.15 20.3 -11.5 22.5 L-18.85 23.15 M-40.25 18.15 L-42.75 16.3 Q-42.7 11.25 -37.0 6.9 -38.2 13.6 -37.25 19.65 L-40.25 18.15 M-8.55 110.8 Q-10.0 112.25 -12.95 112.9 L-14.35 113.2 -14.6 113.25 -14.4 113.15 -14.65 112.0 Q-14.75 111.45 -15.2 111.0 -15.75 110.5 -16.25 110.75 -30.25 118.0 -38.9 116.4 -40.4 116.2 -41.75 115.3 L-42.55 114.7 -42.2 113.9 Q-41.5 112.85 -40.1 111.7 L-37.65 109.95 Q-34.05 107.3 -29.6 104.95 -24.85 108.25 -18.25 108.5 -12.35 108.7 -6.35 106.45 -6.95 109.1 -8.55 110.8" fill="#ffffff" fill-rule="evenodd" stroke="none"/>
  </g>
</svg>
