<?xml version="1.0" encoding="UTF-8" standalone="no"?>
<svg xmlns:ffdec="https://www.free-decompiler.com/flash" xmlns:xlink="http://www.w3.org/1999/xlink" ffdec:objectType="shape" height="168.15px" width="117.3px" xmlns="http://www.w3.org/2000/svg">
  <g transform="matrix(1.0, 0.0, 0.0, 1.0, 48.0, 48.0)">
    <path d="M28.1 -47.55 Q36.4 -45.85 43.5 -35.35 50.15 -25.35 51.55 -11.95 52.45 -2.25 46.4 7.8 L43.7 11.65 43.7 11.7 Q41.4 14.7 38.6 17.25 L38.2 17.6 38.1 17.5 37.3 17.6 Q33.35 17.7 29.6 16.55 24.65 15.0 21.75 7.65 L21.1 5.4 21.4 5.2 Q23.85 3.8 25.55 1.45 27.2 -0.85 27.75 -3.65 28.1 -5.25 27.95 -7.1 28.1 -7.5 27.85 -7.9 27.2 -13.3 22.55 -20.75 20.45 -24.25 18.8 -24.05 17.8 -23.9 18.3 -22.8 L14.2 -23.05 7.85 -24.2 Q12.0 -29.8 15.05 -34.95 L17.5 -39.2 Q18.8 -41.95 18.55 -43.95 L18.15 -44.7 18.55 -46.25 Q20.0 -47.85 23.15 -48.0 L28.1 -47.55 M12.6 -37.9 Q14.35 -39.0 15.6 -40.45 L12.65 -35.5 Q10.15 -31.3 4.9 -24.1 3.95 -23.5 3.4 -22.25 L3.25 -21.9 Q-3.45 -12.9 -9.0 -6.25 -11.3 -7.75 -13.8 -9.05 L12.4 -37.25 Q12.7 -37.5 12.6 -37.9 M7.65 -35.6 L-6.8 -20.05 Q-7.0 -24.65 -6.8 -29.25 -6.75 -30.65 -7.85 -31.85 L-9.8 -34.25 -9.85 -34.35 -7.4 -38.8 Q-4.8 -35.45 0.4 -34.85 3.85 -34.5 7.65 -35.6 M10.7 -17.75 Q10.1 -19.45 8.8 -20.45 7.55 -21.45 5.95 -21.55 L6.05 -21.65 6.5 -22.3 8.65 -22.0 10.6 -21.35 15.55 -20.75 20.65 -20.6 20.95 -20.15 Q24.7 -14.4 25.7 -8.7 21.6 -8.25 15.1 -9.55 12.9 -10.0 11.95 -12.9 L10.7 -17.75 M9.15 -16.45 L10.2 -12.85 Q10.85 -10.75 11.45 -9.95 12.45 -8.6 14.15 -7.9 15.2 -7.5 17.55 -7.05 L25.95 -6.5 Q25.95 -5.2 25.55 -3.75 L17.05 -4.45 Q15.95 -6.2 13.4 -7.15 12.3 -7.55 11.05 -6.9 10.0 -6.35 9.2 -5.3 4.0 -5.25 2.45 -10.25 0.9 -15.2 4.5 -18.85 L4.55 -18.9 Q7.65 -20.5 9.15 -16.45 M2.55 -6.4 L2.2 6.25 Q1.3 3.7 -0.35 1.45 -0.5 1.1 -0.8 0.9 -3.15 -2.1 -7.05 -4.95 L-0.1 -13.6 Q-0.15 -9.55 2.55 -6.5 L2.55 -6.4 M8.8 -3.2 L8.2 12.85 Q6.25 12.55 4.75 11.5 3.85 10.9 3.95 8.3 L4.3 4.7 4.5 -4.75 Q6.45 -3.4 8.8 -3.2 M15.55 -3.7 L15.1 1.45 Q14.2 12.35 13.85 21.15 13.4 34.0 15.4 42.15 16.3 46.05 18.9 50.8 L21.05 55.05 Q21.95 57.3 21.95 59.65 22.0 60.55 23.0 60.9 24.0 61.2 24.0 60.15 24.0 57.15 22.75 54.35 L22.85 54.25 Q28.6 47.55 29.8 42.4 30.85 37.95 30.4 31.3 32.65 31.55 34.55 30.8 L34.75 30.75 Q34.85 36.5 34.3 40.35 33.55 45.55 31.45 49.45 28.55 54.4 27.3 56.9 25.2 61.15 24.8 64.9 24.05 72.2 20.65 115.8 L20.5 117.0 19.25 117.75 Q18.2 118.35 17.0 118.25 15.85 118.15 14.85 117.45 L14.85 116.95 Q15.25 108.95 16.55 95.95 L17.65 79.85 18.35 64.6 18.4 60.7 Q18.25 58.45 17.55 56.9 L15.1 52.7 Q13.35 50.0 12.7 48.45 10.0 42.3 9.7 33.35 9.6 30.8 10.05 17.8 L10.85 -3.6 12.0 -4.75 14.25 -4.85 Q15.6 -4.35 15.55 -3.7 M24.75 -1.75 Q22.9 2.0 19.4 3.65 18.9 3.9 18.95 4.4 L19.35 6.25 Q17.85 6.55 16.75 7.45 L17.5 -2.35 24.75 -1.75 M44.5 14.5 Q45.65 18.3 45.55 24.3 45.5 39.75 34.5 58.25 34.1 58.95 35.0 59.7 35.9 60.45 36.35 59.7 L38.4 56.15 Q38.95 62.5 36.85 67.85 34.6 73.65 29.65 77.25 28.3 78.25 25.7 78.35 L26.85 65.65 Q27.25 61.7 29.9 56.8 L34.5 48.5 Q36.25 44.75 36.65 39.2 36.9 35.95 36.7 29.5 39.7 26.75 39.8 19.5 L42.05 17.45 43.8 15.3 44.5 14.5 M55.2 45.85 Q60.3 46.05 63.3 50.35 61.2 54.75 56.85 57.3 55.8 50.1 51.4 46.05 L55.2 45.85 M43.15 48.75 L44.35 48.1 Q47.3 52.05 48.0 57.95 49.3 70.55 34.25 81.9 29.7 82.25 26.75 80.4 29.65 80.25 31.05 79.2 36.75 75.2 39.15 68.2 41.3 61.75 40.15 54.45 L39.65 53.7 42.05 48.65 43.15 48.75 M49.2 46.45 Q51.9 48.2 53.45 51.75 54.8 54.85 55.0 58.65 L55.05 58.9 55.0 62.2 Q54.35 68.5 49.9 73.45 45.95 77.8 39.65 80.55 51.0 70.3 50.0 58.45 49.45 52.25 45.95 47.4 47.45 46.85 49.2 46.45 M22.85 24.5 Q22.1 27.15 20.3 28.9 18.25 30.8 15.75 30.6 L15.7 27.15 Q18.0 24.3 18.9 22.35 20.3 19.2 19.05 16.9 18.15 15.2 16.25 14.4 L16.4 12.45 16.75 11.9 Q16.9 10.6 17.85 9.65 18.75 8.7 20.05 8.4 22.35 14.55 26.5 17.05 30.9 19.75 37.75 19.75 37.55 27.45 32.85 28.95 L29.75 29.15 Q30.6 27.5 31.0 25.55 31.2 24.75 30.2 24.15 29.2 23.6 29.0 24.55 27.5 30.8 23.7 30.85 L22.05 30.5 Q24.05 28.6 24.85 25.5 25.1 24.7 24.1 24.1 23.1 23.5 22.85 24.5 M7.95 20.2 L7.75 28.65 -7.3 27.85 Q-10.95 27.1 -12.95 26.0 L-12.6 22.95 -10.05 22.45 Q-9.5 22.7 -9.35 22.25 2.05 19.25 2.8 11.45 4.2 14.0 8.1 14.9 L7.95 20.2 M15.8 23.0 L16.15 16.35 Q19.2 17.55 15.8 23.0 M15.85 32.65 Q18.4 32.95 20.45 31.75 22.45 32.95 24.7 32.95 26.8 32.95 28.4 31.2 28.65 36.0 28.1 39.95 27.35 45.2 21.6 52.05 L21.45 51.75 Q17.9 45.6 16.8 40.0 16.25 37.25 15.85 32.65 M3.25 44.8 Q1.75 53.45 3.15 61.15 4.85 70.25 10.4 75.45 L10.7 75.7 Q9.5 81.55 9.1 89.55 L8.65 103.5 8.7 106.3 Q0.5 110.0 -7.35 108.65 L-12.0 107.3 -13.65 106.5 -13.75 106.65 -14.05 106.4 -15.45 105.6 Q-16.45 97.0 -16.4 85.9 -16.35 79.8 -15.7 66.15 -14.65 42.35 -13.2 28.1 -7.55 30.8 3.35 30.8 L7.75 30.65 Q7.95 43.35 12.1 51.25 L14.55 54.9 Q16.05 57.2 16.25 58.8 16.55 61.85 16.4 66.15 L16.05 73.45 15.85 76.8 Q12.8 75.6 10.45 73.15 6.05 68.55 4.9 60.25 3.95 53.4 5.25 45.8 5.4 45.0 4.4 44.4 3.45 43.85 3.25 44.8 M67.85 61.2 Q69.1 66.2 69.3 71.2 63.3 77.1 54.9 79.2 59.65 75.75 62.95 71.25 66.55 66.45 67.85 61.2 M66.5 56.75 L66.4 57.0 Q65.7 64.05 60.55 70.6 55.9 76.45 49.15 80.15 L49.1 80.15 45.4 80.15 Q50.45 77.05 53.4 72.7 56.65 67.95 57.05 62.15 L57.1 59.85 Q62.1 57.35 64.7 52.7 L66.5 56.75 M49.95 82.25 L50.05 82.25 Q55.35 81.9 60.35 79.85 65.35 77.8 69.3 74.4 L68.85 79.8 Q62.8 85.3 55.6 87.3 47.3 89.55 40.65 86.1 L39.35 83.2 42.4 81.85 49.95 82.25 M42.35 88.9 Q48.5 91.3 55.7 89.6 62.1 88.05 67.95 83.7 66.35 88.45 63.2 91.4 59.75 94.65 54.7 95.2 51.05 95.6 47.7 93.75 44.7 92.1 42.35 88.9 M1.65 116.4 L1.15 114.8 0.55 114.0 Q0.0 113.6 -0.4 113.8 -14.25 121.15 -22.95 120.0 L-25.7 119.2 Q-27.3 118.35 -26.7 117.05 -26.15 115.9 -24.7 114.75 L-22.2 113.0 Q-18.65 110.6 -14.05 108.55 -9.5 111.05 -3.2 111.05 2.7 111.05 8.9 108.4 L9.5 112.35 Q9.6 112.95 5.55 115.0 3.95 115.8 1.65 116.4 M-47.4 -0.1 Q-45.8 -7.85 -40.1 -16.3 L-39.65 -16.2 Q-33.35 -16.85 -30.85 -15.5 L-33.35 -10.2 -33.85 -10.2 Q-37.85 -8.9 -41.4 -6.25 -44.9 -3.6 -47.4 -0.1 M-8.6 -40.8 Q-9.0 -40.8 -9.2 -40.45 -16.35 -27.55 -22.3 -14.75 L-25.8 -6.8 Q-27.65 -2.3 -28.6 1.4 -30.05 7.2 -30.05 11.35 -30.1 17.15 -27.6 20.85 -32.0 20.25 -36.3 18.65 -37.8 9.7 -34.2 -1.55 -31.7 -9.35 -25.8 -20.25 -19.15 -32.6 -11.65 -42.25 L-11.5 -42.7 Q-10.0 -41.8 -8.8 -41.25 L-8.6 -40.8 M-13.5 -43.7 Q-20.1 -35.25 -26.3 -24.15 L-27.85 -25.2 Q-26.9 -31.55 -24.0 -36.55 -20.6 -42.35 -15.35 -44.5 -14.85 -44.75 -14.95 -45.2 L-13.25 -43.9 -13.5 -43.7 M-8.8 -30.4 Q-9.05 -25.15 -8.75 -18.9 L-8.45 -18.3 -13.3 -13.1 Q-15.3 -16.95 -17.85 -18.7 L-10.75 -32.65 Q-10.05 -31.55 -8.8 -30.4 M-27.85 -23.15 L-27.4 -22.85 -27.35 -22.75 -27.35 -22.8 -27.2 -22.55 -30.05 -17.1 Q-32.8 -18.8 -38.6 -18.5 L-35.15 -22.65 Q-33.45 -24.6 -29.75 -24.1 L-28.55 -23.55 -27.85 -23.15 M-24.65 -2.6 Q-21.15 -5.45 -15.55 -7.9 -8.85 -4.7 -4.75 -0.85 -8.45 -1.6 -12.4 0.4 -16.15 2.3 -19.0 5.95 -21.85 9.6 -22.7 13.6 -23.65 17.95 -21.9 21.35 L-24.4 21.2 -25.25 21.15 Q-28.5 17.55 -28.15 10.95 -27.9 6.55 -25.95 0.1 L-25.1 -2.45 Q-24.75 -2.45 -24.65 -2.6 M-22.05 -9.9 L-21.95 -9.85 Q-20.25 -9.8 -18.45 -9.15 -21.2 -7.9 -23.55 -6.35 L-22.05 -9.9 M-16.15 -10.15 Q-18.45 -11.4 -21.15 -11.8 L-18.6 -17.15 Q-16.45 -15.7 -14.55 -11.75 L-15.95 -10.25 -16.15 -10.15 M-34.45 -7.5 Q-36.45 -2.35 -37.45 2.0 L-37.95 2.1 Q-40.95 3.95 -42.95 6.45 -45.25 9.25 -45.75 12.35 -47.85 9.45 -48.0 5.6 -46.05 1.25 -42.45 -2.2 -38.9 -5.65 -34.45 -7.5 M-1.9 2.25 Q0.6 5.65 0.85 9.0 1.25 13.55 -2.2 16.5 -5.05 19.0 -10.35 20.2 -14.2 17.75 -15.65 13.85 -17.2 9.8 -15.45 5.7 L-14.9 5.1 Q-12.2 2.55 -8.75 1.55 -4.75 0.35 -1.9 2.25 M-12.65 20.65 L-19.95 21.3 Q-21.5 19.0 -20.85 15.6 -20.3 12.7 -18.4 9.55 -18.35 12.7 -16.8 15.65 -15.3 18.45 -12.65 20.65 M-38.35 17.8 L-41.35 16.3 -43.9 14.45 Q-43.85 9.35 -38.1 5.05 -39.3 11.75 -38.35 17.8" fill="#ffffff" fill-rule="evenodd" stroke="none"/>
  </g>
</svg>
