<?xml version="1.0" encoding="UTF-8" standalone="no"?>
<svg xmlns:ffdec="https://www.free-decompiler.com/flash" xmlns:xlink="http://www.w3.org/1999/xlink" ffdec:objectType="shape" height="162.1px" width="105.6px" xmlns="http://www.w3.org/2000/svg">
  <g transform="matrix(1.0, 0.0, 0.0, 1.0, 42.85, 44.15)">
    <path d="M21.45 -43.25 L21.75 -44.15 Q22.15 -43.8 22.6 -43.9 L24.25 -44.1 24.6 -43.15 Q24.05 -39.4 21.9 -35.2 20.35 -32.3 17.4 -28.05 12.55 -21.2 4.75 -13.45 L2.7 -18.55 Q10.5 -26.15 15.15 -31.85 17.75 -35.0 18.95 -36.9 20.9 -39.9 21.55 -42.6 L21.45 -43.25 M26.75 -43.7 Q28.9 -43.2 33.7 -40.85 37.6 -39.0 42.1 -33.95 46.4 -29.2 49.4 -23.7 43.5 -24.05 38.6 -22.45 32.7 -20.55 30.15 -16.2 29.35 -19.8 28.7 -29.5 28.15 -38.0 26.65 -42.65 L26.75 -43.7 M-7.3 -39.7 L-4.7 -38.65 Q-11.65 -26.0 -17.4 -13.45 -22.05 -3.2 -23.4 2.35 -24.8 8.15 -24.85 12.3 -24.85 18.05 -22.35 21.75 L-24.5 21.4 Q-28.0 20.8 -31.0 19.7 -32.55 10.95 -29.2 0.1 -26.8 -7.6 -21.2 -18.15 -14.75 -30.1 -7.4 -39.4 L-7.3 -39.7 M-11.25 -42.0 L-9.35 -40.8 Q-15.5 -32.85 -20.9 -23.45 L-22.7 -24.55 Q-21.8 -30.55 -19.3 -35.0 -16.15 -40.5 -11.25 -42.0 M1.85 -21.05 Q-0.3 -27.55 -1.7 -35.2 1.15 -33.15 5.25 -33.15 10.9 -33.15 15.9 -36.55 L12.4 -32.25 Q8.65 -27.75 1.85 -21.05 M-5.45 -32.35 L-3.7 -35.65 Q0.2 -13.9 10.8 0.5 8.4 1.95 5.85 4.0 L4.95 2.65 Q4.85 2.05 4.4 1.7 L4.0 1.45 2.15 -0.6 -0.25 -5.6 Q-0.25 -6.15 -0.65 -6.55 L-3.25 -13.55 -3.3 -13.6 Q-4.9 -18.85 -5.45 -23.7 -6.1 -28.7 -5.4 -31.8 L-5.45 -32.35 M-7.4 -23.65 Q-6.9 -19.05 -5.4 -14.15 L-7.95 -11.8 Q-10.0 -16.05 -12.75 -17.85 L-7.75 -27.9 -7.4 -23.65 M-22.15 -22.25 L-21.75 -21.95 -24.85 -16.1 Q-27.55 -17.85 -33.3 -17.55 L-30.65 -21.05 Q-28.3 -23.85 -23.8 -23.05 L-22.15 -22.25 M-13.5 -16.25 Q-11.3 -14.85 -9.3 -10.6 L-10.6 -9.45 -11.0 -9.25 Q-13.05 -10.45 -16.0 -10.95 L-13.5 -16.25 M-13.3 -8.25 Q-16.15 -6.95 -18.4 -5.4 L-16.9 -9.0 -16.8 -8.95 -13.3 -8.25 M-19.9 -1.5 Q-19.65 -1.5 -19.45 -1.65 -15.7 -4.8 -10.35 -7.0 -4.0 -3.95 0.25 -0.1 -7.45 -1.4 -13.85 6.95 -20.3 15.4 -16.6 22.3 L-20.0 22.05 Q-23.2 18.55 -22.9 12.1 -22.75 7.9 -20.9 1.5 L-19.9 -1.5 M-10.25 6.55 L-9.7 6.0 Q-7.1 3.5 -3.75 2.45 0.15 1.25 2.95 2.85 L4.55 5.15 3.75 5.85 Q-1.05 10.35 -1.0 14.75 -0.9 17.1 0.2 18.95 -2.35 20.3 -5.1 21.05 -8.95 18.65 -10.4 14.75 -11.95 10.65 -10.25 6.55 M-3.8 -5.35 L-8.5 -8.1 -4.55 -11.65 -2.55 -6.45 -3.8 -5.35 M-1.5 -4.15 L-1.25 -3.55 -1.75 -3.95 -1.5 -4.15 M7.85 5.5 Q12.6 1.65 22.05 -2.85 22.35 -0.25 22.95 2.15 24.9 11.1 25.05 12.85 25.65 19.35 22.8 23.1 21.85 17.4 18.45 13.3 14.8 8.9 9.45 7.85 L7.85 5.5 M7.75 8.35 Q7.75 9.1 8.35 9.55 9.7 12.6 9.65 16.2 9.6 19.7 8.3 22.95 L8.25 23.4 Q4.95 22.0 3.05 19.95 0.7 17.45 1.1 14.5 1.55 10.9 6.55 6.55 L7.75 8.35 M5.8 -11.1 Q13.95 -19.25 19.25 -26.6 L21.55 -29.95 21.35 -17.6 Q21.25 -10.4 21.75 -5.3 16.0 -2.6 12.2 -0.4 8.75 -5.05 5.8 -11.1 M-34.55 -15.25 Q-28.1 -15.9 -25.65 -14.55 L-28.15 -9.2 -28.7 -9.25 Q-32.75 -7.9 -36.35 -5.2 -39.55 -2.75 -41.9 0.5 L-42.35 1.1 -41.9 -0.7 Q-40.25 -6.5 -35.45 -14.2 L-34.8 -15.3 -34.55 -15.25 M-42.85 6.7 L-42.8 6.6 -41.9 4.75 Q-40.1 1.5 -37.3 -1.25 -33.7 -4.7 -29.25 -6.55 -31.25 -1.4 -32.25 2.95 L-32.75 3.05 Q-35.7 4.85 -37.75 7.4 -40.0 10.25 -40.5 13.3 L-41.9 10.95 Q-42.65 9.15 -42.85 7.1 L-42.85 6.7 M-32.9 6.05 Q-34.05 12.7 -33.05 18.9 -36.6 17.25 -38.65 15.4 -38.6 12.75 -36.9 10.15 -35.4 7.9 -32.9 6.05 M10.25 24.1 Q11.6 20.75 11.65 17.1 11.7 13.4 10.45 10.1 15.1 11.3 18.0 15.5 20.6 19.35 21.0 24.55 L10.5 24.2 10.25 24.1 M1.6 20.9 Q4.8 24.35 10.7 26.25 13.0 26.95 16.3 27.05 8.5 28.2 0.85 26.85 -4.8 25.9 -8.35 24.1 L-4.65 23.35 -4.15 23.2 Q-1.0 22.3 1.6 20.9 M4.1 35.45 Q3.1 34.9 2.95 35.85 0.65 49.55 0.15 66.4 -7.5 58.5 -11.5 47.0 -15.35 35.95 -14.9 24.5 L-11.2 24.4 Q-7.25 27.2 0.2 28.75 7.15 30.25 14.7 29.5 21.95 28.75 28.75 25.95 L29.2 25.4 36.05 23.6 Q35.85 38.45 32.4 56.1 L32.35 56.4 Q30.85 63.75 28.55 72.55 L24.7 85.7 22.5 92.4 21.5 94.8 Q20.8 96.45 20.75 97.4 17.2 101.55 12.55 103.15 7.45 104.95 2.8 102.8 0.05 66.3 4.95 36.85 5.05 36.05 4.1 35.45 M-14.6 22.3 Q-16.2 19.95 -15.6 16.5 -15.1 13.6 -13.15 10.4 -13.1 13.6 -11.5 16.55 -10.0 19.4 -7.3 21.6 L-14.6 22.3 M60.5 7.25 Q54.5 2.35 48.65 -0.2 41.2 -3.45 35.0 -2.45 L33.4 -6.35 33.6 -6.4 Q40.0 -8.95 48.0 -8.3 55.25 -7.65 62.05 -4.55 L62.7 -0.95 Q63.1 3.4 60.5 7.25 M61.3 -6.9 Q54.65 -9.75 47.75 -10.4 40.2 -11.1 33.9 -9.0 37.4 -13.1 44.2 -14.7 50.1 -16.1 56.3 -15.3 L56.6 -15.35 Q59.75 -10.95 61.3 -6.9 M51.15 -21.5 L54.95 -17.5 Q48.2 -18.15 42.45 -16.65 35.65 -14.85 31.95 -10.3 L31.1 -12.85 Q33.05 -18.15 39.5 -20.35 44.7 -22.1 51.15 -21.5 M28.25 -16.1 Q29.35 -11.7 31.6 -6.0 L35.7 3.8 Q38.15 9.75 38.7 11.75 40.1 16.55 39.35 20.1 32.25 22.6 25.0 23.95 27.2 20.4 27.1 14.95 27.0 11.0 25.65 5.6 23.4 -3.35 23.15 -10.75 23.0 -14.7 23.3 -21.9 L23.55 -33.1 23.5 -33.25 25.75 -38.6 Q26.4 -35.25 26.85 -27.3 27.3 -19.95 28.25 -16.1 M48.1 1.65 Q49.45 9.05 44.65 17.9 L44.55 18.05 41.6 19.25 Q41.8 16.45 40.85 12.9 L38.8 6.8 35.9 -0.35 Q41.15 -1.35 48.1 1.65 M37.55 60.6 Q38.95 65.2 38.35 65.5 L37.0 65.95 35.65 66.45 Q34.5 67.15 34.9 68.65 35.1 69.45 36.05 71.0 L37.35 72.8 Q38.1 73.9 38.25 74.75 38.45 76.15 38.3 78.25 L38.0 81.7 Q37.55 86.85 36.15 90.35 35.1 93.05 33.6 93.8 31.6 94.8 29.6 90.5 28.45 88.05 27.45 84.2 L27.55 84.0 Q31.9 69.8 34.35 57.5 36.1 56.2 37.55 60.6 M47.8 16.65 Q51.15 9.15 50.2 2.6 54.75 4.9 59.45 8.6 55.8 12.9 47.8 16.65 M20.8 108.2 L18.95 108.95 Q17.5 109.3 17.25 108.55 L16.55 107.7 15.5 107.65 10.9 112.4 Q8.25 114.7 5.3 115.85 0.9 117.55 -4.75 117.9 -9.3 118.25 -10.05 116.75 -10.8 115.1 -7.85 112.15 L-3.6 108.6 2.2 104.5 Q7.15 107.0 12.7 105.5 17.85 104.1 21.75 99.85 22.65 101.8 22.95 103.3 23.75 106.5 20.8 108.2" fill="#ffffff" fill-rule="evenodd" stroke="none"/>
  </g>
</svg>
