<?xml version="1.0" encoding="UTF-8" standalone="no"?>
<svg xmlns:ffdec="https://www.free-decompiler.com/flash" xmlns:xlink="http://www.w3.org/1999/xlink" ffdec:objectType="shape" height="158.15px" width="104.75px" xmlns="http://www.w3.org/2000/svg">
  <g transform="matrix(1.0, 0.0, 0.0, 1.0, 45.25, 46.35)">
    <path d="M20.45 -45.95 L20.6 -46.35 Q21.0 -46.0 21.45 -46.1 L23.0 -46.2 23.4 -44.9 Q22.75 -41.2 20.65 -37.3 19.05 -34.25 16.2 -30.45 11.75 -24.4 2.4 -15.75 1.45 -18.2 0.6 -20.95 9.0 -28.7 13.9 -34.2 L18.0 -39.2 Q20.1 -42.2 20.85 -44.9 21.0 -45.4 20.45 -45.95 M29.25 -44.2 L32.35 -42.55 Q35.9 -40.65 40.25 -35.45 44.2 -30.75 47.25 -24.7 L47.25 -24.65 Q41.3 -25.25 36.4 -23.9 30.4 -22.3 27.7 -18.1 27.05 -21.85 26.85 -31.25 26.7 -39.65 25.5 -44.25 L25.7 -45.7 29.25 -44.2 M-5.1 -38.1 Q-2.2 -16.7 7.35 -2.15 L3.15 0.55 2.6 -0.25 Q2.6 -0.85 2.1 -1.2 L1.7 -1.5 -1.45 -4.9 Q-8.5 -21.65 -6.8 -34.4 L-6.9 -34.95 -5.1 -38.1 M-5.9 -41.35 Q-13.25 -28.9 -19.15 -17.05 -24.1 -7.0 -25.7 -1.5 -27.3 4.3 -27.5 8.4 -27.7 14.15 -25.3 17.95 L-28.7 17.25 Q-31.55 16.5 -33.85 15.55 -35.1 6.75 -31.35 -3.95 -28.7 -11.6 -22.75 -21.95 -15.95 -33.5 -8.5 -42.45 L-5.9 -41.35 M-10.6 -43.6 Q-16.45 -36.6 -22.3 -27.2 -23.0 -27.85 -24.05 -28.4 -23.0 -34.1 -20.5 -38.3 -17.45 -43.55 -12.9 -45.15 L-10.6 -43.6 M10.05 -36.8 Q13.0 -37.8 15.4 -39.6 L11.1 -34.65 Q7.3 -30.45 -0.2 -23.5 -2.1 -30.45 -3.15 -38.25 -0.25 -35.8 4.25 -35.8 7.1 -35.8 10.05 -36.8 M3.4 -13.4 Q12.85 -22.15 17.5 -28.3 L19.5 -31.0 18.75 -19.25 Q18.45 -12.6 18.75 -7.55 12.95 -5.15 8.85 -3.0 5.65 -8.0 3.35 -13.35 L3.4 -13.4 M-23.55 -26.0 L-23.2 -25.7 -26.5 -20.0 Q-29.25 -21.9 -34.9 -21.7 L-32.1 -25.15 Q-29.7 -27.9 -25.2 -26.9 L-23.55 -26.0 M-18.65 -12.6 Q-16.95 -12.45 -15.2 -11.75 -18.2 -10.5 -20.4 -9.1 L-18.75 -12.65 -18.65 -12.6 M-12.9 -12.7 Q-15.4 -14.1 -17.85 -14.5 L-15.15 -19.75 Q-12.9 -18.1 -11.15 -14.05 L-11.1 -14.0 -12.5 -12.85 -12.9 -12.7 M-9.75 -15.15 Q-11.7 -19.35 -14.35 -21.35 L-9.15 -31.0 Q-9.2 -24.2 -7.45 -17.1 L-9.75 -15.15 M-14.3 13.15 Q-12.85 16.05 -10.25 18.3 L-17.6 18.75 Q-19.15 16.4 -18.4 12.95 -17.8 10.1 -15.75 6.95 -15.8 10.1 -14.3 13.15 M-22.05 -5.25 L-21.55 -5.4 Q-17.85 -8.25 -12.35 -10.4 -7.15 -7.8 -2.95 -4.05 L-2.6 -3.25 Q-10.2 -4.3 -16.55 3.7 -22.9 11.8 -19.55 18.7 L-22.95 18.35 Q-28.15 12.3 -23.0 -2.6 L-22.05 -5.25 M-12.65 3.15 L-12.1 2.6 Q-9.95 0.65 -7.25 -0.35 -4.15 -1.5 -1.6 -0.95 L0.25 2.75 0.25 2.8 Q-4.7 7.0 -4.85 11.55 -4.9 14.05 -3.55 16.3 L-8.05 17.85 Q-11.8 15.2 -13.1 11.35 -14.55 7.2 -12.65 3.15 M9.85 -0.9 Q13.9 -3.05 18.95 -5.1 19.2 -2.0 19.75 0.65 21.15 8.35 21.25 11.05 21.45 17.25 18.5 20.8 17.85 15.15 14.65 10.9 11.2 6.35 5.9 5.05 L4.4 2.55 Q6.9 0.7 9.2 -0.5 9.7 -0.5 9.85 -0.9 M-5.8 -8.5 L-10.45 -11.4 -6.75 -14.5 -5.0 -9.2 -5.8 -8.5 M2.8 3.8 L3.05 3.6 4.15 5.4 Q4.15 6.0 4.65 6.6 5.9 9.75 5.7 13.4 5.5 16.85 4.05 20.1 3.9 20.3 4.0 20.55 0.65 19.0 -1.2 16.65 L-1.5 16.25 Q-3.1 14.0 -2.8 11.6 -2.3 7.95 2.8 3.8 M6.8 7.3 Q11.4 8.75 14.05 13.05 16.5 17.05 16.65 22.25 10.9 22.7 6.85 21.6 L5.95 21.35 Q7.45 18.0 7.7 14.35 7.9 10.7 6.8 7.3 M-36.15 -19.5 L-31.75 -19.6 Q-28.9 -19.45 -27.35 -18.45 L-30.05 -13.2 -30.6 -13.25 Q-34.65 -12.1 -38.3 -9.55 -41.9 -7.0 -44.5 -3.55 -42.95 -9.75 -37.15 -18.5 L-36.45 -19.55 -36.15 -19.5 M-34.9 -1.2 Q-38.0 0.55 -40.15 3.0 -42.55 5.75 -43.15 8.8 -45.2 5.9 -45.25 2.1 L-45.2 2.05 Q-43.15 -2.2 -39.4 -5.55 -35.7 -8.9 -31.2 -10.6 -33.3 -5.95 -34.55 -1.3 L-34.9 -1.2 M-39.35 5.8 Q-37.8 3.6 -35.3 1.85 -36.75 8.6 -35.95 14.65 -39.05 13.2 -41.35 10.95 -41.2 8.35 -39.35 5.8 M1.5 28.0 Q-1.1 44.05 2.15 65.2 -8.8 65.3 -13.9 58.05 -17.8 52.5 -18.55 42.25 -19.25 31.7 -16.65 21.0 L-11.1 20.7 -10.7 21.0 Q-2.8 25.1 6.75 25.7 16.15 26.3 24.75 23.45 30.05 22.55 35.0 21.05 L35.1 21.05 Q35.2 48.2 33.55 64.6 L31.75 78.8 30.35 86.75 29.8 88.9 Q29.35 90.45 29.4 91.3 25.85 95.5 21.15 97.05 15.95 98.8 11.3 96.55 8.25 87.2 5.75 74.65 0.4 48.1 3.5 29.0 3.6 28.2 2.65 27.6 1.65 27.05 1.5 28.0 M6.35 23.45 L6.9 23.6 Q-1.3 23.2 -8.2 20.2 -4.95 19.5 -2.1 18.25 1.15 21.7 6.35 23.45 M59.45 -2.0 Q59.85 2.8 56.85 6.7 51.1 1.55 45.35 -1.25 38.0 -4.9 31.9 -4.1 L30.5 -8.1 30.7 -8.15 Q37.2 -10.45 45.1 -9.4 52.3 -8.45 58.95 -5.0 L59.45 -2.0 M58.35 -7.35 Q51.85 -10.5 45.0 -11.45 37.5 -12.5 31.1 -10.7 34.95 -14.8 41.75 -16.05 47.45 -17.05 53.8 -16.0 L54.05 -16.0 Q57.0 -11.45 58.35 -7.35 M52.5 -18.2 Q45.8 -19.2 40.0 -17.95 33.0 -16.5 29.2 -12.15 L28.45 -14.65 28.5 -14.7 Q30.7 -19.9 37.2 -21.8 42.45 -23.35 48.85 -22.45 L50.65 -20.45 52.3 -18.5 52.5 -18.2 M21.7 -34.4 Q23.5 -37.5 24.4 -40.05 24.8 -37.05 24.9 -28.65 25.0 -21.5 25.9 -17.4 26.8 -13.15 28.75 -7.5 L32.25 2.2 34.95 10.25 Q36.1 15.05 35.2 18.6 27.8 20.85 20.7 21.8 23.1 18.4 23.2 12.9 23.3 9.0 22.2 3.55 20.4 -5.35 20.4 -12.85 20.45 -16.85 20.95 -23.5 L21.7 -34.15 21.7 -34.4 M35.25 5.25 L32.7 -1.95 Q38.2 -2.7 44.75 0.45 45.85 8.0 40.55 16.7 L40.5 16.85 37.9 17.75 37.5 17.85 Q37.85 15.05 37.05 11.45 L35.25 5.25 M55.75 8.0 Q51.9 12.15 43.85 15.5 47.55 8.05 46.85 1.55 51.2 4.0 55.75 8.0 M37.35 76.2 Q37.5 82.25 33.5 81.35 L34.05 77.55 35.5 66.15 Q37.25 72.25 37.35 76.2 M24.25 101.5 L19.6 106.25 Q16.95 108.55 14.05 109.7 9.65 111.4 4.0 111.75 -0.6 112.1 -1.3 110.6 -2.05 108.95 0.85 106.0 L5.1 102.45 10.95 98.35 Q15.9 100.85 21.45 99.35 26.55 97.95 30.45 93.7 31.4 95.55 31.8 97.75 32.1 99.5 31.2 100.65 30.45 101.6 28.7 102.45 L27.25 102.9 Q26.15 103.0 25.95 102.4 25.8 101.9 25.25 101.5 24.65 101.1 24.25 101.5" fill="#ffffff" fill-rule="evenodd" stroke="none"/>
  </g>
</svg>
