<?xml version="1.0" encoding="UTF-8" standalone="no"?>
<svg xmlns:ffdec="https://www.free-decompiler.com/flash" xmlns:xlink="http://www.w3.org/1999/xlink" ffdec:objectType="shape" height="152.75px" width="105.0px" xmlns="http://www.w3.org/2000/svg">
  <g transform="matrix(1.0, 0.0, 0.0, 1.0, 48.0, 43.35)">
    <path d="M20.1 -41.5 Q20.3 -42.15 19.55 -42.75 L19.85 -43.3 20.3 -43.25 22.05 -43.25 22.5 -41.55 Q21.65 -37.75 19.0 -33.5 L18.75 -33.05 Q16.8 -30.0 14.2 -26.9 9.25 -20.75 0.55 -13.25 L-1.1 -18.5 Q6.9 -25.15 12.35 -30.7 L16.85 -35.7 Q19.2 -38.7 20.1 -41.5 M30.65 -39.65 Q34.25 -37.8 38.45 -32.55 42.35 -27.75 45.5 -21.05 L45.6 -20.9 34.7 -20.55 Q28.65 -19.15 25.75 -15.05 25.2 -18.85 25.35 -27.95 25.5 -36.3 24.55 -40.8 L24.85 -42.55 30.65 -39.65 M-8.3 -36.7 L-7.9 -39.55 -6.75 -39.1 -8.3 -36.7 M-11.45 -41.4 Q-17.5 -34.8 -23.75 -25.65 L-25.45 -26.9 Q-24.25 -32.4 -21.6 -36.55 -18.35 -41.6 -13.85 -43.1 L-11.45 -41.4 M9.85 -34.55 Q12.9 -35.65 15.35 -37.6 13.75 -35.5 10.1 -31.85 5.85 -27.5 -1.8 -21.05 -3.6 -28.45 -4.4 -36.45 -1.4 -33.45 3.7 -33.45 6.75 -33.45 9.85 -34.55 M-25.75 -25.0 L-24.8 -24.3 -24.75 -24.25 -28.35 -18.65 Q-31.05 -20.6 -36.6 -20.7 L-33.6 -24.1 Q-31.05 -26.65 -26.7 -25.5 L-25.75 -25.0 M-17.3 -9.95 Q-20.3 -8.8 -22.65 -7.5 L-20.9 -10.95 -17.3 -9.95 M-17.0 -17.9 L-16.35 -17.3 Q-14.55 -15.45 -13.2 -12.0 L-13.2 -11.95 -14.65 -10.85 -15.05 -10.75 Q-17.3 -12.25 -19.9 -12.75 L-17.0 -17.9 M-11.75 -13.05 Q-13.45 -17.3 -16.1 -19.4 L-10.75 -28.4 Q-10.6 -21.35 -9.3 -14.95 L-11.75 -13.05 M-7.35 -14.5 Q-9.0 -23.0 -8.7 -31.7 L-6.25 -35.55 Q-4.05 -14.45 4.95 0.25 2.85 1.3 0.3 3.0 L-0.1 2.3 Q-0.1 1.7 -0.6 1.35 L-0.9 1.1 -3.75 -2.35 -5.05 -5.9 -5.3 -6.6 -7.2 -13.8 -7.35 -14.5 M-21.1 -15.3 L-25.1 -7.85 Q-27.2 -3.6 -28.3 -0.05 -30.15 5.8 -30.5 9.75 -31.0 15.4 -28.75 19.35 L-30.95 18.8 Q-34.5 17.85 -37.2 16.6 -38.05 7.75 -33.85 -2.85 -30.85 -10.35 -24.4 -20.45 -17.7 -30.95 -10.1 -39.4 L-10.7 -32.95 Q-16.8 -23.15 -21.1 -15.3 M-12.65 -9.35 L-8.75 -12.35 -7.25 -6.9 -8.15 -6.25 -12.65 -9.35 M-23.95 -3.9 Q-20.25 -6.55 -14.55 -8.45 -9.05 -5.3 -5.35 -1.55 L-5.0 -0.7 Q-7.8 -1.2 -11.0 -0.15 -13.85 0.8 -16.4 2.7 -20.3 5.6 -22.5 10.6 -24.9 16.15 -23.1 20.3 L-26.4 19.8 Q-31.45 13.4 -25.35 -1.65 L-24.45 -3.75 Q-24.15 -3.75 -23.95 -3.9 M-18.75 8.8 Q-18.9 12.0 -17.55 15.05 -16.2 18.0 -13.7 20.35 -17.35 20.75 -21.05 20.5 -22.4 18.0 -21.55 14.65 -20.85 11.8 -18.75 8.8 M-14.85 4.5 Q-12.6 2.65 -9.75 1.75 L-4.05 1.5 -2.35 4.9 -2.35 4.95 Q-7.5 9.05 -7.75 13.55 -7.95 16.1 -6.5 18.45 -8.85 19.5 -11.5 19.95 -15.1 17.2 -16.25 13.25 -17.5 9.05 -15.45 5.05 L-14.85 4.5 M7.4 1.6 Q10.85 -0.1 16.6 -2.35 L17.1 2.85 Q18.35 11.25 18.35 13.55 18.4 19.95 15.3 23.5 14.8 17.8 11.75 13.5 8.5 8.9 3.2 7.4 L1.8 4.85 6.65 1.95 Q7.25 1.95 7.4 1.6 M0.45 5.8 L1.45 7.65 Q1.45 8.35 1.95 8.85 3.1 12.05 2.75 15.7 2.45 19.2 0.85 22.35 L0.75 22.8 Q-2.35 21.15 -4.05 19.0 L-4.55 18.3 Q-6.0 16.1 -5.7 13.9 -5.25 10.15 0.2 6.0 L0.45 5.8 M1.4 -10.85 Q10.3 -18.35 16.35 -25.75 L18.3 -28.25 17.05 -16.5 Q16.4 -9.85 16.5 -4.8 10.15 -2.35 6.45 -0.55 3.5 -5.5 1.4 -10.85 M-38.2 -18.65 L-37.9 -18.6 Q-33.65 -18.7 -30.7 -17.75 L-29.25 -17.1 -32.15 -12.0 -32.75 -12.05 Q-36.8 -11.1 -40.55 -8.7 -44.2 -6.35 -47.0 -3.0 -45.15 -9.2 -38.95 -17.65 L-38.2 -18.65 M-48.0 2.65 L-47.9 2.55 Q-45.65 -1.65 -41.8 -4.8 -38.0 -8.0 -33.4 -9.5 -35.8 -4.5 -37.15 -0.3 L-37.55 -0.2 Q-40.65 1.35 -42.95 3.7 -45.5 6.35 -46.25 9.4 -48.15 6.3 -48.0 2.7 L-48.0 2.65 M-38.05 2.8 Q-39.75 9.55 -39.25 15.6 -42.4 13.9 -44.45 11.7 -43.9 6.55 -38.05 2.8 M4.9 26.7 Q-1.95 26.35 -9.95 21.95 -7.7 21.5 -5.1 20.4 -1.95 23.9 3.1 25.75 L7.2 26.8 4.9 26.7 M0.9 35.25 Q-0.1 34.9 -0.05 35.95 0.6 43.7 2.95 52.1 4.9 58.95 8.4 67.5 3.3 74.6 -2.3 75.05 L-4.8 74.75 Q-6.2 74.4 -6.75 73.8 -13.7 66.8 -16.15 52.4 -18.6 37.7 -15.95 22.75 L-12.65 22.45 -12.6 22.45 Q-3.45 28.05 4.6 28.75 16.1 29.75 27.2 25.6 L27.55 25.3 36.2 23.15 Q37.5 36.55 36.4 44.8 34.75 57.1 27.75 63.9 27.15 64.5 27.95 65.4 28.7 66.3 29.3 65.7 L32.25 62.85 Q34.55 60.5 35.65 58.65 37.0 63.45 37.4 69.65 37.6 72.85 37.2 76.65 L36.85 78.25 Q36.6 79.4 36.65 80.0 35.85 84.5 33.25 88.4 31.35 91.4 27.6 92.8 23.5 94.4 20.55 92.55 L15.55 80.05 12.3 72.45 12.0 71.8 10.5 68.35 10.15 67.5 Q6.8 59.4 5.45 54.6 2.65 44.95 1.95 36.45 1.85 35.55 0.9 35.25 M4.7 16.75 Q5.05 13.05 4.05 9.65 8.6 11.25 11.15 15.65 13.5 19.75 13.4 24.95 7.85 25.15 4.0 24.1 L2.75 23.7 Q4.35 20.4 4.7 16.75 M56.95 1.45 Q57.35 6.65 54.05 10.7 48.4 5.35 42.85 2.4 35.7 -1.5 29.55 -0.9 L28.25 -5.0 28.5 -5.0 Q35.05 -7.05 42.95 -5.75 50.05 -4.55 56.6 -0.9 L56.95 1.45 M52.05 -12.05 Q54.85 -7.4 56.05 -3.25 49.7 -6.6 42.85 -7.8 35.45 -9.1 28.95 -7.5 32.95 -11.5 39.8 -12.5 L51.85 -12.05 52.05 -12.05 M50.25 -14.85 L50.6 -14.3 Q43.95 -15.5 38.1 -14.45 31.1 -13.25 27.1 -9.05 L26.45 -11.6 26.5 -11.65 Q28.85 -16.8 35.5 -18.45 40.8 -19.8 47.15 -18.65 L50.25 -14.85 M19.5 -21.25 L20.7 -31.75 Q22.15 -34.05 23.25 -36.65 23.5 -33.85 23.35 -25.45 23.2 -18.4 23.95 -14.35 24.7 -10.05 26.5 -4.4 L29.7 5.4 32.1 13.55 Q33.05 18.4 32.05 21.95 24.95 23.85 17.85 24.6 L17.5 24.65 Q20.0 21.3 20.3 15.8 20.5 11.95 19.6 6.35 18.0 -3.2 18.4 -10.8 18.6 -14.6 19.5 -21.25 M30.25 1.25 Q35.7 0.7 42.25 4.1 43.05 11.55 37.45 20.2 L37.4 20.3 34.4 21.25 Q34.85 18.45 34.15 14.8 L32.55 8.5 30.25 1.25 M52.95 11.95 Q49.05 15.9 40.8 19.1 44.7 11.95 44.3 5.25 48.5 7.75 52.95 11.95 M39.85 88.0 Q39.8 89.55 39.4 89.8 L37.8 90.1 Q36.7 90.3 36.6 91.9 L36.7 94.3 Q36.9 97.3 31.35 103.3 27.45 107.55 22.15 108.85 L17.5 109.35 Q14.45 109.15 14.3 107.1 14.25 105.65 15.0 103.7 L16.55 100.5 Q17.75 98.25 19.6 95.55 L20.4 94.5 Q23.35 96.05 27.15 95.25 30.75 94.45 33.3 92.1 36.7 88.9 38.2 82.9 39.9 85.6 39.85 88.0 M10.3 72.1 Q10.75 86.15 4.45 90.8 1.15 93.25 -1.1 90.5 -2.45 88.9 -3.8 84.5 -4.85 81.1 -5.7 76.5 -1.7 78.2 2.7 75.9 6.2 74.05 9.4 70.0 L10.3 72.1" fill="#ffffff" fill-rule="evenodd" stroke="none"/>
  </g>
</svg>
