<?xml version="1.0" encoding="UTF-8" standalone="no"?>
<svg xmlns:ffdec="https://www.free-decompiler.com/flash" xmlns:xlink="http://www.w3.org/1999/xlink" ffdec:objectType="shape" height="146.3px" width="103.4px" xmlns="http://www.w3.org/2000/svg">
  <g transform="matrix(1.0, 0.0, 0.0, 1.0, 46.05, 39.45)">
    <path d="M23.05 -39.05 Q22.65 -36.7 21.9 -34.9 L21.8 -34.55 Q19.7 -29.25 14.2 -22.3 8.7 -15.4 0.6 -8.05 L-1.3 -13.3 Q6.6 -20.4 12.35 -26.65 L16.85 -32.0 Q19.2 -35.25 20.0 -38.2 20.15 -38.75 19.5 -39.4 L23.05 -39.05 M30.2 -35.8 Q33.85 -33.8 38.1 -28.7 42.1 -23.95 45.1 -17.9 39.15 -18.5 34.25 -17.15 28.25 -15.5 25.5 -11.3 24.85 -14.85 24.7 -17.85 L24.5 -25.7 Q24.35 -30.35 23.85 -33.55 24.75 -36.1 25.1 -38.35 L30.2 -35.8 M-7.65 -34.85 L-7.5 -33.3 -9.35 -30.05 -8.9 -35.3 -7.65 -34.85 M-11.6 -36.65 Q-17.45 -29.55 -23.1 -20.5 L-24.85 -21.65 Q-23.85 -27.2 -21.45 -31.4 -18.5 -36.55 -14.1 -38.3 -13.0 -37.45 -11.6 -36.65 M10.15 -27.75 Q5.5 -22.7 -2.05 -15.85 -4.4 -23.75 -5.4 -32.2 -2.4 -29.2 2.65 -29.2 6.25 -29.2 9.9 -30.75 13.6 -32.35 16.1 -35.05 L13.25 -31.25 10.15 -27.75 M-7.0 -29.5 Q-3.85 -9.1 5.2 4.6 L1.9 6.65 1.8 6.5 Q1.7 5.85 1.25 5.5 L0.85 5.2 Q-1.4 2.35 -4.9 -0.5 L-4.95 -1.1 Q-9.15 -13.1 -9.45 -25.2 L-7.0 -29.5 M-11.45 -26.35 Q-16.45 -17.4 -19.95 -10.3 -24.85 -0.5 -26.5 5.25 -28.15 10.95 -28.3 15.1 -28.55 20.85 -26.1 24.65 L-30.1 23.8 Q-32.5 23.2 -34.7 22.3 -35.95 13.45 -32.2 2.75 -29.55 -4.95 -23.55 -15.2 -17.7 -25.3 -11.2 -33.35 L-11.45 -26.35 M-24.0 -19.0 L-27.35 -13.3 Q-29.9 -15.1 -35.7 -15.0 L-32.7 -18.7 Q-30.4 -21.15 -26.0 -20.2 L-24.35 -19.3 -24.0 -19.0 M-11.25 -21.95 Q-10.85 -16.05 -9.3 -9.45 L-10.55 -8.4 Q-12.65 -12.75 -15.15 -14.6 L-11.25 -21.95 M-13.35 -6.1 L-13.75 -5.95 Q-15.9 -7.25 -18.65 -7.8 L-16.0 -13.05 Q-13.6 -11.3 -12.0 -7.35 L-11.95 -7.25 -13.35 -6.1 M-11.25 -4.7 L-8.65 -6.9 -7.25 -2.2 Q-9.3 -3.6 -11.25 -4.7 M-22.4 1.3 Q-18.75 -1.55 -13.15 -3.7 -7.2 -0.7 -2.9 3.55 -10.55 2.0 -17.15 10.15 -23.8 18.35 -20.4 25.4 L-23.75 25.05 Q-26.85 21.45 -26.35 14.85 -25.95 10.4 -23.85 4.15 L-22.85 1.45 -22.4 1.3 M-19.5 -5.9 Q-17.8 -5.75 -16.0 -5.05 -18.55 -4.0 -21.25 -2.4 L-19.6 -5.9 -19.5 -5.9 M-12.9 9.3 Q-10.2 6.9 -6.85 6.0 -2.95 4.9 -0.2 6.6 L0.5 7.65 -1.9 9.55 Q-6.85 13.75 -7.0 18.35 -7.15 20.9 -5.45 23.5 L-8.9 24.55 Q-12.6 21.9 -13.95 18.05 -15.35 13.9 -13.5 9.85 L-12.9 9.3 M2.85 8.9 Q4.7 7.55 7.05 6.25 7.55 6.25 7.7 5.9 10.9 4.15 16.8 1.65 17.1 4.8 17.7 8.05 19.05 15.15 19.1 18.1 19.2 24.1 16.35 27.55 15.7 21.9 12.5 17.65 9.05 13.1 3.75 11.8 L2.25 9.35 2.5 9.1 2.85 8.9 M0.9 10.35 L2.0 12.2 Q2.0 12.85 2.5 13.35 3.75 16.5 3.55 20.15 3.35 23.65 1.9 26.85 1.75 27.05 1.85 27.3 -0.95 26.05 -2.7 24.2 -2.85 23.4 -3.65 23.05 -5.2 20.75 -4.95 18.35 -4.45 14.7 0.65 10.55 L0.9 10.35 M1.6 -5.7 Q10.3 -13.55 16.3 -21.15 L17.35 -22.5 16.65 -11.6 Q16.4 -5.5 16.65 -0.8 10.15 1.95 6.7 3.8 3.85 -0.6 1.6 -5.7 M-37.25 -12.85 L-37.0 -12.8 -32.55 -12.9 Q-29.75 -12.75 -28.2 -11.75 L-30.85 -6.5 -31.45 -6.55 Q-35.5 -5.4 -39.1 -2.85 -42.7 -0.3 -45.3 3.15 -43.65 -3.4 -37.65 -12.3 L-37.25 -12.85 M-46.0 8.8 Q-43.95 4.5 -40.25 1.15 -36.55 -2.2 -32.05 -3.9 -34.2 1.15 -35.35 5.4 L-35.7 5.5 Q-38.8 7.25 -40.95 9.7 -43.35 12.45 -43.95 15.5 -46.0 12.55 -46.05 8.8 L-46.0 8.8 M-36.1 8.55 Q-37.55 15.3 -36.75 21.35 -40.05 19.75 -42.15 17.65 -42.0 15.05 -40.15 12.5 -38.6 10.3 -36.1 8.55 M9.3 33.95 Q24.55 33.65 33.2 27.75 L35.95 26.95 Q37.5 32.7 38.1 36.95 38.9 42.5 38.45 47.2 38.1 50.7 36.7 54.0 35.95 54.2 36.25 55.0 33.95 59.85 29.6 63.95 29.0 64.55 29.8 65.45 30.6 66.35 31.2 65.75 L34.9 62.15 Q37.7 59.1 38.25 57.0 41.8 60.25 43.65 64.7 45.55 69.25 45.05 73.9 L44.65 76.2 44.55 76.45 Q43.35 81.35 40.35 85.05 38.15 87.85 34.3 88.9 30.1 90.05 27.4 87.85 16.3 77.55 10.75 63.25 5.2 48.9 6.6 33.9 L9.3 33.95 M3.8 28.1 Q5.3 24.8 5.55 21.15 5.75 17.45 4.65 14.05 9.25 15.5 11.9 19.85 14.35 23.8 14.5 29.0 8.85 29.5 4.7 28.4 L3.8 28.1 M9.8 31.2 Q12.05 31.35 15.55 31.1 L16.25 31.05 16.5 31.0 19.85 30.65 9.6 31.8 Q-1.2 32.25 -11.1 27.25 L-8.25 26.7 -8.2 26.7 -3.9 25.35 Q-0.65 28.6 4.2 30.2 6.65 31.05 9.8 31.2 M-14.15 27.6 Q-5.4 32.75 4.55 33.75 3.35 48.1 8.5 62.2 L8.25 62.5 Q4.5 73.0 0.8 80.85 -3.8 90.5 -9.2 97.9 L-9.3 98.05 Q-12.45 91.85 -16.6 87.4 -21.65 82.05 -27.2 80.35 -25.8 78.25 -24.65 75.25 -23.9 73.35 -22.9 69.85 -20.85 62.7 -19.1 51.3 -17.25 39.25 -16.45 27.7 L-14.15 27.6 M-11.1 25.0 L-18.4 25.5 Q-19.95 23.15 -19.2 19.7 -18.6 16.8 -16.55 13.65 -16.6 16.85 -15.1 19.85 -13.7 22.75 -11.1 25.0 M57.3 4.75 Q57.7 9.5 54.7 13.5 48.95 8.35 43.2 5.5 35.9 1.85 29.75 2.7 L28.3 -1.35 28.55 -1.4 Q35.05 -3.7 42.95 -2.6 50.1 -1.65 56.8 1.75 L57.3 4.75 M46.7 -15.65 L48.5 -13.7 50.15 -11.75 50.35 -11.45 Q43.7 -12.45 37.85 -11.2 30.85 -9.7 27.0 -5.35 L26.3 -7.9 26.35 -7.95 Q28.55 -13.15 35.05 -15.0 40.3 -16.55 46.7 -15.65 M19.5 -25.45 L22.3 -30.15 Q22.75 -25.6 22.65 -19.15 22.65 -13.05 25.7 -3.5 26.6 -0.6 28.4 4.3 L31.2 12.05 Q32.6 16.2 33.05 18.6 33.75 22.35 33.1 25.25 L32.45 25.35 31.9 25.75 Q25.45 27.6 18.55 28.6 22.55 22.8 20.3 11.45 18.55 2.85 18.3 -3.3 18.15 -7.65 18.7 -14.15 L19.55 -25.05 19.5 -25.45 M51.65 -9.2 L51.9 -9.25 Q54.85 -4.75 56.2 -0.55 49.7 -3.7 42.85 -4.65 35.35 -5.75 28.95 -3.95 32.8 -8.0 39.6 -9.25 45.35 -10.3 51.65 -9.2 M53.6 14.8 Q49.75 18.95 41.7 22.3 45.4 14.75 44.7 8.3 49.1 10.85 53.6 14.8 M42.6 7.25 Q43.65 14.75 38.4 23.45 L38.35 23.6 35.35 24.65 Q35.7 21.25 34.25 15.7 33.25 12.0 30.55 4.8 36.1 4.05 42.6 7.25 M43.85 87.9 L43.6 90.55 Q43.5 92.1 42.85 93.2 40.4 97.15 37.0 100.2 34.15 102.8 30.1 104.05 28.0 104.75 25.5 104.8 22.55 104.8 21.05 103.7 19.7 102.75 21.35 99.2 22.05 97.75 23.9 94.8 25.35 92.45 27.45 89.95 30.15 91.65 33.9 91.15 37.3 90.7 40.0 88.75 44.0 85.85 46.0 79.35 47.5 82.1 47.25 84.7 L46.9 86.3 Q46.65 86.65 45.7 86.6 45.05 86.55 44.55 86.9 44.0 87.25 43.85 87.9 M-20.3 95.35 L-31.4 100.45 Q-35.5 96.6 -38.35 92.15 -41.55 87.25 -42.55 82.6 -43.2 79.6 -41.7 77.65 -40.1 75.6 -37.0 76.45 -33.75 77.35 -29.65 81.45 -26.25 85.65 -22.65 91.15 L-20.05 95.3 -20.3 95.35 M-18.95 97.25 Q-15.9 103.15 -17.8 106.05 L-17.9 106.2 -18.95 106.6 Q-21.05 107.35 -23.85 106.05 -25.6 105.2 -28.1 103.25 L-29.5 102.15 -19.1 97.4 -18.95 97.25 M-10.45 99.6 Q-12.9 102.7 -15.05 104.4 -15.0 101.7 -16.85 97.8 L-20.05 92.15 Q-23.1 87.15 -26.7 82.55 -21.6 84.25 -17.0 89.5 -13.35 93.7 -10.45 99.6" fill="#ffffff" fill-rule="evenodd" stroke="none"/>
  </g>
</svg>
