<?xml version="1.0" encoding="UTF-8" standalone="no"?>
<svg xmlns:ffdec="https://www.free-decompiler.com/flash" xmlns:xlink="http://www.w3.org/1999/xlink" ffdec:objectType="shape" height="156.15px" width="104.8px" xmlns="http://www.w3.org/2000/svg">
  <g transform="matrix(1.0, 0.0, 0.0, 1.0, 43.7, 44.85)">
    <path d="M25.9 -39.95 L26.3 -44.15 32.05 -41.65 Q35.95 -39.75 40.45 -34.75 44.45 -30.3 47.75 -24.45 41.85 -24.85 36.9 -23.25 31.0 -21.3 28.45 -16.95 27.55 -20.7 27.2 -26.75 L26.55 -36.65 25.9 -39.95 M20.5 -42.55 Q20.9 -43.6 20.95 -44.7 22.4 -45.05 24.25 -44.65 24.2 -40.15 22.05 -35.25 20.4 -31.5 17.15 -26.8 12.45 -19.95 4.0 -11.95 L1.55 -17.4 Q9.1 -24.8 13.8 -30.4 L17.9 -35.7 Q20.05 -38.9 20.7 -41.75 20.8 -42.2 20.5 -42.55 M-5.9 -37.2 Q-12.8 -24.6 -18.25 -12.6 -22.9 -2.35 -24.25 3.2 -25.7 9.05 -25.7 13.15 -25.75 18.9 -23.2 22.6 L-24.95 22.35 Q-28.95 21.65 -31.85 20.55 -33.4 11.75 -30.05 0.95 -27.65 -6.8 -22.05 -17.3 -15.6 -29.3 -8.5 -38.25 L-5.9 -37.2 M-10.6 -39.4 Q-16.3 -32.0 -21.75 -22.6 -22.5 -23.2 -23.55 -23.7 -22.7 -29.45 -20.35 -33.8 -17.4 -39.2 -12.85 -40.9 L-10.6 -39.4 M-3.35 -34.15 Q-0.4 -31.7 4.1 -31.7 9.5 -31.7 14.45 -34.9 L11.65 -31.5 Q7.7 -26.8 0.65 -19.85 -1.85 -26.55 -3.35 -34.15 M-0.3 -17.45 Q3.5 -7.9 9.1 -0.25 L4.05 3.35 3.5 2.55 3.0 2.2 1.9 1.0 Q0.35 -1.5 -1.15 -4.65 L-1.5 -5.35 Q-5.85 -15.2 -7.3 -29.4 L-7.35 -29.55 -5.15 -33.7 Q-3.5 -25.6 -0.65 -18.25 L-0.3 -17.45 M-25.75 -15.25 Q-28.4 -17.0 -34.15 -16.7 L-31.5 -20.2 Q-30.2 -21.75 -28.45 -22.2 -26.9 -22.6 -24.65 -22.2 L-23.0 -21.4 -22.6 -21.1 -25.75 -15.25 M-13.65 -17.0 L-8.95 -26.5 Q-7.95 -19.15 -6.25 -13.3 L-8.8 -10.95 Q-11.0 -15.2 -13.65 -17.0 M-14.4 -15.4 Q-12.15 -14.0 -10.15 -9.75 L-11.45 -8.6 -11.85 -8.4 Q-13.9 -9.6 -16.9 -10.1 L-14.4 -15.4 M-17.65 -8.1 L-14.15 -7.4 Q-16.95 -6.15 -19.3 -4.55 L-17.75 -8.15 -17.65 -8.1 M-20.3 -0.8 Q-16.7 -3.85 -11.25 -6.15 -5.0 -3.2 -0.7 0.75 -8.35 -0.5 -14.7 7.8 -21.1 16.1 -17.55 23.0 L-17.6 23.15 -20.85 22.9 Q-24.05 19.4 -23.75 12.95 -23.6 8.6 -21.75 2.35 L-20.8 -0.65 Q-20.5 -0.65 -20.3 -0.8 M-10.55 6.85 Q-7.95 4.35 -4.65 3.3 -0.8 2.05 2.05 3.65 L2.7 4.5 2.1 5.05 Q-2.7 9.55 -2.65 14.0 -2.6 17.1 -0.45 19.7 -2.95 21.1 -5.9 21.95 -9.75 19.55 -11.25 15.65 -12.85 11.5 -11.1 7.4 L-10.55 6.85 M5.15 -9.75 Q15.25 -19.2 19.95 -26.3 L19.6 -20.1 19.4 -13.95 Q19.5 -9.55 19.95 -6.0 13.85 -3.1 10.55 -1.15 7.5 -5.25 5.15 -9.75 M-4.65 -4.45 Q-6.45 -5.7 -9.35 -7.25 L-5.5 -10.75 -3.45 -5.45 -4.65 -4.45 M-2.4 -3.2 L-2.1 -2.65 -2.6 -3.0 -2.4 -3.2 M6.15 4.7 Q11.0 0.85 20.3 -3.6 L21.4 2.0 Q23.2 9.75 23.4 12.35 23.9 18.6 21.1 22.3 20.2 16.65 16.8 12.55 13.15 8.15 7.8 7.1 L6.15 4.7 M6.65 8.8 Q8.0 11.85 8.0 15.45 7.95 18.95 6.65 22.2 L6.6 22.65 Q4.25 21.65 2.5 20.25 L2.05 19.35 Q1.6 18.9 1.1 18.9 -0.9 16.5 -0.55 13.75 -0.1 10.15 4.9 5.8 L6.05 7.6 Q6.05 8.3 6.65 8.8 M-35.65 -14.45 L-35.4 -14.4 Q-29.05 -15.05 -26.55 -13.7 L-29.0 -8.35 -29.55 -8.4 Q-33.6 -7.05 -37.2 -4.35 -40.75 -1.65 -43.25 1.95 -41.95 -3.95 -36.65 -12.85 L-35.65 -14.45 M-41.4 14.25 Q-43.3 11.75 -43.65 8.5 L-43.7 7.55 -43.65 7.45 Q-41.75 3.1 -38.15 -0.4 -34.55 -3.85 -30.1 -5.7 -31.9 -1.15 -33.15 3.8 L-33.65 3.9 Q-36.65 5.75 -38.65 8.25 -40.95 11.15 -41.4 14.25 M-33.75 6.9 Q-34.95 13.75 -33.95 19.75 -37.15 18.35 -39.5 16.3 -39.45 13.6 -37.75 11.0 -36.25 8.75 -33.75 6.9 M10.0 16.35 Q10.05 12.65 8.8 9.35 13.45 10.55 16.35 14.75 18.95 18.6 19.35 23.8 L8.8 23.45 8.6 23.35 Q9.95 20.0 10.0 16.35 M-5.5 24.2 L-5.0 24.05 Q-1.4 23.0 1.3 21.4 4.35 23.95 9.05 25.5 L13.5 26.25 11.25 26.4 Q1.05 26.9 -5.8 24.25 L-5.5 24.2 M-0.6 33.45 Q0.15 42.7 2.45 51.0 5.0 60.35 9.15 67.45 11.3 71.15 14.6 74.65 L14.55 74.95 Q14.5 79.9 13.45 86.35 L12.95 88.4 Q12.55 89.9 12.6 90.75 9.05 94.95 4.35 96.55 -0.85 98.3 -5.5 96.0 -9.0 86.05 -12.1 72.5 -15.1 59.4 -16.1 49.05 -17.35 36.15 -15.75 25.35 L-8.9 24.9 Q-4.5 27.15 0.75 28.0 L10.95 28.55 Q24.65 28.2 32.85 23.3 L35.95 22.35 Q37.65 35.85 33.9 46.6 33.55 46.7 33.5 47.1 L32.85 49.25 Q29.65 56.5 23.85 60.5 23.2 60.9 23.9 61.85 24.55 62.75 25.2 62.4 L25.4 62.3 Q31.7 58.75 34.65 50.85 L35.05 49.9 36.45 53.2 Q37.5 56.05 38.25 60.7 L38.4 62.8 Q38.45 64.3 38.75 65.05 39.3 72.45 37.7 77.55 35.4 85.15 29.15 83.3 23.6 80.75 18.8 76.35 14.0 72.1 10.8 66.85 8.05 62.45 6.05 56.3 4.55 51.75 3.15 45.05 1.8 38.85 1.4 33.95 1.3 33.1 0.35 32.75 -0.65 32.4 -0.6 33.45 M-15.45 23.2 Q-17.1 20.9 -16.45 17.4 -15.95 14.5 -14.0 11.25 -13.95 14.45 -12.35 17.45 -10.8 20.3 -8.1 22.5 L-15.45 23.2 M61.05 -1.75 Q61.45 2.7 58.8 6.5 52.75 1.6 46.95 -0.95 39.5 -4.25 33.35 -3.2 L31.75 -7.15 31.9 -7.2 Q38.35 -9.8 46.3 -9.1 53.55 -8.45 60.4 -5.3 L61.05 -1.75 M59.65 -7.65 Q53.0 -10.5 46.1 -11.15 38.55 -11.85 32.25 -9.75 35.75 -13.85 42.55 -15.45 48.35 -16.85 54.65 -16.05 L54.95 -16.1 Q58.1 -11.65 59.65 -7.65 M53.25 -18.25 Q46.55 -18.95 40.8 -17.4 34.0 -15.6 30.3 -11.1 L29.45 -13.6 Q31.4 -18.95 37.85 -21.1 43.0 -22.85 49.5 -22.25 L53.25 -18.25 M25.55 -24.0 Q26.1 -18.4 27.3 -14.3 28.4 -10.45 30.6 -5.15 L34.35 3.8 Q36.55 9.2 37.15 11.35 38.4 15.9 37.7 19.35 30.55 21.9 23.35 23.15 25.55 19.6 25.45 14.15 25.35 10.25 24.0 4.85 21.8 -4.0 21.45 -11.5 21.35 -14.75 21.65 -20.55 L22.0 -29.65 Q23.55 -32.4 24.75 -35.6 L24.85 -33.9 25.55 -24.0 M36.85 5.3 L34.2 -1.1 Q39.6 -2.15 46.45 0.9 47.8 8.25 42.95 17.1 L42.9 17.3 39.95 18.5 Q40.15 15.55 39.1 11.75 L36.85 5.3 M46.15 15.9 Q49.5 8.3 48.55 1.85 53.2 4.2 57.75 7.85 54.1 12.2 46.15 15.9 M45.35 71.25 Q45.95 72.95 44.95 73.2 43.15 73.7 43.9 75.85 L45.4 78.9 Q45.6 79.35 45.45 80.7 L45.2 82.6 44.55 86.5 Q43.8 89.8 41.75 93.3 39.85 96.5 36.1 98.65 31.55 101.2 30.2 99.7 29.05 98.4 29.0 95.3 L29.3 90.6 Q29.55 87.6 30.0 85.55 36.5 87.05 39.25 79.85 41.15 74.65 40.8 66.75 42.75 67.8 44.05 69.1 44.85 69.9 45.35 71.25 M15.0 97.25 Q15.3 99.0 14.4 100.15 13.7 101.1 11.9 101.9 9.5 103.0 9.15 101.9 9.0 101.4 8.45 101.0 7.85 100.6 7.45 101.0 L2.8 105.7 Q0.2 108.05 -2.75 109.2 -7.35 110.95 -12.8 111.25 -17.4 111.6 -18.1 110.05 -18.85 108.45 -15.9 105.5 L-11.7 101.95 Q-9.3 100.0 -5.85 97.85 -0.9 100.35 4.65 98.8 9.75 97.4 13.65 93.15 14.65 95.1 15.0 97.25" fill="#ffffff" fill-rule="evenodd" stroke="none"/>
  </g>
</svg>
