<?xml version="1.0" encoding="UTF-8" standalone="no"?>
<svg xmlns:ffdec="https://www.free-decompiler.com/flash" xmlns:xlink="http://www.w3.org/1999/xlink" ffdec:objectType="shape" height="159.2px" width="104.3px" xmlns="http://www.w3.org/2000/svg">
  <g transform="matrix(1.0, 0.0, 0.0, 1.0, 42.85, 48.0)">
    <path d="M26.3 -41.55 Q27.15 -44.5 27.1 -47.15 28.8 -46.55 32.4 -44.8 36.3 -42.9 40.8 -37.9 44.9 -33.4 48.1 -27.65 42.15 -28.0 37.3 -26.4 31.35 -24.45 28.85 -20.1 28.45 -21.5 28.0 -24.05 27.55 -26.9 27.2 -32.7 26.9 -38.5 26.4 -41.35 L26.3 -41.55 M21.4 -47.85 L25.1 -47.75 Q25.15 -43.55 22.85 -38.75 21.2 -35.35 17.9 -30.8 13.65 -24.9 4.2 -15.45 L2.0 -20.45 Q9.8 -28.05 14.55 -33.8 17.45 -37.2 18.75 -39.1 20.9 -42.35 21.55 -45.2 21.7 -45.75 21.05 -46.4 L21.4 -47.85 M-5.45 -41.3 L-5.5 -40.75 -5.4 -40.05 Q-12.25 -27.3 -17.4 -16.05 -21.9 -6.25 -23.4 -0.25 -24.85 5.55 -24.85 9.7 -24.9 15.45 -22.4 19.15 L-24.65 18.8 -31.0 17.1 Q-32.55 8.3 -29.2 -2.5 -26.8 -10.25 -21.2 -20.75 -14.7 -32.85 -7.45 -42.05 L-7.4 -42.1 -5.45 -41.3 M-11.6 -44.5 L-9.55 -43.15 Q-15.5 -35.5 -20.9 -26.05 L-22.7 -27.2 Q-21.85 -33.05 -19.4 -37.45 -16.35 -42.9 -11.6 -44.5 M10.95 -36.95 Q14.15 -38.15 16.65 -40.2 L12.4 -34.9 Q7.95 -29.6 1.05 -22.85 -1.85 -30.7 -3.2 -38.6 -0.3 -35.75 4.65 -35.75 7.75 -35.75 10.95 -36.95 M-7.2 -31.7 L-4.7 -36.4 Q-2.85 -27.35 0.65 -19.1 4.35 -10.4 9.45 -3.45 L4.9 -0.2 4.35 -0.9 3.8 -1.25 Q2.15 -3.25 -0.25 -5.25 L-0.3 -5.5 Q-5.7 -19.75 -7.1 -31.5 L-7.2 -31.7 M-21.75 -24.55 L-24.9 -18.7 Q-27.55 -20.45 -33.3 -20.15 L-30.65 -23.65 Q-28.35 -26.45 -23.8 -25.65 L-22.2 -24.85 -21.75 -24.55 M-13.3 -10.9 L-18.45 -8.0 -16.9 -11.6 -16.8 -11.55 -13.3 -10.9 M-12.8 -20.45 L-8.7 -28.8 Q-7.65 -22.5 -5.85 -16.35 L-7.95 -14.4 Q-10.15 -18.65 -12.8 -20.45 M-10.6 -12.05 L-11.05 -11.9 Q-13.25 -13.15 -16.05 -13.55 L-13.55 -18.9 Q-11.3 -17.4 -9.3 -13.2 L-10.6 -12.05 M-19.45 -4.3 Q-15.8 -7.3 -10.4 -9.6 -4.15 -6.65 0.15 -2.7 -7.5 -3.95 -13.85 4.25 -20.2 12.5 -16.75 19.45 L-17.1 19.65 -20.0 19.45 Q-23.2 15.95 -22.9 9.5 -22.75 5.15 -20.9 -1.1 L-19.95 -4.1 Q-19.65 -4.1 -19.45 -4.3 M-13.15 7.8 Q-13.1 11.0 -11.5 13.95 -10.0 16.8 -7.3 19.0 L-14.6 19.75 Q-16.25 17.45 -15.6 13.95 -15.1 11.05 -13.15 7.8 M-10.25 3.95 L-9.7 3.4 Q-7.1 0.9 -3.8 -0.15 0.05 -1.4 2.9 0.2 L3.5 1.0 2.45 1.9 Q-2.35 6.4 -2.3 10.85 -2.3 13.8 -0.1 16.5 -2.25 17.7 -5.05 18.5 -8.95 16.05 -10.4 12.15 -12.0 8.05 -10.25 3.95 M8.35 12.3 Q8.3 15.75 7.0 19.0 L6.95 19.45 Q4.5 18.5 2.65 16.9 2.4 16.2 1.65 15.95 -0.6 13.45 -0.2 10.55 0.25 6.9 5.2 2.6 L6.4 4.4 Q6.4 5.1 7.0 5.6 8.35 8.7 8.35 12.3 M9.15 6.15 Q13.8 7.4 16.7 11.6 19.3 15.45 19.7 20.6 L9.15 20.25 8.95 20.2 Q10.25 16.75 10.35 13.15 10.4 9.45 9.15 6.15 M6.5 1.55 Q11.25 -2.25 20.65 -6.75 21.1 -3.9 22.05 0.05 23.6 6.6 23.8 9.8 24.1 15.6 21.45 19.1 20.5 13.45 17.15 9.35 13.5 4.95 8.1 3.95 L6.5 1.55 M-2.85 -7.25 L-8.55 -10.7 Q-6.95 -12.05 -5.1 -13.8 L-2.85 -7.25 M5.3 -13.2 Q14.8 -22.6 19.75 -29.35 L20.15 -29.9 19.85 -21.6 Q19.7 -16.75 19.9 -13.35 L20.3 -9.15 Q14.95 -6.7 10.9 -4.3 7.95 -8.25 5.3 -13.2 M-34.55 -17.85 Q-28.2 -18.5 -25.7 -17.15 L-28.15 -11.85 -28.7 -11.85 Q-32.75 -10.55 -36.35 -7.8 -39.9 -5.15 -42.4 -1.55 -41.0 -7.9 -35.5 -16.8 L-34.8 -17.9 -34.55 -17.85 M-32.8 0.45 Q-35.75 2.3 -37.8 4.8 -40.05 7.6 -40.55 10.7 -42.55 7.85 -42.85 4.5 L-42.85 4.0 Q-40.9 -0.35 -37.3 -3.85 -33.7 -7.3 -29.25 -9.15 -31.25 -4.2 -32.3 0.35 L-32.8 0.45 M-32.9 3.4 Q-34.1 10.25 -33.1 16.25 -36.3 14.85 -38.65 12.8 -38.6 7.75 -32.9 3.4 M1.65 18.25 Q4.75 20.85 9.35 22.3 11.75 23.1 15.0 23.1 L11.5 23.3 Q5.5 23.55 2.1 23.3 -3.15 22.85 -6.95 21.2 L-4.7 20.7 Q-4.35 20.85 -4.15 20.55 -1.4 19.8 1.65 18.25 M-1.05 30.35 Q-0.05 42.15 4.5 55.1 6.0 59.35 7.6 62.05 9.6 65.55 12.4 67.9 14.4 69.6 17.3 70.9 20.75 78.6 21.4 90.65 17.75 94.9 13.0 96.45 7.75 98.2 3.05 95.8 L0.4 91.55 Q-3.0 85.5 -6.15 77.2 -15.35 52.8 -15.2 21.9 L-9.85 21.65 -9.5 21.95 Q-5.3 24.45 0.6 25.15 L11.25 25.45 21.2 24.5 Q26.4 23.4 30.55 20.95 L30.75 20.8 36.05 19.25 Q37.05 26.35 35.15 33.75 33.25 41.2 28.9 47.1 L21.4 54.4 Q20.75 54.95 21.5 55.8 22.25 56.65 22.95 56.2 27.4 53.15 30.75 48.55 L33.55 45.35 35.85 51.3 Q36.95 54.05 36.55 58.15 36.2 61.7 34.95 64.9 33.15 69.45 29.6 71.05 L26.1 71.35 22.6 70.6 Q16.7 69.3 12.65 65.9 9.85 63.55 7.85 59.05 6.85 56.8 5.05 51.0 1.75 40.45 0.95 30.85 0.85 30.0 -0.1 29.65 -1.1 29.3 -1.05 30.35 M55.3 -19.25 Q58.45 -14.8 60.0 -10.8 53.35 -13.65 46.45 -14.3 38.9 -15.05 32.6 -12.95 36.1 -17.05 42.9 -18.65 48.75 -20.05 55.0 -19.25 L55.3 -19.25 M61.4 -4.9 Q61.75 -0.45 59.15 3.35 53.1 -1.55 47.3 -4.1 39.8 -7.4 33.65 -6.35 L32.05 -10.3 32.25 -10.35 Q38.7 -12.9 46.65 -12.25 53.9 -11.6 60.75 -8.5 L61.4 -4.9 M53.6 -21.4 Q46.85 -22.1 41.15 -20.6 34.3 -18.8 30.6 -14.25 L29.75 -16.75 29.8 -16.8 Q31.75 -22.1 38.2 -24.3 43.4 -26.05 49.85 -25.4 L53.6 -21.4 M25.9 -25.4 Q26.6 -19.6 30.0 -10.7 L32.95 -3.5 35.85 3.65 Q37.3 7.45 37.85 9.8 38.6 13.35 38.05 16.15 31.05 18.7 23.7 20.0 27.35 14.1 24.75 3.3 22.5 -5.9 22.05 -11.05 21.65 -15.3 21.85 -21.8 L22.25 -32.55 22.15 -32.8 Q23.9 -35.45 24.9 -37.8 L25.35 -31.6 25.9 -25.4 M48.9 -1.35 Q53.9 1.2 58.1 4.7 54.4 9.0 46.5 12.7 49.85 5.05 48.9 -1.35 M43.3 13.95 L43.25 14.15 40.3 15.35 Q40.5 12.1 39.0 7.2 37.95 3.75 34.55 -4.3 39.9 -5.25 46.8 -2.3 48.1 5.1 43.3 13.95 M40.9 60.35 Q38.85 60.9 39.1 62.1 39.4 63.55 40.4 65.2 L41.75 67.15 Q42.45 68.15 42.55 69.45 L42.5 71.9 Q42.3 76.6 41.1 80.2 39.5 84.9 36.35 87.0 34.3 88.4 31.45 82.6 29.6 78.85 28.0 73.55 L30.8 73.1 Q34.3 71.7 36.55 66.95 39.3 61.15 38.15 53.0 L38.0 52.0 38.5 51.85 Q40.25 50.2 41.6 53.95 42.35 55.95 42.75 58.75 42.95 59.75 40.9 60.35 M16.2 100.9 L11.6 105.6 Q8.95 107.95 6.0 109.1 1.4 110.85 -4.05 111.15 -8.65 111.5 -9.35 109.95 -10.1 108.35 -7.15 105.4 L-2.95 101.85 Q-0.25 99.7 2.9 97.75 7.8 100.2 13.25 98.75 18.35 97.4 22.25 93.25 L23.4 95.6 Q24.7 99.6 21.5 101.45 18.25 102.95 17.9 101.8 17.75 101.3 17.2 100.9 16.6 100.5 16.2 100.9" fill="#ffffff" fill-rule="evenodd" stroke="none"/>
  </g>
</svg>
