<?xml version="1.0" encoding="UTF-8" standalone="no"?>
<svg xmlns:ffdec="https://www.free-decompiler.com/flash" xmlns:xlink="http://www.w3.org/1999/xlink" ffdec:objectType="shape" height="150.25px" width="104.05px" xmlns="http://www.w3.org/2000/svg">
  <g transform="matrix(1.0, 0.0, 0.0, 1.0, 42.35, 44.95)">
    <path d="M22.1 -44.9 L25.7 -44.6 Q25.45 -40.45 23.05 -35.75 21.3 -32.45 17.95 -28.0 13.3 -21.7 4.3 -12.95 L2.2 -18.0 Q9.95 -25.5 15.0 -31.75 17.85 -35.25 19.4 -37.8 21.55 -41.45 22.1 -44.75 L22.1 -44.9 M27.75 -43.95 L32.65 -41.75 Q36.45 -39.9 41.0 -34.85 45.1 -30.4 48.35 -24.6 42.4 -24.95 37.5 -23.35 31.6 -21.4 29.05 -17.05 28.2 -20.65 27.95 -23.5 L27.65 -31.15 Q27.55 -35.85 26.95 -38.75 L26.8 -39.05 Q27.6 -41.65 27.75 -43.95 M-2.8 -36.7 Q0.15 -33.8 5.2 -33.8 8.1 -33.8 11.1 -34.85 14.05 -35.85 16.5 -37.7 L12.85 -32.8 Q8.4 -27.3 1.3 -20.45 -1.5 -28.4 -2.85 -36.55 L-2.8 -36.7 M-4.95 -37.55 Q-11.5 -25.5 -16.85 -14.05 -21.5 -3.7 -22.9 1.7 -24.35 7.5 -24.35 11.65 -24.45 17.4 -21.95 21.15 L-24.65 20.7 Q-27.7 20.1 -30.55 19.05 -32.05 10.25 -28.7 -0.55 -26.25 -8.35 -20.6 -18.75 -14.05 -30.8 -6.75 -40.0 L-6.7 -40.05 Q-6.05 -39.7 -5.25 -39.45 L-4.95 -37.55 M-11.0 -42.4 L-8.85 -41.1 Q-14.45 -34.05 -20.3 -24.05 L-22.1 -25.2 Q-21.2 -31.05 -18.75 -35.4 -15.75 -40.8 -11.0 -42.4 M-6.7 -29.4 L-4.25 -33.95 -3.35 -29.8 Q0.75 -12.55 9.7 -0.4 L5.65 2.45 5.45 2.2 Q5.45 1.6 4.9 1.15 L4.35 0.85 Q2.3 -1.55 -0.3 -3.7 L-0.4 -4.25 Q-2.15 -8.1 -3.35 -12.5 L-3.45 -12.9 -3.75 -13.8 Q-5.7 -21.15 -6.65 -29.25 L-6.7 -29.4 M-21.55 -22.85 L-21.15 -22.55 -24.3 -16.75 Q-26.95 -18.5 -32.7 -18.2 L-30.05 -21.7 Q-27.65 -24.55 -23.2 -23.65 L-21.55 -22.85 M-12.2 -18.45 L-8.2 -26.45 Q-7.25 -19.7 -5.7 -13.9 L-7.4 -12.4 Q-9.5 -16.6 -12.2 -18.45 M-10.05 -10.0 L-10.45 -9.85 Q-12.75 -11.1 -15.45 -11.5 L-12.95 -16.85 Q-10.55 -15.25 -8.75 -11.2 L-10.05 -10.0 M-12.75 -8.85 Q-15.55 -7.6 -17.9 -6.0 L-16.35 -9.6 -16.25 -9.55 Q-14.55 -9.5 -12.75 -8.85 M-18.95 -2.3 Q-15.45 -5.15 -9.85 -7.6 -6.25 -5.85 -3.35 -3.85 -1.15 -2.3 0.65 -0.65 -1.4 -1.0 -3.35 -0.65 -8.65 0.25 -13.35 6.3 -19.75 14.55 -16.3 21.5 L-16.45 21.7 -19.55 21.45 Q-22.75 17.95 -22.45 11.45 -22.25 7.1 -20.35 0.85 L-19.4 -2.1 -18.95 -2.3 M-9.75 6.0 L-9.2 5.4 Q-6.65 2.95 -3.35 1.95 L-3.25 1.9 Q0.6 0.65 3.45 2.3 L4.35 3.5 2.7 4.95 Q-2.1 9.45 -2.05 13.9 -2.05 16.6 -0.35 18.95 L-3.35 20.1 -4.7 20.5 Q-8.5 18.05 -9.95 14.15 -11.5 10.1 -9.75 6.0 M-2.9 -5.65 L-3.35 -5.95 -7.95 -8.65 -4.9 -11.35 -3.35 -6.8 -2.9 -5.65 M6.75 4.6 Q11.75 0.6 20.9 -3.7 21.45 -0.3 22.15 2.5 23.85 9.5 24.05 12.55 24.4 18.55 21.7 22.15 20.75 16.5 17.35 12.4 13.7 8.0 8.35 7.0 L6.75 4.6 M7.25 8.65 Q8.6 11.75 8.6 15.35 8.55 18.8 7.25 22.05 L7.2 22.5 Q4.45 21.4 2.6 19.7 2.7 19.15 2.2 18.65 1.75 18.1 1.25 18.15 -0.3 16.05 0.05 13.6 0.5 9.95 5.45 5.65 L6.65 7.45 Q6.65 8.15 7.25 8.65 M5.4 -10.65 Q14.5 -19.45 19.85 -26.5 L20.6 -27.6 20.2 -19.85 Q19.95 -15.25 20.05 -12.15 20.1 -9.6 20.55 -6.1 15.45 -3.8 11.15 -1.25 7.95 -5.5 5.4 -10.65 M-33.95 -15.9 Q-27.55 -16.55 -25.1 -15.15 L-27.6 -9.85 -28.15 -9.9 Q-32.2 -8.6 -35.8 -5.9 -39.35 -3.2 -41.85 0.35 -40.45 -5.95 -34.9 -14.9 L-34.2 -15.95 -33.95 -15.9 M-32.25 2.4 Q-35.25 4.2 -37.25 6.7 -39.5 9.5 -40.05 12.55 -42.15 9.65 -42.35 5.95 L-42.3 5.9 Q-40.35 1.55 -36.75 -1.9 -33.15 -5.35 -28.7 -7.2 -30.7 -2.25 -31.75 2.3 L-32.25 2.4 M-32.4 5.35 Q-33.6 12.1 -32.65 18.2 -35.8 16.8 -38.2 14.65 -38.15 12.0 -36.4 9.45 -34.9 7.2 -32.4 5.35 M10.55 16.2 Q10.65 12.5 9.4 9.2 14.05 10.45 16.95 14.65 19.55 18.5 19.95 23.65 L9.4 23.3 9.2 23.25 Q10.5 19.85 10.55 16.2 M1.25 20.75 Q4.35 23.65 9.6 25.35 12.25 26.25 15.75 26.15 L10.45 26.4 Q2.5 26.45 -3.35 24.85 L-7.3 23.4 -4.25 22.75 -3.7 22.6 -3.35 22.5 Q-1.1 21.9 1.25 20.75 M5.8 32.8 Q5.0 31.9 4.35 32.4 -0.1 35.7 -3.35 39.5 -6.25 42.85 -8.2 46.65 L-10.35 43.85 -12.25 40.85 Q-14.0 37.45 -14.45 32.6 -14.8 29.3 -14.55 23.95 L-10.45 23.8 -10.4 23.85 Q-7.3 25.75 -3.35 26.85 L0.0 27.6 11.15 28.5 Q23.95 28.5 30.35 24.2 L30.6 23.95 37.0 22.1 Q37.3 25.2 36.05 29.8 35.0 33.65 33.3 37.35 27.7 49.25 12.7 56.4 11.85 56.8 12.5 57.8 13.1 58.8 13.85 58.45 L20.5 55.5 Q23.25 59.8 22.95 68.45 20.85 75.55 18.85 78.65 15.2 84.25 10.05 81.75 L8.55 80.6 6.7 79.05 Q2.7 75.45 -1.1 71.15 L-3.35 68.35 Q-6.45 64.2 -7.85 60.2 -9.85 54.6 -6.05 47.5 -4.9 45.3 -3.35 43.25 0.25 38.45 5.95 34.2 6.6 33.65 5.8 32.8 M-15.15 15.95 Q-14.65 13.05 -12.7 9.85 -12.65 13.0 -11.05 16.0 -9.55 18.85 -6.85 21.05 L-14.2 21.75 Q-15.8 19.4 -15.15 15.95 M59.4 6.4 Q53.35 1.5 47.55 -1.05 40.05 -4.35 33.9 -3.3 L32.3 -7.25 32.5 -7.3 Q38.95 -9.85 46.9 -9.2 54.15 -8.55 61.0 -5.45 L61.65 -1.85 Q62.0 2.5 59.4 6.4 M60.2 -7.75 Q53.6 -10.6 46.7 -11.25 39.15 -12.0 32.85 -9.9 36.35 -14.0 43.15 -15.6 49.0 -17.0 55.25 -16.2 L55.5 -16.2 Q58.7 -11.8 60.2 -7.75 M53.85 -18.35 Q47.1 -19.05 41.35 -17.5 34.55 -15.75 30.85 -11.15 L30.0 -13.7 30.0 -13.75 Q32.0 -19.05 38.45 -21.25 43.65 -23.0 50.1 -22.35 L52.05 -20.35 53.85 -18.35 M22.7 -30.55 L25.5 -35.55 Q25.8 -32.0 25.9 -24.85 26.1 -18.95 29.6 -9.3 30.6 -6.55 32.7 -1.65 L35.8 5.95 Q37.45 10.15 38.0 12.45 38.9 16.25 38.3 19.2 31.3 21.75 23.95 23.05 27.65 17.05 24.85 5.8 22.65 -3.0 22.2 -8.9 21.9 -13.05 22.25 -19.65 L22.7 -30.45 22.7 -30.55 M47.05 0.75 Q48.35 8.15 43.55 17.0 L43.5 17.2 40.5 18.4 Q40.75 15.0 39.0 9.55 37.75 5.45 34.8 -1.25 40.15 -2.2 47.05 0.75 M24.4 51.95 Q31.25 65.85 30.65 84.05 L30.65 86.3 Q27.8 89.3 24.8 90.75 26.1 88.4 26.95 85.55 27.15 84.95 26.75 82.8 26.4 80.85 26.85 80.4 L27.65 80.3 28.6 80.1 Q29.2 79.6 29.3 78.55 L29.25 76.75 Q29.1 74.5 27.85 72.4 26.9 70.75 24.95 68.8 25.25 59.15 21.5 54.05 L24.4 51.95 M46.75 15.75 Q50.1 8.1 49.15 1.7 54.15 4.25 58.35 7.75 54.65 12.05 46.75 15.75 M26.5 78.25 Q25.3 78.3 24.95 78.95 24.45 79.9 24.8 81.4 L24.95 84.05 24.2 86.6 Q23.05 89.55 21.4 91.9 L21.3 91.95 Q20.7 92.1 20.9 92.65 19.05 95.2 17.15 96.75 14.9 98.7 11.9 99.7 8.65 100.75 5.9 100.2 4.35 99.9 4.95 96.35 L5.1 95.7 5.6 93.8 Q6.9 89.2 9.95 83.65 L11.55 84.35 Q16.6 86.15 20.25 80.9 22.55 77.6 24.55 70.8 27.1 73.7 27.3 76.95 27.4 78.2 26.5 78.25 M29.4 97.35 Q26.65 98.65 26.4 97.55 L25.75 96.45 24.6 96.35 20.25 100.4 Q18.4 102.05 15.9 103.1 13.95 103.9 10.95 104.55 L1.2 105.05 Q-2.1 104.5 -0.9 102.05 -0.05 100.35 2.85 98.0 3.1 100.35 4.65 101.6 6.4 103.05 10.0 102.45 12.55 102.05 15.35 100.75 19.5 98.85 22.95 93.9 27.5 92.8 31.4 88.95 32.75 92.15 32.35 94.6 32.15 96.05 29.4 97.35" fill="#ffffff" fill-rule="evenodd" stroke="none"/>
  </g>
</svg>
