<?xml version="1.0" encoding="UTF-8" standalone="no"?>
<svg xmlns:ffdec="https://www.free-decompiler.com/flash" xmlns:xlink="http://www.w3.org/1999/xlink" ffdec:objectType="shape" height="168.65px" width="124.75px" xmlns="http://www.w3.org/2000/svg">
  <g transform="matrix(1.0, 0.0, 0.0, 1.0, 45.05, 48.0)">
    <path d="M27.6 -48.0 Q36.3 -47.8 44.1 -35.4 50.75 -24.75 52.45 -10.55 53.65 -0.75 47.7 9.5 44.5 14.95 39.7 19.35 L39.2 19.95 38.55 19.9 Q34.8 20.0 31.2 19.0 28.6 18.3 26.6 16.3 25.1 14.85 23.3 11.95 L22.65 10.65 Q23.6 10.6 23.2 9.5 27.2 5.65 28.5 0.4 L28.6 -0.1 28.8 -0.95 Q29.1 -2.75 28.95 -4.55 29.5 -4.65 29.35 -5.25 L28.7 -6.25 Q27.85 -11.55 23.55 -18.5 21.5 -22.05 19.8 -21.8 19.25 -21.75 19.2 -21.25 19.15 -20.85 19.45 -20.4 L13.1 -20.65 Q19.75 -27.1 23.15 -33.2 27.75 -41.4 25.7 -47.9 L27.6 -48.0 M20.45 -44.35 L20.65 -45.55 Q22.05 -46.8 23.9 -47.45 24.9 -43.45 22.95 -38.55 21.6 -35.15 18.4 -30.6 14.8 -25.5 10.15 -21.15 L7.55 -21.6 Q5.45 -21.85 4.3 -19.35 4.15 -18.05 3.75 -17.6 L2.45 -15.75 1.6 -13.8 0.9 -13.65 -6.05 -4.9 Q-8.15 -6.35 -10.7 -7.6 -2.45 -14.85 4.9 -22.2 11.7 -29.0 16.0 -34.5 L19.1 -38.8 Q20.7 -41.5 20.65 -43.75 L20.45 -44.35 M8.65 -33.6 Q11.7 -34.4 14.3 -36.05 L13.3 -34.85 Q9.35 -29.95 2.4 -23.1 L-3.65 -17.25 -3.85 -27.6 Q-3.8 -29.15 -4.85 -30.35 L-6.85 -32.9 -6.9 -33.0 -5.0 -36.5 Q-2.25 -33.45 2.65 -33.05 L8.65 -33.6 M16.6 -18.2 L21.75 -18.2 21.95 -17.9 Q25.7 -12.15 26.7 -6.4 21.5 -5.75 15.65 -7.2 13.9 -7.6 12.95 -10.7 12.15 -14.2 11.6 -15.3 10.8 -16.95 9.45 -17.85 8.1 -18.75 6.55 -18.7 L6.9 -19.2 9.15 -19.35 11.5 -18.65 16.6 -18.2 M5.55 -16.05 L5.6 -16.05 Q8.55 -17.8 10.35 -13.6 L12.95 -7.0 Q13.95 -5.65 16.2 -5.05 L20.0 -4.45 26.95 -4.25 26.75 -1.55 18.4 -2.0 Q17.3 -3.75 15.4 -4.35 12.5 -5.3 10.65 -2.6 5.45 -2.4 3.7 -7.3 2.0 -12.15 5.45 -15.95 L5.55 -16.05 M3.9 -3.55 Q6.55 -0.65 10.3 -0.45 L10.15 23.15 10.15 26.05 Q1.3 27.6 -8.35 24.05 L-7.1 23.8 Q-6.55 24.05 -6.4 23.6 -0.95 22.2 2.15 19.5 5.95 16.25 5.8 11.4 5.75 7.05 2.6 2.85 L2.15 2.25 Q-0.2 -0.75 -4.1 -3.6 L1.1 -10.1 Q1.35 -6.35 3.9 -3.55 M14.05 -2.4 L16.0 -2.2 Q17.1 -1.65 17.05 -1.0 L16.75 4.5 Q16.25 14.25 16.15 23.95 16.05 37.0 18.4 45.0 19.05 47.2 22.45 53.35 25.3 58.45 25.45 61.95 25.45 62.8 26.45 63.15 27.5 63.5 27.45 62.45 27.3 59.25 26.05 56.6 L26.15 56.55 Q31.7 49.55 32.7 44.5 33.6 40.1 33.0 34.05 34.75 34.05 36.3 33.45 L37.3 32.95 Q37.6 38.4 37.15 42.4 36.55 47.45 34.6 51.4 L30.7 58.95 Q28.7 63.3 28.45 67.1 27.9 74.5 27.45 84.85 L27.3 85.1 Q26.8 85.25 27.1 86.0 L27.35 86.6 25.9 118.1 25.8 119.1 25.2 119.7 Q24.1 120.6 22.65 120.65 21.3 120.7 20.1 119.95 L20.1 119.25 Q20.2 113.05 21.15 97.85 22.25 81.6 21.95 66.45 L21.6 61.45 Q21.8 61.0 21.35 60.45 L20.8 59.1 18.1 54.9 Q16.35 52.25 15.55 50.5 12.85 44.5 12.3 35.6 L12.2 20.25 Q12.2 9.7 12.35 -0.9 12.95 -1.85 14.05 -2.4 M51.4 42.7 L52.3 49.1 52.35 50.75 Q52.4 51.9 52.6 52.5 51.95 54.2 48.4 56.85 44.8 59.5 40.35 61.2 35.8 62.9 31.35 63.2 32.2 60.6 34.5 56.35 37.1 51.65 37.9 49.6 39.35 46.0 39.5 40.55 L39.2 31.25 Q41.5 28.1 41.3 21.4 L43.25 19.4 44.75 17.55 45.35 16.85 Q48.85 26.9 51.4 42.7 M20.5 8.7 L20.35 8.9 Q19.3 9.3 18.55 9.95 L19.0 0.1 26.25 0.5 Q24.65 5.55 20.5 8.7 M27.45 19.3 Q32.15 22.2 39.3 22.0 39.3 29.8 34.85 31.5 33.6 32.0 32.25 31.9 L32.0 31.75 Q32.95 29.9 33.35 27.6 33.55 26.8 32.55 26.2 31.55 25.65 31.35 26.6 30.1 32.85 26.45 33.05 L24.6 32.8 Q26.55 30.8 27.25 27.75 27.4 26.9 26.45 26.35 25.45 25.8 25.25 26.75 24.1 31.4 20.7 32.65 L18.25 33.05 18.15 29.65 18.25 29.55 Q20.35 26.7 21.15 24.75 22.3 21.7 21.15 19.35 20.3 17.65 18.3 16.9 L18.35 14.9 18.7 14.4 Q18.85 12.35 20.85 11.2 21.8 13.6 23.7 15.9 25.55 18.15 27.45 19.3 M3.8 10.35 Q4.5 18.75 -7.4 21.6 -11.25 19.15 -12.7 15.25 -14.25 11.15 -12.5 7.05 L-11.95 6.5 Q-9.25 3.9 -5.8 2.9 -1.8 1.75 1.05 3.6 3.55 7.0 3.8 10.35 M18.45 35.15 Q21.0 35.35 23.05 34.1 25.0 35.2 27.15 35.2 29.15 35.15 30.6 33.7 L31.0 33.8 Q31.4 38.05 30.95 42.0 30.35 47.35 24.85 54.35 L24.65 54.1 Q21.15 48.3 19.9 43.5 18.85 39.65 18.45 35.15 M10.8 39.3 Q11.55 45.25 13.45 49.95 12.9 49.4 12.35 49.6 0.2 54.75 -10.65 54.9 L-14.85 54.65 Q-16.15 51.3 -17.1 46.6 -17.55 44.45 -17.0 41.9 -16.65 40.25 -15.55 37.35 -13.4 31.85 -9.7 25.5 0.55 29.65 10.2 28.25 10.25 34.85 10.8 39.3 M18.25 18.85 Q21.45 20.0 18.1 25.55 L18.25 18.85 M34.95 65.1 Q51.9 73.25 65.9 75.2 L66.95 78.7 67.6 81.55 Q67.95 83.35 68.35 84.4 62.95 81.85 53.35 79.7 L52.9 79.6 41.3 76.9 Q34.8 75.15 30.15 72.7 L30.5 67.55 30.8 65.4 34.8 65.0 34.95 65.1 M17.65 57.25 Q19.0 59.15 19.45 60.4 17.0 63.5 12.0 65.75 8.0 67.6 2.85 68.7 L2.4 68.3 Q-6.4 62.95 -8.8 57.2 0.8 57.0 13.55 51.65 L13.95 51.1 15.55 54.25 17.65 57.25 M20.05 71.45 L19.6 71.5 Q15.65 73.25 11.6 74.6 11.35 74.6 11.2 74.75 2.2 77.55 -5.6 77.15 -11.1 76.85 -14.0 75.2 -15.0 74.65 -15.05 75.65 -15.1 76.6 -14.3 77.1 -11.3 78.75 -5.4 79.25 2.5 79.9 12.2 76.85 17.8 79.8 19.05 84.45 L19.65 85.2 19.25 93.45 Q15.45 86.45 4.95 83.25 -3.05 80.8 -13.25 80.95 -15.05 77.4 -16.6 72.35 L-17.55 68.5 Q-13.2 72.7 -1.4 71.6 4.65 71.05 9.85 69.25 16.2 67.05 19.9 63.45 20.15 66.65 20.05 71.45 M14.45 76.1 L20.0 73.9 19.8 81.65 Q18.0 78.5 14.45 76.1 M38.15 78.0 Q42.35 79.35 50.1 80.95 37.2 87.9 33.85 96.75 31.9 92.9 29.4 86.95 L29.45 86.05 Q32.85 79.9 37.75 78.35 L38.15 78.0 M30.0 74.7 L35.05 76.95 Q32.15 78.35 29.65 81.5 L30.0 74.7 M57.7 58.6 L52.55 63.7 Q49.5 66.45 46.85 68.0 L46.7 68.15 Q42.15 66.45 37.7 64.4 44.25 62.7 49.95 58.65 52.95 56.65 54.15 54.5 L56.45 57.05 57.7 58.6 M59.1 60.55 Q62.7 65.9 65.2 73.1 57.85 72.0 49.5 69.15 51.85 67.65 54.55 65.15 L59.1 60.55 M43.9 95.8 Q41.95 102.0 41.55 108.35 38.15 104.5 35.3 99.45 L35.35 99.4 Q37.55 91.0 49.35 84.1 45.95 89.45 43.9 95.8 M53.85 81.75 Q63.95 84.05 69.75 87.05 L70.5 87.15 72.7 89.25 Q67.85 89.55 62.6 92.5 58.1 94.95 54.1 98.85 51.1 101.8 49.15 105.3 46.9 109.35 46.7 113.05 L43.5 110.4 Q43.75 102.75 46.45 95.25 49.15 87.6 53.85 81.75 M77.1 94.75 Q79.55 98.5 79.7 102.2 79.4 101.85 78.95 101.6 77.5 100.7 75.25 101.2 L71.5 102.45 Q59.45 106.3 58.05 117.0 52.95 116.8 48.7 114.3 L48.7 114.25 Q48.65 110.75 51.15 106.55 53.2 103.05 56.4 100.0 60.15 96.35 64.7 94.0 69.95 91.3 74.55 91.35 L77.1 94.75 M78.05 108.3 Q75.65 112.05 70.35 114.45 65.75 116.6 60.7 117.0 L60.2 117.0 Q61.7 108.95 69.75 105.55 70.55 105.2 75.2 103.7 L77.9 103.4 Q79.1 103.65 79.4 105.2 79.0 106.8 78.05 108.3 M2.25 108.15 Q0.95 104.4 -3.05 101.45 -6.3 99.05 -10.8 97.45 -11.35 97.3 -11.55 97.6 -17.3 94.5 -24.25 94.75 L-20.7 90.35 -20.15 90.45 -15.3 90.15 -10.15 90.85 Q-4.35 92.15 -0.45 96.6 3.15 100.7 4.5 106.85 L4.5 106.9 2.25 108.15 M6.15 105.95 Q4.5 99.9 1.0 95.7 -2.85 91.2 -8.55 89.3 -13.35 87.65 -18.5 88.05 L-13.1 83.05 Q-6.9 83.0 -0.15 84.25 15.05 87.05 18.35 95.65 13.0 101.7 6.15 105.95 M-6.4 -38.7 Q-13.55 -25.9 -19.35 -13.4 L-22.85 -5.45 Q-24.7 -0.9 -25.65 2.8 -27.1 8.6 -27.1 12.75 -27.15 18.5 -24.65 22.25 -29.45 21.5 -33.35 20.05 -34.85 11.05 -31.25 -0.15 -28.75 -7.9 -22.85 -18.9 -16.1 -31.3 -9.05 -40.4 L-6.7 -39.25 -6.4 -38.7 M-11.05 -41.65 Q-17.55 -33.15 -23.35 -22.75 L-24.9 -23.85 Q-23.95 -30.05 -21.15 -34.95 -17.85 -40.7 -12.8 -42.95 L-11.05 -41.65 M-5.8 -29.0 Q-6.0 -23.6 -5.6 -17.25 -5.6 -16.65 -4.8 -16.15 L-10.15 -11.3 Q-12.2 -15.5 -14.9 -17.35 L-7.8 -31.3 Q-7.1 -30.2 -5.8 -29.0 M-27.1 -15.75 Q-29.95 -17.5 -35.6 -17.1 L-32.2 -21.3 Q-30.45 -23.2 -26.8 -22.75 L-24.9 -21.8 -24.45 -21.45 -24.4 -21.4 -24.4 -21.45 -24.2 -21.2 -27.1 -15.75 M-36.7 -14.85 Q-30.4 -15.5 -27.9 -14.15 L-30.35 -8.8 -30.9 -8.85 Q-34.9 -7.55 -38.45 -4.9 -41.95 -2.25 -44.45 1.25 -42.75 -6.7 -37.15 -14.95 L-36.7 -14.85 M-31.5 -6.15 Q-33.45 -1.1 -34.5 3.35 L-35.0 3.45 Q-38.0 5.25 -40.0 7.8 -42.3 10.65 -42.8 13.7 -44.9 10.85 -45.05 6.95 -43.1 2.6 -39.5 -0.85 -35.95 -4.3 -31.5 -6.15 M-21.7 -1.2 Q-18.1 -4.2 -12.55 -6.5 -6.1 -3.45 -1.8 0.5 -5.5 -0.25 -9.45 1.75 -13.2 3.65 -16.05 7.3 -18.9 10.95 -19.75 14.95 -20.7 19.3 -18.95 22.7 L-22.3 22.5 Q-25.55 18.95 -25.2 12.3 -24.95 7.85 -23.0 1.5 L-22.15 -1.05 Q-21.85 -1.05 -21.7 -1.2 M-12.8 -8.95 L-13.2 -8.8 Q-15.5 -10.05 -18.2 -10.45 L-15.65 -15.8 Q-13.4 -14.2 -11.45 -10.1 L-12.8 -8.95 M-19.0 -8.5 L-15.5 -7.8 -20.6 -4.95 -19.05 -8.55 -19.0 -8.5 M-17.9 16.95 Q-17.35 14.1 -15.45 10.9 -15.4 14.05 -13.85 17.0 -12.35 19.85 -9.7 22.05 L-17.0 22.7 Q-18.55 20.4 -17.9 16.95 M-35.15 6.45 Q-36.35 13.15 -35.4 19.2 L-38.4 17.65 Q-39.9 16.8 -40.95 15.8 -40.9 13.15 -39.15 10.55 -37.65 8.3 -35.15 6.45 M-16.2 57.4 Q-15.7 56.6 -16.1 56.5 L-10.7 57.2 Q-8.2 63.45 0.5 69.15 -8.8 70.8 -14.35 68.3 -15.4 67.85 -16.25 67.1 -17.3 66.3 -17.5 65.55 L-18.0 64.9 -18.05 64.3 Q-18.1 62.4 -17.65 60.35 L-16.95 58.45 -16.2 57.4 M-19.2 97.2 Q-15.75 97.75 -12.75 99.05 -9.6 100.45 -8.25 102.55 -6.7 104.95 -7.75 107.95 -8.45 109.85 -9.75 111.3 -10.05 111.6 -9.95 112.0 -16.75 112.8 -22.45 110.5 -31.6 106.9 -25.75 97.1 -22.75 96.65 -19.2 97.2 M-7.15 100.95 Q-0.7 104.2 0.6 108.9 -2.9 110.55 -6.95 111.5 -5.35 108.9 -5.3 106.15 -5.3 103.2 -7.15 100.95" fill="#ffffff" fill-rule="evenodd" stroke="none"/>
  </g>
</svg>
