<?xml version="1.0" encoding="UTF-8" standalone="no"?>
<svg xmlns:ffdec="https://www.free-decompiler.com/flash" xmlns:xlink="http://www.w3.org/1999/xlink" ffdec:objectType="shape" height="169.05px" width="125.2px" xmlns="http://www.w3.org/2000/svg">
  <g transform="matrix(1.0, 0.0, 0.0, 1.0, 47.5, 47.2)">
    <path d="M40.3 -40.6 Q48.75 -33.55 54.55 -21.6 58.8 -12.8 57.65 -2.9 56.55 6.5 50.85 14.85 L50.75 15.0 48.6 15.55 Q42.35 16.95 38.2 15.1 34.2 13.35 31.05 7.45 L32.45 5.9 Q34.5 3.25 35.05 0.1 35.65 -3.1 34.65 -6.2 34.8 -6.85 34.2 -7.45 L33.9 -8.1 Q32.05 -11.75 29.6 -14.85 26.7 -18.45 23.75 -20.25 22.6 -21.05 21.8 -20.7 20.95 -20.4 21.55 -19.4 L17.55 -18.65 14.2 -18.25 10.9 -18.15 11.65 -19.0 Q18.05 -26.35 20.85 -31.75 25.15 -40.0 23.15 -46.75 L23.4 -46.75 Q30.55 -48.85 40.3 -40.6 M21.35 -46.2 Q23.0 -39.7 18.05 -31.35 15.1 -26.3 8.35 -18.9 1.4 -11.3 -6.55 -4.9 L-11.3 -7.65 Q-4.15 -13.65 3.4 -20.9 10.6 -27.7 14.8 -32.65 L18.2 -36.8 Q19.95 -39.35 20.5 -41.55 L20.4 -42.3 Q21.3 -44.45 21.35 -46.15 L21.35 -46.2 M14.7 -36.15 L12.5 -33.6 Q8.5 -29.05 1.35 -22.25 L-4.6 -16.75 Q-4.75 -21.5 -4.5 -26.9 L-4.45 -29.0 Q-4.55 -29.85 -5.7 -31.05 L-7.45 -32.95 -7.55 -33.05 -5.0 -37.65 Q-2.3 -33.85 3.2 -33.35 L9.1 -33.85 Q12.1 -34.55 14.7 -36.15 M19.8 -16.65 L24.4 -17.65 Q27.4 -15.2 31.3 -9.25 L32.25 -7.45 Q28.75 -6.15 22.8 -5.8 L20.05 -6.0 Q18.85 -6.45 18.05 -7.75 L16.9 -9.8 15.8 -11.85 Q14.7 -13.7 13.05 -14.6 11.3 -15.55 9.55 -15.05 9.8 -15.85 10.85 -16.0 L13.0 -16.05 15.15 -15.95 19.8 -16.65 M7.3 -13.6 L6.35 -11.55 Q4.5 -6.2 8.1 -1.6 11.75 3.0 17.2 2.05 L19.0 10.75 18.9 10.75 13.85 11.6 8.7 12.0 Q6.1 11.95 5.1 10.05 4.8 8.05 3.95 6.1 2.9 0.5 3.5 -10.2 L3.45 -10.45 7.45 -14.45 7.3 -13.6 M9.1 -12.05 Q11.75 -14.4 14.35 -10.75 L18.4 -4.8 Q19.5 -3.8 21.4 -3.65 L24.65 -3.75 Q29.25 -4.0 32.95 -5.25 L33.2 -2.6 24.65 -1.25 Q23.0 -2.9 20.95 -3.0 19.6 -3.0 18.55 -2.2 17.55 -1.45 17.05 -0.2 12.05 1.15 9.15 -3.3 6.3 -7.7 9.1 -12.05 M22.7 -0.35 L23.55 -0.25 24.25 3.95 Q26.15 15.45 27.85 23.75 30.55 36.8 34.35 44.15 36.3 47.95 39.65 51.6 L43.0 55.4 Q44.6 57.5 45.2 59.85 45.4 60.75 46.35 60.85 47.35 60.9 47.05 59.8 46.4 57.0 44.55 54.5 L44.6 54.4 Q48.5 46.4 48.45 41.05 48.4 37.0 46.55 31.0 48.45 30.6 49.8 29.6 L50.65 28.95 Q53.35 38.7 52.6 44.3 L50.2 53.6 Q48.55 59.25 49.0 63.0 L50.6 73.25 52.35 83.45 54.7 97.05 Q54.4 97.55 54.95 98.3 L57.35 112.3 57.2 112.65 Q56.85 113.3 57.7 114.1 L58.7 119.95 56.5 121.45 Q55.85 121.85 54.35 121.85 L53.0 121.55 52.45 118.9 Q52.8 118.7 52.65 118.15 L52.15 117.2 Q50.85 110.6 50.1 105.7 L50.0 105.35 47.2 88.2 46.65 85.1 Q46.95 84.7 46.45 84.0 L43.7 70.05 Q44.2 69.85 44.05 69.15 43.95 68.45 43.3 68.15 L42.05 62.3 Q42.2 61.8 41.65 61.15 L40.7 59.05 Q39.8 57.5 37.5 55.4 L33.95 52.0 Q28.9 45.95 26.15 34.8 24.05 26.25 19.65 4.65 L18.95 1.2 Q19.35 0.3 19.7 -0.1 20.3 -0.8 21.15 -0.85 21.5 -0.9 22.7 -0.35 M44.5 23.35 Q43.45 23.0 43.5 24.05 43.6 30.35 39.85 31.35 L38.15 31.45 Q39.45 29.1 39.55 26.0 39.55 25.1 38.55 24.8 37.55 24.45 37.5 25.5 37.45 28.3 36.05 30.4 34.5 32.75 31.9 33.05 L31.05 29.9 31.1 29.9 Q32.65 26.55 32.95 24.4 33.5 21.15 31.8 19.0 30.65 17.55 28.5 17.2 L28.15 15.45 28.35 14.75 Q28.2 13.45 28.95 12.3 29.65 11.2 30.95 10.6 33.85 14.75 37.25 16.6 42.1 19.3 50.2 17.5 52.1 25.75 47.65 28.2 L45.4 28.95 45.1 28.85 Q45.6 26.85 45.5 24.55 45.5 23.7 44.5 23.35 M44.65 31.2 Q46.05 35.5 46.4 39.8 46.65 42.75 45.5 46.35 44.7 48.9 42.9 52.6 L42.55 52.2 Q38.0 47.4 35.65 42.9 33.75 39.2 32.55 35.2 35.1 34.9 36.8 33.2 L41.25 33.35 Q43.1 32.85 44.15 31.15 L44.65 31.2 M25.7 0.8 L32.95 -0.35 Q32.1 3.55 29.05 6.05 28.6 6.4 28.9 7.0 L29.7 8.6 Q28.2 9.3 27.3 10.55 L25.7 0.8 M2.95 9.7 L3.15 10.3 Q3.9 18.7 -8.05 21.55 -11.85 19.1 -13.3 15.2 -14.85 11.1 -13.15 7.0 L-12.55 6.45 Q-9.9 3.85 -6.45 2.85 -2.4 1.7 0.45 3.55 L2.1 6.4 2.95 9.7 M5.15 12.8 Q7.5 14.5 12.15 14.1 L19.45 12.9 22.05 25.25 Q13.8 27.65 6.0 27.7 -3.15 27.7 -9.75 24.3 L-10.0 24.2 -7.75 23.75 Q-7.2 24.0 -7.05 23.55 -2.05 22.3 1.0 19.9 4.7 17.0 5.15 12.8 M11.5 45.0 Q11.15 45.8 11.9 46.5 12.8 47.25 13.95 48.7 11.1 51.95 6.6 63.75 -0.65 65.55 -7.7 64.55 -15.55 63.45 -20.9 59.15 -16.6 48.45 -9.2 26.55 -2.5 29.75 6.55 29.8 14.25 29.8 22.55 27.5 24.6 36.85 26.4 41.7 29.2 49.3 33.75 54.3 L36.95 57.3 Q38.95 59.1 39.5 60.7 L39.65 61.05 Q35.05 63.0 31.7 63.7 L23.6 63.35 Q21.0 56.9 19.15 53.5 16.2 48.05 12.75 44.95 L11.5 45.0 M30.2 26.05 L28.9 19.3 Q32.4 19.65 30.2 26.05 M23.4 65.25 Q27.3 66.8 32.75 65.7 L32.8 65.75 Q35.75 67.15 41.75 69.55 L43.55 78.65 Q30.3 76.0 21.85 69.5 21.85 66.55 23.4 65.25 M40.3 63.3 L41.3 67.4 35.55 65.0 Q37.75 64.35 40.3 63.3 M9.75 69.4 Q4.3 74.4 -7.85 75.35 -12.6 71.55 -15.45 66.85 L-16.95 63.8 Q-11.4 66.5 -4.5 66.9 1.9 67.3 8.25 65.65 9.65 66.6 9.75 69.4 M4.15 93.2 Q2.8 89.9 0.2 87.1 L6.35 85.95 4.15 93.2 M3.05 96.15 L2.95 96.4 Q1.95 98.95 0.95 100.7 -1.95 93.35 -11.7 88.85 -19.2 85.45 -29.35 84.2 L-29.2 80.95 Q-23.7 84.95 -16.3 86.55 -9.5 88.0 -1.95 87.3 2.35 91.15 3.0 96.0 L3.05 96.15 M7.0 83.4 Q-2.45 86.1 -11.6 85.25 -22.05 84.35 -29.0 78.95 L-27.9 72.4 -27.9 72.35 Q-24.4 76.8 -13.95 77.55 L-7.6 77.6 -7.25 77.6 Q3.3 77.05 9.4 72.75 L8.2 78.2 7.0 83.4 M31.8 97.35 L29.9 93.6 Q28.3 90.2 27.05 87.1 30.65 80.6 35.65 78.95 L36.0 78.7 Q40.05 80.0 43.9 80.75 L44.45 83.75 Q39.85 86.85 37.05 89.65 33.35 93.3 31.8 97.35 M24.3 79.7 Q22.45 74.15 22.1 71.8 26.8 75.3 32.85 77.6 28.9 79.6 26.0 84.35 L24.3 79.7 M55.6 59.3 Q53.45 62.1 51.05 63.7 L50.95 60.8 Q51.0 58.65 51.95 55.05 L55.6 59.3 M51.4 66.25 Q54.55 64.45 57.05 61.3 60.85 67.0 63.1 73.7 58.3 73.0 52.25 71.2 L51.4 66.25 M45.25 88.45 L45.1 88.7 Q40.1 98.6 39.45 108.85 36.0 105.05 33.25 100.0 35.15 93.0 44.9 86.35 L45.25 88.45 M54.2 83.0 Q62.6 85.1 67.65 87.65 L68.4 87.75 70.65 89.85 Q64.05 90.25 56.4 95.75 L54.2 83.0 M72.55 91.95 Q76.5 96.55 77.5 101.1 L77.7 103.0 Q75.6 101.0 72.1 102.2 67.0 103.95 64.75 105.1 61.0 107.0 58.85 109.8 L56.85 98.4 Q60.5 95.55 64.2 93.9 68.65 91.9 72.55 91.95 M66.3 85.0 Q61.4 82.75 53.85 80.9 L52.6 73.3 Q58.65 75.1 63.8 75.8 65.35 80.75 66.3 85.0 M77.35 106.0 Q76.0 110.5 70.45 113.8 65.75 116.55 60.2 117.4 L59.45 113.3 Q62.25 107.95 69.6 105.4 L74.1 103.95 Q76.8 103.0 77.35 106.0 M46.75 114.8 Q47.1 112.05 48.6 108.75 L49.95 116.3 46.75 114.8 M41.4 110.85 Q41.75 101.5 45.9 92.35 L47.95 104.95 Q45.4 109.4 44.8 113.55 42.9 112.3 41.4 110.85 M1.45 2.1 Q-0.85 -0.75 -4.5 -3.5 -1.3 -6.05 1.35 -8.5 1.1 -2.2 1.45 2.1 M-9.2 -41.3 Q-7.2 -40.1 -6.1 -39.65 L-6.0 -39.45 Q-6.6 -39.6 -6.85 -39.15 -14.0 -26.25 -19.95 -13.45 -24.8 -3.05 -26.25 2.75 -27.7 8.5 -27.75 12.7 -27.8 18.45 -25.3 22.2 -30.1 21.45 -34.0 20.0 -35.5 11.0 -31.9 -0.2 -29.35 -8.0 -23.45 -18.95 -16.95 -31.1 -9.3 -40.95 L-9.2 -41.3 M-11.2 -42.4 Q-17.9 -33.75 -24.0 -22.8 -24.6 -23.4 -25.5 -23.9 -24.55 -30.25 -21.5 -35.5 -18.1 -41.35 -12.95 -44.1 L-11.05 -42.55 -11.2 -42.4 M-6.45 -29.1 Q-6.85 -21.75 -6.5 -15.3 L-6.45 -15.05 -10.75 -11.3 Q-12.85 -15.55 -15.55 -17.4 L-8.45 -31.35 Q-7.65 -30.2 -6.45 -29.1 M-25.5 -21.85 L-25.05 -21.5 -24.85 -21.25 -27.75 -15.8 Q-30.55 -17.55 -36.25 -17.15 L-32.85 -21.35 Q-31.05 -23.25 -27.45 -22.8 L-25.5 -21.85 M-37.35 -14.9 Q-31.0 -15.55 -28.55 -14.2 L-31.0 -8.85 -31.55 -8.9 Q-35.55 -7.6 -39.1 -4.95 -42.6 -2.3 -45.1 1.2 -43.4 -6.75 -37.8 -15.0 L-37.35 -14.9 M-32.1 -6.2 Q-34.05 -1.3 -35.15 3.3 L-35.65 3.4 Q-38.65 5.2 -40.65 7.75 -42.95 10.6 -43.45 13.65 -45.45 10.9 -45.7 6.9 -43.75 2.55 -40.15 -0.9 -36.55 -4.35 -32.1 -6.2 M-22.3 -1.25 Q-18.65 -4.3 -13.2 -6.55 -6.75 -3.55 -2.4 0.45 -6.1 -0.3 -10.05 1.7 -13.8 3.6 -16.65 7.25 -23.2 15.65 -19.6 22.65 L-22.95 22.45 Q-26.15 18.9 -25.8 12.25 -25.55 7.8 -23.6 1.45 L-22.75 -1.1 Q-22.5 -1.1 -22.3 -1.25 M-13.4 -9.0 L-13.85 -8.85 Q-16.05 -10.1 -18.8 -10.5 L-16.3 -15.85 Q-13.9 -14.15 -12.1 -10.15 L-13.4 -9.0 M-19.6 -8.55 L-16.1 -7.85 Q-18.7 -6.7 -21.25 -5.0 L-19.7 -8.6 -19.6 -8.55 M-17.6 22.65 Q-19.15 20.3 -18.55 16.9 -18.0 14.05 -16.05 10.85 -16.0 14.0 -14.45 16.95 -12.95 19.8 -10.3 22.0 L-17.6 22.65 M-35.75 6.4 Q-36.95 13.3 -36.0 19.15 L-39.05 17.6 -41.55 15.75 Q-41.5 13.1 -39.75 10.5 -38.25 8.25 -35.75 6.4 M-21.85 60.6 L-19.25 62.45 Q-17.7 69.0 -10.3 75.5 -19.25 75.85 -24.55 72.85 L-26.2 71.35 -27.25 69.85 Q-25.5 63.7 -21.85 60.6 M-35.75 90.5 L-30.45 86.55 -29.85 86.15 Q-23.8 86.85 -17.05 89.05 -2.3 93.75 -0.3 102.7 -3.0 106.4 -6.95 108.6 -10.3 110.4 -13.6 111.65 -14.4 105.35 -17.45 100.6 -20.75 95.55 -26.25 92.95 -30.6 90.9 -35.75 90.5 M-37.9 92.6 Q-33.15 92.3 -27.85 94.25 -22.25 96.4 -19.05 101.3 -16.1 105.85 -15.5 112.15 L-15.45 112.35 -17.8 113.1 Q-18.65 109.25 -22.2 105.8 -25.1 103.0 -29.3 100.9 -29.9 100.65 -30.25 100.9 -35.75 97.0 -42.5 96.4 L-38.25 92.55 -37.9 92.6 M-27.45 110.9 Q-28.3 113.0 -30.25 114.75 L-30.5 115.2 Q-36.2 115.25 -40.45 113.65 -45.7 111.6 -47.15 107.45 -48.6 103.55 -44.35 98.5 -38.6 98.35 -32.85 101.3 -29.65 102.95 -28.1 105.2 -26.3 107.9 -27.45 110.9 M-26.3 104.65 Q-20.2 108.7 -19.6 113.6 L-26.9 115.0 -27.25 115.05 Q-25.35 112.7 -25.05 109.95 -24.75 107.05 -26.3 104.65" fill="#ffffff" fill-rule="evenodd" stroke="none"/>
  </g>
</svg>
