<?xml version="1.0" encoding="UTF-8" standalone="no"?>
<svg xmlns:ffdec="https://www.free-decompiler.com/flash" xmlns:xlink="http://www.w3.org/1999/xlink" ffdec:objectType="shape" height="168.95px" width="115.45px" xmlns="http://www.w3.org/2000/svg">
  <g transform="matrix(1.0, 0.0, 0.0, 1.0, 47.25, 45.2)">
    <path d="M21.95 -38.25 Q21.0 -35.65 18.9 -32.2 15.2 -26.15 7.8 -18.65 0.0 -10.7 -8.1 -4.55 L-12.85 -7.3 Q-5.35 -13.3 2.65 -20.85 9.95 -27.6 14.4 -33.0 L17.75 -37.45 Q19.5 -40.2 19.8 -42.55 19.9 -43.05 19.45 -43.5 L19.55 -43.85 19.75 -43.9 22.7 -44.85 Q23.2 -41.85 21.95 -38.25 M24.55 -45.15 Q32.75 -45.8 41.5 -37.15 48.0 -30.75 52.95 -21.55 59.6 -9.15 57.1 3.05 55.55 10.45 51.1 17.3 L50.6 18.1 Q50.8 17.75 50.35 17.9 L49.5 18.2 39.95 18.65 Q35.4 17.75 31.35 11.1 L30.95 10.45 31.95 9.4 Q34.2 6.7 34.9 3.4 35.5 0.15 34.5 -3.2 34.75 -3.85 34.0 -4.5 L31.55 -8.75 28.45 -12.6 Q25.95 -15.7 24.0 -16.95 22.3 -18.0 21.55 -17.7 20.75 -17.35 21.35 -16.35 L17.35 -15.6 13.65 -15.2 9.95 -15.05 Q7.95 -14.95 7.4 -13.15 L7.3 -11.75 7.1 -10.5 Q6.7 -9.9 6.2 -8.5 4.35 -3.1 8.0 1.45 11.65 6.05 17.1 5.1 L18.45 11.45 8.15 12.65 Q6.05 12.65 5.0 11.8 4.0 10.95 3.4 9.0 2.2 5.1 2.0 0.0 1.85 -3.65 2.15 -9.2 L2.0 -9.75 Q6.25 -13.55 11.2 -18.65 18.0 -25.85 20.95 -30.65 25.9 -38.65 24.55 -45.15 M8.2 -34.0 Q11.8 -34.95 14.6 -37.0 L12.1 -33.95 Q8.15 -29.3 0.6 -22.2 L-6.6 -15.7 Q-6.65 -20.7 -6.2 -26.2 L-6.0 -28.4 Q-5.9 -29.3 -7.2 -30.6 L-9.0 -32.6 -9.1 -32.7 -6.55 -37.35 -6.45 -37.7 Q-3.9 -34.15 1.3 -33.5 4.65 -33.1 8.2 -34.0 M19.55 -13.65 L24.2 -14.65 Q27.05 -12.35 31.15 -6.25 L32.1 -4.5 Q28.65 -3.15 22.65 -2.8 L19.9 -3.0 Q18.7 -3.4 17.9 -4.7 L16.75 -6.7 15.65 -8.75 Q14.5 -10.65 12.9 -11.55 11.15 -12.5 9.35 -12.0 9.6 -12.75 10.65 -12.95 L12.8 -12.95 14.9 -12.9 19.55 -13.65 M8.9 -9.0 Q11.55 -11.35 14.2 -7.7 L18.25 -1.75 Q19.35 -0.8 21.25 -0.65 L24.5 -0.75 Q29.2 -1.0 32.8 -2.3 L33.05 0.35 24.5 1.75 Q23.75 1.0 22.7 0.55 21.65 0.05 20.8 0.05 19.5 0.0 18.45 0.8 17.4 1.6 16.95 2.85 11.95 4.25 9.05 -0.2 6.15 -4.65 8.9 -9.0 M49.85 32.5 L50.65 31.8 Q52.1 37.0 52.55 40.8 53.1 45.8 52.15 49.9 L49.9 58.35 Q48.8 63.25 49.4 67.05 L50.55 74.35 Q50.45 74.55 50.5 74.8 L50.75 75.45 59.05 121.25 Q59.25 122.3 57.55 123.1 L54.8 123.75 53.45 123.4 53.25 122.45 51.15 112.75 Q50.0 107.05 47.85 93.95 45.8 81.75 44.4 75.1 L43.8 72.1 43.6 71.3 43.05 68.7 42.8 67.65 41.4 63.05 Q40.85 61.5 39.15 59.9 L36.2 57.25 Q31.0 52.15 27.95 43.5 26.45 39.4 23.85 27.8 L18.8 4.25 19.55 2.95 Q20.1 2.3 21.0 2.15 L22.55 2.7 23.45 2.75 24.15 7.0 Q25.95 17.85 27.85 26.7 30.6 39.65 34.45 47.1 36.45 50.95 39.75 54.5 L43.15 58.3 Q44.75 60.4 45.35 62.75 45.6 63.65 46.55 63.75 47.55 63.85 47.25 62.75 46.5 59.8 44.65 57.4 L44.75 57.3 Q48.6 49.35 48.5 43.95 48.45 39.75 46.55 33.9 48.4 33.5 49.85 32.5 M45.5 27.45 Q45.5 26.6 44.5 26.25 43.45 25.9 43.5 26.95 43.6 33.3 39.9 34.3 L38.15 34.4 Q39.45 32.05 39.55 28.95 39.55 28.1 38.55 27.7 37.55 27.35 37.55 28.4 37.5 31.2 36.1 33.35 34.55 35.7 31.95 36.0 L31.1 32.9 31.1 32.85 Q32.65 29.55 32.95 27.4 33.5 24.1 31.75 21.95 30.55 20.45 28.45 20.2 L28.15 18.4 28.3 17.75 Q28.15 16.45 28.9 15.3 29.6 14.15 30.85 13.55 33.7 17.65 37.2 19.55 42.1 22.2 50.15 20.35 52.05 28.6 47.65 31.1 L45.4 31.85 45.1 31.75 Q45.6 29.75 45.5 27.45 M44.7 34.1 Q46.1 38.4 46.45 42.7 46.7 45.65 45.6 49.25 44.8 51.85 43.05 55.5 L42.7 55.15 Q38.15 50.4 35.75 45.85 34.05 42.6 32.6 38.15 35.05 37.95 36.85 36.15 L41.25 36.3 Q43.05 35.75 44.15 34.1 L44.7 34.1 M28.8 9.95 L29.6 11.55 Q28.1 12.25 27.2 13.55 L25.55 3.85 32.8 2.65 Q32.0 6.55 28.95 9.05 28.55 9.35 28.8 9.95 M18.9 13.65 L20.95 23.1 Q15.7 24.45 6.9 24.9 L-8.15 24.1 -8.65 24.05 -8.6 23.9 Q2.9 20.9 3.6 13.0 5.9 15.15 10.9 14.85 L18.9 13.65 M8.7 45.85 Q4.45 50.8 3.2 59.05 -3.6 60.65 -9.8 60.5 -17.05 60.35 -22.5 57.85 L-18.9 41.6 -15.75 25.25 -14.85 25.2 -11.4 25.5 -7.95 26.2 6.7 27.05 Q15.25 26.8 21.45 25.3 L22.0 27.95 Q24.4 38.8 26.05 43.45 29.0 51.9 33.9 57.3 L36.65 59.8 Q24.35 64.45 18.15 61.4 15.9 55.0 14.15 51.45 11.45 45.95 8.2 42.7 7.4 41.9 6.75 42.45 6.1 43.0 6.9 43.8 L8.7 45.85 M28.85 22.3 Q32.45 22.6 30.2 29.05 L28.85 22.3 M38.6 68.7 Q34.05 66.55 29.95 64.2 33.75 63.4 38.45 61.6 39.35 62.55 39.7 63.65 L40.85 67.4 38.8 68.55 38.6 68.7 M27.15 64.65 Q33.55 68.45 41.95 72.25 L43.65 80.75 33.95 77.7 Q28.4 75.85 24.6 73.7 19.85 71.05 16.0 67.5 16.1 64.2 17.75 63.2 21.55 65.2 27.1 64.6 L27.15 64.65 M1.45 72.5 Q-2.6 75.0 -7.45 75.65 L-9.4 75.85 Q-14.65 72.6 -18.25 68.75 -22.75 64.0 -24.1 59.05 L-22.7 59.7 Q-19.45 61.0 -16.1 61.65 -6.0 63.8 5.75 60.75 6.85 62.9 7.35 65.8 6.05 69.7 1.45 72.5 M16.05 69.8 Q18.85 72.15 22.85 74.7 L25.95 76.45 Q21.95 78.0 18.5 82.4 16.75 76.2 16.2 71.0 L16.05 69.8 M7.8 70.5 Q8.0 74.55 7.2 80.15 -9.05 86.85 -20.8 83.6 -26.45 82.0 -29.0 79.0 -29.25 78.7 -29.6 78.6 -30.25 66.3 -25.55 60.45 -22.7 68.7 -12.35 75.95 -19.1 75.85 -23.7 73.4 -25.45 72.45 -26.35 71.05 L-26.85 70.15 Q-27.0 69.3 -28.0 68.95 -29.05 68.6 -28.85 69.6 -27.95 74.45 -21.25 76.55 -16.8 77.95 -10.45 78.0 -5.15 78.05 -0.35 76.15 5.1 74.0 7.75 70.0 L7.8 70.5 M6.0 86.65 Q5.45 89.8 4.4 93.2 2.75 89.25 -1.3 85.4 2.5 84.45 6.75 82.8 L6.0 86.65 M22.05 93.55 L19.35 85.3 Q21.15 82.6 23.35 80.75 25.95 78.6 28.7 78.0 L29.0 77.85 Q32.65 79.4 40.7 81.8 27.0 87.5 22.95 96.0 L22.05 93.55 M24.15 98.9 Q27.25 90.65 39.55 84.9 35.7 89.85 33.1 95.9 30.55 101.85 29.5 108.05 26.5 104.1 24.15 98.95 L24.15 98.9 M51.35 62.05 Q54.6 67.9 56.4 75.45 L52.55 74.35 52.05 71.6 Q51.0 65.3 51.35 62.05 M56.9 77.55 L58.3 85.35 58.6 87.05 54.35 84.9 52.9 76.45 56.9 77.55 M46.5 97.45 Q42.1 100.35 39.0 104.2 35.45 108.55 34.4 113.2 L31.35 110.25 Q32.4 102.8 35.65 95.75 39.0 88.5 44.1 83.2 L46.6 97.4 46.5 97.45 M60.3 89.85 L62.4 92.3 Q59.55 92.3 55.85 93.25 L54.75 87.05 Q57.15 88.15 59.45 89.6 59.9 89.95 60.3 89.85 M64.0 94.45 Q66.75 98.45 67.75 102.15 68.3 104.15 68.15 105.8 L67.6 105.25 Q66.2 104.1 64.2 104.35 61.95 104.65 58.15 105.7 L56.3 95.5 Q60.9 94.15 64.0 94.45 M66.5 106.55 Q67.3 106.9 67.5 108.65 65.75 113.05 60.0 115.9 L58.55 107.95 62.85 106.95 64.65 106.5 66.5 106.55 M48.9 110.7 Q46.15 113.8 45.1 118.35 40.4 117.55 36.3 114.65 37.2 110.45 40.3 106.4 43.0 102.9 47.0 100.0 L48.9 110.7 M49.5 113.8 L50.45 118.6 47.3 118.6 Q48.05 115.8 49.5 113.8 M1.4 101.0 Q-1.55 93.65 -11.4 89.15 -18.9 85.75 -29.05 84.5 L-29.45 80.95 Q-26.45 83.8 -21.05 85.55 -13.25 88.0 -3.25 85.9 L-3.15 86.0 Q2.6 91.1 3.45 96.25 L1.4 101.0 M-13.95 -44.35 L-11.85 -42.6 Q-20.85 -30.9 -25.55 -22.45 L-27.05 -23.55 Q-26.1 -30.0 -22.9 -35.6 -19.2 -42.2 -14.0 -44.3 L-13.95 -44.35 M-10.45 -41.65 L-7.75 -40.1 Q-15.5 -26.1 -21.55 -13.1 L-25.05 -5.15 Q-26.85 -0.65 -27.8 3.1 -29.25 8.85 -29.3 13.05 -29.3 15.25 -28.95 17.15 L-28.3 19.65 Q-27.75 21.25 -26.85 22.55 -31.65 21.8 -35.55 20.35 L-35.65 19.65 -35.9 17.15 Q-36.4 9.4 -33.45 0.15 -30.95 -7.6 -25.05 -18.6 -20.55 -26.9 -10.9 -40.6 -10.5 -41.05 -10.45 -41.65 M-8.05 -28.75 Q-8.9 -20.75 -8.55 -14.3 L-8.45 -14.05 -12.25 -10.85 Q-14.3 -15.15 -17.1 -17.05 L-10.0 -31.0 -8.05 -28.75 M-26.4 -20.9 L-29.3 -15.45 Q-32.15 -17.2 -37.8 -16.8 L-34.4 -21.0 Q-32.65 -22.9 -29.0 -22.45 L-27.05 -21.5 -26.65 -21.15 -26.55 -21.1 -26.4 -20.9 M-38.9 -14.55 Q-32.6 -15.2 -30.1 -13.85 L-32.55 -8.5 -33.1 -8.55 Q-37.1 -7.25 -40.65 -4.6 -44.15 -1.95 -46.65 1.55 -44.95 -6.4 -39.35 -14.65 L-38.9 -14.55 M-23.85 -0.9 Q-20.2 -3.95 -14.75 -6.2 -8.3 -3.2 -3.95 0.8 -7.65 0.05 -11.65 2.05 -15.35 3.95 -18.25 7.6 -21.1 11.25 -21.95 15.25 -22.9 19.6 -21.15 23.0 L-24.5 22.8 Q-25.7 21.45 -26.4 19.65 L-27.1 17.15 Q-28.15 11.3 -25.15 1.8 L-24.3 -0.75 Q-24.05 -0.75 -23.85 -0.9 M-21.25 -8.25 L-21.2 -8.2 Q-19.45 -8.15 -17.65 -7.5 -20.5 -6.25 -22.8 -4.65 L-21.25 -8.25 M-13.6 -9.75 L-14.9 -8.65 -14.95 -8.65 -15.4 -8.5 Q-17.6 -9.75 -20.4 -10.15 L-17.85 -15.5 Q-15.55 -13.9 -13.6 -9.75 M-33.65 -5.85 Q-35.6 -0.95 -36.7 3.65 L-37.2 3.75 Q-40.2 5.55 -42.2 8.1 -44.5 10.95 -45.0 14.0 -47.0 11.25 -47.25 7.25 -45.3 2.9 -41.7 -0.55 -38.1 -4.0 -33.65 -5.85 M-1.15 3.9 Q1.35 7.3 1.6 10.65 2.3 19.05 -9.6 21.9 -13.45 19.45 -14.9 15.55 -16.4 11.5 -14.7 7.35 L-14.15 6.8 Q-11.45 4.2 -8.0 3.2 -4.0 2.05 -1.15 3.9 M-11.85 22.35 L-19.2 23.0 Q-20.75 20.65 -20.1 17.25 -19.55 14.4 -17.6 11.2 -17.55 14.35 -16.0 17.3 -14.5 20.15 -11.85 22.35 M-37.6 19.5 L-40.6 17.95 -41.8 17.15 -43.1 16.1 Q-43.05 13.45 -41.35 10.85 -39.85 8.6 -37.35 6.75 -38.3 12.15 -37.85 17.15 L-37.6 19.5 M-37.45 92.95 Q-32.7 92.65 -27.4 94.6 -21.8 96.75 -18.6 101.65 -15.65 106.2 -15.05 112.5 L-15.0 112.65 -17.35 113.45 Q-18.1 109.95 -21.15 106.75 -23.7 104.05 -27.5 101.95 -29.9 99.4 -33.75 97.8 -37.45 96.3 -41.35 96.2 L-37.85 92.9 -37.45 92.95 M-29.4 86.5 Q-23.25 87.2 -16.6 89.4 -1.8 94.1 0.15 103.15 -1.55 105.75 -4.5 107.75 -6.65 109.2 -10.4 110.85 L-13.15 112.0 Q-13.95 105.7 -17.0 100.95 -20.3 95.9 -25.8 93.3 -30.4 91.15 -35.4 90.85 -32.45 88.55 -29.4 86.5 M-36.65 98.95 Q-33.3 99.85 -30.45 101.75 L-29.9 102.15 Q-29.7 102.9 -29.2 103.1 L-28.55 103.45 Q-26.3 105.95 -26.75 109.25 -27.15 112.4 -29.8 115.1 L-30.05 115.55 Q-35.35 115.65 -39.55 114.1 -44.8 112.2 -46.55 108.35 -48.35 104.2 -43.45 98.5 -40.15 98.05 -36.65 98.95 M-25.25 105.45 Q-19.75 109.3 -19.15 113.95 L-26.95 115.4 Q-25.25 113.05 -24.8 110.5 -24.3 107.85 -25.25 105.45 M-6.05 -3.1 L0.05 -8.05 Q-0.2 -1.35 0.3 2.9 L-0.05 2.55 Q-2.35 -0.4 -6.05 -3.1" fill="#ffffff" fill-rule="evenodd" stroke="none"/>
  </g>
</svg>
