<?xml version="1.0" encoding="UTF-8" standalone="no"?>
<svg xmlns:ffdec="https://www.free-decompiler.com/flash" xmlns:xlink="http://www.w3.org/1999/xlink" ffdec:objectType="shape" height="167.85px" width="107.7px" xmlns="http://www.w3.org/2000/svg">
  <g transform="matrix(1.0, 0.0, 0.0, 1.0, 48.0, 45.45)">
    <path d="M36.3 -40.1 Q45.15 -33.9 51.5 -23.05 56.8 -14.0 56.6 -3.45 56.45 6.75 51.2 16.1 L50.85 16.55 49.35 16.95 Q43.8 18.25 39.55 17.05 35.2 15.8 31.45 9.2 L31.3 8.95 32.55 7.6 Q34.7 4.95 35.3 1.75 35.9 -1.4 34.9 -4.6 35.2 -5.25 34.45 -6.0 L34.3 -6.35 Q33.45 -8.35 31.7 -10.75 L28.5 -14.7 Q25.95 -17.7 24.25 -18.7 22.8 -19.5 22.1 -19.25 21.25 -18.85 21.9 -17.9 L17.85 -17.2 14.15 -16.8 10.45 -16.7 Q8.45 -16.6 7.9 -14.8 L7.8 -13.4 7.6 -12.15 Q7.15 -11.55 6.65 -10.15 4.8 -4.8 8.4 -0.2 12.05 4.4 17.5 3.55 L22.0 25.4 Q3.6 27.3 -13.0 23.35 L-8.85 22.6 Q-8.3 22.85 -8.15 22.4 -3.05 21.1 0.05 18.6 3.75 15.65 4.05 11.3 5.75 13.4 11.15 13.95 L18.7 14.15 Q19.65 14.1 19.2 13.05 18.75 12.0 17.95 12.0 L9.9 11.55 7.45 11.2 Q5.85 10.85 5.2 10.2 5.05 10.0 5.2 8.55 L5.35 6.75 5.25 -13.15 11.6 -19.2 Q18.1 -25.8 21.2 -30.95 25.8 -38.65 24.75 -45.3 30.05 -44.5 36.3 -40.1 M13.0 -34.6 Q9.1 -29.5 1.3 -22.55 L-5.55 -16.8 -5.6 -27.35 -5.55 -29.9 Q-5.5 -30.85 -6.75 -32.1 L-8.6 -34.1 -8.65 -34.2 -6.2 -38.65 Q-3.55 -35.2 1.6 -34.7 5.6 -34.3 9.7 -35.7 13.85 -37.2 16.6 -40.05 15.45 -37.8 13.0 -34.6 M15.45 -14.5 L20.1 -15.2 24.75 -16.2 Q27.6 -13.9 31.6 -7.75 L32.55 -6.0 Q29.0 -4.7 23.1 -4.35 L20.35 -4.55 Q19.15 -5.0 18.35 -6.3 L16.1 -10.35 Q15.0 -12.25 13.35 -13.15 11.65 -14.1 9.85 -13.6 10.1 -14.4 11.15 -14.6 L13.3 -14.6 15.45 -14.5 M9.4 -10.65 Q12.05 -13.0 14.65 -9.3 L18.7 -3.35 Q19.8 -2.35 21.7 -2.2 L24.95 -2.3 Q29.75 -2.55 33.25 -3.75 L33.5 -1.15 24.95 0.2 Q24.2 -0.55 23.15 -1.0 L21.2 -1.5 Q19.9 -1.55 18.85 -0.75 17.85 0.0 17.35 1.25 12.3 2.6 9.45 -1.85 6.6 -6.3 9.4 -10.65 M8.15 -19.15 Q0.75 -11.9 -7.65 -6.05 -9.6 -7.3 -12.3 -8.75 -4.8 -14.0 3.35 -21.15 10.5 -27.55 14.85 -33.15 19.95 -39.65 20.25 -44.7 L20.1 -45.25 22.85 -45.45 Q23.9 -38.9 18.5 -30.9 15.3 -26.2 8.15 -19.15 M51.1 18.85 Q52.7 26.55 48.35 28.95 47.0 29.65 45.45 29.75 L45.75 26.05 Q45.7 25.2 44.7 24.85 43.7 24.5 43.75 25.55 43.75 31.9 40.05 32.85 L38.35 32.95 Q39.75 30.45 39.75 27.5 39.8 26.65 38.75 26.3 37.75 25.9 37.75 27.0 37.7 29.8 36.3 31.9 34.7 34.25 32.1 34.55 L31.3 31.4 31.3 31.35 Q32.85 28.0 33.2 25.9 33.75 22.6 32.05 20.45 30.8 18.95 28.75 18.7 L27.4 11.15 Q28.2 10.05 29.7 9.65 31.0 12.2 33.05 14.45 35.2 16.85 37.5 18.1 42.4 20.85 50.95 18.9 L51.1 18.85 M50.55 30.35 L50.75 30.2 Q52.2 35.5 52.65 39.3 53.2 44.4 52.2 48.55 L49.95 57.0 Q48.8 61.85 49.35 65.65 50.1 70.8 53.55 90.75 L53.55 90.85 Q53.0 91.3 53.6 92.25 L53.85 92.55 57.4 112.85 57.3 113.0 Q56.7 113.75 57.75 114.7 L58.65 119.95 Q58.85 121.05 57.0 121.85 55.35 122.5 54.1 122.35 L53.05 122.05 52.35 118.8 52.2 118.15 50.3 108.6 50.2 108.15 46.75 87.3 47.0 86.55 46.5 85.6 44.75 76.1 Q44.95 75.55 44.55 75.1 L44.3 73.7 42.5 65.3 Q42.75 65.0 42.6 64.55 L42.05 63.75 41.4 61.65 Q40.75 59.95 38.6 57.95 L37.65 57.1 36.2 55.75 Q31.0 50.6 28.05 42.0 26.6 37.8 24.1 26.25 L19.2 2.65 Q19.55 1.85 20.0 1.4 20.5 0.75 21.4 0.6 21.75 0.55 23.0 1.15 L23.85 1.25 25.3 10.05 Q24.75 11.0 24.6 12.05 24.55 12.55 25.0 13.05 25.4 13.5 25.9 13.6 L28.1 25.2 Q30.65 38.1 34.55 45.65 36.6 49.55 39.8 53.1 L43.2 56.9 Q44.75 59.0 45.35 61.35 45.6 62.25 46.55 62.35 47.5 62.45 47.25 61.35 46.5 58.45 44.7 56.0 L44.75 55.9 Q48.7 48.0 48.65 42.55 48.6 38.15 46.55 31.85 48.7 31.65 50.55 30.35 M25.95 2.3 L33.2 1.15 Q32.4 4.9 29.45 7.4 28.0 7.65 26.95 8.35 L25.95 2.3 M0.4 1.05 Q-1.9 -1.9 -5.6 -4.6 -1.15 -7.65 3.25 -11.45 3.5 2.35 3.35 6.3 2.55 3.9 0.85 1.65 L0.4 1.05 M3.6 42.95 Q3.0 43.5 3.7 44.35 L4.15 45.0 Q0.0 49.75 -0.25 57.5 -7.25 59.1 -13.7 58.75 -21.25 58.35 -26.15 55.2 -25.15 39.75 -20.4 23.65 L-15.35 23.55 -15.0 24.45 -14.3 25.05 Q2.95 29.5 22.5 27.55 24.65 37.7 26.35 42.5 29.2 50.6 33.9 55.8 L35.9 57.7 Q29.9 61.0 21.4 61.8 19.25 62.05 16.55 61.7 13.75 61.35 12.15 60.55 9.5 48.75 4.95 43.25 4.25 42.4 3.6 42.95 M36.15 35.4 Q37.65 43.7 37.95 47.9 L35.85 44.4 Q34.15 40.95 32.75 36.65 34.65 36.5 36.15 35.4 M29.1 20.8 Q32.7 21.15 30.4 27.55 L29.1 20.8 M20.7 64.0 L20.75 64.05 Q31.8 71.45 42.9 76.1 L44.45 84.6 Q40.85 82.95 37.1 81.6 36.6 81.2 36.15 81.25 L28.9 78.55 21.85 75.45 Q14.9 71.95 9.6 66.4 9.95 63.2 11.65 62.25 14.9 64.0 20.3 64.0 L20.7 64.0 M40.25 63.95 Q35.05 67.6 32.25 68.75 L32.1 68.85 Q28.1 66.7 23.6 63.85 31.25 63.05 37.75 59.35 39.2 60.8 39.65 62.2 L40.25 63.95 M4.55 63.35 Q3.3 67.45 -1.35 70.0 -5.2 72.1 -10.05 72.6 L-11.1 72.7 Q-23.3 65.05 -26.25 57.15 -20.45 60.65 -12.15 60.95 -5.2 61.2 2.45 59.2 3.7 61.1 4.55 63.35 M9.55 68.75 Q13.35 72.35 19.1 75.95 15.0 77.3 11.35 81.5 10.1 75.7 9.75 71.55 L9.55 68.75 M18.45 78.8 L20.65 77.9 21.6 77.6 21.95 77.5 Q25.35 79.15 32.2 81.5 L33.6 82.05 Q19.7 87.0 15.05 95.25 L14.9 94.8 Q13.35 89.8 12.05 84.5 L12.05 84.4 Q14.8 80.7 18.45 78.8 M4.5 86.35 L4.1 88.45 Q2.3 84.9 -1.15 81.7 2.15 80.2 5.65 77.95 L4.5 86.35 M5.8 75.0 Q-8.4 84.85 -21.0 82.2 -23.55 81.65 -26.15 80.3 L-30.85 77.5 -31.0 74.2 -31.0 69.7 -27.9 71.8 Q-21.55 75.3 -10.2 74.8 -5.55 74.6 -1.4 72.7 3.3 70.5 5.45 66.9 6.05 70.45 5.9 75.0 L5.8 75.0 M16.2 98.2 Q19.65 90.1 32.25 85.05 28.1 89.8 25.2 95.75 22.3 101.55 21.0 107.75 18.1 103.5 16.15 98.3 L16.2 98.2 M37.15 83.4 Q41.4 85.1 44.8 86.75 L46.15 94.8 46.1 94.8 Q39.1 96.9 33.55 101.5 27.35 106.7 25.55 113.15 L22.7 110.1 Q24.1 102.6 27.85 95.65 31.7 88.45 37.15 83.4 M42.45 73.9 Q39.0 72.45 34.7 70.25 37.0 69.1 40.9 66.4 L42.45 73.9 M58.35 106.25 L58.15 106.2 56.45 96.35 Q60.1 102.5 59.65 107.45 L58.35 106.25 M50.15 117.5 Q43.95 119.65 38.25 119.05 40.8 111.85 48.6 109.45 L50.15 117.5 M27.4 114.7 Q28.95 108.6 34.75 103.65 39.8 99.3 46.5 97.1 L48.2 107.2 Q38.8 109.65 36.05 118.7 31.25 117.7 27.4 114.7 M0.35 100.4 Q-2.6 93.05 -12.45 88.6 -19.95 85.2 -30.1 84.0 L-30.6 80.05 -30.1 80.05 Q-25.0 83.3 -20.8 84.3 -12.35 86.2 -2.9 82.45 2.35 86.95 3.35 91.7 2.25 96.35 0.35 100.4 M-7.95 -40.3 Q-15.0 -27.7 -21.1 -14.6 L-24.6 -6.65 Q-26.45 -2.1 -27.4 1.6 -28.85 7.4 -28.85 11.55 -28.9 17.3 -26.4 21.05 -31.1 20.35 -35.1 18.85 -36.6 9.85 -33.0 -1.35 -30.5 -9.1 -24.6 -20.1 -18.1 -32.25 -10.45 -42.1 -10.3 -42.25 -10.3 -42.55 L-7.6 -41.1 -7.4 -40.65 Q-7.8 -40.65 -7.95 -40.3 M-12.3 -43.55 Q-18.8 -35.2 -25.1 -23.95 L-26.65 -25.05 Q-25.7 -31.4 -22.8 -36.4 -19.4 -42.2 -14.15 -44.35 -13.65 -44.6 -13.75 -45.05 L-12.05 -43.75 -12.3 -43.55 M-7.6 -30.2 Q-7.8 -20.9 -7.45 -15.25 L-11.7 -12.1 Q-13.75 -16.5 -16.65 -18.55 L-9.55 -32.5 -7.6 -30.2 M-26.0 -22.4 L-28.85 -16.95 Q-31.7 -18.7 -37.4 -18.3 L-33.95 -22.5 Q-32.2 -24.4 -28.55 -23.95 L-26.65 -23.0 -26.2 -22.65 -26.15 -22.6 -26.15 -22.65 -26.0 -22.4 M-38.45 -16.05 Q-32.15 -16.7 -29.65 -15.35 L-32.15 -10.0 -32.65 -10.05 Q-36.65 -8.75 -40.2 -6.1 -43.7 -3.45 -46.2 0.05 -44.6 -7.75 -38.9 -16.15 L-38.45 -16.05 M-20.75 -9.7 Q-19.05 -9.65 -17.25 -9.0 -20.1 -7.7 -22.35 -6.15 L-20.85 -9.75 -20.75 -9.7 M-23.45 -2.4 Q-19.9 -5.35 -14.35 -7.7 -7.9 -4.7 -3.55 -0.7 -7.25 -1.45 -11.2 0.55 -14.95 2.45 -17.8 6.1 -20.65 9.75 -21.5 13.75 -22.45 18.1 -20.7 21.5 L-24.05 21.3 Q-27.3 17.75 -26.95 11.1 -26.7 6.65 -24.75 0.3 L-23.9 -2.25 Q-23.6 -2.25 -23.45 -2.4 M-14.95 -10.0 Q-17.25 -11.25 -19.95 -11.65 L-17.4 -17.0 Q-15.2 -15.5 -13.15 -11.15 L-13.1 -11.1 -14.35 -10.2 -14.55 -10.15 -14.95 -10.0 M-33.25 -7.35 Q-35.2 -2.3 -36.25 2.15 L-36.75 2.25 Q-39.75 4.05 -41.75 6.6 -44.05 9.45 -44.55 12.5 -46.65 9.65 -46.8 5.75 -44.85 1.4 -41.25 -2.05 -37.7 -5.5 -33.25 -7.35 M-0.7 2.4 Q1.8 5.8 2.05 9.15 2.75 17.55 -9.15 20.4 -13.0 17.95 -14.45 14.05 -16.0 9.95 -14.25 5.85 L-13.7 5.3 Q-11.05 2.75 -7.55 1.7 -3.55 0.55 -0.7 2.4 M-19.65 15.75 Q-19.1 12.9 -17.2 9.7 -17.15 12.85 -15.6 15.8 -14.1 18.65 -11.45 20.85 L-18.75 21.5 Q-20.3 19.2 -19.65 15.75 M-40.15 16.45 L-42.7 14.6 Q-42.65 11.95 -40.9 9.35 -39.4 7.1 -36.9 5.25 -38.1 11.95 -37.15 18.0 L-40.15 16.45 M-41.6 95.0 L-38.8 92.4 -38.45 92.45 Q-33.7 92.15 -28.4 94.1 -22.75 96.25 -19.55 101.15 -16.6 105.7 -16.05 112.0 L-16.0 112.15 -18.3 112.95 Q-19.05 109.45 -22.1 106.25 -24.65 103.6 -28.45 101.45 -30.9 98.9 -34.75 97.3 -38.5 95.8 -42.35 95.7 L-41.6 95.0 M-30.8 67.25 Q-30.2 61.5 -27.65 58.4 -24.35 65.85 -14.1 72.8 -21.2 72.8 -26.75 70.35 -29.9 68.95 -30.65 67.5 L-30.8 67.25 M-36.35 90.35 Q-33.8 88.3 -30.35 86.0 -24.25 86.7 -17.6 88.9 -2.8 93.6 -0.85 102.6 -2.55 105.35 -5.8 107.45 -8.0 108.9 -12.1 110.65 L-14.15 111.5 Q-14.95 105.2 -18.0 100.45 -21.3 95.4 -26.8 92.8 -31.4 90.65 -36.35 90.35 M-37.65 98.45 Q-34.3 99.35 -31.45 101.25 L-30.9 101.65 Q-30.7 102.4 -30.15 102.6 -29.8 102.8 -29.5 102.95 -27.3 105.5 -27.75 108.75 -28.15 111.9 -30.8 114.6 L-31.0 115.1 Q-36.25 115.15 -40.5 113.6 -45.8 111.7 -47.5 107.85 -49.3 103.75 -44.45 98.0 L-37.65 98.45 M-26.25 104.95 Q-20.75 108.8 -20.15 113.45 L-27.95 114.9 Q-26.25 112.55 -25.75 110.0 -25.3 107.4 -26.25 104.95" fill="#ffffff" fill-rule="evenodd" stroke="none"/>
  </g>
</svg>
