<?xml version="1.0" encoding="UTF-8" standalone="no"?>
<svg xmlns:ffdec="https://www.free-decompiler.com/flash" xmlns:xlink="http://www.w3.org/1999/xlink" ffdec:objectType="shape" height="166.8px" width="108.9px" xmlns="http://www.w3.org/2000/svg">
  <g transform="matrix(1.0, 0.0, 0.0, 1.0, 45.6, 44.6)">
    <path d="M37.4 -39.15 Q46.5 -33.25 52.25 -23.35 58.4 -12.85 55.9 -1.85 54.1 5.85 47.95 13.2 L45.1 16.25 44.1 16.7 42.55 16.85 Q38.2 17.35 34.4 16.25 31.75 15.45 29.45 12.65 27.6 10.4 26.25 7.35 L26.1 6.95 26.1 6.85 26.75 6.35 Q28.9 4.5 30.25 1.8 32.05 -1.75 31.05 -6.15 31.6 -6.65 30.65 -7.6 29.8 -10.3 27.15 -14.7 L24.15 -19.3 Q21.6 -22.55 19.7 -22.05 18.85 -21.75 19.5 -20.75 L15.55 -20.45 12.65 -20.45 Q18.8 -27.05 22.35 -32.55 26.7 -39.25 26.25 -44.05 31.4 -43.0 37.4 -39.15 M20.5 -34.0 Q17.0 -28.4 9.6 -20.65 L9.6 -20.6 8.3 -20.7 Q5.9 -20.85 5.0 -18.75 L4.85 -17.6 4.65 -16.6 4.5 -16.4 3.55 -14.75 3.4 -14.5 Q-1.85 -9.5 -6.5 -5.6 -8.95 -7.2 -11.2 -8.3 L-4.5 -13.7 Q-4.0 -13.7 -3.95 -14.2 -0.3 -17.25 4.95 -22.05 12.15 -28.75 16.65 -34.3 18.9 -37.15 19.95 -38.95 21.6 -41.8 21.75 -44.25 L21.75 -44.35 24.25 -44.3 Q24.4 -41.85 23.2 -38.9 22.4 -37.0 20.5 -34.0 M10.65 -35.15 Q14.7 -36.55 17.45 -39.25 L14.0 -34.8 Q9.75 -29.7 2.4 -23.0 L-4.05 -17.3 -4.35 -27.0 -4.35 -29.65 Q-4.4 -30.5 -5.65 -31.7 L-7.4 -33.65 -7.45 -33.75 -5.05 -38.2 Q-2.3 -34.75 2.8 -34.25 6.65 -33.85 10.65 -35.15 M10.15 -17.2 Q8.7 -18.0 7.05 -17.7 7.3 -18.25 8.0 -18.55 8.65 -18.8 10.1 -18.55 L12.2 -18.15 Q14.2 -17.95 17.15 -18.25 L22.1 -18.8 22.25 -18.65 Q26.65 -13.85 28.8 -7.8 23.75 -6.45 17.45 -7.25 15.6 -7.5 14.3 -10.3 L12.5 -14.75 Q11.7 -16.4 10.15 -17.2 M5.2 -12.85 L5.4 -13.45 6.3 -14.9 Q9.25 -17.05 11.4 -13.0 L13.05 -9.4 Q14.0 -7.3 14.85 -6.6 16.05 -5.6 17.75 -5.25 L21.0 -4.95 29.35 -5.55 Q29.5 -4.1 29.3 -2.85 L20.65 -2.4 Q19.35 -3.9 17.1 -4.5 15.85 -4.85 14.65 -4.05 13.55 -3.4 12.9 -2.15 L9.5 -2.4 Q7.6 -2.95 6.4 -4.2 4.95 -5.75 4.6 -8.25 4.3 -10.65 5.15 -12.85 L5.2 -12.85 M4.35 -4.35 L4.15 -3.75 4.4 2.5 4.3 6.15 Q3.55 4.2 2.05 2.1 L1.6 1.5 Q-0.8 -1.55 -4.5 -4.2 L2.5 -10.35 Q2.5 -7.15 4.35 -4.35 M19.4 -1.25 L19.9 7.45 Q19.2 8.4 19.0 9.4 18.9 9.85 19.3 10.35 L20.15 10.95 21.2 23.55 Q22.5 36.6 25.65 44.25 27.1 47.8 29.95 51.75 L32.85 55.8 Q34.15 57.95 34.5 60.35 34.6 61.2 35.65 61.55 36.65 61.9 36.5 60.85 36.0 57.6 34.5 55.1 L34.65 54.9 Q36.95 51.25 38.1 48.55 39.7 44.8 39.85 41.55 40.1 37.25 38.85 31.25 41.0 31.25 42.85 30.25 L43.15 30.05 Q44.05 35.45 44.1 39.3 44.1 44.35 42.75 48.35 L40.7 53.55 Q39.45 56.7 38.85 58.7 38.6 59.0 38.7 59.4 37.9 62.25 38.05 65.05 L38.2 68.15 Q38.05 68.55 38.2 68.9 38.5 75.0 38.95 81.05 38.35 81.15 38.4 81.85 38.45 82.6 39.1 82.95 L40.2 99.4 Q39.65 99.85 40.3 100.7 L41.3 114.7 Q41.0 115.1 41.35 115.7 L41.65 119.8 Q41.45 120.05 41.6 120.55 41.35 121.55 39.65 121.95 L37.05 122.15 35.95 121.75 35.8 120.4 34.8 110.7 34.6 107.7 34.55 107.4 33.5 90.0 32.25 72.55 31.8 67.85 31.85 67.75 Q31.95 67.3 31.7 67.0 31.3 63.35 30.6 60.25 30.2 58.7 28.55 56.75 L25.85 53.7 Q21.35 48.1 19.3 39.2 18.4 35.15 17.1 23.25 L14.7 -0.6 15.8 -2.0 Q16.45 -2.6 17.9 -2.3 19.35 -2.05 19.4 -1.25 M28.75 -0.65 Q27.5 3.0 24.35 5.2 22.85 5.3 21.8 5.85 L21.45 -0.3 28.75 -0.65 M41.15 28.5 Q39.8 29.15 37.95 29.15 38.5 27.55 38.65 25.6 38.75 24.8 37.75 24.2 36.7 23.6 36.65 24.55 36.05 31.15 32.25 31.65 L30.55 31.55 Q32.25 29.35 32.55 26.35 32.65 25.55 31.65 25.0 30.65 24.4 30.55 25.35 30.25 28.2 28.65 30.2 26.9 32.4 24.25 32.5 L23.75 29.2 23.8 29.1 Q25.65 25.95 26.25 23.85 27.1 20.55 25.5 18.35 24.4 16.9 22.55 16.4 L21.95 8.65 Q22.9 7.65 24.35 7.4 25.5 10.45 27.65 13.1 29.85 15.85 32.45 17.4 36.8 20.0 44.65 18.8 45.4 26.45 41.15 28.5 M13.95 11.8 L10.75 11.85 7.75 11.45 Q6.75 11.2 6.55 10.45 6.45 10.15 6.5 8.7 L6.25 -2.3 Q9.05 0.2 12.8 0.05 L13.95 11.8 M3.25 9.6 Q3.95 18.0 -8.0 20.85 -11.8 18.4 -13.25 14.5 -14.8 10.4 -13.1 6.3 L-12.5 5.75 Q-9.85 3.2 -6.35 2.15 -2.35 1.0 0.5 2.85 2.9 6.15 3.25 9.6 M14.2 14.0 L15.5 26.25 Q1.1 27.1 -9.6 23.45 L-7.7 23.05 Q-7.2 23.25 -6.95 22.85 -2.0 21.6 1.1 19.2 4.75 16.3 5.2 12.15 7.1 14.4 14.2 14.0 M18.05 41.6 Q19.95 48.7 23.65 53.65 L26.55 56.9 Q28.35 58.95 28.75 60.55 L28.95 61.5 Q23.3 62.5 18.9 61.6 L16.25 60.8 15.9 60.6 Q13.65 52.6 10.05 47.75 10.15 47.25 9.75 46.7 9.3 46.15 8.8 46.1 L7.1 44.35 5.9 44.4 Q5.55 45.25 6.3 45.9 L7.6 47.25 Q5.9 49.45 5.1 52.35 4.3 55.1 4.5 58.0 -2.55 59.55 -8.95 59.2 -16.5 58.8 -21.35 55.65 -20.35 40.25 -15.6 24.05 L-15.0 24.05 -10.45 23.6 Q-10.65 24.0 -10.35 24.65 L-9.5 25.5 Q1.3 29.2 15.7 28.4 16.7 36.7 18.05 41.6 M36.95 31.3 Q38.05 36.9 37.8 41.3 37.6 45.9 33.05 53.0 28.55 46.9 27.0 42.8 25.55 39.1 24.65 34.6 27.1 34.65 29.1 33.1 31.3 34.05 33.45 33.7 35.6 33.3 36.95 31.3 M23.25 25.1 L22.7 18.45 Q25.95 19.05 23.25 25.1 M29.9 67.65 L30.8 77.95 Q20.45 74.15 13.25 66.4 13.7 63.35 15.4 62.4 18.95 64.35 24.5 64.2 L29.9 67.65 M27.3 64.0 L29.4 63.7 29.65 65.45 27.3 64.0 M40.25 69.5 L49.2 63.5 Q50.65 66.45 51.5 68.85 52.8 72.4 53.45 76.95 47.95 75.25 40.35 71.5 L40.25 69.5 M3.45 70.45 Q-0.4 72.55 -5.25 73.05 L-6.3 73.15 Q-18.55 65.45 -21.45 57.6 -15.65 61.1 -7.4 61.4 -0.4 61.65 7.25 59.65 8.55 61.65 9.3 63.8 8.05 67.95 3.45 70.45 M10.25 67.35 Q10.9 71.05 10.65 75.45 L10.6 75.45 Q-3.65 85.35 -16.25 82.65 -18.8 82.1 -21.4 80.75 L-26.05 77.95 -26.2 74.65 -26.2 70.15 Q-25.05 71.2 -23.1 72.25 -16.75 75.75 -5.45 75.25 -0.75 75.05 3.4 73.15 8.1 71.0 10.25 67.35 M14.15 76.95 Q13.15 71.25 13.1 68.7 17.55 73.05 22.8 76.1 18.65 77.5 15.05 81.6 L14.15 76.95 M8.85 88.9 Q7.1 85.35 3.65 82.15 6.95 80.65 10.45 78.4 10.15 82.15 9.25 86.8 L8.85 88.9 M19.75 98.35 Q22.45 92.35 31.45 87.5 L31.65 91.15 Q26.45 99.2 24.5 107.9 22.15 104.35 20.3 99.9 L19.75 98.4 19.75 98.35 M17.5 91.4 L15.7 84.55 Q18.55 80.8 22.1 79.0 23.1 78.45 24.35 78.05 L25.3 77.8 25.6 77.65 Q28.35 79.05 30.95 80.0 L31.3 84.95 Q22.0 89.65 18.7 95.4 L17.5 91.4 M8.15 92.15 Q6.9 97.15 5.15 100.85 2.2 93.5 -7.65 89.05 -15.15 85.65 -25.3 84.45 L-25.85 80.5 -25.3 80.5 Q-20.2 83.75 -16.0 84.75 -7.6 86.7 1.9 82.9 7.15 87.4 8.15 92.15 M44.1 54.45 L43.95 54.6 43.35 55.5 41.65 57.05 44.05 51.05 44.1 54.45 M48.05 61.35 L40.15 66.8 Q40.05 63.2 40.65 60.4 44.1 58.7 45.35 56.9 L48.05 61.35 M54.7 88.55 Q49.6 85.2 41.0 81.75 L40.5 73.55 Q48.0 77.3 53.75 79.05 L54.55 86.9 54.7 88.55 M56.35 91.5 L58.35 94.05 Q50.95 93.3 42.1 98.3 L41.1 83.8 Q50.3 87.45 55.55 91.2 L56.35 91.5 M59.8 96.3 Q62.55 100.75 63.2 105.3 L63.25 107.85 Q62.3 106.5 60.6 106.3 L57.45 106.5 Q52.3 107.35 49.6 108.3 45.6 109.75 43.1 112.4 L42.3 100.9 Q46.45 98.35 50.7 97.1 55.7 95.6 59.8 96.3 M62.4 110.9 Q60.4 115.2 54.45 117.6 49.35 119.65 43.6 119.65 L43.35 115.85 Q47.0 110.45 55.4 109.05 L60.2 108.3 Q61.35 108.1 61.95 109.1 62.4 109.85 62.4 110.9 M30.9 115.0 Q31.5 112.9 32.85 110.55 L33.4 116.75 30.9 115.0 M29.05 113.4 L26.2 110.25 Q27.7 102.55 31.9 95.25 L32.55 106.65 Q30.1 110.1 29.05 113.4 M-6.2 -40.2 Q-6.6 -40.2 -6.8 -39.85 -13.95 -26.95 -19.9 -14.15 -24.75 -3.75 -26.2 2.05 -27.65 7.8 -27.7 12.0 -27.75 17.75 -25.25 21.5 -29.95 20.8 -33.9 19.3 -35.45 10.3 -31.8 -0.9 -29.3 -8.6 -23.4 -19.65 -16.9 -31.8 -9.25 -41.65 -9.05 -41.85 -9.15 -42.1 L-6.4 -40.65 -6.2 -40.2 M-11.1 -43.1 Q-17.8 -34.55 -23.95 -23.5 L-25.45 -24.6 Q-24.5 -30.95 -21.6 -35.95 -18.25 -41.75 -13.0 -43.9 -12.55 -44.1 -12.55 -44.6 L-10.9 -43.3 -11.1 -43.1 M-6.35 -27.5 L-5.95 -15.65 -10.6 -11.85 Q-12.65 -16.15 -15.45 -18.1 -12.3 -24.7 -8.35 -32.1 -6.4 -29.55 -6.4 -30.2 L-6.35 -27.5 M-25.45 -22.55 L-25.0 -22.2 -24.95 -22.15 -24.95 -22.2 -24.8 -21.95 -27.7 -16.5 Q-30.5 -18.25 -36.2 -17.85 L-32.75 -22.05 Q-31.0 -23.95 -27.4 -23.5 L-25.45 -22.55 M-37.3 -15.6 Q-30.95 -16.25 -28.5 -14.9 L-30.95 -9.55 -31.45 -9.6 Q-35.45 -8.3 -39.05 -5.65 -42.55 -3.0 -45.05 0.5 -43.35 -7.45 -37.75 -15.7 L-37.3 -15.6 M-32.05 -6.9 Q-33.95 -2.0 -35.1 2.6 L-35.6 2.7 Q-38.6 4.5 -40.6 7.05 -42.9 9.9 -43.4 12.95 -45.45 10.05 -45.6 6.2 -43.65 1.85 -40.05 -1.6 -36.5 -5.05 -32.05 -6.9 M-22.25 -1.95 Q-18.6 -5.0 -13.15 -7.25 -6.7 -4.25 -2.35 -0.25 -6.05 -1.0 -10.0 1.0 -13.75 2.9 -16.6 6.55 -19.45 10.2 -20.3 14.2 -21.25 18.55 -19.5 21.95 L-22.9 21.75 Q-26.1 18.2 -25.75 11.55 -25.5 7.1 -23.55 0.75 L-22.7 -1.8 -22.25 -1.95 M-13.8 -9.55 Q-16.0 -10.8 -18.75 -11.2 L-16.25 -16.55 Q-13.9 -14.95 -12.0 -10.75 L-13.25 -9.75 -13.35 -9.7 -13.8 -9.55 M-19.55 -9.25 L-16.05 -8.55 Q-18.85 -7.3 -21.2 -5.7 L-19.65 -9.3 -19.55 -9.25 M-17.55 21.95 Q-19.1 19.6 -18.45 16.2 -17.95 13.3 -16.0 10.15 -15.95 13.3 -14.4 16.25 -12.9 19.1 -10.25 21.3 L-17.55 21.95 M-35.7 5.7 Q-36.9 12.6 -35.95 18.45 L-38.95 16.9 -41.5 15.05 Q-41.45 12.4 -39.7 9.8 -38.2 7.55 -35.7 5.7 M-22.9 58.85 Q-19.55 66.35 -9.3 73.25 -16.4 73.25 -21.95 70.8 -25.1 69.4 -25.85 67.95 L-26.05 67.7 Q-25.35 61.95 -22.9 58.85 M-32.85 98.9 Q-29.5 99.8 -26.65 101.7 L-26.1 102.1 Q-25.9 102.85 -25.35 103.05 L-24.75 103.4 Q-22.5 105.9 -22.95 109.2 -23.35 112.35 -26.0 115.05 L-26.2 115.55 Q-31.45 115.6 -35.7 114.05 -41.0 112.15 -42.75 108.3 -44.55 104.15 -39.65 98.45 L-32.85 98.9 M-34.05 92.85 L-33.65 92.9 Q-28.9 92.6 -23.6 94.55 -18.0 96.7 -14.8 101.6 -11.85 106.15 -11.25 112.45 L-11.2 112.6 -13.55 113.4 Q-14.3 109.9 -17.35 106.7 -19.9 104.0 -23.7 101.9 -26.1 99.35 -29.95 97.75 -33.65 96.25 -37.55 96.15 L-34.05 92.85 M-25.55 86.45 Q-19.45 87.15 -12.8 89.35 2.0 94.05 3.95 103.05 2.25 105.8 -1.0 107.9 -3.2 109.35 -7.3 111.1 L-9.35 111.95 Q-10.15 105.65 -13.2 100.9 -16.5 95.85 -22.0 93.25 -26.6 91.1 -31.6 90.8 L-25.55 86.45 M-21.45 105.4 Q-15.95 109.25 -15.35 113.9 L-23.15 115.35 Q-21.45 113.0 -20.95 110.45 -20.5 107.85 -21.45 105.4" fill="#ffffff" fill-rule="evenodd" stroke="none"/>
  </g>
</svg>
