<?xml version="1.0" encoding="UTF-8" standalone="no"?>
<svg xmlns:ffdec="https://www.free-decompiler.com/flash" xmlns:xlink="http://www.w3.org/1999/xlink" ffdec:objectType="shape" height="163.6px" width="121.55px" xmlns="http://www.w3.org/2000/svg">
  <g transform="matrix(1.0, 0.0, 0.0, 1.0, 45.8, 44.7)">
    <path d="M40.45 -35.75 Q46.15 -28.25 48.55 -16.6 51.05 -4.9 48.2 3.4 46.5 8.55 42.65 13.1 39.1 17.45 34.25 20.55 L33.85 20.8 33.25 20.7 27.25 19.6 Q23.35 18.45 20.8 14.85 18.45 11.55 17.95 7.25 21.45 6.8 23.1 1.35 24.2 -2.25 24.25 -6.75 24.35 -11.25 23.25 -14.55 21.8 -19.15 18.35 -20.4 17.75 -20.65 17.6 -20.25 17.5 -19.9 17.7 -19.35 L12.8 -20.25 11.8 -20.45 Q18.7 -27.4 21.45 -31.4 26.3 -38.6 25.4 -44.65 L26.15 -44.7 Q33.8 -44.5 40.45 -35.75 M23.45 -44.45 Q23.8 -40.0 19.95 -33.95 18.0 -30.8 14.95 -27.3 L9.25 -21.3 Q6.45 -22.25 6.2 -22.35 4.95 -22.65 3.85 -21.9 10.1 -27.8 14.6 -33.35 19.3 -39.15 20.45 -43.1 21.55 -44.0 23.45 -44.45 M12.25 -34.2 Q8.1 -29.2 1.25 -22.7 L-4.8 -17.1 -4.65 -27.6 -4.55 -29.6 Q-4.65 -30.45 -5.85 -31.65 L-7.55 -33.55 -7.65 -33.65 -5.2 -38.1 Q-2.45 -34.65 2.6 -34.15 8.95 -33.5 14.4 -36.95 L12.25 -34.2 M20.1 -16.9 L20.5 -16.35 Q22.7 -12.9 22.15 -5.45 L22.05 -4.75 Q17.65 -4.6 12.25 -6.8 10.55 -7.5 10.1 -10.6 L9.5 -15.35 Q8.95 -17.15 7.75 -18.25 6.5 -19.4 4.9 -19.6 L5.1 -19.85 7.35 -20.0 9.7 -18.95 Q11.65 -18.2 14.75 -17.7 L19.95 -16.9 20.1 -16.9 M1.65 -18.7 L0.1 -17.0 Q-1.9 -14.35 -1.9 -11.15 L-2.4 -10.95 -6.75 -5.55 Q-8.7 -6.8 -11.4 -8.25 -3.75 -14.5 3.15 -21.2 L2.65 -20.5 Q2.25 -19.2 1.65 -18.7 M3.5 -17.15 Q6.8 -18.45 7.75 -14.25 L8.3 -10.6 Q8.65 -8.45 9.15 -7.6 10.65 -5.0 14.65 -3.7 17.8 -2.65 21.75 -2.6 21.5 -0.85 21.05 0.35 L14.2 -1.25 Q13.35 -3.0 11.2 -4.25 L8.65 -4.45 Q7.4 -4.05 6.45 -3.05 1.3 -3.55 0.45 -8.75 -0.4 -13.8 3.4 -17.05 L3.5 -17.15 M5.75 -1.15 L4.1 6.1 Q3.3 4.1 1.85 2.2 L1.4 1.6 Q-0.95 -1.45 -4.8 -4.2 L-1.5 -8.3 Q-0.75 -5.7 1.1 -3.8 3.05 -1.8 5.75 -1.15 M8.85 -2.0 Q9.55 -2.45 10.35 -2.45 10.1 -2.4 11.3 -1.7 L12.55 -0.7 9.45 15.0 Q9.25 15.2 9.35 15.6 L8.0 23.15 7.55 26.1 Q7.2 26.5 7.45 27.0 5.95 37.25 6.9 44.6 7.35 48.7 9.3 53.6 L11.0 58.1 Q11.65 60.45 11.35 62.8 11.25 63.65 12.25 64.2 13.25 64.8 13.35 63.8 13.75 60.85 12.85 57.7 L13.05 57.6 Q16.2 54.65 18.0 52.35 20.45 49.2 21.45 46.15 22.95 41.75 23.2 35.4 23.25 34.6 22.25 34.0 21.25 33.45 21.2 34.4 21.05 39.3 19.75 44.2 18.4 49.35 11.95 55.3 L11.9 55.2 Q9.3 48.9 8.7 43.5 8.25 38.75 8.75 33.4 11.0 33.95 13.2 33.05 15.2 34.55 17.3 34.7 19.65 34.9 21.5 33.15 24.3 34.45 27.05 33.85 L27.7 33.65 27.65 33.7 Q27.1 40.05 26.3 43.75 25.1 49.3 22.6 53.05 L17.35 60.25 Q14.45 64.5 13.6 68.2 12.05 75.5 10.75 82.75 L10.65 83.15 6.0 109.35 Q5.7 109.65 5.85 110.35 L5.05 114.95 2.45 115.6 Q1.25 115.8 -0.1 114.95 L-0.55 114.6 Q-0.35 114.15 -0.7 113.6 L-0.5 110.35 0.0 106.65 Q0.35 106.45 0.15 105.8 L1.55 98.7 3.1 91.6 Q5.35 80.45 7.0 69.35 L7.7 63.65 Q7.85 60.5 6.7 58.15 4.35 53.2 3.3 48.95 2.15 44.2 2.25 39.15 2.45 28.6 4.15 16.95 4.25 16.5 3.8 16.0 5.15 13.65 5.1 10.75 L5.05 9.95 Q5.6 10.05 5.65 9.4 6.6 4.35 8.0 -1.2 L8.85 -2.0 M52.6 42.1 L53.25 48.45 53.25 51.15 Q53.2 52.85 53.4 53.8 52.45 55.95 49.25 57.75 47.55 58.75 44.05 60.05 32.15 64.7 25.8 61.65 24.95 58.25 23.55 55.75 26.4 51.7 27.4 48.35 29.05 42.55 29.65 34.7 29.75 33.8 28.65 33.3 33.05 31.1 34.0 22.8 L34.65 22.85 Q35.65 22.9 37.3 21.55 L39.55 19.55 Q42.75 16.9 45.35 13.5 50.5 25.7 52.6 42.1 M31.9 22.6 Q30.85 30.5 26.15 31.75 L22.75 31.65 24.45 28.25 Q24.7 27.5 23.8 26.75 L22.6 26.8 Q20.3 33.1 16.55 32.6 L14.95 32.05 Q17.15 30.4 18.35 27.45 18.65 26.7 17.75 25.95 L16.5 26.0 Q15.45 28.6 13.55 30.1 11.4 31.8 8.95 31.4 L9.45 27.6 Q11.95 25.1 12.95 23.3 14.55 20.45 13.6 18.05 13.0 16.55 11.5 15.6 L12.1 12.45 12.75 11.3 Q14.05 9.65 16.55 9.75 17.35 12.7 18.9 15.2 20.55 17.85 22.7 19.4 26.1 21.9 31.9 22.6 M15.8 7.65 Q14.3 7.6 12.95 8.2 L14.45 0.8 20.35 2.2 Q18.85 5.2 16.5 5.2 16.2 5.15 16.0 5.45 L15.9 6.0 16.1 7.75 15.8 7.65 M3.05 9.7 Q3.75 18.1 -8.15 20.95 -12.0 18.5 -13.45 14.6 -14.95 10.55 -13.25 6.4 L-12.7 5.85 Q-10.0 3.25 -6.55 2.25 -2.55 1.1 0.3 2.95 2.8 6.35 3.05 9.7 M1.3 24.15 Q-3.15 23.8 -6.15 22.7 -1.0 21.15 1.85 18.45 L1.3 24.15 M11.8 18.35 Q12.6 20.3 10.1 23.4 L11.15 17.55 11.8 18.35 M0.55 33.3 Q-0.35 44.2 1.85 51.4 L3.75 55.55 Q5.15 58.25 5.55 59.7 -3.9 60.15 -10.1 57.6 -10.55 53.1 -10.15 47.3 L-9.2 37.1 -7.55 24.1 Q-4.2 25.65 1.1 26.2 L0.55 33.3 M23.65 70.0 Q27.9 73.7 33.5 76.65 29.5 78.25 26.15 82.65 24.4 76.4 23.85 71.75 L23.65 70.0 M34.75 64.85 Q51.0 74.45 64.5 77.7 L65.2 81.15 66.15 87.2 Q61.25 84.35 54.5 81.95 50.2 80.4 42.3 78.2 37.2 76.8 32.3 74.05 27.4 71.3 23.55 67.65 23.75 64.4 25.35 63.4 29.05 65.35 34.65 64.75 L34.75 64.85 M4.25 73.05 L3.9 75.15 3.85 75.15 Q-1.5 72.1 -5.25 68.45 -9.9 63.9 -11.4 59.0 L-10.0 59.55 Q-3.2 62.1 5.8 61.85 L5.45 64.9 4.25 73.05 M19.3 61.45 L20.25 64.5 Q19.3 67.95 15.25 71.1 16.6 65.45 19.3 61.45 M12.7 84.4 Q16.6 83.2 20.35 81.55 L19.65 86.15 18.4 92.05 Q16.65 88.2 12.65 84.65 L12.7 84.4 M14.55 74.4 Q18.75 72.0 20.95 68.45 21.35 73.15 20.7 78.85 L13.15 81.8 14.55 74.4 M2.35 84.1 L-7.2 83.45 Q-12.65 82.25 -15.5 79.15 L-16.1 78.75 Q-16.6 71.15 -15.0 65.05 -14.35 62.6 -12.8 60.45 -9.6 68.6 0.8 75.35 -6.65 75.55 -11.2 72.9 -13.4 71.65 -13.8 69.95 -14.0 69.0 -14.95 68.95 -15.95 68.85 -15.7 69.95 -15.2 72.25 -12.1 74.4 -6.8 78.05 3.55 77.35 L2.35 84.1 M0.85 92.05 L-1.4 102.6 Q-4.5 97.35 -9.9 94.3 -15.25 91.3 -21.4 91.2 L-15.65 86.65 Q-7.25 87.25 1.15 90.3 L0.85 92.05 M12.3 86.6 Q16.65 90.6 17.5 95.05 16.8 97.45 15.7 99.9 L15.65 100.0 Q14.15 96.6 10.95 93.8 L12.3 86.6 M1.5 88.45 Q-6.7 85.4 -15.4 84.65 L-15.9 81.15 Q-12.65 84.05 -7.5 85.35 -3.2 86.4 1.95 86.25 L1.5 88.45 M38.5 78.95 L48.0 82.1 Q34.6 87.8 30.6 96.2 L29.85 94.25 27.0 85.5 Q28.75 82.85 31.0 80.95 33.6 78.8 36.35 78.2 L36.55 78.1 38.5 78.95 M56.45 58.25 L57.9 60.45 52.4 65.0 Q49.15 67.5 46.4 68.75 L46.1 68.95 37.4 64.35 Q40.65 63.7 44.3 62.45 52.45 59.7 54.75 56.2 L56.45 58.25 M59.1 62.55 Q62.25 68.2 64.0 75.6 56.5 73.75 48.75 70.2 52.55 68.15 59.1 62.55 M51.85 83.3 Q61.65 86.25 67.1 89.75 67.55 90.05 67.9 89.95 L70.0 92.4 Q61.15 92.05 52.6 98.45 43.9 104.9 42.05 113.5 L39.0 110.5 Q40.05 103.0 43.35 95.9 46.75 88.6 51.85 83.3 M40.75 96.1 Q38.2 102.05 37.2 108.3 34.15 104.3 31.8 99.15 L31.85 99.1 Q34.85 90.9 47.2 85.05 43.35 90.05 40.75 96.1 M73.4 97.4 Q75.95 101.9 75.75 105.9 L74.9 105.1 Q73.65 104.1 71.25 104.5 L67.5 105.45 Q55.25 108.1 52.8 118.65 48.25 117.95 43.95 114.95 45.25 108.7 51.15 103.0 55.1 99.1 60.6 96.7 66.6 94.05 71.65 94.6 L73.4 97.4 M74.4 110.65 Q72.25 114.35 66.95 116.6 62.7 118.4 57.55 118.85 L54.95 118.9 Q57.2 110.95 65.65 108.25 L71.25 106.95 Q74.9 106.1 75.15 109.0 L74.4 110.65 M8.45 107.9 L10.6 95.75 Q13.5 98.6 14.5 102.1 12.45 105.45 8.45 107.9 M-6.95 -39.75 Q-14.4 -26.3 -20.1 -14.05 L-23.6 -6.1 Q-25.4 -1.6 -26.35 2.15 -27.8 7.9 -27.85 12.1 -27.9 17.85 -25.4 21.6 -30.2 20.85 -34.1 19.4 -35.6 10.4 -32.0 -0.8 -29.5 -8.55 -23.6 -19.55 -17.0 -31.75 -9.45 -41.55 -9.3 -41.65 -9.3 -42.0 L-6.6 -40.55 -6.35 -40.1 Q-6.75 -40.1 -6.95 -39.75 M-11.3 -43.0 Q-18.0 -34.35 -24.1 -23.4 L-25.6 -24.5 Q-24.65 -30.85 -21.75 -35.85 -18.4 -41.65 -13.15 -43.8 -12.7 -44.0 -12.7 -44.5 L-11.05 -43.2 -11.3 -43.0 M-6.6 -29.7 Q-7.05 -22.4 -6.7 -15.55 L-6.65 -15.4 -10.8 -11.85 Q-12.9 -16.15 -15.65 -18.0 L-8.55 -31.95 -6.6 -29.7 M-25.6 -22.45 L-25.2 -22.1 -25.1 -22.05 -24.95 -21.85 -27.85 -16.4 Q-30.7 -18.15 -36.35 -17.75 L-32.95 -21.95 Q-31.2 -23.85 -27.55 -23.4 L-25.6 -22.45 M-37.45 -15.5 Q-31.15 -16.15 -28.65 -14.8 L-31.1 -9.45 -31.65 -9.5 Q-35.65 -8.2 -39.2 -5.55 -42.7 -2.9 -45.2 0.6 -43.5 -7.35 -37.9 -15.6 L-37.45 -15.5 M-32.2 -6.8 Q-34.15 -1.9 -35.25 2.7 L-35.75 2.8 Q-38.75 4.6 -40.75 7.15 -43.05 10.0 -43.55 13.05 -45.55 10.3 -45.8 6.3 -43.85 1.95 -40.25 -1.5 -36.65 -4.95 -32.2 -6.8 M-22.4 -1.85 Q-18.75 -4.9 -13.3 -7.15 -6.85 -4.15 -2.5 -0.15 -6.2 -0.9 -10.2 1.1 -13.9 3.0 -16.8 6.65 -19.65 10.3 -20.5 14.3 -21.45 18.65 -19.7 22.05 L-23.05 21.85 Q-28.45 15.9 -23.7 0.85 L-22.85 -1.7 -22.4 -1.85 M-13.95 -9.45 Q-16.15 -10.7 -18.95 -11.1 L-16.4 -16.45 Q-14.05 -14.8 -12.2 -10.7 L-13.5 -9.6 -13.95 -9.45 M-16.2 -8.45 Q-18.8 -7.3 -21.35 -5.6 L-19.8 -9.2 -19.75 -9.15 Q-18.0 -9.1 -16.2 -8.45 M-10.4 21.4 L-17.75 22.05 Q-19.3 19.7 -18.65 16.3 -18.1 13.45 -16.15 10.25 -16.1 13.4 -14.55 16.35 -13.05 19.2 -10.4 21.4 M-39.15 17.0 L-41.65 15.15 Q-41.6 12.5 -39.9 9.9 -38.4 7.65 -35.9 5.8 -37.1 12.5 -36.15 18.55 L-39.15 17.0 M-24.45 93.9 L-23.8 93.35 -23.5 93.4 Q-16.6 92.7 -10.7 95.9 -4.55 99.2 -1.95 105.45 L-2.6 110.45 -2.75 112.55 Q-3.8 109.2 -6.85 106.3 -9.5 103.85 -13.2 102.0 -15.75 99.5 -19.65 98.1 -23.4 96.75 -27.3 96.8 L-24.45 93.9 M-12.15 109.35 Q-12.5 112.45 -14.95 115.15 L-15.15 115.65 -21.55 115.3 Q-26.15 114.55 -29.25 112.15 -33.05 109.2 -32.3 105.05 -31.75 102.25 -29.35 99.15 L-29.3 99.15 -22.1 99.4 Q-18.6 100.25 -15.55 102.3 -15.4 102.95 -14.85 103.2 L-14.0 103.6 Q-11.75 106.0 -12.15 109.35 M-12.1 115.4 Q-10.5 113.0 -10.15 110.45 -9.75 107.8 -10.8 105.4 -5.05 109.1 -4.35 113.65 -8.8 114.95 -12.1 115.4" fill="#ffffff" fill-rule="evenodd" stroke="none"/>
  </g>
</svg>
