<?xml version="1.0" encoding="UTF-8" standalone="no"?>
<svg xmlns:ffdec="https://www.free-decompiler.com/flash" xmlns:xlink="http://www.w3.org/1999/xlink" ffdec:objectType="shape" height="154.4px" width="144.3px" xmlns="http://www.w3.org/2000/svg">
  <g transform="matrix(1.0, 0.0, 0.0, 1.0, 70.0, 48.0)">
    <path d="M36.25 -43.7 Q39.25 -42.45 41.8 -40.95 39.55 -27.8 30.95 -17.1 22.2 -6.2 9.9 -1.85 3.4 -4.9 -3.5 -9.3 -1.95 -9.75 0.55 -10.8 8.15 -14.05 18.65 -21.5 24.9 -25.9 29.35 -31.05 34.85 -37.45 36.25 -43.7 M34.2 -44.45 Q31.7 -34.2 18.05 -23.95 L17.5 -23.55 Q12.15 -26.05 7.9 -29.9 11.95 -29.7 16.1 -31.65 19.95 -33.45 22.85 -36.6 25.55 -39.55 27.8 -44.4 L27.95 -45.35 Q28.0 -45.9 28.3 -45.85 L29.65 -45.65 34.2 -44.45 M15.25 -36.0 Q18.45 -36.8 21.1 -38.5 17.9 -34.85 14.2 -33.2 10.0 -31.3 5.6 -32.2 1.5 -36.7 -0.25 -41.9 L-0.2 -41.9 Q0.9 -39.05 3.45 -37.35 5.8 -35.8 9.0 -35.5 12.05 -35.2 15.25 -36.0 M7.8 -17.15 L7.65 -17.25 Q-1.2 -20.6 -6.25 -29.25 -11.1 -37.45 -10.9 -47.25 L-10.9 -47.45 -8.55 -48.0 Q-5.85 -45.05 -2.6 -43.15 -0.7 -36.6 4.45 -30.9 9.3 -25.65 15.8 -22.35 12.0 -19.6 7.8 -17.15 M39.45 -4.65 Q45.3 -1.65 53.05 -4.0 59.35 -5.9 65.35 -10.7 L66.5 -7.8 69.55 1.1 Q63.9 6.5 56.6 7.55 48.85 8.7 42.6 4.3 L41.75 4.1 38.65 0.4 37.5 -2.4 39.45 -4.65 M35.2 -0.8 L25.35 4.05 25.3 4.05 Q18.95 2.25 12.85 -0.45 19.5 -3.15 25.35 -8.0 30.5 -5.35 35.2 -0.8 M26.8 -9.25 Q33.4 -15.2 37.8 -23.1 42.2 -31.05 43.75 -39.75 L47.1 -37.3 Q46.7 -27.65 44.3 -19.6 41.35 -9.85 35.8 -4.05 35.15 -4.05 35.2 -3.45 L35.05 -3.25 Q31.0 -6.9 26.8 -9.25 M57.65 -25.6 Q57.75 -13.45 54.5 -6.9 46.5 -3.6 40.55 -6.15 48.1 -17.15 49.05 -35.65 53.5 -31.7 57.65 -25.6 M59.65 -22.4 Q62.15 -18.15 64.35 -13.0 61.15 -10.3 57.55 -8.4 59.45 -13.85 59.65 -22.4 M65.7 6.9 Q68.3 5.45 70.3 3.65 71.6 8.4 72.55 13.1 70.5 15.15 68.1 16.1 65.35 17.25 62.9 16.55 65.05 12.25 65.75 7.4 L65.7 6.9 M67.85 18.6 Q70.55 17.9 73.05 15.9 L74.05 23.9 Q70.75 26.85 66.0 26.65 61.8 26.45 57.7 23.9 60.2 21.45 62.05 18.25 64.8 19.3 67.85 18.6 M57.15 9.7 Q60.6 9.2 63.5 7.95 62.55 12.85 60.05 17.05 57.4 21.45 53.6 24.25 L50.85 18.6 51.2 18.35 57.0 10.15 57.15 9.7 M42.3 16.05 Q36.05 18.1 32.65 18.05 L36.1 15.85 Q39.7 13.45 41.0 12.05 L42.3 16.05 M54.3 9.85 L49.7 16.4 Q46.8 11.1 44.05 7.25 48.95 9.85 54.3 9.85 M56.35 25.1 Q60.0 27.5 63.85 28.4 L71.7 28.05 Q66.95 34.85 57.4 37.15 54.1 38.15 51.15 38.35 49.5 38.45 49.2 37.9 48.95 37.4 49.5 35.8 50.15 33.85 51.9 30.55 53.9 28.0 54.25 26.7 L56.35 25.1 M45.1 28.7 Q39.65 35.6 35.85 39.5 30.15 45.25 24.7 48.15 20.6 44.6 16.6 39.95 24.3 37.5 31.55 32.1 38.3 27.05 43.55 20.3 L45.75 28.55 Q45.4 28.4 45.1 28.7 M47.25 34.7 Q46.55 37.0 47.05 38.2 47.45 39.1 48.35 39.75 L49.3 44.25 Q46.25 50.65 35.3 55.6 30.8 53.2 26.6 49.8 31.85 46.85 37.35 41.3 41.15 37.45 46.35 30.95 L47.25 34.7 M60.6 38.6 Q62.2 41.5 65.65 42.6 L72.2 42.85 Q70.3 47.5 66.25 50.6 64.05 52.35 61.55 52.9 58.4 53.6 56.7 51.8 53.5 48.45 58.8 39.1 L60.6 38.6 M67.2 40.95 Q63.75 40.55 62.25 38.05 70.15 35.2 74.3 28.4 L74.3 30.8 Q74.3 36.3 73.15 40.3 69.9 41.3 67.2 40.95 M37.0 1.05 L40.15 9.5 Q40.05 9.5 39.9 9.65 38.8 11.05 35.4 13.45 27.2 19.2 15.6 23.95 7.65 27.2 -2.1 27.65 -11.45 28.1 -20.25 25.85 -19.4 22.05 -18.85 17.7 -10.85 18.65 -1.0 16.25 5.8 14.65 16.05 10.6 27.4 6.1 36.9 0.95 L37.0 1.05 M9.55 10.65 Q1.6 9.55 -4.85 6.85 -12.7 3.6 -17.1 -1.55 L-16.75 -7.9 Q-16.55 -8.2 -16.7 -8.7 L-16.55 -16.3 Q3.85 -0.7 22.7 5.25 L16.9 7.75 9.55 10.65 M14.95 40.6 Q24.25 51.7 34.95 57.45 35.35 57.85 35.75 57.85 44.45 62.3 53.3 62.75 L54.75 69.1 49.55 68.8 Q40.35 67.85 32.25 64.95 22.3 61.4 10.75 54.45 9.55 47.6 8.85 41.6 L14.85 40.45 14.95 40.6 M1.1 35.8 Q-2.2 33.05 -2.95 29.75 6.55 29.5 14.85 26.7 21.9 24.4 29.9 19.7 34.35 21.0 41.95 18.6 35.4 27.0 26.8 32.55 17.2 38.65 7.55 39.55 3.7 38.0 1.1 35.8 M6.8 42.15 Q2.55 44.8 -0.8 49.1 -3.1 39.2 -12.95 29.25 L-4.85 29.8 Q-3.85 33.6 -0.35 36.8 2.65 39.5 6.9 41.25 L7.0 42.05 6.8 42.15 M33.45 70.25 Q25.95 77.1 21.0 90.35 19.65 87.4 17.5 81.2 L17.3 80.55 17.55 80.4 Q20.55 76.75 24.7 74.15 28.85 71.5 33.45 70.25 M38.85 68.95 L49.6 70.85 55.2 71.2 56.2 75.55 Q56.6 77.15 57.5 78.05 52.85 77.3 47.3 79.1 42.55 80.65 38.2 83.65 34.2 86.5 31.25 90.9 28.2 95.4 27.1 100.25 24.45 97.4 22.35 93.2 28.55 75.75 38.6 69.25 L38.85 68.95 M34.4 67.7 Q29.25 68.7 24.6 71.4 19.9 74.1 16.5 78.0 L13.75 68.45 Q18.4 64.6 24.3 63.9 L24.65 63.8 32.45 67.05 34.4 67.7 M11.15 56.75 Q15.95 59.6 21.25 62.2 16.75 63.2 13.1 65.9 L11.15 56.75 M37.75 87.1 Q42.4 82.9 48.75 80.95 56.0 78.7 61.2 81.05 64.05 83.75 65.3 86.55 66.85 89.95 65.9 93.05 64.0 90.55 60.15 90.35 56.8 90.15 53.45 91.6 45.3 95.2 38.55 106.3 33.2 105.75 28.9 102.05 29.75 97.9 32.2 93.9 34.5 90.1 37.75 87.1 M57.95 92.55 Q63.5 91.1 65.0 95.0 62.85 98.55 56.4 102.2 49.1 106.25 41.25 106.4 45.1 100.65 50.25 96.45 53.6 93.65 57.95 92.55 M50.05 47.65 L52.85 60.6 Q45.25 60.3 38.0 56.95 46.6 52.7 50.05 47.65 M-44.7 -21.65 Q-44.35 -15.7 -42.4 -10.35 -40.35 -4.6 -36.75 -0.45 L-36.85 -0.45 Q-40.55 1.75 -45.5 0.35 -49.95 -0.85 -53.5 -4.3 -50.4 -13.2 -44.7 -21.65 M-15.8 -45.7 L-12.85 -46.85 Q-12.8 -37.0 -7.9 -28.65 -2.8 -19.9 5.8 -16.05 2.15 -14.1 -0.15 -13.05 -4.2 -11.25 -5.9 -11.0 L-6.1 -10.95 -16.6 -18.5 -16.75 -23.05 Q-16.8 -24.65 -17.5 -26.1 L-19.1 -28.9 Q-21.05 -32.45 -21.85 -34.6 -23.15 -38.05 -22.85 -40.75 -22.7 -41.95 -19.75 -43.65 L-15.8 -45.7 M-36.55 -31.7 Q-35.25 -23.8 -30.65 -17.6 -25.85 -11.0 -18.8 -8.3 L-18.95 -4.95 -19.05 -4.95 Q-25.2 -2.65 -29.65 3.2 -36.3 -0.55 -39.85 -8.75 -43.0 -16.05 -42.8 -24.35 L-39.8 -28.2 -36.55 -31.7 M-24.9 -40.7 L-24.9 -40.4 Q-24.85 -38.05 -23.65 -34.55 -22.2 -30.5 -19.0 -25.35 -18.75 -24.95 -18.7 -24.05 L-18.7 -22.5 -18.6 -16.25 -18.75 -10.25 Q-25.5 -12.8 -29.9 -19.45 -34.05 -25.7 -34.8 -33.35 -30.65 -37.05 -24.9 -40.7 M-17.25 0.8 Q-9.45 8.9 5.7 12.0 -8.35 16.7 -18.55 15.7 L-17.35 2.4 -17.25 0.8 M-32.5 7.75 L-32.85 7.9 Q-38.2 11.4 -44.4 12.15 -51.05 13.0 -56.45 10.25 -56.1 4.05 -54.05 -2.55 -49.85 1.25 -45.15 2.5 -39.7 3.95 -35.25 1.35 L-35.1 1.25 Q-33.15 3.2 -30.7 4.65 L-32.5 7.75 M-36.3 21.45 L-35.95 22.75 Q-32.9 33.05 -39.15 35.45 -42.35 36.7 -45.05 36.15 -46.65 32.65 -44.45 28.05 -42.75 24.55 -39.35 21.25 L-39.1 20.6 Q-37.4 20.95 -36.3 21.45 M-36.45 19.4 Q-41.65 17.45 -46.6 18.65 -51.75 19.9 -54.9 24.2 -56.3 19.3 -56.5 14.3 L-56.5 12.2 Q-51.4 14.75 -45.25 14.4 -39.55 14.1 -34.15 11.35 -35.45 14.55 -36.15 17.5 L-36.45 19.4 M-34.55 42.85 Q-30.0 28.3 -21.75 27.6 -19.45 31.1 -19.05 35.8 -18.65 40.55 -20.4 44.7 -27.35 41.6 -34.55 42.85 M-19.55 28.05 L-15.8 28.8 -15.75 28.9 Q-10.55 33.7 -7.15 38.95 -3.1 45.25 -2.35 51.2 -4.15 53.9 -5.9 57.6 -10.7 49.8 -18.35 45.7 -16.6 41.4 -16.95 36.75 -17.25 32.05 -19.55 28.05 M-18.7 47.55 Q-11.15 51.6 -6.7 59.5 L-8.75 65.45 Q-14.15 59.25 -21.5 55.9 -29.35 52.35 -37.1 53.2 L-35.25 45.3 Q-26.85 43.15 -18.7 47.55 M-41.75 20.3 Q-45.05 23.75 -46.55 27.35 -48.35 31.65 -47.15 35.45 -51.35 33.5 -53.95 26.95 L-53.8 26.75 Q-51.85 23.5 -48.55 21.8 -45.45 20.2 -41.75 20.3 M-56.55 67.2 Q-58.4 64.7 -60.9 63.15 -58.25 62.3 -55.1 61.9 -51.2 64.55 -48.25 69.0 -44.7 74.25 -44.75 80.45 -44.8 86.2 -47.95 92.05 L-49.7 91.65 Q-48.1 86.85 -49.15 81.75 -50.2 76.7 -53.6 72.8 L-53.85 72.55 Q-54.7 69.65 -56.55 67.2 M-46.05 61.45 L-39.15 61.9 Q-30.5 65.25 -24.75 72.6 -18.8 80.1 -18.1 89.1 L-18.05 89.3 -23.1 91.2 Q-27.6 92.6 -32.95 93.0 -31.5 75.35 -40.45 66.1 -43.25 63.2 -46.7 61.45 L-46.05 61.45 M-51.35 61.8 Q-46.9 62.6 -42.45 66.5 -33.15 74.7 -35.05 93.1 L-45.55 92.5 Q-42.75 86.85 -42.75 81.2 -42.7 75.25 -45.7 69.85 -48.3 65.2 -52.6 61.6 L-51.8 61.55 -51.35 61.8 M-63.1 63.95 L-62.9 64.1 Q-59.8 65.5 -57.75 68.55 -55.8 71.4 -55.3 74.9 -54.65 78.9 -56.9 81.9 -59.15 84.85 -63.15 85.5 L-63.25 85.5 Q-66.8 82.75 -68.5 79.5 -70.5 75.75 -69.8 71.75 -68.85 66.6 -63.1 63.95 M-53.2 76.15 Q-51.15 79.5 -50.8 83.45 -50.45 87.45 -51.85 91.1 L-57.85 88.8 Q-59.1 88.25 -60.75 87.2 -57.0 86.1 -55.0 83.15 -53.0 80.25 -53.2 76.15 M-9.3 67.5 L-10.65 74.4 Q-11.7 67.1 -15.5 61.55 -12.05 64.05 -9.3 67.5 M-13.65 69.5 Q-11.75 75.7 -12.55 82.15 -13.8 85.55 -15.75 87.6 L-16.25 88.1 Q-17.45 79.0 -23.5 71.4 -29.5 63.9 -38.15 60.35 L-37.5 55.4 -37.35 55.45 Q-28.75 54.15 -20.15 58.65 -15.65 63.0 -13.65 69.5" fill="#ffffff" fill-rule="evenodd" stroke="none"/>
  </g>
</svg>
