<?xml version="1.0" encoding="UTF-8" standalone="no"?>
<svg xmlns:ffdec="https://www.free-decompiler.com/flash" xmlns:xlink="http://www.w3.org/1999/xlink" ffdec:objectType="shape" height="152.45px" width="140.2px" xmlns="http://www.w3.org/2000/svg">
  <g transform="matrix(1.0, 0.0, 0.0, 1.0, 65.95, 46.7)">
    <path d="M36.15 -43.85 Q38.7 -42.85 41.4 -41.35 L41.8 -41.15 Q40.6 -32.35 36.35 -24.2 32.1 -16.1 25.55 -10.05 24.85 -10.2 24.85 -9.4 18.7 -3.95 11.55 -1.1 L11.5 -1.1 Q4.7 -4.0 -2.15 -7.95 -0.75 -8.4 2.25 -9.9 9.45 -13.4 19.45 -21.0 25.6 -25.7 29.75 -31.0 35.0 -37.55 36.15 -43.85 M27.8 -42.75 Q29.3 -45.75 28.9 -45.8 L29.95 -45.65 34.1 -44.6 Q31.95 -34.0 18.2 -23.1 12.4 -25.55 8.0 -29.4 11.95 -29.4 15.95 -31.2 19.7 -32.85 22.7 -35.75 25.5 -38.45 27.8 -42.75 M5.15 -29.65 Q10.2 -24.75 16.55 -21.8 12.35 -18.6 8.75 -16.3 L8.4 -16.5 Q-0.45 -19.45 -5.8 -27.9 -10.85 -35.85 -11.05 -45.6 L-11.15 -45.9 -8.2 -46.7 Q-5.85 -44.35 -2.85 -42.55 -0.85 -35.9 4.55 -30.3 4.75 -29.9 5.15 -29.65 M9.0 -35.0 Q12.45 -34.75 16.0 -35.85 19.65 -36.95 22.35 -39.2 19.0 -35.25 14.95 -33.2 10.4 -31.0 5.7 -31.55 1.35 -36.15 -0.5 -41.35 L-0.3 -41.25 Q0.85 -38.45 3.4 -36.8 5.75 -35.3 9.0 -35.0 M0.6 -11.7 Q-2.7 -10.05 -4.8 -9.6 L-4.85 -9.6 -15.8 -16.8 -16.0 -21.65 Q-16.1 -23.1 -17.05 -24.7 L-18.8 -27.45 Q-21.1 -31.25 -21.95 -33.3 -23.8 -37.8 -22.25 -39.35 -18.55 -43.1 -13.0 -45.25 -12.6 -35.4 -7.35 -27.2 -1.95 -18.7 6.8 -15.1 L0.6 -11.7 M39.8 -4.45 Q45.6 -1.35 53.4 -3.65 59.7 -5.45 65.75 -10.2 L66.25 -8.95 Q68.35 -3.6 69.8 1.65 64.1 7.0 56.8 8.0 49.05 9.0 42.85 4.55 42.35 4.2 42.0 4.3 L41.9 4.15 41.3 3.4 37.05 -1.4 39.8 -4.45 M36.05 -0.1 Q32.5 2.05 27.65 4.45 L27.15 4.2 Q20.8 2.65 14.55 0.15 20.9 -2.75 26.4 -7.6 31.35 -4.9 36.05 -0.1 M27.75 -8.85 Q34.2 -15.0 38.4 -23.1 42.55 -31.2 43.75 -40.0 L47.8 -37.05 Q47.3 -27.0 44.6 -18.8 41.35 -8.8 35.35 -3.1 31.6 -6.6 27.75 -8.85 M58.2 -25.15 Q58.2 -13.15 54.85 -6.55 46.85 -3.3 40.9 -5.95 48.6 -16.85 49.75 -35.35 54.45 -31.0 58.2 -25.15 M60.15 -21.9 Q62.7 -17.55 64.8 -12.55 61.4 -9.75 57.95 -8.0 59.95 -13.5 60.15 -21.9 M70.55 4.2 Q72.0 9.9 72.65 13.7 70.55 15.7 68.2 16.65 65.45 17.75 63.0 17.05 65.25 12.7 65.95 7.85 L65.9 7.4 70.55 4.2 M67.9 19.1 Q70.6 18.45 73.1 16.5 L74.05 24.5 Q70.75 27.45 66.0 27.15 61.8 26.9 57.7 24.3 60.2 21.95 62.1 18.7 64.85 19.8 67.9 19.1 M41.85 9.35 Q40.8 10.8 36.35 14.1 24.95 22.35 14.15 26.0 6.35 28.6 -3.0 28.85 -11.8 29.15 -20.45 27.35 -19.55 22.5 -19.0 18.65 -5.4 19.85 12.3 13.5 L12.8 13.35 18.45 11.15 Q29.05 6.9 37.7 1.65 L40.1 4.55 Q41.05 5.95 42.35 9.05 L41.85 9.35 M53.6 24.6 L51.7 20.45 Q55.3 17.15 58.9 9.85 L63.7 8.45 Q62.65 13.3 60.1 17.5 57.45 21.85 53.6 24.6 M44.8 15.4 Q38.6 17.8 35.05 17.9 L37.9 15.9 Q41.8 13.15 43.25 11.35 L44.8 15.4 M56.15 10.15 Q53.45 15.35 50.55 18.2 47.55 12.25 44.3 7.5 49.85 10.55 56.15 10.15 M51.85 30.9 Q53.85 28.35 54.25 27.05 L56.35 25.5 Q59.95 27.95 63.8 28.85 L71.7 28.6 Q66.9 35.3 57.25 37.55 L51.0 38.7 Q49.3 38.75 49.05 38.2 48.8 37.75 49.35 36.1 49.8 34.8 51.3 31.9 L51.5 31.6 51.85 30.9 M41.5 36.15 L35.35 42.75 Q31.7 46.3 28.25 48.3 23.55 44.45 19.85 40.4 27.5 37.6 34.6 31.85 41.15 26.5 46.2 19.5 L48.55 27.55 Q45.8 31.25 41.5 36.15 M49.4 30.5 Q45.95 36.25 46.95 38.5 48.05 41.1 52.15 40.9 L52.75 43.35 Q49.9 49.9 39.15 55.3 34.55 53.05 30.25 49.85 35.35 46.7 40.65 41.05 44.25 37.15 49.35 30.4 L49.4 30.5 M58.65 39.55 L60.45 39.05 Q62.1 41.95 65.45 43.05 L72.0 43.4 Q70.05 47.75 66.5 50.7 64.25 52.55 61.8 53.2 58.75 54.1 56.75 52.55 54.35 50.75 55.65 46.1 56.5 43.2 58.65 39.55 M64.2 40.55 L62.4 38.9 62.15 38.5 Q70.0 35.75 74.25 29.05 L74.25 29.55 Q74.35 36.2 72.95 40.9 67.7 42.5 64.2 40.55 M11.45 11.4 Q3.25 10.55 -3.35 8.0 -11.5 4.9 -15.95 -0.25 L-16.65 -0.7 Q-15.85 -8.85 -15.8 -14.7 5.75 0.55 25.15 5.65 L18.0 8.85 11.45 11.4 M18.2 41.1 Q28.1 51.9 38.85 57.2 39.25 57.6 39.7 57.6 48.75 61.75 57.45 61.75 L59.15 68.0 53.95 67.9 Q44.75 67.35 36.5 64.8 26.45 61.6 14.65 55.15 13.05 48.05 12.2 42.35 L18.1 41.0 18.2 41.1 M4.1 36.85 Q0.65 34.15 -0.15 30.8 7.75 30.35 15.35 28.05 23.15 25.6 32.35 19.65 36.7 20.75 44.3 18.1 38.1 26.7 29.7 32.6 20.4 39.1 10.8 40.35 6.9 39.05 4.1 36.85 M10.2 42.15 L10.35 42.85 10.0 43.15 5.2 53.2 Q4.55 49.9 2.55 46.0 L-1.3 39.4 Q-4.05 35.1 -7.25 30.9 L-2.0 30.9 Q-0.9 34.8 2.75 37.85 5.8 40.5 10.2 42.15 M37.85 70.05 Q30.7 77.2 26.2 90.75 23.85 86.3 21.95 80.95 22.3 80.95 22.5 80.65 25.3 76.95 29.35 74.2 33.3 71.45 37.85 70.05 M28.8 63.95 L36.75 66.85 38.7 67.45 Q33.6 68.7 29.0 71.6 24.4 74.55 21.1 78.65 L18.15 69.0 Q22.7 64.95 28.45 64.1 L28.8 63.95 M15.2 57.45 Q20.5 60.35 25.35 62.45 20.75 63.75 17.45 66.4 L15.2 57.45 M4.05 55.7 L2.25 59.55 Q-4.85 52.8 -16.75 50.6 -14.75 42.0 -20.1 29.4 L-9.45 30.8 -9.35 31.0 Q-6.55 34.4 -3.3 39.4 -0.3 44.0 1.0 46.75 3.15 51.15 3.5 54.85 L4.05 55.7 M27.65 93.45 L27.65 93.35 Q33.2 75.75 42.95 68.85 L43.2 68.55 54.0 70.0 59.7 70.15 60.55 73.35 61.25 75.45 Q61.6 76.25 62.25 76.85 57.55 76.3 52.1 78.3 47.35 80.05 43.2 83.2 39.25 86.25 36.4 90.9 33.55 95.55 32.65 100.5 L30.55 98.0 Q29.25 96.2 27.65 93.45 M56.9 59.6 Q49.5 59.65 41.9 56.55 50.25 52.05 53.45 46.95 53.2 49.95 54.45 52.35 L55.4 53.65 56.9 59.6 M53.65 80.1 Q60.8 77.6 66.05 79.75 72.7 85.5 71.2 91.6 69.15 89.0 65.05 89.0 61.5 89.05 58.15 90.9 54.1 93.1 50.35 97.35 47.1 101.0 44.5 105.7 38.8 105.3 34.55 102.15 35.2 97.95 37.5 93.8 39.65 89.85 42.85 86.75 47.3 82.35 53.65 80.1 M70.45 93.55 Q68.6 96.85 62.6 100.7 55.15 105.45 47.15 105.75 50.7 99.95 55.8 95.45 59.05 92.55 63.35 91.3 68.85 89.7 70.45 93.55 M-45.6 -20.4 Q-45.45 -14.45 -43.7 -9.05 -41.8 -3.3 -38.4 0.95 -42.45 3.1 -47.25 1.55 -51.45 0.2 -54.9 -3.35 -51.6 -11.7 -45.85 -20.05 L-45.6 -20.4 M-43.55 -23.1 Q-40.55 -26.85 -37.15 -29.95 -36.3 -21.6 -31.3 -14.8 -26.15 -7.85 -18.4 -4.9 L-18.5 -3.9 Q-26.55 -2.05 -31.95 4.65 -38.2 0.6 -41.3 -7.55 -44.1 -14.85 -43.55 -23.1 M-24.8 -38.95 L-24.8 -38.85 Q-24.8 -36.45 -23.55 -33.15 -21.95 -28.85 -18.45 -23.7 -17.65 -22.5 -17.65 -19.35 L-17.9 -14.55 -18.25 -6.8 Q-25.8 -9.6 -30.5 -16.55 -35.0 -23.35 -35.25 -31.6 -30.55 -35.55 -24.8 -38.95 M-16.85 1.25 Q-12.7 5.9 -5.9 8.95 -0.05 11.55 7.25 12.8 -7.0 17.4 -18.7 16.65 L-17.1 3.65 -16.85 1.25 M-36.9 2.75 L-33.0 6.05 -35.25 9.7 Q-40.65 12.9 -46.75 13.35 -53.3 13.85 -58.5 11.0 -57.85 5.0 -55.55 -1.65 -51.55 2.25 -46.95 3.65 -41.6 5.35 -37.15 2.95 L-36.9 2.75 M-39.15 20.75 Q-44.25 18.75 -49.15 19.8 -54.3 20.85 -57.5 25.0 L-58.05 22.6 Q-58.9 18.1 -58.65 12.95 -53.75 15.6 -47.8 15.55 -42.2 15.5 -36.8 13.15 L-37.9 16.15 -39.15 20.75 M-38.45 33.9 Q-39.4 36.2 -42.55 37.05 L-48.05 37.25 Q-49.4 33.6 -47.1 29.2 -45.35 25.75 -41.8 22.6 -41.55 22.35 -41.55 21.95 -39.75 22.45 -38.85 22.85 -36.7 29.65 -38.45 33.9 M-44.2 21.55 Q-47.6 24.9 -49.3 28.45 -51.3 32.8 -50.2 36.6 -54.5 34.55 -56.7 27.8 L-56.4 27.5 Q-54.35 24.35 -51.05 22.8 -47.85 21.3 -44.2 21.55 M-52.85 70.75 Q-48.55 72.8 -44.75 77.15 -40.65 81.8 -39.9 87.9 -39.25 93.6 -41.55 99.65 L-43.4 99.55 Q-42.45 94.55 -44.25 89.6 -46.0 84.7 -49.9 81.25 L-50.35 80.95 Q-53.1 75.2 -58.25 72.75 -55.8 71.55 -52.85 70.75 M-59.95 74.05 Q-56.9 74.95 -54.55 77.55 -52.3 79.95 -51.25 83.15 -49.9 87.25 -51.7 90.6 -53.5 93.95 -57.6 95.2 L-60.9 92.95 Q-64.75 89.85 -65.7 85.45 -66.75 80.75 -63.75 77.05 -62.3 75.35 -60.25 73.9 L-59.95 74.05 M-49.5 69.95 L-48.8 70.25 Q-44.1 70.45 -39.05 74.05 -29.2 81.15 -28.7 99.05 L-37.85 99.75 -39.2 99.75 Q-37.2 93.75 -37.95 88.15 -38.75 82.3 -42.45 77.25 -45.65 73.05 -50.3 70.1 L-49.5 69.95 M-49.5 91.45 Q-48.25 88.3 -49.15 84.35 -46.55 87.4 -45.6 91.4 -44.65 95.4 -45.55 99.3 -50.65 98.5 -54.8 96.65 -50.95 94.95 -49.5 91.45 M-17.65 63.45 Q-12.95 67.55 -10.7 74.3 -8.6 80.6 -9.3 87.2 L-8.95 88.1 -8.1 88.7 -9.35 90.55 -10.75 91.95 Q-13.05 83.1 -19.95 76.3 -26.7 69.65 -35.75 67.1 L-34.05 61.4 -33.75 61.45 -29.0 61.2 -23.8 61.6 Q-20.65 62.05 -17.95 63.0 L-17.65 63.45 M-18.9 50.25 L-30.3 49.9 Q-26.45 39.0 -21.6 30.35 -16.75 42.3 -18.85 50.1 L-18.9 50.25 M-2.5 71.65 Q-8.2 65.0 -16.4 61.6 -24.85 58.15 -33.4 59.2 L-31.1 52.1 Q-21.95 51.25 -13.7 53.25 -4.15 55.55 1.55 61.2 -0.75 66.2 -2.0 70.0 L-2.5 71.65 M-3.45 73.1 L-3.05 73.45 -5.0 80.95 Q-6.15 84.9 -7.25 87.15 -6.8 81.05 -8.55 75.2 -10.35 69.1 -14.2 64.55 -8.0 67.65 -3.45 73.1 M-17.5 95.85 Q-21.6 97.75 -26.7 98.7 -27.5 80.85 -37.9 72.75 -40.85 70.5 -44.35 69.25 L-36.85 68.8 Q-27.85 70.95 -21.15 77.4 -14.25 84.05 -12.4 92.8 L-12.25 93.1 Q-13.9 94.2 -17.5 95.85" fill="#ffffff" fill-rule="evenodd" stroke="none"/>
  </g>
</svg>
