<?xml version="1.0" encoding="UTF-8" standalone="no"?>
<svg xmlns:ffdec="https://www.free-decompiler.com/flash" xmlns:xlink="http://www.w3.org/1999/xlink" ffdec:objectType="shape" height="150.85px" width="137.5px" xmlns="http://www.w3.org/2000/svg">
  <g transform="matrix(1.0, 0.0, 0.0, 1.0, 57.5, 47.1)">
    <path d="M36.05 -45.55 L40.7 -43.75 41.85 -43.2 Q40.6 -29.95 32.9 -18.7 25.05 -7.15 13.2 -1.85 L13.1 -1.8 Q6.2 -4.4 -0.8 -8.15 0.2 -8.5 3.45 -10.2 10.6 -14.05 20.0 -21.8 20.2 -21.85 20.3 -22.05 26.25 -27.0 30.2 -32.45 35.15 -39.2 36.05 -45.55 M26.95 -43.9 Q28.25 -47.0 27.7 -47.05 L28.65 -47.05 34.0 -46.15 Q32.2 -35.45 18.95 -24.05 13.4 -26.1 8.9 -29.6 12.7 -29.7 16.45 -31.7 19.95 -33.55 22.6 -36.6 25.1 -39.5 26.95 -43.9 M8.6 -36.75 Q12.1 -36.35 15.8 -37.35 19.5 -38.4 22.35 -40.6 19.3 -36.15 15.4 -33.8 11.05 -31.2 6.45 -31.75 L6.4 -31.75 Q0.7 -37.15 -1.25 -43.75 L-0.45 -43.35 Q0.55 -40.5 3.05 -38.75 5.35 -37.2 8.6 -36.75 M9.75 -16.9 L9.45 -17.05 Q0.5 -19.65 -5.2 -27.9 -10.6 -35.65 -11.2 -45.4 L-11.25 -45.7 Q-8.8 -46.65 -6.1 -47.1 L-3.5 -45.15 Q-1.75 -37.7 4.2 -31.55 9.7 -25.85 17.35 -22.7 L9.75 -16.9 M1.85 -12.0 Q-1.65 -10.15 -3.5 -9.7 L-3.6 -9.65 -14.85 -16.5 Q-14.9 -19.45 -15.4 -22.7 -15.6 -23.75 -16.9 -25.45 L-18.85 -28.0 Q-21.2 -31.75 -21.9 -33.65 -23.35 -37.5 -21.5 -39.4 -18.15 -42.75 -13.1 -45.0 -12.3 -35.2 -6.75 -27.2 -1.0 -18.85 7.85 -15.6 4.2 -13.25 1.85 -12.0 M40.4 -0.95 L44.15 7.2 43.85 7.45 41.2 10.25 38.05 12.75 Q25.85 22.15 15.55 25.5 7.75 28.05 -1.65 28.25 -10.4 28.45 -19.15 26.7 L-18.1 19.6 Q-8.8 19.9 1.95 16.8 10.35 14.4 20.95 9.45 31.65 4.5 40.2 -1.1 L40.4 -0.95 M38.25 -5.45 L38.05 -5.15 Q33.95 -8.45 29.35 -10.5 35.5 -16.9 39.25 -25.15 43.05 -33.4 43.85 -42.2 L47.45 -40.0 Q47.8 -30.35 46.0 -22.2 43.85 -12.3 38.8 -6.1 38.25 -5.9 38.25 -5.45 M38.35 -2.7 L28.9 2.85 Q22.7 1.65 16.2 -0.65 22.55 -3.85 28.0 -9.15 33.45 -6.85 38.35 -2.7 M58.85 -29.1 Q59.95 -17.15 57.2 -10.35 49.3 -6.35 43.3 -8.5 50.0 -20.1 49.45 -38.5 54.45 -34.7 58.85 -29.1 M40.55 -4.45 L42.3 -6.9 Q48.4 -4.35 55.95 -7.25 62.1 -9.65 67.7 -14.95 L68.55 -13.2 72.8 -3.5 Q67.5 2.4 60.3 3.95 52.65 5.6 46.0 1.65 L45.2 1.55 41.9 -1.85 40.55 -4.45 M66.55 -17.2 Q63.5 -14.25 60.05 -12.05 61.6 -17.8 61.05 -26.15 63.55 -22.6 66.55 -17.2 M72.5 11.55 Q69.9 12.85 67.35 12.4 69.15 7.9 69.45 3.15 L69.35 2.65 Q71.75 1.05 73.75 -1.05 L76.75 8.25 Q74.8 10.45 72.5 11.55 M67.3 3.85 Q66.7 8.8 64.5 13.15 62.25 17.75 58.65 20.8 L55.5 15.45 55.8 15.2 60.95 6.55 61.05 6.1 Q64.05 5.45 67.3 3.85 M69.2 24.2 Q73.6 24.8 77.05 23.25 72.85 30.25 63.55 33.35 60.4 34.6 57.6 35.0 L55.5 35.1 Q54.8 34.95 55.5 32.5 56.0 30.5 57.7 26.7 59.15 24.45 59.45 23.25 L61.5 21.5 Q65.25 23.6 69.2 24.2 M66.6 14.2 Q69.4 15.15 72.45 14.1 75.15 13.2 77.45 10.95 L79.05 18.9 Q76.0 22.05 71.25 22.2 67.05 22.35 62.75 20.15 64.95 17.6 66.6 14.2 M46.8 13.5 Q40.9 16.05 37.35 16.25 L39.15 14.9 Q43.5 11.75 45.2 9.6 L46.8 13.5 M47.9 4.65 Q52.8 6.85 58.25 6.45 L54.15 13.3 Q51.3 8.9 47.9 4.65 M54.75 36.8 L56.0 41.05 Q53.45 47.65 42.9 53.5 38.35 51.5 33.8 48.4 38.8 45.05 43.8 39.1 47.3 35.0 52.0 28.05 L53.2 31.75 Q52.8 33.55 53.15 34.85 53.6 36.25 54.75 36.8 M42.1 37.45 Q36.9 43.6 31.7 46.9 27.25 43.6 23.0 39.35 30.5 36.3 37.35 30.3 43.65 24.8 48.4 17.65 L51.25 25.75 Q50.8 25.7 50.5 26.05 45.65 33.3 42.1 37.45 M79.4 35.25 Q76.35 36.5 73.5 36.4 70.0 36.3 68.35 33.95 76.1 30.4 79.65 23.3 L79.85 25.5 Q80.25 31.2 79.4 35.25 M66.8 34.6 Q68.65 37.4 72.15 38.2 L78.7 37.95 Q77.0 42.95 73.1 46.3 71.05 48.05 68.8 48.75 65.95 49.6 64.1 48.2 60.25 45.35 65.0 35.3 L66.8 34.6 M12.95 10.45 L12.65 10.35 Q4.55 9.85 -1.85 7.75 -10.1 5.05 -14.3 0.1 L-15.1 -0.35 Q-15.5 -0.4 -15.75 -0.1 -14.8 -8.95 -14.8 -14.4 6.8 -0.3 26.15 4.25 L19.75 7.4 12.95 10.45 M7.0 36.25 Q3.45 33.6 2.55 30.15 L2.55 30.1 Q9.25 29.65 15.9 27.8 24.2 25.45 34.65 18.15 39.3 19.05 46.6 16.1 40.75 24.9 32.35 31.2 23.2 38.05 14.0 39.65 9.9 38.4 7.0 36.25 M5.6 37.35 Q8.85 39.9 13.45 41.45 L13.6 42.15 13.3 42.45 Q10.3 47.6 8.4 54.3 2.75 49.8 -0.8 43.9 -4.7 37.35 -4.9 30.75 L-5.0 30.3 0.65 30.25 Q1.75 34.25 5.6 37.35 M21.35 40.05 Q31.65 50.5 42.65 55.4 43.1 55.85 43.55 55.75 52.4 59.55 61.4 59.25 L63.3 65.4 58.15 65.5 Q48.5 65.25 40.65 63.05 30.05 60.15 18.3 54.2 16.8 48.6 15.4 41.6 L21.3 40.0 21.35 40.05 M21.55 65.45 L18.9 56.55 Q24.15 59.1 29.3 61.2 25.05 62.5 21.55 65.45 M32.7 62.65 L32.95 62.55 40.85 65.15 42.85 65.65 Q37.8 67.1 33.4 70.1 28.95 73.15 25.85 77.35 23.95 72.6 22.4 68.0 26.75 63.75 32.7 62.65 M4.7 73.2 L4.25 76.2 Q3.3 81.7 2.45 84.5 1.8 74.5 -4.1 66.9 0.05 69.55 3.25 73.05 3.65 73.5 4.1 73.5 4.5 73.55 4.7 73.2 M7.45 57.95 Q-0.05 51.0 -11.7 48.4 L-11.9 47.85 Q-14.45 43.7 -15.4 38.9 -16.45 33.7 -15.1 29.65 L-15.05 29.45 -6.9 30.25 Q-6.7 37.5 -2.3 44.75 1.65 51.25 7.9 56.1 L7.45 57.95 M4.8 72.55 L4.5 71.95 Q-1.4 65.4 -9.5 62.2 -18.1 58.75 -26.4 60.3 L-25.7 53.4 -25.25 49.2 Q-16.15 48.9 -7.95 51.35 1.3 54.15 7.0 59.8 L4.8 72.55 M0.8 88.75 Q-0.75 91.7 -2.8 93.55 -4.7 84.55 -11.35 77.4 -17.85 70.4 -26.8 67.5 L-26.55 62.55 -26.2 62.55 Q-17.85 60.6 -8.9 64.4 L-8.8 64.5 Q-3.9 68.5 -1.4 75.1 0.9 81.3 0.45 87.9 0.45 88.4 0.8 88.75 M38.05 78.3 Q41.95 70.9 47.15 66.9 L47.4 66.55 58.2 67.6 Q61.7 67.8 63.95 67.55 L65.35 71.95 Q65.8 73.35 66.75 74.15 62.0 73.8 56.65 76.0 52.0 77.9 48.0 81.25 44.2 84.4 41.55 89.1 38.85 93.85 38.15 98.8 35.35 96.2 32.8 92.1 L32.85 92.0 Q34.9 84.3 38.05 78.3 M26.8 79.75 L27.2 79.5 Q29.85 75.7 33.8 72.75 37.65 69.85 42.15 68.25 35.25 75.7 31.25 89.45 29.25 85.7 26.8 79.75 M58.85 77.65 Q65.8 75.1 70.7 76.9 73.75 79.35 75.25 82.05 77.05 85.35 76.3 88.55 74.2 86.1 70.3 86.15 66.85 86.15 63.7 88.05 55.6 92.75 50.1 103.75 44.65 103.7 40.1 100.35 40.6 96.0 42.85 91.65 45.0 87.55 48.25 84.25 52.5 79.95 58.85 77.65 M67.2 98.5 Q60.45 102.9 52.75 103.65 56.15 97.55 61.0 93.0 64.15 90.0 68.4 88.6 73.9 86.75 75.6 90.5 73.7 94.25 67.2 98.5 M45.7 54.6 Q53.95 49.8 56.95 44.4 L60.75 57.1 Q53.35 57.4 45.7 54.6 M-35.65 -27.85 Q-34.3 -20.25 -29.5 -14.45 -24.45 -8.4 -17.3 -6.4 L-17.65 -1.95 Q-23.15 0.75 -26.55 6.0 -33.25 2.65 -37.2 -5.05 -40.75 -11.9 -41.2 -20.2 L-36.45 -26.9 -35.65 -27.85 M-24.6 -37.85 Q-24.55 -36.3 -23.7 -33.75 -22.25 -29.7 -18.15 -23.85 L-17.25 -22.65 -17.3 -22.2 Q-17.05 -20.45 -16.95 -16.9 -16.9 -13.35 -17.15 -8.35 -24.2 -10.25 -28.85 -16.35 -33.25 -22.2 -34.0 -29.75 -30.2 -33.75 -24.6 -37.85 M-39.75 -6.25 Q-37.25 -0.7 -33.35 3.2 -37.1 5.8 -42.1 4.7 -46.4 3.8 -50.3 0.65 -47.9 -8.7 -42.9 -17.4 -42.1 -11.5 -39.75 -6.25 M-15.8 0.8 L-15.55 1.2 Q-8.15 9.9 8.95 12.05 -5.8 17.65 -17.8 17.5 L-15.9 1.75 -15.8 0.8 M-31.5 21.35 L-31.5 22.95 Q-36.8 21.4 -41.7 23.05 -46.8 24.7 -49.55 29.25 -51.6 23.55 -52.05 17.4 -46.9 19.45 -41.0 18.8 -35.5 18.15 -30.45 15.2 -31.2 18.15 -31.5 21.35 M-40.3 16.45 Q-46.7 17.65 -52.1 15.4 -52.25 9.25 -50.75 2.5 -46.3 5.95 -41.55 6.85 -35.95 7.9 -31.75 5.0 L-31.6 4.8 -27.5 7.55 Q-28.6 9.45 -29.35 11.65 -34.35 15.35 -40.3 16.45 M-38.8 32.35 Q-37.4 28.65 -34.3 25.15 -34.0 24.85 -34.1 24.45 L-31.1 25.05 -30.45 26.9 Q-28.9 31.3 -29.3 34.65 -29.45 36.55 -30.85 37.8 -31.9 38.8 -33.95 39.6 -36.35 40.55 -38.75 40.4 -40.6 37.0 -38.8 32.35 M-17.2 29.1 Q-18.45 33.6 -17.4 38.85 -16.45 43.55 -13.85 47.95 L-24.95 47.05 Q-23.35 35.6 -19.8 28.55 L-17.2 29.1 M-48.25 31.7 Q-46.55 28.3 -43.4 26.4 -40.45 24.55 -36.75 24.35 -39.7 28.05 -40.9 31.75 -42.4 36.25 -40.9 39.9 -45.4 38.3 -48.4 31.95 L-48.25 31.7 M-43.65 70.35 Q-39.6 72.65 -36.15 76.95 -32.2 81.8 -31.75 88.05 -31.35 93.85 -34.05 99.85 L-35.85 99.6 Q-34.6 94.75 -36.1 89.7 -37.55 84.75 -41.15 81.15 -41.4 80.9 -41.75 80.8 -42.85 78.05 -44.8 75.75 -46.8 73.4 -49.3 72.05 -46.9 71.0 -43.65 70.35 M-50.95 73.25 Q-48.15 74.25 -45.9 77.0 -43.7 79.65 -42.8 82.85 -41.65 87.0 -43.7 90.25 -45.65 93.5 -49.85 94.5 -53.95 91.75 -55.95 88.25 -58.25 84.2 -57.15 79.85 -56.05 75.6 -51.35 73.0 L-50.95 73.25 M-41.5 91.25 Q-40.05 88.15 -40.75 84.15 -38.35 87.4 -37.6 91.35 -36.9 95.35 -38.0 99.2 -42.5 98.3 -46.6 96.35 L-47.15 96.1 Q-43.15 94.65 -41.5 91.25 M-34.95 71.45 Q-32.45 72.6 -30.45 74.1 -20.7 81.6 -21.1 99.9 L-21.6 99.95 Q-27.1 100.45 -31.65 100.1 -29.35 94.2 -29.75 88.5 -30.2 82.5 -33.7 77.4 -36.8 72.85 -41.1 69.9 L-40.2 69.75 -39.65 70.05 Q-37.65 70.25 -34.95 71.45 M-33.6 69.2 Q-30.6 69.05 -27.65 69.2 -18.8 71.8 -12.45 78.65 -5.9 85.7 -4.5 94.55 L-4.4 94.85 Q-9.65 98.4 -19.1 99.65 -19.0 82.05 -28.65 73.4 -31.6 70.8 -35.15 69.3 L-33.6 69.2" fill="#ffffff" fill-rule="evenodd" stroke="none"/>
  </g>
</svg>
