<?xml version="1.0" encoding="UTF-8" standalone="no"?>
<svg xmlns:ffdec="https://www.free-decompiler.com/flash" xmlns:xlink="http://www.w3.org/1999/xlink" ffdec:objectType="shape" height="147.6px" width="133.0px" xmlns="http://www.w3.org/2000/svg">
  <g transform="matrix(1.0, 0.0, 0.0, 1.0, 56.0, 47.95)">
    <path d="M35.7 -43.9 Q38.1 -43.1 41.25 -41.5 L41.3 -41.5 Q39.15 -28.15 30.55 -17.3 21.75 -6.2 9.35 -1.8 L9.3 -1.8 Q2.8 -4.85 -4.1 -9.25 L0.0 -10.75 Q7.7 -14.05 18.1 -21.45 24.45 -25.9 28.9 -31.1 34.4 -37.6 35.7 -43.9 M26.95 -43.4 L27.5 -45.35 Q27.6 -45.8 28.9 -45.6 L33.65 -44.6 Q31.3 -34.3 17.45 -23.9 L16.9 -23.5 Q12.1 -25.7 8.35 -28.95 12.2 -29.0 16.05 -30.95 19.6 -32.8 22.35 -35.85 24.85 -38.65 26.95 -43.4 M5.2 -29.5 Q9.65 -25.05 15.25 -22.3 11.25 -19.45 7.2 -17.1 L7.05 -17.2 Q-1.75 -20.55 -6.85 -29.2 -11.65 -37.35 -11.45 -47.2 L-11.5 -47.4 -9.15 -47.95 Q-6.55 -45.1 -3.2 -43.1 -1.1 -35.7 5.15 -29.55 L5.2 -29.5 M8.4 -35.45 Q11.85 -35.1 15.5 -36.15 19.15 -37.25 21.9 -39.45 18.8 -35.15 15.0 -33.0 10.65 -30.5 6.0 -31.1 1.2 -35.95 -0.85 -41.85 L-0.8 -41.85 Q0.3 -39.0 2.85 -37.3 5.2 -35.75 8.4 -35.45 M28.05 -8.3 Q27.0 -8.75 26.95 -7.8 26.9 -6.85 27.75 -6.45 31.35 -4.8 34.8 -2.2 L35.0 -0.95 24.8 4.1 24.7 4.1 Q18.4 2.3 12.25 -0.4 24.35 -5.3 32.85 -16.35 41.15 -27.25 43.25 -40.4 L46.9 -37.95 Q46.95 -27.95 44.7 -19.6 42.0 -9.5 36.35 -3.5 35.75 -4.1 35.2 -4.05 31.55 -6.7 28.05 -8.3 M57.95 -26.7 Q58.2 -21.1 57.85 -17.15 57.35 -11.8 55.6 -7.95 47.65 -4.25 41.7 -6.6 45.45 -12.65 47.3 -21.05 48.85 -28.2 48.9 -36.4 53.65 -32.55 57.95 -26.7 M54.3 -4.95 Q60.45 -7.1 66.25 -12.2 L67.55 -9.35 71.0 -0.55 Q63.15 7.55 53.25 6.7 L48.35 5.6 Q45.65 4.7 44.2 3.8 L43.45 3.6 Q40.85 0.6 38.0 -1.8 L40.65 -5.05 Q46.65 -2.25 54.3 -4.95 M60.05 -23.65 Q62.85 -19.3 65.2 -14.45 62.1 -11.65 58.55 -9.55 60.25 -15.1 60.05 -23.65 M74.45 11.3 Q72.5 13.4 70.05 14.45 67.35 15.7 65.0 15.15 66.95 10.75 67.4 5.9 L67.3 5.4 Q69.85 3.9 71.85 1.95 73.3 6.4 74.45 11.3 M70.0 17.0 Q72.7 16.2 75.1 14.05 76.0 18.3 76.4 22.0 73.25 25.1 68.5 25.05 64.35 25.05 60.1 22.7 62.4 20.3 64.15 16.9 66.95 17.85 70.0 17.0 M62.1 15.75 Q59.7 20.3 56.0 23.2 L55.1 21.35 52.0 15.6 Q53.5 13.25 55.45 9.15 L55.5 8.85 Q60.5 8.8 65.2 6.55 64.45 11.45 62.1 15.75 M45.2 18.95 Q39.65 19.15 33.85 21.8 29.25 23.9 23.75 27.95 L14.65 35.05 11.0 37.7 Q8.8 39.05 6.9 39.55 -1.1 36.3 -2.35 31.55 6.15 29.8 13.5 27.15 21.45 24.2 29.3 19.7 L29.5 19.75 Q34.85 20.1 43.7 17.0 L45.2 18.95 M48.8 23.75 Q42.45 27.1 37.75 31.35 32.3 36.25 29.65 41.85 L29.55 42.1 Q24.45 38.0 21.85 33.05 L21.6 32.7 23.5 31.15 Q29.55 26.45 34.35 24.15 40.75 21.05 46.8 21.05 L48.8 23.75 M53.1 8.75 L50.65 13.35 46.1 6.8 Q49.45 8.35 53.1 8.75 M52.15 29.3 Q49.4 34.7 50.05 37.4 L50.45 38.3 Q47.55 39.65 45.05 42.35 42.8 44.85 41.3 48.05 L37.0 46.45 Q34.4 45.45 31.4 43.45 L31.5 43.3 Q34.05 37.9 39.35 33.1 44.0 28.9 50.1 25.7 L51.95 29.1 52.15 29.3 M52.55 34.35 Q53.2 32.35 54.85 29.05 56.45 26.8 56.75 25.65 L58.8 24.0 Q62.45 26.25 66.4 26.95 70.75 27.7 74.25 26.25 69.85 33.2 60.4 35.9 58.0 36.85 55.55 37.2 L55.35 37.15 53.1 37.45 52.25 37.35 Q51.8 37.25 52.1 35.85 L52.55 34.35 M47.6 43.15 Q50.35 40.5 53.45 39.65 L54.5 39.65 58.15 56.05 Q56.15 54.65 53.15 52.85 49.8 50.95 43.5 48.8 45.15 45.5 47.6 43.15 M58.8 38.85 Q57.7 41.5 57.3 43.65 L56.35 39.45 58.8 38.85 M77.0 28.9 Q77.15 34.5 76.2 38.4 73.05 39.55 70.3 39.35 66.8 39.1 65.25 36.7 73.05 33.35 76.85 26.5 L77.0 28.9 M63.6 37.3 Q65.35 40.15 68.8 41.05 71.8 41.85 75.4 41.05 73.6 45.9 69.35 49.3 67.3 51.0 64.85 51.6 61.85 52.3 60.2 50.55 57.05 47.3 61.8 37.9 L63.6 37.3 M35.05 16.2 Q38.95 13.65 40.3 12.2 L42.2 15.05 Q36.95 16.9 33.1 17.45 L35.05 16.2 M39.05 10.05 L34.4 13.8 Q25.55 19.85 13.25 24.75 -3.1 31.2 -22.15 31.5 L-19.8 17.7 Q-11.8 18.75 -1.8 16.35 5.05 14.75 15.45 10.65 25.9 6.6 35.5 1.4 36.7 5.7 39.05 10.05 M8.95 10.7 Q1.0 9.6 -5.4 6.9 -13.25 3.7 -17.6 -1.4 -17.1 -9.65 -17.1 -16.25 3.15 -0.7 22.15 5.3 L16.3 7.8 8.95 10.7 M7.4 42.0 L10.55 44.7 Q9.85 45.85 9.3 47.9 L8.6 51.15 7.65 55.75 7.6 55.7 Q1.75 49.8 -1.7 45.1 -6.5 38.45 -8.0 32.5 L-4.15 31.9 Q-2.45 36.85 4.75 40.55 7.2 41.8 7.4 42.0 M12.05 43.75 L9.15 41.3 Q11.85 40.35 15.0 38.1 L20.3 33.8 Q24.5 41.6 33.65 46.85 36.5 48.5 42.1 50.3 48.15 52.3 50.65 53.55 55.35 55.95 58.8 58.7 L60.25 64.15 Q53.8 58.7 44.0 56.2 27.5 52.05 17.1 47.95 L15.75 46.8 14.35 45.75 12.65 44.25 12.05 43.75 M39.45 57.15 L45.6 58.8 Q34.15 61.3 20.9 72.75 19.75 68.55 18.85 62.0 28.35 56.75 34.8 56.0 L35.0 55.95 39.45 57.15 M17.9 50.25 Q23.25 52.3 30.45 54.6 25.5 55.8 18.55 59.5 L17.9 51.3 17.9 50.25 M6.8 60.0 L5.35 67.6 Q-0.3 61.85 -9.0 59.65 -17.0 57.6 -25.6 59.0 L-24.55 49.35 -12.4 49.85 Q-5.9 50.65 -1.8 52.4 4.0 54.85 6.15 59.4 6.35 59.85 6.8 60.0 M7.35 57.2 L7.25 57.75 6.85 57.15 7.35 57.2 M4.95 69.55 L3.3 77.2 Q1.05 69.05 -5.45 62.7 0.75 65.0 4.8 69.4 L4.95 69.55 M2.25 81.35 Q0.65 87.35 -0.7 89.75 -3.35 81.2 -10.45 74.8 -17.4 68.5 -26.35 66.3 L-25.85 61.3 Q-17.3 59.55 -9.2 61.55 L-8.85 61.9 Q-4.4 65.45 -1.5 70.35 1.5 75.5 2.1 80.9 L2.25 81.35 M22.0 76.45 L21.65 75.3 21.7 75.25 Q33.7 64.75 43.85 61.65 37.7 66.1 33.05 72.15 28.3 78.35 25.85 85.2 L25.85 85.55 Q23.9 81.75 22.0 76.45 M27.75 86.65 Q30.65 78.55 36.6 71.55 42.6 64.5 50.2 60.4 57.1 63.05 61.1 67.25 L61.9 70.0 62.7 71.25 Q58.05 70.65 52.6 72.45 47.85 74.0 43.65 76.95 39.4 79.95 36.35 84.65 33.3 89.45 32.35 94.55 29.1 91.55 26.4 86.6 26.75 86.95 27.15 87.0 27.6 87.05 27.75 86.65 M37.45 87.55 Q39.75 83.5 43.2 80.4 47.85 76.2 54.2 74.25 61.45 72.0 66.65 74.35 69.4 76.85 70.7 79.85 72.2 83.25 71.3 86.25 69.4 83.8 65.55 83.6 62.2 83.45 58.9 84.9 50.8 88.45 43.95 99.65 L43.3 99.6 Q38.3 99.15 34.25 96.15 34.95 91.8 37.45 87.55 M70.4 88.15 L70.25 88.45 Q66.95 93.45 59.95 96.55 53.6 99.35 46.75 99.65 50.5 94.0 55.7 89.7 59.05 86.95 63.35 85.85 68.9 84.4 70.4 88.15 M-16.4 -45.65 L-13.45 -46.8 Q-13.4 -36.95 -8.5 -28.6 -3.4 -19.85 5.2 -16.0 L-0.7 -13.0 Q-4.95 -11.2 -6.45 -10.95 L-6.65 -10.9 Q-12.1 -14.5 -17.15 -18.4 L-17.3 -22.8 Q-17.4 -24.5 -18.05 -25.95 L-19.65 -28.85 -22.4 -34.55 Q-23.75 -38.0 -23.4 -40.7 L-23.3 -41.05 -23.3 -41.1 Q-22.75 -42.25 -20.0 -43.8 L-16.4 -45.65 M-28.7 -36.45 L-25.45 -39.25 Q-25.3 -37.2 -24.0 -33.85 -22.45 -29.9 -19.45 -25.1 -19.25 -24.75 -19.2 -23.45 L-19.25 -21.55 -19.15 -14.65 -19.15 -14.5 Q-24.3 -15.55 -28.45 -20.75 -31.8 -24.9 -33.95 -30.9 L-28.7 -36.45 M-19.7 -1.45 L-19.75 -0.95 Q-22.7 1.45 -24.65 4.7 -31.7 1.7 -36.15 -5.85 -40.1 -12.65 -40.9 -21.05 -38.5 -25.15 -35.25 -29.35 -32.75 -23.1 -29.05 -18.85 -24.6 -13.65 -19.2 -12.5 -19.35 -7.3 -19.65 -2.15 -19.85 -1.85 -19.7 -1.45 M-38.85 -7.25 Q-36.1 -1.8 -32.1 1.95 -35.7 4.65 -40.75 3.8 -45.05 3.1 -49.0 0.15 -47.05 -9.35 -42.45 -18.25 -41.4 -12.4 -38.85 -7.25 M-18.05 4.15 L-17.8 0.9 Q-10.05 8.9 5.1 12.05 -9.1 16.85 -19.5 15.7 -18.4 8.75 -18.05 4.15 M-27.1 9.7 L-27.15 9.7 Q-32.0 13.8 -38.1 15.35 -44.65 17.0 -50.35 14.9 -50.55 9.65 -49.7 3.9 L-49.35 2.05 Q-44.8 5.3 -40.05 5.95 -34.5 6.75 -30.45 3.7 L-30.3 3.5 Q-28.1 5.15 -25.6 6.3 L-27.1 9.7 M-32.05 23.2 L-29.2 23.65 -28.25 25.5 Q-26.35 30.4 -26.85 33.75 -27.2 36.5 -30.3 38.05 -32.95 39.35 -36.05 39.2 -37.95 35.9 -36.35 31.2 -35.15 27.55 -32.2 23.95 -31.95 23.65 -32.05 23.2 M-29.45 21.6 Q-34.85 20.3 -39.65 22.1 -44.7 24.0 -47.25 28.7 L-48.2 26.25 Q-49.8 21.8 -50.2 16.9 -44.85 18.8 -38.9 17.8 -33.3 16.85 -28.3 13.55 -29.3 17.35 -29.45 21.6 M-22.5 33.6 L-20.25 33.55 Q-21.75 38.65 -17.65 47.15 -21.15 47.0 -24.25 47.15 L-22.5 33.6 M-38.2 38.85 Q-42.7 37.6 -46.05 31.3 L-45.9 31.1 Q-44.3 27.6 -41.25 25.55 -38.35 23.6 -34.65 23.25 -37.45 27.05 -38.5 30.75 -39.8 35.3 -38.2 38.85 M-9.85 32.75 Q-7.5 41.75 2.2 52.45 -4.15 48.05 -15.7 47.25 -20.2 38.05 -17.75 33.5 L-9.85 32.75 M-46.9 72.1 Q-45.3 71.35 -42.95 70.55 -38.7 72.65 -35.05 76.45 -30.75 81.0 -29.8 87.2 -28.9 92.95 -31.1 99.15 L-33.0 99.0 Q-32.2 94.0 -34.05 89.1 -35.95 84.2 -39.9 80.9 L-40.4 80.65 Q-43.25 75.05 -48.25 72.75 L-46.9 72.1 M-50.2 74.0 Q-47.1 74.85 -44.65 77.35 -42.4 79.65 -41.25 82.8 -39.75 86.9 -41.5 90.35 -43.2 93.75 -47.3 95.05 L-47.35 95.05 Q-51.55 92.7 -53.8 89.55 -56.4 85.9 -55.9 81.65 -55.3 77.2 -50.35 73.95 L-50.2 74.0 M-44.5 96.45 Q-40.7 94.65 -39.3 91.15 -38.1 87.9 -39.1 84.0 -36.45 86.95 -35.35 90.9 -34.3 94.9 -35.1 98.8 -39.25 98.25 -43.05 97.0 L-44.5 96.45 M-27.2 68.1 Q-18.1 70.05 -11.25 76.35 -4.2 82.85 -2.1 91.65 L-2.15 91.75 Q-6.4 96.15 -16.25 98.0 -17.55 79.95 -28.15 72.1 -31.25 69.85 -34.75 68.7 L-27.2 68.1 M-39.15 69.9 Q-34.45 69.95 -29.3 73.4 -19.25 80.25 -18.25 98.35 L-18.85 98.45 -28.8 99.2 Q-26.95 93.2 -27.8 87.65 -28.65 81.85 -32.45 76.95 -35.65 72.75 -40.5 69.85 L-39.75 69.65 -39.15 69.9" fill="#ffffff" fill-rule="evenodd" stroke="none"/>
  </g>
</svg>
