<?xml version="1.0" encoding="UTF-8" standalone="no"?>
<svg xmlns:ffdec="https://www.free-decompiler.com/flash" xmlns:xlink="http://www.w3.org/1999/xlink" ffdec:objectType="shape" height="160.85px" width="92.65px" xmlns="http://www.w3.org/2000/svg">
  <g transform="matrix(1.0, 0.0, 0.0, 1.0, 34.15, 47.15)">
    <path d="M12.65 -38.25 Q11.05 -35.5 8.4 -33.8 5.7 -32.0 2.6 -31.75 2.05 -31.75 1.95 -31.2 0.9 -22.7 1.8 -15.3 -3.15 -26.1 -5.0 -38.6 -1.55 -35.85 4.6 -36.8 9.6 -37.6 13.1 -39.95 L12.65 -38.25 M15.0 -37.7 Q15.6 -31.65 20.35 -24.1 27.75 -12.6 31.65 -2.95 33.9 2.55 34.7 6.7 35.8 12.3 34.7 16.7 L24.75 19.25 20.25 20.15 Q22.65 16.45 22.9 10.55 23.1 5.85 21.95 0.65 18.05 -11.9 16.25 -18.25 13.0 -29.55 14.9 -37.5 L15.0 -37.7 M27.55 -45.5 Q31.5 -44.2 35.0 -40.65 37.55 -38.1 40.7 -34.0 L45.95 -27.0 Q39.65 -27.5 34.45 -25.7 28.3 -23.55 25.75 -18.65 22.05 -24.4 20.4 -27.4 17.6 -32.6 17.15 -37.1 17.0 -39.0 17.4 -41.1 17.9 -43.35 18.85 -44.5 L19.0 -44.8 Q23.0 -46.95 27.55 -45.5 M-15.75 -31.2 Q-16.75 -31.55 -16.65 -30.5 L-16.15 -26.8 -20.0 -27.4 Q-19.55 -27.5 -19.65 -28.1 -20.25 -42.95 -14.35 -45.85 -13.6 -46.2 -14.1 -47.15 L-10.95 -44.8 Q-12.15 -32.9 -9.45 -20.75 -6.75 -8.35 -0.6 1.6 -5.5 5.9 -5.5 10.4 -5.55 14.55 -1.7 17.9 1.3 20.5 5.95 22.1 8.35 22.95 11.6 23.0 L17.35 22.7 18.05 22.6 18.45 22.55 Q25.95 21.75 34.9 18.9 42.75 16.35 47.2 14.1 L46.9 19.15 Q42.45 23.9 31.85 26.8 22.4 29.4 9.4 28.7 4.9 28.45 0.65 27.25 -4.15 25.9 -7.4 23.6 L-8.5 23.5 -6.5 18.45 Q-6.1 18.4 -6.05 17.9 -5.35 12.35 -6.6 5.6 L-9.5 -6.4 -11.95 -15.85 -14.0 -25.45 -14.0 -25.55 -14.65 -30.0 Q-14.75 -30.85 -15.75 -31.2 M-7.2 -40.45 Q-5.9 -30.45 -2.5 -21.2 1.1 -11.35 6.55 -3.65 3.35 -1.7 0.7 0.45 -5.0 -9.05 -7.55 -20.75 -10.05 -32.25 -9.0 -43.5 -8.35 -41.75 -7.2 -40.45 M4.55 -10.2 Q3.25 -16.1 3.5 -24.05 L3.9 -29.7 Q8.55 -30.3 12.05 -33.65 11.9 -29.15 13.15 -23.45 14.0 -19.55 15.85 -13.85 L17.4 -9.1 Q12.05 -6.75 8.0 -4.5 6.4 -6.65 4.6 -9.85 L4.55 -10.2 M-26.95 -25.45 Q-28.3 -26.5 -30.0 -26.6 -29.4 -27.6 -27.85 -27.2 L-25.5 -26.3 Q-23.6 -25.55 -20.75 -25.2 L-15.75 -24.7 Q-15.0 -20.55 -12.9 -12.35 L-17.25 -12.8 -21.45 -14.0 Q-23.55 -14.6 -24.3 -17.6 L-25.15 -22.55 Q-25.65 -24.35 -26.95 -25.45 M-20.2 -11.6 Q-15.15 -10.15 -12.35 -10.2 L-11.65 -7.4 -20.95 -10.15 -23.05 -11.6 -25.55 -11.65 Q-26.7 -11.2 -27.6 -10.15 -32.75 -10.45 -33.9 -15.55 -35.0 -20.5 -31.35 -23.95 L-31.25 -24.1 Q-28.05 -25.55 -26.8 -21.5 -26.1 -19.25 -25.15 -14.85 -24.5 -13.55 -23.05 -12.7 -22.1 -12.2 -20.2 -11.6 M-23.15 -9.55 Q-22.75 -8.7 -22.2 -8.55 L-21.5 -8.3 -21.45 -7.85 -22.3 -2.4 Q-24.0 8.35 -24.9 16.65 -26.35 29.2 -25.0 37.4 -24.3 41.55 -22.3 45.95 -20.65 49.4 -20.3 50.5 -19.5 52.95 -19.65 55.35 -19.75 56.15 -18.7 56.75 -17.7 57.35 -17.65 56.4 -17.35 59.35 -16.35 61.95 -17.2 61.55 -17.35 62.4 -19.35 72.55 -21.5 86.85 L-25.1 111.45 -25.35 112.65 -26.6 113.3 Q-28.85 114.35 -31.0 112.7 L-30.95 112.45 Q-30.05 104.7 -27.8 91.85 -24.25 72.2 -23.35 57.3 -23.2 54.65 -24.15 52.2 -24.45 51.3 -26.45 47.45 -30.8 39.0 -29.6 25.1 -28.7 13.9 -26.0 -8.4 L-24.55 -9.55 Q-24.05 -9.8 -23.15 -9.55 M-11.1 -5.25 L-8.9 3.4 Q-7.9 8.25 -7.8 12.15 L-7.9 12.1 Q-11.4 10.1 -15.2 10.15 -19.25 10.2 -22.3 12.55 L-22.1 10.95 -19.45 -6.85 -19.45 -7.75 -11.1 -5.25 M-21.0 19.85 Q-21.8 20.65 -23.25 20.65 L-22.65 15.1 Q-22.05 15.45 -21.6 15.1 -18.85 12.55 -15.1 12.3 -11.55 12.1 -8.2 13.95 L-7.85 14.1 -7.95 16.0 -11.95 26.25 -14.05 26.1 -14.5 25.9 Q-14.2 25.35 -14.8 24.65 -15.4 24.0 -15.95 24.1 L-16.95 22.05 Q-18.05 19.05 -17.65 15.85 -17.55 15.05 -18.55 14.45 -19.55 13.85 -19.65 14.85 -20.2 19.1 -18.4 23.1 -17.9 24.4 -16.95 25.5 L-18.8 27.5 Q-19.8 28.25 -21.35 27.9 -22.95 27.55 -23.3 26.45 L-23.65 25.9 -23.45 22.7 Q-20.8 23.1 -19.45 21.65 -18.85 21.05 -19.65 20.15 -20.45 19.25 -21.0 19.85 M6.65 -0.9 Q11.15 -3.75 18.1 -6.85 20.35 0.3 20.7 5.4 21.45 14.5 18.1 19.05 17.25 13.45 13.95 9.3 10.4 4.85 5.05 3.7 L3.55 1.3 6.65 -0.9 M3.35 4.15 Q3.35 4.85 3.9 5.3 5.2 8.4 5.1 12.05 5.0 15.5 3.6 18.75 L3.55 19.1 Q1.45 18.1 -0.2 16.9 -4.4 13.65 -3.05 9.4 -2.0 6.05 2.25 2.4 L3.35 4.15 M7.1 12.9 Q7.2 9.25 6.05 5.95 10.7 7.3 13.45 11.55 16.0 15.45 16.3 20.65 10.1 21.25 5.6 19.85 6.95 16.5 7.1 12.9 M-8.25 25.15 Q-0.75 30.4 10.85 31.15 20.35 31.75 31.05 29.35 40.95 27.2 46.4 22.85 45.85 26.6 44.9 30.15 43.75 34.5 41.05 39.15 L35.65 47.4 30.55 54.35 Q27.45 58.25 24.5 60.5 24.25 60.7 24.3 61.1 L24.5 61.7 28.0 67.6 30.8 73.15 Q32.25 76.8 31.6 79.0 L31.55 79.25 Q27.35 83.55 21.0 85.7 14.9 87.8 9.1 87.1 2.2 77.4 -0.95 68.1 -3.2 61.55 -1.6 53.75 -0.1 46.55 4.15 40.35 4.6 39.65 3.7 38.9 2.8 38.15 2.3 38.9 -2.05 45.15 -3.55 52.65 -5.15 60.55 -3.05 67.45 L-2.1 70.3 Q-5.9 69.75 -8.9 68.1 -12.35 66.2 -14.0 63.25 -15.95 59.8 -15.95 54.5 -15.95 51.0 -15.0 45.45 -14.2 40.45 -12.35 34.4 L-12.0 34.3 Q-11.55 34.15 -11.55 33.7 -11.5 33.3 -11.85 32.9 L-10.35 28.35 Q-9.6 28.3 -10.0 27.4 L-8.8 24.2 -8.25 25.15 M-17.65 29.65 Q-16.25 28.85 -15.25 27.25 L-14.4 27.9 -12.7 28.35 -14.1 32.5 Q-16.55 33.1 -17.3 31.55 L-17.65 30.15 -17.65 29.65 M52.7 -18.55 Q55.8 -14.0 57.25 -10.0 50.65 -13.0 43.75 -13.8 36.2 -14.65 29.85 -12.7 33.4 -16.65 40.25 -18.15 L52.4 -18.55 52.7 -18.55 M54.95 5.4 Q50.7 10.05 43.15 13.5 46.8 5.85 45.9 -0.9 50.5 1.6 55.0 5.4 L54.95 5.4 M56.05 4.05 Q42.2 -7.65 32.25 -6.2 L30.25 -10.4 Q36.65 -12.6 44.35 -11.65 51.4 -10.85 57.95 -7.65 59.65 -0.85 56.05 4.05 M51.1 -20.75 L38.8 -20.2 Q32.0 -18.6 28.2 -14.35 L27.15 -16.2 Q29.45 -21.55 35.85 -23.75 41.25 -25.6 47.6 -24.8 L47.75 -24.8 51.1 -20.75 M39.95 14.85 L37.05 15.9 Q37.85 10.45 35.4 2.25 L33.1 -4.1 Q37.65 -4.85 43.8 -1.95 45.05 5.55 40.05 14.45 L39.95 14.85 M48.2 46.1 Q47.75 46.2 47.8 46.8 48.0 50.35 45.45 53.25 43.2 55.75 39.6 57.15 40.05 52.35 39.0 46.75 L42.05 41.95 42.8 42.05 Q43.75 41.75 44.95 42.35 46.05 42.85 46.9 43.85 47.65 44.7 48.2 46.1 M29.95 67.65 Q33.8 64.25 32.6 55.6 L37.4 49.0 Q38.25 55.35 36.85 60.25 35.15 66.3 30.45 68.65 L29.95 67.65 M28.8 65.45 L26.6 61.85 30.85 57.75 Q31.05 62.95 28.8 65.45 M49.5 50.45 L49.85 52.35 49.5 52.85 Q48.8 58.4 46.2 63.3 43.4 68.55 39.15 71.65 L38.95 71.85 Q35.0 73.35 32.35 72.2 L32.1 72.15 31.45 70.8 Q37.65 67.9 39.2 59.55 L39.65 59.55 Q43.2 58.5 45.85 56.2 48.7 53.7 49.5 50.45 M50.4 64.1 L46.5 67.4 Q49.05 63.45 50.45 58.95 L50.4 64.1 M48.6 75.7 Q38.95 83.7 33.8 80.85 L33.6 80.3 Q34.25 77.75 33.05 74.45 39.75 76.4 50.2 67.45 49.95 71.55 48.9 75.55 L48.6 75.7 M33.15 86.55 Q32.9 88.55 28.6 91.4 L28.15 90.65 27.3 89.95 Q26.7 89.7 26.4 90.2 22.2 97.15 16.75 101.1 10.25 105.8 3.1 105.4 1.8 105.3 2.0 104.45 L2.95 102.45 Q3.75 100.65 6.05 97.1 7.95 94.0 10.75 90.2 11.05 89.85 10.65 89.25 16.5 89.7 22.1 87.85 27.8 86.0 32.0 82.15 L32.85 84.35 Q33.25 85.6 33.15 86.55 M34.85 84.55 L34.5 83.2 Q39.75 85.1 47.65 79.45 45.65 84.55 42.7 87.05 39.1 90.1 34.4 89.1 L34.7 88.7 Q35.25 87.85 35.2 86.65 L34.85 84.55" fill="#ffffff" fill-rule="evenodd" stroke="none"/>
  </g>
</svg>
