<?xml version="1.0" encoding="UTF-8" standalone="no"?>
<svg xmlns:ffdec="https://www.free-decompiler.com/flash" xmlns:xlink="http://www.w3.org/1999/xlink" ffdec:objectType="shape" height="154.35px" width="90.7px" xmlns="http://www.w3.org/2000/svg">
  <g transform="matrix(1.0, 0.0, 0.0, 1.0, 34.1, 44.85)">
    <path d="M26.95 -44.2 Q30.8 -42.9 34.05 -39.5 36.6 -36.8 39.7 -32.4 L44.85 -25.0 Q38.6 -25.7 33.35 -24.1 27.15 -22.15 24.4 -17.4 20.9 -23.3 19.4 -26.4 16.8 -31.65 16.5 -36.15 16.4 -38.15 16.85 -40.0 17.35 -42.2 18.5 -43.45 L18.65 -43.8 Q22.5 -45.7 26.95 -44.2 M-7.75 -40.65 Q-6.85 -30.6 -3.8 -21.1 -0.55 -11.05 4.65 -3.1 L-1.35 0.8 Q-6.7 -8.9 -8.8 -20.7 -10.85 -32.25 -9.35 -43.5 L-9.25 -43.45 Q-8.7 -41.85 -7.75 -40.65 M2.55 -29.7 Q7.6 -30.0 11.4 -33.85 10.55 -26.15 13.75 -15.0 L15.7 -8.15 Q9.5 -5.65 6.15 -3.9 L3.55 -8.25 3.6 -8.9 Q2.25 -14.7 2.35 -24.0 L2.55 -29.35 2.55 -29.7 M-11.5 -43.45 Q-12.8 -31.9 -10.55 -20.05 -8.25 -8.0 -2.7 1.85 -7.75 6.15 -7.95 10.6 -8.1 14.65 -4.35 18.2 -1.3 21.05 3.15 22.6 7.35 24.1 14.45 23.6 L15.2 23.55 15.45 23.55 Q22.7 23.05 31.85 20.55 38.35 18.8 43.4 16.7 43.15 20.55 42.15 25.1 28.6 29.2 14.8 29.15 -0.3 29.1 -12.35 24.05 L-12.7 23.7 -13.65 23.1 Q-11.8 19.4 -10.95 16.95 -9.75 13.45 -9.7 10.45 -9.6 5.8 -11.5 -2.9 -13.85 -13.05 -17.55 -23.3 -17.8 -24.15 -18.8 -24.25 -19.75 -24.4 -19.45 -23.4 L-21.9 -23.6 Q-23.45 -35.75 -17.1 -40.9 -14.6 -42.9 -11.5 -43.45 M1.25 -31.75 Q0.7 -31.75 0.6 -31.2 -0.2 -21.35 0.8 -13.85 -4.15 -25.3 -5.6 -38.65 -2.6 -35.85 3.75 -36.7 9.2 -37.4 12.65 -39.7 10.85 -36.2 8.05 -34.1 4.9 -31.75 1.25 -31.75 M-23.15 -21.6 L-18.75 -21.25 Q-16.85 -15.8 -15.1 -9.55 L-18.35 -9.65 -21.6 -10.4 Q-23.35 -10.8 -24.3 -13.9 -25.1 -17.4 -25.65 -18.5 -26.45 -20.15 -27.8 -21.05 -29.15 -21.95 -30.75 -21.85 -29.95 -22.95 -27.5 -22.25 L-23.15 -21.6 M-26.6 -5.8 Q-31.6 -5.55 -33.45 -10.25 -35.2 -14.8 -32.1 -18.75 L-31.8 -19.2 -31.7 -19.2 Q-28.75 -20.95 -26.95 -16.8 L-24.3 -10.2 Q-23.4 -8.95 -21.45 -8.35 L-18.05 -7.6 -14.55 -7.4 -13.25 -2.15 -18.1 -2.35 Q-18.0 -4.0 -18.55 -4.75 -20.4 -7.1 -22.55 -7.6 -25.0 -8.15 -26.6 -5.8 M-20.5 -4.5 L-20.25 -4.55 -20.25 -4.25 -20.35 -3.05 -21.25 7.25 Q-21.8 16.45 -21.75 19.3 -21.65 26.35 -19.85 31.05 L-19.15 31.8 Q-21.75 42.85 -17.55 51.85 L-17.8 53.65 Q-21.9 47.75 -23.4 42.1 -24.95 36.45 -25.1 28.3 L-25.0 14.3 -24.9 -4.1 Q-24.05 -5.45 -22.9 -5.6 -21.7 -5.75 -20.5 -4.5 M-11.7 8.3 L-11.75 10.5 Q-15.25 8.05 -19.25 8.2 L-18.75 1.7 -18.35 -0.5 -17.75 -0.25 -12.8 -0.05 Q-11.9 4.4 -11.7 8.3 M-17.05 13.25 Q-18.05 12.65 -18.3 13.6 -19.3 16.75 -18.0 19.9 -18.6 20.5 -19.55 20.6 L-19.55 17.1 -19.35 10.25 -19.1 10.3 Q-15.15 10.0 -12.05 12.45 -12.75 15.95 -15.35 21.3 -17.45 18.25 -16.3 14.6 -16.05 13.8 -17.05 13.25 M1.65 5.7 Q2.85 8.85 2.6 12.5 2.35 16.0 0.85 19.25 L0.8 19.5 Q-0.65 18.85 -2.3 17.6 -6.75 14.2 -5.4 9.85 -4.35 6.4 0.1 2.75 L1.15 4.55 Q1.15 5.2 1.65 5.7 M1.45 1.75 L3.3 0.45 Q7.9 -2.5 16.3 -5.9 18.2 0.9 18.45 6.1 19.0 15.35 15.35 20.0 14.7 14.35 11.55 10.15 8.15 5.55 2.9 4.2 L1.45 1.75 M4.6 13.45 Q4.85 9.8 3.8 6.45 8.4 7.9 11.0 12.35 13.35 16.4 13.45 21.6 7.45 21.95 2.85 20.35 4.35 17.0 4.6 13.45 M-4.55 31.7 Q-8.75 35.1 -11.9 39.45 -15.3 44.1 -16.8 49.0 -18.75 43.5 -18.0 37.25 -17.4 32.3 -14.9 25.6 L-14.85 25.55 -14.6 25.0 Q-2.4 30.7 13.15 31.2 27.35 31.6 41.5 27.65 39.8 33.8 35.25 38.65 L34.9 39.05 31.6 42.15 Q22.5 49.75 8.45 56.15 7.6 56.55 8.25 57.55 8.85 58.55 9.6 58.2 L11.8 57.2 Q15.0 62.4 16.95 70.75 L17.95 75.75 18.05 76.5 Q8.45 90.15 2.6 87.0 L2.4 86.9 Q-0.55 84.9 -4.45 80.5 -12.85 70.95 -15.2 62.2 L-15.25 61.7 Q-15.35 58.75 -16.05 56.8 -16.1 50.5 -12.05 43.8 -8.5 38.0 -3.0 33.5 -2.3 33.0 -3.1 32.1 -3.85 31.2 -4.55 31.7 M55.55 -7.5 Q49.15 -10.75 42.25 -11.8 34.75 -12.95 28.3 -11.25 32.2 -15.25 39.05 -16.45 44.8 -17.45 51.1 -16.25 L51.3 -16.25 Q54.25 -11.7 55.55 -7.5 M53.85 6.5 Q40.35 -5.85 30.45 -4.7 L28.6 -8.95 Q35.1 -10.9 42.75 -9.7 49.75 -8.6 56.2 -5.2 57.65 1.7 53.85 6.5 M49.8 -18.5 Q43.25 -19.5 37.5 -18.45 30.6 -17.1 26.7 -13.0 L25.75 -14.85 Q28.2 -20.1 34.7 -22.1 40.2 -23.75 46.5 -22.7 L46.6 -22.7 47.05 -22.15 49.8 -18.5 M14.8 -17.5 Q12.0 -29.1 14.35 -36.95 14.7 -30.75 19.25 -23.0 26.35 -10.8 29.7 -1.45 31.7 4.1 32.4 8.2 33.25 13.8 32.05 18.15 28.1 19.3 23.05 20.3 L17.45 21.2 Q20.0 17.65 20.45 11.7 20.8 7.0 19.85 1.7 19.2 -1.95 17.5 -7.85 L14.8 -17.5 M41.85 0.0 Q42.8 7.55 37.4 16.25 L37.35 16.4 34.45 17.4 Q35.4 12.05 33.25 3.85 L31.25 -2.55 Q36.05 -3.1 41.85 -0.15 L41.85 0.0 M43.9 1.0 Q48.45 3.75 52.7 7.75 48.9 11.65 40.8 15.05 44.6 7.5 43.9 1.0 M39.1 46.3 L39.0 46.55 Q38.7 50.45 35.9 53.35 33.3 56.05 29.4 57.15 30.45 51.9 29.8 46.55 L33.15 43.95 36.15 41.25 Q37.9 43.1 39.1 46.3 M27.95 47.85 Q28.4 54.65 26.25 59.9 23.75 66.2 18.2 68.2 L17.95 67.25 18.15 67.1 Q21.2 64.8 22.15 60.15 22.9 56.35 22.2 51.85 L22.1 51.65 27.95 47.85 M20.35 52.7 Q21.25 61.05 17.15 64.8 15.65 60.15 13.35 56.45 L20.35 52.7 M29.5 59.45 Q33.2 58.65 36.1 56.4 39.15 54.0 40.35 50.65 L40.75 52.4 Q40.35 52.5 40.3 52.9 38.85 59.0 37.25 62.7 34.9 68.25 31.5 70.85 26.9 72.55 19.1 71.7 L19.0 71.4 18.8 70.5 Q26.2 68.15 28.8 59.35 L29.5 59.45 M42.0 64.2 Q40.8 67.85 35.95 69.75 39.3 65.45 41.5 57.1 L42.1 64.1 42.0 64.2 M40.1 78.45 Q37.55 85.8 32.6 87.65 30.6 88.4 27.85 88.3 24.7 88.2 23.25 86.95 23.25 84.1 22.1 80.65 26.7 82.0 31.4 81.5 36.3 80.95 40.1 78.45 M32.65 72.8 Q38.8 72.05 41.95 68.75 L41.15 74.55 Q37.4 78.3 31.75 79.25 26.45 80.1 21.1 78.35 L20.15 76.9 20.2 77.1 20.05 76.6 19.5 73.75 23.8 73.95 Q28.95 73.95 32.2 72.7 L32.65 72.8 M14.35 90.85 Q6.5 104.85 -2.0 108.2 -5.55 109.6 -4.5 103.9 -3.8 99.95 -2.15 96.5 -0.1 92.45 2.65 89.0 9.55 92.3 19.35 78.75 21.05 81.4 21.15 87.55 L21.05 87.65 17.4 92.05 15.7 90.8 14.35 90.85 M-10.65 90.75 L-11.1 105.1 -11.2 108.2 -13.3 109.25 -16.35 109.15 -16.95 108.85 -16.05 96.4 Q-14.9 81.65 -15.1 67.8 -13.25 71.6 -9.8 76.4 L-10.65 90.75" fill="#ffffff" fill-rule="evenodd" stroke="none"/>
  </g>
</svg>
