<?xml version="1.0" encoding="UTF-8" standalone="no"?>
<svg xmlns:ffdec="https://www.free-decompiler.com/flash" xmlns:xlink="http://www.w3.org/1999/xlink" ffdec:objectType="shape" height="162.4px" width="93.25px" xmlns="http://www.w3.org/2000/svg">
  <g transform="matrix(1.0, 0.0, 0.0, 1.0, 34.9, 48.0)">
    <path d="M18.3 -39.3 Q18.15 -41.3 18.6 -43.15 19.1 -45.35 20.25 -46.65 L20.45 -46.95 Q24.25 -48.85 28.7 -47.35 32.55 -46.05 35.8 -42.65 38.35 -39.95 41.45 -35.55 L46.6 -28.15 Q40.35 -28.85 35.1 -27.25 28.9 -25.3 26.15 -20.55 L21.15 -29.55 Q18.55 -34.8 18.3 -39.3 M13.15 -36.9 Q11.25 -34.65 8.85 -33.35 6.2 -31.9 3.5 -31.9 2.95 -31.9 2.85 -31.35 1.9 -23.25 2.75 -15.9 -3.0 -26.9 -6.5 -40.1 -3.8 -36.95 1.1 -36.55 4.3 -36.25 7.65 -37.2 11.05 -38.15 13.7 -40.1 L13.15 -36.9 M-16.15 -32.4 Q-17.15 -32.95 -17.25 -32.0 L-17.75 -26.45 -22.15 -26.65 -22.1 -26.85 Q-22.45 -33.2 -21.25 -38.05 -19.55 -44.85 -15.0 -46.9 L-14.75 -47.05 -13.6 -46.1 Q-13.3 -31.25 -7.85 -16.3 -8.3 -8.2 -9.4 -0.65 L-10.05 3.7 Q-10.55 6.3 -11.45 7.9 -12.65 9.9 -19.7 6.5 -17.65 -5.85 -15.85 -24.6 -15.7 -24.95 -15.8 -25.25 L-15.25 -31.0 Q-15.15 -31.8 -16.15 -32.4 M7.15 -30.2 Q10.35 -31.0 12.95 -33.3 13.0 -26.7 15.5 -18.15 L17.45 -11.3 Q12.05 -9.2 7.9 -7.05 L5.45 -11.0 Q3.75 -19.0 4.8 -29.85 L7.15 -30.2 M-9.25 -43.35 Q-4.85 -25.2 3.55 -10.8 L3.65 -10.3 Q3.75 -9.85 4.35 -9.45 L6.4 -6.25 Q3.25 -4.5 0.4 -2.35 -3.05 -8.55 -5.8 -15.9 L-5.8 -16.1 Q-5.8 -16.6 -6.2 -17.0 -11.1 -30.7 -11.55 -44.65 L-9.25 -43.35 M-27.05 -19.75 L-25.55 -16.25 Q-23.7 -11.95 -19.45 -11.55 L-19.3 -11.6 -19.65 -8.8 Q-20.85 -9.7 -22.3 -9.65 -23.75 -9.55 -25.0 -8.55 -30.05 -7.8 -32.45 -11.7 -33.65 -13.6 -33.5 -16.05 -33.45 -17.8 -32.6 -20.5 L-32.5 -20.85 Q-32.3 -20.85 -32.15 -21.0 -31.05 -21.85 -29.7 -21.95 -28.25 -22.05 -27.05 -19.75 M-26.25 -24.75 L-22.1 -24.5 -17.95 -24.3 -19.15 -12.95 Q-19.65 -13.65 -20.2 -13.7 -22.7 -13.95 -24.45 -17.6 -26.7 -22.3 -27.7 -23.15 -29.15 -24.35 -31.2 -23.95 L-30.95 -24.25 Q-30.35 -24.9 -28.7 -24.9 L-26.25 -24.75 M-20.45 -7.3 L-20.3 -7.2 -19.9 -6.9 -21.9 6.65 -23.3 -6.85 Q-22.05 -7.8 -20.95 -7.55 L-20.45 -7.3 M-10.65 10.3 Q-9.4 10.0 -8.65 7.35 L-7.95 3.7 Q-6.75 -2.5 -6.1 -11.7 -3.6 -5.95 -0.95 -1.3 -6.0 3.0 -6.2 7.45 -6.35 11.5 -2.6 15.05 0.45 17.9 4.9 19.45 9.15 20.9 16.25 20.45 L16.95 20.4 17.2 20.35 Q24.4 19.9 33.6 17.4 L38.75 15.9 Q38.5 19.55 37.7 23.05 L36.85 22.95 Q23.5 29.5 7.15 29.15 -8.7 28.85 -22.55 22.15 L-22.75 21.9 Q-21.3 15.6 -20.0 8.4 -14.15 11.15 -10.65 10.3 M3.2 -1.45 L5.05 -2.7 Q9.7 -5.7 18.1 -9.05 19.95 -2.1 20.2 2.95 20.75 12.2 17.1 16.85 16.45 11.2 13.3 6.95 9.9 2.4 4.65 1.05 L3.2 -1.45 M3.4 2.55 Q4.6 5.7 4.35 9.35 4.1 12.85 2.6 16.05 L2.55 16.35 Q0.85 15.5 -0.55 14.45 -5.0 11.05 -3.65 6.7 -2.6 3.25 1.85 -0.4 L2.9 1.4 Q2.9 2.05 3.4 2.55 M6.35 10.3 Q6.6 6.65 5.55 3.3 10.15 4.75 12.75 9.15 15.1 13.2 15.2 18.45 9.2 18.8 4.6 17.2 6.1 13.85 6.35 10.3 M-31.55 38.5 L-27.75 30.95 Q-24.7 25.45 -23.8 23.55 L-23.6 23.65 Q-9.6 30.65 6.65 31.25 23.35 31.85 37.05 25.45 35.8 29.9 33.55 35.25 L29.2 44.55 22.5 57.6 Q18.5 65.4 16.6 71.0 14.55 77.05 13.7 85.3 13.2 90.15 12.9 100.0 L12.85 102.2 1.85 103.85 Q-3.45 104.35 -7.3 103.15 -8.65 102.7 -9.85 101.95 L-10.45 101.5 Q-12.65 93.25 -12.25 82.35 -12.0 75.1 -10.25 63.15 -8.35 50.5 -5.9 41.15 -5.7 40.35 -6.7 39.75 -7.7 39.2 -7.9 40.15 -10.45 50.05 -12.4 63.15 L-12.65 63.25 Q-16.5 66.05 -20.3 66.5 -24.5 67.0 -28.15 64.5 -31.25 62.4 -33.2 58.9 -37.25 51.7 -31.55 38.5 M53.1 -19.45 Q56.0 -14.75 57.35 -10.65 50.9 -13.9 44.0 -14.95 36.5 -16.1 30.05 -14.4 33.95 -18.45 40.8 -19.6 46.5 -20.6 52.85 -19.45 L53.1 -19.45 M55.6 3.3 Q42.1 -9.0 32.2 -7.85 L30.35 -12.1 Q36.85 -14.05 44.5 -12.85 51.5 -11.75 57.95 -8.35 59.4 -1.45 55.6 3.3 M48.35 -25.9 L51.6 -21.65 Q45.0 -22.65 39.25 -21.6 32.35 -20.25 28.45 -16.15 L27.5 -18.05 Q29.95 -23.25 36.45 -25.25 41.95 -26.95 48.25 -25.9 L48.35 -25.9 M43.6 -3.15 Q44.6 4.3 39.15 13.1 L39.1 13.2 36.2 14.25 Q37.15 8.9 35.0 0.7 L33.0 -5.75 Q37.85 -6.2 43.6 -3.3 L43.6 -3.15 M16.55 -20.65 Q13.7 -32.25 16.1 -40.1 16.45 -33.9 21.0 -26.15 28.0 -14.2 31.45 -4.6 33.45 0.9 34.15 5.05 35.0 10.65 33.8 14.95 L24.8 17.15 19.2 18.05 Q21.75 14.5 22.2 8.55 22.55 3.9 21.65 -1.45 L19.3 -11.0 16.55 -20.65 M45.65 -2.15 Q49.85 0.35 54.45 4.55 50.75 8.4 42.55 11.85 46.35 4.3 45.65 -2.15 M25.7 65.6 Q22.65 70.0 18.6 72.05 20.5 66.05 25.6 56.4 26.05 61.0 25.7 65.6 M17.75 74.95 L17.85 74.95 Q21.65 73.65 25.1 70.1 24.5 73.15 23.35 76.2 22.35 77.85 20.45 78.95 18.7 79.95 16.6 80.2 17.3 76.7 17.75 74.95 M20.75 81.4 Q18.7 84.6 15.65 86.9 L16.25 82.45 Q18.6 82.3 20.75 81.4 M12.8 108.1 Q12.8 108.8 7.4 110.75 L3.95 111.75 3.7 110.55 3.15 109.55 Q2.7 109.1 2.15 109.25 -4.55 111.45 -8.9 112.5 -15.15 114.05 -20.25 114.35 L-22.5 114.4 Q-24.15 114.2 -24.0 113.35 -23.85 112.1 -22.25 110.65 -21.75 110.15 -19.65 108.55 -16.15 105.85 -11.1 103.15 -7.8 105.75 -1.55 106.15 4.7 106.5 12.8 104.55 L12.8 108.1" fill="#ffffff" fill-rule="evenodd" stroke="none"/>
  </g>
</svg>
