<?xml version="1.0" encoding="UTF-8" standalone="no"?>
<svg xmlns:ffdec="https://www.free-decompiler.com/flash" xmlns:xlink="http://www.w3.org/1999/xlink" ffdec:objectType="shape" height="162.25px" width="92.7px" xmlns="http://www.w3.org/2000/svg">
  <g transform="matrix(1.0, 0.0, 0.0, 1.0, 34.7, 46.9)">
    <path d="M12.7 -34.5 Q11.8 -33.1 10.0 -32.3 8.9 -31.8 6.8 -31.35 4.25 -30.75 3.7 -30.0 2.6 -28.6 2.5 -14.6 -3.35 -25.8 -6.8 -38.8 -4.55 -37.25 -1.5 -36.8 2.8 -36.2 7.25 -37.7 11.8 -39.25 14.55 -42.4 13.05 -39.0 12.7 -34.5 M28.35 -46.25 Q32.2 -44.95 35.45 -41.55 38.0 -38.9 41.1 -34.45 L46.3 -27.05 Q40.05 -27.75 34.8 -26.15 28.6 -24.2 25.8 -19.45 22.3 -25.35 20.8 -28.45 18.2 -33.7 17.95 -38.2 17.8 -40.2 18.25 -42.05 18.75 -44.25 19.9 -45.55 L20.1 -45.85 Q23.9 -47.75 28.35 -46.25 M-14.8 -46.25 L-14.7 -46.35 -12.0 -44.45 Q-12.75 -29.7 -7.75 -14.7 L-7.85 -14.25 Q-7.9 -8.95 -8.4 -3.05 -8.7 1.25 -9.35 4.85 -9.7 6.55 -10.15 7.75 L-10.7 8.6 -12.15 8.9 Q-13.15 9.05 -12.85 9.5 L-12.95 9.35 Q-12.5 -1.65 -12.7 -9.2 -12.9 -19.3 -14.25 -27.8 -14.4 -28.65 -15.4 -29.0 -16.45 -29.35 -16.25 -28.3 L-16.05 -26.8 -21.25 -27.6 -21.2 -27.75 Q-21.45 -33.45 -20.25 -38.05 -18.65 -44.25 -14.8 -46.25 M7.25 -29.4 Q10.85 -30.2 12.65 -31.55 12.75 -25.5 15.15 -17.05 L17.1 -10.2 Q11.7 -8.1 7.55 -5.95 L4.45 -11.0 Q4.45 -17.1 4.7 -22.45 4.9 -28.05 5.25 -28.8 L7.25 -29.4 M-9.35 -41.45 Q-5.25 -24.7 2.45 -11.0 L2.5 -11.0 Q4.0 -8.25 6.05 -5.15 2.8 -3.4 0.1 -1.25 -5.1 -10.5 -7.7 -21.25 -10.4 -32.15 -10.0 -42.65 L-9.35 -41.45 M-25.65 -22.75 Q-26.1 -24.55 -27.4 -25.65 -28.7 -26.8 -30.35 -26.9 L-30.2 -27.15 Q-29.55 -27.95 -28.1 -27.45 L-25.9 -26.5 Q-23.9 -25.8 -20.9 -25.4 L-15.75 -24.75 Q-15.05 -19.05 -14.8 -12.85 L-18.45 -13.1 -22.1 -14.15 Q-24.1 -14.75 -24.85 -17.8 -25.3 -21.35 -25.65 -22.75 M-25.35 -9.7 L-23.3 -9.55 Q-21.95 -9.0 -22.1 -8.3 L-22.75 -4.6 -25.4 12.0 Q-27.05 23.65 -26.8 30.0 -26.65 34.35 -24.95 39.0 -23.7 42.5 -21.1 47.3 L-20.9 47.6 Q-21.3 50.0 -21.3 52.15 -21.45 58.3 -18.0 62.95 -18.4 62.7 -18.75 62.8 -19.1 62.9 -19.2 63.35 -21.3 73.25 -23.7 87.5 L-27.7 111.8 Q-27.9 113.0 -29.4 113.3 L-32.05 113.2 -33.5 112.4 -33.3 110.85 Q-32.45 105.15 -29.6 89.8 -27.6 78.95 -26.7 72.9 -25.3 63.45 -24.95 55.9 -24.8 53.6 -26.1 50.85 L-28.45 46.15 Q-30.6 41.3 -31.05 35.15 -31.35 30.5 -30.7 23.8 -29.6 12.95 -26.7 -8.65 L-25.35 -9.7 M-21.0 -11.5 Q-18.05 -10.55 -14.7 -10.65 L-14.65 -7.85 -20.35 -8.85 Q-20.95 -9.95 -22.3 -10.95 -23.6 -11.9 -24.55 -12.0 -26.7 -12.2 -28.25 -10.4 -33.45 -10.7 -34.5 -15.9 -35.5 -20.9 -31.8 -24.3 L-31.65 -24.4 Q-28.5 -25.8 -27.3 -21.7 -26.65 -19.45 -25.75 -15.05 -24.6 -12.7 -21.0 -11.5 M-14.65 -5.8 Q-14.6 1.35 -15.1 10.95 -18.35 8.2 -22.65 7.95 L-22.05 4.2 -20.15 -6.8 -14.65 -5.8 M-20.3 14.7 Q-20.05 13.9 -20.95 13.15 L-22.15 13.2 Q-23.3 16.45 -22.15 19.7 -23.0 20.55 -24.35 20.45 L-22.95 10.05 -22.8 10.1 Q-18.65 9.85 -15.45 12.9 L-15.15 13.1 -15.45 19.15 -15.65 19.55 -16.3 24.25 -16.65 24.05 -17.05 23.75 Q-19.35 22.25 -20.25 19.65 -21.15 17.1 -20.3 14.7 M-10.7 11.2 Q-9.45 10.9 -8.85 10.1 -7.9 8.9 -7.4 6.55 L-6.85 2.7 Q-6.15 -2.5 -5.9 -9.8 -3.75 -4.5 -1.3 -0.2 -6.3 4.05 -6.55 8.55 -6.7 12.6 -2.95 16.15 0.1 19.0 4.55 20.55 8.8 22.0 15.9 21.55 L16.6 21.5 16.85 21.45 Q24.05 21.0 33.25 18.5 39.8 16.7 44.7 14.65 L44.5 21.3 Q31.25 27.8 15.55 28.8 -0.25 29.75 -14.25 24.85 L-14.15 24.2 Q-13.65 24.2 -13.65 23.65 L-13.05 11.05 -10.7 11.2 M2.85 -0.35 L4.7 -1.6 Q9.55 -4.65 17.75 -7.95 19.6 -1.0 19.85 4.05 20.4 13.3 16.75 17.95 16.1 12.3 13.0 8.05 9.6 3.5 4.3 2.15 L2.85 -0.35 M2.55 2.5 Q2.55 3.15 3.05 3.65 4.25 6.8 4.0 10.45 3.75 13.95 2.25 17.15 L2.2 17.45 -0.9 15.55 Q-5.35 12.15 -4.0 7.8 -2.95 4.35 1.55 0.7 L2.55 2.5 M6.0 11.4 Q6.25 7.75 5.2 4.4 9.8 5.85 12.4 10.25 14.8 14.3 14.9 19.55 8.85 19.9 4.25 18.3 5.75 14.95 6.0 11.4 M5.55 32.8 Q4.55 32.2 4.3 33.15 0.15 50.0 0.3 66.35 -3.5 68.1 -8.15 67.1 -12.75 66.15 -15.7 63.15 -20.15 58.75 -19.1 49.75 L-17.25 40.5 Q-15.7 33.75 -14.55 26.75 -0.7 31.75 15.15 31.0 30.85 30.2 44.3 24.0 43.4 32.05 41.2 40.25 40.4 40.25 40.9 41.4 39.5 46.5 37.5 52.05 L32.55 64.4 Q29.6 71.8 29.0 77.15 28.35 82.8 28.6 89.95 28.75 94.35 29.5 102.8 29.65 104.65 29.05 106.8 L20.25 107.35 Q15.45 107.2 11.6 105.7 8.8 104.7 7.55 103.25 L6.2 97.05 Q3.2 81.55 2.55 72.85 1.2 54.6 6.3 34.2 6.5 33.4 5.55 32.8 M-24.5 26.25 L-24.8 25.75 -24.55 22.5 Q-22.5 22.85 -21.05 21.9 -19.9 23.8 -17.95 25.15 -18.75 26.45 -20.0 27.4 -21.05 28.15 -22.55 27.8 -24.15 27.4 -24.5 26.25 M52.75 -18.35 Q55.65 -13.65 57.0 -9.55 50.55 -12.8 43.65 -13.85 36.15 -15.0 29.7 -13.3 33.6 -17.35 40.45 -18.5 46.15 -19.5 52.5 -18.35 L52.75 -18.35 M55.25 4.4 Q41.75 -7.9 31.85 -6.75 L30.05 -11.0 Q36.5 -12.95 44.15 -11.75 51.15 -10.65 57.6 -7.25 59.05 -0.35 55.25 4.4 M48.0 -24.8 L51.25 -20.55 Q44.65 -21.55 38.9 -20.5 32.0 -19.15 28.1 -15.05 L27.15 -16.95 Q29.6 -22.15 36.1 -24.15 41.6 -25.85 47.9 -24.8 L48.0 -24.8 M16.25 -19.55 Q13.4 -31.15 15.75 -39.0 16.1 -32.8 20.65 -25.05 27.65 -13.15 31.15 -3.5 33.15 2.05 33.8 6.15 34.65 11.75 33.45 16.05 L24.45 18.25 18.85 19.15 Q21.4 15.6 21.85 9.65 22.2 5.0 21.3 -0.35 20.65 -4.0 18.95 -9.9 L16.25 -19.55 M43.25 -2.05 Q44.25 5.45 38.85 14.2 L38.75 14.3 35.85 15.35 Q36.8 10.0 34.65 1.8 L32.65 -4.65 Q37.55 -5.15 43.25 -2.2 L43.25 -2.05 M44.65 11.9 L42.2 12.95 Q46.0 5.4 45.3 -1.05 49.4 1.35 54.15 5.65 51.1 8.75 45.65 11.4 44.8 11.0 44.65 11.9 M44.5 51.25 L44.4 51.45 Q41.0 60.8 35.2 64.15 L38.5 55.95 42.6 43.45 Q43.8 45.3 44.3 49.3 L44.5 51.25 M34.05 67.2 Q40.25 65.3 44.55 56.8 44.35 61.15 43.4 65.7 43.15 65.8 43.05 65.95 41.05 68.8 38.15 70.55 34.9 72.55 32.15 72.0 L32.6 70.75 33.95 67.2 34.05 67.2 M33.7 81.75 L30.8 81.95 30.65 81.95 Q30.75 79.55 31.0 77.6 33.3 79.4 37.5 79.3 35.85 81.05 33.7 81.75 M39.3 77.0 Q35.3 77.65 32.65 76.5 L31.4 75.65 31.3 75.55 31.65 73.8 Q36.9 75.4 42.1 70.6 L41.1 73.45 39.3 77.0 M17.9 111.75 Q10.75 113.9 6.45 114.7 -0.25 115.85 -5.2 114.9 -9.1 114.15 -7.35 112.25 -6.0 110.85 -2.0 108.7 1.9 106.7 6.65 104.75 12.4 111.0 28.45 109.1 L28.15 110.55 Q27.7 112.7 25.95 113.4 L22.2 113.9 20.6 113.75 Q19.45 113.55 19.5 113.25 19.65 112.7 19.1 112.15 18.5 111.55 17.9 111.75" fill="#ffffff" fill-rule="evenodd" stroke="none"/>
  </g>
</svg>
