<?xml version="1.0" encoding="UTF-8" standalone="no"?>
<svg xmlns:ffdec="https://www.free-decompiler.com/flash" xmlns:xlink="http://www.w3.org/1999/xlink" ffdec:objectType="shape" height="18.5px" width="18.45px" xmlns="http://www.w3.org/2000/svg">
  <g transform="matrix(1.0, 0.0, 0.0, 1.0, 9.2, 9.25)">
    <path d="M5.4 -9.15 L5.4 -4.05 Q-2.0 -3.8 -4.2 -4.05 -5.4 -4.15 -7.4 -5.4 L-9.2 -6.6 -7.5 -7.75 Q-5.5 -8.95 -4.2 -9.15 L1.45 -9.25 5.4 -9.15 M9.25 -4.05 L6.6 -4.05 6.6 -9.15 9.25 -9.15 9.25 -4.05 M5.4 -2.55 L5.4 2.55 Q-2.0 2.8 -4.2 2.55 -5.4 2.45 -7.4 1.2 L-9.2 0.0 -7.5 -1.15 Q-5.5 -2.35 -4.2 -2.55 L1.45 -2.65 5.4 -2.55 M9.25 -2.55 L9.25 2.55 6.6 2.55 6.6 -2.55 9.25 -2.55 M5.4 9.15 Q-2.0 9.35 -4.2 9.15 -5.4 9.05 -7.4 7.8 L-9.2 6.55 -7.5 5.45 Q-5.5 4.25 -4.2 4.05 L1.45 3.95 5.4 4.05 5.4 9.15 M9.25 9.15 L6.6 9.15 6.6 4.05 9.25 4.05 9.25 9.15" fill="#ffffff" fill-rule="evenodd" stroke="none"/>
  </g>
</svg>
