<?xml version="1.0" encoding="UTF-8" standalone="no"?>
<svg xmlns:ffdec="https://www.free-decompiler.com/flash" xmlns:xlink="http://www.w3.org/1999/xlink" ffdec:objectType="shape" height="161.65px" width="101.5px" xmlns="http://www.w3.org/2000/svg">
  <g transform="matrix(1.0, 0.0, 0.0, 1.0, 42.4, 26.1)">
    <path d="M20.6 -26.1 L22.75 -25.3 Q22.2 -18.8 18.05 -11.5 15.15 -6.35 9.5 0.5 L5.85 4.75 5.8 4.75 Q1.35 9.8 -2.85 13.5 L-2.9 13.6 Q-5.75 11.7 -8.1 10.55 -2.35 5.25 4.05 -1.7 10.6 -8.7 13.65 -12.7 18.7 -19.35 20.7 -25.3 L20.6 -26.1 M9.35 -11.15 L2.5 -3.5 Q-3.25 2.7 -7.55 6.75 -9.65 2.6 -12.3 0.8 L-2.85 -17.45 Q-0.05 -15.55 3.9 -15.55 6.9 -15.55 9.95 -16.6 13.0 -17.7 15.45 -19.6 13.15 -15.7 9.35 -11.15 M34.45 -15.7 Q41.0 -8.65 45.85 1.25 50.5 10.75 53.6 22.05 55.45 28.75 56.5 34.9 L56.6 35.3 56.65 37.55 Q55.9 39.65 54.6 41.45 52.3 44.65 49.25 45.2 44.45 46.15 42.85 45.2 42.25 42.65 40.5 38.35 37.7 31.4 33.9 25.55 29.85 19.35 22.3 12.5 L15.45 6.85 14.95 8.8 20.95 14.4 Q27.65 21.15 31.5 27.05 28.8 28.8 24.65 30.15 18.3 32.25 10.2 32.8 9.15 31.05 8.3 23.0 7.35 14.15 7.75 6.15 L11.95 1.2 Q17.35 -5.5 20.25 -10.7 24.2 -17.9 24.75 -24.3 L25.55 -23.85 25.3 -23.55 Q29.8 -20.7 34.45 -15.7 M49.3 47.35 Q52.25 46.8 54.7 44.55 56.7 42.7 58.05 40.05 59.0 42.85 59.05 45.15 59.35 52.2 57.3 57.6 56.4 60.1 54.55 60.1 L55.4 56.5 Q56.3 52.7 55.6 51.85 55.35 51.5 53.8 57.6 51.75 64.05 48.9 64.75 L48.35 64.75 48.15 64.65 49.5 59.2 Q50.8 53.85 49.75 53.4 L48.25 58.3 46.1 65.05 Q43.7 70.15 42.25 69.5 41.65 69.25 41.85 67.05 L42.4 63.4 42.6 62.5 44.1 53.15 44.05 52.65 Q43.95 52.4 42.0 53.15 L38.4 54.4 34.95 54.55 Q33.5 54.15 34.05 53.15 L34.45 52.7 35.4 52.2 Q37.65 51.15 39.25 49.8 40.55 48.75 41.5 46.95 44.1 48.35 49.3 47.35 M5.25 21.0 L4.8 20.45 Q2.65 17.7 -0.9 15.0 L5.65 8.45 Q5.5 15.15 6.25 22.5 L5.25 21.0 M3.4 36.05 Q0.55 38.55 -4.75 39.75 -8.6 37.3 -10.05 33.4 -11.6 29.35 -9.85 25.25 L-9.3 24.65 Q-6.55 22.1 -3.15 21.1 0.9 19.9 3.7 21.8 6.15 25.1 6.45 28.55 6.85 33.1 3.4 36.05 M14.65 46.8 Q27.75 45.3 34.65 39.0 34.6 43.75 34.15 50.4 L34.15 50.6 Q32.15 51.55 32.05 52.95 31.9 54.15 32.85 55.0 L33.7 55.5 Q31.5 76.95 23.9 101.5 L20.55 111.7 19.95 113.3 Q19.6 114.2 19.55 114.8 16.0 119.05 11.3 120.75 6.1 122.55 1.45 120.4 -1.3 83.9 3.6 54.45 3.7 53.65 2.75 53.05 1.75 52.5 1.6 53.45 -0.7 67.15 -1.2 84.0 -8.8 76.15 -12.8 65.05 -16.75 54.05 -16.05 43.0 L-11.75 43.0 -9.8 42.85 Q-3.6 45.65 1.5 46.75 6.3 47.75 14.65 46.8 M2.3 44.85 Q-1.7 44.25 -6.3 42.35 L-4.45 42.0 Q-3.9 42.15 -3.75 41.8 6.25 39.15 8.05 32.8 L8.9 34.4 Q9.35 34.85 9.9 34.85 L10.0 34.85 Q18.55 34.3 25.2 32.1 29.6 30.7 32.6 28.75 L34.75 32.5 34.7 32.9 34.7 35.6 Q28.65 42.45 14.9 44.55 7.85 45.65 2.3 44.85 M36.2 78.2 Q37.6 82.8 37.0 83.15 L35.65 83.55 34.3 84.05 Q33.15 84.75 33.55 86.25 33.75 87.05 34.7 88.6 L36.0 90.4 Q36.75 91.5 36.9 92.35 37.1 93.75 36.95 95.85 L36.65 99.3 Q36.2 104.45 34.8 107.95 33.75 110.65 32.25 111.4 29.05 113.0 26.1 101.75 30.3 88.1 32.9 75.15 34.05 74.2 35.05 75.65 L36.2 78.2 M21.75 123.0 Q21.65 124.4 19.0 126.0 16.3 127.6 15.9 126.15 L15.2 125.3 14.15 125.25 9.55 130.0 Q6.9 132.3 3.95 133.45 -0.45 135.15 -6.1 135.5 -10.65 135.85 -11.4 134.35 -12.15 132.7 -9.2 129.75 L-4.95 126.2 Q-2.5 124.25 0.85 122.1 5.8 124.6 11.35 123.1 16.5 121.7 20.4 117.45 21.95 120.55 21.75 123.0 M-21.65 -3.6 L-21.25 -3.3 -24.4 2.5 Q-27.1 0.75 -32.95 1.05 L-29.55 -3.15 Q-27.6 -5.3 -23.3 -4.4 L-21.65 -3.6 M-22.2 -5.95 Q-21.25 -11.9 -18.75 -16.3 -15.65 -21.75 -10.85 -23.25 L-8.75 -22.15 Q-14.8 -14.5 -20.4 -4.8 L-22.2 -5.95 M-5.9 -20.95 Q-5.45 -20.0 -4.6 -19.1 -11.0 -7.55 -16.9 5.2 -21.55 15.3 -23.0 20.95 -24.45 26.75 -24.45 30.9 -24.5 36.7 -22.0 40.4 -26.75 39.75 -30.65 38.2 -32.15 29.45 -28.75 18.65 -26.35 11.05 -20.7 0.5 -14.3 -11.35 -6.85 -20.75 -6.65 -20.95 -6.65 -21.25 L-5.9 -20.95 M-15.55 7.7 L-13.05 2.4 Q-10.8 3.85 -8.85 8.0 L-10.2 9.25 -10.55 9.4 Q-12.8 8.2 -15.55 7.7 M-12.85 10.4 Q-15.65 11.65 -18.0 13.25 L-16.45 9.65 -16.35 9.7 Q-14.55 9.8 -12.85 10.4 M-19.05 16.95 Q-15.3 13.9 -9.9 11.65 -3.1 14.95 0.9 18.7 -2.8 17.95 -6.8 19.95 -10.5 21.85 -13.4 25.5 -16.25 29.15 -17.1 33.15 -18.05 37.5 -16.3 40.9 L-19.65 40.7 Q-22.85 37.2 -22.5 30.7 -22.3 26.45 -20.45 20.1 L-19.5 17.1 -19.05 16.95 M-25.2 4.1 L-27.7 9.4 -28.25 9.35 Q-32.25 10.65 -35.8 13.3 -39.3 15.95 -41.8 19.45 -40.1 11.55 -34.5 3.25 L-34.05 3.3 -29.6 3.1 Q-26.75 3.2 -25.2 4.1 M-32.35 21.65 Q-35.35 23.5 -37.35 26.0 -39.65 28.8 -40.15 31.9 -42.25 29.0 -42.4 25.15 -40.45 20.8 -36.85 17.35 -33.25 13.85 -28.8 12.05 -30.8 17.0 -31.85 21.55 L-32.35 21.65 M-38.25 34.0 Q-38.25 28.95 -32.5 24.6 -33.7 31.3 -32.75 37.35 L-35.75 35.85 -38.25 34.0 M-12.8 29.1 Q-12.75 32.25 -11.15 35.2 -9.65 38.0 -7.05 40.2 L-14.35 40.85 Q-15.9 38.55 -15.25 35.15 -14.7 32.25 -12.8 29.1" fill="#ffffff" fill-rule="evenodd" stroke="none"/>
  </g>
</svg>
