<?xml version="1.0" encoding="UTF-8" standalone="no"?>
<svg xmlns:ffdec="https://www.free-decompiler.com/flash" xmlns:xlink="http://www.w3.org/1999/xlink" ffdec:objectType="shape" height="159.2px" width="96.45px" xmlns="http://www.w3.org/2000/svg">
  <g transform="matrix(1.0, 0.0, 0.0, 1.0, 45.15, 29.7)">
    <path d="M23.2 -28.55 Q22.45 -21.85 17.5 -14.45 14.25 -9.5 7.75 -2.5 0.95 4.8 -5.8 10.2 -7.9 8.75 -10.5 7.35 -4.3 2.05 2.6 -4.95 9.4 -11.9 12.9 -16.35 18.3 -23.15 20.7 -29.45 L20.75 -29.7 23.2 -28.55 M7.45 -13.5 L0.55 -6.25 Q-4.8 -0.8 -9.85 3.6 -11.85 -0.65 -14.45 -2.5 -10.3 -10.6 -4.5 -20.75 -1.5 -18.1 3.2 -18.1 8.8 -18.1 13.75 -21.45 11.2 -17.75 7.45 -13.5 M19.6 -13.4 Q24.3 -20.6 25.15 -27.15 27.85 -25.0 30.9 -21.5 L32.5 -19.4 32.75 -19.25 33.55 -18.15 Q39.35 -10.25 43.0 -0.05 46.55 9.95 48.4 21.5 49.55 28.65 49.85 34.55 L49.9 35.0 Q50.0 36.6 49.7 37.2 48.75 39.15 47.2 40.85 44.55 43.8 41.5 44.0 36.7 44.35 35.15 43.25 34.65 40.15 33.55 36.2 31.55 28.95 28.4 22.75 25.1 16.15 18.35 8.5 L12.2 2.15 11.5 4.0 16.8 10.25 Q22.7 17.7 25.9 24.0 L26.2 24.65 Q20.0 28.35 8.55 29.0 7.55 27.25 6.9 19.15 6.15 10.2 6.7 2.05 L10.25 -1.75 Q16.35 -8.4 19.6 -13.4 M51.25 45.05 Q50.8 52.0 48.15 57.2 47.35 58.8 46.25 59.25 L45.1 59.4 46.35 55.9 Q47.7 52.25 47.1 51.35 L44.65 56.85 Q41.85 63.0 39.0 63.4 L38.45 63.3 38.25 63.2 40.2 57.95 Q42.1 52.75 41.1 52.2 40.95 52.15 39.0 56.9 L36.15 63.4 34.05 66.25 Q33.75 66.3 33.7 66.7 32.55 67.8 31.85 67.4 31.0 66.85 32.7 61.3 L32.95 60.45 34.6 54.8 35.5 51.35 35.5 50.8 33.4 51.15 29.7 51.95 26.3 51.65 Q24.9 51.1 25.5 50.2 L26.0 49.8 26.95 49.4 Q29.3 48.55 31.05 47.45 L33.6 44.9 Q36.0 46.55 41.3 46.15 46.75 45.8 50.85 39.9 51.45 42.8 51.25 45.05 M2.15 17.55 Q0.0 14.6 -3.8 11.65 L4.55 4.15 Q4.2 12.55 5.05 20.8 5.9 29.2 7.25 30.6 L8.25 31.05 8.3 31.05 Q20.45 30.35 27.1 26.45 29.1 30.85 30.35 34.9 23.0 39.9 10.5 41.0 0.8 41.8 -7.05 38.8 L-6.9 38.65 Q-1.4 37.35 1.75 34.75 5.65 31.55 5.6 26.7 5.55 22.25 2.55 18.05 L2.15 17.55 M1.55 45.3 Q0.6 44.75 0.4 45.7 -2.15 61.8 1.1 82.9 -13.7 82.95 -17.9 67.35 -20.9 56.35 -18.35 39.6 L-14.95 39.65 -10.5 39.3 Q-1.1 44.0 11.2 43.1 23.15 42.25 31.1 37.25 L32.55 42.9 Q31.4 44.8 29.95 45.8 28.35 46.8 26.25 47.55 L24.55 48.3 Q23.7 48.85 23.55 49.8 23.25 50.9 24.15 51.9 25.9 53.9 30.75 53.25 L33.0 52.9 31.05 59.85 30.8 60.7 Q29.7 64.1 29.55 65.65 29.35 68.25 30.85 69.1 L33.5 69.25 Q32.5 86.75 29.5 103.3 L28.8 106.0 Q28.25 108.0 28.35 109.0 24.75 113.2 20.1 114.75 14.9 116.5 10.25 114.25 7.25 105.2 4.65 92.35 -0.7 65.8 2.4 46.7 2.55 45.9 1.55 45.3 M3.55 26.5 Q3.15 34.3 -7.8 36.7 -11.6 34.2 -13.0 30.2 -14.45 26.05 -12.6 21.95 L-12.05 21.4 Q-9.25 18.85 -5.75 17.95 -1.7 16.9 1.1 18.9 3.75 22.7 3.55 26.5 M36.3 93.95 Q36.45 99.95 32.45 99.05 L34.45 83.9 Q36.2 90.0 36.3 93.95 M29.4 111.4 L30.0 112.8 Q31.7 117.0 29.7 119.0 29.05 119.65 27.3 120.3 25.2 121.1 24.9 120.1 L24.2 119.25 23.15 119.2 18.55 123.95 Q15.9 126.25 12.95 127.4 8.65 129.1 2.95 129.45 -1.65 129.8 -2.35 128.3 -3.1 126.65 -0.2 123.7 L4.05 120.15 Q7.1 117.75 9.9 116.05 14.85 118.55 20.35 117.05 25.5 115.65 29.4 111.4 M-10.5 -25.2 Q-16.7 -17.7 -22.4 -8.35 L-24.2 -9.5 Q-23.2 -15.3 -20.6 -19.65 -17.4 -25.0 -12.6 -26.5 L-10.5 -25.2 M-31.45 -7.05 Q-29.6 -8.95 -25.35 -8.0 L-23.65 -7.15 -23.3 -6.85 -26.6 -1.1 Q-29.25 -2.95 -35.2 -2.75 L-31.45 -7.05 M-31.8 -0.65 Q-29.0 -0.5 -27.45 0.45 L-30.1 5.7 -30.65 5.65 Q-34.65 6.85 -38.25 9.4 -41.85 11.9 -44.4 15.35 -42.45 7.35 -36.75 -0.65 L-36.25 -0.55 -31.8 -0.65 M-6.6 -23.5 L-6.1 -22.65 Q-13.25 -10.35 -19.25 1.8 -24.1 11.75 -25.65 17.4 -27.25 23.15 -27.4 27.3 -27.6 33.05 -25.15 36.85 -29.95 36.05 -33.75 34.5 -35.05 25.7 -31.35 14.95 -28.75 7.25 -22.85 -3.05 -15.95 -15.05 -8.5 -23.95 L-8.35 -24.2 -6.6 -23.5 M-11.2 4.8 L-12.6 6.0 -12.95 6.15 Q-15.25 4.8 -17.9 4.35 L-15.25 -0.95 Q-13.0 0.7 -11.2 4.75 L-11.2 4.8 M-18.7 6.25 Q-17.1 6.4 -15.25 7.05 -18.4 8.45 -20.45 9.75 L-18.8 6.2 -18.7 6.25 M-9.4 16.75 Q-13.15 18.5 -16.1 22.1 -19.1 25.7 -20.05 29.7 -21.1 34.05 -19.45 37.45 L-22.8 37.2 Q-28.05 31.2 -23.0 16.3 L-22.05 13.6 -21.6 13.45 Q-17.85 10.5 -12.35 8.4 -5.8 11.65 -1.7 15.65 -5.35 14.8 -9.4 16.75 M-34.85 17.75 Q-38.0 19.55 -40.1 22.0 -42.55 24.8 -43.1 27.9 -45.05 25.0 -45.15 21.05 -43.1 16.75 -39.4 13.4 -35.75 10.0 -31.25 8.3 -33.4 13.4 -34.55 17.65 L-34.85 17.75 M-39.55 31.4 L-41.25 30.05 Q-41.2 27.45 -39.3 24.8 -37.7 22.6 -35.25 20.8 -36.65 27.7 -35.8 33.6 L-39.55 31.4 M-14.15 31.95 Q-12.7 34.85 -10.05 37.1 L-17.5 37.5 Q-19.0 35.15 -18.3 31.75 -17.65 28.9 -15.65 25.8 -15.7 28.95 -14.15 31.95" fill="#ffffff" fill-rule="evenodd" stroke="none"/>
  </g>
</svg>
