<?xml version="1.0" encoding="UTF-8" standalone="no"?>
<svg xmlns:ffdec="https://www.free-decompiler.com/flash" xmlns:xlink="http://www.w3.org/1999/xlink" ffdec:objectType="shape" height="154.15px" width="86.1px" xmlns="http://www.w3.org/2000/svg">
  <g transform="matrix(1.0, 0.0, 0.0, 1.0, 48.0, 27.0)">
    <path d="M12.05 -17.55 Q8.05 -12.25 0.55 -5.2 -5.1 0.15 -11.8 5.6 -13.65 1.25 -16.1 -0.7 -10.8 -9.85 -5.4 -18.1 -2.5 -15.7 2.0 -15.7 5.1 -15.7 8.25 -16.85 11.4 -18.0 13.9 -20.05 L12.05 -17.55 M13.9 -16.1 Q18.75 -22.35 19.4 -27.0 L22.7 -25.8 Q21.2 -18.65 16.1 -11.25 12.25 -5.75 5.55 0.9 -1.25 7.55 -8.15 12.45 L-12.7 9.3 Q-5.05 3.4 2.65 -3.85 9.6 -10.55 13.9 -16.1 M29.95 -20.5 Q34.9 -14.2 36.65 -4.25 37.4 0.0 37.75 9.65 38.05 20.25 36.3 31.85 35.25 38.65 33.7 44.7 L33.6 45.15 32.75 47.2 Q31.1 48.85 29.25 49.95 25.85 51.9 22.85 51.15 18.3 50.05 17.05 48.55 L17.4 45.25 17.45 44.85 Q18.25 35.55 16.9 26.9 15.45 17.75 9.4 5.55 L7.9 7.15 Q12.75 18.65 14.1 27.35 L14.4 29.45 3.25 30.25 Q2.45 28.7 2.25 22.05 2.0 14.5 2.85 6.7 L8.15 1.65 Q14.5 -4.7 18.35 -10.4 23.2 -17.65 24.65 -24.75 27.35 -23.2 29.95 -20.5 M0.2 21.25 Q-2.1 17.45 -6.2 14.0 L0.65 8.65 Q0.05 15.25 0.2 21.25 M2.9 32.25 L5.1 32.25 14.65 31.45 Q15.25 37.8 14.95 43.75 0.65 45.9 -11.0 40.85 L-10.8 40.8 Q-0.05 38.8 1.95 31.8 L2.9 32.25 M14.65 47.35 Q12.95 48.85 11.3 49.3 L7.25 49.85 5.4 50.1 Q4.4 50.35 3.95 51.2 3.4 52.3 3.9 53.4 5.0 55.75 9.8 56.7 L12.05 57.05 7.55 63.8 Q5.45 66.8 4.9 68.15 3.85 70.55 5.05 71.85 7.35 74.35 12.9 70.25 L13.9 70.75 Q16.45 71.5 20.8 68.8 23.95 69.85 26.55 67.2 31.0 62.65 33.7 55.9 34.9 52.85 35.1 49.1 35.5 59.7 34.0 66.6 31.9 75.95 26.0 81.65 25.4 82.25 26.2 83.15 26.95 84.05 27.55 83.45 32.4 79.0 33.9 76.4 35.35 81.55 35.65 87.4 35.85 90.6 35.45 94.4 L35.1 96.0 Q34.85 97.15 34.9 97.75 34.1 102.25 31.5 106.15 29.6 109.15 25.85 110.55 21.75 112.15 18.85 110.3 L10.55 90.2 10.25 89.55 8.8 86.1 Q8.8 85.65 8.4 85.25 5.25 77.6 3.7 72.35 0.9 62.7 0.2 54.2 0.15 53.35 -0.85 53.0 -1.85 52.65 -1.8 53.7 -1.15 61.45 1.2 69.85 3.15 76.7 6.65 85.25 3.65 89.35 -0.05 91.5 -4.75 94.2 -8.25 91.85 -10.1 90.65 -11.85 87.65 L-14.4 82.6 Q-16.6 77.65 -17.75 71.15 -20.35 56.7 -17.6 41.35 L-14.2 41.2 -13.8 41.55 Q-1.05 48.15 14.8 46.0 L14.65 47.35 M31.85 55.15 Q29.15 61.7 25.15 65.8 23.25 67.7 21.6 66.9 L23.8 64.0 Q26.2 60.9 25.95 59.85 L21.95 64.35 Q17.4 69.35 14.55 68.85 14.25 68.8 14.05 68.6 L13.9 68.45 17.4 64.05 Q20.75 59.65 19.95 58.85 19.85 58.75 16.6 62.7 L11.85 68.0 Q7.55 71.65 6.5 70.5 5.75 69.65 9.2 64.95 L9.7 64.2 14.9 56.3 15.05 55.8 Q15.1 55.55 12.95 55.45 L9.2 55.15 Q7.15 54.75 6.0 53.8 4.8 52.85 5.7 52.2 L6.3 51.95 7.35 51.85 11.85 51.25 Q13.25 50.9 15.05 49.6 16.9 51.9 22.05 53.15 27.35 54.5 33.0 50.1 32.75 52.85 31.85 55.15 M8.55 89.85 Q9.0 103.9 2.75 108.55 -0.6 111.0 -2.85 108.25 -4.1 106.7 -5.5 102.25 -6.65 98.7 -7.4 94.25 -3.4 95.95 1.0 93.65 4.5 91.8 7.7 87.75 L8.55 89.85 M37.7 102.95 Q38.15 104.25 38.1 105.75 38.05 107.3 37.65 107.55 L36.05 107.85 Q34.95 108.05 34.85 109.65 L34.95 112.05 Q35.15 115.05 29.6 121.05 25.8 125.2 20.4 126.65 L15.75 127.1 Q12.7 126.85 12.55 124.85 12.5 123.4 13.25 121.45 L14.8 118.25 Q16.0 116.0 17.85 113.3 L18.65 112.25 Q21.6 113.8 25.4 113.0 29.0 112.25 31.55 109.9 34.9 106.7 36.5 100.65 L37.7 102.95 M-26.7 -6.85 L-25.0 -5.8 -24.75 -5.55 -28.35 0.05 Q-31.05 -1.95 -36.85 -2.05 L-32.6 -6.35 Q-30.9 -7.85 -26.7 -6.85 M-25.45 -8.2 Q-24.2 -13.8 -21.75 -17.85 -18.55 -23.05 -14.05 -24.2 L-11.45 -22.65 Q-17.65 -15.9 -23.75 -6.95 L-25.45 -8.2 M-7.85 -21.1 L-7.05 -19.85 Q-15.2 -7.35 -21.15 3.35 L-25.15 10.85 Q-27.25 15.1 -28.35 18.6 -30.25 24.5 -30.6 28.4 -31.1 34.1 -28.85 38.0 -33.2 37.1 -37.3 35.2 -38.15 26.35 -33.9 15.8 -30.9 8.3 -24.45 -1.8 -17.25 -12.9 -9.2 -21.6 L-7.85 -21.1 M-17.5 1.65 L-17.0 0.8 -16.35 1.4 Q-14.6 3.25 -13.25 6.7 L-14.7 7.85 -15.1 8.0 Q-17.1 6.6 -19.9 5.95 L-17.5 1.65 M-16.45 21.4 Q-20.35 24.25 -22.55 29.25 -25.0 34.8 -23.2 38.95 L-26.55 38.45 Q-31.55 32.1 -25.4 17.05 L-24.5 14.95 -24.0 14.8 Q-20.3 12.15 -14.6 10.25 -8.15 13.95 -4.25 18.2 L-10.65 18.45 Q-13.65 19.35 -16.45 21.4 M-14.9 23.2 Q-12.0 20.85 -8.5 20.15 -4.45 19.3 -1.8 21.4 0.9 25.6 0.25 29.8 -0.75 35.9 -10.05 38.35 L-11.65 38.65 Q-15.25 35.85 -16.35 31.9 -17.6 27.75 -15.55 23.8 L-14.9 23.2 M-20.9 7.75 Q-18.85 8.1 -17.35 8.75 -20.35 9.9 -22.7 11.2 L-20.9 7.75 M-32.8 6.6 Q-36.85 7.55 -40.55 9.9 -44.2 12.2 -46.95 15.5 -44.5 7.55 -38.5 -0.1 L-37.95 0.1 Q-33.65 0.0 -30.7 0.95 L-29.3 1.55 -32.2 6.7 -32.8 6.6 M-37.6 18.45 Q-40.8 20.05 -43.05 22.4 -45.65 25.1 -46.35 28.15 -48.15 25.1 -48.0 21.2 L-48.0 21.15 Q-45.7 17.0 -41.85 13.8 -38.05 10.65 -33.45 9.15 -35.75 13.9 -37.25 18.35 L-37.6 18.45 M-21.65 33.35 Q-20.95 30.5 -18.8 27.5 -19.0 30.65 -17.65 33.7 -16.35 36.65 -13.85 39.0 -17.45 39.45 -21.15 39.15 -22.5 36.7 -21.65 33.35 M-39.35 34.15 Q-41.75 32.8 -43.45 31.4 L-44.55 30.4 Q-44.3 27.75 -42.4 25.3 -40.75 23.15 -38.1 21.45 -39.85 28.1 -39.35 34.15" fill="#ffffff" fill-rule="evenodd" stroke="none"/>
  </g>
</svg>
