<?xml version="1.0" encoding="UTF-8" standalone="no"?>
<svg xmlns:ffdec="https://www.free-decompiler.com/flash" xmlns:xlink="http://www.w3.org/1999/xlink" ffdec:objectType="shape" height="172.45px" width="92.3px" xmlns="http://www.w3.org/2000/svg">
  <g transform="matrix(1.0, 0.0, 0.0, 1.0, 46.5, 48.0)">
    <path d="M28.15 -48.0 L28.1 -47.7 28.0 -48.0 28.15 -48.0 M8.8 -13.3 Q12.65 -15.05 15.15 -18.0 14.1 -15.95 11.7 -12.45 7.85 -7.05 0.55 0.15 -5.25 5.95 -11.15 10.9 -13.3 6.55 -15.85 4.7 -11.2 -4.45 -5.85 -13.7 -3.0 -11.6 1.2 -11.6 5.05 -11.6 8.8 -13.3 M16.95 -16.4 Q18.55 -19.6 18.7 -22.45 L18.7 -22.65 22.75 -22.0 Q22.0 -15.05 17.0 -7.5 13.5 -2.25 6.9 4.65 0.25 11.65 -7.15 17.45 -9.35 15.9 -11.85 14.6 -4.45 8.55 3.1 1.0 9.3 -5.2 13.55 -11.0 15.8 -14.05 16.95 -16.4 M34.7 -11.6 Q36.15 -6.95 36.7 -1.0 37.5 8.55 35.2 19.35 31.65 36.25 22.9 52.4 L22.7 52.8 21.4 54.6 Q15.0 58.25 10.8 56.1 6.45 53.8 5.8 52.1 6.95 49.5 8.15 45.3 10.25 38.05 10.85 31.1 11.65 21.6 8.8 9.05 L6.9 10.05 Q8.8 22.1 8.05 30.85 L7.45 35.7 4.15 35.75 4.3 33.9 Q4.25 30.2 2.15 26.7 2.0 20.5 2.85 12.25 L2.65 12.25 9.45 5.45 Q15.85 -1.35 19.35 -6.8 24.15 -14.4 24.75 -21.4 31.0 -19.1 34.9 -11.6 L34.7 -11.6 M0.15 23.85 Q-2.0 21.35 -5.1 18.9 L0.65 14.05 Q0.15 19.5 0.15 23.85 M0.15 26.95 L0.3 26.95 Q2.4 30.25 2.25 33.7 1.85 41.5 -9.1 43.9 -12.9 41.4 -14.3 37.45 -15.8 33.3 -13.95 29.2 L-13.35 28.6 Q-10.6 26.1 -7.1 25.2 -3.05 24.1 -0.25 26.1 L0.15 26.65 0.15 26.95 M4.2 49.3 Q-3.0 49.15 -9.65 46.2 L-8.95 46.05 Q-8.4 46.25 -8.2 45.9 1.3 43.55 3.6 37.75 L7.1 37.7 Q6.0 43.95 4.2 49.3 M34.1 43.15 Q37.2 55.1 36.5 63.45 35.55 74.4 28.15 81.55 27.55 82.15 28.35 83.05 29.1 83.95 29.7 83.35 L33.4 79.75 Q36.2 76.7 36.75 74.6 40.3 77.85 42.15 82.3 44.05 86.85 43.55 91.5 L43.15 93.8 43.05 94.05 Q41.85 98.95 38.85 102.65 36.65 105.45 32.8 106.5 28.6 107.65 25.95 105.45 19.05 99.1 14.05 90.8 8.95 82.35 6.75 73.45 8.75 73.65 10.6 72.5 15.95 69.2 20.2 63.25 22.4 60.15 23.45 56.1 L23.1 56.3 23.55 56.0 25.3 53.9 28.95 46.55 Q32.8 44.5 34.1 43.15 M33.3 39.35 Q33.4 40.15 33.1 40.5 L30.65 42.65 32.9 37.05 33.0 38.1 33.3 39.35 M0.05 51.5 L-4.0 51.05 -5.9 50.85 Q-6.85 50.9 -7.5 51.6 -8.35 52.45 -8.1 53.7 -7.6 56.25 -3.15 58.3 L-1.05 59.2 -6.35 64.05 -7.05 64.65 -10.7 68.25 Q-12.3 70.3 -11.45 71.85 -9.75 74.9 -3.45 72.2 L-2.6 72.95 4.6 72.7 4.7 72.75 Q5.45 76.05 6.85 79.9 L6.75 80.1 Q-1.05 102.25 -10.7 115.5 L-10.8 115.65 Q-13.95 109.45 -18.1 105.0 -23.1 99.65 -28.65 97.95 -26.55 94.75 -24.45 87.75 -22.35 80.55 -20.75 69.75 -18.95 58.45 -18.2 46.9 L-12.6 46.65 -12.2 47.0 Q-5.5 50.45 1.8 51.2 L0.05 51.5 M9.55 57.8 Q14.45 60.35 20.95 57.45 19.9 60.25 18.6 62.1 14.45 67.8 9.55 70.8 7.3 72.15 5.8 71.05 L8.7 68.75 Q11.8 66.3 11.75 65.25 L6.75 68.65 Q1.15 72.4 -1.5 71.25 L-1.95 70.9 -2.05 70.7 2.4 67.25 Q6.75 63.8 6.15 62.8 L1.95 65.75 Q-2.6 69.1 -3.9 69.75 -8.95 72.25 -9.65 70.9 -10.15 70.0 -5.75 66.15 L-5.05 65.6 1.85 59.15 2.15 58.7 Q2.2 58.5 0.15 57.85 L-3.4 56.65 Q-5.25 55.75 -6.15 54.6 -7.05 53.4 -6.05 52.95 L-5.4 52.85 -4.4 53.05 0.1 53.5 Q1.85 53.45 3.65 52.65 4.85 55.4 9.55 57.8 M42.1 108.15 Q42.0 109.7 41.35 110.8 38.8 114.9 35.5 117.8 32.6 120.4 28.65 121.65 L24.0 122.4 Q21.1 122.4 19.6 121.3 18.25 120.35 19.9 116.8 L22.4 112.4 25.95 107.55 Q28.65 109.25 32.4 108.75 35.85 108.3 38.55 106.35 42.4 103.55 44.55 96.95 46.0 99.6 45.75 102.3 L45.45 103.9 Q45.2 104.25 44.2 104.2 L43.1 104.5 Q42.55 104.85 42.4 105.5 L42.1 108.15 M-21.95 -12.6 Q-18.65 -18.05 -13.7 -19.4 L-11.7 -18.3 Q-18.2 -10.4 -23.85 -1.05 L-25.6 -2.25 Q-24.6 -8.25 -21.95 -12.6 M-25.9 -0.35 L-24.7 0.4 -28.0 6.15 Q-30.85 4.25 -36.55 4.55 -34.9 2.4 -32.85 0.2 -31.05 -1.6 -26.75 -0.75 L-25.9 -0.35 M-8.65 -17.05 L-7.55 -15.4 Q-14.5 -3.4 -20.6 9.05 -25.45 19.0 -27.0 24.65 -28.55 30.45 -28.7 34.55 -28.85 40.35 -26.45 44.1 -31.0 43.4 -35.05 41.8 -36.35 32.95 -32.7 22.2 -30.15 14.55 -24.25 4.2 -17.65 -7.45 -9.95 -16.7 -9.65 -17.05 -9.75 -17.45 L-8.65 -17.05 M-12.6 11.95 L-12.55 12.05 -13.9 13.2 -14.35 13.35 Q-16.65 12.05 -19.3 11.6 L-16.65 6.3 Q-14.35 7.9 -12.6 11.95 M-20.1 13.5 Q-18.25 13.65 -16.6 14.3 L-21.8 17.0 -20.2 13.45 -20.1 13.5 M-3.05 22.85 Q-6.7 22.0 -10.75 23.95 -14.5 25.75 -17.45 29.35 -20.4 32.95 -21.35 36.95 -22.4 41.3 -20.75 44.7 L-24.1 44.45 Q-29.35 38.4 -24.35 23.55 L-23.4 20.85 -22.95 20.7 Q-19.25 17.8 -13.75 15.6 -7.15 18.95 -3.05 22.85 M-33.2 6.65 Q-30.4 6.8 -28.85 7.7 L-31.45 13.0 -32.05 12.95 Q-36.05 14.15 -39.65 16.7 -43.15 19.2 -45.75 22.65 -43.85 14.7 -38.15 6.65 L-37.65 6.75 -33.2 6.65 M-36.2 25.0 Q-39.35 26.85 -41.45 29.3 -43.85 32.1 -44.4 35.25 -46.35 32.4 -46.5 28.35 -44.45 24.05 -40.75 20.7 -37.1 17.3 -32.6 15.6 -34.8 20.8 -35.85 24.95 L-36.2 25.0 M-37.1 40.85 Q-38.8 40.05 -40.85 38.7 L-42.55 37.35 Q-42.5 34.75 -40.6 32.1 -39.05 29.9 -36.6 28.1 -37.95 34.85 -37.1 40.85 M-11.35 44.3 L-18.75 44.75 Q-20.3 42.45 -19.6 39.0 -19.0 36.15 -17.0 33.0 -17.0 36.2 -15.45 39.2 -14.0 42.1 -11.35 44.3 M-38.5 94.05 Q-35.15 94.95 -31.15 99.05 -27.35 103.75 -24.15 108.75 L-21.55 112.9 -21.8 112.95 -32.9 118.05 Q-37.0 114.2 -39.85 109.75 -43.05 104.85 -44.05 100.2 -44.7 97.2 -43.2 95.25 -41.55 93.2 -38.5 94.05 M-11.95 117.2 Q-14.5 120.45 -16.55 122.0 -16.5 119.3 -18.35 115.4 L-21.55 109.8 Q-24.35 104.95 -28.15 100.15 -23.05 101.85 -18.45 107.1 -14.8 111.3 -11.95 117.2 M-20.45 114.85 Q-17.4 120.75 -19.3 123.65 L-19.35 123.8 -20.45 124.2 Q-22.55 124.95 -25.35 123.65 -27.1 122.85 -29.6 120.85 L-30.95 119.75 -20.6 115.0 -20.45 114.85" fill="#ffffff" fill-rule="evenodd" stroke="none"/>
  </g>
</svg>
