<?xml version="1.0" encoding="UTF-8" standalone="no"?>
<svg xmlns:ffdec="https://www.free-decompiler.com/flash" xmlns:xlink="http://www.w3.org/1999/xlink" ffdec:objectType="shape" height="156.45px" width="89.3px" xmlns="http://www.w3.org/2000/svg">
  <g transform="matrix(1.0, 0.0, 0.0, 1.0, 44.95, 27.45)">
    <path d="M23.55 -26.8 Q22.7 -14.35 13.8 -2.55 5.8 8.05 -5.8 14.8 -7.3 13.8 -10.45 12.15 -3.5 7.5 3.65 0.75 10.5 -5.7 14.5 -11.65 19.6 -19.25 20.65 -26.75 L20.45 -27.45 23.55 -26.8 M1.55 -0.55 Q-4.0 4.65 -9.85 8.85 -12.1 4.25 -14.95 2.3 -10.6 -6.95 -5.15 -17.0 -2.15 -14.0 2.9 -14.0 6.55 -14.0 10.2 -15.6 13.9 -17.2 16.45 -19.9 12.5 -10.85 1.55 -0.55 M35.05 -11.55 Q38.2 -2.45 38.5 8.55 38.85 19.15 37.1 30.75 36.05 37.55 34.5 43.6 L34.35 44.05 Q34.05 45.55 33.55 46.1 31.9 47.75 30.05 48.85 26.65 50.8 23.65 50.05 20.85 49.35 19.2 48.45 L17.85 47.4 Q18.35 44.45 18.5 40.2 18.75 32.7 17.65 25.8 16.4 17.9 11.85 7.95 L10.05 9.45 Q13.7 18.7 14.9 26.25 L15.5 31.25 5.95 32.2 5.95 30.95 Q5.8 26.55 2.7 22.4 L2.6 22.2 Q2.55 18.1 3.1 11.6 12.6 4.25 18.5 -5.1 24.95 -15.4 25.6 -26.15 28.8 -24.65 31.35 -21.05 32.8 -18.25 35.05 -11.55 M0.6 19.95 Q-1.45 17.9 -3.7 16.3 -1.75 15.15 0.95 13.25 0.6 16.95 0.6 19.95 M6.15 49.0 Q5.2 49.25 4.75 50.1 4.2 51.2 4.7 52.3 5.8 54.65 10.6 55.6 L12.85 55.95 8.85 61.95 8.35 62.7 Q6.25 65.7 5.7 67.05 4.65 69.4 5.85 70.7 8.1 73.3 13.65 69.15 L14.7 69.65 Q17.25 70.4 21.6 67.7 L24.2 67.85 Q25.95 67.5 27.35 66.05 31.55 61.85 34.2 55.4 31.95 71.8 22.65 78.2 22.0 78.6 22.7 79.55 23.4 80.45 24.0 80.1 L24.2 80.0 24.25 80.0 Q27.6 78.1 30.15 74.7 32.5 71.5 33.8 67.55 L35.25 70.9 Q36.4 74.0 37.1 78.4 L37.2 80.5 Q37.25 82.0 37.55 82.75 38.15 90.1 36.55 95.25 34.25 102.85 27.95 101.0 22.45 98.45 17.6 94.05 12.85 89.8 9.6 84.55 6.9 80.2 4.9 74.0 3.45 69.55 1.95 62.75 0.6 56.3 0.25 51.65 0.15 50.8 -0.85 50.45 -1.85 50.1 -1.8 51.15 -1.05 60.4 1.25 68.7 3.8 78.05 7.95 85.15 10.05 88.75 13.4 92.4 L13.35 92.65 Q13.35 97.2 12.25 104.05 L11.75 106.1 Q11.4 107.6 11.45 108.45 7.85 112.65 3.15 114.25 -2.05 116.0 -6.7 113.7 -10.1 105.0 -13.65 91.25 -16.85 78.4 -17.95 68.05 -19.25 55.3 -17.6 44.55 L-14.2 44.5 -6.9 43.4 -6.55 43.5 -5.85 44.1 Q3.5 47.3 15.5 45.65 L15.45 46.25 Q13.5 47.85 12.1 48.2 L8.05 48.75 6.15 49.0 M15.7 43.4 Q4.6 45.15 -4.15 42.65 3.95 39.85 5.6 34.2 L15.65 33.25 Q16.0 38.6 15.7 43.4 M3.95 29.9 Q4.75 38.35 -7.2 41.2 -11.05 38.8 -12.55 34.9 -14.1 30.8 -12.4 26.7 L-11.85 26.15 Q-9.2 23.55 -5.7 22.55 -1.7 21.35 1.15 23.2 3.6 26.45 3.95 29.9 M28.9 51.7 Q31.45 50.8 33.8 48.95 33.55 51.7 32.6 54.05 30.0 60.6 25.95 64.65 24.7 65.9 23.5 66.0 L22.4 65.8 24.6 62.9 Q27.0 59.8 26.7 58.75 L22.7 63.25 Q18.2 68.25 15.35 67.75 15.05 67.7 14.85 67.5 L14.65 67.35 18.15 62.95 Q21.55 58.55 20.75 57.75 L17.35 61.6 12.65 66.9 Q8.4 70.5 7.3 69.4 6.55 68.55 10.0 63.85 L10.5 63.1 15.7 55.2 15.85 54.7 13.75 54.35 10.0 54.05 Q7.95 53.65 6.8 52.7 5.6 51.75 6.5 51.1 L7.1 50.85 8.1 50.75 12.65 50.15 Q14.05 49.8 15.85 48.5 17.7 50.8 22.8 52.05 25.75 52.75 28.9 51.7 M39.65 84.45 Q41.7 85.6 42.9 86.8 43.65 87.55 44.15 88.95 44.75 90.65 43.75 90.9 41.95 91.4 42.7 93.55 L44.2 96.6 Q44.4 97.05 44.25 98.4 L44.0 100.3 43.35 104.2 Q42.5 107.8 40.55 111.0 38.6 114.25 34.95 116.35 30.35 118.9 29.05 117.4 27.9 116.1 27.85 113.0 27.8 111.95 28.1 108.3 28.3 105.95 28.8 103.25 35.3 104.75 38.05 97.55 40.0 92.35 39.65 84.45 M7.3 118.7 Q6.65 118.3 6.25 118.7 L1.65 123.45 Q-1.0 125.75 -3.95 126.9 -8.55 128.65 -14.0 128.95 -18.55 129.3 -19.3 127.75 -20.05 126.15 -17.1 123.2 L-12.85 119.65 Q-10.3 117.6 -7.05 115.55 -2.1 118.05 3.45 116.5 8.6 115.1 12.5 110.85 13.55 113.1 13.8 114.95 14.1 116.7 13.25 117.85 12.5 118.8 10.7 119.6 8.3 120.7 8.0 119.6 L7.3 118.7 M-21.5 -14.9 Q-18.35 -20.45 -13.4 -21.9 -12.95 -22.05 -12.95 -22.45 L-11.35 -21.45 Q-17.8 -12.9 -23.15 -3.3 L-24.95 -4.4 Q-24.05 -10.45 -21.5 -14.9 M-25.1 -2.45 Q-24.6 -2.25 -24.4 -2.05 L-24.0 -1.8 -27.1 4.05 Q-29.8 2.3 -35.65 2.7 L-32.25 -1.5 Q-30.35 -3.65 -26.0 -2.85 L-25.1 -2.45 M-6.65 -18.95 L-6.9 -18.7 Q-13.95 -5.6 -19.6 6.75 -24.15 16.85 -25.55 22.5 -26.95 28.35 -27.0 32.45 -27.0 38.25 -24.45 41.95 -28.9 41.35 -33.1 39.85 -34.7 30.95 -31.2 19.85 -28.75 12.05 -23.0 1.2 -16.55 -10.8 -9.2 -20.35 L-6.9 -19.45 -6.65 -18.95 M-15.45 11.9 Q-18.05 13.05 -20.6 14.75 L-19.1 11.2 -19.0 11.2 Q-17.25 11.25 -15.45 11.9 M-12.5 10.65 L-12.75 10.7 -13.2 10.9 Q-15.4 9.65 -18.2 9.25 L-15.75 3.9 Q-13.4 5.4 -11.4 9.7 L-11.3 9.85 -12.5 10.65 M-1.7 20.1 Q-5.4 19.4 -9.35 21.45 -13.05 23.35 -15.9 27.0 -18.75 30.7 -19.6 34.7 -20.55 39.05 -18.75 42.4 L-22.1 42.25 Q-25.3 38.75 -25.05 32.3 -24.85 28.05 -23.05 21.65 L-22.05 18.65 -21.6 18.5 Q-18.2 15.65 -12.55 13.15 -9.25 14.65 -5.9 16.8 L-5.65 17.0 Q-3.2 18.65 -1.7 20.1 M-30.3 11.0 L-30.9 10.95 Q-34.85 12.25 -38.4 14.95 -41.9 17.6 -44.4 21.15 -42.8 13.25 -37.2 4.9 L-36.75 4.95 Q-30.4 4.3 -27.9 5.65 L-30.3 11.0 M-34.9 23.25 Q-37.9 25.1 -39.9 27.65 -42.2 30.5 -42.65 33.6 -44.7 30.7 -44.95 26.8 -43.0 22.45 -39.45 18.95 -35.85 15.5 -31.4 13.65 -33.35 18.7 -34.4 23.15 L-34.9 23.25 M-35.2 39.0 L-38.2 37.5 -40.75 35.65 Q-40.7 30.55 -35.0 26.25 -36.2 33.05 -35.2 39.0 M-15.3 30.55 Q-15.25 33.75 -13.65 36.7 -12.1 39.5 -9.45 41.65 L-16.75 42.4 Q-18.3 40.05 -17.7 36.65 -17.2 33.75 -15.3 30.55" fill="#ffffff" fill-rule="evenodd" stroke="none"/>
  </g>
</svg>
