<?xml version="1.0" encoding="UTF-8" standalone="no"?>
<svg xmlns:ffdec="https://www.free-decompiler.com/flash" xmlns:xlink="http://www.w3.org/1999/xlink" ffdec:objectType="shape" height="158.65px" width="97.25px" xmlns="http://www.w3.org/2000/svg">
  <g transform="matrix(1.0, 0.0, 0.0, 1.0, 43.9, 29.7)">
    <path d="M29.45 -25.25 Q32.6 -22.3 35.65 -18.2 41.5 -10.25 45.05 -0.1 48.65 9.9 50.5 21.45 51.6 28.5 51.9 34.5 L51.95 34.95 Q52.05 36.55 51.75 37.15 50.8 39.15 49.3 40.8 46.65 43.75 43.6 43.95 L38.85 43.8 37.25 43.2 Q36.75 40.1 35.65 36.15 33.65 28.9 30.5 22.7 27.15 16.1 20.4 8.45 L14.25 2.1 13.55 3.95 18.9 10.2 Q24.8 17.65 28.0 23.95 L28.05 24.05 Q25.95 25.4 22.55 26.6 16.75 28.55 9.4 28.95 8.45 27.3 7.75 19.85 6.95 11.55 7.3 3.4 14.3 -3.35 19.0 -10.75 24.2 -18.95 26.05 -27.2 L29.45 -25.25 M22.2 -29.4 L24.05 -28.35 Q21.65 -17.35 13.1 -6.5 5.75 2.8 -4.8 10.5 -7.05 9.05 -9.6 7.75 -2.7 1.7 4.75 -6.1 11.1 -12.7 15.45 -18.65 20.15 -24.95 21.25 -29.7 L22.2 -29.4 M14.85 -21.85 L13.25 -19.6 Q9.4 -14.4 2.25 -6.9 -3.95 -0.5 -9.05 4.05 -11.2 -0.1 -13.9 -2.0 -9.4 -11.6 -4.3 -20.9 -1.35 -18.0 3.65 -18.0 9.65 -18.0 14.85 -21.85 M52.9 39.8 Q53.45 42.75 53.35 45.0 52.8 52.0 50.2 57.15 48.9 59.7 47.15 59.35 L48.4 55.85 Q49.75 52.2 49.15 51.3 L46.7 56.8 Q43.95 62.95 41.05 63.35 L40.5 63.25 40.3 63.15 42.3 57.9 Q44.2 52.7 43.15 52.15 43.0 52.1 41.1 56.85 38.95 62.15 38.2 63.35 35.3 68.15 33.9 67.35 33.1 66.9 34.1 63.5 L34.25 62.85 35.05 60.4 36.65 54.75 37.55 51.3 37.55 50.75 35.45 51.1 31.75 51.9 28.35 51.6 Q26.95 51.05 27.55 50.15 27.95 49.8 28.05 49.75 L29.0 49.35 Q31.35 48.55 33.1 47.4 34.5 46.5 35.65 44.85 38.3 46.5 43.4 46.1 48.95 45.7 52.9 39.8 M3.3 17.5 Q1.0 14.65 -2.75 11.9 L5.25 5.35 Q5.0 13.9 6.0 21.95 5.15 20.05 3.75 18.1 L3.3 17.5 M7.0 27.9 Q7.6 30.05 8.15 30.55 8.6 31.0 9.1 31.0 L9.15 31.0 Q16.75 30.6 22.7 28.65 26.5 27.4 28.9 25.85 30.6 29.55 32.15 34.05 25.7 39.0 14.35 40.6 3.65 42.15 -5.3 39.1 L-5.1 38.95 Q-0.05 37.6 3.0 35.15 6.7 32.15 7.0 27.9 M26.6 48.25 Q25.8 48.8 25.6 49.75 25.35 50.95 26.2 51.85 28.0 53.85 32.85 53.2 L33.9 53.05 Q32.7 58.2 29.8 62.65 26.45 66.5 20.35 72.15 19.7 72.7 20.45 73.55 21.2 74.4 21.9 73.95 27.85 69.9 31.6 64.15 L31.95 63.75 Q30.95 67.95 32.9 69.05 33.95 69.6 34.9 69.4 36.1 74.3 34.95 79.45 33.7 85.1 30.05 87.95 26.3 90.9 17.2 87.0 L16.2 86.6 Q10.55 84.1 7.15 77.4 5.2 73.5 2.9 64.85 0.6 56.5 -0.05 48.6 -0.15 47.75 -1.15 47.4 -2.15 47.05 -2.1 48.1 -1.3 57.4 2.1 68.8 4.35 76.25 7.1 80.45 10.65 86.0 16.25 88.6 19.7 96.3 20.35 108.4 16.7 112.65 11.95 114.2 6.65 115.95 1.95 113.55 -2.4 107.6 -6.95 95.45 -16.0 71.4 -15.75 40.25 L-13.15 40.2 -8.6 39.7 -8.15 40.05 Q1.65 44.15 14.1 42.85 25.75 41.6 32.95 36.45 L34.65 42.9 34.6 42.85 Q33.45 44.75 32.0 45.75 30.6 46.7 28.35 47.5 27.1 47.95 26.6 48.25 M5.0 25.6 Q5.8 34.05 -6.15 36.9 -10.0 34.5 -11.5 30.6 -13.05 26.5 -11.35 22.4 L-10.8 21.85 Q-8.15 19.25 -4.65 18.25 -0.65 17.05 2.2 18.9 4.65 22.15 5.0 25.6 M37.45 69.6 Q39.2 67.95 40.6 71.7 L41.75 76.5 Q41.9 77.5 39.85 78.1 37.8 78.65 38.05 79.85 38.35 81.3 39.35 82.95 L40.7 84.9 Q41.4 85.9 41.5 87.2 L41.5 89.65 Q40.95 101.0 35.35 104.75 33.25 106.15 30.35 100.3 28.45 96.4 26.95 91.25 29.9 91.1 31.95 89.5 35.75 86.5 37.0 80.4 38.1 75.0 36.9 69.75 L37.45 69.6 M20.45 119.2 Q17.2 120.8 16.9 119.55 16.75 119.05 16.2 118.65 15.55 118.25 15.15 118.65 L10.55 123.4 Q7.9 125.7 4.95 126.85 0.35 128.6 -5.1 128.9 -9.65 129.25 -10.4 127.7 -11.15 126.1 -8.2 123.15 L-3.95 119.6 1.85 115.5 Q6.75 117.95 12.2 116.5 17.3 115.15 21.2 111.0 L22.4 113.35 Q23.7 117.35 20.45 119.2 M-12.1 -26.35 L-10.3 -25.25 Q-16.4 -17.45 -22.05 -7.55 L-23.9 -8.7 Q-23.0 -14.75 -20.45 -19.2 -17.3 -24.75 -12.35 -26.2 L-12.1 -26.35 M-31.2 -5.8 Q-29.3 -7.95 -24.95 -7.15 L-24.05 -6.75 Q-23.55 -6.55 -23.35 -6.35 L-22.9 -6.05 -26.0 -0.25 Q-28.75 -2.0 -34.6 -1.6 L-31.2 -5.8 M-5.85 -22.95 Q-12.7 -10.45 -18.55 2.45 -23.1 12.55 -24.5 18.2 -25.9 24.05 -25.95 28.15 -25.95 33.95 -23.4 37.65 -27.85 37.05 -32.05 35.55 -33.6 26.75 -30.3 15.95 -27.9 8.15 -22.35 -2.25 -16.0 -14.15 -8.65 -23.6 -8.4 -23.85 -8.5 -24.35 L-6.15 -23.45 -5.85 -22.95 M-17.15 4.95 L-14.7 -0.4 Q-12.35 1.15 -10.4 5.25 L-11.75 6.4 -12.15 6.6 Q-14.35 5.35 -17.15 4.95 M-19.55 10.45 L-18.05 6.9 -17.95 6.9 Q-16.2 6.95 -14.4 7.6 -17.0 8.75 -19.55 10.45 M-8.3 17.15 Q-12.0 19.05 -14.85 22.7 -17.7 26.4 -18.55 30.4 -19.5 34.75 -17.7 38.1 L-21.05 37.95 Q-24.25 34.45 -24.0 28.0 -23.8 23.75 -22.0 17.35 L-21.0 14.35 -20.55 14.2 Q-17.15 11.35 -11.5 8.85 -4.8 11.95 -0.65 15.8 -4.35 15.1 -8.3 17.15 M-29.85 6.65 Q-33.8 7.95 -37.35 10.65 -40.85 13.3 -43.35 16.85 -41.75 8.95 -36.15 0.6 L-35.7 0.65 Q-29.25 0.0 -26.8 1.35 L-29.25 6.7 -29.85 6.65 M-38.85 23.35 Q-41.15 26.2 -41.6 29.3 -43.65 26.4 -43.9 22.5 -41.95 18.15 -38.4 14.65 -34.8 11.2 -30.35 9.35 -32.3 14.4 -33.35 18.85 L-33.85 18.95 Q-36.85 20.8 -38.85 23.35 M-39.7 31.35 Q-39.65 26.25 -34.0 21.95 -35.15 28.8 -34.15 34.7 L-37.15 33.2 -39.7 31.35 M-14.25 26.25 Q-14.2 29.45 -12.6 32.4 -11.05 35.2 -8.4 37.35 L-15.7 38.1 Q-17.25 35.75 -16.65 32.35 -16.15 29.45 -14.25 26.25" fill="#ffffff" fill-rule="evenodd" stroke="none"/>
  </g>
</svg>
