<?xml version="1.0" encoding="UTF-8" standalone="no"?>
<svg xmlns:ffdec="https://www.free-decompiler.com/flash" xmlns:xlink="http://www.w3.org/1999/xlink" ffdec:objectType="shape" height="149.55px" width="102.45px" xmlns="http://www.w3.org/2000/svg">
  <g transform="matrix(1.0, 0.0, 0.0, 1.0, 42.7, 26.55)">
    <path d="M25.7 -23.8 Q30.25 -20.95 35.1 -15.8 41.65 -8.7 46.45 1.15 51.1 10.7 54.25 21.95 56.15 28.75 57.15 34.8 L57.2 35.2 Q57.5 36.75 57.25 37.45 56.5 39.6 55.2 41.35 52.95 44.55 49.9 45.1 45.1 46.0 43.5 45.1 42.65 42.0 41.1 38.25 38.3 31.3 34.5 25.45 30.45 19.25 22.9 12.4 L16.1 6.75 15.6 8.7 21.45 14.2 Q28.05 20.8 31.95 26.6 29.4 28.35 25.4 29.8 18.8 32.15 10.1 32.75 9.05 31.1 8.2 23.65 7.2 15.2 7.8 7.35 15.1 0.9 19.7 -6.75 24.7 -15.15 25.7 -23.8 M17.8 -8.25 Q13.25 -0.6 6.0 5.75 L5.9 5.75 5.9 5.8 Q1.45 9.7 -3.55 12.65 -5.35 11.4 -8.15 9.9 1.55 3.4 9.2 -6.2 16.95 -15.85 21.0 -26.55 L23.75 -25.15 Q22.8 -16.6 17.8 -8.25 M15.55 -20.05 Q11.45 -12.3 5.5 -5.45 -0.45 1.45 -7.55 6.6 -9.8 1.95 -12.6 0.05 -8.4 -8.65 -3.1 -18.35 -0.25 -16.1 4.1 -16.1 7.05 -16.1 10.1 -17.15 13.1 -18.2 15.55 -20.05 M49.95 47.25 Q55.4 46.25 58.7 39.95 59.55 42.55 59.7 45.05 60.0 51.9 57.95 57.5 57.0 60.0 55.15 60.0 L56.0 56.4 Q56.95 52.6 56.25 51.75 L54.4 57.5 Q52.35 63.95 49.55 64.65 L49.0 64.65 48.75 64.55 50.15 59.1 Q51.45 53.75 50.35 53.3 50.25 53.25 48.85 58.2 47.35 63.65 46.7 64.95 44.35 70.1 42.9 69.4 41.9 69.0 43.05 63.3 L43.2 62.4 44.2 56.55 44.7 53.05 44.65 52.55 Q44.55 52.3 42.6 53.05 L39.05 54.3 35.6 54.45 Q34.15 54.05 34.65 53.05 L35.1 52.6 36.0 52.1 39.85 49.7 Q41.15 48.65 42.1 46.85 44.7 48.25 49.95 47.25 M4.5 19.7 Q2.25 16.85 -1.4 14.1 1.95 12.1 5.7 9.1 5.4 15.2 6.0 21.8 L4.95 20.25 4.5 19.7 M9.9 34.75 Q19.0 34.15 25.9 31.75 30.25 30.2 33.0 28.3 L36.05 33.65 Q30.1 40.3 16.85 43.15 4.45 45.7 -6.3 41.55 L-4.75 41.25 Q-4.2 41.4 -4.05 41.05 5.8 38.5 7.75 32.15 8.2 33.7 8.75 34.25 9.25 34.75 9.8 34.75 L9.9 34.75 M3.1 35.3 Q0.25 37.8 -5.05 39.0 -8.9 36.55 -10.35 32.65 -11.9 28.6 -10.15 24.5 L-9.6 23.9 Q-6.9 21.35 -3.45 20.35 0.55 19.15 3.4 21.05 5.85 24.35 6.15 27.8 6.55 32.3 3.1 35.3 M35.5 37.5 Q36.1 43.25 34.0 50.5 L34.0 50.9 Q32.75 51.7 32.65 52.85 L32.75 53.8 32.7 53.85 Q27.0 66.8 11.6 74.1 10.8 74.5 11.4 75.5 12.05 76.5 12.8 76.15 L19.4 73.2 Q22.15 77.55 21.85 86.15 19.75 93.3 17.75 96.35 14.15 101.95 9.0 99.45 L5.65 96.75 Q1.55 93.15 -2.15 88.85 -7.1 83.15 -8.95 77.9 -10.9 72.25 -7.15 65.2 -3.15 57.85 4.85 51.9 5.55 51.35 4.75 50.5 3.95 49.6 3.25 50.1 -5.1 56.35 -9.25 64.3 -12.25 60.0 -13.35 57.6 -16.0 51.7 -15.75 42.25 L-12.05 42.25 -9.2 42.0 -8.55 42.6 Q3.0 47.8 16.85 45.4 28.9 43.25 35.5 37.5 M23.3 69.65 Q30.15 83.55 29.55 101.75 L29.55 104.0 Q26.85 106.95 23.75 108.45 25.0 106.0 25.85 103.25 26.05 102.65 25.65 100.5 25.3 98.55 25.75 98.1 L26.55 98.0 27.5 97.8 Q28.1 97.3 28.25 96.25 L28.2 94.45 Q28.05 92.2 26.8 90.1 25.85 88.45 23.9 86.5 24.1 76.8 20.45 71.75 L23.3 69.65 M23.85 96.65 Q23.35 97.6 23.7 99.1 L23.85 101.75 23.1 104.35 Q21.95 107.15 20.35 109.65 L20.25 109.65 Q19.7 109.8 19.8 110.35 18.2 112.65 16.1 114.45 13.8 116.4 10.8 117.4 7.55 118.45 4.8 117.9 3.2 117.6 3.9 114.05 L4.0 113.4 4.5 111.5 Q5.85 106.75 8.9 101.35 L10.45 102.05 Q15.5 103.85 19.15 98.6 21.45 95.3 23.45 88.5 26.0 91.3 26.2 94.65 26.3 95.9 25.4 95.95 24.2 96.0 23.85 96.65 M38.6 48.15 L36.5 49.6 Q38.3 42.05 37.25 36.15 39.35 40.55 40.85 45.0 39.8 47.05 38.6 48.15 M24.65 114.15 L23.5 114.05 19.15 118.1 Q16.05 120.95 9.85 122.25 L0.1 122.75 Q-5.6 121.8 1.8 115.7 1.95 117.95 3.55 119.3 5.35 120.75 8.9 120.15 11.5 119.75 14.25 118.45 18.5 116.5 21.85 111.6 26.35 110.5 30.3 106.65 31.65 109.85 31.25 112.3 31.05 113.75 28.3 115.05 25.55 116.35 25.3 115.25 25.2 114.65 24.65 114.15 M-21.95 -4.35 L-21.55 -4.05 -24.7 1.75 Q-27.4 0.0 -33.3 0.3 L-29.85 -3.9 Q-27.95 -6.0 -23.6 -5.2 L-21.95 -4.35 M-22.5 -6.7 Q-21.55 -12.7 -19.05 -17.1 -15.95 -22.55 -11.05 -24.05 L-9.05 -22.9 Q-15.1 -15.25 -20.7 -5.55 -21.45 -6.2 -22.5 -6.7 M-5.7 -21.5 L-4.8 -20.05 Q-11.75 -7.45 -17.25 4.45 -21.9 14.8 -23.3 20.2 -24.75 26.0 -24.75 30.15 -24.8 35.95 -22.3 39.65 -26.75 39.05 -31.0 37.45 -32.5 28.7 -29.05 17.9 -26.65 10.2 -21.0 -0.25 -14.45 -12.35 -7.15 -21.5 -7.0 -21.7 -7.0 -22.0 L-5.7 -21.5 M-8.95 7.6 L-10.2 8.4 -10.45 8.45 -10.85 8.65 Q-13.1 7.45 -15.85 6.95 L-13.35 1.65 Q-11.05 3.15 -9.05 7.5 L-8.95 7.6 M-13.15 9.65 Q-15.95 10.9 -18.3 12.5 L-16.75 8.9 -16.65 8.95 Q-14.95 9.0 -13.15 9.65 M-19.35 16.2 Q-15.8 13.25 -10.25 10.9 -6.6 12.65 -3.65 14.65 L-3.35 14.8 Q-1.1 16.35 0.55 17.9 -3.15 17.15 -7.1 19.2 -10.85 21.1 -13.7 24.75 -16.55 28.4 -17.4 32.4 -18.35 36.75 -16.6 40.1 L-20.0 39.95 Q-23.15 36.45 -22.85 29.95 -22.65 25.65 -20.8 19.35 L-19.8 16.35 -19.35 16.2 M-25.5 3.35 L-28.0 8.65 -28.55 8.6 Q-32.55 9.9 -36.1 12.55 -39.6 15.2 -42.1 18.7 -40.5 10.95 -34.8 2.5 L-34.35 2.55 -29.9 2.35 Q-27.05 2.45 -25.5 3.35 M-32.65 20.9 Q-35.65 22.75 -37.65 25.25 -39.95 28.05 -40.45 31.15 -42.55 28.2 -42.7 24.35 -40.75 20.0 -37.15 16.55 -33.55 13.1 -29.1 11.3 -31.1 16.25 -32.15 20.8 L-32.65 20.9 M-38.6 33.25 Q-38.55 28.15 -32.8 23.85 -34.0 30.55 -33.05 36.6 L-36.05 35.05 -38.6 33.25 M-11.5 34.45 Q-10.0 37.25 -7.35 39.45 L-14.65 40.1 Q-16.2 37.8 -15.55 34.35 -15.0 31.5 -13.1 28.35 -13.05 31.5 -11.5 34.45" fill="#ffffff" fill-rule="evenodd" stroke="none"/>
  </g>
</svg>
