<?xml version="1.0" encoding="UTF-8" standalone="no"?>
<svg xmlns:ffdec="https://www.free-decompiler.com/flash" xmlns:xlink="http://www.w3.org/1999/xlink" ffdec:objectType="shape" height="167.95px" width="83.1px" xmlns="http://www.w3.org/2000/svg">
  <g transform="matrix(1.0, 0.0, 0.0, 1.0, 33.3, 44.15)">
    <path d="M31.0 -43.25 Q38.7 -40.3 43.35 -26.75 45.7 -20.0 46.4 -12.95 47.1 -5.55 45.85 1.3 45.65 1.5 45.7 1.85 L45.75 1.9 Q43.9 10.85 39.05 17.5 36.1 21.5 32.95 23.7 28.85 26.6 24.45 24.45 20.7 22.6 18.05 18.05 16.85 15.9 16.15 13.8 16.55 13.75 16.55 13.25 L18.15 11.9 Q20.95 9.25 22.55 5.75 24.15 2.2 24.25 -1.65 24.35 -5.3 23.25 -9.35 22.15 -13.4 20.15 -16.45 18.3 -19.2 16.5 -19.5 15.45 -19.7 15.65 -18.6 15.85 -17.55 16.7 -17.45 L17.4 -17.1 12.9 -17.25 8.35 -17.6 7.05 -26.15 Q12.25 -26.8 15.65 -30.75 18.95 -34.5 19.4 -39.85 L19.35 -40.25 19.55 -40.45 Q21.15 -43.35 24.65 -44.0 27.7 -44.55 31.0 -43.25 M9.45 -32.1 Q13.45 -33.45 16.25 -36.1 14.85 -32.75 12.15 -30.65 9.3 -28.45 5.6 -28.15 4.85 -28.15 4.95 -27.35 L6.35 -18.0 4.95 -18.35 2.75 -19.05 0.55 -18.8 Q-0.3 -18.25 -0.85 -16.9 -1.55 -15.25 -2.0 -14.8 L-3.65 -12.15 Q-4.2 -18.2 -4.3 -26.75 -4.3 -28.1 -5.6 -29.5 L-7.55 -32.15 Q-8.5 -34.35 -7.25 -37.0 -4.85 -31.95 1.65 -31.2 5.45 -30.8 9.45 -32.1 M4.65 -16.5 Q6.55 -15.8 9.85 -15.55 L19.05 -14.9 Q22.1 -9.75 22.2 -3.05 L22.05 -3.05 Q17.45 -2.45 10.55 -4.1 8.4 -4.55 7.5 -7.45 L6.35 -12.35 Q5.8 -14.1 4.45 -15.15 3.15 -16.2 1.5 -16.25 2.4 -17.2 4.65 -16.5 M6.9 -4.5 Q7.9 -3.1 9.6 -2.4 L13.0 -1.55 Q18.3 -0.45 22.15 -0.85 L21.55 2.2 21.1 2.0 12.35 1.05 Q11.75 0.05 10.75 -0.75 9.7 -1.55 8.8 -1.7 6.25 -2.15 4.55 0.05 2.15 0.05 0.4 -1.25 -1.45 -2.55 -2.15 -4.8 -3.3 -8.3 -1.1 -12.05 L-0.4 -12.85 0.3 -13.7 Q3.35 -15.15 4.75 -11.05 L6.9 -4.5 M46.3 22.65 L46.2 22.7 Q39.2 27.6 34.4 28.45 L34.65 25.35 Q42.6 19.7 46.5 8.05 47.1 15.45 46.3 22.65 M43.6 35.45 Q40.65 42.9 32.85 53.2 26.45 61.7 23.85 63.7 23.6 63.9 23.65 64.25 L23.85 64.9 27.35 70.8 30.15 76.35 Q31.6 79.95 30.95 82.2 L30.95 82.4 Q25.3 87.1 18.8 89.25 L20.75 71.05 Q21.25 67.15 24.25 62.05 L29.15 53.55 Q30.75 50.0 31.2 44.65 31.45 41.6 31.35 35.45 33.25 33.8 34.0 30.6 L34.45 30.7 Q39.3 30.1 45.9 25.8 44.95 32.1 43.6 35.45 M42.15 45.25 Q43.1 44.95 44.3 45.55 L46.25 47.05 Q46.95 47.9 47.55 49.25 47.15 49.4 47.15 50.0 47.35 53.5 44.85 56.4 42.65 58.9 39.05 60.3 39.6 55.35 38.65 49.75 L41.55 45.2 42.15 45.25 M10.3 7.5 Q9.1 18.85 8.65 27.35 7.95 39.55 9.75 47.65 10.7 51.8 13.1 56.35 L15.2 60.7 Q16.05 62.9 16.0 65.3 15.95 66.2 16.95 66.55 17.95 66.9 18.0 65.8 18.05 62.45 16.6 59.3 18.75 57.95 20.65 55.0 22.3 52.4 23.15 49.65 24.9 44.25 25.25 37.1 L29.05 36.75 29.35 36.6 Q29.35 42.35 28.7 46.25 27.85 51.4 25.65 55.25 L21.4 62.6 Q19.2 66.85 18.7 70.6 L15.95 96.75 13.5 121.4 13.3 122.6 12.05 123.3 Q9.9 124.5 7.65 122.9 L7.7 122.4 Q8.3 114.3 9.85 101.45 11.8 85.15 12.3 69.8 L12.4 66.05 Q12.3 63.8 11.65 62.4 L9.15 58.0 Q7.5 55.3 6.8 53.5 3.8 45.95 4.35 33.35 L4.35 32.8 4.95 23.15 6.2 1.75 Q7.15 0.55 9.05 0.4 11.05 0.2 10.85 2.0 L10.3 7.5 M11.25 19.95 L11.4 17.9 11.75 17.4 Q12.15 15.1 14.4 14.2 16.8 20.75 21.45 24.65 26.95 29.25 32.55 26.65 31.85 33.4 27.65 34.75 L24.5 34.95 24.4 34.9 25.75 31.3 Q25.95 30.5 25.0 29.95 24.0 29.35 23.75 30.3 22.15 36.45 18.45 36.5 L16.65 36.15 Q18.7 34.25 19.6 31.15 19.85 30.35 18.85 29.8 17.9 29.2 17.6 30.15 16.8 32.8 15.0 34.5 12.9 36.35 10.4 36.05 L10.4 32.65 Q12.75 29.85 13.7 27.95 15.15 24.8 13.95 22.45 13.0 20.7 11.25 19.95 M0.9 11.95 L-0.05 8.45 -2.25 -1.5 Q0.25 1.65 4.15 2.15 L2.75 25.55 2.5 31.35 Q-3.1 30.45 -9.05 26.35 L-8.3 24.5 -6.55 20.65 Q-5.5 18.35 -5.1 16.7 L-0.85 17.65 Q1.8 17.7 1.6 15.5 L0.9 11.95 M11.85 12.95 L12.85 3.15 20.9 4.0 Q18.75 9.0 14.5 11.85 13.05 12.05 11.85 12.95 M1.65 42.1 Q-2.65 48.35 -4.2 55.85 -5.8 63.8 -3.7 70.65 L-2.75 73.5 Q-6.25 72.95 -9.1 71.55 -12.45 69.85 -14.15 67.3 -15.9 64.75 -16.3 60.65 -16.55 58.1 -16.3 53.55 -15.9 47.2 -13.2 38.15 -11.6 32.85 -9.7 28.0 -3.55 32.3 2.4 33.3 2.3 38.45 2.55 41.8 2.0 41.65 1.65 42.1 M19.15 38.6 Q21.55 38.65 23.2 36.75 22.9 42.05 21.75 46.55 21.05 49.55 19.5 52.35 17.75 55.55 15.55 57.15 12.25 51.1 11.25 45.5 10.6 42.0 10.45 38.1 12.9 38.5 15.05 37.35 17.0 38.55 19.15 38.6 M10.6 28.45 L11.1 21.85 Q14.05 23.1 10.6 28.45 M37.0 52.05 Q37.7 58.5 36.25 63.45 34.5 69.5 29.8 71.85 L29.3 70.85 Q33.2 67.4 31.75 58.8 L31.9 58.65 37.0 52.05 M25.95 65.05 L30.05 60.85 Q30.35 66.15 28.15 68.65 L25.95 65.05 M39.0 62.75 Q42.55 61.7 45.2 59.4 48.05 56.85 48.85 53.6 L49.2 55.55 Q48.9 55.65 48.9 56.05 48.15 61.6 45.55 66.5 42.75 71.75 38.5 74.85 L38.3 75.05 Q34.35 76.55 31.7 75.4 L31.45 75.3 30.8 74.0 Q36.9 71.1 38.65 62.75 L39.0 62.75 M8.75 60.6 Q10.2 62.9 10.3 64.6 L10.25 72.15 9.7 79.7 8.75 90.7 Q1.6 80.7 -1.6 71.3 -3.75 65.05 -2.35 57.55 -1.05 50.65 2.85 44.55 3.7 51.55 6.45 56.9 L8.75 60.6 M18.65 91.7 Q25.15 89.9 31.3 85.15 L32.15 87.45 Q32.6 88.75 32.5 89.75 32.3 91.7 27.95 94.6 L27.5 93.8 Q27.15 93.35 26.65 93.15 26.05 92.9 25.75 93.4 21.5 100.2 17.35 103.7 L18.55 91.7 18.65 91.7 M32.85 83.55 Q33.6 81.0 32.4 77.65 39.15 79.55 49.55 70.65 49.3 74.75 48.25 78.75 L47.95 78.85 Q44.3 81.95 41.1 83.45 36.25 85.75 33.2 84.05 L32.85 83.55 M34.25 87.75 L33.9 86.35 Q39.0 88.3 47.0 82.65 45.05 87.75 42.05 90.25 38.45 93.25 33.75 92.3 L34.05 91.9 Q34.6 91.1 34.55 89.85 L34.25 87.75 M45.85 70.6 Q48.4 66.65 49.8 62.15 L49.75 67.3 45.85 70.6 M1.3 108.35 Q1.45 107.05 2.4 105.3 2.55 104.9 4.05 102.45 5.6 99.75 8.2 96.05 L6.8 109.15 6.3 109.15 Q1.15 110.4 1.3 108.35 M-14.65 -30.05 Q-15.7 -30.4 -15.55 -29.35 L-14.45 -22.45 -19.1 -23.1 Q-18.7 -23.3 -18.75 -23.85 -19.35 -38.55 -13.55 -41.55 L-9.1 -38.45 Q-10.15 -36.45 -9.85 -34.0 -9.55 -31.75 -8.2 -29.75 -6.3 -27.4 -6.3 -27.95 L-6.3 -26.4 -5.95 -17.25 Q-5.3 -5.3 -2.4 6.7 L-1.35 10.7 -0.45 14.7 Q-0.2 16.3 -4.8 14.85 -4.25 10.35 -5.95 4.0 L-10.25 -12.3 Q-12.45 -21.4 -13.5 -28.85 -13.6 -29.7 -14.65 -30.05 M-25.9 -17.25 Q-25.2 -15.0 -24.25 -10.6 -23.6 -9.3 -22.15 -8.45 L-19.3 -7.35 -15.1 -6.3 -10.8 -6.0 -10.0 -2.95 -20.05 -5.9 Q-20.95 -6.8 -22.15 -7.35 L-24.65 -7.4 Q-25.8 -6.95 -26.7 -5.9 -31.9 -6.15 -33.05 -11.3 -34.15 -16.25 -30.45 -19.7 L-30.35 -19.85 Q-27.15 -21.3 -25.9 -17.25 M-26.05 -21.2 Q-27.4 -22.25 -29.1 -22.35 -28.5 -23.35 -26.95 -22.95 L-24.6 -22.0 Q-22.65 -21.25 -19.4 -20.9 L-14.05 -20.35 Q-13.0 -14.5 -11.4 -8.1 L-16.05 -8.5 -20.6 -9.75 Q-22.65 -10.35 -23.4 -13.35 L-24.25 -18.3 Q-24.75 -20.1 -26.05 -21.2 M-23.65 -5.3 Q-21.45 -5.6 -20.55 -3.6 L-21.4 1.85 Q-23.05 12.45 -24.0 20.9 -25.45 33.45 -24.1 41.65 -23.4 45.8 -21.4 50.2 -20.55 52.1 -19.35 56.6 L-18.25 60.7 Q-17.75 64.1 -16.45 66.65 -18.45 76.7 -20.6 91.1 L-24.25 115.7 -24.5 116.9 -25.7 117.55 Q-27.95 118.6 -30.1 116.95 L-30.1 116.7 Q-29.15 108.85 -26.9 96.1 -23.35 76.45 -22.45 61.55 -22.3 58.9 -23.25 56.45 L-25.55 51.75 Q-28.0 46.95 -28.7 40.8 -29.25 35.9 -28.75 29.4 -27.8 18.05 -25.1 -4.15 -24.3 -5.2 -23.65 -5.3 M-18.55 -3.45 L-9.35 -0.75 -7.85 4.05 Q-6.9 6.95 -6.7 10.05 -6.5 13.5 -7.3 16.2 -10.75 14.35 -14.5 14.4 -18.4 14.5 -21.4 16.8 L-21.2 15.2 -18.55 -2.6 -18.55 -3.45 M-18.75 19.35 Q-18.75 24.5 -15.5 28.8 -16.55 30.75 -17.9 31.75 -18.9 32.5 -20.45 32.15 -22.05 31.8 -22.4 30.7 L-22.75 30.15 -22.55 26.95 Q-20.0 27.3 -18.55 25.95 -17.95 25.3 -18.75 24.45 -19.55 23.55 -20.15 24.1 -20.9 24.9 -22.4 24.9 L-21.75 19.35 Q-21.1 19.75 -20.7 19.35 -18.1 16.95 -14.55 16.6 -11.15 16.3 -7.9 17.9 L-8.0 18.1 Q-10.0 22.25 -12.15 28.15 L-12.65 29.45 Q-14.65 27.7 -15.7 25.1 -16.75 22.6 -16.75 19.85 -16.75 19.0 -17.75 18.65 -18.8 18.3 -18.75 19.35 M-16.8 33.95 Q-15.0 32.9 -13.85 30.65 L-13.25 31.15 -14.8 35.7 -16.25 35.4 -16.55 35.15 -16.7 34.95 -16.8 33.95" fill="#ffffff" fill-rule="evenodd" stroke="none"/>
  </g>
</svg>
