<?xml version="1.0" encoding="UTF-8" standalone="no"?>
<svg xmlns:ffdec="https://www.free-decompiler.com/flash" xmlns:xlink="http://www.w3.org/1999/xlink" ffdec:objectType="shape" height="168.75px" width="82.1px" xmlns="http://www.w3.org/2000/svg">
  <g transform="matrix(1.0, 0.0, 0.0, 1.0, 29.3, 45.85)">
    <path d="M26.65 -45.2 Q29.25 -46.2 32.3 -45.65 37.15 -44.8 41.2 -40.35 44.15 -37.05 46.95 -31.45 52.35 -20.5 52.75 -8.55 53.2 4.45 47.4 14.2 44.8 18.55 41.7 21.1 L41.7 21.15 Q38.1 24.15 33.8 22.85 30.0 21.75 27.0 17.85 25.35 15.75 24.0 12.85 L24.35 12.3 25.6 11.05 Q30.85 5.3 30.75 -2.5 30.75 -6.25 29.2 -10.45 27.75 -14.5 25.35 -17.65 23.25 -20.3 21.3 -20.4 20.35 -20.5 20.8 -19.45 21.2 -18.45 21.9 -18.3 L22.0 -18.25 22.4 -18.1 22.45 -18.05 16.3 -17.75 10.25 -18.2 8.5 -18.65 6.55 -18.75 7.4 -26.15 9.85 -26.6 Q15.55 -27.85 18.95 -31.55 22.5 -35.5 22.5 -41.15 L22.45 -41.2 22.6 -41.4 Q23.75 -44.1 26.65 -45.2 M13.05 -32.55 Q16.95 -34.15 19.55 -36.95 18.0 -33.15 14.25 -30.75 10.6 -28.5 6.1 -28.2 5.55 -28.2 5.45 -27.65 L4.3 -17.5 Q4.25 -17.1 4.6 -16.65 L4.2 -15.4 3.6 -14.25 Q1.1 -10.85 1.7 -6.55 2.3 -2.45 5.3 0.1 L5.45 15.0 5.4 17.55 Q5.6 18.75 6.85 19.45 L11.55 19.55 12.0 31.45 Q5.0 31.1 -1.0 29.25 -8.05 27.05 -12.6 23.05 L-9.4 15.6 Q-7.0 17.0 -5.05 17.6 -1.9 18.6 -1.5 16.75 -1.2 15.4 -1.2 13.45 L-1.25 10.1 Q-1.3 3.75 -2.1 -3.0 -3.85 -17.5 -3.9 -26.75 -3.95 -28.25 -5.15 -29.7 L-7.2 -32.55 Q-7.7 -33.8 -7.5 -35.35 -7.25 -36.85 -6.5 -38.05 L-4.2 -37.0 Q-2.95 -34.2 -0.3 -32.7 2.15 -31.3 5.4 -31.2 9.2 -31.0 13.05 -32.55 M9.45 -16.4 L14.4 -15.8 24.5 -16.0 Q27.85 -11.15 28.6 -4.5 L28.3 -4.5 Q23.15 -3.3 16.15 -4.65 14.35 -5.0 13.35 -8.0 12.45 -11.45 11.85 -12.55 11.0 -14.2 9.65 -15.05 8.3 -15.9 6.8 -15.8 7.55 -16.85 9.45 -16.4 M8.85 -13.35 Q10.0 -12.6 10.75 -10.65 L11.85 -7.4 Q12.5 -5.55 13.4 -4.35 14.4 -3.15 16.3 -2.65 L19.7 -2.15 Q24.75 -1.55 28.75 -2.3 L28.45 0.75 28.0 0.6 19.1 0.45 Q17.9 -1.3 16.05 -1.8 L13.35 -1.7 Q12.1 -1.15 11.35 0.1 9.0 0.3 7.05 -0.75 5.05 -1.85 4.15 -4.0 2.75 -7.6 4.55 -11.3 L5.2 -12.2 5.85 -13.15 Q7.5 -14.15 8.85 -13.35 M30.2 23.2 Q36.1 27.3 41.5 24.2 41.5 30.95 37.4 32.65 L34.15 33.1 35.1 29.55 Q35.2 28.75 34.25 28.15 33.25 27.55 33.1 28.5 32.05 34.95 28.15 35.2 L26.55 35.0 Q28.4 32.95 28.95 29.9 29.1 29.1 28.1 28.5 27.15 27.95 26.95 28.9 26.05 33.55 22.65 35.0 L20.5 35.45 20.2 35.45 19.95 32.1 20.05 32.0 Q22.1 29.05 22.75 27.1 23.85 24.0 22.6 21.7 21.8 20.1 19.65 19.3 L19.65 17.35 19.95 16.9 Q20.1 14.5 22.35 13.4 25.35 19.75 30.2 23.2 M22.2 11.0 Q20.75 11.4 19.65 12.4 L19.75 2.55 27.9 2.7 Q26.25 7.8 22.2 11.0 M16.55 0.3 Q17.8 0.75 17.75 1.45 L17.7 6.7 Q17.55 17.2 17.75 26.45 18.1 39.25 20.75 47.35 21.6 49.75 22.95 52.35 22.95 52.85 23.5 53.4 L24.75 55.45 27.2 59.5 Q28.25 61.7 28.4 64.05 28.5 64.95 29.5 65.3 30.45 65.65 30.4 64.55 30.2 61.1 28.45 58.15 30.45 56.6 32.05 53.55 33.4 51.0 34.1 48.0 34.4 47.7 34.3 47.3 35.35 42.4 35.1 35.25 37.15 35.35 38.85 34.6 L39.2 34.4 Q39.75 39.8 39.45 43.7 39.15 48.75 37.45 52.65 L33.7 60.65 Q31.75 65.25 31.6 69.1 31.4 75.55 31.15 95.0 L30.85 121.75 27.65 122.85 25.35 122.4 25.1 122.25 Q24.9 113.55 25.35 101.35 25.95 85.65 25.1 69.35 L24.9 65.45 Q24.65 63.15 23.85 61.7 L20.15 56.4 19.55 55.5 18.5 53.85 Q15.35 48.0 14.4 39.1 14.15 36.95 13.7 23.65 L13.05 1.75 Q13.7 0.65 14.7 0.25 L16.55 0.3 M7.3 1.45 Q9.1 2.25 11.1 2.3 L11.5 17.35 11.2 17.35 7.35 17.25 7.5 11.1 7.3 1.45 M13.55 45.0 Q14.9 51.05 17.65 55.75 14.05 58.05 9.1 59.95 8.25 60.25 8.9 61.25 9.55 62.25 10.3 62.0 L12.55 61.05 Q15.6 66.05 17.65 74.55 L18.65 79.55 18.75 80.3 Q9.0 93.85 3.25 90.75 L3.1 90.65 Q0.05 88.6 -3.75 84.25 -8.2 79.25 -11.05 74.15 -14.55 68.0 -15.25 62.55 -16.1 55.85 -11.9 48.5 -8.3 42.15 -2.3 37.3 -1.6 36.8 -2.4 35.85 -3.2 34.95 -3.9 35.45 -8.1 38.85 -11.2 43.2 -14.6 47.85 -16.15 52.75 -18.3 46.75 -17.45 39.55 -16.75 33.7 -14.0 26.4 L-13.3 24.7 Q-8.55 28.85 -1.35 31.15 4.85 33.15 12.1 33.55 12.5 40.2 13.55 45.0 M20.45 37.55 Q22.95 37.75 24.95 36.4 27.15 37.55 29.35 37.3 31.75 37.0 33.1 35.0 33.25 40.6 32.4 45.6 L32.25 46.45 Q28.45 49.5 24.4 51.25 23.15 48.85 22.2 45.9 21.0 42.15 20.45 37.55 M19.75 28.0 L19.65 21.3 Q22.85 22.3 19.75 28.0 M40.0 52.45 L41.05 56.45 40.95 56.7 Q39.65 62.15 38.3 65.55 36.3 70.65 33.5 73.45 L33.65 69.55 Q33.75 65.75 36.1 60.8 38.95 55.35 40.0 52.45 M25.5 53.3 Q28.45 52.1 31.05 50.3 29.45 54.1 27.2 56.05 L25.5 53.3 M23.3 71.15 L23.45 78.45 23.5 86.95 Q23.1 85.1 22.1 82.65 L21.0 80.9 20.9 80.85 20.7 80.35 19.7 75.15 Q17.6 66.15 14.1 60.35 17.0 58.95 18.95 57.75 L21.25 60.7 Q22.5 62.45 22.7 63.9 23.15 66.95 23.3 71.15 M20.05 82.5 Q21.1 84.15 21.5 86.8 L21.85 91.3 21.75 91.4 18.05 95.8 16.35 94.6 15.05 94.65 Q7.0 108.65 -1.35 112.0 -4.9 113.4 -3.85 107.65 -3.05 103.5 -1.45 100.25 0.6 96.15 3.3 92.8 10.15 96.0 20.05 82.5 M33.4 76.55 Q39.4 75.8 42.5 72.65 L42.35 74.9 41.85 78.35 Q40.5 80.35 38.1 81.6 35.9 82.75 33.3 83.05 L33.4 76.55 M33.3 85.25 Q37.55 84.9 40.55 82.85 37.8 90.4 33.2 91.5 L33.3 85.25 M42.55 68.3 Q41.15 71.85 36.65 73.5 39.8 69.4 41.95 61.55 42.5 64.95 42.55 68.3 M-13.8 -27.6 Q-14.75 -27.65 -14.45 -26.55 L-13.8 -23.9 -16.4 -24.25 Q-16.8 -38.2 -11.25 -41.15 L-8.55 -39.2 Q-9.75 -37.05 -9.5 -34.4 -9.2 -31.85 -7.65 -29.85 L-5.9 -28.2 -5.9 -25.75 -5.45 -15.6 -4.2 -3.0 Q-3.35 4.8 -3.25 9.6 L-3.1 13.15 Q-3.2 15.85 -4.35 15.7 -5.9 15.55 -8.8 13.9 -7.45 10.0 -7.25 6.8 -6.95 2.15 -7.75 -3.7 -8.25 -7.4 -9.65 -14.1 -11.1 -21.2 -12.6 -26.6 -12.85 -27.5 -13.8 -27.6 M-23.65 -23.3 L-18.45 -22.7 -13.25 -21.85 -11.4 -13.25 -10.7 -9.95 Q-13.65 -9.55 -17.45 -11.05 -18.9 -11.65 -19.7 -14.55 L-20.75 -18.85 Q-21.35 -20.55 -22.65 -21.55 -23.9 -22.55 -25.5 -22.65 -24.7 -23.3 -23.65 -23.3 M-22.3 -17.65 L-21.25 -14.05 Q-20.6 -11.9 -20.0 -11.1 -18.6 -9.2 -15.65 -8.3 L-10.3 -7.8 -9.85 -5.05 -14.7 -5.65 Q-15.05 -6.75 -15.9 -7.5 -17.15 -8.5 -19.05 -7.95 -20.2 -7.6 -22.05 -6.45 -26.7 -6.5 -28.5 -10.35 -30.2 -14.0 -28.25 -18.2 L-27.5 -19.9 -27.05 -19.95 Q-23.85 -21.75 -22.3 -17.65 M-14.25 -3.55 L-9.55 -3.0 Q-8.7 3.6 -9.55 8.45 -9.95 10.6 -11.05 13.4 L-13.05 18.2 -15.2 23.45 Q-14.2 8.9 -14.25 1.6 L-14.2 -0.8 Q-14.15 -2.45 -14.25 -3.55 M-17.3 -6.0 Q-16.3 -6.2 -16.3 0.0 -16.15 2.9 -16.5 10.5 L-17.1 19.9 -17.4 29.25 -17.35 29.3 -17.6 30.0 Q-20.0 37.4 -19.7 44.0 -21.0 39.65 -21.4 34.1 -21.7 30.05 -21.55 23.95 L-20.55 -4.6 Q-18.55 -5.8 -17.3 -6.0 M-7.6 82.2 Q-8.0 82.2 -8.1 82.8 L-9.1 97.3 -9.25 103.7 Q-9.3 107.65 -9.8 110.05 -10.35 112.8 -12.95 114.25 -14.45 115.0 -15.55 113.7 -16.55 112.55 -16.4 110.9 L-15.7 103.4 -13.3 73.75 Q-10.9 78.0 -7.6 82.2" fill="#ffffff" fill-rule="evenodd" stroke="none"/>
  </g>
</svg>
