<?xml version="1.0" encoding="UTF-8" standalone="no"?>
<svg xmlns:ffdec="https://www.free-decompiler.com/flash" xmlns:xlink="http://www.w3.org/1999/xlink" ffdec:objectType="shape" height="166.1px" width="95.85px" xmlns="http://www.w3.org/2000/svg">
  <g transform="matrix(1.0, 0.0, 0.0, 1.0, 33.7, 48.0)">
    <path d="M39.1 -44.2 Q46.65 -38.7 51.75 -28.65 56.45 -19.5 57.8 -9.4 58.7 -2.95 57.3 3.45 55.8 10.25 52.1 15.25 48.35 20.25 42.15 18.15 36.9 16.4 32.9 11.1 33.2 10.85 33.1 10.45 36.1 6.35 36.6 1.15 37.1 -3.95 35.1 -8.7 32.15 -15.7 27.4 -19.5 25.15 -21.3 23.55 -21.1 22.6 -20.95 23.0 -19.9 23.45 -18.85 24.25 -18.95 L24.75 -18.95 19.15 -17.45 13.55 -16.6 11.15 -16.7 Q9.6 -16.65 8.9 -16.05 8.05 -15.3 7.9 -13.9 L7.5 -11.6 Q4.6 -6.15 8.4 -0.8 12.2 4.6 18.15 3.4 L21.05 15.55 15.85 16.3 10.3 16.8 Q6.85 16.8 5.05 15.5 4.2 14.9 4.2 13.4 L4.35 11.0 6.9 -25.85 6.9 -25.95 6.95 -26.0 Q12.75 -27.0 16.25 -31.2 19.65 -35.35 19.7 -41.25 20.1 -41.35 20.15 -41.8 20.5 -43.35 21.65 -44.75 22.7 -46.0 24.2 -46.85 27.55 -48.7 31.95 -47.6 35.55 -46.75 39.1 -44.2 M4.95 -27.45 L2.65 5.6 2.2 10.1 Q2.0 12.95 2.5 14.6 3.7 18.6 10.7 18.7 16.5 18.8 21.6 17.7 L24.85 30.8 Q3.8 34.1 -11.15 30.15 -18.25 28.2 -21.45 25.65 L-20.75 24.05 Q-18.7 19.05 -17.65 12.95 L-12.4 15.3 Q-8.15 16.75 -7.5 15.05 -7.0 13.9 -6.75 12.05 L-6.4 8.95 Q-5.6 2.05 -5.2 -5.15 -4.65 -16.75 -5.05 -26.7 -5.05 -27.3 -5.6 -27.9 L-6.65 -28.85 Q-8.6 -30.85 -8.95 -34.65 -9.25 -37.25 -8.35 -40.05 L-7.35 -39.5 Q-6.3 -36.6 -3.8 -34.9 -1.5 -33.35 1.75 -32.95 5.85 -32.4 10.15 -33.9 14.5 -35.4 17.25 -38.4 16.25 -34.2 13.15 -31.4 10.0 -28.5 5.6 -28.0 5.0 -27.9 4.95 -27.45 M13.7 -14.5 L18.2 -15.15 27.4 -17.3 Q30.95 -14.2 33.6 -7.7 L33.85 -7.05 33.7 -7.0 Q30.1 -5.3 23.5 -4.65 L20.8 -4.8 Q19.5 -5.2 18.65 -6.45 L16.3 -10.45 Q15.15 -12.3 13.45 -13.15 11.65 -14.1 9.9 -13.5 10.25 -14.35 11.55 -14.5 L13.7 -14.5 M9.2 -9.85 L9.4 -10.35 9.45 -10.4 Q12.05 -12.95 14.85 -9.4 L19.05 -3.55 Q20.2 -2.6 22.1 -2.5 L25.35 -2.65 Q30.7 -3.15 34.5 -4.8 L34.75 -1.8 34.25 -1.9 25.5 -0.2 Q23.75 -1.8 21.2 -1.8 20.1 -1.75 19.15 -0.85 18.35 -0.1 17.9 1.1 L12.7 0.85 Q10.3 -0.3 9.05 -3.05 7.65 -6.2 9.2 -9.85 M52.45 18.4 Q53.85 25.0 50.1 27.55 48.9 28.5 46.95 28.65 47.25 26.9 47.15 24.95 47.1 24.1 46.1 23.75 45.05 23.4 45.1 24.45 45.45 30.9 41.65 31.95 L40.0 32.1 Q41.3 29.6 41.2 26.6 41.2 25.75 40.2 25.4 39.15 25.05 39.2 26.1 39.25 28.95 37.9 31.1 36.4 33.5 33.8 33.85 L32.85 30.8 32.85 30.75 Q34.25 27.45 34.55 25.3 35.0 22.05 33.35 19.9 32.15 18.4 29.9 18.15 L29.8 17.85 29.5 16.35 29.7 15.75 Q29.35 13.35 31.4 11.9 35.7 17.55 41.2 19.9 47.9 22.75 52.45 18.4 M50.05 43.15 Q50.05 37.25 48.35 30.7 50.25 30.35 51.95 29.2 L52.3 28.9 Q53.95 34.15 54.5 37.95 55.2 42.95 54.4 47.15 L52.4 55.75 Q51.45 60.65 52.1 64.45 53.65 73.1 57.15 90.3 L62.0 114.55 62.15 115.7 61.25 116.7 Q59.55 118.5 56.8 117.7 L56.65 117.65 Q54.65 109.15 52.55 97.25 49.95 82.0 45.65 65.95 L44.6 62.15 Q43.85 59.95 42.75 58.7 L39.25 55.3 Q36.8 53.2 35.75 51.9 31.45 46.75 28.7 38.1 27.95 35.9 24.8 22.95 L19.8 2.45 Q20.15 1.55 20.8 0.9 21.5 0.15 22.75 0.4 L23.75 0.8 24.45 0.9 25.35 5.55 Q27.5 16.25 29.35 24.2 32.35 36.95 36.4 44.5 38.55 48.4 42.1 52.1 L45.6 55.8 Q47.25 57.85 47.95 60.2 48.25 61.1 49.2 61.2 50.15 61.25 49.85 60.15 48.9 56.9 46.65 54.35 48.3 52.3 49.2 49.0 50.05 46.0 50.05 43.15 M30.85 9.45 Q29.3 10.25 28.45 11.55 L26.55 1.85 34.65 0.3 Q34.0 5.7 30.85 9.45 M30.15 46.05 Q29.8 46.15 29.7 46.6 28.6 51.15 25.5 57.35 L20.3 67.65 Q16.15 76.85 14.75 90.6 14.05 97.6 13.9 105.9 L2.9 107.6 Q-2.3 108.1 -6.25 106.85 L-8.75 105.7 -9.4 105.2 Q-11.6 96.95 -11.2 86.1 -10.95 78.85 -9.2 66.85 -7.4 54.85 -4.85 44.85 -4.65 44.05 -5.65 43.5 -6.65 42.9 -6.85 43.85 -9.35 53.65 -11.35 66.85 L-11.6 66.95 Q-15.6 69.85 -19.5 70.2 -23.8 70.65 -27.5 67.9 -31.25 65.1 -32.65 61.25 -35.4 53.65 -31.05 43.7 -29.65 40.45 -26.7 35.3 L-22.25 27.25 Q-18.8 29.9 -11.4 32.05 3.5 36.4 25.45 32.95 27.65 41.15 30.15 46.05 M30.35 20.25 Q33.9 20.5 31.9 27.0 L30.35 20.25 M26.75 69.3 Q23.75 73.6 19.7 75.75 20.75 72.3 21.75 69.95 22.95 67.1 26.65 59.95 27.1 64.7 26.75 69.3 M18.9 78.65 Q22.8 77.3 26.15 73.8 25.5 77.15 24.45 79.9 22.45 83.2 17.8 83.9 L18.9 78.65 M17.45 86.15 Q19.7 86.0 21.8 85.1 19.65 88.4 16.85 90.55 L17.45 86.15 M11.4 113.2 Q8.7 114.75 5.0 115.5 L4.8 114.25 4.25 113.3 Q3.7 112.85 3.2 113.0 L-7.85 116.25 Q-14.15 117.8 -19.2 118.05 -23.15 118.3 -22.95 117.1 -22.8 115.85 -21.2 114.35 L-18.6 112.25 Q-15.15 109.6 -10.05 106.9 -6.65 109.5 -0.5 109.9 5.85 110.25 13.85 108.25 L13.85 111.65 Q13.85 112.1 12.95 112.55 11.8 113.0 11.4 113.2 M-10.3 -41.25 Q-11.15 -38.55 -11.05 -35.8 -10.95 -32.85 -9.8 -30.55 -8.95 -28.8 -7.35 -27.15 -7.1 -26.9 -7.05 -27.0 L-7.0 -26.15 -6.9 -16.85 Q-7.0 -2.2 -8.7 10.05 L-9.2 13.0 Q-9.35 13.75 -10.05 13.75 L-11.45 13.4 Q-13.85 12.8 -17.35 11.05 -16.45 5.2 -16.0 -3.85 -15.6 -4.2 -15.9 -5.0 L-15.85 -6.6 Q-15.25 -16.95 -15.3 -26.55 -15.35 -27.45 -16.35 -27.75 -17.35 -28.1 -17.35 -27.05 L-17.35 -23.8 -19.15 -23.85 Q-19.5 -30.0 -18.4 -34.5 -16.75 -41.2 -12.25 -42.65 L-10.3 -41.25 M-26.55 -21.75 L-21.95 -21.85 -17.35 -21.7 -17.65 -10.7 Q-19.9 -11.2 -21.6 -14.8 -23.7 -19.2 -24.75 -20.1 -26.0 -21.2 -28.05 -20.95 -27.4 -21.6 -26.55 -21.75 M-29.15 -17.95 Q-28.05 -18.8 -26.7 -18.9 -25.3 -19.0 -24.05 -16.7 L-22.6 -13.2 Q-21.0 -9.5 -17.75 -8.75 L-17.9 -6.4 Q-20.0 -7.1 -22.0 -5.5 -26.4 -4.9 -28.85 -8.0 -31.2 -10.95 -30.3 -15.35 L-29.7 -17.8 -29.15 -17.95 M-18.05 -4.05 Q-18.45 2.15 -19.15 7.45 L-20.35 -3.75 Q-19.1 -4.75 -18.05 -4.5 L-18.05 -4.05" fill="#ffffff" fill-rule="evenodd" stroke="none"/>
  </g>
</svg>
