<?xml version="1.0" encoding="UTF-8" standalone="no"?>
<svg xmlns:ffdec="https://www.free-decompiler.com/flash" xmlns:xlink="http://www.w3.org/1999/xlink" ffdec:objectType="shape" height="166.5px" width="82.65px" xmlns="http://www.w3.org/2000/svg">
  <g transform="matrix(1.0, 0.0, 0.0, 1.0, 33.1, 44.05)">
    <path d="M-22.85 28.85 L-23.3 28.25 -23.1 25.1 Q-20.9 25.45 -19.45 24.55 -18.2 26.4 -16.35 27.75 -17.15 29.05 -18.4 30.0 -19.4 30.75 -20.9 30.4 -22.5 30.0 -22.85 28.85 M-18.65 22.15 Q-19.5 19.65 -18.7 17.3 -18.45 16.5 -19.35 15.75 -20.25 15.0 -20.55 15.85 -21.65 19.1 -20.55 22.3 -21.35 23.15 -22.9 23.05 L-21.55 13.55 Q-21.0 14.45 -20.15 14.25 L-14.15 13.8 Q-14.55 19.65 -15.6 26.2 -17.8 24.7 -18.65 22.15 M-18.45 -4.2 L-13.95 -3.5 -13.85 5.2 -13.95 11.75 Q-16.2 11.6 -18.8 11.85 L-21.2 11.6 -18.95 -1.9 -18.45 -4.2 M-23.75 -7.1 L-21.7 -6.95 Q-20.35 -6.4 -20.45 -5.7 L-21.1 -2.0 -23.75 14.6 Q-25.35 25.8 -25.25 32.35 -25.1 42.15 -21.6 49.6 L-20.9 50.25 Q-21.75 55.4 -21.1 59.2 -20.35 63.1 -17.6 66.1 -19.7 76.0 -22.1 90.2 L-26.1 114.4 Q-26.3 115.6 -27.8 115.95 L-30.45 115.85 -31.85 115.0 -31.65 113.45 Q-30.8 107.55 -28.0 92.4 -26.0 81.55 -25.1 75.5 -23.7 66.05 -23.35 58.5 -23.2 56.2 -24.5 53.45 L-26.85 48.75 Q-29.0 43.9 -29.4 37.75 -29.75 33.0 -29.05 26.4 -27.95 15.4 -25.05 -6.05 L-23.75 -7.1 M-24.0 -20.15 Q-24.45 -21.95 -25.75 -23.05 -27.1 -24.15 -28.75 -24.25 L-28.6 -24.5 Q-27.95 -25.3 -26.5 -24.85 L-24.3 -23.9 -19.55 -22.8 -14.7 -22.2 -13.9 -10.1 Q-16.4 -10.25 -20.45 -11.55 -22.5 -12.15 -23.2 -15.2 -23.65 -18.75 -24.0 -20.15 M-30.05 -21.8 Q-26.85 -23.2 -25.65 -19.1 L-24.15 -12.45 Q-23.5 -11.15 -22.05 -10.3 -21.05 -9.75 -19.2 -9.15 L-13.85 -8.0 -13.7 -5.45 -18.8 -6.25 Q-19.4 -7.5 -20.8 -8.45 -22.15 -9.35 -23.4 -9.45 -25.0 -9.65 -26.65 -7.8 -31.85 -8.1 -32.9 -13.3 -33.9 -18.3 -30.15 -21.65 L-30.05 -21.8 M-18.6 -24.85 Q-18.75 -30.05 -17.7 -34.3 -16.3 -39.9 -13.05 -42.1 L-8.75 -39.1 Q-10.25 -36.55 -9.5 -33.45 -8.85 -30.65 -6.6 -28.35 L-6.2 -28.3 -6.1 -27.95 -5.7 -17.35 Q-5.3 -4.5 -5.35 5.75 L-5.25 10.8 Q-5.1 13.5 -11.85 10.95 -11.65 7.45 -12.25 -8.5 -12.85 -24.4 -13.35 -29.15 -13.45 -30.05 -14.5 -30.35 -15.5 -30.7 -15.4 -29.65 L-14.85 -24.25 -18.6 -24.85 M15.05 114.95 L14.5 114.9 5.35 116.85 Q0.05 117.55 -3.9 116.7 -8.85 115.6 -1.15 110.75 1.85 108.85 6.25 106.85 9.65 109.7 15.25 109.95 L15.05 114.95 M27.85 111.3 L27.85 111.35 Q27.5 113.25 27.0 114.1 26.35 115.2 24.95 115.7 L25.15 111.25 27.85 111.3 M36.95 81.4 Q35.3 83.15 33.15 83.85 L30.25 84.05 30.15 84.05 30.5 79.75 Q32.9 81.5 36.95 81.4 M30.8 77.7 L31.15 75.95 Q36.4 77.5 41.55 72.7 L40.55 75.55 38.75 79.1 Q34.75 79.75 32.1 78.55 L30.85 77.75 30.8 77.7 M34.75 66.2 Q38.0 58.3 40.05 52.15 L42.1 45.55 Q43.3 47.4 43.8 51.4 L43.95 53.35 43.85 53.55 Q40.4 62.9 34.75 66.2 M33.45 69.3 L33.55 69.3 Q39.8 67.4 44.0 58.9 43.75 63.7 42.85 67.75 L42.5 68.05 Q40.5 70.85 37.65 72.65 34.35 74.65 31.65 74.1 L33.45 69.3 M14.85 27.35 Q14.85 24.0 15.0 20.7 18.1 21.75 14.85 27.35 M5.0 34.9 Q4.0 34.3 3.8 35.25 -0.35 51.75 -0.2 68.45 -3.6 70.0 -7.85 69.35 -11.85 68.7 -15.0 66.4 -17.75 64.35 -18.8 60.75 -19.7 57.65 -19.25 53.85 -18.75 49.65 -17.05 42.9 L-14.4 32.0 -13.95 29.65 Q-3.2 34.1 7.0 33.25 7.2 40.15 8.2 45.0 9.5 51.25 12.3 56.05 L14.8 59.55 Q16.3 61.7 16.5 63.35 16.85 66.45 16.85 70.65 L16.7 77.95 Q16.65 84.15 16.2 92.9 L15.35 107.85 Q11.8 107.85 8.9 106.5 L7.25 105.5 6.95 105.25 5.65 99.15 3.5 87.1 Q2.4 80.3 2.0 74.9 0.65 56.65 5.8 36.25 6.0 35.45 5.0 34.9 M15.2 36.95 Q17.65 37.25 19.8 35.9 21.75 37.0 23.9 37.0 26.3 36.95 27.9 34.85 27.9 40.3 26.85 45.45 26.25 48.25 24.9 50.95 23.3 54.05 21.3 55.65 17.95 50.1 16.65 45.3 15.6 41.45 15.2 36.95 M5.6 1.25 L5.6 1.15 7.05 1.35 6.95 14.3 6.6 14.2 Q5.5 14.25 5.45 8.3 5.35 4.75 5.6 1.25 M15.45 8.25 L15.75 1.9 23.0 2.3 Q21.3 6.0 17.9 7.8 16.5 7.7 15.45 8.25 M20.35 15.8 Q22.25 18.75 24.6 20.55 28.7 23.65 36.7 23.35 36.7 31.0 32.25 32.65 L29.0 33.0 Q29.75 31.35 30.1 29.4 30.3 28.6 29.3 28.0 28.3 27.45 28.1 28.4 26.85 34.65 23.2 34.85 L21.35 34.6 Q23.3 32.55 23.95 29.55 24.15 28.75 23.2 28.15 22.2 27.6 22.0 28.55 20.85 33.2 17.45 34.45 L15.05 34.85 14.9 31.5 15.0 31.35 Q17.1 28.5 17.9 26.55 19.05 23.5 17.9 21.15 17.05 19.45 15.05 18.7 L15.25 12.25 Q15.95 10.1 17.75 9.9 18.6 13.0 20.35 15.8 M43.75 25.8 Q43.95 31.85 41.25 41.3 L37.9 51.55 Q35.85 57.55 32.65 65.3 L30.65 70.15 Q29.6 72.95 29.1 75.1 27.85 80.55 27.9 87.75 27.95 92.05 28.6 100.5 L29.1 104.6 Q29.3 107.2 28.7 108.6 L28.55 108.9 28.5 108.9 25.25 109.2 25.9 94.9 Q26.8 75.85 27.25 69.35 27.55 65.4 30.25 60.15 L34.65 51.4 Q36.1 47.8 36.25 42.4 36.35 39.15 35.95 33.15 37.55 31.55 38.25 28.55 40.85 27.6 43.75 25.8 M41.75 19.75 L44.2 16.65 44.0 22.85 Q41.1 24.85 38.65 25.85 L38.7 22.9 40.4 21.4 41.75 19.75 M10.75 -0.6 L12.7 -0.4 Q13.8 0.15 13.75 0.8 L13.25 11.15 13.0 12.6 13.15 13.35 12.9 25.75 Q12.8 38.8 15.15 46.8 15.8 48.95 19.25 55.15 22.1 60.2 22.2 63.75 22.25 64.6 23.25 64.95 24.25 65.3 24.2 64.25 24.15 60.95 22.5 57.75 24.7 56.2 26.45 53.0 27.9 50.3 28.7 47.15 29.95 42.35 29.95 35.15 31.9 35.3 33.7 34.6 L34.05 34.45 Q34.35 40.1 33.9 44.05 33.35 49.2 31.35 53.2 L27.5 60.75 Q25.5 65.15 25.2 68.9 24.75 75.35 23.85 95.15 L22.7 119.9 22.65 120.9 22.0 121.5 Q20.9 122.4 19.45 122.45 18.1 122.5 16.9 121.75 L16.9 121.05 Q17.0 114.85 17.95 99.65 19.05 83.15 18.7 68.25 L18.6 64.5 Q18.4 62.35 17.6 60.9 L14.85 56.7 Q13.1 54.1 12.3 52.3 9.6 46.3 9.05 37.45 8.9 35.45 8.9 22.05 L9.05 0.9 Q9.75 -0.1 10.75 -0.6 M2.25 -14.2 L2.3 -14.25 Q5.25 -16.0 7.05 -11.8 L9.65 -5.2 Q10.65 -3.85 12.9 -3.25 L16.7 -2.65 Q20.7 -2.15 24.05 -2.5 24.1 -1.35 23.75 0.25 L15.15 -0.2 Q14.05 -1.95 12.1 -2.55 L9.45 -2.5 Q8.2 -2.05 7.35 -0.8 2.15 -0.55 0.45 -5.5 -1.3 -10.35 2.2 -14.1 L2.25 -14.2 M13.25 -16.4 L18.3 -16.4 18.6 -16.0 Q22.55 -10.4 23.8 -4.65 18.7 -3.9 12.35 -5.4 10.6 -5.8 9.7 -8.9 8.9 -12.4 8.35 -13.5 7.5 -15.15 6.2 -16.05 4.85 -16.95 3.3 -16.85 L3.6 -17.35 5.85 -17.55 8.2 -16.85 13.25 -16.4 M5.75 -28.45 Q5.1 -28.45 5.1 -27.9 L4.95 -20.05 5.05 -19.65 4.3 -19.75 Q2.05 -20.0 1.05 -17.55 L0.8 -16.6 0.45 -15.75 -0.8 -13.95 Q-3.1 -10.1 -1.65 -5.7 -0.25 -1.4 3.6 0.45 3.1 6.3 3.35 9.5 3.8 16.05 6.95 16.3 L6.95 31.05 Q-2.9 32.15 -13.65 27.8 -12.4 20.6 -11.95 12.85 -3.25 16.25 -3.2 11.35 -3.15 5.25 -3.45 -6.95 L-4.05 -26.4 Q-4.1 -27.85 -4.45 -28.45 L-6.0 -30.2 Q-7.4 -31.65 -7.65 -33.7 -7.9 -35.7 -7.0 -37.5 -4.7 -32.65 1.65 -31.8 5.55 -31.35 9.55 -32.6 13.7 -33.95 16.5 -36.6 15.1 -33.15 12.4 -31.0 9.5 -28.75 5.75 -28.45 M19.55 -40.15 L19.4 -40.8 Q20.0 -42.05 20.15 -43.6 28.25 -45.9 36.6 -36.95 43.85 -29.3 47.65 -17.0 51.45 -5.15 47.6 5.5 45.05 12.55 39.3 18.95 L37.05 21.2 36.8 21.2 33.65 21.25 Q27.95 20.95 24.85 18.6 23.05 17.25 21.55 14.55 20.2 12.15 19.55 9.55 L19.65 9.5 21.1 8.5 Q23.35 6.75 24.8 3.95 25.6 2.45 25.85 -0.75 26.1 -3.65 25.75 -4.1 25.1 -7.3 22.5 -12.6 L20.2 -16.95 Q18.1 -20.1 16.4 -19.85 15.4 -19.65 15.9 -18.6 L11.85 -18.7 6.95 -19.35 7.1 -26.1 7.05 -26.4 9.3 -26.9 Q13.8 -28.2 16.55 -31.85 19.15 -35.35 19.55 -40.15" fill="#ffffff" fill-rule="evenodd" stroke="none"/>
  </g>
</svg>
