<?xml version="1.0" encoding="UTF-8" standalone="no"?>
<svg xmlns:ffdec="https://www.free-decompiler.com/flash" xmlns:xlink="http://www.w3.org/1999/xlink" ffdec:objectType="shape" height="165.6px" width="105.1px" xmlns="http://www.w3.org/2000/svg">
  <g transform="matrix(1.0, 0.0, 0.0, 1.0, 48.0, 46.85)">
    <path d="M23.5 -46.55 Q22.9 -40.05 18.55 -33.35 L18.25 -32.9 Q15.15 -28.3 10.1 -23.35 6.5 -19.85 0.95 -15.35 L-1.05 -20.95 Q6.7 -27.5 12.1 -33.1 17.55 -38.65 19.25 -42.45 20.45 -44.45 20.85 -46.85 L23.5 -46.55 M31.1 -42.9 Q34.55 -40.95 38.8 -35.6 42.6 -30.7 45.5 -24.6 L34.6 -24.15 Q28.6 -22.7 25.7 -18.55 25.05 -22.4 25.15 -28.45 L25.25 -38.4 Q25.15 -40.8 24.8 -41.6 25.35 -43.75 25.5 -45.85 L31.1 -42.9 M23.3 -35.6 L23.25 -25.75 Q23.35 -20.1 24.35 -15.9 25.25 -11.95 27.0 -6.55 L30.05 2.65 Q31.85 8.05 32.3 10.4 33.2 14.95 32.25 18.3 25.2 20.3 17.7 21.15 21.85 15.5 19.8 3.45 18.15 -6.15 18.35 -13.3 18.45 -16.6 19.2 -22.45 L20.2 -31.65 Q22.0 -34.35 23.3 -37.25 L23.3 -35.6 M17.05 -22.35 L16.45 -16.3 Q16.15 -12.45 16.4 -8.2 10.1 -5.75 6.7 -4.05 3.9 -8.45 1.95 -13.05 12.35 -21.45 17.85 -28.35 L17.05 -22.35 M47.35 -22.3 L50.55 -18.05 Q43.85 -19.15 38.05 -18.1 31.05 -16.8 27.1 -12.6 L26.45 -15.15 26.45 -15.2 Q28.85 -20.4 35.55 -22.1 40.95 -23.45 47.35 -22.3 M-33.75 -26.15 Q-31.3 -28.75 -26.85 -27.6 L-24.95 -26.45 -24.95 -26.4 -24.9 -26.35 -28.45 -20.75 Q-31.25 -22.75 -36.75 -22.75 L-33.75 -26.15 M-9.15 -42.95 L-7.0 -41.75 -7.05 -41.55 -7.0 -41.35 Q-15.15 -28.65 -21.2 -17.5 L-25.15 -10.0 Q-27.25 -5.75 -28.3 -2.2 -30.15 3.8 -30.45 7.65 -30.95 13.35 -28.65 17.25 L-29.65 17.0 Q-33.6 16.1 -37.1 14.6 -38.05 5.7 -33.9 -4.9 -30.95 -12.5 -24.55 -22.6 -17.35 -34.0 -9.3 -42.8 L-9.15 -42.95 M-11.1 -44.3 Q-17.6 -37.25 -23.95 -27.8 L-25.65 -29.0 Q-24.3 -35.0 -21.45 -39.3 -17.85 -44.6 -12.8 -45.7 L-12.75 -45.7 -11.1 -44.3 M-9.05 -33.7 L-6.6 -37.6 Q-5.65 -29.85 -3.25 -21.95 L-3.0 -21.15 Q0.15 -11.2 5.2 -3.25 L-0.15 0.0 -0.65 -0.95 -1.0 -1.2 -2.1 -2.55 Q-3.8 -6.0 -4.7 -8.45 L-4.9 -9.05 Q-8.55 -19.15 -9.0 -33.6 L-9.05 -33.7 M-10.9 -30.7 Q-10.4 -23.0 -9.15 -17.35 L-11.85 -15.25 Q-13.65 -19.55 -16.25 -21.6 L-10.9 -30.7 M12.25 -36.7 L9.9 -34.25 Q5.9 -30.1 -1.8 -23.45 -3.9 -30.95 -4.75 -38.5 -2.1 -35.6 2.45 -35.05 7.4 -34.5 12.25 -36.7 M-6.25 -6.9 L-6.05 -7.05 -5.8 -6.45 -6.25 -6.9 M0.55 2.45 L1.55 4.25 Q1.55 4.95 2.05 5.45 3.2 8.6 2.9 12.3 2.6 15.8 1.05 19.0 L1.0 19.4 Q-1.45 18.2 -2.85 16.7 -2.85 16.15 -3.25 15.65 -3.65 15.15 -4.15 15.2 -5.85 12.7 -5.45 10.25 -4.9 6.65 0.3 2.6 L0.55 2.45 M-1.55 1.05 L-2.25 1.6 Q-7.3 5.8 -7.55 10.25 -7.75 13.1 -5.75 15.95 -8.05 17.1 -11.35 17.75 -15.0 15.05 -16.2 11.1 -17.45 6.9 -15.45 2.9 L-14.8 2.35 Q-12.1 0.05 -8.75 -0.75 -4.85 -1.65 -2.2 0.1 L-1.55 1.05 M-8.55 -14.8 Q-7.9 -12.1 -6.9 -9.35 L-8.2 -8.45 Q-10.5 -10.25 -12.7 -11.55 L-8.55 -14.8 M-15.1 -12.9 Q-17.45 -14.4 -20.0 -14.9 L-17.1 -20.1 -16.45 -19.5 Q-14.65 -17.65 -13.3 -14.2 L-13.3 -14.15 -14.7 -13.05 -14.75 -13.05 -15.1 -12.9 M-20.95 -13.1 Q-19.2 -12.9 -17.4 -12.1 -20.55 -10.85 -22.75 -9.65 L-20.95 -13.1 M-24.5 -5.9 L-24.0 -6.05 Q-20.4 -8.65 -14.6 -10.65 -8.6 -7.25 -4.55 -2.9 -7.4 -3.55 -10.75 -2.45 -13.7 -1.5 -16.4 0.5 -20.25 3.4 -22.45 8.4 -24.85 14.0 -23.0 18.15 L-26.3 17.7 Q-31.45 11.3 -25.35 -3.75 L-24.5 -5.9 M-18.7 6.6 Q-18.85 9.8 -17.45 12.85 -16.15 15.8 -13.6 18.15 -17.25 18.6 -20.95 18.3 -22.3 15.85 -21.5 12.45 -20.8 9.65 -18.7 6.6 M-16.05 20.6 Q-9.2 20.3 -4.15 17.75 -1.4 20.6 3.3 22.4 7.25 23.85 14.55 23.55 L15.35 23.5 17.65 23.35 Q11.45 25.15 2.0 24.95 -8.65 24.7 -15.7 21.1 L-16.05 20.6 M3.35 4.0 L1.9 1.45 Q7.05 -2.1 16.55 -5.8 16.85 -2.95 17.3 -0.05 18.5 7.6 18.55 10.35 18.55 16.55 15.55 20.05 15.0 14.35 11.95 10.05 8.65 5.45 3.35 4.0 M4.2 6.25 Q8.75 7.8 11.35 12.2 13.7 16.3 13.65 21.45 7.9 21.8 3.85 20.55 L3.0 20.3 Q4.55 16.95 4.9 13.35 5.2 9.65 4.2 6.25 M0.65 27.0 Q15.1 27.85 23.8 23.45 24.35 23.2 24.15 22.45 L32.05 20.75 33.7 20.3 Q35.2 29.6 34.7 43.45 L34.4 49.75 34.1 52.55 Q33.85 54.3 33.9 55.3 31.8 57.2 26.25 59.1 21.35 60.8 16.55 61.2 10.5 61.75 7.2 59.85 3.6 48.9 -2.35 43.4 L-3.5 43.45 Q-3.85 44.3 -3.1 44.95 -1.35 46.65 0.3 49.1 -0.1 49.3 -0.1 49.85 -0.15 53.4 -0.9 58.05 L-2.45 66.2 Q-3.85 73.5 -6.75 85.55 L-8.35 91.95 -8.85 93.7 Q-13.15 97.0 -18.0 97.55 -23.4 98.2 -27.4 95.1 -27.2 84.2 -25.75 69.7 -24.35 56.0 -22.4 46.0 -19.9 33.2 -15.95 22.95 -9.4 26.4 0.65 27.0 M-32.8 -14.15 Q-36.95 -13.15 -40.7 -10.7 -44.4 -8.3 -47.1 -4.9 -45.3 -10.9 -39.45 -19.2 L-38.35 -20.7 -38.05 -20.65 Q-33.8 -20.75 -30.8 -19.85 L-29.4 -19.2 -32.2 -14.1 -32.8 -14.15 M-48.0 0.65 L-47.9 0.55 Q-45.7 -3.65 -41.85 -6.85 -38.05 -10.05 -33.5 -11.55 -35.7 -7.05 -37.2 -2.35 L-37.55 -2.3 Q-40.7 -0.65 -42.95 1.7 -45.5 4.4 -46.2 7.45 -47.85 4.75 -48.0 1.6 L-48.0 0.65 M-44.4 9.75 Q-44.15 7.1 -42.25 4.6 -40.65 2.45 -38.05 0.75 -39.7 7.45 -39.15 13.6 -42.25 11.95 -44.4 9.75 M4.7 68.15 Q8.9 72.2 14.25 75.3 10.15 76.65 6.5 80.85 5.25 75.1 4.85 70.4 L4.7 68.15 M6.75 61.6 Q10.5 63.7 15.95 63.45 31.65 73.95 45.1 78.0 L45.35 79.7 46.2 87.55 Q41.4 84.4 34.85 81.7 30.4 79.85 22.8 77.35 17.85 75.65 13.1 72.65 8.45 69.65 4.75 65.8 5.1 62.55 6.75 61.6 M54.25 7.0 Q48.5 1.65 42.95 -1.25 35.75 -5.1 29.6 -4.45 L28.3 -8.55 28.5 -8.6 Q35.1 -10.65 42.95 -9.4 50.05 -8.25 56.65 -4.65 L57.05 -1.6 Q57.35 3.2 54.25 7.0 M52.05 -15.75 Q55.0 -10.85 56.1 -7.0 49.65 -10.3 42.85 -11.45 35.4 -12.7 28.95 -11.1 32.9 -15.1 39.75 -16.15 L51.85 -15.8 52.05 -15.75 M34.1 10.15 L32.45 4.15 30.3 -2.35 Q35.85 -2.9 42.3 0.4 43.15 7.95 37.65 16.55 L37.6 16.7 35.05 17.5 34.9 16.7 34.75 16.35 Q34.9 13.65 34.1 10.15 M44.4 1.55 Q48.95 4.35 53.1 8.25 49.3 12.25 41.0 15.45 44.9 8.2 44.4 1.55 M16.75 77.0 L17.05 76.85 18.35 77.5 Q21.4 79.0 28.6 81.45 14.8 86.4 10.2 94.65 L9.75 93.2 7.2 83.8 Q9.85 80.15 13.55 78.2 L15.8 77.25 16.75 77.0 M25.7 61.65 Q32.15 59.95 35.15 57.45 L36.45 58.6 38.55 61.1 33.15 65.0 Q30.05 67.05 27.4 68.1 L27.15 68.3 18.7 63.2 25.7 61.65 M44.8 75.9 Q37.45 73.7 29.7 69.65 33.5 67.95 39.95 63.0 L41.85 66.1 Q43.75 69.55 44.8 75.9 M54.05 109.9 Q52.45 113.6 47.8 115.9 44.2 117.65 39.25 118.45 L33.35 118.6 Q35.95 110.8 44.65 108.55 L47.55 107.95 50.45 107.5 52.4 107.3 Q53.4 107.4 53.8 108.5 L54.05 109.9 M53.95 105.9 Q52.7 104.9 50.2 105.2 L46.25 105.95 Q34.25 107.9 31.15 118.25 26.55 117.15 22.6 114.0 24.2 108.2 29.9 103.0 34.05 99.1 39.8 96.9 46.1 94.4 51.3 95.25 L52.2 96.8 Q55.25 102.3 54.85 106.85 L53.95 105.9 M47.85 90.45 L49.8 93.0 Q44.8 92.55 39.05 94.75 34.05 96.65 29.6 100.1 26.6 102.45 24.3 105.55 21.8 108.9 20.75 112.4 L17.9 109.3 Q19.3 101.85 23.0 94.95 26.8 87.85 32.25 82.8 L34.65 83.7 Q42.7 87.05 47.1 90.2 47.5 90.55 47.85 90.45 M20.35 95.05 Q17.5 100.8 16.15 106.95 13.35 102.8 11.3 97.65 L11.35 97.6 Q14.8 89.55 27.4 84.4 23.3 89.15 20.35 95.05 M-7.95 100.85 Q-8.2 103.4 -11.15 104.3 L-12.95 104.6 Q-14.4 104.65 -14.45 103.85 -14.5 103.25 -15.1 102.8 L-16.25 102.7 -21.85 106.35 Q-24.95 108.0 -28.15 108.45 -31.55 109.0 -36.3 108.65 -43.0 108.2 -42.85 105.65 -42.75 103.75 -39.6 101.8 -38.7 101.2 -34.9 99.35 -31.5 97.7 -28.3 96.55 -24.0 100.0 -18.3 99.75 -13.05 99.5 -8.3 96.25 -7.75 98.75 -7.95 100.85" fill="#ffffff" fill-rule="evenodd" stroke="none"/>
  </g>
</svg>
