<?xml version="1.0" encoding="UTF-8" standalone="no"?>
<svg xmlns:ffdec="https://www.free-decompiler.com/flash" xmlns:xlink="http://www.w3.org/1999/xlink" ffdec:objectType="shape" height="166.8px" width="104.95px" xmlns="http://www.w3.org/2000/svg">
  <g transform="matrix(1.0, 0.0, 0.0, 1.0, 45.1, 48.0)">
    <path d="M22.2 -47.85 L23.8 -48.0 Q23.6 -43.55 21.35 -38.75 19.6 -35.0 16.35 -30.45 11.5 -23.6 2.95 -15.85 L0.65 -21.35 Q7.95 -28.25 13.15 -34.15 L17.5 -39.6 Q21.0 -43.0 21.35 -47.25 L22.05 -47.85 22.2 -47.85 M25.35 -43.45 L25.85 -47.65 Q29.1 -46.8 33.25 -44.0 36.85 -41.65 40.8 -36.8 42.9 -34.25 45.4 -30.25 L46.1 -28.9 46.9 -27.55 Q40.9 -28.0 36.05 -26.5 30.15 -24.7 27.55 -20.4 26.7 -24.2 26.45 -30.25 L26.0 -40.15 25.35 -43.45 M24.25 -37.4 L24.75 -27.5 Q25.15 -21.95 26.3 -17.75 27.35 -13.8 29.4 -8.55 L33.0 0.45 Q35.1 5.8 35.7 8.1 36.85 12.65 36.1 16.05 L32.45 17.2 31.7 17.1 Q31.35 17.2 31.25 17.55 L21.7 19.6 Q25.55 13.65 22.75 1.65 20.65 -7.2 20.45 -15.0 20.35 -18.3 20.8 -24.1 L21.3 -33.25 Q23.1 -36.2 24.1 -39.1 L24.25 -37.4 M18.75 -23.65 L18.4 -17.45 Q18.4 -13.75 18.8 -9.6 13.2 -7.15 9.3 -4.95 6.4 -8.95 4.05 -13.6 14.35 -23.0 19.15 -29.9 L18.75 -23.65 M49.05 -25.35 L52.55 -21.25 Q45.8 -22.05 40.0 -20.65 33.05 -19.0 29.25 -14.5 L28.45 -17.05 Q30.5 -22.4 37.1 -24.45 42.45 -26.1 48.85 -25.3 L49.05 -25.35 M-8.8 -42.75 L-6.4 -41.45 Q-13.7 -28.5 -19.3 -16.85 -24.0 -7.1 -25.55 -1.2 -29.1 11.8 -24.85 18.2 L-26.6 17.9 Q-30.1 17.25 -33.45 16.0 -34.85 7.2 -31.3 -3.6 -28.8 -11.25 -22.95 -21.7 -16.2 -33.7 -8.8 -42.7 L-8.8 -42.75 M-10.7 -44.1 Q-16.6 -36.85 -22.6 -26.95 L-24.35 -28.15 Q-23.35 -34.15 -20.7 -38.55 -17.45 -44.05 -12.45 -45.4 L-12.35 -45.45 -10.7 -44.1 M-23.45 -25.5 L-24.8 -23.15 -26.7 -19.7 Q-29.3 -21.5 -35.1 -21.3 L-32.35 -24.75 Q-29.95 -27.55 -25.5 -26.6 L-24.65 -26.2 -23.85 -25.75 -23.45 -25.5 M-8.05 -33.65 L-5.8 -37.75 Q-4.3 -29.6 -1.55 -22.25 -1.6 -21.85 -1.25 -21.4 2.4 -11.8 7.85 -4.1 L2.75 -0.55 2.2 -1.4 1.7 -1.7 0.65 -2.95 -2.3 -8.65 Q-2.4 -9.1 -2.65 -9.35 -6.8 -19.3 -8.0 -33.5 L-8.05 -33.65 M11.6 -36.05 L10.95 -35.25 Q6.7 -30.4 -0.25 -23.8 -2.6 -30.65 -3.85 -37.75 -1.3 -35.35 2.85 -34.85 7.35 -34.4 11.6 -36.05 M-4.6 -9.45 L-5.8 -8.55 -10.5 -11.4 -6.55 -14.85 -4.6 -9.45 M-3.3 -6.65 L-3.8 -7.05 -3.6 -7.2 -3.3 -6.65 M0.75 1.15 Q-4.15 5.55 -4.15 10.0 -4.15 13.1 -2.05 15.7 -4.45 17.05 -7.55 17.85 -11.4 15.4 -12.8 11.45 -14.3 7.35 -12.5 3.2 L-11.9 2.65 Q-9.3 0.2 -5.95 -0.75 -2.05 -1.95 0.75 -0.3 L1.4 0.6 0.75 1.15 M4.85 0.85 Q9.7 -2.9 19.1 -7.2 19.5 -4.4 20.25 -0.9 21.8 6.0 21.95 9.15 22.2 15.15 19.45 18.65 18.6 13.0 15.3 8.85 11.75 4.4 6.4 3.25 L4.85 0.85 M-11.25 -14.0 L-11.2 -13.95 -12.55 -12.75 -12.95 -12.6 Q-15.15 -13.85 -17.95 -14.35 L-15.35 -19.65 Q-13.0 -18.0 -11.25 -14.0 M-14.55 -21.25 L-9.7 -30.65 Q-8.9 -23.3 -7.25 -17.35 L-9.85 -15.1 Q-11.9 -19.3 -14.55 -21.25 M-18.75 -12.45 L-15.25 -11.65 Q-18.15 -10.35 -20.45 -8.9 L-18.85 -12.45 -18.75 -12.45 M-21.55 -5.2 Q-17.85 -8.15 -12.35 -10.35 -6.35 -7.4 -2.0 -3.25 -9.65 -4.65 -16.15 3.6 -22.65 11.9 -19.1 18.85 L-22.5 18.55 Q-27.75 12.65 -22.95 -2.35 L-22.0 -5.05 Q-21.7 -5.05 -21.55 -5.2 M-9.75 18.35 L-17.15 18.9 Q-18.7 16.55 -18.05 13.15 -17.5 10.25 -15.5 7.05 -15.5 10.25 -13.9 13.25 -12.4 16.1 -9.75 18.35 M6.45 11.6 Q6.35 15.05 5.0 18.35 L4.9 18.7 Q2.65 17.7 0.9 16.25 L0.45 15.4 Q0.05 15.0 -0.45 14.95 -2.55 12.45 -2.0 9.4 -1.6 7.3 0.1 5.2 L3.5 1.9 4.7 3.7 Q4.6 4.35 5.25 4.9 6.55 7.95 6.45 11.6 M7.4 5.5 Q12.05 6.85 14.8 11.05 17.35 14.95 17.65 20.15 11.0 20.9 6.95 19.5 8.3 16.1 8.45 12.5 8.6 8.85 7.4 5.5 M-6.65 19.95 Q-3.3 19.1 -0.35 17.45 2.7 20.1 7.35 21.65 11.2 23.05 18.25 22.25 12.8 23.75 6.75 24.55 -6.0 26.3 -15.75 21.1 -11.1 21.0 -7.2 20.1 L-6.65 19.95 M5.8 26.85 Q19.8 25.55 30.05 20.3 L30.25 20.15 31.95 19.7 Q36.85 30.9 36.2 48.1 L35.6 54.65 35.5 55.6 Q33.85 56.7 31.0 57.4 L26.6 58.3 Q14.1 60.3 8.75 56.3 9.3 51.9 5.4 47.45 5.3 46.6 4.35 46.3 L1.15 43.6 Q0.25 42.95 -0.15 43.75 -0.5 44.55 0.35 45.15 L3.4 47.7 Q3.3 55.5 2.1 66.3 L-0.2 84.8 -1.05 91.55 -1.4 93.95 Q-5.75 97.25 -10.65 97.8 -16.05 98.35 -20.05 95.2 -21.85 84.05 -22.45 70.05 -23.05 56.2 -22.1 45.9 -20.9 32.65 -17.0 22.4 -7.35 28.1 5.8 26.85 M-30.65 -12.9 Q-34.75 -11.65 -38.4 -9.0 -41.95 -6.4 -44.5 -2.85 -43.05 -9.05 -37.65 -17.5 L-36.65 -19.1 -36.35 -19.05 -31.9 -19.2 Q-29.05 -19.05 -27.5 -18.15 L-30.1 -12.85 -30.65 -12.9 M-39.35 -5.05 Q-35.7 -8.5 -31.25 -10.25 -33.3 -5.3 -34.45 -0.8 L-34.95 -0.7 Q-38.0 1.1 -40.05 3.6 -42.35 6.4 -42.9 9.5 -44.75 6.8 -45.05 3.7 L-45.1 2.75 -45.05 2.7 Q-43.05 -1.65 -39.35 -5.05 M-39.2 6.35 Q-37.7 4.1 -35.15 2.3 -36.4 9.0 -35.55 15.15 -38.8 13.65 -41.05 11.6 -41.0 8.95 -39.2 6.35 M4.8 63.9 Q8.2 68.4 13.2 72.4 8.85 73.1 4.7 76.65 4.3 70.6 4.6 66.0 L4.8 63.9 M7.75 57.7 Q10.95 60.25 16.55 60.85 L16.6 60.9 Q30.45 73.6 43.2 79.55 L43.05 85.85 42.9 87.65 42.9 89.3 Q38.7 85.55 32.55 81.85 28.95 79.65 21.4 75.75 16.7 73.35 12.5 69.65 8.2 65.95 5.2 61.6 5.95 58.5 7.75 57.7 M54.15 -19.05 Q57.15 -14.9 58.6 -10.5 52.0 -13.5 45.1 -14.3 37.55 -15.15 31.15 -13.15 34.7 -17.1 41.55 -18.65 L53.7 -19.05 54.15 -19.05 M59.8 -2.8 Q59.6 0.6 57.5 3.65 51.55 -1.4 45.75 -4.1 38.3 -7.55 32.15 -6.55 L30.65 -10.55 30.8 -10.6 Q37.3 -13.05 45.3 -12.2 52.5 -11.4 59.3 -8.15 59.95 -5.35 59.8 -2.8 M33.0 -4.45 Q38.5 -5.35 45.15 -2.35 46.4 5.1 41.4 13.95 L41.3 14.15 38.35 15.25 Q38.6 12.25 37.65 8.45 L35.5 1.95 33.0 -4.45 M47.25 -1.3 Q51.65 0.95 56.45 4.95 52.65 9.35 44.55 12.8 48.15 5.2 47.25 -1.3 M16.75 75.05 Q19.8 77.15 26.3 80.65 12.05 83.5 6.3 90.8 L6.15 89.9 Q5.4 84.8 4.95 79.7 10.15 74.5 15.5 74.35 L15.7 74.3 16.75 75.05 M26.9 67.35 L19.25 61.0 26.4 60.55 Q33.3 59.7 36.55 57.75 37.9 59.5 39.25 61.95 L33.3 65.05 Q29.85 66.65 27.05 67.3 L26.9 67.35 M40.35 64.05 Q42.9 69.5 43.15 77.55 36.05 74.1 29.2 69.05 33.25 67.95 40.35 64.05 M46.7 97.55 L47.7 100.1 Q49.5 105.45 48.5 109.45 L47.95 108.7 Q46.85 107.5 44.6 107.35 L40.8 107.45 Q27.95 107.55 23.4 117.3 19.15 115.6 15.65 111.85 18.15 106.2 24.75 101.9 29.4 98.75 35.25 97.45 41.7 96.0 46.7 97.55 M44.0 92.25 L45.65 95.2 Q40.6 93.95 34.3 95.4 28.9 96.7 23.85 99.65 20.8 101.45 18.25 104.05 15.55 106.85 14.05 109.95 L11.7 106.5 Q14.2 99.4 18.85 93.15 23.65 86.7 29.7 82.5 38.7 87.4 43.25 91.85 43.55 92.15 44.0 92.25 M16.25 92.7 Q12.55 98.0 10.3 103.85 8.2 99.45 6.9 94.0 L7.05 93.85 Q11.55 86.55 24.8 83.25 20.05 87.3 16.25 92.7 M33.4 118.7 Q29.3 119.05 25.6 118.05 29.4 110.65 38.3 109.7 L41.25 109.55 44.25 109.55 Q47.7 109.5 47.25 112.6 43.9 117.95 33.4 118.7 M-0.4 100.5 Q-0.45 102.15 -1.3 103.1 -2.05 104.0 -3.7 104.5 L-5.5 104.8 Q-6.95 104.85 -7.0 104.05 -7.0 103.45 -7.6 103.0 L-8.75 102.9 -14.4 106.55 Q-17.5 108.2 -20.7 108.65 -24.1 109.2 -28.85 108.85 -35.55 108.4 -35.4 105.85 -35.25 103.95 -32.15 102.0 -31.25 101.4 -27.4 99.55 -24.35 98.0 -20.85 96.75 -16.55 100.15 -10.95 99.95 -5.75 99.75 -1.0 96.6 -0.35 99.3 -0.4 100.5" fill="#ffffff" fill-rule="evenodd" stroke="none"/>
  </g>
</svg>
