<?xml version="1.0" encoding="UTF-8" standalone="no"?>
<svg xmlns:ffdec="https://www.free-decompiler.com/flash" xmlns:xlink="http://www.w3.org/1999/xlink" ffdec:objectType="shape" height="174.3px" width="105.2px" xmlns="http://www.w3.org/2000/svg">
  <g transform="matrix(1.0, 0.0, 0.0, 1.0, 47.05, 46.95)">
    <path d="M24.5 -46.65 Q23.95 -40.25 19.55 -33.45 L19.25 -33.0 Q16.15 -28.4 11.1 -23.45 7.55 -20.0 2.0 -15.45 L-0.05 -21.05 Q7.6 -27.45 13.15 -33.2 L17.1 -37.55 Q19.2 -40.2 20.25 -42.55 21.55 -44.55 21.85 -46.95 L24.5 -46.65 M24.35 -35.7 L24.3 -25.85 Q24.4 -20.25 25.35 -16.0 26.25 -12.05 28.0 -6.65 L31.05 2.55 Q32.85 7.95 33.3 10.3 34.2 14.85 33.3 18.2 26.25 20.2 18.75 21.05 22.95 15.3 20.8 3.35 19.15 -6.25 19.35 -13.4 19.45 -16.75 20.25 -22.55 L21.25 -31.75 Q23.15 -34.55 24.3 -37.35 L24.35 -35.7 M32.1 -43.0 Q35.65 -41.0 39.8 -35.7 43.7 -30.75 46.5 -24.7 L35.6 -24.25 Q29.6 -22.8 26.75 -18.65 26.1 -22.5 26.2 -28.55 L26.25 -38.5 Q26.25 -40.7 25.85 -41.7 26.3 -43.35 26.55 -45.95 L32.1 -43.0 M18.1 -22.45 L17.45 -16.4 Q17.25 -12.6 17.4 -8.3 11.35 -5.95 7.7 -4.15 5.0 -8.55 2.95 -13.15 13.35 -21.45 18.85 -28.45 L18.1 -22.45 M48.4 -22.4 L51.55 -18.15 Q44.9 -19.25 39.1 -18.2 32.1 -16.9 28.1 -12.7 L27.45 -15.25 27.5 -15.3 Q29.85 -20.5 36.6 -22.2 41.95 -23.55 48.35 -22.4 L48.4 -22.4 M-32.8 -26.25 Q-30.25 -28.85 -25.9 -27.7 L-24.2 -26.7 -24.0 -26.55 -23.9 -26.45 -27.5 -20.85 Q-30.3 -22.85 -35.8 -22.85 L-32.8 -26.25 M-8.2 -43.05 L-6.05 -41.85 -6.05 -41.45 Q-13.7 -29.45 -20.25 -17.6 L-24.15 -10.1 Q-26.25 -5.85 -27.35 -2.3 -29.2 3.65 -29.5 7.55 -29.95 13.25 -27.65 17.15 L-28.7 16.9 Q-32.65 15.95 -36.1 14.5 -37.1 5.6 -32.95 -5.0 -30.0 -12.6 -23.6 -22.7 -16.35 -34.15 -8.3 -42.9 L-8.2 -43.05 M-10.15 -44.4 Q-16.65 -37.25 -22.95 -27.9 L-24.65 -29.1 Q-23.35 -35.05 -20.45 -39.4 -16.9 -44.7 -11.8 -45.8 L-10.15 -44.4 M-8.05 -33.8 L-5.6 -37.7 Q-4.6 -29.55 -2.25 -22.05 L-2.0 -21.25 Q1.05 -11.55 6.2 -3.35 L0.85 -0.1 0.4 -1.05 0.0 -1.3 -1.05 -2.65 -3.7 -8.55 -3.95 -9.15 Q-7.6 -19.25 -8.05 -33.7 L-8.05 -33.8 M-9.9 -30.8 Q-9.5 -23.8 -8.2 -17.45 L-10.85 -15.35 Q-12.65 -19.65 -15.25 -21.7 L-9.9 -30.8 M-0.8 -23.55 Q-2.8 -30.45 -3.8 -38.6 -1.15 -35.7 3.45 -35.15 8.45 -34.6 13.3 -36.8 L10.9 -34.35 Q6.8 -30.0 -0.8 -23.55 M-5.95 -9.45 L-7.2 -8.55 -11.75 -11.65 -7.6 -14.9 Q-6.95 -12.2 -5.95 -9.45 M-5.3 -7.0 L-5.05 -7.15 -4.85 -6.55 -5.3 -7.0 M-1.25 1.5 Q-6.3 5.6 -6.6 10.15 -6.75 13.05 -4.75 15.85 -7.15 17.0 -10.4 17.65 -14.05 14.95 -15.25 11.0 -16.5 6.8 -14.45 2.8 L-13.85 2.25 Q-11.1 -0.05 -7.75 -0.85 -3.85 -1.75 -1.15 0.0 L-0.5 0.95 -1.25 1.5 M1.55 2.35 L2.6 4.15 Q2.5 4.85 3.1 5.35 4.25 8.55 3.95 12.2 3.65 15.7 2.1 18.9 L2.0 19.3 Q-0.25 18.15 -1.9 16.6 -1.85 16.1 -2.3 15.55 -2.7 15.05 -3.15 15.1 -4.9 12.7 -4.45 10.15 -4.1 8.0 -2.3 5.8 -1.05 4.35 1.3 2.5 L1.55 2.35 M-15.5 -19.6 Q-13.7 -17.75 -12.35 -14.3 L-12.3 -14.25 -13.75 -13.15 -14.15 -13.0 Q-16.4 -14.45 -19.0 -15.0 L-16.15 -20.2 -15.5 -19.6 M-20.0 -13.2 Q-18.15 -12.95 -16.4 -12.2 -19.4 -11.05 -21.75 -9.75 L-20.0 -13.2 M-23.5 -6.0 Q-23.2 -6.0 -23.05 -6.15 -19.3 -8.8 -13.65 -10.75 -7.5 -7.25 -3.6 -3.0 -6.45 -3.65 -9.8 -2.55 -12.75 -1.6 -15.4 0.4 -19.25 3.3 -21.45 8.3 -23.85 13.9 -22.0 18.05 L-25.35 17.6 Q-30.4 11.25 -24.4 -3.85 L-23.5 -6.0 M-16.5 12.75 Q-15.15 15.7 -12.6 18.05 -16.25 18.5 -19.95 18.2 -21.35 15.7 -20.55 12.35 -19.85 9.5 -17.7 6.5 -17.9 9.7 -16.5 12.75 M-16.8 21.85 Q-5.65 28.75 9.2 28.65 23.65 28.55 32.6 24.65 33.35 36.9 29.75 51.7 28.15 58.1 25.15 65.2 23.3 65.95 20.4 66.05 L15.9 65.9 Q10.9 65.6 6.6 64.25 1.15 62.5 -0.9 59.5 -2.95 56.0 -3.85 51.95 -4.8 47.75 -4.3 43.85 -4.2 43.05 -5.2 42.45 -6.2 41.9 -6.3 42.85 -7.3 51.15 -3.15 58.95 -5.2 59.55 -6.95 62.75 -7.6 62.85 -7.4 63.65 L-7.85 64.75 Q-9.7 69.1 -11.4 77.95 -17.3 62.2 -19.05 50.05 -21.35 33.95 -16.95 21.75 L-16.8 21.85 M5.2 6.15 Q9.75 7.7 12.35 12.1 14.7 16.2 14.65 21.35 9.0 21.7 4.85 20.45 L4.0 20.2 Q5.6 16.85 5.9 13.25 6.25 9.55 5.2 6.15 M4.35 22.3 Q8.3 23.75 15.6 23.45 L16.35 23.4 16.65 23.4 Q23.85 23.0 32.25 20.85 L32.4 22.15 Q24.65 25.85 10.2 26.45 -4.3 27.1 -15.65 20.5 -8.45 20.35 -3.2 17.65 -0.2 20.55 4.35 22.3 M2.9 1.35 Q8.1 -2.25 17.6 -5.9 17.8 -3.35 18.3 -0.15 19.5 7.5 19.55 10.25 19.55 16.45 16.55 19.95 16.0 14.25 12.95 9.95 9.65 5.35 4.35 3.9 L2.9 1.35 M-28.4 -19.3 L-31.25 -14.2 -31.85 -14.25 Q-35.95 -13.25 -39.7 -10.8 -43.35 -8.4 -46.1 -5.0 -44.35 -11.1 -38.45 -19.3 L-37.4 -20.8 -37.1 -20.75 Q-32.85 -20.85 -29.85 -19.95 L-28.4 -19.3 M-40.9 -6.95 Q-37.05 -10.15 -32.5 -11.65 -34.7 -7.15 -36.2 -2.45 L-36.6 -2.4 Q-39.75 -0.75 -41.95 1.6 -44.55 4.3 -45.25 7.35 -46.95 4.65 -47.0 1.5 L-47.0 0.55 -46.95 0.45 Q-44.7 -3.75 -40.9 -6.95 M-41.3 4.5 Q-39.65 2.3 -37.05 0.65 -38.75 7.5 -38.2 13.5 -41.25 11.85 -43.45 9.65 -43.15 6.95 -41.3 4.5 M-1.9 60.95 Q0.65 64.05 5.65 65.9 16.0 81.65 26.7 90.35 L25.75 93.85 24.75 96.6 Q24.05 98.5 23.85 99.65 20.75 95.2 15.85 90.3 L6.8 81.95 Q2.85 78.55 -0.3 73.9 -3.4 69.35 -5.25 64.3 -3.75 61.35 -1.9 60.95 M-6.2 66.6 Q-3.95 71.8 -0.15 76.8 -4.4 76.4 -9.4 78.95 -8.25 72.75 -6.9 68.65 L-6.2 66.6 M57.1 -7.1 Q50.7 -10.4 43.9 -11.55 36.4 -12.8 30.0 -11.2 33.95 -15.2 40.8 -16.25 L52.85 -15.9 53.05 -15.85 Q55.9 -11.25 57.1 -7.1 M55.25 6.9 Q49.55 1.6 44.0 -1.35 36.8 -5.2 30.65 -4.55 L29.3 -8.65 29.55 -8.7 Q36.15 -10.75 44.0 -9.5 51.1 -8.35 57.7 -4.75 L58.1 -1.7 Q58.4 3.05 55.25 6.9 M33.45 4.05 L31.35 -2.45 Q36.85 -3.0 43.35 0.3 44.2 7.85 38.7 16.45 L38.6 16.6 35.65 17.55 Q36.1 14.6 35.3 10.7 L33.45 4.05 M45.4 1.45 Q49.95 4.2 54.15 8.15 50.25 12.15 42.0 15.35 45.95 8.0 45.4 1.45 M14.2 74.85 L14.1 74.9 8.2 66.65 14.45 67.85 25.55 67.55 26.4 69.4 27.25 72.3 20.8 74.0 14.2 74.85 M27.75 74.55 Q28.3 77.25 28.35 80.1 28.45 83.45 27.2 88.55 21.3 83.7 15.8 76.95 20.0 76.75 27.75 74.55 M15.15 92.1 Q20.8 97.75 23.7 102.5 L24.3 103.0 25.2 106.55 Q20.75 104.3 14.65 104.2 9.35 104.15 4.0 105.7 0.35 106.75 -3.0 108.85 -6.55 111.05 -8.85 113.95 L-8.9 113.85 -10.15 110.1 -10.1 110.05 Q-5.95 103.55 0.1 98.4 6.35 93.05 13.3 90.25 L15.15 92.1 M25.7 109.35 Q26.6 115.9 24.8 120.4 L24.55 120.9 24.3 120.45 Q23.3 119.0 21.35 118.35 L17.7 117.55 Q5.3 114.7 -1.55 123.15 -5.35 120.45 -7.7 116.3 -3.9 111.15 3.6 108.25 8.7 106.3 14.75 106.3 21.4 106.3 25.6 108.8 L25.7 109.35 M20.3 120.15 Q23.6 120.85 22.45 123.8 19.55 126.6 14.55 127.2 6.85 128.05 0.45 124.45 6.05 117.75 15.05 119.05 L20.3 120.15 M-2.3 97.3 Q-7.2 101.65 -10.85 106.95 -11.75 102.2 -11.5 96.5 L-11.4 96.4 Q-5.05 90.15 8.35 89.95 2.7 92.85 -2.3 97.3 M2.3 79.85 Q4.5 82.35 10.65 87.85 -3.7 87.25 -11.35 93.15 L-9.95 82.3 -9.9 81.95 Q-3.6 78.0 1.5 79.05 L1.65 79.1 2.3 79.85 M-20.05 102.95 Q-19.15 100.45 -13.55 97.85 -13.55 102.35 -12.75 106.5 -21.2 105.95 -20.05 102.95" fill="#ffffff" fill-rule="evenodd" stroke="none"/>
  </g>
</svg>
