<?xml version="1.0" encoding="UTF-8" standalone="no"?>
<svg xmlns:ffdec="https://www.free-decompiler.com/flash" xmlns:xlink="http://www.w3.org/1999/xlink" ffdec:objectType="shape" height="170.45px" width="105.15px" xmlns="http://www.w3.org/2000/svg">
  <g transform="matrix(1.0, 0.0, 0.0, 1.0, 45.2, 45.4)">
    <path d="M27.75 -40.1 Q28.3 -42.3 28.45 -44.35 30.05 -43.7 34.0 -41.45 37.6 -39.35 41.7 -34.1 45.4 -29.4 48.4 -23.1 L37.5 -22.7 Q31.45 -21.25 28.6 -17.1 27.95 -20.9 28.05 -27.0 L28.15 -36.95 Q28.15 -39.15 27.75 -40.1 M23.15 -45.35 L23.2 -45.3 26.4 -45.05 Q25.85 -38.7 21.45 -31.9 L21.15 -31.5 Q15.95 -23.7 3.85 -13.95 2.8 -16.55 1.85 -19.55 9.8 -26.3 15.05 -31.65 L19.5 -36.65 Q21.85 -39.65 22.7 -42.45 22.85 -42.85 22.55 -43.25 L23.15 -45.35 M26.2 -34.15 L26.15 -24.3 Q26.25 -18.65 27.2 -14.45 28.1 -10.5 29.85 -5.1 L32.9 4.1 35.1 11.85 Q36.0 16.45 35.1 19.8 27.6 21.85 20.5 22.55 24.7 16.9 22.65 4.9 21.0 -4.75 21.2 -11.85 21.3 -15.1 22.1 -21.0 L23.1 -30.2 Q24.9 -32.9 26.2 -35.8 L26.2 -34.15 M12.8 -32.8 Q8.55 -28.45 1.05 -22.05 -0.95 -29.25 -1.8 -36.55 0.9 -33.9 5.35 -33.6 10.85 -33.2 15.9 -36.05 L12.8 -32.8 M-21.1 -26.45 Q-21.6 -26.95 -22.8 -27.65 -21.55 -33.3 -18.85 -37.45 -15.5 -42.6 -10.85 -44.0 L-8.75 -42.35 Q-14.9 -35.5 -21.1 -26.45 M-22.3 -25.25 L-22.05 -25.0 -25.6 -19.4 Q-28.25 -21.3 -33.9 -21.4 L-30.9 -24.8 Q-28.45 -27.4 -24.0 -26.25 L-22.3 -25.25 M-6.2 -32.3 L-3.75 -36.2 Q-2.65 -28.0 -0.4 -20.55 L-0.15 -19.75 Q2.95 -9.9 8.05 -1.85 4.85 -0.15 2.7 1.4 L2.2 0.5 1.85 0.2 0.8 -1.15 -1.9 -7.05 -2.1 -7.65 Q-5.7 -17.6 -6.15 -32.2 L-6.2 -32.3 M-4.2 -39.8 Q-11.6 -28.4 -18.4 -16.1 L-22.3 -8.6 Q-24.4 -4.35 -25.5 -0.8 -27.35 5.15 -27.65 9.0 -28.15 14.7 -25.85 18.6 L-26.9 18.35 Q-30.85 17.4 -34.3 15.95 -35.25 7.05 -31.1 -3.55 -28.1 -11.2 -21.7 -21.2 -14.7 -32.35 -6.7 -41.05 L-4.2 -39.8 M-3.25 -5.65 L-3.0 -5.05 -3.45 -5.5 -3.25 -5.65 M-5.35 -7.05 Q-7.35 -8.65 -9.9 -10.2 L-5.75 -13.4 Q-5.1 -10.7 -4.1 -7.95 L-5.35 -7.05 M0.6 3.0 Q-4.5 7.15 -4.75 11.65 -4.95 14.5 -2.95 17.35 -5.35 18.5 -8.6 19.15 -12.25 16.4 -13.45 12.45 -14.7 8.3 -12.65 4.25 L-12.0 3.7 Q-9.25 1.45 -5.95 0.65 -2.05 -0.25 0.65 1.5 L1.3 2.45 0.6 3.0 M4.8 -11.65 Q15.3 -20.05 20.75 -26.9 L19.95 -20.9 19.3 -14.85 Q19.05 -10.35 19.25 -6.75 13.75 -4.75 9.55 -2.65 7.0 -6.65 4.8 -11.65 M-13.4 -20.2 L-8.0 -29.3 Q-7.6 -22.0 -6.35 -16.0 L-9.0 -13.85 Q-10.85 -18.25 -13.4 -20.2 M-13.65 -18.1 Q-11.7 -16.1 -10.5 -12.8 L-10.45 -12.75 -11.9 -11.65 -12.3 -11.55 Q-14.35 -12.9 -17.15 -13.55 L-14.25 -18.7 -13.65 -18.1 M-26.55 -17.85 L-29.4 -12.75 -30.0 -12.8 Q-34.1 -11.8 -37.85 -9.35 -41.5 -7.0 -44.3 -3.6 -42.55 -9.35 -36.6 -17.9 L-35.5 -19.35 -35.2 -19.3 Q-30.95 -19.4 -28.0 -18.5 L-26.55 -17.85 M-21.2 -4.65 Q-17.4 -7.4 -11.8 -9.25 -5.95 -6.0 -1.75 -1.5 -4.6 -2.15 -7.95 -1.05 -10.9 -0.1 -13.6 1.9 -17.45 4.8 -19.65 9.8 -22.05 15.35 -20.2 19.5 L-23.55 19.05 Q-28.55 12.75 -22.55 -2.4 L-21.65 -4.5 -21.2 -4.65 M-18.15 -11.7 Q-16.45 -11.5 -14.55 -10.75 -17.25 -9.7 -19.9 -8.25 L-18.15 -11.7 M-14.7 14.25 Q-13.35 17.2 -10.8 19.55 -14.05 19.95 -18.15 19.7 -19.55 17.25 -18.7 13.85 -18.0 11.0 -15.9 8.0 -16.1 11.15 -14.7 14.25 M3.4 3.85 L4.4 5.7 Q4.4 6.3 4.9 6.9 6.05 10.1 5.75 13.75 5.45 17.2 3.9 20.4 L3.8 20.85 Q1.45 19.6 -0.1 18.1 -0.05 17.6 -0.5 17.05 -0.9 16.55 -1.35 16.6 -3.1 14.2 -2.65 11.65 -2.1 8.05 3.15 4.0 L3.4 3.85 M7.05 7.65 Q11.6 9.2 14.15 13.65 16.5 17.7 16.45 22.9 10.45 23.15 6.65 22.0 L5.8 21.7 Q7.4 18.4 7.7 14.75 8.05 11.1 7.05 7.65 M9.25 24.65 L4.05 24.7 Q-6.4 24.9 -13.95 22.0 -6.7 21.85 -1.4 19.15 1.75 22.2 6.15 23.8 L9.25 24.65 M3.65 26.8 Q13.0 26.9 16.6 26.65 24.05 26.1 29.15 23.75 33.6 35.0 32.2 52.45 L31.35 59.0 30.95 61.05 Q28.2 62.8 22.0 63.8 14.4 65.1 8.55 63.55 6.8 63.05 5.0 62.0 L4.3 61.55 Q3.15 54.95 -0.1 46.2 -0.4 45.35 -1.4 45.25 -2.35 45.2 -1.95 46.25 -1.0 48.75 -0.15 51.6 -1.5 54.2 -5.65 57.2 -6.0 57.45 -5.6 57.9 -5.2 58.35 -4.85 58.1 -1.15 55.45 0.35 53.1 L1.5 57.45 2.25 60.85 2.35 61.15 2.05 61.2 Q-0.15 62.3 -1.15 65.9 -1.7 66.2 -1.4 66.85 L-1.95 69.8 -2.4 73.9 Q-6.65 75.5 -10.15 74.8 -17.15 71.1 -21.85 66.05 -27.55 59.85 -28.15 53.25 -28.55 48.8 -26.65 42.7 L-22.75 32.65 Q-20.4 26.95 -17.95 22.15 -9.8 26.7 3.65 26.8 M4.75 2.85 Q9.65 -0.55 19.45 -4.35 19.65 -1.8 20.15 1.4 21.35 9.2 21.35 11.8 21.35 18.0 18.35 21.5 17.8 15.75 14.75 11.5 11.5 6.85 6.2 5.4 L4.75 2.85 M-39.05 -5.5 Q-35.2 -8.7 -30.65 -10.2 -33.0 -5.45 -34.4 -1.0 L-34.75 -0.95 Q-37.9 0.7 -40.15 3.05 -42.7 5.7 -43.4 8.75 -45.05 6.05 -45.2 2.9 L-45.2 2.0 -45.1 1.9 Q-42.85 -2.3 -39.05 -5.5 M-41.6 11.05 Q-41.35 8.4 -39.5 5.95 -37.85 3.75 -35.25 2.1 -36.9 8.7 -36.4 14.9 -39.6 13.15 -41.6 11.05 M0.25 69.45 Q3.7 74.25 8.1 78.0 3.8 78.6 -0.55 82.25 -0.65 75.95 0.0 71.35 L0.25 69.45 M3.55 63.15 Q6.8 65.75 12.0 66.3 25.0 79.2 37.25 85.3 L36.75 91.75 36.55 93.55 36.45 95.2 Q32.45 91.4 26.65 87.65 22.9 85.25 15.9 81.45 11.4 79.0 7.45 75.25 3.55 71.55 0.75 67.15 1.65 63.95 3.55 63.15 M-2.6 76.4 L-2.55 85.3 Q-8.35 91.4 -14.45 92.35 -17.4 92.85 -17.85 91.7 -18.2 90.7 -17.1 88.15 -15.15 83.4 -9.55 76.95 -6.2 77.45 -2.6 76.4 M54.9 -14.25 Q57.7 -9.7 58.95 -5.5 52.55 -8.8 45.75 -9.95 38.25 -11.2 31.85 -9.6 35.8 -13.6 42.65 -14.65 L54.7 -14.25 54.9 -14.25 M53.45 -16.5 Q46.8 -17.7 40.95 -16.65 33.95 -15.35 29.95 -11.1 L29.3 -13.7 29.35 -13.75 Q31.7 -18.9 38.35 -20.6 43.65 -21.95 50.0 -20.85 L53.4 -16.55 53.45 -16.5 M57.05 8.55 Q51.4 3.2 45.8 0.25 38.6 -3.6 32.45 -3.0 L31.15 -7.1 31.4 -7.1 Q37.95 -9.2 45.85 -7.9 52.95 -6.75 59.5 -3.15 L59.9 -0.1 Q60.2 4.6 57.05 8.55 M45.15 1.9 Q46.0 9.35 40.5 18.05 L40.4 18.15 37.45 19.1 Q37.9 16.2 37.1 12.3 36.7 10.3 35.3 5.65 L33.15 -0.85 Q38.6 -1.45 45.15 1.9 M47.25 3.05 Q51.7 5.7 55.95 9.8 52.1 13.75 43.85 16.95 47.75 9.6 47.25 3.05 M31.95 63.25 L34.25 67.25 34.4 67.5 28.3 70.6 Q24.8 72.25 21.95 72.9 L21.8 72.95 14.6 66.5 21.85 66.05 Q28.65 65.25 31.95 63.25 M35.35 69.65 Q37.6 75.4 37.35 83.3 30.75 80.0 24.0 74.7 28.15 73.55 35.35 69.65 M38.85 101.25 Q33.85 99.95 27.65 101.35 22.2 102.6 17.2 105.5 14.0 107.35 11.3 110.0 8.4 112.8 6.75 115.95 L4.7 112.55 Q7.65 105.25 12.55 98.95 17.65 92.5 24.0 88.2 L26.3 89.6 Q32.95 93.85 36.7 97.75 37.0 98.15 37.4 98.15 L38.85 101.25 M32.6 102.95 L36.3 103.0 39.75 103.5 40.6 106.1 Q42.05 111.45 40.85 115.6 L40.35 114.85 Q39.35 113.6 37.1 113.45 L33.35 113.55 Q20.65 113.65 15.6 123.5 11.5 121.7 8.35 118.0 10.9 112.7 17.2 108.3 23.7 103.8 32.6 102.95 M17.8 124.25 Q22.05 116.7 30.85 115.8 L36.75 115.7 Q40.05 115.65 39.45 118.75 35.9 124.1 25.4 124.95 21.5 125.3 17.8 124.25 M0.85 99.7 Q5.7 92.25 18.85 89.05 13.9 93.15 9.9 98.55 6.0 103.85 3.45 109.75 1.65 105.35 0.65 99.85 L0.85 99.7 M10.5 79.95 L11.35 80.6 20.8 86.35 Q6.45 89.15 0.2 96.6 L0.1 95.45 -0.5 85.4 Q5.15 80.05 10.3 80.0 L10.5 79.95" fill="#ffffff" fill-rule="evenodd" stroke="none"/>
  </g>
</svg>
