<?xml version="1.0" encoding="UTF-8" standalone="no"?>
<svg xmlns:ffdec="https://www.free-decompiler.com/flash" xmlns:xlink="http://www.w3.org/1999/xlink" ffdec:objectType="shape" height="159.8px" width="111.35px" xmlns="http://www.w3.org/2000/svg">
  <g transform="matrix(1.0, 0.0, 0.0, 1.0, 34.95, 46.2)">
    <path d="M19.15 81.95 L21.35 85.15 Q24.05 89.8 23.25 90.9 20.25 95.2 16.6 97.1 L15.2 95.15 14.55 94.7 13.75 94.8 Q8.5 99.2 6.0 100.9 1.65 103.9 -2.7 105.55 -7.9 107.6 -10.05 106.15 -11.5 105.2 -8.55 100.3 -6.2 96.5 -2.0 92.3 L-1.8 91.8 Q7.2 92.85 19.15 81.95 M74.35 73.6 L74.25 73.7 Q69.65 77.65 63.35 79.4 57.1 81.1 51.0 80.05 L50.75 80.05 Q48.25 77.85 46.4 75.1 L49.1 73.2 Q56.75 74.9 64.75 71.8 65.3 72.1 65.6 71.65 L65.9 71.3 Q71.9 68.75 76.4 64.05 76.1 69.2 74.35 73.6 M71.8 78.4 Q68.35 82.9 63.5 84.15 59.0 85.4 54.0 82.45 63.65 83.15 71.8 78.4 M68.7 67.15 Q73.15 59.45 74.05 49.7 76.1 55.0 76.4 60.55 L76.25 60.7 Q73.1 64.35 68.7 67.15 M70.45 42.9 L72.2 45.8 Q72.1 52.2 70.2 58.25 68.15 64.65 64.4 69.4 57.7 72.25 51.25 71.5 62.9 61.8 63.35 50.8 L63.25 48.1 63.4 48.15 Q67.4 48.1 69.25 41.35 L70.45 42.9 M62.85 46.0 Q61.3 40.2 56.25 37.15 L61.7 36.85 Q64.75 37.25 67.45 39.55 66.85 41.95 65.9 43.6 64.55 45.85 62.85 46.0 M53.8 37.95 Q58.2 39.5 60.15 43.85 61.85 47.8 61.05 52.6 59.35 62.45 48.1 70.95 55.3 61.2 54.65 50.5 54.2 43.9 51.25 38.95 L53.7 37.9 53.8 37.95 M45.35 45.15 L47.05 41.4 49.75 39.75 Q54.55 47.8 51.8 57.95 49.35 66.85 42.25 74.2 L34.65 74.0 Q41.25 71.55 45.4 62.65 47.5 58.1 47.7 53.75 47.95 48.6 45.35 45.15 M45.1 -1.05 Q49.35 1.3 54.2 5.25 L54.15 5.3 Q49.9 9.85 42.35 13.4 46.0 5.65 45.1 -1.05 M39.15 14.7 L36.25 15.8 Q37.05 10.3 34.6 2.15 33.55 -1.35 32.3 -4.25 36.85 -5.0 43.0 -2.1 44.25 5.4 39.25 14.3 L39.15 14.7 M47.7 -24.05 L50.3 -20.9 38.0 -20.35 Q31.2 -18.75 27.4 -14.45 L26.35 -16.35 Q28.65 -21.65 35.05 -23.85 40.45 -25.75 46.8 -24.95 L46.95 -24.95 47.7 -24.05 M51.6 -18.7 L51.9 -18.7 Q54.95 -14.25 56.45 -10.1 49.9 -13.1 42.95 -13.9 35.4 -14.8 29.05 -12.8 32.6 -16.75 39.45 -18.25 L51.6 -18.7 M43.55 -11.75 Q50.55 -10.95 57.15 -7.8 58.85 -1.0 55.25 3.95 41.5 -7.8 31.45 -6.3 L29.45 -10.5 Q35.85 -12.7 43.55 -11.75 M10.15 38.7 Q9.9 37.8 8.95 37.75 7.95 37.65 8.25 38.75 9.05 41.65 9.35 45.8 L9.65 52.95 9.3 53.35 7.8 57.65 6.95 60.15 Q6.45 61.8 6.75 62.75 7.0 63.55 7.9 63.8 L9.3 65.1 Q11.1 67.25 14.05 72.6 L15.85 76.25 17.8 79.95 Q10.2 86.9 2.8 89.05 -0.8 90.05 -3.15 89.55 -13.6 75.35 -15.75 59.95 -16.7 52.75 -14.55 44.05 L-9.6 28.8 -8.55 25.4 Q-3.8 29.1 5.65 30.95 L12.6 31.45 19.55 31.05 Q25.0 30.6 30.8 29.05 43.0 25.85 49.7 19.35 49.55 29.1 45.3 39.75 L45.1 39.85 Q44.7 40.15 44.85 40.7 43.2 44.65 40.8 48.85 40.4 49.6 41.3 50.35 L42.65 50.3 44.5 46.9 Q46.35 50.05 45.5 54.8 44.9 58.45 42.9 62.55 38.05 72.2 29.05 72.85 22.8 73.2 18.15 69.45 13.55 65.75 12.35 59.6 11.75 56.6 11.5 49.15 11.2 42.45 10.15 38.7 M-18.0 31.2 L-18.45 29.5 Q-17.2 28.8 -16.15 27.25 -15.2 28.05 -14.4 28.05 L-11.7 28.05 -13.1 32.0 -13.55 32.0 Q-16.95 33.1 -18.0 31.2 M-25.35 -9.7 Q-24.75 -9.95 -23.95 -9.7 -23.6 -8.85 -23.0 -8.65 L-22.3 -8.45 -22.25 -8.0 -23.1 -2.5 Q-24.75 7.9 -25.7 16.5 -27.15 29.15 -25.8 37.25 -25.05 41.55 -23.1 45.8 L-21.1 50.4 Q-20.3 52.85 -20.45 55.25 -20.5 55.7 -19.65 55.9 L-17.95 56.0 -17.45 61.5 -17.4 61.75 Q-18.0 61.6 -18.15 62.3 -20.15 72.45 -22.3 86.75 L-25.9 111.3 -26.15 112.5 -27.4 113.15 Q-29.7 114.25 -31.8 112.55 L-31.75 112.35 Q-30.8 104.35 -28.6 91.75 -25.05 72.0 -24.15 57.15 -24.0 54.5 -24.95 52.05 L-27.25 47.35 Q-31.6 38.9 -30.4 25.0 -29.5 13.65 -26.8 -8.55 L-25.35 -9.7 M4.8 19.7 Q6.15 16.4 6.3 12.75 6.4 9.1 5.25 5.8 9.9 7.15 12.65 11.4 15.2 15.35 15.5 20.55 9.2 21.05 4.8 19.7 M2.75 1.2 Q4.35 -0.1 5.85 -1.0 10.25 -3.9 17.3 -7.0 19.55 0.25 19.9 5.25 20.65 14.35 17.3 18.95 16.45 13.3 13.15 9.15 9.6 4.7 4.25 3.55 L2.75 1.2 M-1.0 16.75 Q-5.2 13.55 -3.85 9.25 -2.8 5.9 1.45 2.25 L2.55 4.0 Q2.55 4.75 3.1 5.2 4.4 8.3 4.3 11.9 4.2 15.4 2.8 18.65 L2.75 18.95 Q0.9 18.15 -1.0 16.75 M-9.0 13.85 L-8.55 14.0 Q-8.8 19.3 -10.95 25.95 L-14.0 25.95 -15.25 25.6 Q-15.1 25.05 -15.65 24.45 -16.2 23.85 -16.75 23.95 L-17.15 23.3 Q-19.0 20.15 -18.45 15.7 -18.35 14.9 -19.35 14.3 -20.35 13.75 -20.45 14.7 -21.05 19.45 -18.75 23.9 L-17.8 25.45 Q-18.55 26.6 -19.6 27.4 -20.6 28.15 -22.15 27.8 -23.75 27.45 -24.1 26.35 L-24.45 25.8 -24.25 22.55 Q-21.6 22.95 -20.25 21.55 -19.65 20.95 -20.45 20.05 -21.25 19.15 -21.8 19.75 -22.6 20.5 -24.05 20.5 L-23.45 14.95 Q-22.85 15.4 -22.4 14.95 -19.65 12.45 -15.9 12.2 -12.3 11.95 -9.0 13.85 M-11.1 -2.15 L-9.4 4.9 Q-8.6 8.85 -8.55 12.1 L-8.7 12.0 Q-12.2 10.0 -16.0 10.05 -20.05 10.1 -23.1 12.45 L-22.9 10.8 -20.25 -7.0 -20.25 -7.85 -11.95 -5.4 -11.1 -2.15 M-16.6 -24.85 Q-15.5 -18.75 -13.8 -12.5 L-18.1 -12.95 -22.25 -14.1 Q-24.35 -14.7 -25.1 -17.7 L-25.95 -22.65 Q-26.45 -24.45 -27.75 -25.55 -29.1 -26.65 -30.8 -26.75 -30.2 -27.75 -28.65 -27.35 L-26.3 -26.4 Q-24.45 -25.7 -21.55 -25.35 L-16.6 -24.85 M-13.25 -10.35 L-12.55 -7.55 -21.75 -10.3 Q-22.85 -11.35 -23.85 -11.75 -25.05 -12.25 -26.35 -11.75 -27.5 -11.35 -28.4 -10.3 -33.6 -10.55 -34.7 -15.7 -35.8 -20.65 -32.15 -24.1 L-32.05 -24.2 Q-28.85 -25.65 -27.6 -21.6 -26.9 -19.4 -25.95 -15.0 -25.3 -13.7 -23.85 -12.85 -22.8 -12.3 -21.0 -11.75 -16.05 -10.3 -13.25 -10.35 M18.45 -9.0 Q15.95 -16.55 15.4 -18.55 12.15 -29.95 14.2 -38.0 14.75 -31.9 19.55 -24.25 27.05 -12.5 30.85 -3.1 33.1 2.45 33.9 6.55 35.0 12.15 33.9 16.55 29.4 17.95 23.95 19.15 L19.45 20.0 Q21.85 16.35 22.1 10.4 22.3 5.7 21.15 0.5 20.35 -3.15 18.45 -9.0 M3.55 -29.95 Q8.05 -30.75 11.25 -33.85 11.1 -29.3 12.35 -23.6 13.2 -19.7 15.05 -14.0 L16.6 -9.25 Q11.25 -6.9 7.2 -4.65 5.8 -6.5 4.0 -9.6 2.65 -16.0 2.9 -26.0 L3.1 -29.85 3.55 -29.95 M1.8 -31.9 Q1.15 -31.9 1.15 -31.35 0.4 -22.25 1.2 -14.95 -4.0 -26.05 -5.8 -38.75 -3.85 -37.5 -1.0 -37.0 L5.9 -37.35 Q9.45 -38.15 12.3 -40.1 L11.95 -38.85 Q10.45 -35.9 7.9 -34.1 5.2 -32.15 1.8 -31.9 M-9.8 -43.65 Q-9.15 -41.9 -8.0 -40.6 -5.75 -23.3 2.15 -9.5 L2.2 -9.0 Q2.35 -8.45 2.9 -8.2 4.05 -6.2 5.75 -3.75 2.6 -1.9 -0.1 0.35 -5.8 -9.15 -8.35 -20.85 -10.85 -32.35 -9.8 -43.65 M-16.55 -31.35 Q-17.55 -31.7 -17.45 -30.65 L-16.95 -26.95 -20.8 -27.5 Q-21.15 -32.25 -20.25 -36.75 -18.55 -45.75 -11.75 -44.95 -13.7 -36.9 -10.65 -22.85 -7.5 -8.4 -1.4 1.45 -6.3 5.85 -6.3 10.25 -6.35 14.4 -2.5 17.75 0.5 20.35 5.15 21.95 9.1 23.35 16.55 22.55 L17.25 22.45 17.65 22.45 Q25.2 21.55 34.1 18.75 43.75 15.65 49.15 12.45 L49.6 16.3 Q49.3 16.25 49.1 16.5 43.6 22.55 31.65 26.45 21.5 29.7 8.35 29.1 3.9 28.9 -0.25 27.6 -4.95 26.1 -8.05 23.6 -6.5 17.5 -6.5 12.15 -6.55 9.1 -7.3 5.35 L-9.0 -1.35 -11.6 -11.0 -11.75 -11.7 Q-13.9 -19.8 -14.8 -25.4 L-15.45 -30.15 Q-15.55 -31.0 -16.55 -31.35 M34.2 -40.8 Q36.75 -38.25 39.9 -34.15 L45.15 -27.15 Q38.85 -27.65 33.65 -25.85 27.5 -23.7 24.95 -18.8 21.25 -24.55 19.6 -27.55 16.8 -32.75 16.35 -37.2 16.2 -39.1 16.6 -41.2 17.1 -43.45 18.05 -44.6 L18.2 -44.9 Q22.2 -47.05 26.75 -45.6 30.65 -44.35 34.2 -40.8" fill="#ffffff" fill-rule="evenodd" stroke="none"/>
  </g>
</svg>
