<?xml version="1.0" encoding="UTF-8" standalone="no"?>
<svg xmlns:ffdec="https://www.free-decompiler.com/flash" xmlns:xlink="http://www.w3.org/1999/xlink" ffdec:objectType="shape" height="161.45px" width="100.7px" xmlns="http://www.w3.org/2000/svg">
  <g transform="matrix(1.0, 0.0, 0.0, 1.0, 33.9, 45.1)">
    <path d="M39.05 -32.65 L44.2 -25.2 Q38.0 -25.95 32.7 -24.35 26.5 -22.4 23.75 -17.65 20.25 -23.55 18.75 -26.65 16.15 -31.9 15.85 -36.4 15.75 -38.4 16.2 -40.25 16.7 -42.45 17.85 -43.7 L18.0 -44.05 Q21.85 -45.95 26.3 -44.45 30.15 -43.15 33.4 -39.75 35.95 -37.05 39.05 -32.65 M-9.9 -43.7 Q-9.4 -42.15 -8.4 -40.9 -7.5 -30.85 -4.45 -21.35 -1.2 -11.3 4.0 -3.3 L-2.0 0.55 Q-7.35 -9.15 -9.45 -20.95 -11.5 -32.5 -10.0 -43.75 L-9.9 -43.7 M2.9 -28.3 Q5.1 -28.7 7.4 -29.9 9.2 -30.8 10.65 -32.0 10.3 -24.85 13.1 -15.25 L15.05 -8.4 Q8.85 -5.9 5.5 -4.15 L3.3 -7.8 Q2.0 -14.5 2.25 -24.35 L2.45 -28.2 2.9 -28.3 M1.15 -30.25 Q0.5 -30.25 0.5 -29.7 -0.25 -20.85 0.5 -13.4 -1.1 -16.95 -2.35 -20.8 -5.25 -29.5 -6.25 -38.9 -3.95 -37.35 -0.95 -36.95 L5.9 -37.3 Q9.45 -38.15 12.25 -40.1 L11.65 -38.3 11.65 -38.45 11.3 -37.2 Q9.8 -34.25 7.25 -32.45 4.55 -30.5 1.15 -30.25 M-12.15 -43.45 Q-13.45 -31.95 -11.2 -20.15 -8.9 -8.2 -3.35 1.65 -8.4 5.95 -8.6 10.35 -8.75 14.4 -5.0 17.95 -1.9 20.85 2.5 22.35 6.7 23.85 13.8 23.35 L14.55 23.3 14.8 23.3 Q22.3 22.75 31.2 20.35 39.55 17.95 44.45 15.7 L44.6 17.4 Q44.95 21.45 44.4 25.95 L44.3 25.95 Q28.9 30.7 14.3 30.8 -2.35 30.9 -15.25 24.8 L-11.95 17.75 Q-10.4 13.6 -10.35 10.2 -10.3 7.2 -10.85 3.5 L-12.15 -3.15 Q-14.5 -13.3 -18.2 -23.55 -18.5 -24.4 -19.45 -24.5 -20.45 -24.55 -20.05 -23.5 L-19.15 -20.9 -21.85 -21.05 Q-22.8 -28.35 -20.75 -34.25 -18.3 -41.4 -12.15 -43.45 M14.15 -17.75 Q11.35 -29.3 13.7 -37.15 14.1 -30.9 18.6 -23.25 25.7 -11.05 29.05 -1.65 31.05 3.9 31.75 8.0 32.6 13.55 31.4 17.9 L22.4 20.05 16.8 21.0 Q19.35 17.45 19.8 11.5 20.15 6.8 19.2 1.5 L16.85 -8.05 14.15 -17.75 M1.0 5.45 Q2.2 8.65 1.95 12.3 1.7 15.8 0.2 19.0 L0.15 19.25 Q-1.45 18.5 -2.95 17.4 -7.4 14.0 -6.05 9.6 -5.0 6.15 -0.55 2.5 L0.5 4.3 Q0.5 4.95 1.0 5.45 M0.8 1.5 L2.65 0.25 Q7.45 -2.85 15.65 -6.15 17.55 0.75 17.8 5.85 18.3 15.1 14.7 19.8 14.05 14.15 10.9 9.9 7.5 5.3 2.25 3.95 L0.8 1.5 M-12.35 8.05 Q-12.2 11.7 -13.8 16.1 -14.6 18.25 -17.25 23.6 L-17.35 13.95 Q-17.4 8.15 -17.75 4.35 L-17.85 2.1 -18.15 -0.45 -13.45 -0.25 Q-12.55 4.25 -12.35 8.05 M3.15 6.2 Q7.75 7.7 10.35 12.1 12.7 16.15 12.8 21.35 6.8 21.7 2.2 20.1 3.7 16.8 3.95 13.2 4.2 9.55 3.15 6.2 M-13.9 -2.4 L-18.75 -2.6 Q-19.15 -3.7 -19.95 -4.25 -21.2 -5.25 -23.1 -4.55 -24.15 -4.2 -26.05 -2.85 -30.65 -2.6 -32.75 -6.15 -34.8 -9.6 -33.2 -13.95 L-32.5 -15.8 Q-32.2 -15.8 -32.0 -15.95 -29.0 -17.9 -27.05 -13.65 L-25.6 -9.95 Q-24.75 -7.8 -23.95 -7.1 -22.35 -5.6 -19.55 -5.05 -17.05 -4.6 -14.5 -5.0 L-13.9 -2.4 M-18.45 -18.75 Q-17.0 -14.3 -15.05 -7.2 L-18.25 -7.1 -21.45 -7.65 Q-23.25 -8.0 -24.3 -10.95 -25.25 -14.35 -25.85 -15.5 -27.7 -18.8 -30.75 -18.7 -30.1 -19.35 -29.05 -19.45 L-23.75 -19.25 -18.45 -18.75 M-19.35 18.9 L-19.05 26.95 -22.8 33.7 Q-23.55 26.45 -23.9 16.35 L-24.45 -1.05 -21.75 -2.6 Q-20.3 -3.15 -19.85 2.85 -19.4 6.85 -19.4 10.8 L-19.35 18.9 M-26.1 44.7 L-21.65 36.4 -17.1 28.2 -17.05 28.15 -16.1 26.4 Q-3.1 32.75 13.7 32.9 28.45 33.0 44.1 28.4 41.65 43.75 29.65 56.65 29.1 57.3 29.9 58.15 30.7 59.05 31.25 58.45 37.05 52.15 40.9 44.85 41.2 52.0 39.3 58.35 37.25 65.15 32.85 70.3 29.95 73.7 25.45 75.15 20.85 76.6 16.65 75.35 8.8 73.0 5.3 61.95 2.75 53.85 3.05 43.75 3.1 42.95 2.1 42.35 1.1 41.8 1.05 42.75 0.9 47.2 1.4 51.9 L1.2 52.1 -2.25 57.75 Q-2.75 57.85 -2.7 58.5 L-2.65 58.55 Q-4.05 61.25 -4.9 63.5 -5.2 64.25 -4.25 65.0 L-3.05 64.95 -1.75 61.85 Q-0.2 65.6 3.7 69.8 L10.6 76.45 Q6.65 81.3 2.5 83.9 -3.15 87.5 -7.85 85.95 L-11.4 83.5 Q-11.75 82.75 -12.5 82.65 -27.4 71.05 -29.1 57.45 -29.5 54.25 -28.6 50.85 -27.9 48.3 -26.1 44.7 M49.15 -18.75 Q42.6 -19.75 36.85 -18.7 29.95 -17.35 26.05 -13.25 L25.1 -15.1 Q27.55 -20.35 34.05 -22.3 39.5 -24.0 45.85 -22.95 L45.95 -22.95 46.4 -22.35 49.15 -18.75 M54.9 -7.75 Q48.5 -11.0 41.6 -12.05 34.1 -13.2 27.65 -11.5 31.55 -15.5 38.4 -16.7 44.1 -17.65 50.45 -16.5 L50.65 -16.5 Q53.6 -11.95 54.9 -7.75 M42.1 -9.9 Q49.1 -8.8 55.55 -5.4 56.95 1.45 53.2 6.25 39.7 -6.05 29.8 -4.9 L27.95 -9.2 Q34.45 -11.15 42.1 -9.9 M41.2 -0.25 Q42.15 7.35 36.75 16.0 L36.7 16.15 33.8 17.15 Q34.75 11.8 32.6 3.65 31.9 0.8 30.6 -2.8 35.4 -3.35 41.2 -0.4 L41.2 -0.25 M52.05 7.5 Q48.25 11.4 40.15 14.8 43.95 7.25 43.25 0.75 47.5 3.35 52.05 7.5 M58.3 43.65 Q58.7 47.55 57.4 51.35 56.05 55.1 53.3 57.9 L53.5 54.7 Q53.5 51.05 52.45 47.6 51.3 43.75 49.1 41.15 54.4 40.3 58.3 43.65 M44.75 42.45 L47.25 41.55 Q49.8 44.1 50.85 48.65 51.7 52.4 51.4 56.6 51.05 61.3 48.8 65.6 50.15 59.85 48.7 53.75 47.25 47.5 43.3 43.15 L44.75 42.45 M42.1 56.45 Q43.0 52.65 43.0 46.85 L42.85 45.25 Q44.85 47.9 46.0 51.15 49.55 60.55 44.2 71.65 42.85 72.85 41.5 73.7 35.45 77.7 26.75 77.0 29.95 76.2 31.6 74.9 33.45 73.45 35.9 70.25 40.3 64.5 42.1 56.45 M58.45 54.7 Q60.5 50.55 60.45 45.95 63.05 49.4 64.7 55.05 64.5 55.25 64.55 55.65 65.3 62.3 61.6 68.5 58.05 74.4 52.0 77.7 L51.85 77.85 Q49.2 77.35 47.35 76.35 45.85 75.6 44.75 74.35 L44.8 74.35 Q45.4 74.75 46.1 73.2 50.95 68.8 52.65 61.6 L52.7 61.55 Q56.4 58.95 58.45 54.7 M64.2 83.5 Q57.7 85.65 51.3 85.7 43.95 85.75 38.5 83.05 L38.3 83.0 Q37.2 80.85 36.65 78.55 L36.5 78.3 Q40.2 77.35 43.4 75.3 46.85 79.75 53.85 80.2 59.25 80.5 66.0 78.5 65.4 81.15 64.2 83.5 M62.55 71.3 Q65.35 67.2 66.25 62.55 67.2 69.75 66.45 75.95 60.3 78.05 55.8 78.1 59.8 75.25 62.55 71.3 M50.35 92.0 Q44.3 91.95 39.9 85.7 44.85 87.7 51.0 87.8 56.55 87.9 62.35 86.4 57.9 92.05 50.35 92.0 M7.45 86.75 Q3.05 92.95 -3.3 98.65 L-4.6 99.75 Q-5.35 99.55 -5.4 100.35 L-10.4 103.75 Q-13.3 105.25 -13.8 104.0 -14.5 102.2 -13.1 98.85 L-10.7 94.0 -7.35 88.1 Q-2.25 89.65 3.75 85.9 8.3 83.1 12.3 78.05 L14.3 79.95 Q15.25 80.85 14.75 82.15 L13.4 84.35 Q12.2 85.95 10.5 87.45 L8.55 86.55 Q7.85 86.3 7.45 86.75 M-11.35 85.65 L-9.4 87.0 -11.35 90.3 -11.35 85.65 M-11.4 110.9 L-11.35 106.5 Q-9.0 106.1 -5.3 103.35 L-4.75 109.7 Q-4.6 111.75 -6.1 114.35 -7.8 117.3 -9.75 115.95 -11.0 115.05 -11.3 113.7 L-11.4 110.9" fill="#ffffff" fill-rule="evenodd" stroke="none"/>
  </g>
</svg>
