<?xml version="1.0" encoding="UTF-8" standalone="no"?>
<svg xmlns:ffdec="https://www.free-decompiler.com/flash" xmlns:xlink="http://www.w3.org/1999/xlink" ffdec:objectType="shape" height="160.95px" width="101.85px" xmlns="http://www.w3.org/2000/svg">
  <g transform="matrix(1.0, 0.0, 0.0, 1.0, 43.8, 48.0)">
    <path d="M41.15 -35.55 L46.3 -28.1 Q40.1 -28.85 34.8 -27.25 28.6 -25.3 25.85 -20.55 22.35 -26.45 20.85 -29.55 18.25 -34.8 18.0 -39.3 17.85 -41.3 18.3 -43.15 18.8 -45.35 19.95 -46.6 L20.15 -46.95 Q23.95 -48.85 28.4 -47.35 32.25 -46.05 35.5 -42.65 38.05 -39.95 41.15 -35.55 M-9.55 -43.3 Q-5.5 -26.35 2.5 -12.1 L2.55 -12.1 Q4.25 -9.05 6.1 -6.2 2.7 -4.35 0.1 -2.35 -3.3 -8.35 -6.1 -15.9 L-6.1 -16.05 Q-6.1 -16.5 -6.5 -17.0 -11.4 -30.6 -11.85 -44.65 L-9.55 -43.3 M-13.9 -46.1 Q-13.6 -31.2 -8.15 -16.25 -8.6 -8.1 -9.7 -0.6 L-10.35 3.75 Q-10.85 6.35 -11.75 7.9 -12.45 9.1 -15.45 8.3 -17.5 7.75 -20.15 6.45 -17.55 -9.3 -15.55 -31.0 -15.45 -31.8 -16.45 -32.35 -17.45 -32.95 -17.55 -32.0 -18.6 -21.0 -19.6 -13.1 -20.05 -13.65 -20.5 -13.65 -23.0 -13.9 -24.75 -17.6 -27.0 -22.3 -28.0 -23.15 -29.35 -24.3 -31.35 -23.95 -30.65 -24.65 -29.8 -24.8 -28.05 -25.1 -24.85 -24.9 L-19.85 -24.75 Q-18.9 -24.8 -19.35 -25.85 -19.8 -26.9 -20.6 -26.85 L-22.4 -26.85 Q-22.75 -32.8 -21.45 -38.2 -19.6 -45.6 -15.1 -47.1 L-13.9 -46.1 M0.8 -36.55 Q4.0 -36.25 7.35 -37.15 10.75 -38.1 13.4 -40.05 12.9 -38.05 12.75 -35.6 11.85 -34.2 10.0 -33.4 9.0 -32.95 6.8 -32.4 4.3 -31.85 3.7 -31.1 2.65 -29.65 2.55 -15.65 -3.35 -26.9 -6.8 -40.05 -4.05 -36.95 0.8 -36.55 M7.25 -30.45 Q11.1 -31.4 12.7 -32.6 12.8 -26.5 15.2 -18.15 L17.15 -11.3 Q10.95 -8.8 7.6 -7.05 6.1 -9.3 4.5 -12.1 4.5 -18.2 4.75 -23.55 4.95 -29.1 5.3 -29.85 L7.25 -30.45 M16.25 -20.65 Q13.4 -32.2 15.8 -40.05 16.2 -33.8 20.7 -26.15 27.8 -13.95 31.15 -4.6 33.15 1.0 33.85 5.1 34.7 10.65 33.5 15.0 L24.5 17.15 18.9 18.1 Q21.45 14.55 21.9 8.55 22.25 3.9 21.35 -1.45 L19.0 -11.0 16.25 -20.65 M1.55 -0.4 L2.6 1.4 Q2.6 2.05 3.1 2.55 4.3 5.75 4.05 9.4 3.8 12.85 2.3 16.1 L2.25 16.35 Q0.55 15.6 -0.85 14.45 -5.3 11.05 -3.95 6.7 -2.9 3.25 1.55 -0.4 M-6.5 7.45 Q-6.65 11.5 -2.9 15.05 0.15 17.9 4.6 19.45 8.85 20.9 15.95 20.45 L16.65 20.4 16.9 20.4 Q24.55 19.85 33.3 17.4 L37.2 16.3 36.15 23.15 Q22.75 29.6 6.45 29.2 -9.35 28.75 -23.15 22.05 L-20.45 8.35 Q-17.65 9.65 -15.75 10.15 L-10.95 10.3 Q-9.7 10.0 -8.95 7.4 L-8.25 3.7 Q-7.05 -2.5 -6.4 -11.7 -3.9 -5.95 -1.25 -1.3 L-1.25 -1.25 Q-6.3 2.95 -6.5 7.45 M2.9 -1.4 L4.75 -2.7 Q9.65 -5.8 17.8 -9.05 19.65 -2.1 19.9 2.95 20.4 12.25 16.8 16.85 16.15 11.2 13.0 7.0 9.6 2.4 4.35 1.05 L2.9 -1.4 M6.05 10.3 Q6.3 6.65 5.25 3.3 9.85 4.8 12.45 9.2 14.8 13.25 14.9 18.45 8.9 18.8 4.3 17.2 5.8 13.9 6.05 10.3 M-25.85 -16.2 Q-24.0 -11.95 -19.8 -11.55 L-20.15 -8.95 Q-21.35 -9.75 -22.7 -9.65 -24.05 -9.5 -25.3 -8.55 -29.7 -7.95 -32.15 -11.0 -34.5 -13.95 -33.6 -18.35 L-33.0 -20.85 Q-32.7 -20.75 -32.45 -21.0 -31.45 -21.8 -30.0 -21.95 -28.55 -22.05 -27.35 -19.75 L-25.85 -16.2 M-21.25 -7.5 L-20.75 -7.25 -20.4 -7.0 -22.3 5.65 -23.6 -6.8 Q-22.4 -7.8 -21.25 -7.5 M-23.7 24.6 L-23.55 23.85 Q-9.9 30.55 5.85 31.25 22.0 31.95 35.55 26.0 31.1 45.25 20.55 55.75 19.95 56.35 20.75 57.25 21.55 58.15 22.1 57.55 24.7 55.0 26.95 51.85 25.9 59.65 22.6 65.7 20.65 69.35 17.05 71.75 13.45 74.2 9.5 74.55 9.1 74.35 8.9 74.55 4.5 74.7 0.95 71.9 -2.7 68.95 -4.35 62.85 -5.45 58.75 -5.8 52.25 -6.1 45.5 -5.35 39.7 -5.25 38.9 -6.2 38.3 -7.2 37.7 -7.35 38.65 -8.25 45.65 -7.7 53.65 -7.05 62.6 -4.05 68.15 -6.3 81.4 -7.1 92.15 L-7.15 96.0 -7.2 100.05 -7.3 100.05 Q-13.25 102.6 -19.2 102.65 -26.1 102.75 -30.7 99.2 -32.25 97.9 -32.65 96.1 L-32.8 92.3 -32.55 83.15 Q-32.0 74.45 -30.6 63.6 -28.1 43.8 -23.7 24.6 M57.65 -8.35 Q59.05 -1.45 55.3 3.35 41.85 -9.05 31.9 -7.8 L30.05 -12.1 Q36.55 -14.05 44.2 -12.85 51.2 -11.75 57.65 -8.35 M51.3 -21.65 Q44.7 -22.65 38.95 -21.6 32.05 -20.25 28.15 -16.15 L27.2 -18.0 Q29.65 -23.25 36.15 -25.2 41.6 -26.9 47.95 -25.85 L48.05 -25.85 51.3 -21.65 M43.7 -14.95 Q36.2 -16.1 29.75 -14.4 33.65 -18.4 40.5 -19.6 46.25 -20.6 52.55 -19.4 L52.8 -19.4 Q55.7 -14.8 57.05 -10.65 50.6 -13.9 43.7 -14.95 M35.9 14.25 Q36.85 8.9 34.7 0.7 L32.7 -5.7 Q37.5 -6.25 43.3 -3.3 L43.3 -3.15 Q44.3 4.35 38.85 13.1 L38.8 13.25 38.1 13.5 Q37.75 13.4 37.55 13.7 L35.9 14.25 M54.15 4.6 Q50.35 8.5 42.25 11.9 46.05 4.35 45.35 -2.15 49.6 0.45 54.15 4.6 M40.6 43.95 Q42.55 46.55 42.6 50.9 42.65 53.9 41.7 58.25 39.65 67.65 34.8 71.9 32.8 73.7 30.2 74.75 35.6 68.3 36.7 60.05 37.8 51.7 34.1 44.05 37.55 43.8 40.6 43.95 M32.2 44.15 Q36.3 52.25 34.35 61.2 32.45 70.0 25.6 76.1 20.2 77.05 14.2 75.8 19.85 73.9 23.2 69.15 26.0 65.25 27.6 59.8 29.0 54.85 29.25 49.5 L29.0 48.8 31.55 44.2 32.2 44.15 M42.4 65.35 Q46.2 62.8 48.95 59.5 52.1 55.7 53.0 51.7 L53.9 54.05 Q55.05 57.75 55.3 62.0 53.35 67.5 49.0 72.1 44.75 76.6 39.35 79.15 L39.3 79.2 Q34.4 78.95 31.05 76.9 34.9 75.4 37.5 72.65 40.0 70.0 41.8 65.5 L42.4 65.35 M48.5 56.1 Q46.4 59.25 43.0 61.95 L44.1 57.05 Q45.55 49.0 42.75 44.15 L44.4 44.35 Q48.55 45.05 51.3 48.7 50.95 52.45 48.5 56.1 M55.15 70.0 Q54.8 73.7 54.25 76.1 L54.05 76.15 Q49.2 78.15 44.7 78.8 51.55 74.25 55.3 67.55 L55.15 70.0 M51.3 84.35 Q45.05 87.6 38.3 88.15 30.95 88.7 25.05 85.8 22.85 82.35 22.05 78.6 L26.65 78.15 29.05 77.6 Q33.65 81.3 40.95 81.25 46.95 81.25 53.55 78.85 52.7 81.75 51.3 84.35 M27.3 88.8 Q32.25 90.55 37.95 90.3 43.4 90.1 48.6 88.1 45.25 91.85 40.8 93.6 38.3 94.55 34.95 93.55 32.1 92.7 29.55 90.85 28.45 90.0 27.3 88.8 M11.15 94.9 L12.65 101.7 Q12.95 103.0 9.6 104.05 L7.1 103.9 Q3.0 85.5 0.95 74.05 3.8 76.15 7.35 76.55 8.25 81.7 11.15 94.9 M-17.5 107.0 Q-31.4 114.3 -40.15 112.65 -41.65 112.45 -43.0 111.55 L-43.8 110.95 -43.4 110.15 Q-42.75 109.1 -41.35 107.95 L-38.9 106.2 Q-35.5 103.75 -30.85 101.2 -26.1 104.5 -19.45 104.75 -13.55 104.95 -7.55 102.7 -8.25 105.4 -9.8 107.05 -11.25 108.5 -14.2 109.15 L-15.8 109.5 -15.65 109.4 -15.9 108.25 Q-16.0 107.7 -16.45 107.25 -17.0 106.75 -17.5 107.0" fill="#ffffff" fill-rule="evenodd" stroke="none"/>
  </g>
</svg>
