<?xml version="1.0" encoding="UTF-8" standalone="no"?>
<svg xmlns:ffdec="https://www.free-decompiler.com/flash" xmlns:xlink="http://www.w3.org/1999/xlink" ffdec:objectType="shape" height="165.75px" width="103.1px" xmlns="http://www.w3.org/2000/svg">
  <g transform="matrix(1.0, 0.0, 0.0, 1.0, 33.55, 46.85)">
    <path d="M42.25 -34.4 L47.45 -26.95 Q41.2 -27.7 35.95 -26.1 29.75 -24.15 26.95 -19.4 23.45 -25.3 21.95 -28.4 19.35 -33.65 19.1 -38.15 18.95 -40.15 19.4 -42.0 19.9 -44.2 21.05 -45.45 L21.25 -45.8 Q25.05 -47.7 29.5 -46.2 33.35 -44.9 36.6 -41.5 39.15 -38.85 42.25 -34.4 M-0.35 -36.7 Q3.95 -36.1 8.4 -37.6 12.95 -39.15 15.7 -42.35 14.15 -38.9 13.85 -34.45 12.95 -33.05 11.15 -32.25 10.15 -31.8 7.95 -31.25 5.4 -30.7 4.85 -29.95 3.75 -28.5 3.65 -14.5 -2.25 -25.85 -5.65 -38.7 -3.4 -37.15 -0.35 -36.7 M-8.2 -41.4 Q-4.1 -24.6 3.6 -10.95 L3.65 -10.95 7.2 -5.05 Q3.75 -3.15 1.25 -1.2 -3.95 -10.45 -6.55 -21.2 -9.25 -32.05 -8.85 -42.55 L-8.2 -41.4 M-15.1 -28.25 L-14.9 -26.75 -20.1 -27.5 -20.05 -27.7 Q-20.3 -33.4 -19.1 -38.0 -17.5 -44.2 -13.65 -46.2 L-13.55 -46.25 -10.85 -44.4 Q-11.6 -29.65 -6.6 -14.65 L-6.7 -14.2 Q-6.8 -8.15 -7.3 -2.35 -7.65 2.5 -8.4 5.8 -8.75 7.35 -9.25 8.35 -9.6 9.0 -10.7 9.1 L-12.6 8.9 -12.4 3.0 -12.05 -10.9 Q-11.8 -11.3 -12.05 -11.85 -12.05 -20.85 -13.1 -27.7 -13.2 -28.55 -14.25 -28.95 -15.3 -29.3 -15.1 -28.25 M8.4 -29.3 L11.05 -30.05 Q12.65 -30.6 13.8 -31.45 13.9 -25.35 16.3 -17.0 L18.25 -10.15 Q12.05 -7.65 8.7 -5.9 L5.6 -10.95 Q5.6 -17.05 5.85 -22.4 6.05 -27.95 6.4 -28.7 L8.4 -29.3 M17.4 -19.5 Q14.55 -31.05 16.9 -38.9 17.3 -32.65 21.8 -25.0 28.85 -12.85 32.3 -3.45 34.3 2.2 34.95 6.25 35.8 11.8 34.6 16.15 L25.6 18.3 20.0 19.25 Q22.55 15.7 23.0 9.7 23.35 5.05 22.45 -0.3 L20.1 -9.85 17.4 -19.5 M-14.05 -7.85 L-19.2 -8.8 Q-19.8 -9.9 -21.15 -10.9 -22.45 -11.85 -23.4 -11.95 -25.45 -12.15 -27.1 -10.35 -32.3 -10.65 -33.35 -15.85 -34.35 -20.85 -30.65 -24.2 L-30.5 -24.35 Q-27.35 -25.7 -26.15 -21.65 -25.5 -19.4 -24.6 -15.0 -23.55 -12.75 -20.15 -11.55 -17.4 -10.6 -14.05 -10.6 L-14.05 -7.85 M-14.05 -12.75 Q-16.55 -12.7 -20.95 -14.1 -22.95 -14.7 -23.7 -17.75 -24.15 -21.3 -24.5 -22.7 -24.95 -24.45 -26.25 -25.6 -27.5 -26.7 -29.2 -26.8 L-29.05 -27.05 Q-28.45 -27.85 -26.95 -27.35 L-24.75 -26.45 -19.75 -25.3 -14.65 -24.65 Q-14.05 -19.45 -14.05 -12.75 M-0.15 -0.1 Q-5.15 4.05 -5.4 8.6 -5.55 12.65 -1.8 16.2 1.25 19.05 5.7 20.6 9.95 22.05 17.05 21.6 L17.75 21.55 18.0 21.55 Q25.65 21.0 34.4 18.55 40.5 16.95 44.95 15.1 45.65 17.7 45.75 21.35 32.45 27.9 16.6 28.85 0.7 29.8 -13.3 24.85 L-12.7 10.85 -9.9 11.25 Q-8.4 11.1 -7.7 10.15 -6.75 8.95 -6.25 6.6 L-5.7 2.75 Q-5.0 -2.35 -4.75 -9.75 -2.6 -4.45 -0.15 -0.15 L-0.15 -0.1 M-14.7 10.4 Q-17.75 8.2 -21.5 8.05 L-20.9 4.25 -19.0 -6.75 -14.1 -5.85 -14.65 8.45 Q-15.1 8.9 -14.7 9.65 L-14.7 10.4 M-2.85 7.85 Q-1.8 4.4 2.7 0.75 L3.7 2.55 Q3.7 3.2 4.2 3.7 5.4 6.9 5.15 10.55 4.9 14.0 3.4 17.25 L3.35 17.5 0.25 15.6 Q-4.2 12.2 -2.85 7.85 M4.0 -0.25 L5.85 -1.55 Q10.95 -4.7 18.9 -7.9 20.75 -0.95 21.0 4.1 21.5 13.4 17.9 18.0 17.25 12.35 14.1 8.15 10.7 3.55 5.45 2.2 L4.0 -0.25 M7.15 11.45 Q7.4 7.8 6.35 4.45 10.95 5.95 13.55 10.35 15.95 14.4 16.05 19.6 10.0 19.95 5.4 18.35 6.9 15.05 7.15 11.45 M-21.6 -4.55 L-24.25 12.1 -25.4 21.1 Q-25.85 26.2 -25.6 30.25 -25.3 34.85 -23.45 39.95 -22.05 43.8 -19.25 49.05 -18.75 50.0 -17.9 49.75 -17.05 49.55 -17.6 48.5 L-18.4 46.95 -16.5 45.6 -17.4 62.85 Q-17.9 62.85 -18.05 63.4 -20.15 73.3 -22.55 87.55 L-26.55 111.85 Q-26.75 113.05 -28.25 113.4 L-30.9 113.3 -32.35 112.45 -32.15 110.9 Q-31.3 105.2 -28.45 89.85 -26.45 79.15 -25.55 73.0 -24.15 63.55 -23.8 55.95 -23.65 53.65 -24.95 50.9 L-27.3 46.2 Q-29.45 41.4 -29.9 35.25 -30.2 30.55 -29.55 23.9 -28.45 13.05 -25.55 -8.55 L-24.2 -9.6 -22.15 -9.5 Q-20.8 -8.95 -20.95 -8.2 L-21.6 -4.55 M-21.8 10.1 L-21.65 10.15 Q-17.85 10.0 -14.8 12.5 L-15.35 24.2 -15.5 24.15 -15.9 23.8 Q-18.2 22.35 -19.1 19.75 -20.0 17.15 -19.15 14.75 -18.9 14.0 -19.8 13.25 L-21.0 13.3 Q-22.1 16.6 -21.0 19.8 -21.8 20.55 -23.2 20.55 L-21.8 10.1 M-19.9 22.0 Q-18.75 23.9 -16.8 25.25 -17.65 26.55 -18.85 27.45 -19.9 28.2 -21.4 27.85 -23.0 27.5 -23.35 26.35 L-23.6 25.85 -23.4 22.6 Q-21.25 22.85 -19.9 22.0 M4.65 43.2 Q3.7 42.65 3.5 43.6 2.0 52.25 3.4 59.95 5.1 69.0 10.65 74.2 L10.95 74.45 Q9.75 80.3 9.35 88.3 L8.9 102.25 8.95 105.1 Q0.75 108.8 -7.15 107.4 -9.6 106.95 -11.75 106.1 L-13.45 105.25 -13.5 105.4 -13.8 105.15 -15.25 104.35 Q-15.85 98.7 -15.95 87.3 -16.0 77.9 -15.5 66.0 L-14.4 44.7 -13.45 26.8 Q0.5 31.85 16.5 31.05 32.35 30.25 45.8 23.9 L45.8 24.1 Q45.75 39.5 34.75 58.0 34.35 58.75 35.25 59.5 L36.6 59.45 38.7 55.8 Q39.05 61.9 36.95 67.05 34.65 72.55 29.9 76.05 28.4 77.15 25.3 77.15 L20.35 76.7 Q14.5 75.9 10.7 71.95 6.3 67.3 5.15 59.0 4.2 52.2 5.5 44.6 5.65 43.8 4.65 43.2 M58.75 -7.15 Q60.15 -0.3 56.4 4.5 43.0 -7.9 33.0 -6.65 L31.2 -10.95 Q37.65 -12.9 45.3 -11.65 52.3 -10.55 58.75 -7.15 M52.4 -20.5 Q45.8 -21.5 40.05 -20.45 33.15 -19.1 29.25 -15.0 L28.3 -16.85 Q30.75 -22.1 37.25 -24.05 42.7 -25.75 49.05 -24.7 L49.15 -24.7 52.4 -20.5 M53.9 -18.25 Q56.8 -13.65 58.15 -9.5 51.7 -12.75 44.8 -13.8 37.3 -14.95 30.85 -13.25 34.75 -17.25 41.6 -18.45 47.35 -19.45 53.65 -18.25 L53.9 -18.25 M37.0 15.4 Q37.95 10.05 35.8 1.85 34.9 -1.65 33.8 -4.55 38.65 -5.1 44.4 -2.15 L44.4 -2.0 Q45.4 5.6 40.0 14.25 L39.9 14.4 37.0 15.4 M45.0 11.4 L44.15 11.3 Q47.05 4.7 46.45 -1.0 50.6 1.5 55.3 5.75 51.9 9.15 45.75 12.0 L45.0 11.4 M43.35 13.05 L43.9 11.9 44.15 12.7 43.35 13.05 M49.4 45.2 Q52.1 47.0 53.7 50.55 55.05 53.65 55.25 57.45 L55.3 57.7 55.2 61.0 Q54.6 67.25 50.1 72.2 46.2 76.5 39.9 79.3 51.25 68.95 50.25 57.2 49.7 50.95 46.2 46.2 48.0 45.55 49.4 45.2 M55.45 44.6 Q60.55 44.85 63.55 49.1 61.55 53.45 57.1 56.1 56.1 48.95 51.6 44.8 L55.45 44.6 M42.65 47.6 L43.35 47.5 44.6 46.85 Q47.6 50.85 48.2 56.7 48.95 63.65 44.6 70.35 41.05 75.75 34.5 80.7 29.9 81.05 27.0 79.2 29.8 79.05 31.3 78.0 37.0 74.0 39.4 67.0 41.55 60.55 40.4 53.25 L40.25 52.85 42.65 47.6 M57.35 58.65 Q62.45 56.0 64.95 51.45 L66.75 55.55 66.65 55.8 Q65.95 62.85 60.8 69.35 56.15 75.2 49.4 78.9 L49.35 78.95 45.65 78.95 Q50.7 75.8 53.65 71.45 56.9 66.7 57.3 60.9 L57.35 58.65 M69.55 69.95 Q63.6 75.8 55.15 78.0 59.95 74.5 63.2 70.05 66.8 65.2 68.1 59.95 69.35 65.0 69.55 69.95 M69.1 78.6 Q63.05 84.1 55.85 86.1 47.55 88.35 40.9 84.9 L39.6 81.95 42.65 80.65 50.2 81.0 50.3 81.0 Q55.6 80.6 60.6 78.6 65.6 76.6 69.55 73.2 L69.1 78.6 M63.45 90.15 Q60.0 93.4 54.95 93.95 51.3 94.35 47.95 92.5 45.0 90.9 42.6 87.7 48.75 90.05 55.95 88.35 62.35 86.85 68.2 82.45 66.6 87.25 63.45 90.15 M1.4 113.6 L0.8 112.8 Q0.25 112.4 -0.15 112.6 -6.3 115.85 -11.05 117.35 -17.65 119.45 -22.7 118.75 L-25.45 117.95 Q-27.05 117.1 -26.45 115.8 L-25.8 114.85 Q-25.0 114.4 -24.75 113.95 L-24.7 113.7 -21.95 111.75 Q-18.4 109.4 -13.85 107.35 -8.95 109.8 -3.0 109.8 3.0 109.8 9.15 107.2 L9.75 111.1 Q9.85 111.7 5.8 113.8 4.05 114.65 1.9 115.15 L1.4 113.6" fill="#ffffff" fill-rule="evenodd" stroke="none"/>
  </g>
</svg>
