<?xml version="1.0" encoding="UTF-8" standalone="no"?>
<svg xmlns:ffdec="https://www.free-decompiler.com/flash" xmlns:xlink="http://www.w3.org/1999/xlink" ffdec:objectType="shape" height="168.65px" width="115.15px" xmlns="http://www.w3.org/2000/svg">
  <g transform="matrix(1.0, 0.0, 0.0, 1.0, 32.0, 48.0)">
    <path d="M27.35 -47.4 Q29.2 -48.05 31.1 -48.0 39.8 -47.8 47.6 -35.4 54.25 -24.75 55.95 -10.55 57.15 -0.75 51.2 9.5 48.0 14.95 43.2 19.35 L42.65 19.95 42.05 19.85 Q38.4 20.0 34.7 19.0 32.1 18.3 30.1 16.3 28.6 14.85 26.8 11.95 L26.15 10.65 26.55 10.15 26.65 9.5 Q30.7 5.7 32.0 0.4 L32.1 -0.1 32.3 -1.0 32.45 -3.95 32.2 -6.25 Q31.25 -11.85 27.05 -18.5 25.0 -22.05 23.3 -21.85 22.75 -21.8 22.7 -21.3 22.65 -20.85 22.95 -20.4 L18.6 -20.5 14.8 -20.95 11.05 -21.6 Q9.1 -21.8 8.1 -19.95 L7.2 -26.55 10.35 -27.45 Q16.4 -29.4 19.95 -32.95 24.2 -37.25 23.7 -43.0 L23.65 -43.2 24.15 -45.55 Q25.45 -46.75 27.35 -47.4 M14.25 -34.3 Q18.45 -35.9 21.1 -38.85 19.6 -34.75 14.75 -31.85 10.65 -29.45 5.5 -28.5 5.0 -28.35 5.1 -27.7 L6.5 -17.2 6.65 -16.85 5.95 -15.8 Q4.1 -12.6 4.75 -8.9 5.4 -5.35 8.0 -3.0 8.05 1.55 8.4 5.45 8.95 11.35 9.9 12.6 10.95 13.9 12.4 13.9 L13.7 13.65 13.65 26.0 Q9.15 26.85 4.05 26.2 -0.75 25.65 -5.4 23.85 L-5.7 23.6 Q-4.45 19.5 -4.2 14.0 L-4.15 12.6 -0.5 13.05 Q1.7 13.05 2.55 11.95 4.0 9.95 2.05 6.25 1.05 4.3 0.3 1.1 L-0.75 -4.2 Q-1.7 -8.75 -2.4 -15.15 -3.25 -22.35 -3.4 -29.25 -3.45 -30.5 -4.75 -31.9 L-6.7 -34.4 Q-7.25 -35.75 -7.0 -37.4 -6.75 -38.95 -5.85 -40.2 L-5.75 -40.55 Q-4.85 -39.95 -3.2 -39.25 -2.05 -36.4 0.55 -34.8 2.9 -33.35 6.15 -33.05 10.2 -32.75 14.25 -34.3 M12.65 -19.35 L15.0 -18.65 20.1 -18.2 25.25 -18.2 25.45 -17.9 Q29.2 -12.15 30.2 -6.45 25.3 -5.8 19.1 -7.2 17.35 -7.6 16.45 -10.7 15.65 -14.2 15.1 -15.3 14.3 -17.0 12.95 -17.9 11.65 -18.75 10.05 -18.7 L10.4 -19.2 12.65 -19.35 M9.1 -16.05 Q12.05 -17.8 13.85 -13.6 L16.45 -7.0 Q17.45 -5.65 19.7 -5.05 L23.5 -4.45 30.45 -4.25 30.25 -1.55 21.9 -2.0 Q20.8 -3.7 18.9 -4.4 L16.2 -4.3 Q15.0 -3.85 14.15 -2.6 9.0 -2.4 7.2 -7.3 5.5 -12.2 8.95 -15.95 L9.05 -16.05 9.1 -16.05 M19.45 -2.2 Q20.55 -1.7 20.5 -1.0 L20.25 4.5 Q19.75 14.25 19.65 23.95 19.55 37.0 21.9 44.95 22.55 47.2 25.95 53.35 28.8 58.4 28.95 61.9 28.95 62.75 29.95 63.15 31.0 63.5 30.95 62.4 30.8 59.25 29.55 56.6 L29.6 56.5 Q35.1 49.8 36.2 44.45 37.1 40.05 36.5 34.0 L39.75 33.45 40.8 32.95 Q41.05 38.5 40.6 42.4 40.0 47.45 38.1 51.4 L34.2 58.95 Q32.2 63.3 31.95 67.05 31.4 74.55 30.95 84.85 L29.35 118.05 29.3 119.05 28.7 119.7 Q27.6 120.6 26.15 120.65 24.75 120.65 23.55 119.9 L23.6 119.2 Q23.7 113.05 24.65 97.85 25.75 81.6 25.45 66.45 25.35 62.5 25.1 61.45 25.3 61.0 24.85 60.4 L24.3 59.1 21.6 54.9 Q19.85 52.25 19.05 50.5 16.35 44.5 15.8 35.6 L15.7 20.25 15.85 -0.95 Q16.45 -1.95 17.55 -2.4 L19.45 -2.2 M13.8 -0.5 L13.7 11.95 Q12.0 12.0 11.45 11.35 10.95 10.7 10.55 6.75 10.15 3.1 10.05 -1.55 11.95 -0.55 13.8 -0.5 M48.85 16.85 Q52.35 26.9 54.9 42.7 L55.8 49.1 55.85 50.7 Q55.9 51.85 56.1 52.45 55.45 54.2 51.9 56.85 48.25 59.5 43.85 61.15 39.25 62.9 34.85 63.2 35.7 60.6 38.0 56.35 40.6 51.65 41.4 49.6 42.8 46.0 43.0 40.55 L42.7 31.25 Q45.0 28.1 44.8 21.4 L46.75 19.4 48.25 17.55 48.85 16.85 M24.0 8.65 L23.85 8.9 Q22.85 9.25 22.05 9.9 L22.5 0.1 29.75 0.5 Q28.1 5.6 24.0 8.65 M21.85 14.9 L22.2 14.4 Q22.35 12.3 24.35 11.2 25.3 13.55 27.2 15.85 29.05 18.15 30.95 19.3 35.65 22.2 42.8 22.0 42.8 29.8 38.35 31.5 L35.75 31.9 35.5 31.75 Q36.4 29.85 36.85 27.6 37.05 26.8 36.05 26.2 35.05 25.65 34.85 26.6 33.55 32.85 29.95 33.05 L28.1 32.8 Q30.05 30.75 30.7 27.75 30.9 26.95 29.95 26.35 28.95 25.75 28.7 26.7 27.65 31.4 24.2 32.65 L21.75 33.05 21.65 29.65 21.75 29.55 Q23.9 26.65 24.65 24.7 25.8 21.7 24.65 19.3 23.8 17.65 21.8 16.9 L21.85 14.9 M14.3 39.3 Q15.05 45.25 16.95 49.95 16.4 49.4 15.85 49.6 3.7 54.75 -7.15 54.9 L-11.35 54.65 Q-12.6 51.45 -13.65 46.55 -14.1 44.4 -13.5 41.9 -13.15 40.25 -12.05 37.35 -10.45 33.4 -8.25 29.2 L-8.2 29.15 -6.85 26.65 -6.2 25.5 Q4.05 29.65 13.7 28.25 13.75 34.85 14.3 39.3 M34.1 33.65 L34.5 33.75 Q34.9 38.05 34.45 42.0 33.85 47.45 28.3 54.35 L28.15 54.1 Q24.65 48.3 23.35 43.5 22.35 39.55 21.95 35.1 24.45 35.4 26.55 34.1 28.5 35.2 30.65 35.2 32.7 35.15 34.1 33.65 M21.6 25.55 Q21.6 22.15 21.75 18.85 24.85 20.0 21.6 25.55 M22.95 60.4 Q18.5 66.0 6.3 68.7 L5.9 68.25 Q-2.85 63.05 -5.3 57.2 4.1 57.0 17.0 51.65 L17.45 51.1 19.05 54.25 21.15 57.2 Q22.5 59.1 22.95 60.4 M23.5 71.45 L23.1 71.5 Q19.15 73.25 15.1 74.6 L14.7 74.7 Q5.8 77.55 -2.1 77.15 -7.6 76.85 -10.5 75.2 L-11.8 75.05 -12.2 75.15 -13.1 72.35 -14.05 68.5 Q-9.7 72.7 2.1 71.6 8.2 71.0 13.35 69.25 19.75 67.05 23.4 63.45 L23.5 71.45 M33.95 67.55 L34.3 65.4 38.3 65.0 38.45 65.1 Q55.7 73.3 69.35 75.2 L70.4 78.7 71.05 81.55 71.8 84.4 Q66.45 81.9 56.85 79.7 L56.4 79.6 44.8 76.9 Q38.3 75.15 33.65 72.7 L33.95 67.55 M38.55 76.9 Q35.65 78.35 33.15 81.5 L33.5 74.65 Q35.95 76.0 38.55 76.9 M22.75 93.45 Q18.95 86.45 8.45 83.25 0.45 80.8 -9.75 80.95 L-11.65 76.65 -10.8 77.05 Q-7.85 78.75 -1.9 79.25 6.15 79.85 15.7 76.85 21.3 79.8 22.55 84.4 L23.15 85.2 22.75 93.45 M32.9 86.95 L32.95 86.05 Q36.35 79.9 41.25 78.35 L41.65 78.0 Q46.35 79.45 53.6 80.95 40.7 87.9 37.35 96.75 34.95 91.95 32.9 86.95 M21.8 95.6 Q16.65 101.65 9.65 105.95 8.0 99.9 4.5 95.7 0.65 91.2 -5.05 89.3 -9.85 87.65 -15.0 88.05 L-9.6 83.05 Q-3.4 83.0 3.35 84.25 18.55 87.05 21.8 95.6 M17.95 76.1 L23.5 73.9 23.3 81.65 Q21.5 78.5 17.95 76.1 M68.65 73.1 Q61.4 72.0 53.0 69.15 L58.0 65.1 62.55 60.55 Q66.1 65.75 68.65 73.1 M57.65 54.45 L61.1 58.6 56.05 63.7 Q53.05 66.45 50.35 68.0 L50.2 68.15 41.2 64.4 Q47.75 62.7 53.45 58.65 56.45 56.65 57.65 54.45 M57.35 81.75 Q67.45 84.1 73.2 87.05 L73.95 87.15 76.15 89.25 Q71.3 89.55 66.05 92.5 61.55 94.95 57.6 98.85 54.55 101.8 52.65 105.3 50.4 109.3 50.2 113.05 L47.0 110.35 Q47.25 102.75 49.95 95.25 52.65 87.6 57.35 81.75 M47.4 95.8 Q45.45 102.0 45.05 108.35 41.75 104.75 38.8 99.45 L38.8 99.4 Q41.05 90.9 52.85 84.1 49.45 89.45 47.4 95.8 M80.55 94.7 Q83.0 98.55 83.15 102.15 L82.4 101.55 Q80.95 100.65 78.7 101.2 L74.95 102.45 Q62.9 106.2 61.5 117.0 56.5 116.8 52.15 114.3 L52.2 114.25 Q52.15 110.75 54.65 106.55 56.65 103.1 59.85 99.95 63.6 96.3 68.15 94.0 73.4 91.3 78.0 91.35 L80.55 94.7 M73.2 105.55 L78.65 103.7 Q80.4 103.1 81.35 103.35 82.55 103.65 82.85 105.15 82.5 106.7 81.5 108.3 79.1 112.05 73.8 114.45 69.15 116.6 64.15 116.95 L63.65 117.0 Q65.15 108.95 73.2 105.55 M5.75 108.1 Q4.45 104.4 0.45 101.4 -2.85 99.0 -7.3 97.45 -7.9 97.3 -8.05 97.6 -13.8 94.5 -20.8 94.75 -19.3 92.7 -17.2 90.35 L-16.65 90.45 -11.8 90.15 -6.65 90.8 Q-0.8 92.15 3.05 96.6 6.6 100.7 7.95 106.85 L8.0 106.9 5.75 108.1 M-7.75 -41.65 Q-9.25 -39.5 -9.05 -36.6 -8.85 -33.85 -7.15 -31.75 L-6.2 -30.7 Q-5.45 -30.0 -5.45 -30.25 L-5.4 -28.9 -5.1 -22.95 Q-4.4 -12.9 -2.6 -3.85 -1.65 1.15 -0.15 5.5 0.1 6.35 0.9 7.9 2.45 11.65 -4.3 10.55 -4.55 7.85 -5.7 3.95 L-7.6 -2.6 Q-11.2 -16.6 -12.65 -31.15 -12.75 -32.0 -13.8 -32.35 -14.8 -32.7 -14.7 -31.65 L-14.0 -25.95 -17.9 -26.35 Q-18.1 -32.05 -16.95 -36.5 -15.35 -42.65 -11.5 -44.6 L-11.3 -44.75 Q-9.75 -43.2 -7.65 -41.75 L-7.75 -41.65 M-23.05 -24.95 Q-21.2 -24.4 -18.45 -24.15 L-13.7 -23.85 -11.5 -11.5 -15.35 -11.9 -19.15 -12.95 Q-21.25 -13.55 -22.1 -16.45 -22.7 -19.95 -23.15 -21.35 -23.65 -23.1 -25.0 -24.2 -26.35 -25.25 -28.0 -25.3 L-27.6 -25.85 -25.35 -25.8 -23.05 -24.95 M-29.2 -22.75 Q-26.05 -24.25 -24.7 -20.0 L-23.75 -16.3 Q-23.2 -14.1 -22.6 -13.25 -21.7 -12.05 -20.05 -11.35 L-16.95 -10.35 -14.05 -9.6 -11.05 -9.35 -10.45 -6.45 -17.35 -7.75 Q-18.4 -9.6 -20.65 -10.5 -21.85 -11.0 -23.1 -10.5 -24.25 -10.05 -25.15 -8.95 -30.35 -9.05 -31.7 -14.2 -32.95 -19.2 -29.25 -22.7 L-29.2 -22.75 M-20.7 -8.45 Q-18.7 -8.5 -18.9 -6.85 L-19.6 -1.35 Q-20.95 9.25 -21.6 17.7 -22.6 30.4 -21.0 38.45 -20.2 42.4 -18.05 46.95 L-15.9 51.45 Q-14.95 53.85 -15.05 56.25 L-15.05 56.5 Q-16.9 59.4 -16.65 64.05 -16.45 67.1 -15.2 71.75 L-14.0 75.4 -14.4 75.35 -15.85 85.5 Q-19.5 88.95 -21.9 92.25 -19.8 77.3 -18.9 62.05 L-18.65 58.0 Q-18.55 55.55 -19.15 54.0 -19.7 52.45 -21.3 49.8 -23.0 47.0 -23.55 45.6 -26.15 39.4 -26.2 30.4 L-25.3 14.8 -23.5 -7.2 Q-22.6 -8.4 -20.7 -8.45 M-9.9 -4.35 L-7.65 3.1 Q-6.35 7.55 -6.2 10.65 -11.75 8.75 -18.75 9.75 L-16.95 -5.65 -9.9 -4.35 M-18.8 12.0 L-12.5 11.55 Q-9.05 11.7 -6.15 12.65 L-6.2 13.95 Q-6.45 13.35 -6.85 12.9 -7.5 12.0 -8.15 12.55 -8.8 13.15 -8.1 14.0 -7.3 15.0 -8.45 16.5 -9.35 17.7 -10.8 18.5 -11.6 18.95 -11.0 19.9 -10.4 20.8 -9.6 20.55 L-7.45 20.4 -7.3 20.4 -7.3 20.7 -7.75 22.2 Q-8.75 24.35 -11.0 24.55 -14.2 24.85 -15.5 21.55 -16.65 18.8 -16.0 15.55 -15.8 14.75 -16.8 14.2 -17.8 13.6 -18.0 14.55 -18.6 17.85 -17.65 20.9 -18.35 21.6 -19.55 21.7 L-19.85 21.7 -19.0 12.0 -18.8 12.0 M-16.65 23.15 Q-15.5 25.2 -13.2 26.15 -14.0 27.6 -15.2 28.45 -16.6 29.6 -18.8 28.45 L-19.65 27.55 -20.05 27.0 -19.95 23.8 Q-17.95 24.0 -16.65 23.15 M-6.55 17.85 L-6.7 18.75 -7.1 18.55 -6.55 17.85 M-13.75 30.4 Q-11.95 29.15 -10.9 26.7 L-10.9 26.65 -9.45 26.55 -11.75 31.05 -11.9 31.0 -13.25 30.65 -13.6 30.5 -13.75 30.4 M-13.45 58.4 L-12.7 57.4 Q-12.2 56.6 -12.6 56.5 L-7.2 57.15 Q-4.7 63.45 4.0 69.15 -5.25 70.8 -10.9 68.3 L-12.75 67.1 -14.0 65.55 -14.5 64.9 -14.55 64.3 Q-14.6 62.4 -14.15 60.35 L-13.45 58.4 M-15.7 97.15 Q-12.2 97.7 -9.25 99.0 -6.15 100.4 -4.75 102.5 -3.2 104.95 -4.25 107.9 -5.0 109.9 -6.25 111.3 -6.55 111.6 -6.45 112.0 -13.15 112.8 -18.95 110.5 -28.0 106.9 -22.3 97.05 -19.25 96.65 -15.7 97.15 M-3.65 100.95 Q2.8 104.2 4.1 108.9 0.45 110.6 -3.45 111.45 -1.85 108.9 -1.8 106.15 -1.8 103.15 -3.65 100.95" fill="#ffffff" fill-rule="evenodd" stroke="none"/>
  </g>
</svg>
