<?xml version="1.0" encoding="UTF-8" standalone="no"?>
<svg xmlns:ffdec="https://www.free-decompiler.com/flash" xmlns:xlink="http://www.w3.org/1999/xlink" ffdec:objectType="shape" height="169.05px" width="125.25px" xmlns="http://www.w3.org/2000/svg">
  <g transform="matrix(1.0, 0.0, 0.0, 1.0, 43.15, 47.15)">
    <path d="M36.85 -45.75 Q40.35 -44.2 44.7 -40.6 53.2 -33.35 58.95 -21.55 63.2 -12.75 62.05 -2.85 60.95 6.55 55.25 14.9 L55.15 15.05 53.0 15.6 Q46.8 16.95 42.55 15.15 38.65 13.4 35.45 7.5 L36.8 5.95 Q38.85 3.3 39.45 0.15 40.05 -3.05 39.05 -6.15 39.2 -6.8 38.6 -7.4 L38.3 -8.05 Q36.45 -11.75 34.0 -14.8 31.1 -18.45 28.1 -20.25 26.95 -20.95 26.2 -20.65 25.35 -20.35 25.95 -19.35 L21.95 -18.6 18.25 -18.2 14.55 -18.1 Q12.55 -18.0 12.0 -16.2 L11.85 -14.8 11.7 -13.55 Q11.25 -12.95 10.75 -11.55 8.9 -6.2 12.5 -1.6 16.15 3.0 21.6 2.1 L23.4 10.8 23.3 10.75 15.2 12.2 Q9.7 12.5 9.15 9.0 L8.5 2.85 8.0 -3.35 Q7.1 -15.45 6.55 -25.45 14.45 -26.35 19.85 -30.75 25.95 -35.7 26.2 -43.2 26.2 -43.8 25.5 -44.4 L25.75 -46.15 27.8 -46.75 Q31.95 -47.95 36.85 -45.75 M4.45 -26.7 Q5.55 -9.3 6.3 -0.35 L6.6 5.0 Q6.85 8.2 7.5 10.25 8.8 14.3 14.7 14.25 L23.85 12.95 26.45 25.3 Q18.3 27.65 10.75 27.7 1.7 27.8 -4.85 24.6 -4.6 21.45 -5.0 16.25 L-5.25 14.05 -1.8 13.75 Q0.3 13.3 1.15 12.2 1.8 11.3 1.35 9.4 L0.4 6.6 Q-1.4 1.6 -2.3 -4.95 -2.9 -9.55 -3.25 -16.8 L-3.35 -24.95 -3.25 -26.55 Q-3.2 -27.65 -3.5 -28.15 L-5.7 -30.85 Q-7.2 -32.45 -7.75 -33.7 -8.7 -35.8 -8.05 -38.25 -7.5 -40.35 -5.75 -41.85 -3.85 -40.55 -1.7 -39.6 -0.6 -36.75 2.0 -35.1 4.35 -33.6 7.6 -33.3 12.0 -32.9 16.4 -34.75 20.95 -36.6 23.5 -40.05 21.8 -34.65 16.4 -31.2 11.45 -28.05 5.1 -27.5 4.45 -27.5 4.45 -26.7 M15.25 -16.0 L17.4 -16.0 19.5 -15.95 24.15 -16.6 28.8 -17.6 Q31.75 -15.25 35.7 -9.2 L36.65 -7.45 Q33.2 -6.1 27.2 -5.75 L24.45 -6.0 Q23.25 -6.4 22.45 -7.75 L20.2 -11.8 Q19.1 -13.65 17.45 -14.55 15.7 -15.5 13.95 -15.0 14.2 -15.8 15.25 -16.0 M13.5 -12.05 Q16.15 -14.4 18.75 -10.75 L22.8 -4.75 Q23.9 -3.8 25.8 -3.65 L29.05 -3.7 Q33.95 -4.05 37.35 -5.2 L37.6 -2.6 29.05 -1.2 Q27.4 -2.85 25.3 -2.95 24.0 -3.0 22.95 -2.2 21.95 -1.45 21.45 -0.15 16.4 1.2 13.55 -3.25 10.7 -7.7 13.5 -12.05 M27.1 -0.3 L27.95 -0.2 28.65 4.0 Q30.65 15.95 32.25 23.75 34.95 36.8 38.75 44.2 40.7 48.0 44.05 51.65 L47.4 55.4 Q48.95 57.5 49.55 59.9 49.8 60.8 50.75 60.9 51.75 60.95 51.45 59.85 50.7 56.85 48.9 54.55 L49.0 54.45 Q52.9 46.4 52.8 41.1 52.8 36.95 50.95 31.05 52.85 30.65 54.2 29.65 L55.05 28.95 Q56.3 33.55 56.8 36.65 57.45 40.95 57.0 44.3 56.75 46.1 54.55 53.6 52.9 59.3 53.4 63.05 53.95 67.3 55.0 73.3 L56.75 83.5 63.1 120.0 60.9 121.5 58.75 121.9 57.4 121.6 57.05 119.5 56.5 117.2 54.45 105.75 54.4 105.4 51.6 88.25 49.8 78.3 Q48.0 68.3 47.7 68.2 L46.45 62.3 Q46.55 61.75 46.05 61.2 L45.1 59.05 Q44.2 57.55 41.9 55.45 L38.35 52.05 Q33.3 46.0 30.55 34.85 28.6 27.0 24.05 4.65 L23.35 1.25 24.1 -0.05 Q24.6 -0.7 25.55 -0.85 L27.1 -0.3 M48.9 23.4 Q47.85 23.05 47.9 24.1 48.0 30.4 44.25 31.4 L42.55 31.5 Q43.85 29.15 43.95 26.0 43.95 25.15 42.95 24.8 41.95 24.45 41.9 25.5 41.85 28.3 40.45 30.45 38.9 32.8 36.3 33.1 L35.45 29.95 35.5 29.95 Q37.05 26.6 37.35 24.45 37.9 21.15 36.2 19.0 35.0 17.6 32.9 17.25 L32.55 15.45 32.75 14.8 Q32.6 13.5 33.35 12.35 34.05 11.2 35.35 10.65 38.25 14.8 41.65 16.65 46.55 19.4 54.6 17.5 56.45 25.75 52.0 28.25 L49.8 29.0 49.5 28.85 Q49.9 27.25 49.9 24.6 49.9 23.75 48.9 23.4 M48.55 31.2 L49.05 31.25 Q50.5 36.0 50.75 39.8 51.0 42.75 49.9 46.4 49.1 48.95 47.3 52.65 L46.95 52.25 Q42.45 47.5 40.05 42.95 38.15 39.1 36.9 35.2 39.35 35.0 41.2 33.25 L45.6 33.4 Q47.5 32.9 48.55 31.2 M31.7 10.55 L30.1 0.85 37.35 -0.3 Q36.5 3.6 33.45 6.1 L33.25 6.55 33.3 7.0 34.1 8.6 Q32.7 9.25 31.7 10.55 M18.35 48.75 Q15.5 52.0 11.0 63.8 3.75 65.6 -3.3 64.6 -11.15 63.5 -16.5 59.2 -12.2 48.5 -4.8 26.6 1.9 29.8 10.95 29.8 18.65 29.8 26.95 27.5 29.0 36.85 30.8 41.7 33.6 49.35 38.15 54.35 L41.35 57.3 Q43.35 59.15 43.9 60.75 L44.0 61.1 Q33.55 65.6 28.0 63.4 25.4 56.95 23.55 53.55 20.55 48.1 17.1 45.0 L15.9 45.05 Q15.55 45.85 16.3 46.55 L18.35 48.75 M34.6 26.1 L33.3 19.35 Q36.8 19.7 34.6 26.1 M27.8 65.3 Q31.7 66.85 37.15 65.75 L37.2 65.8 46.15 69.6 47.95 78.7 Q34.7 76.05 26.25 69.55 26.25 66.5 27.8 65.3 M14.1 69.45 Q8.75 74.45 -3.45 75.4 -8.4 71.35 -11.1 66.9 L-12.6 63.8 -12.6 63.75 Q-7.05 66.5 -0.1 66.95 6.35 67.35 12.65 65.7 14.1 66.65 14.1 69.45 M11.4 83.45 Q1.95 86.1 -7.2 85.3 -17.7 84.4 -24.6 79.0 L-23.55 72.45 -23.5 72.4 Q-20.1 76.7 -9.55 77.6 -6.8 77.8 -3.2 77.65 L-2.85 77.65 Q7.7 77.0 13.8 72.8 L12.6 78.25 11.4 83.45 M15.4 75.25 Q18.6 89.8 22.3 103.85 L22.6 105.0 Q22.7 105.45 21.0 106.25 L18.85 107.0 Q17.9 107.15 16.85 106.7 14.35 99.9 12.7 90.3 L12.1 89.45 15.2 76.4 15.4 75.25 M4.6 87.1 L10.75 85.95 8.55 93.25 Q7.3 90.05 4.6 87.1 M7.45 96.2 L7.35 96.45 5.35 100.75 Q2.45 93.4 -7.3 88.9 -14.8 85.5 -24.95 84.25 L-24.8 81.0 Q-19.35 85.0 -11.9 86.6 -5.15 88.05 2.45 87.35 6.75 91.2 7.4 96.05 L7.45 96.2 M40.05 79.0 L40.4 78.75 Q43.65 79.85 48.3 80.8 L48.85 83.8 Q38.9 90.4 36.2 97.4 L34.3 93.65 31.45 87.15 Q35.0 80.65 40.05 79.0 M28.7 79.75 Q26.85 74.2 26.5 71.85 31.0 75.2 37.25 77.65 33.25 79.7 30.4 84.35 L28.7 79.75 M67.5 73.7 Q62.35 72.95 56.65 71.25 L55.8 66.3 Q59.0 64.45 61.45 61.35 65.25 67.0 67.5 73.7 M60.0 59.35 Q58.0 62.0 55.45 63.75 L55.3 60.85 Q55.45 58.3 56.35 55.05 L60.0 59.35 M45.7 67.4 L39.95 65.05 44.7 63.35 45.7 67.4 M49.3 86.4 L49.65 88.5 49.5 88.75 Q44.5 98.6 43.85 108.9 40.6 105.35 37.6 100.05 38.75 96.0 42.2 92.25 44.85 89.45 49.3 86.4 M75.0 89.9 Q68.3 90.3 60.8 95.8 L58.6 83.05 Q67.0 85.15 72.05 87.7 L72.8 87.8 75.0 89.9 M76.95 92.0 Q80.9 96.6 81.9 101.15 L82.1 103.05 Q80.05 101.0 76.5 102.25 71.4 104.0 69.15 105.15 65.4 107.05 63.25 109.85 L61.25 98.45 Q69.7 91.85 76.95 92.0 M70.7 85.05 Q66.05 82.9 58.25 80.95 L57.0 73.35 Q63.15 75.1 68.2 75.85 69.75 80.8 70.7 85.05 M78.5 104.0 Q81.2 102.95 81.75 106.05 80.4 110.55 74.85 113.85 70.15 116.6 64.6 117.45 L63.85 113.35 Q66.65 108.0 74.0 105.45 L78.5 104.0 M51.15 114.8 Q51.5 112.05 53.0 108.8 L54.35 116.3 Q52.55 115.65 51.15 114.8 M49.2 113.6 L45.8 110.85 Q46.15 101.55 50.3 92.4 L52.35 105.0 Q49.85 109.35 49.2 113.6 M-10.7 -46.25 L-7.7 -43.35 Q-11.15 -40.1 -9.95 -35.35 -8.95 -31.35 -5.35 -27.65 -5.65 -18.95 -4.7 -9.55 -3.95 -1.7 -2.2 4.45 L-1.4 6.8 -0.7 9.2 Q-0.35 10.85 -2.15 11.5 L-5.6 11.95 Q-6.25 8.45 -7.85 3.15 L-10.45 -5.6 -10.95 -7.65 -11.8 -11.55 Q-13.55 -22.55 -11.2 -28.7 -10.9 -29.5 -11.8 -30.25 L-13.05 -30.2 Q-13.9 -27.8 -14.3 -25.05 L-15.5 -24.75 Q-16.85 -28.15 -17.3 -31.6 -17.8 -35.55 -16.9 -38.45 -15.55 -42.7 -10.7 -46.25 M-27.0 -18.95 Q-28.75 -19.85 -30.5 -19.25 -30.2 -20.1 -28.9 -20.25 L-26.75 -20.25 -22.1 -20.95 -14.5 -22.7 Q-14.75 -17.95 -13.5 -10.9 L-17.0 -10.45 -19.65 -10.65 Q-20.9 -11.0 -21.75 -12.25 L-24.1 -16.2 Q-25.3 -18.1 -27.0 -18.95 M-31.05 -16.1 L-30.95 -16.15 Q-28.3 -18.75 -25.5 -15.0 L-23.3 -11.7 Q-22.0 -9.75 -21.05 -9.2 -19.55 -8.25 -17.25 -8.15 L-13.05 -8.6 Q-12.4 -5.6 -10.0 2.15 -7.9 8.9 -7.3 13.0 -6.35 20.25 -7.05 25.65 -8.8 19.85 -10.45 12.3 L-13.25 -1.25 -14.2 -4.8 Q-14.85 -6.2 -16.95 -7.2 -18.7 -8.05 -20.3 -7.2 -21.8 -6.45 -22.45 -4.7 -25.25 -3.8 -27.7 -4.95 -30.1 -6.05 -31.35 -8.8 -32.75 -11.95 -31.2 -15.6 L-31.05 -16.1 M-15.8 -4.45 L-14.15 3.8 Q-10.6 20.5 -8.3 27.8 L-7.8 28.45 -10.2 35.6 Q-11.95 31.0 -13.7 24.45 L-16.5 13.1 -20.55 -3.35 Q-20.15 -4.4 -19.25 -5.15 -18.55 -5.75 -17.3 -5.5 -16.0 -5.25 -15.8 -4.45 M-14.85 62.5 Q-13.3 69.05 -5.95 75.55 -14.9 75.9 -20.15 72.85 L-21.8 71.4 -22.85 69.9 Q-21.1 63.75 -17.45 60.65 L-14.85 62.5 M-31.35 90.55 L-26.05 86.6 -25.5 86.2 Q-19.9 86.8 -12.65 89.05 2.05 93.85 4.1 102.75 1.4 106.5 -2.55 108.6 -5.75 110.4 -9.2 111.7 -10.0 105.4 -13.05 100.65 -16.35 95.6 -21.85 93.0 -26.4 90.85 -31.35 90.55 M-23.45 94.3 Q-17.85 96.45 -14.65 101.35 -11.7 105.9 -11.1 112.2 L-11.05 112.4 -13.4 113.15 Q-14.25 109.3 -17.8 105.85 -20.7 103.0 -24.95 100.95 -25.5 100.6 -25.85 100.95 -31.35 97.05 -38.1 96.45 L-33.85 92.6 -33.55 92.65 Q-28.75 92.35 -23.45 94.3 M-23.05 110.95 Q-23.95 113.1 -25.85 114.75 L-26.1 115.25 Q-31.8 115.3 -36.05 113.7 -41.35 111.65 -42.8 107.5 -44.15 103.6 -39.95 98.5 -34.25 98.35 -28.45 101.35 -25.25 103.0 -23.7 105.25 -21.9 107.95 -23.05 110.95 M-21.95 104.7 Q-15.8 108.7 -15.2 113.65 L-22.5 115.05 -22.85 115.05 Q-20.95 112.7 -20.65 109.95 -20.4 107.1 -21.95 104.7" fill="#ffffff" fill-rule="evenodd" stroke="none"/>
  </g>
</svg>
