<?xml version="1.0" encoding="UTF-8" standalone="no"?>
<svg xmlns:ffdec="https://www.free-decompiler.com/flash" xmlns:xlink="http://www.w3.org/1999/xlink" ffdec:objectType="shape" height="170.3px" width="115.2px" xmlns="http://www.w3.org/2000/svg">
  <g transform="matrix(1.0, 0.0, 0.0, 1.0, 42.55, 46.85)">
    <path d="M24.35 -44.2 Q33.7 -48.25 44.1 -39.2 51.65 -32.65 57.45 -21.85 64.1 -9.4 61.6 2.8 60.05 10.2 55.6 17.05 L55.1 17.85 Q55.3 17.5 54.85 17.6 L54.0 17.95 44.45 18.4 Q39.85 17.45 35.85 10.85 L35.45 10.2 36.45 9.15 Q38.7 6.45 39.4 3.15 40.0 -0.1 39.0 -3.45 39.25 -4.1 38.5 -4.75 L36.05 -9.0 32.95 -12.9 Q30.35 -16.0 28.45 -17.25 26.9 -18.25 26.05 -17.95 25.25 -17.6 25.85 -16.6 L21.85 -15.85 18.15 -15.45 14.45 -15.3 Q12.45 -15.2 11.9 -13.4 L11.8 -12.0 11.6 -10.75 10.7 -8.75 Q8.85 -3.4 12.5 1.2 16.15 5.8 21.6 4.85 L22.95 11.2 22.9 11.2 Q22.45 10.75 22.0 10.8 L16.6 11.75 11.2 12.05 9.95 11.8 Q8.6 11.05 7.9 8.85 L7.9 8.8 Q7.55 5.3 7.2 -3.8 6.8 -13.8 6.55 -26.4 14.05 -26.85 19.15 -31.2 24.7 -35.9 24.95 -43.15 24.95 -43.7 24.35 -44.2 M4.5 -27.65 L4.95 -11.0 4.65 -10.45 Q4.0 0.8 5.65 7.45 5.8 8.95 6.25 10.3 7.0 12.75 9.45 13.7 11.95 14.95 16.4 14.55 L23.4 13.4 25.45 22.85 Q19.9 24.25 11.4 24.6 L-3.65 23.85 -7.2 23.3 -10.6 22.9 Q-9.9 18.95 -9.8 13.75 L-4.55 13.95 Q-3.35 13.65 -2.95 11.8 L-2.75 8.9 Q-2.75 6.75 -3.15 3.3 L-3.7 -2.3 Q-4.05 -8.4 -4.05 -15.4 L-3.9 -23.9 -3.75 -25.5 Q-3.75 -26.55 -4.2 -26.95 -7.4 -30.05 -8.1 -34.15 -8.85 -38.4 -6.65 -42.2 L-6.6 -42.35 Q-5.0 -41.2 -3.25 -40.4 -2.25 -37.5 0.25 -35.8 2.55 -34.2 5.8 -33.8 10.4 -33.2 15.05 -35.05 19.85 -36.95 22.4 -40.6 21.0 -35.15 16.05 -31.8 11.35 -28.7 5.15 -28.45 4.5 -28.45 4.5 -27.65 M17.3 -13.2 L19.4 -13.15 24.05 -13.9 28.7 -14.9 32.5 -10.95 35.65 -6.55 36.6 -4.75 Q32.95 -3.4 27.15 -3.05 L24.4 -3.25 Q23.2 -3.7 22.4 -5.0 L20.15 -9.05 Q19.0 -10.9 17.35 -11.8 15.6 -12.75 13.85 -12.25 14.1 -13.0 15.15 -13.2 L17.3 -13.2 M13.4 -9.25 Q16.05 -11.6 18.7 -8.0 L22.75 -2.05 Q23.85 -1.05 25.75 -0.9 L29.0 -1.0 Q33.95 -1.35 37.3 -2.55 L37.55 0.1 29.0 1.5 Q28.25 0.75 27.2 0.3 26.15 -0.2 25.3 -0.2 23.95 -0.25 22.9 0.55 21.9 1.3 21.45 2.6 16.4 3.95 13.5 -0.45 10.65 -4.9 13.4 -9.25 M54.65 20.1 Q56.55 28.35 52.15 30.85 L49.9 31.6 49.6 31.5 Q50.1 29.5 50.0 27.2 50.0 26.35 49.0 26.0 47.95 25.65 48.0 26.7 48.1 33.0 44.4 34.05 L42.65 34.15 Q43.95 31.75 44.05 28.65 44.05 27.8 43.05 27.45 42.05 27.1 42.05 28.15 42.0 30.95 40.6 33.1 39.05 35.45 36.45 35.75 L35.6 32.65 35.6 32.6 Q37.15 29.3 37.45 27.15 38.0 23.85 36.25 21.7 35.05 20.2 32.95 19.95 L32.6 18.15 32.8 17.5 Q32.65 16.2 33.4 15.05 34.1 13.9 35.35 13.3 38.2 17.4 41.7 19.3 46.6 21.95 54.65 20.1 M55.15 31.55 Q56.6 36.75 57.05 40.55 57.6 45.5 56.65 49.6 L54.4 58.1 Q53.3 63.0 53.9 66.75 L55.05 74.1 55.0 74.5 55.25 75.15 63.55 120.95 Q63.75 122.05 62.05 122.85 60.55 123.5 59.3 123.45 L57.95 123.15 57.75 122.2 55.65 112.5 52.35 93.7 Q50.3 81.5 48.9 74.85 L48.25 71.85 48.1 71.05 47.5 68.45 Q47.6 68.05 47.3 67.4 L45.9 62.8 Q45.35 61.25 43.65 59.65 L40.7 57.0 Q35.5 51.9 32.45 43.25 30.95 39.15 28.35 27.55 L23.3 4.0 24.05 2.7 Q24.6 2.05 25.5 1.9 L27.05 2.4 27.95 2.5 28.65 6.7 Q30.5 17.8 32.35 26.45 33.7 32.75 34.95 36.9 36.65 42.5 38.95 46.85 40.85 50.5 44.25 54.25 L47.65 58.05 Q49.25 60.1 49.85 62.5 50.1 63.4 51.05 63.5 52.05 63.55 51.75 62.45 51.0 59.55 49.15 57.15 L49.25 57.05 Q53.1 49.1 53.0 43.7 52.95 39.4 51.05 33.65 52.75 33.3 54.35 32.25 L55.15 31.55 M49.2 33.85 Q50.6 38.5 50.95 42.4 51.2 45.4 50.1 49.0 49.3 51.6 47.55 55.25 L47.2 54.9 Q42.55 50.0 40.25 45.6 38.55 42.35 37.1 37.9 39.65 37.6 41.35 35.9 L45.75 36.0 Q47.6 35.55 48.65 33.8 L49.2 33.85 M33.45 8.8 Q33.1 9.1 33.3 9.7 L34.1 11.3 Q32.65 12.0 31.7 13.25 L30.05 3.55 37.3 2.35 Q36.5 6.25 33.45 8.8 M13.2 45.55 Q8.95 50.5 7.7 58.8 0.9 60.4 -5.3 60.25 -12.55 60.1 -18.0 57.6 -15.7 48.2 -12.75 32.7 L-11.45 25.9 -11.15 25.45 -11.05 25.0 -10.35 24.95 -6.9 25.25 -3.45 25.9 11.2 26.75 Q19.6 26.6 25.9 25.05 L26.5 27.7 Q28.9 38.55 30.55 43.2 33.5 51.65 38.4 57.0 L41.15 59.55 Q28.85 64.2 22.6 61.1 20.4 54.85 18.6 51.15 15.95 45.7 12.65 42.4 11.9 41.65 11.25 42.2 10.6 42.7 11.4 43.5 L13.2 45.55 M34.7 28.8 L33.35 22.05 Q36.95 22.35 34.7 28.8 M20.55 69.5 Q23.3 71.85 27.35 74.45 L30.4 76.2 Q26.5 77.65 23.0 82.15 21.25 75.9 20.65 70.75 L20.55 69.5 M22.25 62.95 Q26.05 64.95 31.6 64.35 L31.65 64.35 Q37.95 68.15 46.45 72.0 L48.15 80.5 38.45 77.45 Q32.9 75.6 29.1 73.45 24.1 70.55 20.5 67.2 20.6 63.95 22.25 62.95 M12.3 70.25 Q12.5 74.25 11.7 79.85 -4.55 86.6 -16.3 83.35 -21.85 81.8 -24.5 78.75 -24.75 78.45 -25.1 78.35 -25.35 73.55 -24.75 69.7 -24.05 71.25 -22.5 72.75 -20.0 75.25 -16.75 76.3 -12.35 77.65 -5.95 77.7 -0.65 77.8 4.15 75.9 9.55 73.75 12.25 69.75 L12.3 70.25 M5.95 72.25 Q1.9 74.75 -2.95 75.4 L-4.9 75.6 Q-10.15 72.35 -13.75 68.5 -18.25 63.75 -19.6 58.8 L-18.2 59.4 Q-15.1 60.7 -11.6 61.4 -1.5 63.55 10.25 60.5 11.4 62.65 11.8 65.55 10.55 69.45 5.95 72.25 M14.1 76.5 Q16.9 88.4 21.5 103.75 L21.85 104.85 20.5 105.9 18.7 106.8 16.1 106.6 Q13.65 100.1 11.9 90.5 13.45 84.1 14.1 76.6 L14.1 76.5 M10.5 86.4 L9.9 89.15 9.8 89.55 8.9 92.95 Q7.25 89.0 3.2 85.15 L11.25 82.55 10.5 86.4 M1.35 85.75 Q7.1 90.85 7.9 95.95 L5.85 100.75 Q2.95 93.35 -6.9 88.9 -14.35 85.5 -24.55 84.25 L-24.95 80.7 Q-22.0 83.6 -16.55 85.25 -8.7 87.8 1.25 85.6 L1.35 85.75 M23.85 85.05 Q27.9 78.9 33.2 77.75 L33.5 77.6 Q36.95 79.1 45.2 81.55 31.5 87.25 27.4 95.75 L26.55 93.25 23.85 85.05 M28.65 98.65 Q31.7 90.45 44.05 84.6 40.2 89.6 37.6 95.65 35.0 101.6 34.0 107.8 31.1 104.05 28.65 98.7 L28.65 98.65 M45.3 67.15 L43.3 68.3 43.1 68.4 Q38.55 66.25 34.45 63.9 38.15 63.15 42.95 61.35 43.85 62.3 44.2 63.4 L45.3 67.15 M45.75 69.65 L45.9 69.6 45.95 69.75 45.75 69.65 M56.55 71.35 Q55.5 65.05 55.85 61.8 59.1 67.55 60.9 75.2 L57.05 74.1 56.55 71.35 M57.4 76.2 L61.4 77.3 62.8 85.1 63.1 86.8 Q61.75 86.0 58.85 84.6 L57.4 76.2 M59.25 86.8 L63.95 89.35 64.8 89.6 66.9 92.05 Q64.0 92.0 60.35 93.0 L59.25 86.8 M51.1 97.15 L51.0 97.2 Q46.6 100.1 43.5 103.95 39.95 108.3 38.9 112.95 L35.85 110.0 Q36.85 102.55 40.15 95.5 43.5 88.25 48.6 82.95 L51.1 97.15 M68.5 94.2 Q71.2 98.05 72.25 101.9 72.75 103.7 72.65 105.55 L72.1 105.0 Q70.65 103.85 68.7 104.05 66.2 104.35 62.65 105.45 L60.8 95.25 Q65.35 93.9 68.5 94.2 M72.0 108.4 Q70.25 112.8 64.5 115.65 L63.05 107.7 67.35 106.7 69.15 106.2 70.95 106.3 Q71.8 106.65 72.0 108.4 M53.4 110.45 Q50.65 113.55 49.6 118.1 44.9 117.3 40.8 114.4 41.7 110.15 44.8 106.1 47.55 102.55 51.5 99.75 L53.4 110.45 M51.8 118.35 Q52.55 115.55 54.0 113.55 L54.95 118.35 51.8 118.35 M0.0 107.45 Q-2.05 108.85 -5.9 110.6 L-8.65 111.75 Q-9.45 105.45 -12.5 100.7 -15.8 95.65 -21.3 93.05 -25.9 90.9 -30.9 90.6 -27.95 88.3 -24.9 86.25 -19.0 86.95 -12.1 89.1 2.7 93.95 4.65 102.9 2.95 105.45 0.0 107.45 M-8.5 -43.65 Q-9.8 -41.4 -10.2 -38.6 -10.55 -35.9 -10.0 -33.3 -9.6 -31.65 -8.6 -29.8 -5.85 -25.95 -5.8 -26.9 L-5.95 -22.85 Q-6.25 -12.25 -5.65 -1.7 L-5.2 3.35 -4.75 8.4 Q-4.7 10.0 -5.0 10.8 -5.45 11.95 -6.75 12.1 L-9.85 11.75 Q-9.95 7.3 -10.7 1.0 L-12.05 -9.8 Q-11.95 -10.25 -12.1 -10.5 -13.35 -21.55 -12.4 -28.9 -12.3 -29.7 -13.3 -30.3 -14.3 -30.85 -14.4 -29.9 L-14.8 -24.65 Q-15.3 -25.05 -15.8 -25.0 L-17.2 -24.65 Q-18.5 -27.85 -19.0 -31.2 -19.5 -34.95 -18.85 -37.85 -18.2 -40.35 -16.1 -42.85 -14.3 -45.0 -11.8 -46.65 L-11.6 -46.85 Q-10.1 -45.1 -8.45 -43.75 L-8.5 -43.65 M-23.8 -20.75 L-14.85 -22.9 Q-14.85 -17.65 -14.1 -11.15 -15.7 -10.45 -18.55 -10.35 L-21.2 -10.45 Q-22.45 -10.8 -23.3 -12.05 L-25.75 -16.0 Q-26.95 -17.9 -28.65 -18.7 -30.4 -19.6 -32.15 -19.0 -31.85 -19.9 -30.55 -20.05 L-28.4 -20.05 -23.8 -20.75 M-32.55 -15.9 Q-29.9 -18.55 -27.1 -14.85 L-24.9 -11.5 Q-23.6 -9.55 -22.65 -9.0 -20.9 -7.95 -18.35 -7.95 -16.05 -7.95 -13.8 -8.75 L-12.45 2.25 Q-11.8 8.55 -11.85 13.25 -14.25 4.6 -15.45 -4.45 -15.65 -5.8 -17.65 -6.75 -19.55 -7.7 -20.95 -7.4 -23.05 -7.0 -23.95 -4.5 -26.55 -3.65 -28.9 -4.6 -31.2 -5.5 -32.6 -7.9 -33.55 -9.5 -33.55 -11.6 -33.55 -13.55 -32.8 -15.35 L-32.65 -15.85 -32.55 -15.9 M-20.55 -5.05 L-18.15 -4.85 -17.5 -4.8 -17.35 -4.2 -16.9 -1.4 Q-15.15 9.3 -12.4 17.6 L-12.1 18.1 Q-12.3 20.25 -12.8 22.95 L-13.2 23.45 -14.0 27.9 -18.2 12.4 -22.05 -3.2 Q-21.65 -4.55 -20.55 -5.05 M-24.5 68.1 Q-23.5 63.25 -21.05 60.2 -18.2 68.45 -7.85 75.7 -14.6 75.6 -19.2 73.15 -20.85 72.3 -21.9 70.8 L-22.35 69.85 Q-22.5 69.05 -23.5 68.7 L-24.5 68.1 M-36.1 95.2 L-33.35 92.65 -33.0 92.7 Q-28.2 92.4 -22.9 94.35 -17.3 96.5 -14.1 101.4 -11.15 105.95 -10.55 112.25 L-10.5 112.4 -12.85 113.15 Q-13.6 109.65 -16.65 106.5 -19.2 103.8 -23.0 101.7 -25.4 99.15 -29.25 97.55 -32.95 96.05 -36.85 95.95 L-36.1 95.2 M-32.15 98.7 Q-28.85 99.55 -25.95 101.5 L-25.4 101.9 Q-25.25 102.55 -24.7 102.85 L-24.05 103.15 Q-21.8 105.7 -22.25 109.0 -22.65 112.1 -25.3 114.8 L-25.55 115.3 Q-30.85 115.4 -35.05 113.85 -40.3 111.95 -42.05 108.05 -43.85 104.0 -38.95 98.2 L-32.15 98.7 M-20.3 110.25 Q-19.85 107.6 -20.75 105.15 -15.25 109.1 -14.65 113.7 -18.85 114.75 -22.45 115.1 -20.75 112.8 -20.3 110.25" fill="#ffffff" fill-rule="evenodd" stroke="none"/>
  </g>
</svg>
