<?xml version="1.0" encoding="UTF-8" standalone="no"?>
<svg xmlns:ffdec="https://www.free-decompiler.com/flash" xmlns:xlink="http://www.w3.org/1999/xlink" ffdec:objectType="shape" height="169.0px" width="107.7px" xmlns="http://www.w3.org/2000/svg">
  <g transform="matrix(1.0, 0.0, 0.0, 1.0, 43.5, 46.3)">
    <path d="M25.25 -45.05 Q32.15 -45.9 40.8 -39.8 49.55 -33.75 56.0 -22.8 61.3 -13.7 61.1 -3.2 60.95 7.05 55.7 16.4 L55.35 16.85 53.85 17.25 Q48.4 18.55 44.05 17.35 39.65 16.1 35.95 9.45 L35.8 9.25 37.05 7.9 Q39.2 5.25 39.8 2.0 40.4 -1.15 39.4 -4.35 39.75 -5.0 38.95 -5.7 L38.8 -6.05 Q37.95 -8.05 36.2 -10.45 L33.0 -14.45 Q30.5 -17.35 28.75 -18.4 27.45 -19.25 26.6 -18.95 25.75 -18.65 26.35 -17.65 L22.35 -16.9 18.65 -16.5 14.95 -16.4 Q12.95 -16.3 12.4 -14.5 L12.25 -13.1 12.1 -11.9 Q11.65 -11.25 11.15 -9.85 9.3 -4.5 12.9 0.1 16.55 4.7 22.0 3.8 L23.4 10.9 23.3 10.85 13.05 12.25 8.65 12.35 Q5.5 12.1 5.05 10.6 4.6 9.15 4.6 6.65 L4.65 2.7 Q4.55 -5.6 4.85 -22.3 L4.9 -24.7 5.0 -24.7 Q8.65 -25.05 12.4 -26.5 18.45 -28.75 21.85 -33.7 25.15 -38.55 25.25 -45.05 M6.1 -34.4 Q10.9 -33.9 15.6 -36.0 20.55 -38.2 22.85 -42.1 21.5 -35.45 16.05 -31.25 10.75 -27.15 3.55 -26.75 2.9 -26.75 2.9 -26.2 2.55 -9.5 2.65 1.15 L2.5 6.6 Q2.6 10.1 3.75 11.8 4.7 13.25 6.75 13.85 L10.45 14.4 17.2 14.1 23.85 13.0 26.55 25.75 26.35 25.75 Q16.25 27.55 5.6 26.8 -5.15 26.05 -14.9 22.85 -14.7 22.5 -14.9 22.05 L-15.35 20.4 -14.0 11.9 -13.2 12.6 Q-7.1 14.4 -5.95 11.1 -5.45 9.7 -5.65 7.1 L-5.95 3.05 -6.1 -1.05 Q-6.25 -14.0 -2.5 -25.85 -2.35 -26.4 -2.85 -26.9 -6.05 -30.0 -6.8 -34.05 -7.55 -38.25 -5.4 -42.05 L-3.1 -40.8 Q-2.0 -37.95 0.55 -36.25 2.9 -34.7 6.1 -34.4 M15.65 -14.3 L17.8 -14.3 19.95 -14.25 24.6 -14.9 29.25 -15.9 Q32.1 -13.6 36.1 -7.45 L37.05 -5.7 Q33.5 -4.4 27.6 -4.05 L24.85 -4.25 Q23.65 -4.7 22.85 -6.0 L21.7 -8.05 20.6 -10.1 Q19.5 -11.95 17.85 -12.85 16.15 -13.8 14.35 -13.35 14.6 -14.1 15.65 -14.3 M19.15 -9.05 L23.15 -3.05 Q24.25 -2.05 26.15 -1.9 L29.45 -2.0 Q34.3 -2.25 37.75 -3.5 L38.0 -0.85 29.4 0.5 Q27.75 -1.15 25.7 -1.25 24.35 -1.25 23.35 -0.45 22.3 0.3 21.85 1.55 16.8 2.9 13.95 -1.55 11.1 -6.0 13.9 -10.35 16.55 -12.7 19.15 -9.05 M55.6 19.15 Q57.2 26.85 52.85 29.2 51.7 29.9 49.95 30.05 L50.25 26.35 Q50.2 25.5 49.2 25.15 48.2 24.8 48.25 25.85 48.25 32.2 44.55 33.15 L42.85 33.25 Q44.15 30.9 44.25 27.75 44.25 26.9 43.25 26.55 42.25 26.2 42.25 27.25 42.2 30.05 40.8 32.15 39.2 34.5 36.6 34.8 L35.8 31.7 35.8 31.65 Q37.35 28.3 37.7 26.2 38.25 22.9 36.5 20.75 35.3 19.25 33.25 19.0 L31.9 11.45 Q32.65 10.4 34.2 9.9 35.5 12.5 37.55 14.75 39.7 17.1 42.0 18.4 47.05 21.15 55.45 19.15 L55.6 19.15 M55.25 30.45 Q56.7 35.8 57.15 39.6 57.7 44.65 56.7 48.8 L54.45 57.3 Q53.3 62.15 53.85 65.95 55.05 74.35 63.15 120.2 63.35 121.35 61.5 122.1 59.9 122.8 58.6 122.65 L57.55 122.35 56.85 119.1 56.7 118.45 54.8 108.9 54.7 108.4 51.25 87.6 Q51.55 87.35 51.5 86.8 L51.0 85.9 49.25 76.4 Q49.4 75.95 49.05 75.35 L48.8 74.0 47.0 65.55 Q47.25 65.25 47.1 64.8 L46.55 64.05 45.9 61.95 Q45.3 60.3 43.1 58.2 42.8 57.65 42.15 57.4 L40.7 56.05 Q35.5 50.95 32.55 42.3 31.1 38.15 28.6 26.55 L23.7 2.95 24.45 1.65 Q25.15 0.95 25.9 0.9 L27.45 1.4 28.35 1.45 29.8 10.35 Q29.25 11.3 29.1 12.35 29.05 12.8 29.5 13.35 29.95 13.8 30.4 13.9 L32.6 25.5 Q35.2 38.4 39.05 45.95 41.0 49.7 44.3 53.4 L47.7 57.15 Q49.25 59.25 49.85 61.65 50.1 62.55 51.05 62.65 52.0 62.7 51.75 61.6 51.0 58.75 49.2 56.3 L49.25 56.2 Q53.2 48.25 53.1 42.85 53.1 38.5 51.05 32.15 53.2 31.95 55.05 30.65 L55.25 30.45 M42.45 48.2 L40.35 44.65 Q38.65 41.35 37.25 36.95 39.15 36.8 40.65 35.7 42.15 43.85 42.45 48.2 M33.95 7.7 Q32.45 7.95 31.45 8.65 L30.45 2.6 37.7 1.45 Q36.9 5.1 33.95 7.7 M8.1 43.25 Q7.5 43.8 8.2 44.65 L8.65 45.3 Q4.5 50.05 4.25 57.8 -2.8 59.4 -9.2 59.05 -16.75 58.65 -21.65 55.5 -21.2 48.85 -19.4 39.85 L-16.1 24.4 Q-6.05 27.95 5.25 28.85 16.4 29.7 27.0 27.85 29.15 38.0 30.85 42.8 33.7 50.9 38.4 56.1 L40.4 57.95 Q34.4 61.3 25.9 62.1 23.7 62.3 21.05 62.0 18.2 61.65 16.65 60.85 14.0 49.05 9.45 43.55 8.75 42.7 8.1 43.25 M34.9 27.85 L33.6 21.1 Q37.2 21.4 34.9 27.85 M25.25 64.3 Q35.9 71.5 47.4 76.4 L48.95 84.9 Q46.75 83.85 41.6 81.85 L40.65 81.55 33.4 78.85 Q29.3 77.25 26.35 75.75 19.25 72.15 14.1 66.7 14.35 63.5 16.15 62.55 19.4 64.3 24.8 64.3 L25.25 64.3 M28.1 64.15 Q35.75 63.35 42.25 59.65 43.7 61.1 44.15 62.5 L44.75 64.25 Q39.55 67.9 36.75 69.05 L36.55 69.15 Q32.45 66.95 28.1 64.15 M9.05 63.65 Q7.8 67.75 3.15 70.3 -0.7 72.4 -5.55 72.9 L-6.6 73.0 Q-18.8 65.35 -21.75 57.45 -15.95 60.95 -7.65 61.25 -0.7 61.5 6.95 59.5 8.2 61.4 9.05 63.65 M9.95 67.2 Q10.55 70.75 10.4 75.25 L10.3 75.3 Q-3.95 85.2 -16.5 82.5 -19.05 81.95 -21.65 80.6 L-26.35 77.8 -26.5 74.5 -26.5 70.0 Q-25.35 71.05 -23.4 72.1 -17.05 75.6 -5.75 75.1 -1.05 74.9 3.1 73.0 7.8 70.85 9.95 67.2 M14.05 69.0 Q17.8 72.6 23.6 76.25 19.4 77.65 15.85 81.8 14.6 76.0 14.25 71.85 L14.05 69.0 M16.55 84.7 Q19.25 81.0 22.9 79.1 L25.15 78.2 26.2 77.9 26.4 77.75 Q29.0 79.05 36.7 81.8 L38.1 82.35 Q24.2 87.2 19.55 95.55 L19.4 95.05 Q18.0 90.5 16.55 84.8 L16.55 84.7 M7.85 92.0 Q6.6 97.0 4.85 100.7 1.9 93.35 -7.95 88.9 -15.45 85.5 -25.6 84.3 L-26.15 80.35 -25.6 80.35 Q-20.45 83.65 -16.3 84.55 -7.85 86.55 1.6 82.7 6.85 87.3 7.85 92.0 M8.6 88.75 Q6.8 85.2 3.35 82.0 6.65 80.5 10.15 78.25 L9.0 86.6 8.6 88.75 M20.7 98.5 Q24.15 90.4 36.75 85.35 32.6 90.1 29.7 96.0 26.8 101.85 25.5 108.0 22.7 103.9 20.65 98.55 L20.7 98.5 M46.95 74.2 Q43.5 72.75 39.2 70.55 41.5 69.4 45.4 66.7 L46.95 74.2 M50.65 95.05 L50.6 95.05 Q43.55 97.2 38.05 101.8 31.85 106.95 30.05 113.45 L28.9 112.35 27.2 110.35 Q28.6 102.9 32.35 95.9 36.2 88.75 41.65 83.7 45.05 85.0 49.3 87.05 L50.65 95.05 M62.85 106.55 L62.65 106.5 60.95 96.65 Q64.6 102.8 64.15 107.75 L62.85 106.55 M54.6 117.8 Q48.45 119.95 42.75 119.35 45.3 112.1 53.1 109.75 L54.5 117.05 54.6 117.8 M40.55 119.0 Q35.75 118.0 31.9 115.0 33.45 108.9 39.25 103.9 44.35 99.55 51.0 97.35 L52.65 107.5 Q43.3 110.0 40.55 119.0 M-8.9 -38.4 Q-9.2 -35.75 -8.65 -33.25 -8.3 -31.65 -7.3 -29.75 -4.85 -25.9 -4.5 -26.8 L-5.55 -23.0 Q-7.9 -13.15 -8.15 -2.65 -8.2 0.7 -7.6 7.35 -7.55 9.0 -7.85 9.75 -8.3 10.9 -9.65 11.05 -10.85 11.2 -13.45 10.55 L-13.8 10.5 Q-12.45 1.0 -12.4 -4.45 L-12.15 -18.35 Q-12.15 -22.35 -12.3 -23.95 -12.55 -27.15 -13.5 -29.4 -13.8 -30.25 -14.8 -30.3 -15.8 -30.4 -15.35 -29.35 -14.6 -27.4 -14.35 -24.95 L-14.5 -24.95 -15.9 -24.6 Q-17.2 -27.8 -17.7 -31.15 -18.2 -34.9 -17.55 -37.8 -16.95 -40.2 -14.95 -42.55 -13.25 -44.65 -10.85 -46.3 L-7.35 -43.3 Q-8.55 -41.1 -8.9 -38.4 M-27.3 -18.65 Q-29.1 -19.55 -30.85 -18.95 -30.55 -19.85 -29.25 -20.0 L-27.1 -20.0 -22.5 -20.7 -14.2 -22.7 -14.3 -11.2 Q-15.25 -10.65 -15.65 -10.55 L-17.3 -10.3 -19.95 -10.45 Q-21.15 -10.8 -22.0 -12.0 L-23.25 -13.95 -24.4 -15.95 Q-25.65 -17.85 -27.3 -18.65 M-31.25 -15.85 Q-28.6 -18.5 -25.8 -14.8 L-23.6 -11.45 Q-22.3 -9.5 -21.35 -8.95 -18.25 -7.15 -14.35 -8.65 L-14.45 -5.05 -14.8 -5.45 Q-18.4 -8.45 -21.0 -6.8 -22.1 -6.1 -22.65 -4.45 -25.25 -3.6 -27.6 -4.55 -29.9 -5.45 -31.3 -7.85 -32.25 -9.45 -32.25 -11.55 -32.25 -13.5 -31.5 -15.3 L-31.35 -15.8 -31.25 -15.85 M-20.6 -3.5 L-19.85 -4.65 Q-18.3 -6.25 -15.6 -3.9 L-14.45 -3.8 Q-14.55 0.35 -15.25 5.9 L-16.7 15.55 Q-18.4 8.95 -20.75 -3.1 L-20.6 -3.5 M-26.3 67.55 Q-25.7 61.75 -23.2 58.7 -19.85 66.2 -9.6 73.1 -16.7 73.1 -22.25 70.65 -25.4 69.25 -26.15 67.75 L-26.3 67.55 M-37.1 95.25 L-34.35 92.7 -33.95 92.75 Q-29.2 92.45 -23.9 94.4 -18.25 96.55 -15.05 101.45 -12.1 106.0 -11.55 112.3 L-11.5 112.45 -13.8 113.25 Q-14.55 109.75 -17.6 106.55 -20.2 103.85 -24.0 101.75 -26.4 99.2 -30.25 97.6 -33.95 96.1 -37.85 96.0 L-37.1 95.25 M-33.15 98.75 Q-29.8 99.6 -26.95 101.55 L-26.4 101.95 Q-26.25 102.6 -25.65 102.9 L-25.05 103.2 Q-22.8 105.75 -23.25 109.05 -23.65 112.15 -26.3 114.85 L-26.5 115.35 Q-31.7 115.45 -36.0 113.9 -41.3 112.0 -43.0 108.1 -44.85 104.15 -39.95 98.25 -36.65 97.8 -33.15 98.75 M-25.85 86.3 Q-19.9 87.0 -13.1 89.15 1.7 94.0 3.65 102.9 2.0 105.65 -1.3 107.75 -3.35 109.1 -7.6 110.95 L-9.65 111.8 Q-10.45 105.5 -13.5 100.75 -16.8 95.7 -22.3 93.1 -26.9 90.95 -31.9 90.65 -29.2 88.5 -25.85 86.3 M-21.75 105.2 Q-16.25 109.15 -15.65 113.75 -19.8 114.8 -23.45 115.15 -21.75 112.85 -21.25 110.3 -20.8 107.65 -21.75 105.2" fill="#ffffff" fill-rule="evenodd" stroke="none"/>
  </g>
</svg>
