<?xml version="1.0" encoding="UTF-8" standalone="no"?>
<svg xmlns:ffdec="https://www.free-decompiler.com/flash" xmlns:xlink="http://www.w3.org/1999/xlink" ffdec:objectType="shape" height="168.5px" width="106.55px" xmlns="http://www.w3.org/2000/svg">
  <g transform="matrix(1.0, 0.0, 0.0, 1.0, 39.65, 46.35)">
    <path d="M25.15 -44.4 Q32.3 -44.9 40.95 -39.2 50.1 -33.35 55.85 -23.45 62.0 -12.85 59.5 -1.9 57.7 5.75 51.5 13.15 L48.7 16.15 Q48.35 16.55 47.7 16.65 L46.15 16.8 Q41.55 17.2 38.0 16.15 35.35 15.4 33.05 12.6 31.2 10.4 29.85 7.3 L29.7 6.9 29.7 6.8 30.35 6.25 Q32.4 4.5 33.85 1.75 35.65 -1.9 34.65 -6.2 34.9 -6.45 34.75 -6.9 L34.25 -7.65 Q33.4 -10.35 30.75 -14.75 L27.75 -19.35 Q25.2 -22.6 23.3 -22.1 22.9 -22.0 22.85 -21.6 22.85 -21.25 23.1 -20.85 L19.1 -20.5 15.5 -20.5 11.9 -20.75 Q9.5 -20.9 8.6 -18.85 L8.45 -17.7 8.25 -16.65 8.1 -16.45 7.15 -14.8 Q4.6 -9.7 7.75 -4.7 10.9 0.25 16.4 0.0 L17.55 11.85 13.0 12.35 8.6 12.45 Q5.45 12.2 5.0 10.7 4.55 9.25 4.55 6.75 L4.6 2.8 Q4.5 -5.5 4.8 -22.2 L4.85 -24.6 4.95 -24.6 Q8.6 -24.95 12.35 -26.4 18.3 -28.65 21.65 -33.4 24.9 -38.05 25.15 -44.4 M6.4 -34.3 Q10.9 -33.85 15.4 -35.7 20.05 -37.6 22.6 -41.15 21.0 -34.85 15.65 -30.9 10.45 -27.05 3.5 -26.65 2.85 -26.65 2.85 -26.1 2.5 -9.4 2.6 1.25 L2.45 6.7 Q2.55 10.2 3.7 11.9 4.65 13.35 6.7 13.95 L10.4 14.5 17.8 14.1 19.05 26.2 Q4.6 26.95 -12.05 22.5 -11.9 20.6 -11.9 14.65 L-11.9 13.05 Q-7.05 14.1 -6.0 11.2 -5.5 9.8 -5.7 7.2 L-6.0 3.15 -6.15 -0.95 Q-6.3 -13.9 -2.55 -25.75 -2.4 -26.3 -2.9 -26.8 -6.15 -29.9 -6.85 -34.0 -7.6 -38.25 -5.4 -42.05 L-2.8 -40.7 Q-1.7 -37.85 0.8 -36.15 3.15 -34.6 6.4 -34.3 M13.7 -18.6 L15.8 -18.2 Q17.8 -18.0 20.75 -18.3 L25.7 -18.85 25.85 -18.7 Q30.2 -14.05 32.4 -7.85 L21.05 -7.35 Q19.2 -7.55 17.9 -10.35 L16.1 -14.85 Q15.3 -16.5 13.75 -17.25 12.3 -18.05 10.65 -17.75 10.95 -18.4 11.6 -18.6 12.25 -18.85 13.7 -18.6 M8.15 -9.55 Q8.15 -12.8 9.9 -14.95 12.85 -17.1 15.0 -13.05 L16.65 -9.45 Q17.6 -7.35 18.45 -6.65 19.65 -5.65 21.35 -5.3 L24.6 -5.0 Q29.45 -4.8 32.95 -5.65 33.1 -4.2 32.9 -2.9 L24.25 -2.45 Q23.0 -3.9 20.7 -4.6 19.45 -4.9 18.25 -4.15 17.15 -3.45 16.5 -2.2 L13.1 -2.45 Q11.2 -3.0 10.0 -4.25 8.1 -6.25 8.15 -9.55 M19.4 -2.05 Q20.05 -2.65 21.5 -2.35 22.95 -2.1 23.0 -1.3 L23.5 7.4 Q22.8 8.35 22.6 9.35 22.5 9.8 22.9 10.3 L23.75 10.9 23.75 11.05 23.25 10.95 19.5 11.6 18.3 -0.65 19.4 -2.05 M32.35 -0.75 Q31.1 2.95 27.95 5.15 26.45 5.25 25.4 5.8 L25.05 -0.35 32.35 -0.75 M46.75 30.0 Q47.65 35.4 47.65 39.25 47.7 44.3 46.3 48.3 L44.3 53.5 Q43.0 56.7 42.45 58.65 L42.25 59.35 Q41.5 62.3 41.65 65.0 L41.8 68.1 Q41.65 68.5 41.8 68.85 L45.25 119.75 Q45.05 120.0 45.2 120.5 44.95 121.5 43.25 121.9 L40.65 122.1 39.55 121.7 39.4 120.35 37.9 99.55 35.85 72.5 35.4 67.8 35.45 67.65 Q35.55 67.25 35.3 66.95 34.9 63.3 34.2 60.2 33.8 58.65 32.15 56.7 L29.4 53.65 Q24.9 48.05 22.9 39.15 22.0 35.1 20.7 23.2 L19.75 13.8 23.9 13.1 24.8 23.5 Q26.1 36.45 29.25 44.2 30.7 47.75 33.55 51.7 L36.45 55.7 Q37.75 57.9 38.1 60.3 38.2 61.15 39.25 61.5 40.25 61.85 40.1 60.8 39.6 57.55 38.1 55.05 L38.2 54.85 Q40.5 51.25 41.7 48.45 43.3 44.75 43.45 41.45 43.7 37.2 42.45 31.2 44.75 31.1 46.45 30.2 L46.75 30.0 M42.25 25.5 Q42.35 24.7 41.35 24.15 40.3 23.55 40.25 24.5 39.65 31.1 35.85 31.6 L34.15 31.5 Q35.75 29.4 36.15 26.3 36.25 25.5 35.25 24.95 34.25 24.35 34.15 25.3 33.85 28.15 32.25 30.15 30.45 32.35 27.85 32.4 L27.35 29.15 27.4 29.05 Q29.25 25.9 29.85 23.8 30.7 20.5 29.1 18.3 28.0 16.85 26.1 16.35 L25.55 8.6 Q26.4 7.6 27.95 7.35 29.1 10.35 31.25 13.05 33.45 15.75 36.05 17.35 40.4 19.95 48.25 18.75 49.0 26.4 44.75 28.45 43.3 29.15 41.55 29.05 42.05 27.55 42.25 25.5 M41.4 41.2 Q41.1 45.85 36.65 52.95 32.15 46.85 30.6 42.75 29.15 39.05 28.25 34.55 30.75 34.55 32.7 33.05 35.05 34.0 37.05 33.65 39.2 33.25 40.55 31.25 41.6 36.6 41.4 41.2 M9.5 44.35 Q9.15 45.15 9.9 45.85 L11.2 47.15 Q7.7 51.7 8.1 57.9 1.05 59.5 -5.35 59.15 -12.9 58.75 -17.75 55.6 -17.05 45.4 -14.35 33.25 -14.15 33.05 -14.2 32.55 L-12.3 24.45 Q4.75 29.05 19.3 28.3 20.3 36.6 21.65 41.55 23.55 48.65 27.25 53.6 L30.15 56.85 Q31.95 58.9 32.35 60.5 L32.55 61.45 Q26.9 62.45 22.5 61.55 L19.85 60.7 19.5 60.55 Q17.25 52.55 13.65 47.65 13.75 47.15 13.35 46.65 12.9 46.1 12.4 46.05 L10.7 44.3 9.5 44.35 M26.85 25.05 L26.3 18.35 Q29.55 19.0 26.85 25.05 M33.25 65.4 L30.9 63.9 33.0 63.6 33.25 65.4 M33.5 67.6 L34.4 77.9 Q24.05 74.1 16.85 66.35 17.3 63.3 19.0 62.35 22.5 64.35 28.1 64.15 L33.5 67.6 M7.05 70.4 Q3.2 72.5 -1.65 73.0 L-2.7 73.1 Q-14.95 65.4 -17.85 57.55 -12.05 61.05 -3.8 61.35 3.2 61.6 10.85 59.6 12.15 61.6 12.9 63.75 11.65 67.9 7.05 70.4 M13.85 67.3 Q14.5 71.0 14.25 75.35 L14.2 75.4 Q-0.05 85.3 -12.65 82.6 -15.2 82.05 -17.8 80.7 -19.4 79.9 -22.45 77.9 L-22.6 74.6 -22.6 70.1 Q-21.45 71.15 -19.5 72.2 -13.15 75.7 -1.85 75.2 2.85 75.0 7.0 73.1 11.7 70.95 13.85 67.3 M11.75 92.1 Q10.5 97.1 8.75 100.8 5.8 93.45 -4.05 89.0 -11.55 85.6 -21.7 84.4 L-22.25 80.45 -21.7 80.45 Q-16.55 83.75 -12.4 84.65 -4.0 86.65 5.5 82.8 10.75 87.4 11.75 92.1 M17.75 76.9 Q16.75 71.2 16.7 68.6 21.1 73.0 26.4 76.05 22.3 77.4 18.65 81.55 L17.75 76.9 M7.2 82.1 L14.05 78.35 12.85 86.7 12.45 88.85 Q10.7 85.25 7.2 82.1 M34.9 84.9 Q25.55 89.6 22.3 95.3 L21.1 91.3 19.3 84.5 Q22.1 80.8 25.7 78.9 26.75 78.4 27.95 78.0 L28.9 77.75 29.2 77.6 34.55 79.95 34.9 84.9 M23.35 98.3 Q26.1 92.15 35.05 87.45 L35.25 91.05 35.2 91.1 Q30.1 99.1 28.1 107.8 25.7 104.2 23.9 99.85 L23.35 98.35 23.35 98.3 M48.95 56.85 L51.65 61.3 43.75 66.75 Q43.65 63.15 44.25 60.3 47.65 58.7 48.95 56.85 M47.65 51.0 L47.7 54.25 47.55 54.55 46.95 55.45 45.25 57.0 47.65 51.0 M43.85 69.45 Q47.65 67.2 52.8 63.45 54.25 66.4 55.1 68.8 56.25 71.95 57.05 76.9 51.35 75.15 43.95 71.4 L43.85 69.45 M44.7 83.75 Q53.9 87.4 59.15 91.15 L59.95 91.4 61.9 94.0 Q54.55 93.25 45.7 98.25 L44.7 83.75 M44.6 81.7 L44.1 73.5 Q51.15 77.05 57.35 78.95 L58.15 86.85 58.3 88.5 Q53.35 85.25 44.6 81.7 M63.4 96.2 Q66.15 100.75 66.8 105.2 L66.85 107.8 Q65.9 106.45 64.2 106.25 L61.05 106.45 Q56.0 107.25 53.2 108.25 49.2 109.65 46.7 112.35 L45.9 100.85 Q50.1 98.3 54.3 97.05 59.3 95.5 63.4 96.2 M65.5 109.0 Q65.95 109.75 66.0 110.85 64.0 115.15 58.05 117.55 52.95 119.55 47.2 119.55 L46.95 115.8 Q50.55 110.4 59.0 109.0 L63.8 108.2 Q64.95 108.05 65.5 109.0 M34.5 114.95 Q35.1 112.85 36.45 110.5 L37.0 116.65 34.5 114.95 M29.8 110.2 Q31.3 102.5 35.5 95.2 L36.15 106.6 Q33.7 110.05 32.65 113.35 L29.8 110.2 M2.6 107.85 Q0.5 109.2 -3.7 111.05 L-5.75 111.9 Q-6.55 105.6 -9.6 100.85 -12.9 95.8 -18.4 93.2 -23.0 91.05 -28.0 90.75 L-21.95 86.4 Q-15.95 87.1 -9.2 89.25 5.6 94.1 7.55 103.0 5.85 105.75 2.6 107.85 M-8.95 -38.4 Q-9.3 -35.75 -8.7 -33.15 -8.35 -31.55 -7.35 -29.65 -4.9 -25.8 -4.55 -26.7 L-5.6 -22.9 Q-7.95 -13.05 -8.2 -2.55 -8.25 0.8 -7.65 7.45 -7.6 9.1 -7.9 9.85 -8.35 11.0 -9.7 11.15 L-11.95 11.0 Q-12.05 -0.3 -13.45 -27.65 -13.55 -28.5 -14.55 -28.9 -15.55 -29.25 -15.5 -28.2 L-15.3 -24.6 -18.2 -23.95 Q-21.25 -33.2 -18.75 -38.3 -16.6 -42.55 -10.75 -46.35 L-7.3 -43.4 Q-8.6 -41.15 -8.95 -38.4 M-23.35 -20.8 L-15.15 -22.4 -14.6 -11.2 Q-15.8 -10.6 -16.15 -10.5 L-17.9 -10.25 -20.55 -10.55 Q-21.7 -10.95 -22.55 -12.2 L-24.8 -16.25 Q-25.95 -18.15 -27.55 -19.05 -29.3 -20.0 -31.05 -19.5 -30.7 -20.25 -29.7 -20.4 L-27.8 -20.4 -23.35 -20.8 M-31.6 -16.45 Q-28.9 -18.9 -26.25 -15.25 L-22.2 -9.25 Q-20.7 -8.0 -18.45 -7.95 -16.5 -7.9 -14.45 -8.7 L-14.25 -3.6 -15.6 -5.35 Q-19.2 -8.5 -21.65 -6.95 -22.8 -6.25 -23.5 -4.65 -25.8 -4.0 -27.95 -4.7 -30.15 -5.45 -31.45 -7.45 -32.8 -9.55 -32.6 -12.0 L-31.65 -16.4 -31.6 -16.45 M-21.5 -3.55 L-20.7 -4.7 Q-19.75 -5.6 -17.45 -4.7 -15.6 -4.0 -14.4 -2.95 L-14.2 -2.8 -13.95 10.6 Q-14.35 10.65 -14.3 11.2 -14.3 11.75 -13.95 12.2 L-13.95 22.15 -14.2 23.85 -14.8 25.95 -15.35 28.0 -18.7 12.4 -21.6 -3.25 -21.5 -3.55 M-18.35 70.75 Q-21.5 69.35 -22.25 67.85 L-22.45 67.65 Q-21.75 61.8 -19.3 58.8 -15.95 66.3 -5.7 73.2 -12.8 73.2 -18.35 70.75 M-33.2 95.35 L-30.45 92.8 -30.05 92.85 Q-25.3 92.55 -20.0 94.5 -14.4 96.65 -11.2 101.55 -8.25 106.1 -7.65 112.4 L-7.6 112.55 -9.95 113.35 Q-10.7 109.85 -13.75 106.65 -16.3 103.95 -20.1 101.85 -22.5 99.3 -26.35 97.7 -30.05 96.2 -33.95 96.1 L-33.2 95.35 M-29.25 98.85 Q-25.9 99.7 -23.05 101.65 L-22.5 102.05 -21.75 103.0 -21.15 103.3 Q-18.9 105.85 -19.35 109.15 -19.75 112.25 -22.4 114.95 L-22.6 115.45 Q-27.8 115.55 -32.1 114.0 -37.4 112.1 -39.15 108.2 -40.95 104.15 -36.05 98.35 L-29.25 98.85 M-17.85 105.3 Q-12.35 109.25 -11.75 113.85 L-19.55 115.25 Q-17.85 112.95 -17.4 110.4 -16.9 107.75 -17.85 105.3" fill="#ffffff" fill-rule="evenodd" stroke="none"/>
  </g>
</svg>
