<?xml version="1.0" encoding="UTF-8" standalone="no"?>
<svg xmlns:ffdec="https://www.free-decompiler.com/flash" xmlns:xlink="http://www.w3.org/1999/xlink" ffdec:objectType="shape" height="165.15px" width="112.65px" xmlns="http://www.w3.org/2000/svg">
  <g transform="matrix(1.0, 0.0, 0.0, 1.0, 32.75, 46.45)">
    <path d="M30.3 -44.9 Q38.05 -44.7 44.6 -35.95 50.25 -28.55 52.7 -16.8 55.15 -5.2 52.35 3.2 50.65 8.35 46.8 12.9 43.2 17.25 38.4 20.3 L38.0 20.6 37.4 20.5 31.4 19.4 Q27.5 18.25 24.95 14.65 22.6 11.35 22.1 7.05 25.55 6.6 27.2 1.15 28.35 -2.5 28.4 -6.95 28.45 -11.5 27.4 -14.75 25.95 -19.35 22.5 -20.65 21.9 -20.85 21.75 -20.45 21.65 -20.1 21.85 -19.55 L16.95 -20.45 13.6 -21.4 10.3 -22.55 Q8.65 -23.0 7.45 -21.55 L6.6 -26.4 7.35 -26.6 10.95 -27.7 Q16.15 -29.6 19.35 -32.8 23.05 -36.55 23.15 -41.4 L23.9 -42.65 Q24.95 -43.85 26.85 -44.45 L30.3 -44.9 M4.45 -27.55 L5.95 -19.1 5.8 -18.9 4.25 -17.2 Q1.15 -13.1 2.75 -8.15 4.3 -3.3 8.95 -1.65 L5.8 24.0 5.7 23.95 Q0.6 23.6 -2.75 22.2 -2.55 18.25 -3.1 13.85 L-0.55 14.4 Q0.8 14.4 1.65 13.35 2.45 12.3 2.0 10.05 L1.0 6.75 Q-2.25 -2.35 -3.45 -14.6 -4.1 -22.0 -4.05 -29.45 -4.05 -30.15 -4.4 -30.6 L-6.55 -33.4 Q-7.3 -34.95 -7.2 -36.85 -7.15 -39.0 -5.95 -41.45 L-5.55 -41.7 Q-5.2 -42.0 -5.25 -42.3 -3.45 -41.2 -2.45 -40.75 L-1.05 -38.3 Q1.55 -34.95 6.75 -34.35 10.25 -33.95 13.9 -35.05 17.6 -36.15 20.35 -38.45 18.75 -34.45 14.0 -31.65 9.95 -29.3 4.9 -28.35 4.45 -28.2 4.45 -27.55 M13.8 -19.15 Q15.75 -18.4 18.9 -17.9 L24.1 -17.1 24.25 -17.1 24.65 -16.55 Q26.85 -13.1 26.3 -5.7 L26.2 -4.95 Q21.8 -4.8 16.4 -7.0 14.65 -7.7 14.2 -10.8 14.0 -14.35 13.6 -15.55 13.05 -17.35 11.85 -18.5 10.65 -19.65 9.05 -19.8 L9.25 -20.05 Q9.9 -20.85 11.5 -20.25 L13.8 -19.15 M7.65 -17.4 Q10.95 -18.7 11.9 -14.5 L13.3 -7.8 Q14.8 -5.25 18.8 -3.9 22.0 -2.85 25.9 -2.8 25.65 -1.05 25.2 0.15 L18.35 -1.45 Q17.55 -3.2 15.35 -4.45 L12.8 -4.65 Q11.55 -4.25 10.6 -3.25 5.4 -3.75 4.55 -8.95 3.7 -14.0 7.55 -17.25 L7.65 -17.4 M13.0 -2.2 Q13.8 -2.7 14.5 -2.65 14.25 -2.6 15.45 -1.9 L16.7 -0.95 14.25 11.25 14.15 11.55 13.6 14.8 Q13.45 14.95 13.45 15.4 L11.7 25.9 Q11.4 26.3 11.6 26.8 10.1 37.0 11.05 44.4 11.5 48.5 13.45 53.4 L15.15 57.9 Q15.75 60.25 15.5 62.6 15.4 63.45 16.4 64.0 17.4 64.6 17.5 63.6 17.9 60.65 17.0 57.5 L17.2 57.35 Q23.95 51.1 25.6 45.95 27.1 41.5 27.35 35.15 27.4 34.35 26.4 33.8 25.4 33.2 25.35 34.15 25.1 39.45 23.9 44.0 23.1 46.95 20.8 50.05 L16.1 55.1 16.05 55.0 Q13.45 48.7 12.85 43.3 12.4 38.9 12.9 33.15 L17.35 32.85 Q19.35 34.35 21.45 34.5 23.8 34.7 25.65 32.95 28.55 34.25 31.2 33.65 L31.8 33.45 31.8 33.5 Q31.25 39.85 30.45 43.55 29.25 49.1 26.75 52.85 L21.5 60.05 Q18.6 64.3 17.75 68.0 16.25 74.9 14.9 82.55 L14.8 82.95 9.2 114.75 6.6 115.4 Q5.25 115.55 4.05 114.7 L3.6 114.4 Q3.8 114.0 3.45 113.35 L3.65 110.15 4.15 106.45 7.25 91.4 10.15 76.85 Q11.7 68.35 11.9 62.1 11.95 60.6 11.3 58.9 L9.85 55.9 Q6.65 49.45 6.35 41.45 6.2 36.6 7.1 29.6 L8.7 17.75 11.0 -1.1 11.0 -1.2 11.1 -1.15 Q11.5 -0.9 11.85 -1.15 L12.15 -1.45 13.0 -2.2 M56.75 41.9 L57.4 48.25 57.4 50.95 Q57.35 52.65 57.55 53.6 56.6 55.75 53.4 57.55 51.55 58.6 48.15 59.85 36.35 64.55 29.95 61.45 29.15 58.1 27.7 55.55 L29.5 52.85 Q31.65 49.4 32.7 44.0 33.25 40.9 33.8 34.5 33.9 33.65 32.8 33.05 37.2 30.9 38.15 22.6 L38.8 22.65 Q39.8 22.7 41.45 21.35 L43.7 19.35 Q46.95 16.65 49.5 13.25 54.65 25.55 56.75 41.9 M20.65 4.95 Q20.0 4.95 20.0 5.8 L20.25 7.5 19.95 7.45 Q18.45 7.4 17.1 8.0 L18.6 0.6 24.5 1.95 Q23.0 5.0 20.65 4.95 M26.85 19.2 Q30.25 21.7 36.05 22.4 35.0 30.25 30.3 31.55 L26.9 31.4 Q27.85 30.0 28.6 28.05 28.85 27.3 27.95 26.55 L26.75 26.6 Q25.7 29.25 24.6 30.6 22.9 32.65 20.7 32.35 19.95 32.3 19.1 31.85 21.3 30.2 22.5 27.25 22.8 26.5 21.9 25.75 L20.65 25.8 Q19.6 28.4 17.7 29.9 15.55 31.6 13.1 31.2 L13.6 27.4 Q16.1 24.9 17.1 23.1 18.7 20.25 17.75 17.85 17.15 16.35 15.65 15.4 L16.25 12.2 16.9 11.05 Q18.2 9.45 20.7 9.55 21.5 12.5 23.05 15.0 24.7 17.65 26.85 19.2 M15.95 18.15 Q16.75 20.1 14.25 23.2 L15.3 17.35 15.95 18.15 M4.45 36.65 Q4.15 42.55 5.0 47.25 5.5 49.95 6.75 53.05 L9.2 58.5 9.6 59.5 Q0.1 59.85 -5.95 57.35 -6.4 52.85 -6.0 47.1 L-5.05 36.85 -3.4 23.9 Q-0.15 25.45 5.5 26.0 4.6 32.6 4.45 36.65 M29.45 63.2 Q33.2 65.15 38.8 64.55 L38.9 64.6 Q55.05 74.25 68.65 77.5 L69.35 80.95 70.3 86.95 Q65.4 84.1 58.65 81.75 54.35 80.2 46.45 78.0 41.35 76.55 36.45 73.85 31.55 71.1 27.7 67.45 27.9 64.2 29.45 63.2 M27.8 69.8 Q32.05 73.5 37.65 76.45 33.55 78.05 30.3 82.45 28.55 76.2 28.0 71.55 L27.8 69.8 M24.4 64.3 Q23.4 67.9 19.35 70.9 L19.75 69.0 Q20.55 65.4 23.45 61.2 L24.4 64.3 M9.15 68.1 L8.05 74.95 8.0 74.95 Q2.65 71.85 -1.1 68.25 -5.75 63.65 -7.25 58.8 L-5.85 59.35 Q1.2 61.95 9.9 61.6 L9.7 64.95 9.15 68.1 M16.4 86.35 Q20.85 90.4 21.65 94.85 L19.85 99.7 19.8 99.75 Q18.3 96.4 15.1 93.6 L16.4 86.35 M5.45 88.2 Q-3.0 85.15 -11.25 84.4 L-11.75 80.9 Q-8.55 83.85 -3.45 85.15 0.85 86.2 5.9 86.05 L5.45 88.2 M6.35 83.9 L-3.1 83.25 Q-8.5 82.0 -11.35 78.95 -11.7 78.6 -11.95 78.55 -12.45 70.9 -10.85 64.85 -10.15 62.25 -8.65 60.25 -5.45 68.4 4.95 75.15 -2.65 75.25 -7.05 72.7 -9.25 71.3 -9.65 69.7 -9.85 68.8 -10.8 68.75 -11.8 68.65 -11.55 69.75 -11.05 72.1 -7.95 74.15 -2.6 77.85 7.65 77.15 L6.35 83.9 M16.8 84.2 Q20.85 82.95 24.5 81.35 L23.8 85.95 22.55 91.8 Q20.65 87.8 16.75 84.4 L16.8 84.2 M31.15 85.3 Q32.9 82.65 35.15 80.75 37.75 78.6 40.5 78.0 L40.7 77.9 42.65 78.75 52.15 81.9 Q38.75 87.6 34.75 96.0 L34.0 94.05 31.15 85.3 M36.0 98.9 Q39.05 90.6 51.35 84.85 47.5 89.85 44.9 95.9 42.35 101.85 41.35 108.1 38.3 104.05 35.95 98.95 L36.0 98.9 M17.25 81.65 L18.65 74.2 Q22.95 71.7 25.1 68.25 25.5 72.95 24.85 78.6 20.6 80.55 17.25 81.65 M60.6 58.05 L62.05 60.25 56.55 64.8 Q53.3 67.3 50.55 68.55 L50.25 68.75 41.55 64.15 48.45 62.2 Q56.6 59.45 58.9 56.0 L60.6 58.05 M58.3 66.45 L63.25 62.35 Q66.4 68.0 68.15 75.4 60.65 73.55 52.9 70.0 55.35 68.7 58.3 66.45 M56.0 83.05 Q65.95 86.15 71.25 89.55 L72.05 89.75 74.15 92.2 Q65.3 91.85 56.75 98.25 48.05 104.7 46.2 113.25 L43.15 110.3 Q44.2 102.8 47.5 95.7 50.85 88.4 56.0 83.05 M75.8 94.4 L77.55 97.2 Q80.1 101.7 79.9 105.7 L79.05 104.9 Q77.8 103.9 75.4 104.3 L71.6 105.2 Q59.35 107.95 56.95 118.45 52.25 117.65 48.1 114.75 49.4 108.5 55.3 102.8 59.3 98.9 64.75 96.5 70.75 93.85 75.8 94.4 M78.1 106.75 Q79.15 107.25 79.3 108.8 L78.55 110.45 Q76.4 114.15 71.1 116.35 66.75 118.2 61.7 118.6 L59.1 118.65 Q61.4 110.7 69.8 108.05 71.2 107.6 75.4 106.7 L78.1 106.75 M12.6 107.7 L14.75 95.55 Q17.65 98.3 18.65 101.9 16.5 105.25 12.6 107.7 M2.15 105.55 Q1.5 109.1 1.45 112.4 L1.45 112.45 Q0.45 109.1 -2.65 106.15 -5.3 103.65 -9.05 101.75 -11.6 99.25 -15.5 97.85 -19.3 96.5 -23.15 96.6 L-20.3 93.7 -19.65 93.15 -19.4 93.2 Q-12.45 92.5 -6.55 95.7 -0.4 99.0 2.2 105.2 L2.15 105.55 M2.7 102.35 Q-0.4 97.15 -5.75 94.1 -11.05 91.05 -17.25 90.95 -14.35 88.45 -11.5 86.45 -3.05 87.05 5.1 90.05 L2.7 102.35 M-10.4 -46.4 L-10.35 -46.45 -7.35 -43.7 Q-9.45 -40.2 -9.15 -36.45 -8.8 -32.65 -6.05 -29.85 -6.2 -20.9 -5.0 -10.9 -4.05 -2.5 -1.7 4.75 L-0.4 8.35 Q0.35 10.7 -0.2 11.85 -0.5 12.7 -3.45 11.8 -4.35 6.55 -8.55 -5.85 -12.3 -17.05 -12.9 -23.65 L-13.3 -30.75 Q-13.25 -31.55 -14.25 -32.1 -15.25 -32.7 -15.3 -31.75 L-15.05 -25.85 -18.5 -26.25 Q-18.9 -32.6 -17.3 -37.7 -15.3 -44.3 -10.4 -46.4 M-25.95 -25.9 L-23.6 -24.95 -19.25 -24.1 -14.75 -23.75 Q-14.05 -18.8 -11.75 -11.25 L-12.05 -11.3 -16.1 -11.7 -20.0 -12.9 Q-22.1 -13.5 -22.85 -16.45 L-23.8 -21.4 Q-24.3 -23.15 -25.6 -24.25 -26.95 -25.3 -28.6 -25.4 L-28.15 -25.95 -25.95 -25.9 M-29.85 -22.9 Q-26.75 -24.3 -25.45 -20.3 L-23.7 -13.75 Q-23.05 -12.45 -21.6 -11.6 -20.6 -11.1 -18.75 -10.55 L-15.1 -9.5 -11.35 -9.2 -11.1 -9.25 -10.0 -5.85 -10.45 -6.05 -18.3 -7.65 Q-19.3 -9.5 -21.55 -10.5 -22.75 -11.05 -24.05 -10.5 -25.2 -10.05 -26.1 -9.0 -31.3 -9.2 -32.5 -14.4 -33.65 -19.45 -29.9 -22.85 L-29.85 -22.9 M-21.6 -8.45 Q-19.6 -8.45 -19.9 -6.8 L-20.7 -1.3 Q-22.15 8.75 -23.05 17.75 -24.3 30.7 -22.85 38.5 -22.1 42.45 -20.05 47.0 L-19.0 49.25 -18.1 51.4 -17.9 51.9 Q-17.15 54.1 -17.3 56.4 -17.35 57.2 -16.35 57.8 -15.35 58.35 -15.3 57.4 -15.1 54.55 -15.9 51.95 -14.75 50.0 -11.95 47.3 L-7.8 42.8 -8.2 50.75 Q-12.9 55.55 -14.25 60.3 -15.4 64.45 -16.75 73.35 L-19.05 89.2 -19.05 89.4 -21.15 91.25 -25.35 95.45 Q-23.3 82.6 -21.75 67.0 -20.9 59.2 -20.95 55.85 -21.0 54.25 -22.15 52.1 L-24.2 48.6 Q-27.6 42.2 -27.85 33.0 -27.95 28.8 -26.85 16.75 L-24.45 -7.25 Q-23.5 -8.45 -21.6 -8.45 M-10.2 -4.0 Q-9.7 -3.85 -9.45 -4.2 -6.0 6.45 -5.15 12.75 -11.25 9.45 -20.05 9.9 L-17.9 -5.55 -10.2 -4.0 M-19.55 19.15 Q-19.25 21.45 -18.15 23.4 -16.95 25.35 -14.8 26.3 -15.45 27.45 -16.75 28.55 -17.75 29.3 -19.3 29.0 -20.95 28.65 -21.3 27.55 L-21.65 27.0 Q-21.5 21.8 -20.3 12.05 -14.45 11.65 -9.6 12.95 -10.05 13.5 -9.45 14.25 -8.7 15.25 -9.85 16.75 -10.85 17.95 -12.3 18.75 -13.1 19.2 -12.5 20.1 -11.9 21.0 -11.1 20.75 L-9.05 20.65 Q-8.65 20.7 -8.85 21.4 L-9.35 22.5 Q-10.3 24.55 -12.4 24.75 -15.7 25.15 -17.0 21.75 -18.1 18.9 -17.35 15.65 -17.2 14.8 -18.15 14.25 -19.15 13.7 -19.35 14.65 -19.9 16.85 -19.55 19.15 M-8.55 18.85 Q-6.15 16.2 -8.0 13.5 -6.7 13.9 -4.9 14.9 -4.6 18.25 -4.8 21.4 L-4.8 21.45 Q-5.25 21.55 -5.3 21.95 L-6.55 31.5 -6.8 31.6 -7.7 31.45 Q-6.15 29.25 -7.25 25.5 -7.4 25.05 -7.85 24.75 -6.9 23.35 -6.8 21.9 -6.7 20.3 -7.75 19.35 -8.05 19.05 -8.55 18.85 M-9.05 25.95 Q-8.55 27.95 -9.15 29.3 -9.8 30.85 -11.8 31.15 L-13.5 31.2 -13.9 31.15 -15.2 30.7 -15.4 30.55 Q-13.75 29.45 -12.5 26.9 L-12.5 26.85 -9.75 26.4 -9.05 25.95 M-25.15 98.95 L-18.0 99.2 Q-14.45 100.1 -11.4 102.1 L-10.7 103.0 -9.9 103.35 Q-7.6 105.75 -8.0 109.15 -8.35 112.25 -10.8 114.95 L-11.0 115.45 -17.4 115.1 Q-22.0 114.35 -25.1 111.95 -28.9 109.0 -28.15 104.85 -27.65 102.1 -25.2 98.95 L-25.15 98.95 M-6.65 105.2 Q-0.9 108.9 -0.25 113.4 -4.1 114.65 -8.0 115.15 -6.4 112.8 -6.0 110.25 -5.6 107.6 -6.65 105.2" fill="#ffffff" fill-rule="evenodd" stroke="none"/>
  </g>
</svg>
